<svg width="16" height="16" viewBox="0 0 16 16" fill="none" xmlns="http://www.w3.org/2000/svg">
    <path d="M.124 6.568a.927.927 0 0 1 .34-1.266l.97-.56a.927.927 0 0 0 .463-.803V2.822c0-.512.415-.927.927-.927H3.94a.927.927 0 0 0 .802-.463l.56-.969A.927.927 0 0 1 6.568.124l.969.56c.286.165.64.165.926 0l.969-.56a.926.926 0 0 1 1.265.34l.56.968a.926.926 0 0 0 .802.463h1.12c.512 0 .927.415.927.927v1.119c0 .331.176.637.463.802l.968.559a.927.927 0 0 1 .339 1.266l-.56.969a.927.927 0 0 0 0 .927l.559.968a.926.926 0 0 1-.34 1.265l-.966.559a.926.926 0 0 0-.463.802v1.12a.927.927 0 0 1-.927.926h-1.12a.927.927 0 0 0-.802.463l-.559.969a.927.927 0 0 1-1.266.339l-.969-.56a.927.927 0 0 0-.926 0l-.97.56a.927.927 0 0 1-1.265-.34l-.56-.968a.927.927 0 0 0-.802-.463H2.824a.927.927 0 0 1-.927-.926v-1.119a.927.927 0 0 0-.463-.802l-.97-.56a.926.926 0 0 1-.339-1.265l.559-.968a.927.927 0 0 0 0-.927l-.56-.97z" fill="#1BA5F8"/>
    <path d="m11.09 6.834-3.847 3.692-2.307-2.215" stroke="#FDFEFE" stroke-width="2" stroke-linecap="round" stroke-linejoin="round"/>
</svg>
