<svg width="35" height="36" viewBox="0 0 35 36" fill="none" xmlns="http://www.w3.org/2000/svg">
    <path d="M13.214 21.913a2.49 2.49 0 1 1-3.523 3.522 2.49 2.49 0 1 1 3.523-3.522" stroke="#1BA5F8" stroke-width="2" stroke-linecap="round" stroke-linejoin="round"/>
    <path clip-rule="evenodd" d="m14.694 13.398 1.68.561c.386.128.646.49.646.894v1.611c0 .915.732 1.662 1.646 1.682l1.526.033c.35.008.665.208.823.52l.792 1.584c.181.363.11.801-.176 1.089l-1.14 1.138a1.682 1.682 0 0 0-.026 2.353l1.054 1.101a.938.938 0 0 1 .213.95l-.561 1.68a.944.944 0 0 1-.895.645h-1.611c-.915 0-1.663.731-1.683 1.646l-.033 1.524a.942.942 0 0 1-.521.823l-1.584.792a.946.946 0 0 1-1.089-.176l-1.139-1.14a1.684 1.684 0 0 0-2.354-.026l-1.101 1.054a.94.94 0 0 1-.95.213l-1.681-.561a.944.944 0 0 1-.645-.894v-1.611c0-.915-.732-1.662-1.647-1.682l-1.523-.034a.942.942 0 0 1-.823-.52L1.1 27.064a.945.945 0 0 1 .176-1.089l1.14-1.138a1.682 1.682 0 0 0 .026-2.353l-1.055-1.101a.938.938 0 0 1-.212-.95l.56-1.68a.944.944 0 0 1 .895-.645h1.612c.915 0 1.663-.731 1.683-1.646l.033-1.524a.942.942 0 0 1 .52-.823l1.585-.792a.946.946 0 0 1 1.089.176l1.138 1.14a1.684 1.684 0 0 0 2.354.026l1.102-1.054a.942.942 0 0 1 .948-.213zM27.987 15.363l1.459-.392a.779.779 0 0 0 .566-.627l.277-1.702c.08-.493.468-.88.96-.96l1.702-.277a.779.779 0 0 0 .627-.567l.393-1.458a.778.778 0 0 0-.26-.805l-1.337-1.092a1.165 1.165 0 0 1-.352-1.312l.614-1.617a.776.776 0 0 0-.178-.826L31.39 2.66a.781.781 0 0 0-.827-.177l-2.398.909-1.62-1.983a.78.78 0 0 0-.805-.26l-1.46.392a.778.778 0 0 0-.566.626l-.277 1.703c-.08.493-.467.88-.96.96l-1.702.277a.779.779 0 0 0-.627.566l-.392 1.459a.781.781 0 0 0 .258.804l1.335 1.09c.387.318.528.845.35 1.313l-.614 1.616a.777.777 0 0 0 .178.827l1.069 1.068a.78.78 0 0 0 .827.178l1.618-.614a1.16 1.16 0 0 1 1.311.352l1.093 1.336a.783.783 0 0 0 .807.26v0z" stroke="#1BA5F8" stroke-width="2" stroke-linecap="round" stroke-linejoin="round"/>
</svg>
