<svg width="24" height="24" viewBox="0 0 24 24" fill="none" xmlns="http://www.w3.org/2000/svg">
    <path fill-rule="evenodd" clip-rule="evenodd" d="M20.5 15.856V8.144a2 2 0 0 0-.986-1.724l-6.5-3.824a2 2 0 0 0-2.028 0l-6.5 3.824A2 2 0 0 0 3.5 8.144v7.712a2 2 0 0 0 .986 1.724l6.5 3.824a2 2 0 0 0 2.028 0l6.5-3.824a2 2 0 0 0 .986-1.724zm-5.672-1.028a4 4 0 1 0-5.656-5.656 4 4 0 0 0 5.656 5.656z" fill="#34455A"/>
    <path d="m19.514 6.42-.41.698.41-.698zm-6.5-3.824-.41.699.41-.699zm-2.028 0-.41-.698.41.698zm-6.5 3.824.41.698-.41-.698zm0 11.16.41-.698-.41.698zm6.5 3.824.41-.699-.41.699zm2.028 0 .41.698-.41-.698zm6.5-3.824.41.698-.41-.698zm-4.686-8.408-.572.572.572-.572zm0 5.656-.572-.572.572.572zM9.172 9.172l.572.572-.572-.572zm0 5.656.572-.572-.572.572zM19.69 8.144v7.712h1.62V8.144h-1.62zm-.587-1.026c.364.214.587.604.587 1.026h1.62a2.81 2.81 0 0 0-1.385-2.422l-.822 1.396zm-6.5-3.823 6.5 3.823.822-1.396-6.5-3.824-.822 1.397zm-1.206 0a1.19 1.19 0 0 1 1.206 0l.822-1.397a2.81 2.81 0 0 0-2.85 0l.822 1.397zm-6.5 3.823 6.5-3.823-.822-1.397-6.5 3.824.822 1.396zM4.31 8.144c0-.422.223-.812.587-1.026l-.822-1.396A2.81 2.81 0 0 0 2.69 8.144h1.62zm0 7.712V8.144H2.69v7.712h1.62zm.587 1.026a1.19 1.19 0 0 1-.587-1.026H2.69a2.81 2.81 0 0 0 1.385 2.422l.822-1.396zm6.5 3.823-6.5-3.823-.822 1.396 6.5 3.824.822-1.397zm1.206 0a1.19 1.19 0 0 1-1.206 0l-.822 1.397a2.81 2.81 0 0 0 2.85 0l-.822-1.397zm6.5-3.823-6.5 3.823.822 1.397 6.5-3.824-.822-1.396zm.587-1.026c0 .422-.223.812-.587 1.026l.822 1.396a2.81 2.81 0 0 0 1.385-2.422h-1.62zm-5.434-6.112a3.19 3.19 0 0 1 0 4.512L15.4 15.4a4.81 4.81 0 0 0 0-6.802l-1.145 1.145zm-4.512 0a3.19 3.19 0 0 1 4.512 0L15.4 8.6a4.81 4.81 0 0 0-6.802 0l1.145 1.145zm0 4.512a3.19 3.19 0 0 1 0-4.512L8.6 8.6a4.81 4.81 0 0 0 0 6.802l1.145-1.145zm4.512 0a3.19 3.19 0 0 1-4.512 0L8.6 15.4a4.81 4.81 0 0 0 6.802 0l-1.145-1.145z" fill="#CBD3E5"/>
</svg>
