<svg width="24" height="24" viewBox="0 0 24 24" fill="none" xmlns="http://www.w3.org/2000/svg">
    <path d="m5.313 12.882.5.638a.81.81 0 0 0 .304-.739l-.804.101zm0-1.764.804.1a.81.81 0 0 0-.305-.738l-.499.638zM3.725 9.876l.5-.638h-.001l-.499.638zM3.501 8.72l.701.406-.7-.406zm1.412-2.443.702.405-.702-.405zm1.112-.384.302-.752-.302.752zm1.421.571.303-.752-.303.752zm.847-.098.445.677h.001l-.446-.677zm.684-.4.367.722h.001l-.368-.722zm.51-.682-.802-.115.801.115zm.217-1.514.802.115-.802-.115zm4.593 0-.802.114.802-.114zm.216 1.512-.802.115.802-.115zm.512.683.364-.724-.364.724zm.681.396-.447.675.447-.675zm.85.102.302.752-.302-.752zm1.42-.57-.302-.752.301.752zm1.111.384-.701.404v.001l.701-.405zM20.5 8.72l-.7.405.7-.405zm-.224 1.156.5.638-.5-.638zm-1.588 1.242-.499-.638a.81.81 0 0 0-.304.739l.803-.101zm0 1.764-.803-.1a.81.81 0 0 0 .304.738l.5-.638zm1.588 1.242-.499.638.5-.638zm.224 1.156-.7-.406.7.406zm-1.412 2.443.701.406-.7-.406zm-1.112.384-.302.752.302-.752zm-1.419-.57-.303.751h.001l.302-.751zm-.85.102-.447-.676.447.676zm-.68.396.363.724-.364-.724zm-.513.683.802.115-.802-.115zm-.217 1.512-.801-.115.801.115zm-4.593 0 .802-.114v-.001l-.802.115zm-.217-1.513-.801.115.801-.115zm-.509-.682-.367.722.367-.722zm-.684-.4.448-.675-.448.675zm-.846-.099.302.752-.302-.752zm-1.422.571.301.752h.001l-.302-.752zm-1.112-.384.702-.404v-.001l-.702.405zM3.501 15.28l.702-.405-.702.405zm.224-1.156-.499-.638.5.638zm10.184-4.033.573-.573-.573.573zm0 3.818.573.573-.573-.573zm-3.818 0-.573.573.573-.573zM4.44 12c0 .344.03.678.069.982l1.607-.2A6.342 6.342 0 0 1 6.06 12H4.44zm.069-.982c-.038.304-.07.638-.07.982h1.62c0-.25.023-.51.057-.781l-1.607-.201zm-1.284-.504 1.588 1.242.998-1.276-1.588-1.242-.998 1.276zm-.426-2.2a1.708 1.708 0 0 0 .427 2.2l.997-1.276a.088.088 0 0 1-.022-.112L2.8 8.314zm1.412-2.442L2.8 8.315l1.403.81 1.412-2.443-1.403-.81zm2.114-.731a1.708 1.708 0 0 0-2.114.732l1.403.808a.088.088 0 0 1 .11-.036l.601-1.504zm1.422.571-1.42-.57-.605 1.503 1.421.57.604-1.503zm.101-.023a.163.163 0 0 1-.068.027.063.063 0 0 1-.032-.004l-.605 1.504a1.727 1.727 0 0 0 1.594-.173L7.849 5.69zm.761-.445a7.872 7.872 0 0 0-.762.446l.891 1.352c.198-.13.4-.25.605-.354L8.61 5.244zm.075-.075a.056.056 0 0 1-.013.026.181.181 0 0 1-.062.05l.735 1.443a1.73 1.73 0 0 0 .943-1.289l-1.603-.23zm.218-1.514-.218 1.514 1.603.23.218-1.514-1.603-.23zm1.69-1.465c-.85 0-1.57.624-1.69 1.466l1.603.228a.087.087 0 0 1 .086-.074V2.19zm2.816 0h-2.817v1.62h2.817V2.19zm1.69 1.466a1.707 1.707 0 0 0-1.69-1.466v1.62c.044 0 .08.032.086.074l1.604-.228zm.216 1.511L15.1 3.655l-1.604.23.216 1.512 1.604-.23zm.074.074a.175.175 0 0 1-.061-.048.055.055 0 0 1-.013-.026l-1.603.23c.085.595.473 1.053.95 1.292l.727-1.448zm.765.445a7.395 7.395 0 0 0-.765-.445l-.727 1.448c.204.102.403.219.597.347l.895-1.35zm.101.025a.06.06 0 0 1-.031.003.17.17 0 0 1-.07-.029l-.895 1.352a1.728 1.728 0 0 0 1.599.178l-.603-1.504zm1.418-.57-1.419.57.604 1.504 1.42-.57-.605-1.504zm2.116.732a1.708 1.708 0 0 0-2.115-.732l.602 1.504a.088.088 0 0 1 .11.036l1.403-.808zm1.412 2.442-1.412-2.443-1.403.81 1.412 2.443 1.403-.81zm-.426 2.198a1.708 1.708 0 0 0 .425-2.199l-1.402.812a.088.088 0 0 1-.022.113l1 1.274zm-1.589 1.243 1.588-1.242-.998-1.276-1.588 1.242.998 1.276zm.374.244c0-.344-.03-.678-.069-.982l-1.607.2c.034.272.056.532.056.782h1.62zm-.069.982c.038-.304.07-.638.07-.982h-1.62c0 .25-.023.51-.057.781l1.607.201zm1.283.504-1.588-1.242-.998 1.276 1.588 1.242.998-1.276zm.426 2.2a1.708 1.708 0 0 0-.426-2.2l-.997 1.276a.088.088 0 0 1 .021.112l1.402.812zm-1.411 2.442 1.412-2.443-1.403-.81-1.412 2.443 1.403.81zm-2.115.73a1.709 1.709 0 0 0 2.114-.73l-1.402-.81a.089.089 0 0 1-.11.037l-.602 1.504zm-1.42-.57 1.42.57.603-1.503-1.419-.57-.604 1.504zm-.1.027a.173.173 0 0 1 .07-.03.054.054 0 0 1 .029.003l.607-1.502a1.725 1.725 0 0 0-1.6.177l.893 1.352zm-.765.444c.266-.134.52-.283.765-.445l-.895-1.35a5.773 5.773 0 0 1-.597.347l.727 1.448zm-.074.074c.001-.006.003-.014.013-.026a.174.174 0 0 1 .06-.048l-.726-1.448c-.477.24-.865.697-.95 1.292l1.603.23zm-.217 1.512.217-1.512-1.603-.23-.217 1.512 1.603.23zm-1.69 1.465c.849 0 1.57-.624 1.69-1.466l-1.604-.228a.087.087 0 0 1-.086.074v1.62zm-2.817 0h2.817v-1.62h-2.817v1.62zm-1.69-1.466c.12.842.842 1.466 1.69 1.466v-1.62a.087.087 0 0 1-.086-.074l-1.604.228zm-.216-1.512.217 1.513 1.603-.23-.217-1.513-1.603.23zm-.074-.075a.178.178 0 0 1 .061.048c.01.012.012.02.013.027l1.603-.23a1.726 1.726 0 0 0-.944-1.29l-.733 1.445zm-.766-.447c.245.162.5.312.765.447l.734-1.444a6.05 6.05 0 0 1-.603-.353l-.896 1.35zm-.095-.022a.061.061 0 0 1 .031-.004.155.155 0 0 1 .065.026l.895-1.35a1.722 1.722 0 0 0-1.596-.175l.605 1.503zm-1.423.57 1.422-.57-.603-1.504-1.422.571.603 1.504zm-2.115-.73a1.708 1.708 0 0 0 2.114.731l-.601-1.504a.088.088 0 0 1-.11-.036l-1.403.808zM2.8 15.684l1.412 2.443 1.403-.81-1.412-2.443-1.403.81zm.426-2.198a1.708 1.708 0 0 0-.426 2.199l1.402-.812a.088.088 0 0 1 .023-.113l-1-1.274zm1.588-1.243-1.588 1.242.998 1.276 1.588-1.242-.998-1.276zm8.522-1.58a1.89 1.89 0 0 1 0 2.672l1.146 1.146a3.51 3.51 0 0 0 0-4.964l-1.146 1.145zm-2.673 0a1.89 1.89 0 0 1 2.673 0l1.146-1.146a3.51 3.51 0 0 0-4.964 0l1.145 1.145zm0 2.672a1.89 1.89 0 0 1 0-2.673L9.518 9.518a3.51 3.51 0 0 0 0 4.964l1.145-1.146zm2.673 0a1.89 1.89 0 0 1-2.673 0l-1.145 1.146a3.51 3.51 0 0 0 4.964 0l-1.146-1.146z" fill="#0B2A3C"/>
</svg>
