<svg width="24" height="24" viewBox="0 0 24 24" fill="none" xmlns="http://www.w3.org/2000/svg">
    <path fill-rule="evenodd" clip-rule="evenodd" d="M12.354 6.026a.5.5 0 1 1-.707.707.5.5 0 0 1 .707-.707z" fill="white"/>
    <path d="M12.354 6.026a.5.5 0 1 1-.707.707.5.5 0 0 1 .707-.707" stroke="white" stroke-width="1.62" stroke-linecap="round" stroke-linejoin="round"/>
    <path fill-rule="evenodd" clip-rule="evenodd" d="M12.354 11.646a.5.5 0 1 1-.707.707.5.5 0 0 1 .707-.707z" fill="white"/>
    <path d="M12.354 11.646a.5.5 0 1 1-.707.707.5.5 0 0 1 .707-.707" stroke="white" stroke-width="1.62" stroke-linecap="round" stroke-linejoin="round"/>
    <path fill-rule="evenodd" clip-rule="evenodd" d="M12.354 17.266a.5.5 0 1 1-.707.707.5.5 0 0 1 .707-.707z" fill="white"/>
    <path d="M12.354 17.266a.5.5 0 1 1-.707.707.5.5 0 0 1 .707-.707" stroke="white" stroke-width="1.62" stroke-linecap="round" stroke-linejoin="round"/>
</svg>
