<svg width="50" height="36" viewBox="0 0 50 36" fill="none" xmlns="http://www.w3.org/2000/svg">
<g clip-path="url(#clip0_11607_288102)">
<path d="M46.9118 36H3.08815C1.38508 36 0 34.6382 0 32.9638V3.03623C0 1.36179 1.38508 0 3.08815 0H46.9118C48.6149 0 50 1.36179 50 3.03623V32.9638C50 34.6382 48.6149 36 46.9118 36ZM3.08815 1.48883C2.21996 1.48883 1.51429 2.18263 1.51429 3.03623V32.9638C1.51429 33.8174 2.21996 34.5112 3.08815 34.5112H46.9118C47.78 34.5112 48.4857 33.8174 48.4857 32.9638V3.03623C48.4857 2.18263 47.78 1.48883 46.9118 1.48883H3.08815Z" fill="currentColor"/>
<path d="M45.8745 8.29743H4.06379C3.64584 8.29743 3.30664 7.96393 3.30664 7.55301C3.30664 7.14209 3.64584 6.80859 4.06379 6.80859H45.8735C46.2914 6.80859 46.6306 7.14209 46.6306 7.55301C46.6306 7.96393 46.2914 8.29743 45.8735 8.29743H45.8745Z" fill="currentColor"/>
<path d="M5.35492 5.15769C5.89073 5.15769 6.32508 4.73064 6.32508 4.20385C6.32508 3.67705 5.89073 3.25 5.35492 3.25C4.81912 3.25 4.38477 3.67705 4.38477 4.20385C4.38477 4.73064 4.81912 5.15769 5.35492 5.15769Z" fill="currentColor"/>
<path d="M8.94867 5.15769C9.48448 5.15769 9.91883 4.73064 9.91883 4.20385C9.91883 3.67705 9.48448 3.25 8.94867 3.25C8.41287 3.25 7.97852 3.67705 7.97852 4.20385C7.97852 4.73064 8.41287 5.15769 8.94867 5.15769Z" fill="currentColor"/>
<path d="M12.5405 5.15769C13.0763 5.15769 13.5106 4.73064 13.5106 4.20385C13.5106 3.67705 13.0763 3.25 12.5405 3.25C12.0047 3.25 11.5703 3.67705 11.5703 4.20385C11.5703 4.73064 12.0047 5.15769 12.5405 5.15769Z" fill="currentColor"/>
<path d="M18.8064 27.3814C18.6126 27.3814 18.4187 27.3089 18.2713 27.163L12.8158 21.7992C12.6735 21.6593 12.5938 21.4707 12.5938 21.2732C12.5938 21.0757 12.6735 20.8861 12.8158 20.7471L18.4076 15.2494C18.7034 14.9585 19.183 14.9585 19.4787 15.2494C19.7745 15.5402 19.7745 16.0116 19.4787 16.3025L14.422 21.2742L19.3414 26.1109C19.6372 26.4017 19.6372 26.8732 19.3414 27.164C19.1941 27.3089 19.0002 27.3824 18.8064 27.3824V27.3814Z" fill="currentColor"/>
<path d="M31.193 27.3785C30.9992 27.3785 30.8054 27.306 30.658 27.1601C30.3622 26.8693 30.3622 26.3978 30.658 26.107L35.5774 21.2703L30.5207 16.2986C30.2249 16.0077 30.2249 15.5363 30.5207 15.2455C30.8165 14.9546 31.296 14.9546 31.5918 15.2455L37.1836 20.7432C37.4794 21.034 37.4794 21.5055 37.1836 21.7963L31.7281 27.1601C31.5807 27.305 31.3868 27.3785 31.193 27.3785Z" fill="currentColor"/>
<path d="M21.7256 27.3784C21.5944 27.3784 21.4611 27.3447 21.34 27.2742C20.9806 27.0648 20.8614 26.6082 21.0745 26.2539L27.6213 15.3923C27.8343 15.039 28.2987 14.9218 28.6591 15.1313C29.0185 15.3407 29.1376 15.7973 28.9246 16.1516L22.3778 27.0132C22.2364 27.2474 21.984 27.3784 21.7256 27.3784Z" fill="currentColor"/>
</g>
<defs>
<clipPath id="clip0_11607_288102">
<rect width="50" height="36" fill="white"/>
</clipPath>
</defs>
</svg>
