<svg width="50" height="36" viewBox="0 0 50 36" fill="none" xmlns="http://www.w3.org/2000/svg">
<g clip-path="url(#clip0_11607_288331)">
<path d="M46.9118 36H3.08815C1.38508 36 0 34.6382 0 32.9638V3.03623C0 1.36179 1.38508 0 3.08815 0H46.9118C48.6149 0 50 1.36179 50 3.03623V32.9638C50 34.6382 48.6149 36 46.9118 36ZM3.08815 1.48883C2.21996 1.48883 1.51429 2.18263 1.51429 3.03623V32.9638C1.51429 33.8174 2.21996 34.5112 3.08815 34.5112H46.9118C47.78 34.5112 48.4857 33.8174 48.4857 32.9638V3.03623C48.4857 2.18263 47.78 1.48883 46.9118 1.48883H3.08815Z" fill="currentColor"/>
<path d="M45.8745 8.29743H4.06379C3.64584 8.29743 3.30664 7.96393 3.30664 7.55301C3.30664 7.14209 3.64584 6.80859 4.06379 6.80859H45.8735C46.2914 6.80859 46.6306 7.14209 46.6306 7.55301C46.6306 7.96393 46.2914 8.29743 45.8735 8.29743H45.8745Z" fill="currentColor"/>
<path d="M5.35492 5.15769C5.89073 5.15769 6.32508 4.73064 6.32508 4.20385C6.32508 3.67705 5.89073 3.25 5.35492 3.25C4.81912 3.25 4.38477 3.67705 4.38477 4.20385C4.38477 4.73064 4.81912 5.15769 5.35492 5.15769Z" fill="currentColor"/>
<path d="M8.94867 5.15769C9.48448 5.15769 9.91883 4.73064 9.91883 4.20385C9.91883 3.67705 9.48448 3.25 8.94867 3.25C8.41287 3.25 7.97852 3.67705 7.97852 4.20385C7.97852 4.73064 8.41287 5.15769 8.94867 5.15769Z" fill="currentColor"/>
<path d="M12.5405 5.15769C13.0763 5.15769 13.5106 4.73064 13.5106 4.20385C13.5106 3.67705 13.0763 3.25 12.5405 3.25C12.0047 3.25 11.5703 3.67705 11.5703 4.20385C11.5703 4.73064 12.0047 5.15769 12.5405 5.15769Z" fill="currentColor"/>
<path d="M25.0616 33.891C24.8678 33.891 24.674 33.8185 24.5266 33.6726C24.2308 33.3818 24.2308 32.9103 24.5266 32.6195C24.9344 32.2185 25.0455 31.6676 24.8254 31.1446C24.6053 30.6215 24.1298 30.3088 23.5534 30.3088C21.9594 30.3088 20.6621 29.0334 20.6621 27.4661V25.3262C20.6621 23.759 21.9594 22.4835 23.5534 22.4835C24.1298 22.4835 24.6053 22.1709 24.8254 21.6478C25.0455 21.1247 24.9344 20.5728 24.5266 20.1728C23.3989 19.0642 23.3989 17.2607 24.5266 16.153L26.0661 14.6393C26.6123 14.1024 27.3381 13.8066 28.1104 13.8066C28.8827 13.8066 29.6086 14.1024 30.1547 14.6393C30.5616 15.0403 31.1229 15.1495 31.6549 14.9331C32.1869 14.7168 32.5049 14.2493 32.5049 13.6825C32.5049 12.1153 33.8022 10.8398 35.3962 10.8398H37.5727C39.1668 10.8398 40.464 12.1153 40.464 13.6825C40.464 14.2493 40.782 14.7168 41.3141 14.9331C41.8461 15.1495 42.4074 15.0403 42.8142 14.6393C43.3604 14.1024 44.0862 13.8066 44.8585 13.8066C45.6308 13.8066 46.3567 14.1024 46.9028 14.6393C47.1986 14.9302 47.1986 15.4016 46.9028 15.6925C46.607 15.9833 46.1275 15.9833 45.8317 15.6925C45.5713 15.4364 45.226 15.2964 44.8585 15.2964C44.4911 15.2964 44.1448 15.4374 43.8853 15.6934C43.0424 16.5222 41.835 16.7585 40.7346 16.3098C39.6332 15.8612 38.9497 14.8547 38.9497 13.6835C38.9497 12.9371 38.3319 12.3297 37.5727 12.3297H35.3962C34.637 12.3297 34.0192 12.9371 34.0192 13.6835C34.0192 14.8547 33.3358 15.8612 32.2344 16.3098C31.134 16.7575 29.9266 16.5222 29.0836 15.6934C28.8232 15.4374 28.4779 15.2964 28.1104 15.2964C27.743 15.2964 27.3967 15.4374 27.1372 15.6925L25.5977 17.2061C25.0606 17.7341 25.0606 18.5927 25.5977 19.1207C26.4407 19.9495 26.6809 21.1366 26.2246 22.2185C25.7683 23.3014 24.7447 23.9733 23.5534 23.9733C22.7942 23.9733 22.1764 24.5808 22.1764 25.3272V27.4671C22.1764 28.2135 22.7942 28.821 23.5534 28.821C24.7447 28.821 25.7683 29.4929 26.2246 30.5758C26.6809 31.6587 26.4407 32.8458 25.5977 33.6736C25.4503 33.8185 25.2565 33.892 25.0627 33.892L25.0616 33.891ZM36.4845 30.9679C33.9213 30.9679 31.8356 28.9173 31.8356 26.3972C31.8356 23.8771 33.9213 21.8264 36.4845 21.8264C39.0477 21.8264 41.1334 23.8771 41.1334 26.3972C41.1334 28.9173 39.0477 30.9679 36.4845 30.9679ZM36.4845 23.3143C34.7562 23.3143 33.3499 24.6969 33.3499 26.3962C33.3499 28.0954 34.7562 29.4781 36.4845 29.4781C38.2128 29.4781 39.6191 28.0954 39.6191 26.3962C39.6191 24.6969 38.2128 23.3143 36.4845 23.3143Z" fill="currentColor"/>
</g>
<defs>
<clipPath id="clip0_11607_288331">
<rect width="50" height="36" fill="white"/>
</clipPath>
</defs>
</svg>
