<svg width="584" height="115" viewBox="0 0 584 115" fill="none" xmlns="http://www.w3.org/2000/svg">
<rect x="69.5" y="51" width="24" height="24" rx="12" fill="#08C858"/>
<path d="M84.6538 61.5L80.8077 65.1923L78.5 62.9769" stroke="#FDFEFE" stroke-width="2" stroke-linecap="round" stroke-linejoin="round"/>
<path d="M53.4884 43V34.36H56.1524C56.2404 34.36 56.3944 34.362 56.6144 34.366C56.8344 34.37 57.0444 34.386 57.2444 34.414C57.9124 34.502 58.4704 34.746 58.9184 35.146C59.3704 35.542 59.7104 36.046 59.9384 36.658C60.1664 37.27 60.2804 37.944 60.2804 38.68C60.2804 39.416 60.1664 40.09 59.9384 40.702C59.7104 41.314 59.3704 41.82 58.9184 42.22C58.4704 42.616 57.9124 42.858 57.2444 42.946C57.0444 42.97 56.8324 42.986 56.6084 42.994C56.3884 42.998 56.2364 43 56.1524 43H53.4884ZM54.5864 41.98H56.1524C56.3044 41.98 56.4744 41.976 56.6624 41.968C56.8504 41.956 57.0144 41.938 57.1544 41.914C57.6264 41.826 58.0084 41.628 58.3004 41.32C58.5924 41.012 58.8064 40.628 58.9424 40.168C59.0784 39.708 59.1464 39.212 59.1464 38.68C59.1464 38.136 59.0764 37.634 58.9364 37.174C58.8004 36.714 58.5864 36.332 58.2944 36.028C58.0024 35.724 57.6224 35.53 57.1544 35.446C57.0144 35.418 56.8484 35.4 56.6564 35.392C56.4644 35.384 56.2964 35.38 56.1524 35.38H54.5864V41.98ZM64.4644 43.18C63.8284 43.18 63.2724 43.04 62.7964 42.76C62.3244 42.476 61.9564 42.082 61.6924 41.578C61.4284 41.07 61.2964 40.478 61.2964 39.802C61.2964 39.094 61.4264 38.482 61.6864 37.966C61.9464 37.446 62.3084 37.046 62.7724 36.766C63.2404 36.482 63.7884 36.34 64.4164 36.34C65.0684 36.34 65.6224 36.49 66.0784 36.79C66.5384 37.09 66.8824 37.518 67.1104 38.074C67.3424 38.63 67.4424 39.292 67.4104 40.06H66.3304V39.676C66.3184 38.88 66.1564 38.286 65.8444 37.894C65.5324 37.498 65.0684 37.3 64.4524 37.3C63.7924 37.3 63.2904 37.512 62.9464 37.936C62.6024 38.36 62.4304 38.968 62.4304 39.76C62.4304 40.524 62.6024 41.116 62.9464 41.536C63.2904 41.956 63.7804 42.166 64.4164 42.166C64.8444 42.166 65.2164 42.068 65.5324 41.872C65.8484 41.676 66.0964 41.394 66.2764 41.026L67.3024 41.38C67.0504 41.952 66.6704 42.396 66.1624 42.712C65.6584 43.024 65.0924 43.18 64.4644 43.18ZM62.0704 40.06V39.202H66.8584V40.06H62.0704ZM71.5465 43.18C70.9385 43.18 70.4265 43.03 70.0105 42.73C69.5945 42.426 69.2785 42.016 69.0625 41.5C68.8505 40.98 68.7445 40.398 68.7445 39.754C68.7445 39.102 68.8505 38.518 69.0625 38.002C69.2785 37.486 69.5945 37.08 70.0105 36.784C70.4305 36.488 70.9445 36.34 71.5525 36.34C72.1525 36.34 72.6685 36.49 73.1005 36.79C73.5365 37.086 73.8705 37.492 74.1025 38.008C74.3345 38.524 74.4505 39.106 74.4505 39.754C74.4505 40.402 74.3345 40.984 74.1025 41.5C73.8705 42.016 73.5365 42.426 73.1005 42.73C72.6685 43.03 72.1505 43.18 71.5465 43.18ZM68.5645 45.88V36.52H69.5185V41.29H69.6385V45.88H68.5645ZM71.4145 42.202C71.8425 42.202 72.1965 42.094 72.4765 41.878C72.7565 41.662 72.9665 41.37 73.1065 41.002C73.2465 40.63 73.3165 40.214 73.3165 39.754C73.3165 39.298 73.2465 38.886 73.1065 38.518C72.9705 38.15 72.7585 37.858 72.4705 37.642C72.1865 37.426 71.8245 37.318 71.3845 37.318C70.9645 37.318 70.6165 37.422 70.3405 37.63C70.0645 37.834 69.8585 38.12 69.7225 38.488C69.5865 38.852 69.5185 39.274 69.5185 39.754C69.5185 40.226 69.5845 40.648 69.7165 41.02C69.8525 41.388 70.0605 41.678 70.3405 41.89C70.6205 42.098 70.9785 42.202 71.4145 42.202ZM78.5258 43.18C77.8818 43.18 77.3258 43.034 76.8578 42.742C76.3938 42.45 76.0358 42.046 75.7838 41.53C75.5318 41.014 75.4058 40.422 75.4058 39.754C75.4058 39.074 75.5338 38.478 75.7898 37.966C76.0458 37.454 76.4078 37.056 76.8758 36.772C77.3438 36.484 77.8938 36.34 78.5258 36.34C79.1738 36.34 79.7318 36.486 80.1998 36.778C80.6678 37.066 81.0258 37.468 81.2738 37.984C81.5258 38.496 81.6518 39.086 81.6518 39.754C81.6518 40.43 81.5258 41.026 81.2738 41.542C81.0218 42.054 80.6618 42.456 80.1938 42.748C79.7258 43.036 79.1698 43.18 78.5258 43.18ZM78.5258 42.166C79.1978 42.166 79.6978 41.942 80.0258 41.494C80.3538 41.046 80.5178 40.466 80.5178 39.754C80.5178 39.022 80.3518 38.44 80.0198 38.008C79.6878 37.572 79.1898 37.354 78.5258 37.354C78.0738 37.354 77.7018 37.456 77.4098 37.66C77.1178 37.864 76.8998 38.146 76.7558 38.506C76.6118 38.866 76.5398 39.282 76.5398 39.754C76.5398 40.482 76.7078 41.066 77.0438 41.506C77.3798 41.946 77.8738 42.166 78.5258 42.166ZM85.3271 43.174C84.5551 43.174 83.9211 43.006 83.4251 42.67C82.9331 42.33 82.6311 41.856 82.5191 41.248L83.6111 41.074C83.6991 41.426 83.9011 41.706 84.2171 41.914C84.5331 42.118 84.9251 42.22 85.3931 42.22C85.8371 42.22 86.1851 42.128 86.4371 41.944C86.6891 41.76 86.8151 41.51 86.8151 41.194C86.8151 41.01 86.7731 40.862 86.6891 40.75C86.6051 40.634 86.4311 40.526 86.1671 40.426C85.9071 40.326 85.5131 40.206 84.9851 40.066C84.4131 39.914 83.9631 39.756 83.6351 39.592C83.3071 39.428 83.0731 39.238 82.9331 39.022C82.7931 38.806 82.7231 38.544 82.7231 38.236C82.7231 37.856 82.8271 37.524 83.0351 37.24C83.2431 36.952 83.5331 36.73 83.9051 36.574C84.2811 36.418 84.7171 36.34 85.2131 36.34C85.7051 36.34 86.1451 36.418 86.5331 36.574C86.9211 36.73 87.2331 36.952 87.4691 37.24C87.7091 37.524 87.8511 37.856 87.8951 38.236L86.8031 38.434C86.7511 38.086 86.5831 37.812 86.2991 37.612C86.0191 37.412 85.6571 37.306 85.2131 37.294C84.7931 37.278 84.4511 37.352 84.1871 37.516C83.9271 37.68 83.7971 37.902 83.7971 38.182C83.7971 38.338 83.8451 38.472 83.9411 38.584C84.0411 38.696 84.2231 38.802 84.4871 38.902C84.7551 39.002 85.1431 39.116 85.6511 39.244C86.2231 39.388 86.6731 39.546 87.0011 39.718C87.3331 39.886 87.5691 40.086 87.7091 40.318C87.8491 40.546 87.9191 40.828 87.9191 41.164C87.9191 41.788 87.6891 42.28 87.2291 42.64C86.7691 42.996 86.1351 43.174 85.3271 43.174ZM89.3623 35.374V34.27H90.4303V35.374H89.3623ZM89.3623 43V36.52H90.4303V43H89.3623ZM95.8486 43C95.4646 43.076 95.0846 43.106 94.7086 43.09C94.3366 43.078 94.0046 43.004 93.7126 42.868C93.4206 42.728 93.1986 42.512 93.0466 42.22C92.9186 41.964 92.8486 41.706 92.8366 41.446C92.8286 41.182 92.8246 40.884 92.8246 40.552V34.72H93.8926V40.504C93.8926 40.768 93.8946 40.994 93.8986 41.182C93.9066 41.37 93.9486 41.532 94.0246 41.668C94.1686 41.924 94.3966 42.074 94.7086 42.118C95.0246 42.162 95.4046 42.15 95.8486 42.082V43ZM91.5106 37.402V36.52H95.8486V37.402H91.5106ZM99.7027 43.18C99.0667 43.18 98.5107 43.04 98.0347 42.76C97.5627 42.476 97.1947 42.082 96.9307 41.578C96.6667 41.07 96.5347 40.478 96.5347 39.802C96.5347 39.094 96.6647 38.482 96.9247 37.966C97.1847 37.446 97.5467 37.046 98.0107 36.766C98.4787 36.482 99.0267 36.34 99.6547 36.34C100.307 36.34 100.861 36.49 101.317 36.79C101.777 37.09 102.121 37.518 102.349 38.074C102.581 38.63 102.681 39.292 102.649 40.06H101.569V39.676C101.557 38.88 101.395 38.286 101.083 37.894C100.771 37.498 100.307 37.3 99.6907 37.3C99.0307 37.3 98.5287 37.512 98.1847 37.936C97.8407 38.36 97.6687 38.968 97.6687 39.76C97.6687 40.524 97.8407 41.116 98.1847 41.536C98.5287 41.956 99.0187 42.166 99.6547 42.166C100.083 42.166 100.455 42.068 100.771 41.872C101.087 41.676 101.335 41.394 101.515 41.026L102.541 41.38C102.289 41.952 101.909 42.396 101.401 42.712C100.897 43.024 100.331 43.18 99.7027 43.18ZM97.3087 40.06V39.202H102.097V40.06H97.3087ZM106.529 43.18C105.925 43.18 105.407 43.03 104.975 42.73C104.543 42.426 104.209 42.016 103.973 41.5C103.741 40.984 103.625 40.402 103.625 39.754C103.625 39.106 103.741 38.524 103.973 38.008C104.209 37.492 104.543 37.086 104.975 36.79C105.407 36.49 105.923 36.34 106.523 36.34C107.135 36.34 107.649 36.488 108.065 36.784C108.481 37.08 108.795 37.486 109.007 38.002C109.223 38.518 109.331 39.102 109.331 39.754C109.331 40.398 109.223 40.98 109.007 41.5C108.795 42.016 108.481 42.426 108.065 42.73C107.649 43.03 107.137 43.18 106.529 43.18ZM106.661 42.202C107.097 42.202 107.455 42.098 107.735 41.89C108.015 41.678 108.221 41.388 108.353 41.02C108.489 40.648 108.557 40.226 108.557 39.754C108.557 39.274 108.489 38.852 108.353 38.488C108.221 38.12 108.017 37.834 107.741 37.63C107.465 37.422 107.115 37.318 106.691 37.318C106.251 37.318 105.887 37.426 105.599 37.642C105.315 37.858 105.103 38.15 104.963 38.518C104.827 38.886 104.759 39.298 104.759 39.754C104.759 40.214 104.829 40.63 104.969 41.002C105.109 41.37 105.319 41.662 105.599 41.878C105.883 42.094 106.237 42.202 106.661 42.202ZM108.557 43V38.23H108.437V34.36H109.511V43H108.557Z" fill="#97A5BA"/>
<rect x="213.5" y="51" width="24" height="24" rx="12" fill="#08C858"/>
<path d="M228.654 61.5L224.808 65.1923L222.5 62.9769" stroke="#FDFEFE" stroke-width="2" stroke-linecap="round" stroke-linejoin="round"/>
<path d="M203.801 43V34.36H207.215C207.299 34.36 207.399 34.364 207.515 34.372C207.631 34.376 207.743 34.388 207.851 34.408C208.319 34.48 208.711 34.64 209.027 34.888C209.347 35.136 209.587 35.45 209.747 35.83C209.907 36.206 209.987 36.624 209.987 37.084C209.987 37.54 209.905 37.958 209.741 38.338C209.581 38.714 209.341 39.028 209.021 39.28C208.705 39.528 208.315 39.688 207.851 39.76C207.743 39.776 207.631 39.788 207.515 39.796C207.399 39.804 207.299 39.808 207.215 39.808H204.869V43H203.801ZM204.869 38.794H207.179C207.255 38.794 207.341 38.79 207.437 38.782C207.537 38.774 207.631 38.76 207.719 38.74C207.995 38.676 208.219 38.56 208.391 38.392C208.567 38.22 208.695 38.02 208.775 37.792C208.855 37.56 208.895 37.324 208.895 37.084C208.895 36.844 208.855 36.61 208.775 36.382C208.695 36.15 208.567 35.948 208.391 35.776C208.219 35.604 207.995 35.488 207.719 35.428C207.631 35.404 207.537 35.39 207.437 35.386C207.341 35.378 207.255 35.374 207.179 35.374H204.869V38.794ZM213.933 43.18C213.297 43.18 212.741 43.04 212.265 42.76C211.793 42.476 211.425 42.082 211.161 41.578C210.897 41.07 210.765 40.478 210.765 39.802C210.765 39.094 210.895 38.482 211.155 37.966C211.415 37.446 211.777 37.046 212.241 36.766C212.709 36.482 213.257 36.34 213.885 36.34C214.537 36.34 215.091 36.49 215.547 36.79C216.007 37.09 216.351 37.518 216.579 38.074C216.811 38.63 216.911 39.292 216.879 40.06H215.799V39.676C215.787 38.88 215.625 38.286 215.313 37.894C215.001 37.498 214.537 37.3 213.921 37.3C213.261 37.3 212.759 37.512 212.415 37.936C212.071 38.36 211.899 38.968 211.899 39.76C211.899 40.524 212.071 41.116 212.415 41.536C212.759 41.956 213.249 42.166 213.885 42.166C214.313 42.166 214.685 42.068 215.001 41.872C215.317 41.676 215.565 41.394 215.745 41.026L216.771 41.38C216.519 41.952 216.139 42.396 215.631 42.712C215.127 43.024 214.561 43.18 213.933 43.18ZM211.539 40.06V39.202H216.327V40.06H211.539ZM222.653 43V39.754C222.653 39.446 222.625 39.15 222.569 38.866C222.517 38.582 222.423 38.328 222.287 38.104C222.155 37.876 221.975 37.696 221.747 37.564C221.523 37.432 221.239 37.366 220.895 37.366C220.627 37.366 220.383 37.412 220.163 37.504C219.947 37.592 219.761 37.728 219.605 37.912C219.449 38.096 219.327 38.328 219.239 38.608C219.155 38.884 219.113 39.21 219.113 39.586L218.411 39.37C218.411 38.742 218.523 38.204 218.747 37.756C218.975 37.304 219.293 36.958 219.701 36.718C220.113 36.474 220.597 36.352 221.153 36.352C221.573 36.352 221.931 36.418 222.227 36.55C222.523 36.682 222.769 36.858 222.965 37.078C223.161 37.294 223.315 37.538 223.427 37.81C223.539 38.078 223.617 38.352 223.661 38.632C223.709 38.908 223.733 39.17 223.733 39.418V43H222.653ZM218.033 43V36.52H218.993V38.254H219.113V43H218.033ZM227.779 43.18C227.175 43.18 226.657 43.03 226.225 42.73C225.793 42.426 225.459 42.016 225.223 41.5C224.991 40.984 224.875 40.402 224.875 39.754C224.875 39.106 224.991 38.524 225.223 38.008C225.459 37.492 225.793 37.086 226.225 36.79C226.657 36.49 227.173 36.34 227.773 36.34C228.385 36.34 228.899 36.488 229.315 36.784C229.731 37.08 230.045 37.486 230.257 38.002C230.473 38.518 230.581 39.102 230.581 39.754C230.581 40.398 230.473 40.98 230.257 41.5C230.045 42.016 229.731 42.426 229.315 42.73C228.899 43.03 228.387 43.18 227.779 43.18ZM227.911 42.202C228.347 42.202 228.705 42.098 228.985 41.89C229.265 41.678 229.471 41.388 229.603 41.02C229.739 40.648 229.807 40.226 229.807 39.754C229.807 39.274 229.739 38.852 229.603 38.488C229.471 38.12 229.267 37.834 228.991 37.63C228.715 37.422 228.365 37.318 227.941 37.318C227.501 37.318 227.137 37.426 226.849 37.642C226.565 37.858 226.353 38.15 226.213 38.518C226.077 38.886 226.009 39.298 226.009 39.754C226.009 40.214 226.079 40.63 226.219 41.002C226.359 41.37 226.569 41.662 226.849 41.878C227.133 42.094 227.487 42.202 227.911 42.202ZM229.807 43V38.23H229.687V34.36H230.761V43H229.807ZM232.562 35.374V34.27H233.63V35.374H232.562ZM232.562 43V36.52H233.63V43H232.562ZM240.044 43V39.754C240.044 39.446 240.016 39.15 239.96 38.866C239.908 38.582 239.814 38.328 239.678 38.104C239.546 37.876 239.366 37.696 239.138 37.564C238.914 37.432 238.63 37.366 238.286 37.366C238.018 37.366 237.774 37.412 237.554 37.504C237.338 37.592 237.152 37.728 236.996 37.912C236.84 38.096 236.718 38.328 236.63 38.608C236.546 38.884 236.504 39.21 236.504 39.586L235.802 39.37C235.802 38.742 235.914 38.204 236.138 37.756C236.366 37.304 236.684 36.958 237.092 36.718C237.504 36.474 237.988 36.352 238.544 36.352C238.964 36.352 239.322 36.418 239.618 36.55C239.914 36.682 240.16 36.858 240.356 37.078C240.552 37.294 240.706 37.538 240.818 37.81C240.93 38.078 241.008 38.352 241.052 38.632C241.1 38.908 241.124 39.17 241.124 39.418V43H240.044ZM235.424 43V36.52H236.384V38.254H236.504V43H235.424ZM245.306 46.06C244.966 46.06 244.634 46.008 244.31 45.904C243.986 45.8 243.688 45.642 243.416 45.43C243.148 45.222 242.924 44.958 242.744 44.638L243.722 44.122C243.882 44.438 244.108 44.668 244.4 44.812C244.696 44.956 245 45.028 245.312 45.028C245.724 45.028 246.066 44.952 246.338 44.8C246.61 44.652 246.81 44.43 246.938 44.134C247.07 43.838 247.134 43.47 247.13 43.03V41.26H247.256V36.52H248.204V43.042C248.204 43.218 248.198 43.388 248.186 43.552C248.178 43.716 248.158 43.878 248.126 44.038C248.042 44.498 247.876 44.876 247.628 45.172C247.38 45.472 247.06 45.694 246.668 45.838C246.276 45.986 245.822 46.06 245.306 46.06ZM245.228 43.18C244.624 43.18 244.106 43.03 243.674 42.73C243.242 42.426 242.908 42.016 242.672 41.5C242.44 40.984 242.324 40.402 242.324 39.754C242.324 39.106 242.44 38.524 242.672 38.008C242.908 37.492 243.242 37.086 243.674 36.79C244.106 36.49 244.622 36.34 245.222 36.34C245.834 36.34 246.348 36.488 246.764 36.784C247.18 37.08 247.494 37.486 247.706 38.002C247.922 38.518 248.03 39.102 248.03 39.754C248.03 40.398 247.922 40.98 247.706 41.5C247.494 42.016 247.18 42.426 246.764 42.73C246.348 43.03 245.836 43.18 245.228 43.18ZM245.36 42.202C245.796 42.202 246.154 42.098 246.434 41.89C246.714 41.678 246.92 41.388 247.052 41.02C247.188 40.648 247.256 40.226 247.256 39.754C247.256 39.274 247.188 38.852 247.052 38.488C246.92 38.12 246.716 37.834 246.44 37.63C246.164 37.422 245.814 37.318 245.39 37.318C244.95 37.318 244.586 37.426 244.298 37.642C244.014 37.858 243.802 38.15 243.662 38.518C243.526 38.886 243.458 39.298 243.458 39.754C243.458 40.214 243.528 40.63 243.668 41.002C243.808 41.37 244.018 41.662 244.298 41.878C244.582 42.094 244.936 42.202 245.36 42.202Z" fill="#97A5BA"/>
<rect x="358" y="51" width="24" height="24" rx="12" fill="#08C858"/>
<path d="M369.998 59.0005V63.0005" stroke="#FDFEFE" stroke-width="1.6" stroke-linecap="round" stroke-linejoin="round"/>
<path d="M372.828 60.1733C374.391 61.7349 374.391 64.2669 372.828 65.8285C371.266 67.3901 368.734 67.3901 367.172 65.8285C365.609 64.2669 365.609 61.7349 367.172 60.1733" stroke="#FDFEFE" stroke-width="1.6" stroke-linecap="round" stroke-linejoin="round"/>
<path d="M351.974 43L354.866 34.36H356.354L359.246 43H358.136L355.43 34.984H355.766L353.084 43H351.974ZM353.366 40.978V39.976H357.854V40.978H353.366ZM363.05 43.18C362.394 43.18 361.836 43.034 361.376 42.742C360.92 42.446 360.572 42.04 360.332 41.524C360.092 41.008 359.968 40.42 359.96 39.76C359.968 39.084 360.094 38.49 360.338 37.978C360.586 37.462 360.94 37.06 361.4 36.772C361.86 36.484 362.414 36.34 363.062 36.34C363.746 36.34 364.334 36.508 364.826 36.844C365.322 37.18 365.654 37.64 365.822 38.224L364.766 38.542C364.63 38.166 364.408 37.874 364.1 37.666C363.796 37.458 363.446 37.354 363.05 37.354C362.606 37.354 362.24 37.458 361.952 37.666C361.664 37.87 361.45 38.154 361.31 38.518C361.17 38.878 361.098 39.292 361.094 39.76C361.102 40.48 361.268 41.062 361.592 41.506C361.92 41.946 362.406 42.166 363.05 42.166C363.474 42.166 363.826 42.07 364.106 41.878C364.386 41.682 364.598 41.4 364.742 41.032L365.822 41.314C365.598 41.918 365.248 42.38 364.772 42.7C364.296 43.02 363.722 43.18 363.05 43.18ZM370.665 43C370.281 43.076 369.901 43.106 369.525 43.09C369.153 43.078 368.821 43.004 368.529 42.868C368.237 42.728 368.015 42.512 367.863 42.22C367.735 41.964 367.665 41.706 367.653 41.446C367.645 41.182 367.641 40.884 367.641 40.552V34.72H368.709V40.504C368.709 40.768 368.711 40.994 368.715 41.182C368.723 41.37 368.765 41.532 368.841 41.668C368.985 41.924 369.213 42.074 369.525 42.118C369.841 42.162 370.221 42.15 370.665 42.082V43ZM366.327 37.402V36.52H370.665V37.402H366.327ZM372.101 35.374V34.27H373.169V35.374H372.101ZM372.101 43V36.52H373.169V43H372.101ZM376.721 43L374.369 36.52H375.449L377.267 41.638L379.079 36.52H380.165L377.813 43H376.721ZM383.824 43.18C383.188 43.18 382.632 43.04 382.156 42.76C381.684 42.476 381.316 42.082 381.052 41.578C380.788 41.07 380.656 40.478 380.656 39.802C380.656 39.094 380.786 38.482 381.046 37.966C381.306 37.446 381.668 37.046 382.132 36.766C382.6 36.482 383.148 36.34 383.776 36.34C384.428 36.34 384.982 36.49 385.438 36.79C385.898 37.09 386.242 37.518 386.47 38.074C386.702 38.63 386.802 39.292 386.77 40.06H385.69V39.676C385.678 38.88 385.516 38.286 385.204 37.894C384.892 37.498 384.428 37.3 383.812 37.3C383.152 37.3 382.65 37.512 382.306 37.936C381.962 38.36 381.79 38.968 381.79 39.76C381.79 40.524 381.962 41.116 382.306 41.536C382.65 41.956 383.14 42.166 383.776 42.166C384.204 42.166 384.576 42.068 384.892 41.872C385.208 41.676 385.456 41.394 385.636 41.026L386.662 41.38C386.41 41.952 386.03 42.396 385.522 42.712C385.018 43.024 384.452 43.18 383.824 43.18ZM381.43 40.06V39.202H386.218V40.06H381.43Z" fill="#97A5BA"/>
<rect x="501.5" y="51" width="24" height="24" rx="12" fill="#97A5BA"/>
<path opacity="0.5" d="M515.5 58.4998H513.84V67.3569H517.5V60.4998C517.5 59.3952 516.605 58.4998 515.5 58.4998Z" fill="#FDFEFE" stroke="#FDFEFE" stroke-width="1.3" stroke-linecap="round"/>
<path d="M515.5 58.4998H513.84V67.3569H517.5V60.4998C517.5 59.3952 516.605 58.4998 515.5 58.4998Z" stroke="#FDFEFE" stroke-width="1.3" stroke-linecap="round"/>
<path d="M513.833 67.3569H509.5V59.6415C509.5 58.8347 509.985 58.1069 510.729 57.796L512.448 57.0783C513.107 56.8032 513.833 57.2871 513.833 58.0011V67.3569Z" stroke="#FDFEFE" stroke-width="1.3" stroke-linecap="round"/>
<path d="M508.355 67.3569H518.401" stroke="#FDFEFE" stroke-width="1.3" stroke-linecap="round"/>
<path d="M512.543 62.3335L513.543 62.3335" stroke="#FDFEFE" stroke-width="1.2" stroke-linecap="round"/>
<path d="M496.697 43V34.36H502.157V35.374H497.765V38.08H501.437V39.094H497.765V41.986H502.157V43H496.697ZM502.88 43L505.358 39.724L502.934 36.52H504.206L505.982 38.896L507.74 36.52H509.012L506.588 39.724L509.072 43H507.794L505.982 40.552L504.158 43H502.88ZM510.153 35.374V34.27H511.221V35.374H510.153ZM510.153 43V36.52H511.221V43H510.153ZM516.64 43C516.256 43.076 515.876 43.106 515.5 43.09C515.128 43.078 514.796 43.004 514.504 42.868C514.212 42.728 513.99 42.512 513.838 42.22C513.71 41.964 513.64 41.706 513.628 41.446C513.62 41.182 513.616 40.884 513.616 40.552V34.72H514.684V40.504C514.684 40.768 514.686 40.994 514.69 41.182C514.698 41.37 514.74 41.532 514.816 41.668C514.96 41.924 515.188 42.074 515.5 42.118C515.816 42.162 516.196 42.15 516.64 42.082V43ZM512.302 37.402V36.52H516.64V37.402H512.302ZM520.494 43.18C519.858 43.18 519.302 43.04 518.826 42.76C518.354 42.476 517.986 42.082 517.722 41.578C517.458 41.07 517.326 40.478 517.326 39.802C517.326 39.094 517.456 38.482 517.716 37.966C517.976 37.446 518.338 37.046 518.802 36.766C519.27 36.482 519.818 36.34 520.446 36.34C521.098 36.34 521.652 36.49 522.108 36.79C522.568 37.09 522.912 37.518 523.14 38.074C523.372 38.63 523.472 39.292 523.44 40.06H522.36V39.676C522.348 38.88 522.186 38.286 521.874 37.894C521.562 37.498 521.098 37.3 520.482 37.3C519.822 37.3 519.32 37.512 518.976 37.936C518.632 38.36 518.46 38.968 518.46 39.76C518.46 40.524 518.632 41.116 518.976 41.536C519.32 41.956 519.81 42.166 520.446 42.166C520.874 42.166 521.246 42.068 521.562 41.872C521.878 41.676 522.126 41.394 522.306 41.026L523.332 41.38C523.08 41.952 522.7 42.396 522.192 42.712C521.688 43.024 521.122 43.18 520.494 43.18ZM518.1 40.06V39.202H522.888V40.06H518.1ZM527.32 43.18C526.716 43.18 526.198 43.03 525.766 42.73C525.334 42.426 525 42.016 524.764 41.5C524.532 40.984 524.416 40.402 524.416 39.754C524.416 39.106 524.532 38.524 524.764 38.008C525 37.492 525.334 37.086 525.766 36.79C526.198 36.49 526.714 36.34 527.314 36.34C527.926 36.34 528.44 36.488 528.856 36.784C529.272 37.08 529.586 37.486 529.798 38.002C530.014 38.518 530.122 39.102 530.122 39.754C530.122 40.398 530.014 40.98 529.798 41.5C529.586 42.016 529.272 42.426 528.856 42.73C528.44 43.03 527.928 43.18 527.32 43.18ZM527.452 42.202C527.888 42.202 528.246 42.098 528.526 41.89C528.806 41.678 529.012 41.388 529.144 41.02C529.28 40.648 529.348 40.226 529.348 39.754C529.348 39.274 529.28 38.852 529.144 38.488C529.012 38.12 528.808 37.834 528.532 37.63C528.256 37.422 527.906 37.318 527.482 37.318C527.042 37.318 526.678 37.426 526.39 37.642C526.106 37.858 525.894 38.15 525.754 38.518C525.618 38.886 525.55 39.298 525.55 39.754C525.55 40.214 525.62 40.63 525.76 41.002C525.9 41.37 526.11 41.662 526.39 41.878C526.674 42.094 527.028 42.202 527.452 42.202ZM529.348 43V38.23H529.228V34.36H530.302V43H529.348Z" fill="#97A5BA"/>
<path d="M97.5 63H209.5" stroke="#97A5BA"/>
<path d="M241.5 63H353.5" stroke="#97A5BA"/>
<path d="M385.5 63H497.5" stroke="#97A5BA"/>
</svg>
