<svg width="182" height="255" viewBox="0 0 182 255" fill="none" xmlns="http://www.w3.org/2000/svg">
<path opacity="0.62" d="M51.8495 201.668L84.0156 162.022C87.3755 157.881 93.6949 157.881 97.0549 162.022L129.221 201.668C131.722 204.751 131.722 209.165 129.221 212.247L97.0549 251.894C93.6949 256.035 87.3755 256.035 84.0156 251.894L51.8495 212.247C49.3483 209.165 49.3483 204.751 51.8495 201.668Z" fill="var(--gray-400)"/>
<path d="M101.823 104.72L133.989 65.0732C137.349 60.9318 143.668 60.9318 147.028 65.0732L179.194 104.72C181.695 107.803 181.695 112.216 179.194 115.299L147.028 154.945C143.668 159.087 137.349 159.087 133.989 154.945L101.823 115.299C99.3217 112.216 99.3217 107.803 101.823 104.72Z" fill="var(--gray-400)"/>
<path d="M1.87588 104.72L34.0419 65.0732C37.4019 60.9318 43.7213 60.9318 47.0812 65.0732L79.2473 104.72C81.7485 107.803 81.7485 112.216 79.2473 115.299L47.0812 154.945C43.7213 159.087 37.4019 159.087 34.0419 154.945L1.87588 115.299C-0.625295 112.216 -0.625295 107.803 1.87588 104.72Z" fill="var(--gray-400)"/>
<path d="M51.8494 42.7525L84.0154 3.10601C87.3754 -1.03534 93.6948 -1.03534 97.0548 3.10601L129.221 42.7525C131.722 45.8354 131.722 50.2487 129.221 53.3316L97.0548 92.9781C93.6948 97.1194 87.3754 97.1194 84.0154 92.9781L51.8494 53.3316C49.3482 50.2487 49.3482 45.8354 51.8494 42.7525Z" fill="var(--gray-400)"/>
</svg>
