<svg width="40" height="40" viewBox="0 0 40 40" fill="none" xmlns="http://www.w3.org/2000/svg">
<g clip-path="url(#clip0_21653_13221)">
<rect width="40" height="40" fill="#E6EAF7" fill-opacity="0.5"/>
<path opacity="0.62" d="M-5.20865 27.2311L9.77189 23.6568C11.3367 23.2835 12.8112 24.4452 12.8144 26.054L12.8449 41.455C12.8472 42.6525 12.0151 43.7087 10.8503 43.9866L-4.13028 47.5609C-5.6951 47.9343 -7.16964 46.7725 -7.17282 45.1638L-7.20325 29.7628C-7.20562 28.5652 -6.37351 27.5091 -5.20865 27.2311Z" fill="#CBD3E5"/>
<path d="M24.8006 13.2727L39.7812 9.69844C41.346 9.32508 42.8205 10.4868 42.8237 12.0956L42.8541 27.4966C42.8565 28.6941 42.0244 29.7503 40.8595 30.0282L25.879 33.6025C24.3142 33.9759 22.8396 32.8141 22.8365 31.2054L22.806 15.8044C22.8037 14.6068 23.6358 13.5507 24.8006 13.2727Z" fill="#CBD3E5"/>
<path d="M1.34751 -5.20537L16.328 -8.77968C17.8929 -9.15304 19.3674 -7.99129 19.3706 -6.38255L19.401 9.01845C19.4034 10.216 18.5713 11.2722 17.4064 11.5501L2.42588 15.1244C0.861058 15.4978 -0.613484 14.336 -0.616663 12.7273L-0.647097 -2.67373C-0.649463 -3.87129 0.182646 -4.92744 1.34751 -5.20537Z" fill="#CBD3E5"/>
<path d="M24.7535 -10.7979L39.734 -14.3722C41.2989 -14.7456 42.7734 -13.5838 42.7766 -11.9751L42.807 3.42594C42.8094 4.62349 41.9773 5.67964 40.8124 5.95758L25.8319 9.53188C24.2671 9.90524 22.7925 8.74349 22.7893 7.13476L22.7589 -8.26625C22.7565 -9.46381 23.5887 -10.52 24.7535 -10.7979Z" fill="#CBD3E5"/>
</g>
<defs>
<clipPath id="clip0_21653_13221">
<rect width="40" height="40" fill="white"/>
</clipPath>
</defs>
</svg>
