<svg width="14" height="14" viewBox="0 0 14 14" fill="none" xmlns="http://www.w3.org/2000/svg">
<path d="M0.108753 5.74677C-0.115125 5.359 0.0177347 4.86316 0.405503 4.63928L1.25462 4.14904C1.50547 4.00422 1.65999 3.73657 1.65999 3.44692V2.46926C1.65999 2.0215 2.02297 1.65852 2.47073 1.65852H3.4484C3.73805 1.65852 4.00569 1.504 4.15052 1.25315L4.63991 0.405503C4.86379 0.0177343 5.35962 -0.115125 5.74739 0.108753L6.59463 0.597908C6.84547 0.742731 7.15453 0.742731 7.40537 0.597907L8.25261 0.108753C8.64038 -0.115125 9.13621 0.0177343 9.36009 0.405503L9.84948 1.25315C9.99431 1.504 10.262 1.65852 10.5516 1.65852H11.5318C11.9795 1.65852 12.3425 2.0215 12.3425 2.46926V3.44837C12.3425 3.73802 12.497 4.00567 12.7479 4.15049L13.5945 4.63928C13.9823 4.86316 14.1151 5.359 13.8912 5.74677L13.4016 6.59486C13.2568 6.8457 13.2568 7.15476 13.4016 7.4056L13.8906 8.25261C14.1145 8.64038 13.9816 9.13621 13.5939 9.36009L12.7479 9.84852C12.497 9.99335 12.3425 10.261 12.3425 10.5506V11.5303C12.3425 11.9781 11.9795 12.341 11.5318 12.341H10.5521C10.2625 12.341 9.99482 12.4956 9.85 12.7464L9.36072 13.5939C9.13684 13.9816 8.641 14.1145 8.25323 13.8906L7.40537 13.4011C7.15453 13.2563 6.84547 13.2563 6.59463 13.4011L5.74677 13.8906C5.359 14.1145 4.86316 13.9816 4.63928 13.5939L4.15 12.7464C4.00518 12.4956 3.73753 12.341 3.44789 12.341H2.47073C2.02297 12.341 1.65999 11.9781 1.65999 11.5303V10.5521C1.65999 10.2624 1.50547 9.99479 1.25462 9.84997L0.406129 9.36009C0.0183607 9.13621 -0.114498 8.64038 0.10938 8.25261L0.598402 7.4056C0.743226 7.15475 0.743226 6.8457 0.598402 6.59486L0.108753 5.74677Z" fill="#1BA5F8"/>
<path d="M9.70298 5.98047L6.33759 9.21124L4.31836 7.27278" stroke="#FDFEFE" stroke-width="2.4" stroke-linecap="round" stroke-linejoin="round"/>
</svg>
