<svg width="24" height="24" viewBox="0 0 24 24" fill="none" xmlns="http://www.w3.org/2000/svg">
<path fill-rule="evenodd" clip-rule="evenodd" d="M17.9737 12.3535C17.7784 12.5488 17.4619 12.5488 17.2667 12.3535C17.0714 12.1583 17.0714 11.8417 17.2667 11.6465C17.4619 11.4512 17.7784 11.4512 17.9737 11.6465C18.1689 11.8417 18.1689 12.1583 17.9737 12.3535" fill="#34455A"/>
<path d="M17.9737 12.3535C17.7784 12.5488 17.4619 12.5488 17.2667 12.3535C17.0714 12.1583 17.0714 11.8417 17.2667 11.6465C17.4619 11.4512 17.7784 11.4512 17.9737 11.6465C18.1689 11.8417 18.1689 12.1583 17.9737 12.3535" stroke="#FDFEFE" stroke-width="1.62" stroke-linecap="round" stroke-linejoin="round"/>
<path fill-rule="evenodd" clip-rule="evenodd" d="M12.3541 12.3535C12.1588 12.5488 11.8423 12.5488 11.6471 12.3535C11.4518 12.1583 11.4518 11.8417 11.6471 11.6465C11.8423 11.4512 12.1588 11.4512 12.3541 11.6465C12.5493 11.8417 12.5493 12.1583 12.3541 12.3535" fill="#34455A"/>
<path d="M12.3541 12.3535C12.1588 12.5488 11.8423 12.5488 11.6471 12.3535C11.4518 12.1583 11.4518 11.8417 11.6471 11.6465C11.8423 11.4512 12.1588 11.4512 12.3541 11.6465C12.5493 11.8417 12.5493 12.1583 12.3541 12.3535" stroke="#FDFEFE" stroke-width="1.62" stroke-linecap="round" stroke-linejoin="round"/>
<path fill-rule="evenodd" clip-rule="evenodd" d="M6.73442 12.3535C6.53917 12.5488 6.22267 12.5488 6.02742 12.3535C5.83217 12.1583 5.83217 11.8417 6.02742 11.6465C6.22267 11.4512 6.53917 11.4512 6.73442 11.6465C6.92967 11.8417 6.92967 12.1583 6.73442 12.3535" fill="#34455A"/>
<path d="M6.73442 12.3535C6.53917 12.5488 6.22267 12.5488 6.02742 12.3535C5.83217 12.1583 5.83217 11.8417 6.02742 11.6465C6.22267 11.4512 6.53917 11.4512 6.73442 11.6465C6.92967 11.8417 6.92967 12.1583 6.73442 12.3535" stroke="#FDFEFE" stroke-width="1.62" stroke-linecap="round" stroke-linejoin="round"/>
</svg>
