<svg width="24" height="24" viewBox="0 0 24 24" fill="none" xmlns="http://www.w3.org/2000/svg">
<g id="Group">
<g id="Group_2">
<g id="Group 139">
<g id="Path">
<path fill-rule="evenodd" clip-rule="evenodd" d="M17.9736 12.3535C17.7784 12.5488 17.4619 12.5488 17.2666 12.3535C17.0714 12.1583 17.0714 11.8417 17.2666 11.6465C17.4619 11.4512 17.7784 11.4512 17.9736 11.6465C18.1689 11.8417 18.1689 12.1583 17.9736 12.3535Z" fill="#E6EAF7"/>
<path d="M17.9736 12.3535C17.7784 12.5488 17.4619 12.5488 17.2666 12.3535C17.0714 12.1583 17.0714 11.8417 17.2666 11.6465C17.4619 11.4512 17.7784 11.4512 17.9736 11.6465C18.1689 11.8417 18.1689 12.1583 17.9736 12.3535" stroke="#0B2A3C" stroke-width="1.62" stroke-linecap="round" stroke-linejoin="round"/>
</g>
<g id="Path_2">
<path fill-rule="evenodd" clip-rule="evenodd" d="M12.354 12.3535C12.1587 12.5488 11.8422 12.5488 11.647 12.3535C11.4517 12.1583 11.4517 11.8417 11.647 11.6465C11.8422 11.4512 12.1587 11.4512 12.354 11.6465C12.5492 11.8417 12.5492 12.1583 12.354 12.3535Z" fill="#E6EAF7"/>
<path d="M12.354 12.3535C12.1587 12.5488 11.8422 12.5488 11.647 12.3535C11.4517 12.1583 11.4517 11.8417 11.647 11.6465C11.8422 11.4512 12.1587 11.4512 12.354 11.6465C12.5492 11.8417 12.5492 12.1583 12.354 12.3535" stroke="#0B2A3C" stroke-width="1.62" stroke-linecap="round" stroke-linejoin="round"/>
</g>
<g id="Path_3">
<path fill-rule="evenodd" clip-rule="evenodd" d="M6.73436 12.3535C6.53911 12.5488 6.22261 12.5488 6.02736 12.3535C5.83211 12.1583 5.83211 11.8417 6.02736 11.6465C6.22261 11.4512 6.53911 11.4512 6.73436 11.6465C6.92961 11.8417 6.92961 12.1583 6.73436 12.3535Z" fill="#E6EAF7"/>
<path d="M6.73436 12.3535C6.53911 12.5488 6.22261 12.5488 6.02736 12.3535C5.83211 12.1583 5.83211 11.8417 6.02736 11.6465C6.22261 11.4512 6.53911 11.4512 6.73436 11.6465C6.92961 11.8417 6.92961 12.1583 6.73436 12.3535" stroke="#0B2A3C" stroke-width="1.62" stroke-linecap="round" stroke-linejoin="round"/>
</g>
</g>
</g>
</g>
</svg>
