<svg width="62" height="36" viewBox="0 0 62 36" fill="none" xmlns="http://www.w3.org/2000/svg">
    <rect width="62" height="36" rx="18" transform="matrix(-1 0 0 1 62 0)" fill="#033A5D"/>
    <path d="M22.148 22.865A8.998 8.998 0 0 1 18.372 7.9c.659-.66.41-1.911-.522-1.9-1.99.023-4.002.543-5.848 1.608C6.264 10.923 4.298 18.26 7.611 24c3.313 5.739 10.65 7.705 16.39 4.392a11.946 11.946 0 0 0 4.11-3.924c.501-.786-.429-1.657-1.338-1.447a8.956 8.956 0 0 1-4.625-.155zM45.761 23.825l-1.673-2.063a.437.437 0 0 0-.679 0l-1.674 2.063c-.13.16-.13.39 0 .55l1.674 2.064a.437.437 0 0 0 .679 0l1.673-2.064c.13-.16.13-.39 0-.55zM34.38 12.135l-1.003-1.238a.262.262 0 0 0-.408 0l-1.004 1.238a.262.262 0 0 0 0 .33l1.004 1.238c.105.13.303.13.408 0l1.004-1.238a.262.262 0 0 0 0-.33zM51.165 9.8l-.603-.742a.157.157 0 0 0-.244 0l-.603.743a.157.157 0 0 0 0 .198l.603.743a.157.157 0 0 0 .244 0l.603-.743a.157.157 0 0 0 0-.198z" fill="#FDFEFE"/>
</svg>
