<svg width="40" height="40" viewBox="0 0 40 40" fill="none" xmlns="http://www.w3.org/2000/svg">
    <path opacity=".62" d="m-5.209 27.232 14.98-3.574a2.455 2.455 0 0 1 3.043 2.397l.03 15.4a2.609 2.609 0 0 1-1.994 2.532l-14.98 3.575a2.455 2.455 0 0 1-3.043-2.397l-.03-15.401a2.609 2.609 0 0 1 1.994-2.532z" fill="#CBD3E5"/>
    <path d="m24.8 13.275 14.981-3.574a2.455 2.455 0 0 1 3.043 2.397l.03 15.4a2.609 2.609 0 0 1-1.994 2.532l-14.98 3.575a2.455 2.455 0 0 1-3.043-2.397l-.03-15.401a2.609 2.609 0 0 1 1.994-2.532zM1.348-5.205l14.98-3.575a2.455 2.455 0 0 1 3.043 2.397l.03 15.401a2.609 2.609 0 0 1-1.994 2.532l-14.98 3.574a2.455 2.455 0 0 1-3.043-2.397l-.03-15.4a2.609 2.609 0 0 1 1.994-2.532zM24.754-10.8l14.98-3.573a2.455 2.455 0 0 1 3.043 2.397l.03 15.4a2.609 2.609 0 0 1-1.994 2.532l-14.98 3.575a2.455 2.455 0 0 1-3.043-2.398l-.03-15.4a2.609 2.609 0 0 1 1.994-2.532z" fill="#CBD3E5"/>
</svg>
