<svg width="40" height="40" viewBox="0 0 40 40" fill="none" xmlns="http://www.w3.org/2000/svg">
    <path d="M0 4a4 4 0 0 1 4-4h32a4 4 0 0 1 4 4v32a4 4 0 0 1-4 4H4a4 4 0 0 1-4-4V4z" fill="#E6EAF7" fill-opacity=".5"/>
    <mask id="a" style="mask-type:alpha" maskUnits="userSpaceOnUse" x="0" y="0" width="40" height="40">
        <path opacity=".5" fill="#97A5BA" d="M0 0h40v40H0z"/>
    </mask>
    <g mask="url(#a)" fill="#CBD3E5">
        <path opacity=".62" d="m-5.209 27.231 14.98-3.574a2.455 2.455 0 0 1 3.043 2.397l.03 15.401a2.609 2.609 0 0 1-1.994 2.532L-4.13 47.56a2.455 2.455 0 0 1-3.043-2.397l-.03-15.401A2.609 2.609 0 0 1-5.21 27.23z"/>
        <path d="m24.8 13.273 14.98-3.575a2.455 2.455 0 0 1 3.043 2.398l.03 15.4a2.609 2.609 0 0 1-1.994 2.532l-14.98 3.575a2.455 2.455 0 0 1-3.043-2.398l-.03-15.4a2.609 2.609 0 0 1 1.994-2.532zM1.348-5.205l14.98-3.575a2.455 2.455 0 0 1 3.043 2.397l.03 15.401a2.609 2.609 0 0 1-1.994 2.532l-14.98 3.574a2.455 2.455 0 0 1-3.043-2.397l-.03-15.4a2.609 2.609 0 0 1 1.994-2.532zM24.753-10.798l14.98-3.574a2.455 2.455 0 0 1 3.043 2.397l.03 15.4a2.609 2.609 0 0 1-1.994 2.533l-14.98 3.574a2.455 2.455 0 0 1-3.043-2.397l-.03-15.401a2.609 2.609 0 0 1 1.994-2.532z"/>
    </g>
</svg>
