<svg width="80" height="80" viewBox="0 0 80 80" fill="none" xmlns="http://www.w3.org/2000/svg">
<g opacity="0.24" clip-path="url(#clip0_23762_383738)">
<rect width="80" height="80" fill="#E6EAF7" fill-opacity="0.5"/>
<path opacity="0.62" d="M-10.4173 54.4623L19.5438 47.3137C22.6734 46.5669 25.6225 48.8904 25.6288 52.1079L25.6897 82.9099C25.6944 85.305 24.0302 87.4173 21.7005 87.9732L-8.26055 95.1218C-11.3902 95.8685 -14.3393 93.545 -14.3456 90.3276L-14.4065 59.5256C-14.4112 57.1304 -12.747 55.0181 -10.4173 54.4623Z" fill="#CBD3E5"/>
<path d="M49.6013 26.5455L79.5623 19.3968C82.692 18.6501 85.641 20.9736 85.6474 24.1911L85.7083 54.9931C85.713 57.3882 84.0488 59.5005 81.7191 60.0564L51.758 67.205C48.6284 67.9517 45.6793 65.6282 45.6729 62.4107L45.6121 31.6087C45.6073 29.2136 47.2715 27.1013 49.6013 26.5455Z" fill="#CBD3E5"/>
<path d="M2.69526 -10.4107L32.6563 -17.5593C35.7859 -18.3061 38.735 -15.9826 38.7414 -12.7651L38.8023 18.0369C38.807 20.432 37.1428 22.5443 34.813 23.1002L4.852 30.2488C1.72236 30.9956 -1.22672 28.6721 -1.23308 25.4546L-1.29395 -5.34743C-1.29868 -7.74254 0.365538 -9.85484 2.69526 -10.4107Z" fill="#CBD3E5"/>
<path d="M49.5069 -21.5958L79.468 -28.7444C82.5976 -29.4911 85.5467 -27.1676 85.553 -23.9501L85.6139 6.85189C85.6186 9.247 83.9544 11.3593 81.6247 11.9152L51.6636 19.0638C48.534 19.8105 45.5849 17.487 45.5786 14.2695L45.5177 -16.5325C45.513 -18.9276 47.1772 -21.0399 49.5069 -21.5958Z" fill="#CBD3E5"/>
</g>
<defs>
<clipPath id="clip0_23762_383738">
<rect width="80" height="80" fill="white"/>
</clipPath>
</defs>
</svg>
