<svg width="24" height="24" viewBox="0 0 24 24" fill="none" xmlns="http://www.w3.org/2000/svg">
    <path clip-rule="evenodd" d="M19 21H5a2 2 0 0 1-2-2V5a2 2 0 0 1 2-2h14a2 2 0 0 1 2 2v14a2 2 0 0 1-2 2z" stroke="#0B2A3C" stroke-width="1.5" stroke-linecap="round" stroke-linejoin="round"/>
    <path d="M17 8h-6M11 12h6M11 16h6M6.998 7.75a.25.25 0 1 0 .004.5.25.25 0 0 0-.004-.5M6.998 11.75a.25.25 0 1 0 .004.5.25.25 0 0 0-.004-.5M6.998 15.75a.25.25 0 1 0 .004.5.25.25 0 0 0-.004-.5" stroke="#0B2A3C" stroke-width="1.5" stroke-linecap="round" stroke-linejoin="round"/>
</svg>
