<svg width="549" height="211" viewBox="0 0 549 211" fill="none" xmlns="http://www.w3.org/2000/svg">
    <path d="m466.646 127.335-20.967-12.042a5.718 5.718 0 0 0-5.641-.035l-19.79 11.016 23.671 13.53 22.727-12.481v.012z" fill="#F5F8FC"/>
    <path d="m466.646 127.335-20.967-12.042a5.718 5.718 0 0 0-5.641-.035l-19.79 11.016 23.671 13.53 22.727-12.481v.012z" stroke="#B8D9F4" stroke-width=".43" stroke-linecap="round" stroke-linejoin="round"/>
    <path d="m443.93 139.813-.14 26.125 20.093-11.442c1.631-.934 2.645-2.641 2.645-4.51l.117-22.642-22.727 12.48.012-.011z" fill="#B8D9F4"/>
    <path d="m443.93 139.811-23.671-13.53-.116 22.781a5.547 5.547 0 0 0 2.762 4.798l20.885 12.077.14-26.126z" fill="#EEF7FF"/>
    <path d="m443.93 139.811-23.671-13.53-.116 22.781a5.547 5.547 0 0 0 2.762 4.798l20.885 12.077.14-26.126v0z" stroke="#B8D9F4" stroke-width=".43" stroke-linecap="round" stroke-linejoin="round"/>
    <path d="m429.117 143.937 2.261-1.938c.234-.207.676.07.921.554l2.261 4.672c.175.357.175.726 0 .876l-2.261 1.938c-.233.208-.676-.069-.921-.554l-2.261-4.671c-.174-.358-.174-.727 0-.877z" fill="#B3D6FF"/>
    <path d="m466.646 96.186-20.967-12.042a5.718 5.718 0 0 0-5.641-.034l-19.79 11.015 23.671 13.53 22.727-12.48v.011z" fill="#F5F8FC"/>
    <path d="m466.646 96.186-20.967-12.042a5.718 5.718 0 0 0-5.641-.034l-19.79 11.015 23.671 13.53 22.727-12.48v.011z" stroke="#B8D9F4" stroke-width=".43" stroke-linecap="round" stroke-linejoin="round"/>
    <path d="m443.93 108.664-.14 26.126 20.093-11.442c1.631-.935 2.645-2.642 2.645-4.51l.117-22.643-22.727 12.481.012-.012z" fill="#B8D9F4"/>
    <path d="m443.93 108.663-23.671-13.53-.116 22.781a5.547 5.547 0 0 0 2.762 4.798l20.885 12.077.14-26.126z" fill="#EEF7FF"/>
    <path d="m443.93 108.663-23.671-13.53-.116 22.781a5.547 5.547 0 0 0 2.762 4.798l20.885 12.077.14-26.126v0z" stroke="#B8D9F4" stroke-width=".43" stroke-linecap="round" stroke-linejoin="round"/>
    <path d="m429.117 112.789 2.261-1.938c.234-.208.676.069.921.554l2.261 4.671c.175.358.175.727 0 .877l-2.261 1.938c-.233.207-.676-.07-.921-.554l-2.261-4.672c-.174-.357-.174-.726 0-.876z" fill="#B3D6FF"/>
    <path d="m466.646 63.89-20.967-12.043a5.718 5.718 0 0 0-5.641-.034l-19.79 11.015 23.671 13.53 22.727-12.48v.011z" fill="#F5F8FC"/>
    <path d="m466.646 63.89-20.967-12.043a5.718 5.718 0 0 0-5.641-.034l-19.79 11.015 23.671 13.53 22.727-12.48v.011z" stroke="#B8D9F4" stroke-width=".43" stroke-linecap="round" stroke-linejoin="round"/>
    <path d="m443.93 76.367-.14 26.126 20.093-11.442c1.631-.934 2.645-2.642 2.645-4.51l.117-22.643-22.727 12.48.012-.01z" fill="#B8D9F4"/>
    <path d="m443.93 76.366-23.671-13.53-.116 22.78a5.547 5.547 0 0 0 2.762 4.8l20.885 12.076.14-26.126z" fill="#EEF7FF"/>
    <path d="m443.93 76.366-23.671-13.53-.116 22.78a5.547 5.547 0 0 0 2.762 4.8l20.885 12.076.14-26.126v0z" stroke="#B8D9F4" stroke-width=".43" stroke-linecap="round" stroke-linejoin="round"/>
    <path d="m429.117 80.492 2.261-1.938c.234-.207.676.07.921.554l2.261 4.671c.175.358.175.727 0 .877l-2.261 1.938c-.233.207-.676-.07-.921-.554l-2.261-4.671c-.174-.358-.174-.727 0-.877z" fill="#B3D6FF"/>
    <path d="m36.096 160.017-18.66-12.561c-6.852-4.614-11.281-11.05-13.764-18.767-1.864-5.779-1.188-12.123-1.188-18.155V85.446c16.141 0 33.624-9.493 33.624-9.493s17.482 9.493 33.623 9.493v25.688c0 5.986.583 12.076-1.281 17.832-2.471 7.613-6.935 13.957-13.672 18.49L36.12 160.017" fill="#F5F8FC"/>
    <path d="m36.096 160.017-18.66-12.561c-6.852-4.614-11.281-11.05-13.764-18.767-1.864-5.779-1.188-12.123-1.188-18.155V85.446c16.141 0 33.624-9.493 33.624-9.493s17.482 9.493 33.623 9.493v25.688c0 5.986.583 12.076-1.281 17.832-2.471 7.613-6.935 13.957-13.672 18.49L36.12 160.017" stroke="#B8D9F4" stroke-width=".44" stroke-miterlimit="10"/>
    <path d="m44.289 117.743.862-1.211-8.799-12.446-8.8 12.446.502.703" stroke="#B8D9F4" stroke-width="1.5" stroke-linecap="round" stroke-linejoin="round"/>
    <path d="m28.054 117.234 8.298 11.743 7.937-11.235" stroke="#B8D9F4" stroke-width="1.5" stroke-linecap="round" stroke-linejoin="round"/>
    <path d="m27.553 116.523 8.8 3.738 8.798-3.738M47.34 110.484l4.907.715.828-4.879M24.906 121.984l-5.023.485-.478 4.925" stroke="#B8D9F4" stroke-width="1.5" stroke-linecap="round" stroke-linejoin="round"/>
    <path d="M54.113 115.414a3.758 3.758 0 0 1 0 4.798l-14.86 17.994c-1.55 1.88-4.475 1.88-6.025 0l-11.713-14.383M18.357 117.984a3.76 3.76 0 0 1 0-4.799l14.86-17.994c1.55-1.88 4.475-1.88 6.025 0l12.599 15.295" stroke="#B8D9F4" stroke-width="1.5" stroke-linecap="round" stroke-linejoin="round"/>
    <path d="M86.21 110h132.818" stroke="#1BA5F8" stroke-width=".5" stroke-linecap="round" stroke-linejoin="round"/>
    <path d="m217.094 112.35-.397-.415 2.098-1.938-2.098-1.937.397-.427 2.564 2.364-2.564 2.353z" fill="#1BA5F8"/>
    <path d="m275.974 103.706 130.043-48.987" stroke="#1BA5F8" stroke-width=".42" stroke-linecap="round" stroke-linejoin="round"/>
    <path d="m405.224 57.129-.443-.22 1.06-2.122-2.226-.9.187-.45 2.715 1.096-1.293 2.596z" fill="#1BA5F8"/>
    <path d="m275.974 107.555 131.966-25.93" stroke="#1BA5F8" stroke-width=".42" stroke-linecap="round" stroke-linejoin="round"/>
    <path d="m406.752 83.876-.396-.289 1.41-1.926-2.051-1.246.256-.415 2.494 1.523-1.713 2.353z" fill="#1BA5F8"/>
    <path d="m273.048 114.318 134.892-3.841" stroke="#1BA5F8" stroke-width=".42" stroke-linecap="round" stroke-linejoin="round"/>
    <path d="m406.378 112.492-.337-.346 1.713-1.661-1.807-1.569.315-.369 2.203 1.915-2.087 2.03z" fill="#1BA5F8"/>
    <path d="m267.209 118.156 138.785 18.259" stroke="#1BA5F8" stroke-width=".42" stroke-linecap="round" stroke-linejoin="round"/>
    <path d="m404.129 138.152-.279-.392 1.958-1.372-1.527-1.834.373-.312 1.865 2.238-2.39 1.672z" fill="#1BA5F8"/>
    <path d="m256.032 159.827-.257-44.385-16.992-20.44a10.522 10.522 0 0 1 0-13.472l20.384-24.51c2.074-2.504 5.151-3.934 8.438-3.934 3.286 0 6.363 1.43 8.438 3.933l20.384 24.511a10.522 10.522 0 0 1 0 13.472l-17.179 20.659.023 4.706 2.483 2.411.058 11.015-1.795 1.788 1.818 1.765.047 7.774-1.795 1.788 1.818 1.765.058 11.015-12.901 12.827-13.054-12.688h.024z" fill="#F5F8FC" stroke="#B8D9F4" stroke-width=".49" stroke-miterlimit="10"/>
    <path d="m291.765 85.01-20.256-24.511c-2.121-2.561-6.095-2.561-8.205 0l-20.256 24.51a5.122 5.122 0 0 0 0 6.54l18.426 22.308-.303-.023.245 43.705 7.401 7.244 7.319-7.325-.035-6.471-4.114-4.025 4.067-4.072-.023-3.241-4.114-4.026 4.068-4.071-.035-6.483-2.471-2.411-.047-8.097-.676-.046 18.997-22.988a5.12 5.12 0 0 0 0-6.54l.012.023z" stroke="#B8D9F4" stroke-width=".5" stroke-miterlimit="10"/>
    <path d="m261.137 98.701 4.907-5.767c.513-.6 1.48-.6 1.993 0l4.906 5.767c.385.45.385 1.085 0 1.535l-4.906 5.767c-.513.6-1.48.6-1.993 0l-4.907-5.767a1.164 1.164 0 0 1 0-1.535zM268.818 84.584l4.837-5.814c.501-.61 1.469-.622 1.993-.023l4.977 5.71c.384.438.396 1.084.023 1.534l-4.837 5.814c-.501.61-1.468.622-1.993.023l-4.976-5.71a1.178 1.178 0 0 1-.024-1.534zM253.562 84.756l4.836-5.814c.502-.611 1.469-.622 1.993-.023l4.977 5.71c.385.438.396 1.084.023 1.534l-4.837 5.813c-.501.612-1.468.623-1.992.023l-4.977-5.71a1.177 1.177 0 0 1-.023-1.533zM261.067 75.639l4.837-5.814c.501-.611 1.469-.623 1.993-.023l4.977 5.71c.384.438.396 1.084.023 1.534l-4.837 5.813c-.501.612-1.468.623-1.993.023l-4.976-5.71a1.178 1.178 0 0 1-.024-1.533z" fill="#B8D9F4"/>
    <path d="M114.009 119.954h.96l-2.172 8.304h-2.064l-2.172-8.304h.96l1.908 7.488h.672l1.908-7.488zm6.021 4.116v3.072c.024.296.256.472.696.528l-.036.708c-.632 0-1.108-.16-1.428-.48-.72.32-1.44.48-2.16.48-.552 0-.972-.156-1.26-.468-.288-.312-.432-.76-.432-1.344 0-.584.148-1.012.444-1.284.296-.28.76-.452 1.392-.516l1.884-.18v-.516c0-.408-.088-.7-.264-.876-.176-.176-.416-.264-.72-.264-.64 0-1.304.04-1.992.12l-.372.036-.036-.684c.88-.176 1.66-.264 2.34-.264.68 0 1.172.156 1.476.468.312.312.468.8.468 1.464zm-3.696 2.448c0 .736.304 1.104.912 1.104.544 0 1.08-.092 1.608-.276l.276-.096v-1.98l-1.776.168c-.36.032-.62.136-.78.312-.16.176-.24.432-.24.768zm5.543 1.74v-8.616h.9v8.616h-.9zm2.706 0v-6h.9v6h-.9zm0-7.356v-1.044h.9v1.044h-.9zm7.233-1.26v8.616h-.888v-.408c-.616.352-1.224.528-1.824.528-.32 0-.6-.04-.84-.12a1.723 1.723 0 0 1-.672-.432c-.432-.432-.648-1.228-.648-2.388 0-1.168.192-2.008.576-2.52.392-.52 1.036-.78 1.932-.78.464 0 .956.052 1.476.156v-2.652h.888zm-3.528 7.536c.128.152.264.256.408.312.144.056.328.084.552.084.232 0 .488-.036.768-.108.288-.08.512-.156.672-.228l.24-.108v-4.068a7.78 7.78 0 0 0-1.428-.144c-.608 0-1.032.196-1.272.588-.24.384-.36.984-.36 1.8 0 .928.14 1.552.42 1.872zm9.507-3.108v3.072c.024.296.256.472.696.528l-.036.708c-.632 0-1.108-.16-1.428-.48-.72.32-1.44.48-2.16.48-.552 0-.972-.156-1.26-.468-.288-.312-.432-.76-.432-1.344 0-.584.148-1.012.444-1.284.296-.28.76-.452 1.392-.516l1.884-.18v-.516c0-.408-.088-.7-.264-.876-.176-.176-.416-.264-.72-.264-.64 0-1.304.04-1.992.12l-.372.036-.036-.684c.88-.176 1.66-.264 2.34-.264.68 0 1.172.156 1.476.468.312.312.468.8.468 1.464zm-3.696 2.448c0 .736.304 1.104.912 1.104.544 0 1.08-.092 1.608-.276l.276-.096v-1.98l-1.776.168c-.36.032-.62.136-.78.312-.16.176-.24.432-.24.768zm8.58-3.48h-1.908v2.868c0 .688.048 1.14.144 1.356.104.216.344.324.72.324l1.068-.072.06.744c-.536.088-.944.132-1.224.132-.624 0-1.056-.152-1.296-.456-.24-.304-.36-.884-.36-1.74v-3.156h-.852v-.78h.852v-1.836h.888v1.836h1.908v.78zm.835 2.208c0-1.096.196-1.888.588-2.376.392-.488 1.052-.732 1.98-.732.936 0 1.596.244 1.98.732.392.488.588 1.28.588 2.376 0 1.096-.184 1.892-.552 2.388-.368.496-1.04.744-2.016.744s-1.648-.248-2.016-.744c-.368-.496-.552-1.292-.552-2.388zm.924-.012c0 .872.104 1.484.312 1.836.216.352.66.528 1.332.528.68 0 1.124-.172 1.332-.516.208-.352.312-.968.312-1.848 0-.88-.116-1.484-.348-1.812-.232-.336-.664-.504-1.296-.504-.624 0-1.056.168-1.296.504-.232.328-.348.932-.348 1.812zm5.68 3.024v-6h.888v.816a5.844 5.844 0 0 1 2.196-.948v.912a6.642 6.642 0 0 0-1.056.3c-.36.136-.636.256-.828.36l-.3.156v4.404h-.9zm9.977-2.796h-2.112v2.796h-.924v-8.304h3.036c.904 0 1.572.22 2.004.66.432.44.648 1.112.648 2.016 0 1.888-.884 2.832-2.652 2.832zm-2.112-.816h2.1c1.144 0 1.716-.672 1.716-2.016 0-.64-.136-1.108-.408-1.404-.272-.304-.708-.456-1.308-.456h-2.1v3.876zm6.033 3.612v-6h.888v.816a5.844 5.844 0 0 1 2.196-.948v.912a6.642 6.642 0 0 0-1.056.3c-.36.136-.636.256-.828.36l-.3.156v4.404h-.9zm4.149 0v-6h.9v6h-.9zm0-7.356v-1.044h.9v1.044h-.9zm2.061 1.356h.96l1.404 5.22h.444l1.452-5.22h.924l-1.692 6h-1.8l-1.692-6zm10.483 1.812v3.072c.024.296.256.472.696.528l-.036.708c-.632 0-1.108-.16-1.428-.48-.72.32-1.44.48-2.16.48-.552 0-.972-.156-1.26-.468-.288-.312-.432-.76-.432-1.344 0-.584.148-1.012.444-1.284.296-.28.76-.452 1.392-.516l1.884-.18v-.516c0-.408-.088-.7-.264-.876-.176-.176-.416-.264-.72-.264-.64 0-1.304.04-1.992.12l-.372.036-.036-.684c.88-.176 1.66-.264 2.34-.264.68 0 1.172.156 1.476.468.312.312.468.8.468 1.464zm-3.696 2.448c0 .736.304 1.104.912 1.104.544 0 1.08-.092 1.608-.276l.276-.096v-1.98l-1.776.168c-.36.032-.62.136-.78.312-.16.176-.24.432-.24.768zm8.58-3.48h-1.908v2.868c0 .688.048 1.14.144 1.356.104.216.344.324.72.324l1.068-.072.06.744c-.536.088-.944.132-1.224.132-.624 0-1.056-.152-1.296-.456-.24-.304-.36-.884-.36-1.74v-3.156h-.852v-.78h.852v-1.836h.888v1.836h1.908v.78zm5.179 4.476.348-.036.024.708c-.912.128-1.692.192-2.34.192-.864 0-1.476-.248-1.836-.744-.36-.504-.54-1.284-.54-2.34 0-2.104.836-3.156 2.508-3.156.808 0 1.412.228 1.812.684.4.448.6 1.156.6 2.124l-.048.684h-3.96c0 .664.12 1.156.36 1.476.24.32.656.48 1.248.48.6 0 1.208-.024 1.824-.072zm-.324-2.604c0-.736-.12-1.256-.36-1.56-.232-.304-.616-.456-1.152-.456-.528 0-.928.16-1.2.48-.264.32-.4.832-.408 1.536h3.12zm6.019 3.348h-.924v-8.304h.924v3.864l1.368-.048 2.124-3.816h1.056l-2.376 4.176 2.508 4.128h-1.092l-2.208-3.672-1.38.048v3.624zm9.657-.744.348-.036.024.708c-.912.128-1.692.192-2.34.192-.864 0-1.476-.248-1.836-.744-.36-.504-.54-1.284-.54-2.34 0-2.104.836-3.156 2.508-3.156.808 0 1.412.228 1.812.684.4.448.6 1.156.6 2.124l-.048.684h-3.96c0 .664.12 1.156.36 1.476.24.32.656.48 1.248.48.6 0 1.208-.024 1.824-.072zm-.324-2.604c0-.736-.12-1.256-.36-1.56-.232-.304-.616-.456-1.152-.456-.528 0-.928.16-1.2.48-.264.32-.4.832-.408 1.536h3.12zm1.633-2.652h.9l1.5 5.22h.396l1.512-5.22h.9l-2.496 8.664h-.9l.78-2.664h-.888l-1.704-6z" fill="#1BA5F8"/>
    <path d="M398.783 175.796c-1.016 0-1.524.356-1.524 1.068 0 .368.12.632.36.792.24.152.768.344 1.584.576.824.224 1.404.496 1.74.816.336.312.504.808.504 1.488 0 .864-.248 1.512-.744 1.944-.488.424-1.156.636-2.004.636-.68 0-1.432-.08-2.256-.24l-.432-.084.132-1.068c1.08.144 1.904.216 2.472.216.992 0 1.488-.44 1.488-1.32 0-.344-.112-.596-.336-.756-.224-.168-.728-.348-1.512-.54-.784-.2-1.368-.472-1.752-.816-.384-.344-.576-.888-.576-1.632 0-.744.24-1.304.72-1.68.488-.384 1.16-.576 2.016-.576.616 0 1.344.072 2.184.216l.42.072-.108 1.08c-1.12-.128-1.912-.192-2.376-.192zm6.515 0c-1.016 0-1.524.356-1.524 1.068 0 .368.12.632.36.792.24.152.768.344 1.584.576.824.224 1.404.496 1.74.816.336.312.504.808.504 1.488 0 .864-.248 1.512-.744 1.944-.488.424-1.156.636-2.004.636-.68 0-1.432-.08-2.256-.24l-.432-.084.132-1.068c1.08.144 1.904.216 2.472.216.992 0 1.488-.44 1.488-1.32 0-.344-.112-.596-.336-.756-.224-.168-.728-.348-1.512-.54-.784-.2-1.368-.472-1.752-.816-.384-.344-.576-.888-.576-1.632 0-.744.24-1.304.72-1.68.488-.384 1.16-.576 2.016-.576.616 0 1.344.072 2.184.216l.42.072-.108 1.08c-1.12-.128-1.912-.192-2.376-.192zm8.547-1.032h1.392l-2.016 8.22h-2.616l-2.016-8.22h1.392l1.632 7.044h.6l1.632-7.044zm5.213 8.22v-8.22h2.328l2.496 7.044h.18v-7.044h1.332v8.22h-2.28l-2.556-7.056h-.168v7.056h-1.332zm12.273-1.08.336-.036.024.972c-.912.184-1.72.276-2.424.276-.888 0-1.528-.244-1.92-.732-.384-.488-.576-1.268-.576-2.34 0-2.128.868-3.192 2.604-3.192 1.68 0 2.52.916 2.52 2.748l-.084.936h-3.72c.008.496.116.86.324 1.092.208.232.596.348 1.164.348s1.152-.024 1.752-.072zm-.72-2.376c0-.592-.096-1.004-.288-1.236-.184-.24-.5-.36-.948-.36-.448 0-.776.124-.984.372-.2.248-.304.656-.312 1.224h2.532zm5.769-1.428h-1.656v2.64c0 .488.036.812.108.972.072.16.256.24.552.24l.984-.036.06 1.044c-.536.104-.944.156-1.224.156-.68 0-1.148-.156-1.404-.468-.248-.312-.372-.9-.372-1.764V178.1h-.768v-1.116h.768v-1.74h1.296v1.74h1.656v1.116zm.605-1.116h1.284l.948 4.884h.24l1.14-4.764h1.344l1.14 4.764h.24l.936-4.884h1.296l-1.272 6h-2.076l-.936-4.116-.936 4.116h-2.076l-1.272-6zm10.003.648c.416-.52 1.104-.78 2.064-.78s1.644.26 2.052.78c.416.52.624 1.3.624 2.34 0 1.04-.2 1.824-.6 2.352-.4.528-1.092.792-2.076.792s-1.676-.264-2.076-.792c-.4-.528-.6-1.312-.6-2.352 0-1.04.204-1.82.612-2.34zm.984 3.9c.184.32.544.48 1.08.48s.896-.16 1.08-.48c.184-.32.276-.844.276-1.572 0-.728-.1-1.244-.3-1.548-.192-.304-.544-.456-1.056-.456s-.868.152-1.068.456c-.192.304-.288.82-.288 1.548 0 .728.092 1.252.276 1.572zm5.055 1.452v-6h1.296v.72c.68-.44 1.36-.724 2.04-.852v1.308c-.688.136-1.276.312-1.764.528l-.264.108v4.188h-1.308zm5.644 0h-1.308v-8.496h1.308v4.908l.744-.072 1.416-2.34h1.464l-1.728 2.808 1.824 3.192h-1.476l-1.464-2.532-.78.084v2.448zm8.901-1.74c.272.472.792.708 1.56.708s1.284-.232 1.548-.696c.272-.464.408-1.24.408-2.328 0-1.096-.14-1.892-.42-2.388-.272-.496-.784-.744-1.536-.744s-1.268.248-1.548.744-.42 1.288-.42 2.376c0 1.08.136 1.856.408 2.328zm4.152.864c-.488.672-1.352 1.008-2.592 1.008s-2.108-.336-2.604-1.008c-.496-.68-.744-1.744-.744-3.192 0-1.448.248-2.524.744-3.228.504-.704 1.372-1.056 2.604-1.056s2.096.352 2.592 1.056c.496.696.744 1.772.744 3.228 0 1.456-.248 2.52-.744 3.192zm2.139 3.456v-8.58h1.296v.372c.552-.336 1.068-.504 1.548-.504.792 0 1.372.244 1.74.732.368.48.552 1.292.552 2.436 0 1.136-.212 1.936-.636 2.4-.416.464-1.1.696-2.052.696a7.04 7.04 0 0 1-1.14-.108v2.556h-1.308zm2.616-7.548c-.376 0-.752.084-1.128.252l-.18.084v3.54c.32.064.672.096 1.056.096.544 0 .92-.156 1.128-.468.208-.312.312-.844.312-1.596 0-1.272-.396-1.908-1.188-1.908zm8.102 3.888.336-.036.024.972c-.912.184-1.72.276-2.424.276-.888 0-1.528-.244-1.92-.732-.384-.488-.576-1.268-.576-2.34 0-2.128.868-3.192 2.604-3.192 1.68 0 2.52.916 2.52 2.748l-.084.936h-3.72c.008.496.116.86.324 1.092.208.232.596.348 1.164.348s1.152-.024 1.752-.072zm-.72-2.376c0-.592-.096-1.004-.288-1.236-.184-.24-.5-.36-.948-.36-.448 0-.776.124-.984.372-.2.248-.304.656-.312 1.224h2.532zm2.541 3.456v-6h1.296v.72c.68-.44 1.36-.724 2.04-.852v1.308c-.688.136-1.276.312-1.764.528l-.264.108v4.188h-1.308zm8.776-4.152v2.736c.008.176.052.308.132.396.088.08.22.132.396.156l-.036.996c-.688 0-1.22-.148-1.596-.444a4.565 4.565 0 0 1-1.932.444c-1.192 0-1.788-.636-1.788-1.908 0-.608.16-1.048.48-1.32.328-.272.828-.436 1.5-.492l1.548-.132v-.432c0-.32-.072-.544-.216-.672-.136-.128-.34-.192-.612-.192-.512 0-1.152.032-1.92.096l-.384.024-.048-.924c.872-.208 1.672-.312 2.4-.312.736 0 1.264.16 1.584.48.328.312.492.812.492 1.5zm-2.688 1.488c-.552.048-.828.348-.828.9s.244.828.732.828c.4 0 .824-.064 1.272-.192l.216-.072v-1.596l-1.392.132zm7.558-2.22h-1.656v2.64c0 .488.036.812.108.972.072.16.256.24.552.24l.984-.036.06 1.044c-.536.104-.944.156-1.224.156-.68 0-1.148-.156-1.404-.468-.248-.312-.372-.9-.372-1.764V178.1h-.768v-1.116h.768v-1.74h1.296v1.74h1.656v1.116zm1.397-.468c.416-.52 1.104-.78 2.064-.78s1.644.26 2.052.78c.416.52.624 1.3.624 2.34 0 1.04-.2 1.824-.6 2.352-.4.528-1.092.792-2.076.792s-1.676-.264-2.076-.792c-.4-.528-.6-1.312-.6-2.352 0-1.04.204-1.82.612-2.34zm.984 3.9c.184.32.544.48 1.08.48s.896-.16 1.08-.48c.184-.32.276-.844.276-1.572 0-.728-.1-1.244-.3-1.548-.192-.304-.544-.456-1.056-.456s-.868.152-1.068.456c-.192.304-.288.82-.288 1.548 0 .728.092 1.252.276 1.572zm5.055 1.452v-6h1.296v.72c.68-.44 1.36-.724 2.04-.852v1.308c-.688.136-1.276.312-1.764.528l-.264.108v4.188h-1.308zm8.5-4.764c-.944-.128-1.628-.192-2.052-.192-.424 0-.72.052-.888.156-.16.096-.24.252-.24.468 0 .216.088.368.264.456.184.088.608.192 1.272.312.672.112 1.148.292 1.428.54.28.248.42.688.42 1.32 0 .632-.204 1.096-.612 1.392-.4.296-.988.444-1.764.444-.488 0-1.104-.068-1.848-.204l-.372-.06.048-1.092c.96.128 1.652.192 2.076.192.424 0 .724-.052.9-.156.184-.104.276-.276.276-.516s-.088-.404-.264-.492c-.168-.096-.58-.196-1.236-.3-.648-.112-1.124-.284-1.428-.516-.304-.232-.456-.656-.456-1.272s.208-1.076.624-1.38c.424-.304.964-.456 1.62-.456.512 0 1.14.064 1.884.192l.372.072-.024 1.092z" fill="#1BA5F8"/>
    <path d="M466.646 31.593 445.679 19.55a5.718 5.718 0 0 0-5.641-.034l-19.79 11.015 23.671 13.53 22.727-12.48v.012z" fill="#F5F8FC"/>
    <path d="M466.646 31.593 445.679 19.55a5.718 5.718 0 0 0-5.641-.034l-19.79 11.015 23.671 13.53 22.727-12.48v.012z" stroke="#B8D9F4" stroke-width=".43" stroke-linecap="round" stroke-linejoin="round"/>
    <path d="m443.93 44.07-.14 26.126 20.093-11.442c1.631-.934 2.645-2.642 2.645-4.51l.117-22.642-22.727 12.48.012-.012z" fill="#B8D9F4"/>
    <path d="m443.93 44.07-23.671-13.53-.116 22.78a5.547 5.547 0 0 0 2.762 4.798l20.885 12.077.14-26.126z" fill="#EEF7FF"/>
    <path d="m443.93 44.07-23.671-13.53-.116 22.78a5.547 5.547 0 0 0 2.762 4.798l20.885 12.077.14-26.126z" stroke="#B8D9F4" stroke-width=".43" stroke-linecap="round" stroke-linejoin="round"/>
    <path d="m429.117 48.195 2.261-1.938c.234-.207.676.07.921.554l2.261 4.671c.175.358.175.727 0 .877l-2.261 1.938c-.233.208-.676-.07-.921-.554l-2.261-4.671c-.174-.358-.174-.727 0-.877z" fill="#B3D6FF"/>
</svg>
