<svg width="231" height="119" viewBox="0 0 231 119" fill="none" xmlns="http://www.w3.org/2000/svg">
<g clip-path="url(#clip0_14975_230468)">
<path d="M139.346 92.6543H114.967L116.773 110.713H137.54L139.346 92.6543Z" fill="url(#paint0_linear_14975_230468)"/>
<path d="M111.356 92.6543H86.9766L88.7824 110.713H109.55L111.356 92.6543Z" fill="url(#paint1_linear_14975_230468)"/>
<path d="M125.352 97.1689H100.973L102.779 115.228H123.546L125.352 97.1689Z" fill="url(#paint2_linear_14975_230468)"/>
<path d="M109.774 102.938C111.633 103.499 114.671 103.499 116.552 102.938L122.152 101.231C124.012 100.67 124.012 99.7268 122.152 99.1655L116.552 97.4591C114.693 96.8978 111.655 96.8978 109.774 97.4591L104.174 99.1655C102.315 99.7268 102.315 100.67 104.174 101.231L109.774 102.938Z" fill="#D1EDFE"/>
<path d="M108.156 103.68L102.556 101.974C100.697 101.412 97.6593 101.412 95.7775 101.974L90.1775 103.68C88.3184 104.241 88.3184 105.185 90.1775 105.746L95.7775 107.452C97.6366 108.014 100.675 108.014 102.556 107.452L108.156 105.746C110.015 105.185 110.015 104.241 108.156 103.68Z" fill="#D1EDFE"/>
<path d="M136.147 103.68L130.547 101.974C128.688 101.412 125.649 101.412 123.768 101.974L118.168 103.68C116.309 104.241 116.309 105.185 118.168 105.746L123.768 107.452C125.627 108.014 128.665 108.014 130.547 107.452L136.147 105.746C138.006 105.185 138.006 104.264 136.147 103.68Z" fill="#D1EDFE"/>
<path d="M116.552 106.488C114.693 105.927 111.655 105.927 109.774 106.488L104.174 108.195C102.315 108.756 102.315 109.699 104.174 110.261L109.774 111.967C111.633 112.528 114.671 112.528 116.552 111.967L122.152 110.261C124.012 109.699 124.012 108.756 122.152 108.195L116.552 106.488Z" fill="#D1EDFE"/>
<rect x="79.8398" y="-8.56836" width="100" height="100" rx="50" transform="rotate(17.2323 79.8398 -8.56836)" fill="url(#paint3_radial_14975_230468)"/>
<path opacity="0.62" d="M98.8321 68.2582L108.824 61.5904C109.868 60.894 111.288 61.3345 111.755 62.4994L116.22 73.6513C116.567 74.5185 116.26 75.5103 115.483 76.0288L105.49 82.6965C104.446 83.393 103.026 82.9525 102.56 81.7876L98.0947 70.6356C97.7475 69.7684 98.0551 68.7766 98.8321 68.2582Z" fill="#FDFEFE"/>
<path d="M116.822 49.9542L126.814 43.2865C127.858 42.59 129.278 43.0305 129.744 44.1954L134.209 55.3474C134.557 56.2145 134.249 57.2064 133.472 57.7248L123.48 64.3925C122.436 65.089 121.016 64.6485 120.549 63.4836L116.084 52.3317C115.737 51.4645 116.045 50.4727 116.822 49.9542Z" fill="#FDFEFE"/>
<path d="M94.3604 42.9874L104.353 36.3197C105.396 35.6232 106.817 36.0637 107.283 37.2286L111.748 48.3806C112.095 49.2477 111.788 50.2395 111.011 50.758L101.018 57.4257C99.9747 58.1222 98.5545 57.6817 98.0881 56.5168L93.6229 45.3648C93.2757 44.4977 93.5834 43.5058 94.3604 42.9874Z" fill="#FDFEFE"/>
<path d="M109.91 32.5448L119.903 25.8771C120.946 25.1806 122.367 25.6211 122.833 26.786L127.298 37.938C127.645 38.8051 127.338 39.797 126.561 40.3154L116.569 46.9831C115.525 47.6796 114.105 47.2391 113.638 46.0742L109.173 34.9222C108.826 34.0551 109.133 33.0633 109.91 32.5448Z" fill="#FDFEFE"/>
<g opacity="0.8">
<path d="M227.799 95.5073H214.041L215.06 105.698H226.78L227.799 95.5073Z" fill="url(#paint4_linear_14975_230468)"/>
<path d="M212.004 95.5073H198.246L199.265 105.698H210.985L212.004 95.5073Z" fill="url(#paint5_linear_14975_230468)"/>
<path d="M219.901 98.0552H206.143L207.162 108.246H218.881L219.901 98.0552Z" fill="url(#paint6_linear_14975_230468)"/>
<path d="M189.109 103.697C190.158 104.013 191.873 104.013 192.935 103.697L196.095 102.733C197.144 102.417 197.144 101.885 196.095 101.568L192.935 100.605C191.886 100.288 190.171 100.288 189.109 100.605L185.949 101.568C184.9 101.885 184.9 102.417 185.949 102.733L189.109 103.697Z" fill="#D1EDFE"/>
<path d="M188.197 104.116L185.036 103.153C183.987 102.836 182.273 102.836 181.211 103.153L178.051 104.116C177.001 104.432 177.001 104.965 178.051 105.281L181.211 106.244C182.26 106.561 183.974 106.561 185.036 106.244L188.197 105.281C189.246 104.965 189.246 104.432 188.197 104.116Z" fill="#D1EDFE"/>
<path d="M203.993 104.116L200.833 103.153C199.784 102.836 198.07 102.836 197.008 103.153L193.847 104.116C192.798 104.432 192.798 104.965 193.847 105.281L197.008 106.244C198.057 106.561 199.771 106.561 200.833 106.244L203.993 105.281C205.043 104.965 205.043 104.445 203.993 104.116Z" fill="#D1EDFE"/>
<path d="M192.935 105.7C191.886 105.384 190.171 105.384 189.109 105.7L185.949 106.663C184.9 106.98 184.9 107.512 185.949 107.829L189.109 108.792C190.158 109.109 191.873 109.109 192.935 108.792L196.095 107.829C197.144 107.512 197.144 106.98 196.095 106.663L192.935 105.7Z" fill="#D1EDFE"/>
<rect x="150.5" y="59.7358" width="60" height="60" rx="30" transform="rotate(-26.7825 150.5 59.7358)" fill="url(#paint7_radial_14975_230468)"/>
<path opacity="0.62" d="M190.724 84.9676L192.256 77.9246C192.416 77.1889 193.212 76.7869 193.899 77.0951L200.475 80.0456C200.986 80.275 201.267 80.8312 201.148 81.3789L199.616 88.4218C199.456 89.1575 198.66 89.5595 197.973 89.2513L191.397 86.3009C190.885 86.0714 190.605 85.5152 190.724 84.9676Z" fill="#FDFEFE"/>
<path d="M190.854 69.5701L192.386 62.5272C192.546 61.7915 193.342 61.3895 194.029 61.6977L200.605 64.6482C201.117 64.8776 201.397 65.4338 201.278 65.9815L199.746 73.0244C199.586 73.7601 198.79 74.1621 198.103 73.8539L191.527 70.9034C191.016 70.674 190.735 70.1178 190.854 69.5701Z" fill="#FDFEFE"/>
<path d="M178.258 75.9283L179.789 68.8853C179.949 68.1496 180.746 67.7476 181.433 68.0558L188.009 71.0063C188.52 71.2357 188.801 71.7919 188.682 72.3396L187.15 79.3825C186.99 80.1182 186.193 80.5202 185.507 80.212L178.931 77.2615C178.419 77.0321 178.138 76.4759 178.258 75.9283Z" fill="#FDFEFE"/>
<path d="M180.614 64.9394L182.146 57.8964C182.306 57.1608 183.102 56.7587 183.789 57.0669L190.365 60.0174C190.876 60.2468 191.157 60.8031 191.038 61.3507L189.506 68.3937C189.346 69.1293 188.55 69.5313 187.863 69.2232L181.287 66.2727C180.775 66.0433 180.495 65.487 180.614 64.9394Z" fill="#FDFEFE"/>
</g>
<g opacity="0.8">
<path d="M25.3385 89.8721H13.5449L14.4185 98.608H24.4649L25.3385 89.8721Z" fill="url(#paint8_linear_14975_230468)"/>
<path d="M11.7975 89.8721H0.00390625L0.877502 98.608H10.9239L11.7975 89.8721Z" fill="url(#paint9_linear_14975_230468)"/>
<path d="M18.5689 92.0557H6.77539L7.64899 100.792H17.6953L18.5689 92.0557Z" fill="url(#paint10_linear_14975_230468)"/>
<path d="M39.0339 104.749C39.9332 105.021 41.4029 105.021 42.3132 104.749L45.0222 103.924C45.9216 103.652 45.9216 103.196 45.0222 102.925L42.3132 102.099C41.4139 101.828 39.9442 101.828 39.0339 102.099L36.3249 102.925C35.4256 103.196 35.4256 103.652 36.3249 103.924L39.0339 104.749Z" fill="#D1EDFE"/>
<path d="M38.2508 105.109L35.5417 104.283C34.6424 104.012 33.1727 104.012 32.2624 104.283L29.5534 105.109C28.6541 105.38 28.6541 105.836 29.5534 106.108L32.2624 106.934C33.1618 107.205 34.6314 107.205 35.5417 106.934L38.2508 106.108C39.1501 105.836 39.1501 105.38 38.2508 105.109Z" fill="#D1EDFE"/>
<path d="M51.7918 105.109L49.0828 104.283C48.1834 104.012 46.7137 104.012 45.8034 104.283L43.0944 105.109C42.1951 105.38 42.1951 105.836 43.0944 106.108L45.8034 106.934C46.7028 107.205 48.1724 107.205 49.0828 106.934L51.7918 106.108C52.6911 105.836 52.6911 105.391 51.7918 105.109Z" fill="#D1EDFE"/>
<path d="M42.3132 106.467C41.4139 106.196 39.9442 106.196 39.0339 106.467L36.3249 107.293C35.4256 107.564 35.4256 108.021 36.3249 108.292L39.0339 109.118C39.9333 109.389 41.4029 109.389 42.3132 109.118L45.0222 108.292C45.9216 108.021 45.9216 107.564 45.0222 107.293L42.3132 106.467Z" fill="#D1EDFE"/>
<rect x="72.5449" y="60.3574" width="51.4327" height="51.4327" rx="25.7164" transform="rotate(104.682 72.5449 60.3574)" fill="url(#paint11_radial_14975_230468)"/>
<path opacity="0.62" d="M33.504 71.8741L37.1586 76.8557C37.5404 77.3761 37.3466 78.1159 36.7587 78.3822L31.1308 80.9317C30.6932 81.13 30.1765 80.9946 29.8923 80.6072L26.2377 75.6256C25.8559 75.1052 26.0498 74.3654 26.6376 74.0991L32.2655 71.5496C32.7031 71.3514 33.2198 71.4867 33.504 71.8741Z" fill="#FDFEFE"/>
<path d="M43.3208 80.6983L46.9755 85.6799C47.3572 86.2003 47.1634 86.9401 46.5755 87.2064L40.9476 89.7559C40.51 89.9541 39.9933 89.8188 39.7092 89.4314L36.0545 84.4498C35.6727 83.9294 35.8666 83.1896 36.4544 82.9233L42.0823 80.3738C42.52 80.1756 43.0366 80.3109 43.3208 80.6983Z" fill="#FDFEFE"/>
<path d="M46.3864 68.9978L50.0411 73.9795C50.4228 74.4998 50.229 75.2396 49.6411 75.5059L44.0132 78.0554C43.5756 78.2537 43.059 78.1183 42.7748 77.731L39.1201 72.7493C38.7384 72.229 38.9322 71.4892 39.5201 71.2229L45.148 68.6733C45.5856 68.4751 46.1022 68.6105 46.3864 68.9978Z" fill="#FDFEFE"/>
<path d="M52.1079 76.7487L55.7626 81.7304C56.1443 82.2507 55.9505 82.9905 55.3626 83.2568L49.7347 85.8064C49.2971 86.0046 48.7804 85.8692 48.4963 85.4819L44.8416 80.5002C44.4598 79.9799 44.6537 79.2401 45.2415 78.9738L50.8694 76.4243C51.307 76.226 51.8237 76.3614 52.1079 76.7487Z" fill="#FDFEFE"/>
</g>
</g>
<defs>
<linearGradient id="paint0_linear_14975_230468" x1="127.156" y1="110.713" x2="127.156" y2="92.6543" gradientUnits="userSpaceOnUse">
<stop stop-color="#FDFEFE" stop-opacity="0.32"/>
<stop offset="1" stop-color="#FDFEFE" stop-opacity="0"/>
</linearGradient>
<linearGradient id="paint1_linear_14975_230468" x1="99.1662" y1="110.713" x2="99.1662" y2="92.6543" gradientUnits="userSpaceOnUse">
<stop stop-color="#FDFEFE" stop-opacity="0.32"/>
<stop offset="1" stop-color="#FDFEFE" stop-opacity="0"/>
</linearGradient>
<linearGradient id="paint2_linear_14975_230468" x1="113.162" y1="115.228" x2="113.162" y2="97.1689" gradientUnits="userSpaceOnUse">
<stop stop-color="#FDFEFE" stop-opacity="0.32"/>
<stop offset="1" stop-color="#FDFEFE" stop-opacity="0"/>
</linearGradient>
<radialGradient id="paint3_radial_14975_230468" cx="0" cy="0" r="1" gradientUnits="userSpaceOnUse" gradientTransform="translate(129.84 41.4316) rotate(90) scale(50)">
<stop stop-color="#76C8FB"/>
<stop offset="1" stop-color="#1BA5F8"/>
</radialGradient>
<linearGradient id="paint4_linear_14975_230468" x1="220.92" y1="105.698" x2="220.92" y2="95.5073" gradientUnits="userSpaceOnUse">
<stop stop-color="#FDFEFE" stop-opacity="0.32"/>
<stop offset="1" stop-color="#FDFEFE" stop-opacity="0"/>
</linearGradient>
<linearGradient id="paint5_linear_14975_230468" x1="205.125" y1="105.698" x2="205.125" y2="95.5073" gradientUnits="userSpaceOnUse">
<stop stop-color="#FDFEFE" stop-opacity="0.32"/>
<stop offset="1" stop-color="#FDFEFE" stop-opacity="0"/>
</linearGradient>
<linearGradient id="paint6_linear_14975_230468" x1="213.022" y1="108.246" x2="213.022" y2="98.0552" gradientUnits="userSpaceOnUse">
<stop stop-color="#FDFEFE" stop-opacity="0.32"/>
<stop offset="1" stop-color="#FDFEFE" stop-opacity="0"/>
</linearGradient>
<radialGradient id="paint7_radial_14975_230468" cx="0" cy="0" r="1" gradientUnits="userSpaceOnUse" gradientTransform="translate(180.5 89.7358) rotate(90) scale(30)">
<stop stop-color="#49B6F9"/>
<stop offset="1" stop-color="#1BA5F8"/>
</radialGradient>
<linearGradient id="paint8_linear_14975_230468" x1="19.4417" y1="98.608" x2="19.4417" y2="89.8721" gradientUnits="userSpaceOnUse">
<stop stop-color="#FDFEFE" stop-opacity="0.32"/>
<stop offset="1" stop-color="#FDFEFE" stop-opacity="0"/>
</linearGradient>
<linearGradient id="paint9_linear_14975_230468" x1="5.90068" y1="98.608" x2="5.90068" y2="89.8721" gradientUnits="userSpaceOnUse">
<stop stop-color="#FDFEFE" stop-opacity="0.32"/>
<stop offset="1" stop-color="#FDFEFE" stop-opacity="0"/>
</linearGradient>
<linearGradient id="paint10_linear_14975_230468" x1="12.6722" y1="100.792" x2="12.6722" y2="92.0557" gradientUnits="userSpaceOnUse">
<stop stop-color="#FDFEFE" stop-opacity="0.32"/>
<stop offset="1" stop-color="#FDFEFE" stop-opacity="0"/>
</linearGradient>
<radialGradient id="paint11_radial_14975_230468" cx="0" cy="0" r="1" gradientUnits="userSpaceOnUse" gradientTransform="translate(98.2613 86.0738) rotate(90) scale(25.7164)">
<stop stop-color="#49B6F9"/>
<stop offset="1" stop-color="#1BA5F8"/>
</radialGradient>
<clipPath id="clip0_14975_230468">
<rect width="231" height="119" fill="white"/>
</clipPath>
</defs>
</svg>
