<svg xmlns="http://www.w3.org/2000/svg" xmlns:xlink="http://www.w3.org/1999/xlink" id="eP0asckvhy81" viewBox="0 0 148 240" shape-rendering="geometricPrecision" text-rendering="geometricPrecision" project-id="3d1e3a6620cd469eb2a778a86012a1ac" export-id="b6e075de6b3e4feabd6b6dca1d923a91" cached="false" style="background-color:transparent">
<style><![CDATA[
#eP0asckvhy82_to {animation: eP0asckvhy82_to__to 8000ms linear infinite normal forwards}@keyframes eP0asckvhy82_to__to { 0% {transform: translate(73.982498px,104.691498px)} 50% {transform: translate(73.982498px,108.691498px)} 100% {transform: translate(73.982498px,104.691498px)}} #eP0asckvhy862_to {animation: eP0asckvhy862_to__to 8000ms linear infinite normal forwards}@keyframes eP0asckvhy862_to__to { 0% {transform: translate(169.485001px,81.096001px)} 45% {transform: translate(169.485001px,81.096001px)} 70% {transform: translate(-10.514999px,81.096001px)} 100% {transform: translate(-10.514999px,81.096001px)}} #eP0asckvhy868_to {animation: eP0asckvhy868_to__to 8000ms linear infinite normal forwards}@keyframes eP0asckvhy868_to__to { 0% {transform: translate(169.485001px,81.096001px)} 32.5% {transform: translate(169.485001px,81.096001px)} 57.5% {transform: translate(-10.514999px,81.096001px)} 100% {transform: translate(-10.514999px,81.096001px)}} #eP0asckvhy874_to {animation: eP0asckvhy874_to__to 8000ms linear infinite normal forwards}@keyframes eP0asckvhy874_to__to { 0% {transform: translate(169.485001px,81.096001px)} 25% {transform: translate(-10.514999px,81.096001px)} 70% {transform: translate(169.485001px,81.096001px)} 95% {transform: translate(-10.514999px,81.096001px)} 100% {transform: translate(-10.514999px,81.096001px)}} #eP0asckvhy874 {animation: eP0asckvhy874_c_o 8000ms linear infinite normal forwards}@keyframes eP0asckvhy874_c_o { 0% {opacity: 1} 23.75% {opacity: 1} 25% {opacity: 0} 68.75% {opacity: 0} 70% {opacity: 1} 100% {opacity: 1}} #eP0asckvhy882_ts {animation: eP0asckvhy882_ts__ts 8000ms linear infinite normal forwards}@keyframes eP0asckvhy882_ts__ts { 0% {transform: translate(75.21055px,240px) scale(0.9,0.9)} 50% {transform: translate(75.21055px,240px) scale(1,1)} 100% {transform: translate(75.21055px,240px) scale(0.9,0.9)}} #eP0asckvhy889_tr {animation: eP0asckvhy889_tr__tr 8000ms linear infinite normal forwards}@keyframes eP0asckvhy889_tr__tr { 0% {transform: translate(135.33781px,207.03926px) rotate(720deg);animation-timing-function: cubic-bezier(0.415,0.08,0.115,0.955)} 96.25% {transform: translate(135.33781px,207.03926px) rotate(0deg)} 100% {transform: translate(135.33781px,207.03926px) rotate(0deg)}} #eP0asckvhy890_tr {animation: eP0asckvhy890_tr__tr 8000ms linear infinite normal forwards}@keyframes eP0asckvhy890_tr__tr { 0% {transform: translate(11.12px,29.9px) rotate(-720deg);animation-timing-function: cubic-bezier(0.415,0.08,0.115,0.955)} 96.25% {transform: translate(11.12px,29.9px) rotate(0deg)} 100% {transform: translate(11.12px,29.9px) rotate(0deg)}}
]]></style>
<defs><linearGradient id="eP0asckvhy883-fill" x1="0.5" y1="0" x2="0.5" y2="1" spreadMethod="pad" gradientUnits="objectBoundingBox" gradientTransform="translate(0 0)"><stop id="eP0asckvhy883-fill-0" offset="0%" stop-color="rgba(255,255,255,0)"/><stop id="eP0asckvhy883-fill-1" offset="100%" stop-color="#010022"/></linearGradient></defs><g id="eP0asckvhy82_to" transform="translate(73.982498,104.691498)"><g transform="translate(-73.982498,-104.691498)"><path d="M10.6309,67.3916c-5.12731,0-9.32426,4.197-9.32426,9.3242v7.7981c0,5.1273,4.19695,9.3243,9.32426,9.3243" fill="#2e73e9"/><path d="M10.6309,95.1448C4.76665,95.1448,0,90.3782,0,84.5139v-7.798C0,70.8516,4.76665,66.085,10.6309,66.085v2.6133c-4.42171,0-8.0176,3.5959-8.0176,8.0176v7.798c0,4.4217,3.59589,8.0176,8.0176,8.0176v2.6133Z" fill="#040f58"/><path d="M1.90767,82.6587c1.77705,1.0871,3.97222,1.4687,6.01059,1.0453-.09408,3.2666.85716,6.5646,2.53494,9.3713-2.04364.6533-4.48447.047-5.97405-1.4948-1.04009-1.0767-1.62547-2.5192-1.90771-3.9879-.277-1.4687-.67422-3.4391-.66377-4.9339Z" opacity="0.3" fill="#040f58"/><path d="M111.337,178.89c-2.268-3.094-3.748-6.679-4.965-10.296-.795-2.362-1.589-4.568-2.117-7.019-.58-2.687-1.056-5.394-1.437-8.117-.753-5.389-1.108-10.83-1.072-16.271.042-5.273.45-10.578-.308-15.794.162.073.319.151.481.224c7.975,3.816,14.796,9.978,19.479,17.473c4.876,7.798,8.117,16.85,9.941,25.866.826,4.077,1.453,8.316.544,12.372-.847,3.784-3.816,8.906-8.201,8.838-4.96-.079-9.512-3.424-12.345-7.281v.005Z" fill="#fff"/><path d="M123.771,187.483c-.037,0-.073,0-.115,0-4.845-.078-9.842-3-13.375-7.819-3.345-4.562-5.054-10.176-6.559-15.131l2.498-.763c1.516,4.986,3.084,10.14,6.167,14.347c2.358,3.215,6.565,6.675,11.311,6.748.021,0,.042,0,.062,0c3.513,0,6.116-4.558,6.842-7.819.805-3.596.361-7.328-.549-11.828-1.934-9.544-10.657-35.541-27.612-41.149l.821-2.483c18.131,6.001,27.335,33.153,29.352,43.109.847,4.176,1.495,8.635.539,12.921-.889,3.982-4.119,9.857-9.382,9.862v.005Z" fill="#040f58"/><path d="M112.126,178.127l-2.221-1.374c2.211-3.58,5.77-6.382,9.774-7.688c3.998-1.307,8.524-1.145,12.423.439l-.982,2.419c-3.335-1.353-7.208-1.489-10.631-.371-3.424,1.119-6.471,3.513-8.358,6.575h-.005Z" fill="#040f58"/><path d="M37.5216,178.891c1.1185-1.521,2.0489-3.173,2.8485-4.882c1.0558-2.263,1.8816-4.631,2.6394-7.009.737-2.31,1.1081-4.719,1.7092-7.087c1.3536-5.31,2.5505-10.693,2.9582-16.171.5227-7.04-.3136-14.336-3.575-20.598-6.5646,3.936-12.2511,9.314-16.5788,15.628-2.8014,4.092-4.5471,8.582-6.2457,13.233-1.5419,4.223-2.8642,8.551-3.7579,12.957-.8259,4.077-1.453,8.316-.5436,12.371.8467,3.784,3.8154,8.906,8.2005,8.839c4.96-.079,9.5124-3.424,12.3452-7.281Z" fill="#fff"/><path d="M25.0823,187.483c-5.2684,0-8.4932-5.879-9.3869-9.862-.9565-4.286-.3084-8.739.5383-12.92c2.0175-9.957,11.2163-37.109,29.3526-43.109l.8205,2.482c-16.955,5.609-25.6782,31.606-27.6121,41.149-.9094,4.501-1.3537,8.232-.5488,11.828.7318,3.277,3.3712,7.861,6.9044,7.814c4.7457-.078,8.9531-3.538,11.3103-6.748c3.0837-4.202,4.6517-9.36,6.1674-14.347l2.4983.763c-1.5052,4.955-3.2143,10.569-6.5594,15.131-3.5331,4.819-8.535,7.741-13.3748,7.819-.0366,0-.0784,0-.115,0h.0052Z" fill="#040f58"/><path d="M36.7325,178.128c-1.892-3.063-4.9391-5.457-8.3573-6.575-3.4234-1.119-7.2963-.983-10.6309.371l-.9826-2.42c3.8991-1.584,8.4253-1.741,12.4236-.439c3.9984,1.306,7.5577,4.108,9.7738,7.688l-2.2213,1.375h-.0053Z" fill="#040f58"/><path d="M115.816,147.766c0,27.806-25.7146,61.606-41.6139,60.263s-41.6142-32.457-41.6142-60.263c0-27.805,18.6328-28.307,41.6142-28.307c22.9813,0,41.6139.502,41.6139,28.307Z" fill="#fff"/><path d="M117.18,147.129h-2.231c-.147-5.149-.821-10.307-1.913-15.346.109,6.147-.523,12.288-1.83,18.288-5.723,2.582-18.8155,4.709-36.9779,4.709-24.8263,0-40.1977-3.972-40.1977-7.651h-2.7596c0,3.637,4.615,6.292,14.1118,8.127c7.6256,1.474,17.8697,2.284,28.8455,2.284c5.2057,0,25.4588-.267,36.1889-4.192-2.995,11.436-8.457,22.234-15.9672,31.354-3.3868-7.824-11.1849-13.317-20.2373-13.317-9.5281,0-17.6659,6.079-20.734,14.561-6.9879-6.888-12.9044-14.864-17.4097-23.582c2.2213,11.755,7.9287,23.049,16.124,31.882.0209.539.0523,1.077.1098,1.61l1.2805-.141c2.9269,2.953,6.1412,5.603,9.6117,7.85c3.2666,2.117,6.8886,3.972,10.7772,4.087c4.7667.147,9.2145-2.331,13.0822-5.122c2.4617-1.777,4.7928-3.731,6.9932-5.822l1.9234.314c.1306-.811.2038-1.631.2456-2.457c6.4706-6.7,11.6026-14.692,14.9326-23.394c2.472-6.46,3.643-13.281,3.815-20.175c1.411-1.097,2.227-2.378,2.227-3.873l-.011.006ZM88.0054,191.638c-2.791,2.661-5.9165,5.19-9.6535,6.147-3.5593.909-7.3904.282-10.7615-1.176-3.3764-1.453-6.3504-3.69-9.1518-6.074-.9356-.794-1.845-1.625-2.7492-2.456c2.3258-8.039,9.7372-13.934,18.5126-13.934c8.7755,0,15.5648,5.425,18.1938,12.951-1.4008,1.573-2.8694,3.089-4.3956,4.542h.0052Z" opacity="0.3" fill="#040f58"/><path d="M74.2227,155.622c-10.9706,0-21.2095-.81-28.8299-2.279-9.4549-1.824-14.049-4.458-14.049-8.054h2.6132c0,3.716,15.3976,7.725,40.2709,7.725s40.2711-4.009,40.2711-7.725h2.613c0,10.046-38.4937,10.338-42.8841,10.338l-.0052-.005Z" fill="#040f58"/><path d="M75.1532,209.377c-.3554,0-.7108-.015-1.0558-.041-8.1796-.69-18.7948-8.635-27.7114-20.734-9.596-13.025-15.0996-27.905-15.0996-40.83c0-29.614,20.8489-29.614,42.9208-29.614s42.9208,0,42.9208,29.614c0,19.798-12.476,41.624-24.795,52.95-6.1831,5.687-12.0943,8.661-17.1746,8.661l-.0052-.006Zm-.946-88.606c-24.9884,0-40.3075,1.307-40.3075,27.001c0,12.376,5.3154,26.697,14.5926,39.277c8.3521,11.337,18.4917,19.062,25.8246,19.679c4.5001.381,10.2651-2.441,16.2443-7.934c11.9008-10.94,23.9478-31.982,23.9478-51.028c0-25.694-15.3135-27-40.307-27l.0052.005Z" fill="#040f58"/><path d="M96.7704,195.694l-2.5767-.424c.1777-1.087.2665-2.2.2665-3.308c0-11.169-9.0838-20.253-20.253-20.253s-20.2531,9.084-20.2531,20.253c0,.747.0418,1.495.1202,2.232l-2.5976.287c-.0888-.831-.1359-1.677-.1359-2.519c0-12.606,10.2598-22.866,22.8664-22.866c12.6065,0,22.8663,10.26,22.8663,22.866c0,1.249-.1045,2.504-.3031,3.732Z" fill="#040f58"/><path d="M60.7593,39.9781c0-5.1273,4.1969-9.3243,9.3242-9.3243h7.7981c5.1273,0,9.3242,4.197,9.3242,9.3243" fill="#fff"/><path d="M137.334,67.3916c5.127,0,9.324,4.197,9.324,9.3242v7.7981c0,5.1273-4.197,9.3243-9.324,9.3243" fill="#2e73e9"/><path d="M129.594,61.7729c6.193.9722,11.022,9.0368,11.022,18.8419s-4.819,17.8436-10.996,18.8367" fill="#1ba5f8"/><path d="M18.3715,61.7729c-6.1935.9722-11.02287,9.0368-11.02287,18.8419c0,9.7894,4.81887,17.8436,10.99677,18.8367" fill="#1ba5f8"/><path d="M97.8889,39.3198h-47.8181c-18.6934,0-33.8474,15.154-33.8474,33.8475v14.8905c0,18.6932,15.154,33.8472,33.8474,33.8472h47.8181c18.6931,0,33.8471-15.154,33.8471-33.8472v-14.8905c0-18.6935-15.154-33.8475-33.8471-33.8475Z" fill="#fff"/><path d="M98.213,106.633c5.504,0,10.542-3.204,12.748-8.2476c3.188-7.2911,5.618-14.9115,7.333-22.8403c2.106-9.7685-5.426-18.9777-15.419-18.9777h-57.7798c-9.9933,0-17.53,9.2092-15.4185,18.9777c1.7091,7.9288,4.1447,15.5492,7.3329,22.8403c2.2056,5.0386,7.2441,8.2476,12.7477,8.2476h48.461-.0053Z" fill="#441013"/><path d="M118.764,76.026c-1.73,8.0176-4.187,15.7216-7.417,23.0911-2.221,5.0959-7.322,8.3469-12.8832,8.3469h-48.9941c-5.5611,0-10.6623-3.246-12.894-8.3469c2.1795-4.8084,6.8573-8.2632,11.88-10.0194c5.4618-1.9077,11.3522-2.101,17.138-2.1951c5.7859-.1045,11.6553-.1464,17.2112-1.7771c6.3556-1.8711,12.0107-5.7963,16.422-10.7458c4.2491-4.7928,7.3691-10.5107,9.5651-16.5213c7.108,2.6708,11.686,10.2337,9.972,18.1676Z" fill="#ec1c26" fill-opacity="0.2"/><path d="M97.8889,123.212h-47.8181c-19.3854,0-35.1541-15.769-35.1541-35.1542v-14.8905c0-19.3855,15.7687-35.1541,35.1541-35.1541h47.8181c19.3851,0,35.1541,15.7686,35.1541,35.1541v14.8905c0,19.3852-15.769,35.1542-35.1541,35.1542ZM50.0761,40.6265c-17.9429,0-32.5408,14.5979-32.5408,32.5408v14.8905c0,17.9432,14.5979,32.5412,32.5408,32.5412h47.8181c17.9428,0,32.5408-14.598,32.5408-32.5412v-14.8905c0-17.9429-14.598-32.5408-32.5408-32.5408h-47.8181Z" fill="#040f58"/><path d="M129.829,100.738l-.413-2.5824c5.55-.8885,9.899-8.5925,9.899-17.5457s-4.359-16.6781-9.92-17.5509l.402-2.5819c6.915,1.0819,12.131,9.7371,12.131,20.1328s-5.2,19.0196-12.099,20.1281Z" fill="#040f58"/><path d="M137.334,95.1448v-2.6133c4.422,0,8.018-3.5959,8.018-8.0176v-7.798c0-4.4217-3.596-8.0176-8.018-8.0176v-2.6133c5.864,0,10.631,4.7666,10.631,10.6309v7.798c0,5.8643-4.767,10.6309-10.631,10.6309Z" fill="#040f58"/><path d="M59.4524,39.9781c0-5.8643,4.7666-10.6309,10.6309-10.6309h7.7981c5.8642,0,10.6308,4.7666,10.6308,10.6309h-2.6133c0-4.4217-3.5958-8.0176-8.0175-8.0176h-7.7981c-4.4217,0-8.0176,3.5959-8.0176,8.0176h-2.6133Z" fill="#040f58"/><path d="M98.9813,57.6754c-15.1205.9564-31.1139,1.5941-46.2711,2.0017l-5.7858.1569c-1.9025.0209-3.6116.1149-5.3729.7421-5.1064,1.6987-8.9323,6.596-9.3086,11.9741-.1881,1.8712.162,3.6378.4913,5.5141.554,3.345,1.1603,8.1326,1.9757,11.394l-.899.3031c-1.2544-3.7579-1.9757-7.5838-2.7544-11.3521-3.2301-10.8661,4.4844-21.0266,15.8522-20.5928c2.4147-.0627,48.4558-1.0088,52.0621-1.0924l.0209.9513h-.0104Z" fill="#ec1c26" fill-opacity="0.32"/><path d="M18.1362,100.738C11.2371,99.6347,6.03662,90.9795,6.03662,80.6099s5.21618-19.0457,12.13088-20.1328L18.57,63.059c-5.5611.8728-9.92008,8.5821-9.92008,17.5509s4.34848,16.6572,9.89918,17.5457l-.4129,2.5824Z" fill="#040f58"/><path d="M98.2128,107.94h-48.461c-6.0733,0-11.5455-3.544-13.9445-9.0267-3.183-7.2807-5.6761-15.0474-7.4114-23.0911-1.0819-5.0123.1516-10.1867,3.3869-14.1955c3.2666-4.0454,8.1169-6.366,13.3069-6.366h57.7803c5.195,0,10.045,2.3206,13.307,6.366c3.235,4.0088,4.468,9.1832,3.386,14.1955-1.735,8.0437-4.228,15.8156-7.411,23.0911-2.399,5.4827-7.871,9.0267-13.9444,9.0267h.0052ZM45.0949,57.874c-4.4008,0-8.5089,1.9652-11.2737,5.3939-2.7388,3.392-3.7841,7.7667-2.8694,12.0002c1.6986,7.8713,4.1394,15.476,7.2545,22.5946c1.9808,4.5313,6.5175,7.4633,11.5507,7.4633h48.461c5.033,0,9.57-2.927,11.551-7.4633c3.115-7.1186,5.55-14.7181,7.254-22.5946.915-4.2387-.13-8.6134-2.869-12.0002-2.765-3.4287-6.878-5.3939-11.274-5.3939h-57.7799-.0052Z" fill="#040f58"/><path d="M73.9824,31.9606c-.324,0-.6533-.1202-.9094-.3659l-7.7249-7.4479c-.345-.3345-.4809-.831-.3502-1.2962s.5018-.8153.9721-.9198l7.5577-1.683c-4.0088-1.0349-8.4984-2.1743-9.272-2.3102-.4913-.0836-.9199-.371-1.2125-.8049-1.014-1.5052-.3346-5.5506.1567-7.82938.1516-.70559.8468-1.14985,1.5523-.99828.7056.15157,1.1551.84671.9983,1.5523-.4913,2.26316-.7369,4.69346-.5906,5.60286c2.6499.5854,13.009,3.2928,14.2634,3.6221.5854.1515.9878.6847.9774,1.2857-.0105.6011-.4338,1.1185-1.0244,1.2492L68.9074,23.9535l5.974,5.7597c.5174.5017.5331,1.3275.0313,1.8449-.2561.2666-.5958.4025-.9407.4025h.0104Z" fill="#040f58"/><path d="M8.46184,80.8451c2.40946,1.4268,5.49836,1.6568,8.09076.5906-1.1864,5.5088-.6063,11.3887,1.5941,16.5735-1.8972.2875-3.9095-.5436-5.3207-1.845s-2.3415-3.0366-3.06798-4.8137c-1.34323-3.3032-1.31709-6.9461-1.30141-10.5107l.00523.0053Z" opacity="0.3" fill="#040f58"/><path d="M146.052,82.6587c-1.777,1.0871-3.972,1.4687-6.01,1.0453.094,3.2666-.858,6.5646-2.535,9.3713c2.043.6533,4.484.047,5.974-1.4948c1.04-1.0767,1.625-2.5192,1.907-3.9879.277-1.4687.675-3.4391.664-4.9339Z" opacity="0.3" fill="#040f58"/><path d="M139.503,80.8451c-2.409,1.4268-5.498,1.6568-8.091.5906c1.187,5.5088.607,11.3887-1.594,16.5735c1.897.2875,3.91-.5436,5.321-1.845s2.341-3.0366,3.068-4.8137c1.343-3.3032,1.317-6.9461,1.301-10.5107l-.005.0053Z" opacity="0.3" fill="#040f58"/><path d="M62.735,35.7815c4.3694.4599,8.7806.5227,13.1605.1829c1.4007-.1097,2.8224-.2613,4.129-.7892s2.4983-1.4739,3.0314-2.7753c2.1691,1.4007,3.6639,3.737,3.8573,6.3085-.0889,0-.1464.0888-.2352.0888h-25.5738c.2718-1.3902.3921-2.3153,1.6255-3.0157h.0053Z" opacity="0.3" fill="#040f58"/><path d="M63.8219,12.1048c2.9818,0,5.3991-2.41725,5.3991-5.39908s-2.4173-5.39908-5.3991-5.39908-5.399,2.41726-5.399,5.39908s2.4172,5.39908,5.399,5.39908Z" fill="#1ba5f8"/><path d="M63.8219,13.4114c-3.6952,0-6.7057-3.0052-6.7057-6.70567s3.0053-6.70573,6.7057-6.70573c3.7005,0,6.7058,3.0053,6.7058,6.70573s-3.0053,6.70567-6.7058,6.70567Zm0-10.7981c-2.2579,0-4.0924,1.83454-4.0924,4.09243s1.8345,4.09237,4.0924,4.09237s4.0925-1.83448,4.0925-4.09237-1.8346-4.09243-4.0925-4.09243Z" fill="#040f58"/><path d="M59.7975,8.38329c1.7352.36586,3.6429-.20907,4.8869-1.46867c1.2439-1.25961,1.7927-3.17778,1.4007-4.90778c1.4007,1.15507,2.5036,2.75964,2.744,4.56282.2404,1.79795-.4809,3.76834-2.007,4.75624-.9147.5958-2.0332.8048-3.1255.8048-1.1185,0-2.2736-.2247-3.1778-.8832s-.9565-1.76662-.7265-2.85898l.0052-.00523Z" opacity="0.3" fill="#040f58"/><path d="M121.89,48.7954c5.216,11.9637,6.23,25.7149,2.827,38.3162-1.934,7.15-5.504,15.5284-12.298,19.2234-9.324,5.07-18.9726,4.688-29.1906,4.547-11.7598-.162-23.5928.664-35.2847-.052-5.4148-.335-10.2964-.256-15.5492-2.039-4.9809-1.693-9.6378-4.359-13.563-7.871c5.8068,11.828,18.2304,19.945,31.391,20.614h38.7447c11.0338,0,21.6168-.659,30.5758-8.107c5.644-4.693,9.711-11.263,11.389-18.4128c1.385-5.9008,1.17-12.0473.883-18.105-.235-5.0018-.528-10.0507-1.892-14.8696s-3.654-10.0142-7.652-13.0299l-.376-.2038-.005-.0105Z" opacity="0.3" fill="#040f58"/><path d="M40.6158,125.731c0,5.603,67.0942,5.603,67.0942,0l-7.563-3.842h-51.8533l-7.6831,3.842h.0052Z" opacity="0.3" fill="#040f58"/><path d="M92.1291,153.495c-.0104.475-.1411.836-.4129,1.155-2.0958,2.582-4.176,5.179-6.2823,7.746-.7579.925-1.9391.914-2.6969-.011-.8886-1.092-1.7719-2.185-2.6604-3.277-1.1969-1.463-2.3885-2.927-3.5698-4.396-.1306-.151-.2299-.318-.3083-.486-.2718-.59-.1777-1.207.2979-1.798.5383-.679,1.0924-1.348,1.6307-2.027c1.2596-1.542,2.5035-3.095,3.7788-4.636.2822-.345.5645-.696.8467-1.041.6534-.81,1.6046-.888,2.3781-.271.1412.089.2718.219.3868.36c1.453,1.788,2.8903,3.56,4.3433,5.347v.011c.1777.219.3606.449.5383.669.4391.538.8729,1.076,1.3119,1.62.2718.308.4129.679.4234,1.04l-.0053-.005Z" fill="#1ca4f7"/><path d="M82.2249,172.712c.0366.487-.1777.873-.46,1.234-2.0017,2.467-4.0192,4.944-6.0262,7.411-.7683.952-1.7353,1.155-2.5297.554-.4495-.345-.7474-.82-1.0924-1.259-.5801-.706-1.1707-1.427-1.7195-2.133-1.2596-1.515-2.4931-3.047-3.7109-4.573-.1411-.178-.2718-.361-.3449-.528-.3189-.627-.2039-1.197.3449-1.887c2.0018-2.503,4.035-5.012,6.0629-7.5.784-.962,1.7195-1.066,2.5558-.371.1411.115.2822.272.4233.439c1.4112,1.761,2.8381,3.518,4.2649,5.279.5906.721,1.1708,1.427,1.7457,2.143.2979.345.5279.721.4861,1.197v-.006Z" fill="#72c6fa"/><path d="M81.7753,142.482c-2.0436,2.519-4.0976,5.049-6.1412,7.568-.8467,1.04-2.0175,1.03-2.8642-.01-.784-.962-1.568-1.929-2.3363-2.891-.5906-.721-1.1812-1.453-1.7613-2.169-.6795-.836-1.3642-1.672-2.0436-2.519-.1307-.167-.23-.319-.3084-.486-.2822-.591-.1934-1.197.2822-1.787c2.0698-2.572,4.1499-5.128,6.2301-7.684.345-.439.7945-.721,1.3119-.695.4756,0,.8467.131,1.1446.387.1046.078.1777.152.2561.256c1.4896,1.824,2.9792,3.664,4.4583,5.499.5906.721,1.1812,1.453,1.7718,2.184.6429.784.6429,1.568,0,2.352v-.005Z" fill="#1ca4f7"/><path d="M71.8344,154.807c-2.0018,2.493-4.0192,4.986-6.0524,7.463-.8885,1.093-2.0174,1.093-2.9164-.01-.6429-.784-1.2858-1.579-1.9286-2.363-1.3851-1.709-2.7754-3.418-4.1604-5.127-.0627-.089-.1307-.178-.1934-.272-.1777-.282-.2979-.59-.2718-.961-.0261-.45.1777-.821.46-1.171c2.0174-2.493,4.0349-4.971,6.0524-7.464.7474-.914,1.5941-1.103,2.3885-.564.2039.141.4129.334.6168.58c1.4111,1.746,2.8275,3.481,4.2387,5.226.5906.722,1.1812,1.454,1.7614,2.17.7213.888.7213,1.604,0,2.493h.0052Z" fill="#1ca4f7"/><path d="M71.8345,154.806c-2.0018,2.493-4.0193,4.986-6.0524,7.464-.8886,1.092-2.0175,1.092-2.9165-.011-.6428-.784-1.2857-1.578-1.9286-2.362c2.467-.282,4.8033-1.479,6.4862-3.314c1.5941-1.761,2.5454-4.071,2.6447-6.434.5906.722,1.1812,1.453,1.7613,2.169.7213.889.7213,1.605,0,2.494l.0053-.006Z" opacity="0.3" fill="#030073"/><path d="M81.7753,142.482c-2.0436,2.519-4.0976,5.049-6.1412,7.568-.8467,1.04-2.0175,1.03-2.8642-.01-.784-.962-1.568-1.929-2.3363-2.891c2.6342-.167,5.19-1.385,6.9618-3.355c1.453-1.594,2.3781-3.685,2.6081-5.843.5906.721,1.1812,1.453,1.7718,2.184.6429.784.6429,1.568,0,2.352v-.005Z" opacity="0.3" fill="#030073"/><path d="M92.1292,153.495c-.0105.475-.1411.836-.4129,1.155-2.0959,2.582-4.1761,5.179-6.2824,7.745-.7579.926-1.939.915-2.6969-.01-.8885-1.092-1.7718-2.185-2.6603-3.277c2.7126-.115,5.3677-1.364,7.1917-3.376c1.4008-1.542,2.3102-3.508,2.582-5.562.1777.22.3606.45.5383.669.4391.539.8729,1.077,1.3119,1.621.2718.308.4129.679.4234,1.04l.0052-.005Z" opacity="0.3" fill="#030073"/><path d="M82.2248,172.713c.0365.486-.1777.873-.46,1.233-2.0018,2.467-4.0193,4.945-6.0263,7.411-.7683.952-1.7352,1.156-2.5296.555-.4495-.345-.7474-.821-1.0924-1.26-.5801-.706-1.1707-1.427-1.7195-2.133c2.6446-.151,5.2161-1.385,7.0036-3.355c1.4373-1.578,2.352-3.648,2.5976-5.796.5906.721,1.1708,1.427,1.7457,2.143.2979.345.5279.721.4861,1.196l-.0052.006Z" opacity="0.3" fill="#030073"/><path d="M63.0484,151.08c-1.5941,1.939-3.9722,3.162-6.4601,3.418-.1777-.282-.2979-.59-.2717-.961-.0262-.45.1776-.821.4599-1.171c2.0174-2.493,4.0349-4.971,6.0524-7.464.7474-.914,1.5941-1.103,2.3885-.564.1516,2.414-.6167,4.881-2.169,6.742Z" opacity="0.45" fill="#fff"/><path d="M75.2891,132.196c.0523,2.29-.7212,4.584-2.1847,6.345-1.6725,2.002-4.1865,3.251-6.7841,3.429-.2822-.59-.1934-1.197.2822-1.787c2.0698-2.572,4.1499-5.128,6.2301-7.683.345-.44.7945-.722,1.3119-.696.4756,0,.8467.131,1.1446.387v.005Z" opacity="0.45" fill="#fff"/><path d="M85.1306,144.447c.0523,2.29-.7212,4.584-2.1847,6.345-1.6568,1.992-4.1499,3.236-6.7423,3.429-.2718-.591-.1777-1.207.2979-1.798.5384-.679,1.0924-1.348,1.6307-2.028c1.2596-1.542,2.5035-3.094,3.7788-4.636.2823-.345.5645-.695.8467-1.04.6534-.81,1.6046-.888,2.3782-.272h-.0053Z" opacity="0.45" fill="#fff"/><path d="M75.3049,163.655c.0261,2.273-.7318,4.563-2.1952,6.319-1.6725,2.017-4.176,3.261-6.7684,3.444-.3189-.627-.2039-1.197.3449-1.887c2.0018-2.503,4.035-5.012,6.0629-7.5.784-.962,1.7195-1.066,2.5558-.371v-.005Z" opacity="0.45" fill="#fff"/><path d="M84.1692,164.152c-.899,0-1.7666-.434-2.3833-1.192-2.0959-2.571-4.1917-5.148-6.2771-7.73-.9983-1.233-1.0036-2.707-.0157-3.936c2.4251-3.01,4.4321-5.477,6.3032-7.766.6168-.753,1.4478-1.171,2.3415-1.171.9304,0,1.8032.449,2.4618,1.26c1.1342,1.395,2.2683,2.791,3.3973,4.191l2.838,3.502c.439.538.6847,1.166.7108,1.819v.068c-.0052.753-.2404,1.416-.6951,1.981l-1.5157,1.871c-1.6046,1.981-3.2039,3.962-4.819,5.932-.6167.753-1.453,1.171-2.3572,1.171h.0105Zm-.0261-19.182c-.1307,0-.2666.152-.3188.215-1.8712,2.284-3.8677,4.75-6.2929,7.756-.2038.251-.2247.36.0105.648c2.0854,2.577,4.176,5.153,6.2719,7.72.1202.146.2509.23.3606.23.1412,0,.2718-.131.3345-.215c1.6098-1.965,3.2092-3.941,4.8085-5.922l1.5157-1.871c.068-.083.1098-.162.115-.318-.0052-.053-.0314-.142-.1254-.257l-2.8433-3.507c-1.1289-1.395-2.2631-2.791-3.3973-4.186-.1777-.22-.3449-.298-.439-.298v.005Z" fill="#040f58"/><path d="M74.1654,183.454c-.6063,0-1.2126-.204-1.7562-.617-.4704-.356-.7839-.779-1.0662-1.15-.0836-.11-.1672-.22-.2509-.324-1.8345-2.247-3.6586-4.5-5.4774-6.763-1.0872-1.349-1.0872-2.718,0-4.067c2.1847-2.717,4.1865-5.19,6.1203-7.562.8885-1.088,1.8346-1.286,2.4827-1.312.6533,0,1.6254.24,2.5401,1.374c1.7091,2.117,3.4286,4.234,5.143,6.345l.9146,1.129c.2247.277.8206,1.009.7892,2.033.0366,1.067-.5645,1.809-.7683,2.06l-.4129.507c-1.8816,2.326-3.7684,4.646-5.6552,6.967-.7422.909-1.6725,1.38-2.5976,1.38h-.0052Zm.0366-19.177c-.0575,0-.2248.073-.4495.35-1.9286,2.363-3.9252,4.835-6.1047,7.548-.3136.392-.3136.397,0,.789c1.8136,2.252,3.6377,4.505,5.467,6.747.1098.131.2143.272.3136.408.1934.261.3763.502.5593.643.0888.068.2927.219.7421-.335c1.8868-2.315,3.7684-4.641,5.65-6.961l.4129-.507c.1255-.157.1882-.267.1829-.33v-.083-.084c0-.01-.0261-.084-.2038-.303l-.9147-1.129c-1.7195-2.117-3.4391-4.228-5.1481-6.35-.2562-.319-.4495-.403-.5175-.403h.0105Z" fill="#040f58"/><path d="M74.2125,151.806c-.9199,0-1.7927-.454-2.4617-1.275-.9356-1.145-1.8659-2.294-2.7963-3.444l-2.0854-2.572c-.439-.538-.8728-1.076-1.3119-1.615-.9982-1.244-1.0087-2.712-.0261-3.93c2.0854-2.587,4.176-5.164,6.2719-7.741.6481-.794,1.4896-1.217,2.3677-1.181.9826,0,1.7875.382,2.3937,1.124c2.0907,2.577,4.1865,5.153,6.272,7.735c1.0296,1.275,1.0348,2.739,0,4.014-2.0593,2.546-4.1238,5.086-6.1883,7.626-.6586.81-1.5314,1.259-2.4409,1.259h.0053Zm-.1307-19.15c0,0-.115.058-.2456.22-2.0907,2.576-4.1813,5.148-6.2667,7.735-.183.23-.2248.335.0261.653.4338.539.8676,1.072,1.3014,1.61l2.0854,2.572c.9304,1.149,1.8607,2.294,2.791,3.439.1882.23.345.308.4338.308.0837,0,.2405-.078.4182-.298c2.0645-2.535,4.129-5.075,6.183-7.62.2509-.309.2509-.413,0-.727-2.0854-2.582-4.176-5.158-6.2719-7.73-.0836-.099-.1568-.172-.3867-.162h-.0366-.0366.0052Z" fill="#040f58"/><path d="M64.2661,164.152c-.9146,0-1.7979-.465-2.4878-1.312-1.4374-1.761-2.8694-3.528-4.3015-5.3l-1.8293-2.252c-.1986-.251-.8049-.994-.7631-2.07-.0157-.695.23-1.349.7526-1.992l1.9757-2.435c1.3746-1.694,2.7492-3.387,4.1238-5.08.9146-1.119,1.8711-1.354,2.5192-1.354s1.6098.235,2.5349,1.369c2.0174,2.478,4.0297,4.96,6.0419,7.448c1.1185,1.385,1.1185,2.781.0052,4.161-2.0279,2.508-4.061,5.017-6.1046,7.515-.6847.842-1.5628,1.302-2.4722,1.302h.0052Zm-.0052-19.182c-.047,0-.23.068-.4913.392-1.3746,1.688-2.7492,3.382-4.1238,5.075l-1.9756,2.436c-.1307.157-.1725.256-.1725.293v.078.078c0,.063.0575.168.1777.319l1.8293,2.253c1.4321,1.766,2.8642,3.533,4.3015,5.294.2247.277.4024.351.4599.351s.23-.074.4495-.34c2.0384-2.499,4.0715-5.002,6.0942-7.511.3241-.402.3398-.444-.0052-.873-2.007-2.482-4.0193-4.965-6.0367-7.437-.2718-.329-.46-.403-.507-.403v-.005Z" fill="#040f58"/><path d="M72.77,153.364c.1254.24.2927.465.5331.59.3502.188.7787.126,1.1498,0c.5436-.188,1.0506-.533,1.3328-1.029.2823-.497.2979-1.171-.047-1.626-.2875-.376-.7788-.564-1.2544-.59-.4495-.027-1.4164-.042-1.73.365-.4547.591-.2979,1.689.0157,2.295v-.005Z" fill="#040f58"/><path d="M39.3354,174.95c-7.7406-13.344-8.7023-30.262-3.298-44.709-.7735-.203-1.4582.194-2.1115.654-2.1429,1.515-3.8573,3.826-4.5106,6.371-2.9216,11.383-1.9965,23.718,2.5872,34.532.0732.167.1254.334.1672.502-1.0819-.695-2.2422-1.26-3.4652-1.662-3.8363-1.27-8.1378-1.087-11.8539.507.115.726.2718,1.646.3867,2.373c3.4496-1.474,7.448-1.615,10.9968-.392c1.2648.439,2.467,1.05,3.575,1.803-1.0087,2.033-3.4861,3.789-5.6865,4.38-3.298.878-7.0873-.659-8.8382-3.586.2822,3.659,1.5993,7.579,4.8503,9.283c3.2561,1.703,7.4008.7,10.3434-1.511c1.4634-1.097,2.6917-2.446,3.7945-3.909.1307.209.2509.418.3711.637.3815-.684.784-1.312,1.1603-1.996-.0888-.147-.1777-.293-.2666-.439.622-.936,1.2178-1.887,1.798-2.838Z" opacity="0.3" fill="#040f58"/><path d="M109.884,174.95c7.741-13.344,8.702-30.262,3.298-44.709.774-.203,1.458.194,2.112.654c2.142,1.515,3.857,3.826,4.51,6.371c2.922,11.383,1.997,23.718-2.587,34.532-.073.167-.125.334-.167.502c1.082-.695,2.242-1.26,3.465-1.662c3.836-1.27,8.138-1.087,11.854.507-.115.726-.272,1.646-.387,2.373-3.449-1.474-7.448-1.615-10.997-.392-1.265.439-2.467,1.05-3.575,1.803c1.009,2.033,3.486,3.789,5.687,4.38c3.298.878,7.087-.659,8.838-3.586-.282,3.659-1.599,7.579-4.85,9.283-3.256,1.703-7.401.7-10.344-1.511-1.463-1.097-2.691-2.446-3.794-3.909-.131.209-.251.418-.371.637-.382-.684-.784-1.312-1.161-1.996.089-.147.178-.293.267-.439-.622-.936-1.218-1.887-1.798-2.838Z" opacity="0.3" fill="#040f58"/><g mask="url(#eP0asckvhy880)"><g><g id="eP0asckvhy862_to" transform="translate(169.485001,81.096001)"><g transform="translate(-79.485,-81.096001)"><path d="M58.911,91.384v-5.792h-11.616v-6.08h2.912v-2.912h2.88v-2.88h2.944v-2.912h6.144v20.576h-3.264ZM50.527,82.36h8.384v-8.32h-2.56v2.88h-2.944v2.88h-2.88v2.56Zm18.43,9.024v-2.88h-2.912v-14.784h2.912v-2.912h9.024v2.912h2.944v14.784h-2.944v2.88h-9.024Zm.32-3.2h8.384v-14.144h-8.384v14.144Zm27.134,3.2v-5.792h-11.616v-6.08h2.912v-2.912h2.88v-2.88h2.944v-2.912h6.144v20.576h-3.264ZM88.027,82.36h8.384v-8.32h-2.56v2.88h-2.944v2.88h-2.88v2.56Z" fill="#ec1c26"/><path d="M61.911,91.384v-5.792h-11.616v-6.08h2.912v-2.912h2.88v-2.88h2.944v-2.912h6.144v20.576h-3.264ZM53.527,82.36h8.384v-8.32h-2.56v2.88h-2.944v2.88h-2.88v2.56Zm18.43,9.024v-2.88h-2.912v-14.784h2.912v-2.912h9.024v2.912h2.944v14.784h-2.944v2.88h-9.024Zm.32-3.2h8.384v-14.144h-8.384v14.144Zm27.134,3.2v-5.792h-11.616v-6.08h2.912v-2.912h2.88v-2.88h2.944v-2.912h6.144v20.576h-3.264ZM91.027,82.36h8.384v-8.32h-2.56v2.88h-2.944v2.88h-2.88v2.56Z" fill="#ec1c26" fill-opacity="0.48"/><path d="M64.911,91.384v-5.792h-11.616v-6.08h2.912v-2.912h2.88v-2.88h2.944v-2.912h6.144v20.576h-3.264ZM56.527,82.36h8.384v-8.32h-2.56v2.88h-2.944v2.88h-2.88v2.56Zm18.43,9.024v-2.88h-2.912v-14.784h2.912v-2.912h9.024v2.912h2.944v14.784h-2.944v2.88h-9.024Zm.32-3.2h8.384v-14.144h-8.384v14.144Zm27.134,3.2v-5.792h-11.616v-6.08h2.912v-2.912h2.88v-2.88h2.944v-2.912h6.144v20.576h-3.264ZM94.027,82.36h8.384v-8.32h-2.56v2.88h-2.944v2.88h-2.88v2.56Z" fill="#ec1c26" fill-opacity="0.32"/><path d="M67.911,91.384v-5.792h-11.616v-6.08h2.912v-2.912h2.88v-2.88h2.944v-2.912h6.144v20.576h-3.264ZM59.527,82.36h8.384v-8.32h-2.56v2.88h-2.944v2.88h-2.88v2.56Zm18.43,9.024v-2.88h-2.912v-14.784h2.912v-2.912h9.024v2.912h2.944v14.784h-2.944v2.88h-9.024Zm.32-3.2h8.384v-14.144h-8.384v14.144Zm27.134,3.2v-5.792h-11.616v-6.08h2.912v-2.912h2.88v-2.88h2.944v-2.912h6.144v20.576h-3.264ZM97.027,82.36h8.384v-8.32h-2.56v2.88h-2.944v2.88h-2.88v2.56Z" fill="#ec1c26" fill-opacity="0.2"/><path d="M70.911,91.384v-5.792h-11.616v-6.08h2.912v-2.912h2.88v-2.88h2.944v-2.912h6.144v20.576h-3.264ZM62.527,82.36h8.384v-8.32h-2.56v2.88h-2.944v2.88h-2.88v2.56Zm18.43,9.024v-2.88h-2.912v-14.784h2.912v-2.912h9.024v2.912h2.944v14.784h-2.944v2.88h-9.024Zm.32-3.2h8.384v-14.144h-8.384v14.144Zm27.134,3.2v-5.792h-11.616v-6.08h2.912v-2.912h2.88v-2.88h2.944v-2.912h6.144v20.576h-3.264Zm-8.384-9.024h8.384v-8.32h-2.56v2.88h-2.944v2.88h-2.88v2.56Z" fill="#ec1c26" fill-opacity="0.12"/></g></g><g id="eP0asckvhy868_to" transform="translate(169.485001,81.096001)"><g transform="translate(-79.485,-81.096001)"><path d="M58.911,91.384v-5.792h-11.616v-6.08h2.912v-2.912h2.88v-2.88h2.944v-2.912h6.144v20.576h-3.264ZM50.527,82.36h8.384v-8.32h-2.56v2.88h-2.944v2.88h-2.88v2.56Zm18.43,9.024v-2.88h-2.912v-14.784h2.912v-2.912h9.024v2.912h2.944v14.784h-2.944v2.88h-9.024Zm.32-3.2h8.384v-14.144h-8.384v14.144Zm27.134,3.2v-5.792h-11.616v-6.08h2.912v-2.912h2.88v-2.88h2.944v-2.912h6.144v20.576h-3.264ZM88.027,82.36h8.384v-8.32h-2.56v2.88h-2.944v2.88h-2.88v2.56Z" fill="#ec1c26"/><path d="M61.911,91.384v-5.792h-11.616v-6.08h2.912v-2.912h2.88v-2.88h2.944v-2.912h6.144v20.576h-3.264ZM53.527,82.36h8.384v-8.32h-2.56v2.88h-2.944v2.88h-2.88v2.56Zm18.43,9.024v-2.88h-2.912v-14.784h2.912v-2.912h9.024v2.912h2.944v14.784h-2.944v2.88h-9.024Zm.32-3.2h8.384v-14.144h-8.384v14.144Zm27.134,3.2v-5.792h-11.616v-6.08h2.912v-2.912h2.88v-2.88h2.944v-2.912h6.144v20.576h-3.264ZM91.027,82.36h8.384v-8.32h-2.56v2.88h-2.944v2.88h-2.88v2.56Z" fill="#ec1c26" fill-opacity="0.48"/><path d="M64.911,91.384v-5.792h-11.616v-6.08h2.912v-2.912h2.88v-2.88h2.944v-2.912h6.144v20.576h-3.264ZM56.527,82.36h8.384v-8.32h-2.56v2.88h-2.944v2.88h-2.88v2.56Zm18.43,9.024v-2.88h-2.912v-14.784h2.912v-2.912h9.024v2.912h2.944v14.784h-2.944v2.88h-9.024Zm.32-3.2h8.384v-14.144h-8.384v14.144Zm27.134,3.2v-5.792h-11.616v-6.08h2.912v-2.912h2.88v-2.88h2.944v-2.912h6.144v20.576h-3.264ZM94.027,82.36h8.384v-8.32h-2.56v2.88h-2.944v2.88h-2.88v2.56Z" fill="#ec1c26" fill-opacity="0.32"/><path d="M67.911,91.384v-5.792h-11.616v-6.08h2.912v-2.912h2.88v-2.88h2.944v-2.912h6.144v20.576h-3.264ZM59.527,82.36h8.384v-8.32h-2.56v2.88h-2.944v2.88h-2.88v2.56Zm18.43,9.024v-2.88h-2.912v-14.784h2.912v-2.912h9.024v2.912h2.944v14.784h-2.944v2.88h-9.024Zm.32-3.2h8.384v-14.144h-8.384v14.144Zm27.134,3.2v-5.792h-11.616v-6.08h2.912v-2.912h2.88v-2.88h2.944v-2.912h6.144v20.576h-3.264ZM97.027,82.36h8.384v-8.32h-2.56v2.88h-2.944v2.88h-2.88v2.56Z" fill="#ec1c26" fill-opacity="0.2"/><path d="M70.911,91.384v-5.792h-11.616v-6.08h2.912v-2.912h2.88v-2.88h2.944v-2.912h6.144v20.576h-3.264ZM62.527,82.36h8.384v-8.32h-2.56v2.88h-2.944v2.88h-2.88v2.56Zm18.43,9.024v-2.88h-2.912v-14.784h2.912v-2.912h9.024v2.912h2.944v14.784h-2.944v2.88h-9.024Zm.32-3.2h8.384v-14.144h-8.384v14.144Zm27.134,3.2v-5.792h-11.616v-6.08h2.912v-2.912h2.88v-2.88h2.944v-2.912h6.144v20.576h-3.264Zm-8.384-9.024h8.384v-8.32h-2.56v2.88h-2.944v2.88h-2.88v2.56Z" fill="#ec1c26" fill-opacity="0.12"/></g></g><g id="eP0asckvhy874_to" transform="translate(169.485001,81.096001)"><g id="eP0asckvhy874" transform="translate(-79.485,-81.096001)"><path d="M58.911,91.384v-5.792h-11.616v-6.08h2.912v-2.912h2.88v-2.88h2.944v-2.912h6.144v20.576h-3.264ZM50.527,82.36h8.384v-8.32h-2.56v2.88h-2.944v2.88h-2.88v2.56Zm18.43,9.024v-2.88h-2.912v-14.784h2.912v-2.912h9.024v2.912h2.944v14.784h-2.944v2.88h-9.024Zm.32-3.2h8.384v-14.144h-8.384v14.144Zm27.134,3.2v-5.792h-11.616v-6.08h2.912v-2.912h2.88v-2.88h2.944v-2.912h6.144v20.576h-3.264ZM88.027,82.36h8.384v-8.32h-2.56v2.88h-2.944v2.88h-2.88v2.56Z" fill="#ec1c26"/><path d="M61.911,91.384v-5.792h-11.616v-6.08h2.912v-2.912h2.88v-2.88h2.944v-2.912h6.144v20.576h-3.264ZM53.527,82.36h8.384v-8.32h-2.56v2.88h-2.944v2.88h-2.88v2.56Zm18.43,9.024v-2.88h-2.912v-14.784h2.912v-2.912h9.024v2.912h2.944v14.784h-2.944v2.88h-9.024Zm.32-3.2h8.384v-14.144h-8.384v14.144Zm27.134,3.2v-5.792h-11.616v-6.08h2.912v-2.912h2.88v-2.88h2.944v-2.912h6.144v20.576h-3.264ZM91.027,82.36h8.384v-8.32h-2.56v2.88h-2.944v2.88h-2.88v2.56Z" fill="#ec1c26" fill-opacity="0.48"/><path d="M64.911,91.384v-5.792h-11.616v-6.08h2.912v-2.912h2.88v-2.88h2.944v-2.912h6.144v20.576h-3.264ZM56.527,82.36h8.384v-8.32h-2.56v2.88h-2.944v2.88h-2.88v2.56Zm18.43,9.024v-2.88h-2.912v-14.784h2.912v-2.912h9.024v2.912h2.944v14.784h-2.944v2.88h-9.024Zm.32-3.2h8.384v-14.144h-8.384v14.144Zm27.134,3.2v-5.792h-11.616v-6.08h2.912v-2.912h2.88v-2.88h2.944v-2.912h6.144v20.576h-3.264ZM94.027,82.36h8.384v-8.32h-2.56v2.88h-2.944v2.88h-2.88v2.56Z" fill="#ec1c26" fill-opacity="0.32"/><path d="M67.911,91.384v-5.792h-11.616v-6.08h2.912v-2.912h2.88v-2.88h2.944v-2.912h6.144v20.576h-3.264ZM59.527,82.36h8.384v-8.32h-2.56v2.88h-2.944v2.88h-2.88v2.56Zm18.43,9.024v-2.88h-2.912v-14.784h2.912v-2.912h9.024v2.912h2.944v14.784h-2.944v2.88h-9.024Zm.32-3.2h8.384v-14.144h-8.384v14.144Zm27.134,3.2v-5.792h-11.616v-6.08h2.912v-2.912h2.88v-2.88h2.944v-2.912h6.144v20.576h-3.264ZM97.027,82.36h8.384v-8.32h-2.56v2.88h-2.944v2.88h-2.88v2.56Z" fill="#ec1c26" fill-opacity="0.2"/><path d="M70.911,91.384v-5.792h-11.616v-6.08h2.912v-2.912h2.88v-2.88h2.944v-2.912h6.144v20.576h-3.264ZM62.527,82.36h8.384v-8.32h-2.56v2.88h-2.944v2.88h-2.88v2.56Zm18.43,9.024v-2.88h-2.912v-14.784h2.912v-2.912h9.024v2.912h2.944v14.784h-2.944v2.88h-9.024Zm.32-3.2h8.384v-14.144h-8.384v14.144Zm27.134,3.2v-5.792h-11.616v-6.08h2.912v-2.912h2.88v-2.88h2.944v-2.912h6.144v20.576h-3.264Zm-8.384-9.024h8.384v-8.32h-2.56v2.88h-2.944v2.88h-2.88v2.56Z" fill="#ec1c26" fill-opacity="0.12"/></g></g></g><mask id="eP0asckvhy880" mask-type="alpha" x="-150%" y="-150%" height="400%" width="400%"><path d="M98.213,106.633c5.504,0,10.542-3.204,12.748-8.2476c3.188-7.2911,5.618-14.9115,7.333-22.8403c2.106-9.7685-5.426-18.9777-15.419-18.9777h-57.7798c-9.9933,0-17.53,9.2092-15.4185,18.9777c1.7091,7.9288,4.1447,15.5492,7.3329,22.8403c2.2056,5.0386,7.2441,8.2476,12.7477,8.2476h48.461-.0053Z" transform="translate(.000001 0)" fill="#070772"/></mask></g></g></g><g id="eP0asckvhy882_ts" transform="translate(75.21055,240) scale(0.9,0.9)"><path d="M75.2106,240c24.3626,0,44.1124-4.03,44.1124-9c0-4.971-19.7498-9-44.1124-9s-44.1125,4.029-44.1125,9c0,4.97,19.7499,9,44.1125,9Z" transform="translate(-75.21055,-240)" opacity="0.5" fill="#97a5ba"/></g></svg>