<svg width="59" height="25" viewBox="0 0 59 25" fill="none" xmlns="http://www.w3.org/2000/svg">
    <rect width="59" height="25" rx="6" fill="#C9FEF4"/>
    <path d="M22.0092 18.133C20.9965 18.133 20.1238 17.958 19.3912 17.608C18.6585 17.258 18.0938 16.6957 17.6972 15.921C17.3005 15.1463 17.1022 14.1197 17.1022 12.841C17.1022 10.993 17.5432 9.642 18.4252 8.788C19.3072 7.934 20.5392 7.507 22.1212 7.507C22.8912 7.507 23.6355 7.60267 24.3542 7.794V9.054C23.6635 8.86267 22.9472 8.767 22.2052 8.767C21.4305 8.767 20.7795 8.9 20.2522 9.166C19.7295 9.42733 19.3328 9.85433 19.0622 10.447C18.7915 11.0397 18.6562 11.8283 18.6562 12.813C18.6562 13.8303 18.7915 14.6353 19.0622 15.228C19.3375 15.8207 19.7318 16.243 20.2452 16.495C20.7632 16.747 21.3908 16.873 22.1282 16.873C22.8468 16.873 23.5888 16.7493 24.3542 16.502V17.762C24.0135 17.8787 23.6425 17.9697 23.2412 18.035C22.8445 18.1003 22.4338 18.133 22.0092 18.133ZM28.3283 18.091C27.927 18.091 27.514 18.0793 27.0893 18.056C26.6693 18.0327 26.226 17.993 25.7593 17.937V7.829C26.198 7.73567 26.6693 7.66333 27.1733 7.612C27.6773 7.56067 28.1673 7.535 28.6433 7.535C30.4027 7.535 31.7303 7.96667 32.6263 8.83C33.527 9.68867 33.9773 11.0187 33.9773 12.82C33.9773 14.6587 33.5037 15.998 32.5563 16.838C31.6137 17.6733 30.2043 18.091 28.3283 18.091ZM28.6643 16.852C29.929 16.852 30.8763 16.5393 31.5063 15.914C32.1363 15.2887 32.4513 14.255 32.4513 12.813C32.4513 11.3897 32.141 10.3607 31.5203 9.726C30.8997 9.08667 29.9663 8.767 28.7203 8.767C28.4917 8.767 28.249 8.77867 27.9923 8.802C27.7403 8.82533 27.4907 8.85567 27.2433 8.893V16.775C27.4673 16.803 27.6937 16.824 27.9223 16.838C28.151 16.8473 28.3983 16.852 28.6643 16.852ZM37.6139 18V8.907H34.2259V7.64H42.4999V8.907H39.1049V18H37.6139Z" fill="#2A323E"/>
</svg>
