<?xml version="1.0" encoding="UTF-8"?>
<svg width="16px" height="16px" viewBox="0 0 16 16" version="1.1" xmlns="http://www.w3.org/2000/svg" xmlns:xlink="http://www.w3.org/1999/xlink">
    <title>icons/chart</title>
    <g id="icons/chart" stroke="none" stroke-width="1" fill="none" fill-rule="evenodd">
        <path d="M13.1200717,0.5 C14.4348154,0.5 15.5,1.56518455 15.5,2.87992832 L15.5,2.87992832 L15.5,13.1200717 C15.5,14.4348154 14.4348154,15.5 13.1200717,15.5 L13.1200717,15.5 L2.87992832,15.5 C1.56518455,15.5 0.5,14.4348154 0.5,13.1200717 L0.5,13.1200717 L0.5,2.87992832 C0.5,1.56518455 1.56518455,0.5 2.87992832,0.5 L2.87992832,0.5 Z M13.1200717,2.0483871 L2.87992832,2.0483871 C2.42033513,2.0483871 2.0483871,2.42033513 2.0483871,2.87992832 L2.0483871,2.87992832 L2.0483871,13.1200717 C2.0483871,13.5796649 2.42033513,13.9516129 2.87992832,13.9516129 L2.87992832,13.9516129 L13.1200717,13.9516129 C13.5796649,13.9516129 13.9516129,13.5796649 13.9516129,13.1200717 L13.9516129,13.1200717 L13.9516129,2.87992832 C13.9516129,2.42033513 13.5796649,2.0483871 13.1200717,2.0483871 L13.1200717,2.0483871 Z M4.33613954,7.61628381 C4.7158353,7.61628381 5.0296305,7.8984377 5.07929292,8.26451326 L5.08613954,8.36628381 L5.08613954,12.0301932 C5.08613954,12.4444068 4.7503531,12.7801932 4.33613954,12.7801932 C3.95644377,12.7801932 3.64264858,12.4980393 3.59298615,12.1319638 L3.58613954,12.0301932 L3.58613954,8.36628381 C3.58613954,7.95207025 3.92192598,7.61628381 4.33613954,7.61628381 Z M6.77627078,3.21959339 C7.15596655,3.21959339 7.46976174,3.50174728 7.51942416,3.86782284 L7.52627078,3.96959339 L7.52627078,12.0301927 C7.52627078,12.4444062 7.19048434,12.7801927 6.77627078,12.7801927 C6.39657502,12.7801927 6.08277982,12.4980388 6.0331174,12.1319632 L6.02627078,12.0301927 L6.02627078,3.96959339 C6.02627078,3.55537983 6.36205722,3.21959339 6.77627078,3.21959339 Z M9.21640176,6.8104207 C9.59609753,6.8104207 9.90989272,7.09257458 9.95955515,7.45865014 L9.96640176,7.5604207 L9.96640176,12.0303897 C9.96640176,12.4446033 9.63061532,12.7803897 9.21640176,12.7803897 C8.836706,12.7803897 8.5229108,12.4982359 8.47324838,12.1321603 L8.46640176,12.0303897 L8.46640176,7.5604207 C8.46640176,7.14620713 8.8021882,6.8104207 9.21640176,6.8104207 Z M11.6639124,3.95246458 C12.0436082,3.95246458 12.3574034,4.23461846 12.4070658,4.60069403 L12.4139124,4.70246458 L12.4139124,12.0302823 C12.4139124,12.4444959 12.078126,12.7802823 11.6639124,12.7802823 C11.2842167,12.7802823 10.9704215,12.4981284 10.9207591,12.1320529 L10.9139124,12.0302823 L10.9139124,4.70246458 C10.9139124,4.28825102 11.2496989,3.95246458 11.6639124,3.95246458 Z" id="Combined-Shape" fill="#5B6C84"></path>
    </g>
</svg>