<svg width="20" height="20" viewBox="0 0 20 20" xmlns="http://www.w3.org/2000/svg">
    <path d="M17.025 0A2.974 2.974 0 0 1 20 2.975v14.05A2.974 2.974 0 0 1 17.025 20H2.975A2.974 2.974 0 0 1 0 17.025V2.975A2.974 2.974 0 0 1 2.975 0zm0 1.935H2.975c-.575 0-1.04.465-1.04 1.04v14.05c0 .575.465 1.04 1.04 1.04h14.05c.575 0 1.04-.465 1.04-1.04V2.975c0-.575-.465-1.04-1.04-1.04zM5.42 9.52c.475 0 .867.353.93.81l.008.128v4.58a.938.938 0 0 1-1.867.127l-.008-.127v-4.58c0-.518.42-.938.937-.938zm3.05-5.496c.475 0 .867.353.93.81l.008.128v10.076a.937.937 0 0 1-1.867.127l-.008-.127V4.962c0-.518.42-.938.937-.938zm3.05 4.489c.475 0 .867.353.93.81l.008.128v5.587a.938.938 0 0 1-1.866.127l-.009-.127V9.451c0-.518.42-.938.938-.938zm3.06-3.572c.475 0 .867.352.929.81l.008.127v9.16a.938.938 0 0 1-1.866.127l-.009-.127v-9.16c0-.518.42-.937.938-.937z" fill="#5B6C84" fill-rule="evenodd"/>
</svg>
