<svg xmlns="http://www.w3.org/2000/svg" xmlns:xlink="http://www.w3.org/1999/xlink" id="eExnNdq7HlG1" viewBox="0 0 178 239" shape-rendering="geometricPrecision" text-rendering="geometricPrecision" project-id="b5cfedd14f494f468a28551cf220d79c" export-id="5d34800f2f464927ae75ed385f66872a" cached="false" style="background-color:transparent">
<style><![CDATA[
#eExnNdq7HlG2_to {animation: eExnNdq7HlG2_to__to 4000ms linear infinite normal forwards}@keyframes eExnNdq7HlG2_to__to { 0% {transform: translate(97.392332px,109.211923px)} 25% {transform: translate(97.392332px,113.211923px)} 75% {transform: translate(97.392332px,105.211923px)} 100% {transform: translate(97.392332px,109.211923px)}} #eExnNdq7HlG33_tr {animation: eExnNdq7HlG33_tr__tr 4000ms linear infinite normal forwards}@keyframes eExnNdq7HlG33_tr__tr { 0% {transform: translate(90.19635px,120.330208px) rotate(0deg)} 25% {transform: translate(90.19635px,120.330208px) rotate(0.016217deg)} 27.5% {transform: translate(90.19635px,120.330208px) rotate(2.38535deg)} 30% {transform: translate(90.19635px,120.330208px) rotate(0.016217deg)} 32.5% {transform: translate(90.19635px,120.330208px) rotate(2.38535deg)} 35% {transform: translate(90.19635px,120.330208px) rotate(0.016217deg)} 37.5% {transform: translate(90.19635px,120.330208px) rotate(2.38535deg)} 40% {transform: translate(90.19635px,120.330208px) rotate(0deg)} 100% {transform: translate(90.19635px,120.330208px) rotate(0deg)}} #eExnNdq7HlG60_ts {animation: eExnNdq7HlG60_ts__ts 4000ms linear infinite normal forwards}@keyframes eExnNdq7HlG60_ts__ts { 0% {transform: translate(97.506622px,75.675236px) scale(1,1)} 25% {transform: translate(97.506622px,75.675236px) scale(1,1)} 27.5% {transform: translate(97.506622px,75.675236px) scale(1.1,1.1)} 30% {transform: translate(97.506622px,75.675236px) scale(1,1)} 32.5% {transform: translate(97.506622px,75.675236px) scale(1.2,1.2)} 35% {transform: translate(97.506622px,75.675236px) scale(1,1)} 37.5% {transform: translate(97.506622px,75.675236px) scale(1.1,1.1)} 40% {transform: translate(97.506622px,75.675236px) scale(1,1)} 100% {transform: translate(97.506622px,75.675236px) scale(1,1)}} #eExnNdq7HlG60 {animation: eExnNdq7HlG60_c_o 4000ms linear infinite normal forwards}@keyframes eExnNdq7HlG60_c_o { 0% {opacity: 1} 25% {opacity: 1} 30% {opacity: 0.49} 32.5% {opacity: 1} 35% {opacity: 0.67} 40% {opacity: 1} 100% {opacity: 1}} #eExnNdq7HlG61_ts {animation: eExnNdq7HlG61_ts__ts 4000ms linear infinite normal forwards}@keyframes eExnNdq7HlG61_ts__ts { 0% {transform: translate(90.47559px,239px) scale(1,1)} 25% {transform: translate(90.47559px,239px) scale(1.05,1.05)} 75% {transform: translate(90.47559px,239px) scale(0.95,0.95)} 100% {transform: translate(90.47559px,239px) scale(1,1)}} #eExnNdq7HlG68_tr {animation: eExnNdq7HlG68_tr__tr 4000ms linear infinite normal forwards}@keyframes eExnNdq7HlG68_tr__tr { 0% {transform: translate(135.33781px,207.03926px) rotate(720deg);animation-timing-function: cubic-bezier(0.415,0.08,0.115,0.955)} 100% {transform: translate(135.33781px,207.03926px) rotate(345.974026deg)}} #eExnNdq7HlG69_tr {animation: eExnNdq7HlG69_tr__tr 4000ms linear infinite normal forwards}@keyframes eExnNdq7HlG69_tr__tr { 0% {transform: translate(11.12px,29.9px) rotate(-720deg);animation-timing-function: cubic-bezier(0.415,0.08,0.115,0.955)} 100% {transform: translate(11.12px,29.9px) rotate(-345.974026deg)}}
]]></style>
<defs><linearGradient id="eExnNdq7HlG62-fill" x1="0.5" y1="0" x2="0.5" y2="1" spreadMethod="pad" gradientUnits="objectBoundingBox" gradientTransform="translate(0 0)"><stop id="eExnNdq7HlG62-fill-0" offset="0%" stop-color="rgba(255,255,255,0)"/><stop id="eExnNdq7HlG62-fill-1" offset="100%" stop-color="#010022"/></linearGradient></defs><g id="eExnNdq7HlG2_to" transform="translate(97.392332,109.211923)"><g transform="translate(-97.392332,-109.211923)"><path d="M131.682,172.941c-2.534-3.456-4.187-7.462-5.547-11.502-.887-2.64-1.775-5.104-2.365-7.842-.648-3.001-1.179-6.026-1.605-9.068-.841-6.02-1.238-12.098-1.197-18.177.046-5.891.502-11.818-.345-17.645.181.082.356.169.537.251c8.911,4.263,16.53,11.147,21.762,19.52c5.448,8.711,9.068,18.825,11.106,28.897.922,4.554,1.623,9.289.607,13.821-.946,4.227-4.262,9.949-9.161,9.873-5.542-.087-10.627-3.824-13.792-8.133v.005Z" fill="#fff"/><path d="M145.579,182.535c-.041,0-.082,0-.129,0-5.412-.088-10.994-3.352-14.942-8.735-3.742-5.097-5.646-11.369-7.333-16.904l2.791-.852c1.693,5.57,3.445,11.327,6.89,16.028c2.633,3.591,7.333,7.456,12.635,7.538.024,0,.047,0,.07,0c3.924,0,6.826-5.092,7.643-8.735.9-4.018.403-8.187-.613-13.214-2.16-10.662-11.905-39.705-30.847-45.97l.917-2.774c20.255,6.704,30.538,37.037,32.791,48.16.946,4.666,1.67,9.646.602,14.434-.993,4.449-4.601,11.012-10.481,11.018l.006.006Z" fill="#040f58"/><path d="M132.564,172.089l-2.482-1.536c2.47-4,6.446-7.129,10.913-8.589s9.529-1.279,13.879.491l-1.097,2.703c-3.726-1.512-8.052-1.664-11.877-.415-3.819,1.25-7.223,3.924-9.336,7.346Z" fill="#040f58"/><path d="M49.2186,172.941c1.2495-1.699,2.2888-3.544,3.1822-5.453c1.1795-2.528,2.102-5.174,2.9487-7.83.8233-2.581,1.2378-5.273,1.9093-7.918c1.5123-5.932,2.8494-11.946,3.3048-18.066.5839-7.865-.3503-16.016-3.9938-23.011-7.3337,4.397-13.6865,10.405-18.5212,17.459-3.1296,4.571-5.0798,9.587-6.9775,14.784-1.7225,4.718-3.1998,9.552-4.1982,14.475-.9226,4.554-1.6233,9.289-.6073,13.82.9459,4.228,4.2625,9.95,9.1613,9.874c5.5412-.088,10.6269-3.824,13.7917-8.134Z" fill="#fff"/><path d="M35.3279,182.535c-5.8857,0-9.4883-6.569-10.4868-11.019-1.0685-4.788-.3445-9.768.6014-14.433c2.2539-11.124,12.5304-41.457,32.7916-48.16l.9167,2.773c-18.9416,6.266-28.6868,35.309-30.8472,45.97-.8817,4.35-1.5648,8.963-.6131,13.214.8116,3.644,3.7194,8.735,7.6432,8.735.0234,0,.0467,0,.0701,0c5.3017-.087,10.0021-3.953,12.6355-7.538c3.445-4.695,5.1966-10.458,6.8899-16.028l2.7911.853c-1.6817,5.535-3.591,11.806-7.3279,16.903-3.9472,5.384-9.535,8.648-14.9419,8.735-.0409,0-.0876,0-.1285,0l.0059-.005Z" fill="#040f58"/><path d="M48.338,172.089c-2.1137-3.422-5.5178-6.096-9.3365-7.346-3.8245-1.249-8.1512-1.097-11.8764.415l-1.0978-2.703c4.3559-1.77,9.4124-1.945,13.8792-.491c4.4668,1.46,8.4432,4.59,10.9189,8.589l-2.4816,1.536h-.0058Z" fill="#040f58"/><path d="M136.69,138.171c0,31.063-28.727,68.823-46.4893,67.323-17.7621-1.501-46.4898-36.26-46.4898-67.323c0-31.064,20.8159-31.624,46.4898-31.624c25.6743,0,46.4893.56,46.4893,31.624Z" fill="#fff"/><path d="M90.2192,146.946c-12.256,0-23.6945-.905-32.2077-2.545-10.5626-2.038-15.6951-4.981-15.6951-8.998h2.9195c0,4.151,17.2016,8.63,44.9891,8.63c27.788,0,44.989-4.479,44.989-8.63h2.92c0,11.222-43.0042,11.549-47.909,11.549l-.0058-.006Z" fill="#040f58"/><path d="M91.2583,206.994c-.3971,0-.7941-.017-1.1795-.047-9.1379-.77-20.9969-9.645-30.9581-23.163C48.4004,169.234,42.252,152.61,42.252,138.17c0-33.083,23.2915-33.083,47.9494-33.083c24.6576,0,47.9496,0,47.9496,33.083c0,22.118-13.938,46.502-27.7,59.155C103.543,203.678,96.9396,207,91.2641,207l-.0058-.006Zm-1.0569-98.988c-27.916,0-45.03,1.46-45.03,30.164c0,13.827,5.9382,29.826,16.3024,43.88c9.3306,12.665,20.6582,21.295,28.8503,21.984c5.0273.426,11.4679-2.727,18.1479-8.864c13.295-12.221,26.754-35.728,26.754-57.005c0-28.705-17.109-30.164-45.0304-30.164l.0058.005Z" fill="#040f58"/><path d="M115.408,191.713l-2.878-.472c.198-1.215.298-2.459.298-3.697c0-12.477-10.148-22.625-22.6263-22.625-12.4779,0-22.626,10.148-22.626,22.625c0,.835.0467,1.67.1343,2.494l-2.9019.321c-.0993-.929-.1519-1.874-.1519-2.815c0-14.083,11.4619-25.545,25.5455-25.545c14.0833,0,25.5453,11.462,25.5453,25.545c0,1.396-.117,2.797-.339,4.169Z" fill="#040f58"/><path d="M135.716,137.458c-.076-2.622.893-4.654.584-7.264.987-1.891-.753-4.846-2.05-6.493-.204-1.132.742-1.681.497-2.802.017.917.017,1.833,0,2.75-16.063,3.521-33.224,1.851-48.3118-4.7-7.2111-3.13-14.0894-7.422-21.9136-8.893-1.0919-.205-2.1896-.018-3.2406.292-1.9268.566-5.2492,1.915-6.6622,3.381-.1986.204-1.5007-.187-1.5766,0-.7065,1.658,4.0114,3.258,5.4712,3.9c11.7246,5.156,23.7295,9.272,35.8511,13.395c6.0905,2.072,12.2265,4.157,18.5975,5.039c6.37.881,13.073.49,18.906-2.219.788-.368,1.571-.794,2.283-1.308-.344,2.954-1.997,5.307-2.627,8.215-6.394,2.885-21.021,5.261-41.311,5.261-27.735,0-44.9074-4.437-44.9074-8.548h-3.0829c0,4.064,5.1558,7.03,15.7651,9.08c8.5191,1.646,19.9634,2.551,32.2252,2.551c5.8156,0,28.442-.298,40.429-4.683-3.346,12.776-9.447,24.833-17.838,35.028-3.784-8.741-12.495-14.877-22.6085-14.877-10.6444,0-19.7356,6.79-23.1631,16.267-7.8067-7.696-14.4164-16.606-19.4496-26.346c2.4816,13.132,8.8577,25.75,18.0132,35.618.0234.602.0584,1.203.1226,1.799l1.4306-.158c3.2698,3.299,6.8607,6.259,10.7378,8.77c3.6494,2.365,7.6957,4.438,12.0399,4.566c5.3252.164,10.2941-2.604,14.6151-5.722c2.75-1.985,5.354-4.169,7.812-6.505l2.149.351c.146-.905.228-1.822.275-2.745c7.228-7.485,12.962-16.413,16.681-26.135c2.762-7.217,4.07-14.837,4.263-22.538c1.576-1.226,2.487-2.657,2.487-4.327h-2.493Zm-30.094,49.725c-3.118,2.972-6.6097,5.798-10.7845,6.866-3.9763,1.016-8.2563.316-12.0224-1.314-3.772-1.623-7.0943-4.122-10.224-6.784-1.0452-.888-2.0612-1.816-3.0713-2.745c2.5983-8.98,10.878-15.566,20.6816-15.566s17.3886,6.06,20.3256,14.469c-1.565,1.757-3.206,3.45-4.911,5.074h.006Z" opacity="0.3" fill="#040f58"/><path d="M110.229,144.57c-.012.531-.158.934-.461,1.29-2.342,2.885-4.666,5.787-7.019,8.654-.846,1.033-2.166,1.022-3.0125-.012-.9926-1.22-1.9794-2.441-2.9721-3.661-1.3371-1.635-2.6683-3.27-3.988-4.91-.1459-.17-.2569-.357-.3444-.544-.3037-.659-.1986-1.348.3328-2.008.6014-.759,1.2203-1.507,1.8217-2.266c1.4072-1.722,2.7969-3.456,4.2216-5.179.3153-.385.6306-.776.9459-1.162.73-.905,1.793-.992,2.657-.303.157.099.303.245.432.403c1.623,1.996,3.229,3.976,4.852,5.973v.011c.199.246.403.503.601.748.491.601.975,1.203,1.466,1.81.304.344.461.759.473,1.162l-.006-.006Z" fill="#1ca4f7"/><path d="M99.1636,166.04c.0408.543-.1986.975-.5139,1.378-2.2363,2.756-4.4901,5.524-6.7323,8.28-.8583,1.062-1.9385,1.29-2.826.619-.5022-.386-.835-.917-1.2204-1.408-.6481-.788-1.3079-1.594-1.921-2.382-1.4072-1.693-2.7852-3.404-4.1456-5.109-.1577-.199-.3037-.403-.3854-.59-.3562-.7-.2277-1.337.3854-2.108c2.2363-2.796,4.5076-5.599,6.7731-8.379.8759-1.074,1.9211-1.191,2.8553-.414.1576.128.3153.304.4729.49c1.5766,1.968,3.1706,3.93,4.7646,5.898.6598.806,1.308,1.594,1.9502,2.394.3329.385.5898.805.5431,1.337v-.006Z" fill="#72c6fa"/><path d="M98.6615,132.267c-2.283,2.815-4.5777,5.641-6.8608,8.455-.9459,1.162-2.2538,1.15-3.1997-.012-.8759-1.074-1.7517-2.154-2.61-3.229-.6598-.805-1.3196-1.623-1.9678-2.423-.759-.934-1.5239-1.868-2.283-2.814-.146-.187-.2569-.356-.3445-.543-.3153-.66-.216-1.337.3153-1.997c2.3122-2.873,4.6361-5.728,6.9601-8.583.3853-.491.8875-.806,1.4655-.777.5314,0,.9459.146,1.2787.432.1168.088.1986.17.2862.286c1.6641,2.038,3.3282,4.093,4.9806,6.143.6598.806,1.3196,1.623,1.9794,2.441.7182.875.7182,1.751,0,2.627v-.006Z" fill="#1ca4f7"/><path d="M87.5507,146.03c-2.2363,2.785-4.4901,5.57-6.7615,8.338-.9926,1.22-2.2538,1.22-3.2581-.012-.7182-.876-1.4364-1.763-2.1546-2.639-1.5473-1.91-3.1005-3.819-4.6478-5.728-.07-.099-.146-.199-.216-.304-.1985-.315-.3328-.66-.3036-1.074-.0292-.502.1985-.917.5138-1.308c2.2538-2.785,4.5077-5.553,6.7615-8.338.835-1.022,1.7809-1.232,2.6684-.631.2277.158.4613.374.689.648c1.5765,1.951,3.1589,3.889,4.7354,5.839.6598.806,1.3196,1.624,1.9677,2.423.8058.993.8058,1.793,0,2.786h.0058Z" fill="#1ca4f7"/><path d="M87.5512,146.03c-2.2363,2.785-4.4902,5.57-6.7615,8.338-.9926,1.22-2.2539,1.22-3.2582-.012-.7182-.876-1.4364-1.763-2.1545-2.639c2.7559-.315,5.366-1.653,7.2461-3.702c1.7809-1.968,2.8436-4.549,2.9545-7.188.6598.806,1.3196,1.623,1.9678,2.423.8057.993.8057,1.793,0,2.786l.0058-.006Z" opacity="0.3" fill="#030073"/><path d="M98.6627,132.267c-2.283,2.815-4.5777,5.641-6.8608,8.455-.9459,1.162-2.2538,1.151-3.1997-.011-.8758-1.075-1.7517-2.155-2.61-3.229c2.9428-.187,5.7981-1.548,7.7775-3.749c1.6232-1.781,2.6567-4.116,2.9136-6.528.6598.806,1.3196,1.623,1.9794,2.441.7182.876.7182,1.751,0,2.627v-.006Z" opacity="0.3" fill="#030073"/><path d="M110.228,144.57c-.011.531-.157.934-.461,1.29-2.341,2.885-4.665,5.787-7.018,8.654-.847,1.033-2.167,1.022-3.0133-.012-.9926-1.22-1.9794-2.441-2.972-3.661c3.0304-.128,5.9963-1.524,8.0343-3.772c1.565-1.722,2.581-3.918,2.885-6.213.198.246.402.503.601.748.49.601.975,1.203,1.466,1.81.303.344.461.759.472,1.162l.006-.006Z" opacity="0.3" fill="#030073"/><path d="M99.1647,166.04c.0409.543-.1985.975-.5138,1.378-2.2363,2.756-4.4902,5.523-6.7323,8.279-.8583,1.063-1.9385,1.291-2.8261.619-.5021-.385-.8349-.917-1.2203-1.407-.6481-.788-1.3079-1.594-1.921-2.382c2.9545-.17,5.8272-1.548,7.8242-3.749c1.6057-1.763,2.6275-4.075,2.9019-6.475.6598.806,1.308,1.594,1.9502,2.394.3329.385.5898.805.5431,1.337l-.0059.006Z" opacity="0.3" fill="#030073"/><path d="M77.7355,141.867c-1.7809,2.166-4.4376,3.532-7.2169,3.818-.1986-.315-.3329-.66-.3037-1.074-.0292-.502.1985-.917.5139-1.308c2.2538-2.785,4.5076-5.553,6.7615-8.338.8349-1.022,1.7808-1.232,2.6684-.631.1693,2.698-.689,5.454-2.4232,7.533Z" opacity="0.45" fill="#fff"/><path d="M91.4153,120.77c.0584,2.558-.8057,5.121-2.4406,7.089-1.8685,2.236-4.677,3.632-7.579,3.83-.3153-.66-.216-1.337.3153-1.997c2.3122-2.872,4.6361-5.728,6.9601-8.583.3853-.49.8875-.806,1.4655-.777.5314,0,.9459.146,1.2787.433v.005Z" opacity="0.45" fill="#fff"/><path d="M102.405,134.463c.058,2.557-.806,5.121-2.4408,7.088-1.8509,2.225-4.6361,3.615-7.5322,3.831-.3037-.66-.1986-1.349.3328-2.009.6014-.759,1.2203-1.506,1.8217-2.265c1.4072-1.723,2.7969-3.457,4.2216-5.18.3153-.385.6306-.776.9459-1.162.73-.905,1.793-.992,2.657-.303h-.006Z" opacity="0.45" fill="#fff"/><path d="M91.4269,155.921c.0292,2.54-.8174,5.097-2.4523,7.059-1.8685,2.254-4.6654,3.644-7.5615,3.848-.3561-.7-.2277-1.337.3854-2.108c2.2363-2.796,4.5077-5.599,6.7732-8.379.8758-1.074,1.921-1.191,2.8552-.414v-.006Z" opacity="0.45" fill="#fff"/><path d="M101.336,156.475c-1.004,0-1.9733-.484-2.6623-1.331-2.3414-2.873-4.6828-5.751-7.0126-8.636-1.1152-1.378-1.121-3.024-.0175-4.396c2.7093-3.364,4.9515-6.12,7.0418-8.677.689-.841,1.6176-1.308,2.6156-1.308c1.04,0,2.015.502,2.75,1.407c1.267,1.559,2.534,3.118,3.796,4.683l3.17,3.912c.491.601.765,1.302.794,2.032v.076c-.005.841-.268,1.582-.776,2.213l-1.694,2.09c-1.792,2.213-3.579,4.426-5.383,6.627-.689.841-1.623,1.308-2.633,1.308h.011Zm-.035-21.429c-.146,0-.298.17-.356.24-2.0903,2.551-4.3208,5.307-7.03,8.665-.2277.28-.2511.403.0117.724c2.3297,2.878,4.6653,5.757,7.0063,8.624.135.164.281.257.403.257.158,0,.304-.146.374-.239c1.798-2.196,3.585-4.403,5.372-6.61l1.693-2.091c.076-.093.123-.181.129-.356-.006-.058-.035-.157-.141-.286l-3.176-3.918c-1.261-1.559-2.528-3.118-3.795-4.677-.199-.245-.386-.333-.491-.333Z" fill="#040f58"/><path d="M90.1548,178.039c-.6773,0-1.3546-.228-1.9619-.689-.5255-.397-.8758-.87-1.1911-1.285-.0934-.122-.1869-.245-.2803-.362-2.0495-2.51-4.0873-5.027-6.1192-7.555-1.2145-1.507-1.2145-3.037,0-4.543c2.3998-2.99,4.6361-5.751,6.8374-8.449.9926-1.214,2.0553-1.436,2.7735-1.466.7299,0,1.8159.269,2.8377,1.536c1.9094,2.365,3.8304,4.73,5.7456,7.089l1.0218,1.261c.2507.309.9167,1.127.8817,2.271.041,1.191-.631,2.02-.8583,2.301l-.1577.192c-2.2071,2.721-4.4143,5.442-6.6214,8.157-.8291,1.016-1.8685,1.542-2.9019,1.542h-.0059Zm.0409-21.429c-.0642,0-.2511.082-.5022.391-2.1954,2.686-4.4259,5.448-6.8199,8.432-.3503.437-.3503.443,0,.881c2.0262,2.517,4.064,5.033,6.1076,7.538.1226.146.2394.304.3503.456.2277.303.4204.56.6248.712.0992.076.327.245.835-.374c2.2129-2.715,4.4142-5.436,6.6213-8.151l.1518-.192c.1402-.176.2102-.298.2044-.368v-.094-.093c0-.012-.0292-.094-.2277-.339l-1.0218-1.261c-1.921-2.365-3.8421-4.724-5.7514-7.094-.2861-.357-.5021-.45-.578-.45l.0058.006Z" fill="#040f58"/><path d="M90.2131,142.678c-1.0277,0-2.0028-.508-2.7502-1.425-1.0802-1.325-2.1545-2.656-3.2289-3.982l-2.1429-2.645c-.5138-.63-1.0276-1.261-1.5356-1.897-1.1153-1.39-1.127-3.031-.0292-4.391c2.3297-2.891,4.6653-5.769,7.0067-8.648.724-.887,1.6583-1.36,2.6451-1.319c1.0977,0,1.9969.426,2.6742,1.255c2.3356,2.879,4.677,5.757,7.0068,8.642c1.1499,1.424,1.1559,3.059,0,4.484-2.3006,2.844-4.607,5.681-6.9134,8.519-.7357.905-1.7108,1.407-2.7268,1.407h-.0058Zm-.146-21.388c0,0-.1284.064-.2744.245-2.3356,2.879-4.6712,5.752-7.0009,8.642-.2044.257-.2511.374.0292.73.508.63,1.016,1.255,1.5298,1.886l2.1487,2.651c1.0744,1.325,2.1488,2.651,3.2231,3.976.2102.257.3854.345.4847.345.0934,0,.2685-.088.4671-.333c2.3064-2.832,4.6127-5.67,6.9074-8.513.2803-.345.2803-.462,0-.812-2.3297-2.885-4.6653-5.763-7.0067-8.636-.0934-.111-.1401-.181-.4321-.181h-.0409-.0408.0058Z" fill="#040f58"/><path d="M79.0965,156.47c-1.0218,0-2.0086-.52-2.7793-1.466-1.6758-2.055-3.3516-4.122-5.0215-6.184l-1.8276-2.253c-.2219-.275-.8992-1.11-.8525-2.313-.0175-.776.2569-1.506.8408-2.224l2.2071-2.721c1.5357-1.892,3.0713-3.784,4.6069-5.676c1.0219-1.249,2.0904-1.512,2.8144-1.512s1.7984.263,2.8319,1.53c2.2539,2.768,4.5019,5.541,6.7499,8.32c1.2495,1.548,1.2495,3.107.0058,4.648-2.2655,2.803-4.5369,5.606-6.8199,8.397-.7649.94-1.7459,1.454-2.7618,1.454h.0058Zm-.0058-21.424c-.0526,0-.2569.076-.5489.438-1.5356,1.886-3.0713,3.778-4.6069,5.67l-2.2072,2.721c-.1459.175-.1926.286-.1926.327v.087.088c0,.07.0642.187.1985.356l1.8276,2.254c1.6699,2.061,3.3399,4.122,5.0156,6.178.2511.309.4496.391.5139.391.0642,0,.2569-.082.5021-.38c2.2772-2.791,4.5486-5.588,6.8082-8.39.3621-.45.3796-.497-.0058-.975-2.2421-2.774-4.4902-5.547-6.744-8.309-.3036-.368-.5138-.45-.5664-.45l.0059-.006Z" fill="#040f58"/><path d="M88.6022,144.424c.1401.268.327.519.5955.66.3913.21.8701.14,1.2846,0c.6073-.211,1.1736-.596,1.4889-1.151.3154-.554.3329-1.308-.0525-1.816-.3211-.42-.87-.63-1.4013-.659-.5022-.03-1.5824-.047-1.9327.408-.508.66-.3329,1.886.0175,2.564v-.006Z" fill="#040f58"/><path d="M51.2442,168.539c-8.6475-14.907-9.7219-33.808-3.6844-49.947-.8642-.227-1.6291.217-2.3589.73-2.394,1.694-4.3092,4.274-5.0391,7.118-3.2639,12.717-2.2304,26.497,2.8903,38.578.0818.187.1402.374.1869.561-1.2087-.777-2.5049-1.408-3.8713-1.857-4.2857-1.419-9.0912-1.215-13.2427.566.1285.812.3036,1.839.4321,2.651c3.8537-1.647,8.3205-1.804,12.2851-.438c1.4131.491,2.756,1.174,3.9939,2.015-1.1269,2.271-3.8946,4.233-6.3528,4.893-3.6844.981-7.9176-.736-9.8737-4.006.3153,4.087,1.7867,8.467,5.4186,10.37c3.6376,1.904,8.2679.782,11.5553-1.687c1.6349-1.227,3.007-2.733,4.239-4.368.146.234.2803.467.4146.712.4263-.764.8759-1.465,1.2963-2.23-.0993-.164-.1986-.327-.2978-.491.6948-1.045,1.3605-2.107,2.0086-3.17Z" opacity="0.3" fill="#040f58"/><path d="M130.059,168.539c8.647-14.907,9.721-33.808,3.684-49.947.864-.227,1.629.217,2.359.73c2.394,1.694,4.309,4.274,5.039,7.118c3.264,12.717,2.23,26.497-2.89,38.578-.082.187-.141.374-.187.561c1.208-.777,2.505-1.408,3.871-1.857c4.286-1.419,9.091-1.215,13.243.566-.129.812-.304,1.839-.432,2.651-3.854-1.647-8.321-1.804-12.285-.438-1.413.491-2.756,1.174-3.994,2.015c1.127,2.271,3.894,4.233,6.352,4.893c3.685.981,7.918-.736,9.874-4.006-.315,4.087-1.787,8.467-5.418,10.37-3.638,1.904-8.268.782-11.556-1.687-1.635-1.227-3.007-2.733-4.239-4.368-.146.234-.28.467-.414.712-.427-.764-.876-1.465-1.297-2.23.1-.164.199-.327.298-.491-.695-1.045-1.36-2.107-2.008-3.17Z" opacity="0.3" fill="#040f58"/><g id="eExnNdq7HlG33_tr" transform="translate(90.19635,120.330208) rotate(0)"><g transform="translate(-92.19691,-119.329679)"><path d="M132.721,26.7689c3.331,0,6.032-2.7005,6.032-6.0317s-2.701-6.0316-6.032-6.0316-6.032,2.7004-6.032,6.0316s2.701,6.0317,6.032,6.0317Z" fill="#1ba5f8"/><path d="M119.098,22.0044L116.4,20.895c2.161-5.2609,4.73-8.2622,7.86-9.1847c2.411-.7065,5.021-.1051,7.754,1.7926l-1.67,2.3939c-1.997-1.3896-3.72-1.8451-5.261-1.3896-2.19.6422-4.204,3.1647-5.985,7.4913v.0059Z" fill="#040f58"/><path d="M132.714,28.2228c-.905,0-1.821-.1635-2.715-.5138-3.848-1.5006-5.757-5.8506-4.256-9.6985.73-1.8626,2.137-3.3341,3.97-4.134c1.834-.8058,3.866-.8466,5.734-.1168c3.848,1.5006,5.757,5.8506,4.257,9.6985-1.157,2.9545-3.988,4.7646-6.99,4.7646Zm.006-12.0574c-.625,0-1.243.1284-1.833.3853-1.121.4905-1.98,1.3897-2.423,2.5225-.917,2.3472.251,5.004,2.598,5.9207s5.004-.2511,5.921-2.5984c.443-1.1386.42-2.3823-.07-3.4975-.491-1.1211-1.39-1.9794-2.523-2.4232-.537-.2102-1.103-.3153-1.664-.3153l-.006.0059Z" fill="#040f58"/><path d="M127.857,20.8485c1.658,1.0861,3.871,1.2612,5.681.4555s3.153-2.575,3.451-4.5369c.986,1.7692,1.483,3.8887,1.004,5.8623-.479,1.9677-2.032,3.7253-4.017,4.134-1.191.2452-2.447.0117-3.579-.4321-1.162-.4554-2.278-1.162-2.949-2.213-.672-1.051-.275-2.2246.409-3.2698Z" opacity="0.3" fill="#040f58"/><path d="M100.133,25.7588c2.084-5.3368,8.151-7.9993,13.494-5.9148l8.116,3.1647c5.337,2.0845,7.999,8.1512,5.915,13.4938" fill="#fff"/><path d="M168.689,85.3921c5.337,2.0845,7.999,8.1512,5.915,13.4938l-3.165,8.1161c-2.084,5.337-8.151,7.999-13.494,5.915" fill="#2e73e9"/><path d="M36.8277,33.9275c-5.3368-2.0845-11.4093.578-13.4938,5.9148l-3.1647,8.1162c-2.0845,5.3368.578,11.4093,5.9148,13.4938" fill="#2e73e9"/><path d="M162.919,76.3999c6.049,3.5267,7.807,13.8792,3.825,24.0861-3.977,10.189-12.262,16.617-19.094,15.134" fill="#1ba5f8"/><path d="M47.1617,31.2299c-6.8375-1.5064-15.1405,4.9223-19.1226,15.1287-3.9763,10.189-2.2363,20.5298,3.7953,24.0682" fill="#1ba5f8"/><path d="M40.3078,42.2252L34.2597,57.722c-7.5928,19.4544,2.0229,41.3804,21.4773,48.973l49.765,19.423c19.454,7.592,41.38-2.023,48.973-21.478l6.048-15.4964c7.593-19.4544-2.023-41.3805-21.477-48.9733L89.2811,20.7478c-19.4544-7.5927-41.3805,2.023-48.9733,21.4774Z" fill="#fff"/><path d="M112.04,110.336c5.728,2.236,12.273.946,16.617-3.404c6.277-6.295,11.906-13.2371,16.91-20.7927c6.16-9.3131,2.061-21.9544-8.338-26.0125L77.0933,36.66c-10.3991-4.058-21.9836,2.4641-23.7528,13.488-1.4422,8.9511-2.0028,17.8672-1.6466,26.7483.2452,6.1425,4.1924,11.5261,9.9204,13.7566L112.045,110.336h-.005Z" fill="#441013"/><path d="M145.858,86.8342c-5.057,7.6432-10.744,14.6618-17.097,21.0198-4.385,4.403-11.012,5.711-16.799,3.451L60.9767,91.4061c-5.7923-2.2596-9.7745-7.7074-10.0314-13.92c4.2216-4.1223,10.4926-5.8156,16.4367-5.6054c6.4579.2335,12.6647,2.4231,18.7255,4.677c6.0667,2.2421,12.1918,4.5777,18.6325,5.1383c7.374.6364,14.854-1.1561,21.452-4.5135c6.37-3.2582,11.941-7.9469,16.664-13.3129c6.312,5.6638,8.006,15.3974,3.002,22.9588v.0058Z" fill="#ec1c26" fill-opacity="0.2"/><path d="M119.168,130.153c-4.806,0-9.605-.893-14.201-2.686l-49.765-19.42c-9.7336-3.801-17.4235-11.1991-21.645-20.8275-4.2274-9.6343-4.461-20.302-.6598-30.0356l6.0491-15.4966c3.7953-9.7335,11.1933-17.4234,20.8276-21.645c9.6342-4.2274,20.302-4.4609,30.0356-.6598L139.575,38.8029c20.173,7.8709,30.181,30.6895,22.311,50.8631l-6.05,15.497c-3.795,9.733-11.193,17.423-20.827,21.645-5.086,2.23-10.464,3.351-15.835,3.351l-.006-.006ZM75.6091,19.6102c-4.9748,0-9.9496,1.0335-14.6616,3.1005-8.9219,3.9121-15.7652,11.0298-19.2802,20.0335L35.6181,58.2408c-3.515,9.0095-3.299,18.8773.6131,27.7992s11.024,15.765,20.0335,19.28L106.03,124.741c9.004,3.515,18.877,3.299,27.799-.613c8.922-3.913,15.766-11.03,19.281-20.034l6.049-15.4965c7.287-18.673-1.974-39.7925-20.653-47.0853L88.7409,22.0918c-4.2507-1.6583-8.6942-2.4874-13.1376-2.4874l.0058.0058Z" fill="#040f58"/><path d="M149.642,117.29c-.776,0-1.547-.082-2.306-.245l.619-2.855c6.131,1.331,13.791-4.928,17.423-14.2416c3.644-9.3365,2.237-19.1284-3.194-22.2932l1.472-2.5224c6.755,3.9355,8.671,15.0587,4.449,25.8782-3.795,9.722-11.409,16.273-18.457,16.273l-.006.006Z" fill="#040f58"/><path d="M161.717,115.083c-1.454,0-2.907-.268-4.297-.811l1.063-2.721c2.218.864,4.647.811,6.849-.152c2.201-.964,3.888-2.715,4.753-4.934l3.164-8.1162c.864-2.2188.812-4.6478-.151-6.8491-.964-2.2013-2.716-3.8829-4.934-4.7529l1.062-2.7209c2.943,1.1503,5.273,3.3866,6.546,6.3002c1.278,2.9136,1.349,6.1368.198,9.0854l-3.164,8.1165c-1.151,2.943-3.387,5.272-6.301,6.545-1.535.672-3.164,1.01-4.788,1.01Z" fill="#040f58"/><path d="M129.013,37.0278l-2.721-1.0626c.865-2.2188.812-4.6479-.151-6.8491-.964-2.2013-2.716-3.8888-4.934-4.7529l-8.116-3.1648c-2.219-.8641-4.648-.8116-6.85.1519-2.201.9634-3.888,2.7151-4.752,4.9339l-2.7214-1.0627c1.1503-2.9429,3.3864-5.2726,6.3004-6.5455c2.913-1.2787,6.137-1.3488,9.085-.1985l8.116,3.1647c2.943,1.1503,5.267,3.3866,6.546,6.3002c1.279,2.9137,1.349,6.1368.198,9.0854Z" fill="#040f58"/><path d="M132.721,59.7009c-16.121-5.15-33.0308-10.9773-48.9712-16.7111L77.6656,40.806c-1.9911-.7532-3.807-1.343-5.8915-1.413-6.0024-.3095-11.9757,3.2347-14.5507,8.6767-.9576,1.8684-1.3079,3.8537-1.7283,5.9382-.7824,3.7019-2.0962,8.9394-2.5691,12.6588L51.8633,66.62c.2219-4.4201,1.0276-8.6942,1.74-12.9333.3445-2.1429.6948-4.4843,1.6583-6.4987c3.9354-8.8344,14.5156-12.4604,23.204-8.4899c2.5399.9109,50.8344,18.6321,54.6234,20.0043l-.362.9985h-.006Z" opacity="0.55" fill="#ec1c26" fill-opacity="0.4"/><path d="M31.0939,71.6822c-6.7264-3.953-8.6299-15.0645-4.4142-25.8607C30.9012,35.0077,39.8465,28.1177,47.478,29.7994l-.6247,2.8494c-6.1484-1.3547-13.8092,4.8988-17.4527,14.2353-3.6318,9.3132-2.2421,19.0993,3.1764,22.2815l-1.4772,2.5166h-.0059Z" fill="#040f58"/><path d="M25.5584,62.8126c-2.9428-1.1502-5.2667-3.3866-6.5455-6.3002-1.2787-2.9136-1.3488-6.1367-.1985-9.0854l3.1647-8.1162c1.1503-2.9428,3.3866-5.2725,6.3003-6.5454c2.9136-1.2788,6.1367-1.3488,9.0854-.1986l-1.0627,2.721c-2.2188-.8642-4.6478-.8116-6.8491.1518s-3.8888,2.7151-4.7529,4.9339l-3.1647,8.1162c-.8642,2.2188-.8117,4.6478.1518,6.8491s2.7151,3.8887,4.9339,4.7529l-1.0627,2.7209Z" fill="#040f58"/><path d="M117.768,112.882c-2.102,0-4.221-.385-6.259-1.18L61.0718,92.0194c-6.3177-2.4641-10.5743-8.3789-10.8429-15.0587-.3562-8.8635.2044-17.9606,1.6641-27.0402.9109-5.658,4.2975-10.5393,9.2898-13.3946c5.039-2.8844,11.0298-3.3282,16.4367-1.2203L137.755,58.7723c5.407,2.1079,9.511,6.493,11.263,12.0283c1.74,5.4828.923,11.3684-2.236,16.1505-5.074,7.6666-10.826,14.7379-17.091,21.0199-3.199,3.206-7.509,4.917-11.923,4.917v-.006ZM70.6711,36.9055c-2.7794,0-5.5412.724-8.0344,2.1487-4.2274,2.4173-7.0885,6.5455-7.8592,11.3276-1.4306,8.8869-1.9794,17.7913-1.6291,26.4621.2219,5.5237,3.7486,10.4109,8.992,12.4603L112.577,108.987c5.244,2.044,11.147.835,15.053-3.077c6.131-6.1424,11.76-13.0674,16.723-20.5704c2.674-4.0406,3.363-9.0154,1.892-13.6573-1.489-4.6887-4.963-8.4081-9.547-10.1948L76.5626,38.0207c-1.9093-.7474-3.9063-1.1152-5.8915-1.1152Z" fill="#040f58"/><path d="M21.5536,46.2769c1.4072,1.8509,3.5384,3.1413,5.8331,3.5325-1.4247,3.3633-1.775,7.1819-1.1678,10.7787-2.3881-.146-4.6887-1.775-5.6112-3.9821-.6481-1.5415-.6715-3.2815-.362-4.9281.3094-1.6408.6948-3.8537,1.3137-5.401h-.0058Z" opacity="0.3" fill="#040f58"/><path d="M29.1025,47.0478c1.9268,2.4641,5.0507,3.953,8.1803,3.9005-3.4741,5.2492-5.2609,11.6078-5.074,17.8963-2.0904-.4671-3.8479-2.1545-4.7879-4.0814-.9401-1.9268-1.2087-4.1106-1.2379-6.2535-.0526-3.9822,1.4539-7.7658,2.9195-11.4677v.0058Z" opacity="0.3" fill="#040f58"/><path d="M171.567,104.819c-2.288.408-4.729-.088-6.679-1.355-1.232,3.433-3.562,6.487-6.441,8.723c1.857,1.513,4.648,1.869,6.826.87c1.518-.695,2.715-1.962,3.603-3.375.887-1.413,2.096-3.304,2.691-4.863Z" opacity="0.3" fill="#040f58"/><path d="M165.483,100.276c-3.088.508-6.393-.514-8.665-2.6744-1.004,6.2124-3.994,12.0984-8.39,16.6064c1.857,1.074,4.291,1.021,6.282.245c1.997-.783,3.673-2.207,5.145-3.766c2.738-2.891,4.192-6.698,5.622-10.411h.006Z" opacity="0.3" fill="#040f58"/><path d="M103.894,22.1973c4.362,2.2538,8.928,4.1106,13.622,5.5353c1.507.4554,3.048.8758,4.619.8583s3.2-.5196,4.28-1.6582c1.687,2.3414,2.295,5.3776,1.454,8.1336-.094-.035-.187.0292-.28,0L100.975,24.6788c.846-1.3371,1.348-2.2538,2.919-2.4757v-.0058Z" opacity="0.3" fill="#040f58"/><path d="M160.17,59.7651c.566,14.5682-3.959,29.2882-12.618,41.0249-4.916,6.656-12.034,13.925-20.606,15.012-11.759,1.488-21.645-2.827-32.2248-7.124-12.1742-4.946-24.8214-8.8869-36.6979-14.3872-5.5003-2.5458-10.6152-4.4492-15.3564-8.4372-4.496-3.7837-8.2621-8.4549-10.9189-13.7041C32.9917,86.817,42.6202,100.305,56.0439,106.348c13.4413,5.244,26.8826,10.493,40.3239,15.736c11.4792,4.479,22.7662,8.093,35.1152,3.977c7.784-2.593,14.679-7.778,19.327-14.539c3.836-5.582,6.114-12.0637,8.274-18.4865c1.787-5.3018,3.533-10.6737,4.07-16.244s.262-11.9056-2.675-16.6702l-.309-.3679v.0117Z" opacity="0.3" fill="#040f58"/><g id="eExnNdq7HlG60_ts" transform="translate(97.506622,75.675236) scale(1,1)"><path id="eExnNdq7HlG60" d="M101.049,92.1307l-.577-.2829c-.8144-.397-1.073-1.083-1.202-1.4172l-.0325-.0923-.8049-1.7353c-1.0587-2.2871-2.1609-4.6486-3.2041-6.9946-1.4643.7074-2.9588,1.3868-4.4014,2.0467-1.4139.6472-2.8277,1.2943-4.2349,1.9647-.2757.1327-1.1141.537-1.9966.2067l-.0234.0008c-.8831-.3477-1.2414-1.2053-1.3758-1.5277-.4933-1.1974-1.0512-2.4042-1.649-3.5861-.1573-.3098-.5787-1.1359-.2606-2.0297.3238-.8998,1.1864-1.2817,1.474-1.4089c1.6045-.7067,3.1905-1.4419,4.7823-2.1774c1.293-.596,2.5802-1.1919,3.8797-1.7707-.7776-1.6253-1.5387-3.2805-2.2685-4.8783-.5965-1.3047-1.199-2.615-1.807-3.9135-.1391-.2929-.5061-1.0684-.1802-1.9099.3261-.8356,1.1146-1.168,1.3794-1.2769c1.3699-.5697,2.6803-1.1722,3.8791-1.7883.2581-.132,1.044-.5344,1.914-.2271.0117-.0004.0177.0052.0296.0106.8469.3141,1.2029,1.1075,1.3364,1.4065.5466,1.2188,1.1108,2.4371,1.6747,3.6495.7734,1.6722,1.5779,3.3959,2.3243,5.1275c1.4994-.7145,3.0164-1.4122,4.5224-2.1036c1.396-.6408,2.787-1.2813,4.177-1.9393.345-.1644,1.137-.5437,2.002-.2244.012-.0005.024.0108.035.0104.872.3423,1.211,1.1772,1.321,1.4537.481,1.1862,1.046,2.4219,1.732,3.7701.232.459.509,1.156.233,1.9256-.276.7754-.929,1.1437-1.4,1.3478-1.501.6679-2.99,1.3528-4.478,2.0436-1.442.6657-2.885,1.3315-4.333,1.98.721,1.5163,1.418,3.0394,2.122,4.5622.641,1.3966,1.288,2.7988,1.946,4.1889.139.2988.518,1.0914.187,1.9506-.331.8533-1.154,1.1928-1.419,1.3076-.892.3653-1.8.7897-2.673,1.2011-.426.1966-.845.3987-1.27.5894-.19.0829-.38.1599-.565.2308l-.777.3028-.018.0065ZM96.356,78.541c.8705.319,1.2333,1.1414,1.4055,1.5383c1.0816,2.4381,2.2226,4.9033,3.3315,7.2879l.608,1.3101c.236-.1078.471-.2215.701-.3292.736-.348,1.494-.7027,2.265-1.0344-.582-1.2351-1.153-2.4823-1.724-3.7237-.768-1.6666-1.535-3.339-2.326-4.9931-.227-.465-.486-1.1743-.21-1.938.314-.8469,1.085-1.1904,1.458-1.3558c1.587-.7061,3.162-1.4292,4.737-2.1582c1.327-.6148,2.66-1.224,3.994-1.8274-.517-1.0447-.967-2.0275-1.37-2.9769-1.258.5948-2.522,1.1723-3.787,1.7556-1.574.7231-3.149,1.4463-4.711,2.1923-.408.1959-1.258.6007-2.1581.271l-.0058.0002c-.8175-.3092-1.2122-1.0428-1.4415-1.5662-.772-1.7949-1.6147-3.6049-2.4259-5.3517-.4942-1.063-.9826-2.1262-1.471-3.1895-.9472.4667-1.9412.9293-2.9828,1.3702.5318,1.1317,1.0521,2.2697,1.5723,3.4019.7932,1.7358,1.6177,3.5289,2.4579,5.2688.2276.4767.5049,1.197.2175,1.9728-.3136.8586-1.1072,1.2087-1.4866,1.3802-1.4145.6297-2.8224,1.2825-4.2304,1.9295-1.4653.6783-2.9307,1.3565-4.4029,2.0058.4915.9872.9484,1.9873,1.376,2.9826c1.2751-.6071,2.5625-1.1972,3.8499-1.7872c1.5576-.7108,3.1725-1.4529,4.7343-2.2107.488-.2397,1.2314-.5237,2.0249-.2311l.0002.0059Z" transform="translate(-97.506622,-75.675236)" fill="#ec1c26"/></g></g></g></g></g><g id="eExnNdq7HlG61_ts" transform="translate(90.47559,239) scale(1,1)"><path d="M90.3372,239c25.3758,0,45.9468-4.197,45.9468-9.375c0-5.177-20.571-9.374-45.9468-9.374-25.3756,0-45.9466,4.197-45.9466,9.374c0,5.178,20.571,9.375,45.9466,9.375Z" transform="translate(-90.47559,-239)" opacity="0.5" fill="#97a5ba"/></g></svg>