<svg id="Capa_1" enable-background="new 0 0 511.994 511.994" height="512" viewBox="0 0 511.994 511.994" width="512" xmlns="http://www.w3.org/2000/svg"><g><path d="m490.978 203.847c-7.927.057-15.853.226-23.774.507v133.942c7.921.28 15.847.449 23.774.507 3.594.026 6.689-2.526 7.398-6.049 8.165-40.545 8.165-82.312 0-122.857-.709-3.523-3.805-6.076-7.398-6.05z" fill="#fbf0a8"/><path d="m467.204 204.354c-10.018.354-20.03.887-30.032 1.597-37.361 2.655-101.347 7.202-142.422 10.12v110.507l142.416 10.12c10.003.711 20.018 1.243 30.038 1.598 9.723-44.118 9.723-89.824 0-133.942z" fill="#fffbdb"/><path d="m13.624 209.897c-8.166 40.545-8.166 82.312-.001 122.857.71 3.523 3.805 6.075 7.398 6.049 17.955-.13 35.901-.832 53.812-2.104l142.416-10.12v-110.507c-41.075-2.919-105.061-7.466-142.422-10.12-17.911-1.273-35.851-1.974-53.805-2.104-3.593-.027-6.688 2.525-7.398 6.049z" fill="#fffbdb"/><g fill="#504e78"><path d="m278 136.325h-17.948c-4.143 0-7.5 3.358-7.5 7.5s3.357 7.5 7.5 7.5h9.581c-1.914 7.951-7.174 15-17.53 15-12.406 0-22.5-10.093-22.5-22.5s10.094-22.5 22.5-22.5c4.51 0 8.858 1.327 12.575 3.838 3.432 2.318 8.094 1.416 10.413-2.016 2.318-3.432 1.416-8.095-2.017-10.414-6.205-4.192-13.458-6.409-20.972-6.409-20.678 0-37.5 16.822-37.5 37.5s16.822 37.5 37.5 37.5c19.664 0 33.397-15.42 33.397-37.5.001-4.141-3.356-7.499-7.499-7.499z"/><path d="m343.296 129.419c0-12.734-10.756-23.093-23.976-23.093h-15.953c-4.142 0-7.499 3.357-7.5 7.499l-.01 60c-.001 4.142 3.356 7.5 7.499 7.501 4.143 0 7.5-3.357 7.501-7.499l.003-16.982 19.305 21.936c1.482 1.685 3.553 2.545 5.633 2.545 1.76 0 3.527-.616 4.952-1.87 3.109-2.736 3.411-7.476.675-10.585l-15.249-17.326c9.89-2.849 17.12-11.687 17.12-22.126zm-23.976 8.093c-1.975 0-5.335.014-8.457.029l.003-16.215h8.454c4.865 0 8.976 3.706 8.976 8.093s-4.11 8.093-8.976 8.093z"/><path d="m61.215 159.607c-3.174-2.66-7.905-2.241-10.565.934-.519.62-1.082 1.201-1.673 1.727-3.023 2.693-6.885 4.058-11.477 4.058-12.406 0-22.5-10.093-22.5-22.5s10.094-22.5 22.5-22.5c4.51 0 8.858 1.327 12.575 3.838 3.433 2.318 8.095 1.416 10.413-2.016s1.416-8.095-2.017-10.414c-6.205-4.192-13.458-6.409-20.972-6.409-20.678 0-37.5 16.822-37.5 37.5s16.822 37.5 37.5 37.5c8.263 0 15.682-2.716 21.452-7.856 1.135-1.01 2.21-2.12 3.197-3.297 2.661-3.175 2.243-7.906-.933-10.565z"/><path d="m103.745 106.325c-20.678 0-37.5 16.822-37.5 37.5s16.822 37.5 37.5 37.5 37.5-16.822 37.5-37.5-16.822-37.5-37.5-37.5zm0 60c-12.406 0-22.5-10.093-22.5-22.5s10.094-22.5 22.5-22.5 22.5 10.093 22.5 22.5-10.094 22.5-22.5 22.5z"/><path d="m494.251 136.883c-7.369-2.718-14.23-5.679-16.337-6.601-1.633-1.313-1.578-3.142-1.469-3.904.152-1.059.922-3.647 4.772-4.808 8.454-2.547 16.293 3.641 16.513 3.818 3.169 2.629 7.874 2.211 10.528-.948 2.665-3.17 2.256-7.901-.915-10.567-.565-.477-14.064-11.602-30.452-6.666-8.283 2.495-14.144 9.024-15.294 17.038-1.079 7.52 2.18 14.753 8.507 18.878.331.216.679.405 1.04.566.347.155 8.61 3.833 17.915 7.266 2.631.97 8.663 3.708 7.867 8.168-.599 3.353-4.683 6.822-10.481 6.822-5.964 0-11.702-2.404-15.351-6.43-2.782-3.071-7.526-3.301-10.594-.521-3.069 2.782-3.303 7.524-.521 10.594 6.444 7.112 16.339 11.357 26.466 11.357 12.645 0 23.263-8.069 25.248-19.186 1.494-8.364-2.304-19.292-17.442-24.876z"/><path d="m387.379 111.641c-.025-.069-.053-.138-.081-.207-1.373-3.334-4.588-5.488-8.193-5.488-3.616.003-6.832 2.164-8.199 5.503-.023.057-.046.115-.068.173l-22.529 59.155c-1.475 3.871.469 8.204 4.34 9.678.878.335 1.78.493 2.668.493 3.021 0 5.87-1.84 7.01-4.833l3.771-9.902h25.846l3.729 9.88c1.462 3.875 5.792 5.833 9.665 4.369 3.875-1.463 5.831-5.79 4.368-9.665zm-15.57 39.573 7.269-19.086 7.203 19.086z"/><path d="m447.322 105.947h-33.135c-4.143 0-7.5 3.358-7.5 7.5s3.357 7.5 7.5 7.5h9v52.5c0 4.142 3.357 7.5 7.5 7.5s7.5-3.358 7.5-7.5v-52.5h9.135c4.143 0 7.5-3.358 7.5-7.5s-3.357-7.5-7.5-7.5z"/><path d="m198.103 106.059c-4.143 0-7.5 3.358-7.5 7.5v35.829l-27.686-40.091c-1.865-2.701-5.268-3.874-8.404-2.898-3.133.977-5.268 3.878-5.268 7.16v59.888c0 4.142 3.357 7.5 7.5 7.5s7.5-3.358 7.5-7.5v-35.829l27.686 40.091c1.427 2.066 3.755 3.239 6.173 3.239.743 0 1.494-.111 2.231-.34 3.133-.977 5.268-3.878 5.268-7.16v-59.888c0-4.143-3.358-7.501-7.5-7.501z"/></g><path d="m217.25 296.579 38.75 87.246 26.659 20.639c4.929 3.816 12.091.303 12.091-5.93v-101.955z" fill="#e84941"/><path d="m217.25 296.579v101.955c0 6.233 7.162 9.746 12.091 5.93l26.659-20.639v-87.246z" fill="#fa6348"/><circle cx="256" cy="271.325" fill="#fc7c49" r="67.5"/><path d="m256 233.825v75c20.711 0 37.5-16.789 37.5-37.5s-16.789-37.5-37.5-37.5z" fill="#e84941"/><path d="m263.5 271.325c0-20.711-3.358-37.5-7.5-37.5-20.711 0-37.5 16.789-37.5 37.5s16.789 37.5 37.5 37.5c4.142 0 7.5-16.789 7.5-37.5z" fill="#fa6348"/></g></svg>