<svg width="12" height="12" viewBox="0 0 12 12" fill="none" xmlns="http://www.w3.org/2000/svg">
    <path fill-rule="evenodd" clip-rule="evenodd" d="M11.8536 6.4399L6.67157 11.8472C6.47631 12.0509 6.15973 12.0509 5.96447 11.8472L0.782487 6.4399C0.587225 6.23615 0.587225 5.9058 0.782487 5.70205C0.977749 5.4983 1.29433 5.4983 1.48959 5.70205L5.81802 10.2187L5.81802 0.500001C5.81802 0.223858 6.04188 8.10251e-07 6.31802 7.72698e-07C6.59416 7.35145e-07 6.81802 0.223859 6.81802 0.500001L6.81802 10.2187L11.1464 5.70205C11.3417 5.4983 11.6583 5.4983 11.8536 5.70205C12.0488 5.9058 12.0488 6.23615 11.8536 6.4399Z" fill="#5B6C84"/>
</svg>
