<svg width="27" height="27" viewBox="0 0 27 27" fill="none" xmlns="http://www.w3.org/2000/svg">
    <path fill-rule="evenodd" clip-rule="evenodd" d="M13.5 6.99993C13.8388 6.99993 14.1546 7.1715 14.339 7.45576L18.2272 13.4504C18.4418 13.7814 18.4418 14.2077 18.2272 14.5387L14.339 20.5334C14.1546 20.8176 13.8388 20.9892 13.5 20.9892C13.1612 20.9892 12.8454 20.8176 12.661 20.5334L8.77285 14.5387C8.55815 14.2077 8.55815 13.7814 8.77285 13.4504L12.661 7.45576C12.8454 7.1715 13.1612 6.99993 13.5 6.99993ZM13.5 9.8376L10.8038 13.9946L13.5 18.1515L16.1962 13.9946L13.5 9.8376Z" fill="#323232"/>
    <path fill-rule="evenodd" clip-rule="evenodd" d="M21.6317 5.36828C17.1407 0.877247 9.85932 0.877244 5.36828 5.36828L4.66117 4.66117L5.36828 5.36828C0.877247 9.85929 0.877244 17.1407 5.36828 21.6317C9.85929 26.1228 17.1407 26.1228 21.6317 21.6317C26.1228 17.1407 26.1228 9.85932 21.6317 5.36828ZM3.95406 3.95406C9.22615 -1.31802 17.7739 -1.31802 23.0459 3.95407C28.318 9.22615 28.318 17.7739 23.0459 23.0459C17.7739 28.318 9.22612 28.318 3.95406 23.0459C-1.31802 17.7739 -1.31802 9.22612 3.95406 3.95406Z" fill="#323232"/>
</svg>
