<svg width="150" height="130" viewBox="0 0 150 130" fill="none" xmlns="http://www.w3.org/2000/svg">
    <path d="M11.3541 69.084C10.9981 69.084 10.6241 69.072 10.2321 69.048C9.84011 69.028 9.44211 68.994 9.03811 68.946V60.3C9.43011 60.216 9.85811 60.15 10.3221 60.102C10.7861 60.05 11.2381 60.024 11.6781 60.024C13.2381 60.024 14.4141 60.394 15.2061 61.134C16.0021 61.87 16.4001 63.012 16.4001 64.56C16.4001 66.14 15.9801 67.29 15.1401 68.01C14.3001 68.726 13.0381 69.084 11.3541 69.084ZM11.7501 67.764C12.7541 67.764 13.5041 67.518 14.0001 67.026C14.5001 66.534 14.7501 65.71 14.7501 64.554C14.7501 63.41 14.5021 62.588 14.0061 62.088C13.5101 61.588 12.7681 61.338 11.7801 61.338C11.6041 61.338 11.4161 61.348 11.2161 61.368C11.0161 61.384 10.8241 61.408 10.6401 61.44V67.71C10.8201 67.73 10.9981 67.744 11.1741 67.752C11.3541 67.76 11.5461 67.764 11.7501 67.764ZM17.7312 69V62.454H19.0272L19.1532 63.312H19.2312C19.4312 62.992 19.6892 62.756 20.0052 62.604C20.3212 62.452 20.6632 62.376 21.0312 62.376C21.1272 62.376 21.2192 62.38 21.3072 62.388C21.3952 62.396 21.4772 62.406 21.5532 62.418V63.852C21.4572 63.836 21.3552 63.826 21.2472 63.822C21.1432 63.814 21.0392 63.81 20.9352 63.81C20.6432 63.81 20.3432 63.872 20.0352 63.996C19.7312 64.116 19.4892 64.298 19.3092 64.542V69H17.7312ZM23.9183 69.114C23.2663 69.114 22.7563 68.946 22.3883 68.61C22.0243 68.274 21.8423 67.824 21.8423 67.26C21.8423 66.66 22.0463 66.192 22.4543 65.856C22.8663 65.516 23.5283 65.312 24.4403 65.244L25.6583 65.13V64.872C25.6583 64.372 25.5363 64.03 25.2923 63.846C25.0483 63.662 24.6503 63.57 24.0983 63.57C23.8463 63.57 23.5623 63.592 23.2463 63.636C22.9343 63.68 22.6283 63.748 22.3283 63.84V62.634C22.6363 62.542 22.9723 62.472 23.3363 62.424C23.7043 62.376 24.0483 62.352 24.3683 62.352C25.0123 62.352 25.5423 62.434 25.9583 62.598C26.3783 62.758 26.6903 63.03 26.8943 63.414C27.0983 63.794 27.2003 64.312 27.2003 64.968V69H25.8983L25.7843 68.322H25.7063C25.5023 68.59 25.2443 68.79 24.9323 68.922C24.6203 69.05 24.2823 69.114 23.9183 69.114ZM23.4083 67.11C23.4083 67.698 23.7403 67.992 24.4043 67.992C24.6203 67.992 24.8383 67.95 25.0583 67.866C25.2783 67.782 25.4783 67.642 25.6583 67.446V66.054L24.5903 66.15C24.1703 66.19 23.8683 66.29 23.6843 66.45C23.5003 66.61 23.4083 66.83 23.4083 67.11ZM30.9259 71.76C30.5979 71.76 30.2499 71.738 29.8819 71.694C29.5139 71.65 29.1639 71.58 28.8319 71.484V70.23C29.1879 70.334 29.5319 70.41 29.8639 70.458C30.1999 70.506 30.5159 70.53 30.8119 70.53C31.4759 70.53 31.9599 70.398 32.2639 70.134C32.5719 69.874 32.7259 69.432 32.7259 68.808V68.304H32.6479C32.4559 68.532 32.2139 68.714 31.9219 68.85C31.6299 68.986 31.2939 69.054 30.9139 69.054C30.4659 69.054 30.0499 68.946 29.6659 68.73C29.2819 68.51 28.9719 68.166 28.7359 67.698C28.5039 67.226 28.3879 66.614 28.3879 65.862C28.3879 64.714 28.6859 63.842 29.2819 63.246C29.8779 62.65 30.7719 62.352 31.9639 62.352C32.3519 62.352 32.7539 62.382 33.1699 62.442C33.5899 62.498 33.9679 62.582 34.3039 62.694V68.526C34.3039 69.67 34.0239 70.494 33.4639 70.998C32.9079 71.506 32.0619 71.76 30.9259 71.76ZM31.4839 67.758C31.7119 67.758 31.9359 67.716 32.1559 67.632C32.3799 67.548 32.5699 67.416 32.7259 67.236V63.672C32.6099 63.64 32.4719 63.614 32.3119 63.594C32.1559 63.574 31.9939 63.564 31.8259 63.564C31.2259 63.564 30.7679 63.732 30.4519 64.068C30.1359 64.4 29.9779 64.952 29.9779 65.724C29.9779 66.252 30.0419 66.664 30.1699 66.96C30.2979 67.256 30.4739 67.464 30.6979 67.584C30.9259 67.7 31.1879 67.758 31.4839 67.758ZM40.5824 69.114C39.9304 69.114 39.4204 68.946 39.0524 68.61C38.6884 68.274 38.5064 67.824 38.5064 67.26C38.5064 66.66 38.7104 66.192 39.1184 65.856C39.5304 65.516 40.1924 65.312 41.1044 65.244L42.3224 65.13V64.872C42.3224 64.372 42.2004 64.03 41.9564 63.846C41.7124 63.662 41.3144 63.57 40.7624 63.57C40.5104 63.57 40.2264 63.592 39.9104 63.636C39.5984 63.68 39.2924 63.748 38.9924 63.84V62.634C39.3004 62.542 39.6364 62.472 40.0004 62.424C40.3684 62.376 40.7124 62.352 41.0324 62.352C41.6764 62.352 42.2064 62.434 42.6224 62.598C43.0424 62.758 43.3544 63.03 43.5584 63.414C43.7624 63.794 43.8644 64.312 43.8644 64.968V69H42.5624L42.4484 68.322H42.3704C42.1664 68.59 41.9084 68.79 41.5964 68.922C41.2844 69.05 40.9464 69.114 40.5824 69.114ZM40.0724 67.11C40.0724 67.698 40.4044 67.992 41.0684 67.992C41.2844 67.992 41.5024 67.95 41.7224 67.866C41.9424 67.782 42.1424 67.642 42.3224 67.446V66.054L41.2544 66.15C40.8344 66.19 40.5324 66.29 40.3484 66.45C40.1644 66.61 40.0724 66.83 40.0724 67.11ZM45.364 69V62.454H46.672L46.78 63.144H46.858C47.374 62.616 48.03 62.352 48.826 62.352C49.25 62.352 49.626 62.434 49.954 62.598C50.286 62.762 50.546 63.026 50.734 63.39C50.922 63.75 51.016 64.232 51.016 64.836V69H49.438V64.926C49.438 64.474 49.34 64.16 49.144 63.984C48.952 63.808 48.69 63.72 48.358 63.72C48.118 63.72 47.866 63.772 47.602 63.876C47.342 63.976 47.122 64.142 46.942 64.374V69H45.364ZM54.8464 69.114C54.3664 69.114 53.9244 69.006 53.5204 68.79C53.1204 68.57 52.8004 68.222 52.5604 67.746C52.3204 67.266 52.2004 66.638 52.2004 65.862C52.2004 64.706 52.4944 63.832 53.0824 63.24C53.6744 62.644 54.5384 62.346 55.6744 62.346C55.8264 62.346 55.9764 62.354 56.1244 62.37C56.2724 62.382 56.4104 62.396 56.5384 62.412V59.304H58.1164V69H56.7904L56.6884 68.304H56.6104C56.4184 68.548 56.1724 68.744 55.8724 68.892C55.5764 69.04 55.2344 69.114 54.8464 69.114ZM55.2904 67.812C55.5184 67.812 55.7444 67.766 55.9684 67.674C56.1924 67.582 56.3824 67.438 56.5384 67.242V63.654C56.4224 63.63 56.2844 63.61 56.1244 63.594C55.9684 63.574 55.8164 63.564 55.6684 63.564C55.0444 63.564 54.5744 63.732 54.2584 64.068C53.9464 64.404 53.7904 64.96 53.7904 65.736C53.7904 66.272 53.8524 66.692 53.9764 66.996C54.1044 67.296 54.2804 67.508 54.5044 67.632C54.7324 67.752 54.9944 67.812 55.2904 67.812ZM64.9949 69.114C64.5149 69.114 64.0729 69.006 63.6689 68.79C63.2689 68.57 62.9489 68.222 62.7089 67.746C62.4689 67.266 62.3489 66.638 62.3489 65.862C62.3489 64.706 62.6429 63.832 63.2309 63.24C63.8229 62.644 64.6869 62.346 65.8229 62.346C65.9749 62.346 66.1249 62.354 66.2729 62.37C66.4209 62.382 66.5589 62.396 66.6869 62.412V59.304H68.2649V69H66.9389L66.8369 68.304H66.7589C66.5669 68.548 66.3209 68.744 66.0209 68.892C65.7249 69.04 65.3829 69.114 64.9949 69.114ZM65.4389 67.812C65.6669 67.812 65.8929 67.766 66.1169 67.674C66.3409 67.582 66.5309 67.438 66.6869 67.242V63.654C66.5709 63.63 66.4329 63.61 66.2729 63.594C66.1169 63.574 65.9649 63.564 65.8169 63.564C65.1929 63.564 64.7229 63.732 64.4069 64.068C64.0949 64.404 63.9389 64.96 63.9389 65.736C63.9389 66.272 64.0009 66.692 64.1249 66.996C64.2529 67.296 64.4289 67.508 64.6529 67.632C64.8809 67.752 65.1429 67.812 65.4389 67.812ZM69.821 69V62.454H71.117L71.243 63.312H71.321C71.521 62.992 71.779 62.756 72.095 62.604C72.411 62.452 72.753 62.376 73.121 62.376C73.217 62.376 73.309 62.38 73.397 62.388C73.485 62.396 73.567 62.406 73.643 62.418V63.852C73.547 63.836 73.445 63.826 73.337 63.822C73.233 63.814 73.129 63.81 73.025 63.81C72.733 63.81 72.433 63.872 72.125 63.996C71.821 64.116 71.579 64.298 71.399 64.542V69H69.821ZM77.1273 69.12C76.1953 69.12 75.4533 68.846 74.9013 68.298C74.3533 67.746 74.0793 66.894 74.0793 65.742C74.0793 64.586 74.3493 63.732 74.8893 63.18C75.4293 62.628 76.1753 62.352 77.1273 62.352C78.0753 62.352 78.8193 62.628 79.3593 63.18C79.8993 63.732 80.1693 64.584 80.1693 65.736C80.1693 66.884 79.8953 67.736 79.3473 68.292C78.7993 68.844 78.0593 69.12 77.1273 69.12ZM77.1273 67.908C77.5833 67.908 77.9393 67.754 78.1953 67.446C78.4513 67.134 78.5793 66.568 78.5793 65.748C78.5793 65.192 78.5213 64.756 78.4053 64.44C78.2893 64.12 78.1213 63.894 77.9013 63.762C77.6853 63.63 77.4273 63.564 77.1273 63.564C76.8233 63.564 76.5633 63.63 76.3473 63.762C76.1313 63.894 75.9633 64.118 75.8433 64.434C75.7273 64.746 75.6693 65.176 75.6693 65.724C75.6693 66.28 75.7273 66.718 75.8433 67.038C75.9593 67.354 76.1253 67.578 76.3413 67.71C76.5613 67.842 76.8233 67.908 77.1273 67.908ZM81.4226 71.64V62.454H82.7546L82.8506 63.162H82.9286C83.1206 62.918 83.3646 62.722 83.6606 62.574C83.9606 62.426 84.3046 62.352 84.6926 62.352C85.1726 62.352 85.6126 62.46 86.0126 62.676C86.4126 62.892 86.7326 63.238 86.9726 63.714C87.2166 64.19 87.3386 64.82 87.3386 65.604C87.3386 66.76 87.0446 67.636 86.4566 68.232C85.8686 68.824 85.0046 69.12 83.8646 69.12C83.7166 69.12 83.5666 69.114 83.4146 69.102C83.2666 69.09 83.1286 69.076 83.0006 69.06V71.64H81.4226ZM83.8706 67.902C84.4946 67.902 84.9626 67.734 85.2746 67.398C85.5906 67.062 85.7486 66.506 85.7486 65.73C85.7486 65.19 85.6846 64.77 85.5566 64.47C85.4286 64.17 85.2526 63.96 85.0286 63.84C84.8046 63.716 84.5466 63.654 84.2546 63.654C84.0226 63.654 83.7946 63.7 83.5706 63.792C83.3466 63.884 83.1566 64.028 83.0006 64.224V67.812C83.1206 67.836 83.2586 67.858 83.4146 67.878C83.5706 67.894 83.7226 67.902 83.8706 67.902ZM92.051 69V63.708H90.929V62.454H92.051V61.806C92.051 60.97 92.283 60.324 92.747 59.868C93.215 59.412 93.897 59.184 94.793 59.184C95.109 59.184 95.419 59.208 95.723 59.256V60.51C95.467 60.47 95.231 60.45 95.015 60.45C94.531 60.45 94.177 60.552 93.953 60.756C93.729 60.956 93.617 61.282 93.617 61.734V62.454H95.459V63.708H93.617V69H92.051ZM96.4812 69V62.454H98.0592V69H96.4812ZM97.2732 61.338C96.9372 61.338 96.6852 61.264 96.5172 61.116C96.3532 60.964 96.2712 60.752 96.2712 60.48C96.2712 60.208 96.3532 59.998 96.5172 59.85C96.6852 59.698 96.9372 59.622 97.2732 59.622C97.6092 59.622 97.8592 59.698 98.0232 59.85C98.1912 59.998 98.2752 60.208 98.2752 60.48C98.2752 60.752 98.1912 60.964 98.0232 61.116C97.8592 61.264 97.6092 61.338 97.2732 61.338ZM99.6218 69V59.304H101.2V69H99.6218ZM105.87 69.12C104.71 69.12 103.85 68.854 103.29 68.322C102.73 67.786 102.45 66.92 102.45 65.724C102.45 64.616 102.704 63.778 103.212 63.21C103.724 62.638 104.438 62.352 105.354 62.352C106.234 62.352 106.908 62.638 107.376 63.21C107.844 63.782 108.078 64.636 108.078 65.772V66.198H104.034C104.058 66.83 104.226 67.274 104.538 67.53C104.854 67.782 105.37 67.908 106.086 67.908C106.338 67.908 106.602 67.888 106.878 67.848C107.154 67.808 107.438 67.752 107.73 67.68V68.886C107.394 68.97 107.074 69.03 106.77 69.066C106.47 69.102 106.17 69.12 105.87 69.12ZM105.336 63.384C104.932 63.384 104.616 63.522 104.388 63.798C104.16 64.07 104.04 64.554 104.028 65.25H106.602C106.59 64.558 106.476 64.074 106.26 63.798C106.044 63.522 105.736 63.384 105.336 63.384ZM111.043 69.12C110.303 69.12 109.637 69.028 109.045 68.844V67.662C109.681 67.854 110.341 67.95 111.025 67.95C111.505 67.95 111.847 67.88 112.051 67.74C112.255 67.596 112.357 67.398 112.357 67.146C112.357 66.934 112.301 66.774 112.189 66.666C112.077 66.554 111.887 66.47 111.619 66.414L110.617 66.222C110.009 66.106 109.569 65.896 109.297 65.592C109.025 65.284 108.889 64.878 108.889 64.374C108.889 63.774 109.127 63.288 109.603 62.916C110.079 62.54 110.811 62.352 111.799 62.352C112.103 62.352 112.399 62.37 112.687 62.406C112.975 62.442 113.239 62.492 113.479 62.556V63.738C112.963 63.594 112.419 63.522 111.847 63.522C111.275 63.522 110.885 63.602 110.677 63.762C110.469 63.922 110.365 64.114 110.365 64.338C110.365 64.522 110.419 64.672 110.527 64.788C110.635 64.904 110.823 64.99 111.091 65.046L112.087 65.232C112.679 65.348 113.117 65.55 113.401 65.838C113.689 66.122 113.833 66.536 113.833 67.08C113.833 67.712 113.591 68.21 113.107 68.574C112.627 68.938 111.939 69.12 111.043 69.12ZM117.938 69V59.304H119.516V63.138H119.594C120.078 62.614 120.706 62.352 121.478 62.352C121.874 62.352 122.232 62.434 122.552 62.598C122.872 62.758 123.124 63.02 123.308 63.384C123.496 63.748 123.59 64.23 123.59 64.83V69H122.012V64.932C122.012 64.476 121.914 64.162 121.718 63.99C121.522 63.814 121.26 63.726 120.932 63.726C120.684 63.726 120.43 63.778 120.17 63.882C119.914 63.986 119.696 64.15 119.516 64.374V69H117.938ZM128.195 69.12C127.035 69.12 126.175 68.854 125.615 68.322C125.055 67.786 124.775 66.92 124.775 65.724C124.775 64.616 125.029 63.778 125.537 63.21C126.049 62.638 126.763 62.352 127.679 62.352C128.559 62.352 129.233 62.638 129.701 63.21C130.169 63.782 130.403 64.636 130.403 65.772V66.198H126.359C126.383 66.83 126.551 67.274 126.863 67.53C127.179 67.782 127.695 67.908 128.411 67.908C128.663 67.908 128.927 67.888 129.203 67.848C129.479 67.808 129.763 67.752 130.055 67.68V68.886C129.719 68.97 129.399 69.03 129.095 69.066C128.795 69.102 128.495 69.12 128.195 69.12ZM127.661 63.384C127.257 63.384 126.941 63.522 126.713 63.798C126.485 64.07 126.365 64.554 126.353 65.25H128.927C128.915 64.558 128.801 64.074 128.585 63.798C128.369 63.522 128.061 63.384 127.661 63.384ZM131.567 69V62.454H132.863L132.989 63.312H133.067C133.267 62.992 133.525 62.756 133.841 62.604C134.157 62.452 134.499 62.376 134.867 62.376C134.963 62.376 135.055 62.38 135.143 62.388C135.231 62.396 135.313 62.406 135.389 62.418V63.852C135.293 63.836 135.191 63.826 135.083 63.822C134.979 63.814 134.875 63.81 134.771 63.81C134.479 63.81 134.179 63.872 133.871 63.996C133.567 64.116 133.325 64.298 133.145 64.542V69H131.567ZM139.245 69.12C138.085 69.12 137.225 68.854 136.665 68.322C136.105 67.786 135.825 66.92 135.825 65.724C135.825 64.616 136.079 63.778 136.587 63.21C137.099 62.638 137.813 62.352 138.729 62.352C139.609 62.352 140.283 62.638 140.751 63.21C141.219 63.782 141.453 64.636 141.453 65.772V66.198H137.409C137.433 66.83 137.601 67.274 137.913 67.53C138.229 67.782 138.745 67.908 139.461 67.908C139.713 67.908 139.977 67.888 140.253 67.848C140.529 67.808 140.813 67.752 141.105 67.68V68.886C140.769 68.97 140.449 69.03 140.145 69.066C139.845 69.102 139.545 69.12 139.245 69.12ZM138.711 63.384C138.307 63.384 137.991 63.522 137.763 63.798C137.535 64.07 137.415 64.554 137.403 65.25H139.977C139.965 64.558 139.851 64.074 139.635 63.798C139.419 63.522 139.111 63.384 138.711 63.384ZM74.1566 87.12C73.2246 87.12 72.4826 86.846 71.9306 86.298C71.3826 85.746 71.1086 84.894 71.1086 83.742C71.1086 82.586 71.3786 81.732 71.9186 81.18C72.4586 80.628 73.2046 80.352 74.1566 80.352C75.1046 80.352 75.8486 80.628 76.3886 81.18C76.9286 81.732 77.1986 82.584 77.1986 83.736C77.1986 84.884 76.9246 85.736 76.3766 86.292C75.8286 86.844 75.0886 87.12 74.1566 87.12ZM74.1566 85.908C74.6126 85.908 74.9686 85.754 75.2246 85.446C75.4806 85.134 75.6086 84.568 75.6086 83.748C75.6086 83.192 75.5506 82.756 75.4346 82.44C75.3186 82.12 75.1506 81.894 74.9306 81.762C74.7146 81.63 74.4566 81.564 74.1566 81.564C73.8526 81.564 73.5926 81.63 73.3766 81.762C73.1606 81.894 72.9926 82.118 72.8726 82.434C72.7566 82.746 72.6986 83.176 72.6986 83.724C72.6986 84.28 72.7566 84.718 72.8726 85.038C72.9886 85.354 73.1546 85.578 73.3706 85.71C73.5906 85.842 73.8526 85.908 74.1566 85.908ZM78.4519 87V80.454H79.7479L79.8739 81.312H79.9519C80.1519 80.992 80.4099 80.756 80.7259 80.604C81.0419 80.452 81.3839 80.376 81.7519 80.376C81.8479 80.376 81.9399 80.38 82.0279 80.388C82.1159 80.396 82.1979 80.406 82.2739 80.418V81.852C82.1779 81.836 82.0759 81.826 81.9679 81.822C81.8639 81.814 81.7599 81.81 81.6559 81.81C81.3639 81.81 81.0639 81.872 80.7559 81.996C80.4519 82.116 80.2099 82.298 80.0299 82.542V87H78.4519Z" fill="#A1ACBE"/>
    <rect x="38.5" y="98.5" width="73" height="31" rx="4.5" stroke="#A1ACBE"/>
    <path d="M57.2759 119.09C56.9119 119.09 56.5159 119.076 56.0879 119.048C55.6639 119.02 55.2619 118.98 54.8819 118.928V110.3C55.2739 110.216 55.7039 110.148 56.1719 110.096C56.6399 110.044 57.1099 110.018 57.5819 110.018C58.8619 110.018 59.7899 110.22 60.3659 110.624C60.9459 111.024 61.2359 111.634 61.2359 112.454C61.2359 112.922 61.1119 113.334 60.8639 113.69C60.6199 114.046 60.2519 114.288 59.7599 114.416C60.3079 114.524 60.7319 114.758 61.0319 115.118C61.3359 115.478 61.4879 115.95 61.4879 116.534C61.4879 117.082 61.3499 117.548 61.0739 117.932C60.7979 118.312 60.3519 118.6 59.7359 118.796C59.1199 118.992 58.2999 119.09 57.2759 119.09ZM57.7799 111.212C57.5159 111.212 57.2759 111.222 57.0599 111.242C56.8479 111.262 56.6439 111.288 56.4479 111.32V113.846H57.8879C58.5559 113.846 59.0279 113.738 59.3039 113.522C59.5839 113.302 59.7239 112.972 59.7239 112.532C59.7239 112.064 59.5759 111.728 59.2799 111.524C58.9879 111.316 58.4879 111.212 57.7799 111.212ZM57.6779 117.896C58.5539 117.896 59.1579 117.78 59.4899 117.548C59.8259 117.312 59.9939 116.954 59.9939 116.474C59.9939 115.99 59.8419 115.636 59.5379 115.412C59.2339 115.184 58.7439 115.07 58.0679 115.07H56.4479V117.836C56.6639 117.86 56.8679 117.876 57.0599 117.884C57.2559 117.892 57.4619 117.896 57.6779 117.896ZM62.6257 119V112.454H63.9217L64.0477 113.312H64.1257C64.3257 112.992 64.5837 112.756 64.8997 112.604C65.2157 112.452 65.5577 112.376 65.9257 112.376C66.0217 112.376 66.1137 112.38 66.2017 112.388C66.2897 112.396 66.3717 112.406 66.4477 112.418V113.852C66.3517 113.836 66.2497 113.826 66.1417 113.822C66.0377 113.814 65.9337 113.81 65.8297 113.81C65.5377 113.81 65.2377 113.872 64.9297 113.996C64.6257 114.116 64.3837 114.298 64.2037 114.542V119H62.6257ZM69.932 119.12C69 119.12 68.258 118.846 67.706 118.298C67.158 117.746 66.884 116.894 66.884 115.742C66.884 114.586 67.154 113.732 67.694 113.18C68.234 112.628 68.98 112.352 69.932 112.352C70.88 112.352 71.624 112.628 72.164 113.18C72.704 113.732 72.974 114.584 72.974 115.736C72.974 116.884 72.7 117.736 72.152 118.292C71.604 118.844 70.864 119.12 69.932 119.12ZM69.932 117.908C70.388 117.908 70.744 117.754 71 117.446C71.256 117.134 71.384 116.568 71.384 115.748C71.384 115.192 71.326 114.756 71.21 114.44C71.094 114.12 70.926 113.894 70.706 113.762C70.49 113.63 70.232 113.564 69.932 113.564C69.628 113.564 69.368 113.63 69.152 113.762C68.936 113.894 68.768 114.118 68.648 114.434C68.532 114.746 68.474 115.176 68.474 115.724C68.474 116.28 68.532 116.718 68.648 117.038C68.764 117.354 68.93 117.578 69.146 117.71C69.366 117.842 69.628 117.908 69.932 117.908ZM75.4186 119L73.6006 112.454H75.1066L76.3906 117.332L77.7646 112.454H79.5346L80.8786 117.278L82.1806 112.454H83.6266L81.8206 119H80.0506L78.6286 113.96L77.1886 119H75.4186ZM86.3866 119.12C85.6466 119.12 84.9806 119.028 84.3886 118.844V117.662C85.0246 117.854 85.6846 117.95 86.3686 117.95C86.8486 117.95 87.1906 117.88 87.3946 117.74C87.5986 117.596 87.7006 117.398 87.7006 117.146C87.7006 116.934 87.6446 116.774 87.5326 116.666C87.4206 116.554 87.2306 116.47 86.9626 116.414L85.9606 116.222C85.3526 116.106 84.9126 115.896 84.6406 115.592C84.3686 115.284 84.2326 114.878 84.2326 114.374C84.2326 113.774 84.4706 113.288 84.9466 112.916C85.4226 112.54 86.1546 112.352 87.1426 112.352C87.4466 112.352 87.7426 112.37 88.0306 112.406C88.3186 112.442 88.5826 112.492 88.8226 112.556V113.738C88.3066 113.594 87.7626 113.522 87.1906 113.522C86.6186 113.522 86.2286 113.602 86.0206 113.762C85.8126 113.922 85.7086 114.114 85.7086 114.338C85.7086 114.522 85.7626 114.672 85.8706 114.788C85.9786 114.904 86.1666 114.99 86.4346 115.046L87.4306 115.232C88.0226 115.348 88.4606 115.55 88.7446 115.838C89.0326 116.122 89.1766 116.536 89.1766 117.08C89.1766 117.712 88.9346 118.21 88.4506 118.574C87.9706 118.938 87.2826 119.12 86.3866 119.12ZM93.4017 119.12C92.2417 119.12 91.3817 118.854 90.8217 118.322C90.2617 117.786 89.9817 116.92 89.9817 115.724C89.9817 114.616 90.2357 113.778 90.7437 113.21C91.2557 112.638 91.9697 112.352 92.8857 112.352C93.7657 112.352 94.4397 112.638 94.9077 113.21C95.3757 113.782 95.6097 114.636 95.6097 115.772V116.198H91.5657C91.5897 116.83 91.7577 117.274 92.0697 117.53C92.3857 117.782 92.9017 117.908 93.6177 117.908C93.8697 117.908 94.1337 117.888 94.4097 117.848C94.6857 117.808 94.9697 117.752 95.2617 117.68V118.886C94.9257 118.97 94.6057 119.03 94.3017 119.066C94.0017 119.102 93.7017 119.12 93.4017 119.12ZM92.8677 113.384C92.4637 113.384 92.1477 113.522 91.9197 113.798C91.6917 114.07 91.5717 114.554 91.5597 115.25H94.1337C94.1217 114.558 94.0077 114.074 93.7917 113.798C93.5757 113.522 93.2677 113.384 92.8677 113.384Z" fill="#A1ACBE"/>
    <path d="M74.5 30.875V19.5" stroke="#A1ACBE" stroke-width="2" stroke-linecap="round" stroke-linejoin="round"/>
    <path d="M70.9785 22.7499L74.4999 19.2285L78.0213 22.7499" stroke="#A1ACBE" stroke-width="2" stroke-linecap="round" stroke-linejoin="round"/>
    <path d="M81.0003 30.875H85.1603C88.2933 30.875 90.8478 28.3205 90.8478 25.1875C90.8478 22.0545 88.2933 19.5 85.1603 19.5H84.4535V17.875C84.4535 12.4963 80.0822 8.125 74.7035 8.125C69.8658 8.125 65.8553 11.6643 65.0948 16.2874C61.2322 16.484 58.1528 19.6511 58.1528 23.5625C58.1528 27.6006 61.4272 30.875 65.4653 30.875H68.0003" stroke="#A1ACBE" stroke-width="2" stroke-linecap="round" stroke-linejoin="round"/>
</svg>