<?xml version="1.0" encoding="UTF-8"?>
<svg width="16px" height="16px" viewBox="0 0 16 16" version="1.1" xmlns="http://www.w3.org/2000/svg" xmlns:xlink="http://www.w3.org/1999/xlink">
    <title>icons/explore</title>
    <g id="icons/explore" stroke="none" stroke-width="1" fill="none" fill-rule="evenodd">
        <g id="Group" fill="#5B6C84" fill-rule="nonzero">
            <path d="M8,0 C3.58136649,0 0,3.58136649 0,8 L0.00356013116,8.2383132 C0.135740232,12.5620532 3.67413737,16 8,16 L8.2383132,15.9964399 C12.5620532,15.8642598 16,12.3258626 16,8 L15.9964399,7.7616868 C15.8642598,3.43794681 12.3258626,0 8,0 Z M8,1.5 C11.5146635,1.5 14.3896475,4.29338393 14.4968233,7.79709995 L14.5,8.01023032 C14.5,11.5146455 11.7065545,14.3896469 8.20285961,14.4968233 L7.98973053,14.5 C4.48533647,14.5 1.61035247,11.7065376 1.50317667,8.20282162 L1.5,7.98969125 C1.5,4.40978296 4.40984383,1.5 8,1.5 Z" id="Path"></path>
            <path d="M5.34722497,6.80651009 C7.5698702,6.85532368 9.14287471,8.42832819 9.19168829,10.6509734 C9.20078303,11.0650871 8.87245029,11.4081653 8.45833658,11.4172601 C8.04422288,11.4263548 7.70114465,11.0980221 7.69204991,10.6839084 C7.66086348,9.2638863 6.73431208,8.33733491 5.31429001,8.30614848 C4.90017631,8.29705374 4.57184356,7.95397551 4.5809383,7.5398618 C4.59003304,7.1257481 4.93311126,6.79741535 5.34722497,6.80651009 Z" id="Path"></path>
            <path d="M5.46666667,9.86666667 C5.8348565,9.86666667 6.13333333,10.1651435 6.13333333,10.5333333 C6.13333333,10.9015232 5.8348565,11.2 5.46666667,11.2 C5.09847683,11.2 4.8,10.9015232 4.8,10.5333333 C4.8,10.1651435 5.09847683,9.86666667 5.46666667,9.86666667 Z" id="Oval"></path>
            <path d="M5.33923153,3.69441986 C6.19452863,3.70413312 7.01488615,3.84764603 7.77988374,4.11776383 C9.72110485,4.80413485 11.1946667,6.27743204 11.8797446,8.21782008 C12.1497556,8.9825154 12.2932685,9.80287292 12.3029817,10.6581701 C12.3076129,11.0723572 11.9756419,11.4119161 11.5614547,11.4166451 C11.1472676,11.4212763 10.8077087,11.0893052 10.8030286,10.6751181 C10.7952098,9.98315642 10.6802181,9.32583353 10.4653204,8.71722389 C9.93120704,7.20442189 8.79386825,6.0672874 7.28015637,5.53207372 C6.67156801,5.31718349 6.01424512,5.20219177 5.32228346,5.194373 C4.90809633,5.18969292 4.57612529,4.85013396 4.58075648,4.43594684 C4.58548545,4.02175971 4.9250444,3.68978867 5.33923153,3.69441986 Z" id="Path"></path>
        </g>
    </g>
</svg>