<svg width="20" height="20" viewBox="0 0 20 20" xmlns="http://www.w3.org/2000/svg">
    <g fill="#5B6C84" fill-rule="nonzero">
        <path d="M10-.938C3.959-.938-.938 3.96-.938 10l.005.326C-.752 16.237 4.086 20.937 10 20.937l.326-.004c5.911-.181 10.611-5.019 10.611-10.933l-.004-.326C20.752 3.763 15.914-.937 10-.937zm0 1.875c4.9 0 8.909 3.895 9.058 8.78l.005.297c0 4.886-3.895 8.895-8.78 9.044l-.297.005c-4.886 0-8.895-3.895-9.044-8.78l-.005-.297C.937 4.994 4.994.937 10 .937z"/>
        <path d="M6.684 8.508c2.778.061 4.745 2.027 4.806 4.806a.937.937 0 0 1-1.875.04c-.039-1.774-1.197-2.932-2.972-2.971a.937.937 0 1 1 .041-1.875zM6.833 12.333a.833.833 0 1 1 0 1.667.833.833 0 0 1 0-1.667z"/>
        <path d="M6.674 4.618a9.461 9.461 0 0 1 3.05.53 8.308 8.308 0 0 1 5.126 5.124 9.46 9.46 0 0 1 .529 3.05.938.938 0 0 1-1.875.022 7.585 7.585 0 0 0-.422-2.447A6.433 6.433 0 0 0 9.1 6.915a7.585 7.585 0 0 0-2.447-.422.938.938 0 0 1 .021-1.875z"/>
    </g>
</svg>
