<svg width="25" height="25" viewBox="0 0 25 25" fill="none" xmlns="http://www.w3.org/2000/svg">
    <path fill-rule="evenodd" clip-rule="evenodd" d="M12.5 1V1C18.8518 1 24 6.14817 24 12.5V12.5C24 18.8518 18.8518 24 12.5 24V24C6.14817 24 1 18.8518 1 12.5V12.5C1 6.14817 6.14817 1 12.5 1Z" stroke="#2A323E" stroke-width="1.5" stroke-linecap="round" stroke-linejoin="round"/>
    <path d="M9.00154 15.6625C8.81626 15.6625 8.66676 15.8133 8.66804 15.9973C8.66676 16.1826 8.81754 16.3334 9.00154 16.3334C9.18554 16.3334 9.33631 16.1826 9.33631 15.9986C9.33631 15.8146 9.18681 15.6625 9.00154 15.6625" stroke="#2A323E" stroke-width="1.5" stroke-linecap="round" stroke-linejoin="round"/>
    <path d="M13.1387 16.3333C13.0812 13.7151 11.2847 11.9186 8.6665 11.8611" stroke="#2A323E" stroke-width="1.5" stroke-linecap="round" stroke-linejoin="round"/>
    <path d="M8.6665 7.38892C9.79734 7.40169 10.8579 7.59336 11.8277 7.9358C14.3104 8.81364 16.1875 10.6894 17.0641 13.1721C17.4065 14.142 17.5982 15.2025 17.6109 16.3334" stroke="#2A323E" stroke-width="1.5" stroke-linecap="round" stroke-linejoin="round"/>
</svg>
