<svg width="13" height="13" viewBox="0 0 13 13" fill="none" xmlns="http://www.w3.org/2000/svg">
    <path fill-rule="evenodd" clip-rule="evenodd" d="M11.0962 1.90381C13.6346 4.44222 13.6346 8.55779 11.0962 11.0962C8.55778 13.6346 4.44221 13.6346 1.90381 11.0962C-0.634603 8.55778 -0.634603 4.44221 1.90381 1.90381C4.44222 -0.634603 8.55779 -0.634603 11.0962 1.90381Z" fill="#A1ACBE"/>
    <path d="M6.51888 2.88892C6.7485 2.88892 6.93612 2.96032 7.08174 3.10314C7.22735 3.24595 7.30016 3.42377 7.30016 3.63659C7.30016 3.84942 7.22735 4.02863 7.08174 4.17425C6.93612 4.31706 6.7485 4.38847 6.51888 4.38847C6.28645 4.38847 6.09603 4.31706 5.94762 4.17425C5.802 4.02863 5.7292 3.84942 5.7292 3.63659C5.7292 3.42377 5.802 3.24595 5.94762 3.10314C6.09603 2.96032 6.28645 2.88892 6.51888 2.88892ZM7.32116 5.22436V8.77793H8.45528V9.68522H4.72949V8.77793H5.99382V6.13165H4.7715V5.22436H7.32116Z" fill="white"/>
</svg>
