<svg width="32" height="27" viewBox="0 0 32 27" fill="none" xmlns="http://www.w3.org/2000/svg">
    <path fill-rule="evenodd" clip-rule="evenodd" d="M9 13.5C9 12.9477 8.55228 12.5 8 12.5H1C0.447716 12.5 0 12.9477 0 13.5C0 14.0523 0.447716 14.5 1 14.5H8C8.55228 14.5 9 14.0523 9 13.5Z" fill="#323232"/>
    <path fill-rule="evenodd" clip-rule="evenodd" d="M8.2598 4.49429C10.746 1.75724 14.3243 0 18.3531 0C25.8796 0 32 6.03256 32 13.5C32 20.966 25.8797 27 18.3531 27C14.3243 27 10.746 25.2428 8.2598 22.5057C7.88846 22.0969 7.91882 21.4645 8.32763 21.0931C8.73643 20.7218 9.36887 20.7521 9.74021 21.161C11.8715 23.5072 14.923 25 18.3531 25C24.7971 25 30 19.8396 30 13.5C30 7.1591 24.7972 2 18.3531 2C14.923 2 11.8715 3.49276 9.74021 5.83905C9.36887 6.24785 8.73643 6.27822 8.32763 5.90687C7.91882 5.53553 7.88846 4.90309 8.2598 4.49429Z" fill="#323232"/>
    <path fill-rule="evenodd" clip-rule="evenodd" d="M18.5049 6.50506C18.8437 6.50506 19.1595 6.67663 19.3439 6.96089L23.232 12.9555C23.4467 13.2865 23.4467 13.7128 23.232 14.0439L19.3439 20.0385C19.1595 20.3228 18.8437 20.4943 18.5049 20.4943C18.1661 20.4943 17.8503 20.3228 17.6659 20.0385L13.7777 14.0439C13.563 13.7128 13.563 13.2865 13.7777 12.9555L17.6659 6.96089C17.8503 6.67663 18.1661 6.50506 18.5049 6.50506ZM18.5049 9.34273L15.8086 13.4997L18.5049 17.6567L21.2011 13.4997L18.5049 9.34273Z" fill="#323232"/>
    <path fill-rule="evenodd" clip-rule="evenodd" d="M4.34921 9.24076C3.92988 9.60018 3.88132 10.2315 4.24074 10.6508L6.68292 13.5L4.24074 16.3492C3.88132 16.7686 3.92988 17.3999 4.34921 17.7593C4.76853 18.1187 5.39983 18.0701 5.75926 17.6508L8.75926 14.1508C9.08025 13.7763 9.08025 13.2237 8.75926 12.8492L5.75926 9.34923C5.39983 8.9299 4.76853 8.88134 4.34921 9.24076Z" fill="#323232"/>
</svg>
