<svg width="33" height="34" viewBox="0 0 33 34" fill="none" xmlns="http://www.w3.org/2000/svg">
    <path fill-rule="evenodd" clip-rule="evenodd" d="M13.5 15L17.3882 20.9946L13.5 26.9893L9.61182 20.9946L13.5 15Z" stroke="#323232" stroke-width="2" stroke-linecap="round" stroke-linejoin="round"/>
    <path fill-rule="evenodd" clip-rule="evenodd" d="M23.5664 14.9334C23.8712 14.9773 24.183 15 24.5 15C24.9368 15 25.3635 14.9569 25.7762 14.8747C28.0586 19.8573 27.1485 25.9434 23.0459 30.0459C17.7739 35.318 9.22612 35.318 3.95406 30.0459C-1.31802 24.7739 -1.31802 16.2261 3.95406 10.9541C7.76286 7.14526 13.2813 6.08812 18.0391 7.78263C18.0133 8.01819 18 8.25755 18 8.5C18 9.01198 18.0592 9.51015 18.1711 9.98802C13.9495 8.11317 8.82997 8.90659 5.36828 12.3683L4.66117 11.6612L5.36828 12.3683C0.877247 16.8593 0.877244 24.1407 5.36828 28.6317C9.85929 33.1228 17.1407 33.1228 21.6317 28.6317C25.3422 24.9212 25.9871 19.306 23.5664 14.9334Z" fill="#323232"/>
    <path fill-rule="evenodd" clip-rule="evenodd" d="M24.5 3C21.4627 3 19 5.46266 19 8.5C19 11.5373 21.4627 14 24.5 14C27.5373 14 30 11.5373 30 8.5C30 5.46266 27.5373 3 24.5 3ZM17 8.5C17 4.35809 20.3581 1 24.5 1C28.6419 1 32 4.35809 32 8.5C32 12.6419 28.6419 16 24.5 16C20.3581 16 17 12.6419 17 8.5Z" fill="#323232"/>
    <path d="M27.5574 7.65866V8.9873" stroke="#323232" stroke-width="1.5" stroke-linecap="round" stroke-linejoin="round"/>
    <path d="M25.7566 7.65866V8.9873" stroke="#323232" stroke-width="1.5" stroke-linecap="round" stroke-linejoin="round"/>
    <path d="M23.519 9.77791C24.0267 9.27019 24.0267 8.44719 23.519 7.93948C23.0113 7.43176 22.1883 7.43176 21.6806 7.93948C21.1729 8.44719 21.1729 9.27019 21.6806 9.77791C22.1883 10.2856 23.0113 10.2856 23.519 9.77791" stroke="#323232" stroke-width="1.5" stroke-linecap="round" stroke-linejoin="round"/>
    <path d="M27.5 8.9873H24" stroke="#323232" stroke-width="1.5" stroke-linecap="round" stroke-linejoin="round"/>
</svg>
