<svg width="161" height="48" viewBox="0 0 161 48" fill="none" xmlns="http://www.w3.org/2000/svg">
    <path opacity=".62" d="m9.77 37.961 6.06-7.463a1.583 1.583 0 0 1 2.457 0l6.06 7.463a1.58 1.58 0 0 1 0 1.992l-6.06 7.462c-.633.78-1.824.78-2.457 0l-6.06-7.462a1.58 1.58 0 0 1 0-1.992z" fill="#1BA5F8"/>
    <path d="m19.185 19.712 6.06-7.463a1.583 1.583 0 0 1 2.457 0l6.06 7.463a1.58 1.58 0 0 1 0 1.991l-6.06 7.463c-.633.78-1.823.78-2.457 0l-6.06-7.463a1.58 1.58 0 0 1 0-1.991zM.353 19.712l6.061-7.463a1.583 1.583 0 0 1 2.457 0l6.06 7.463a1.58 1.58 0 0 1 0 1.991l-6.06 7.463c-.633.78-1.824.78-2.457 0l-6.06-7.463a1.58 1.58 0 0 1 0-1.991zM9.77 8.048 15.83.585a1.583 1.583 0 0 1 2.457 0l6.06 7.463a1.58 1.58 0 0 1 0 1.99l-6.06 7.464c-.633.78-1.824.78-2.457 0l-6.06-7.463a1.58 1.58 0 0 1 0-1.991z" fill="#1BA5F8"/>
    <path d="M55.578 21.131c-1.9-.245-3.232-.367-3.998-.367-.75 0-1.24.069-1.47.206-.215.138-.322.36-.322.666 0 .29.146.497.437.62.306.107 1.072.275 2.297.505 1.24.214 2.121.573 2.642 1.078.52.505.781 1.324.781 2.456 0 2.48-1.54 3.719-4.618 3.719-1.01 0-2.236-.138-3.676-.413l-.735-.138.092-2.57c1.9.244 3.216.366 3.952.366.75 0 1.256-.069 1.516-.206.276-.153.414-.375.414-.666 0-.29-.146-.505-.437-.643-.276-.137-1.01-.305-2.206-.505-1.179-.198-2.06-.535-2.642-1.01-.582-.474-.873-1.315-.873-2.524 0-1.224.414-2.142 1.241-2.754.827-.628 1.892-.942 3.194-.942.903 0 2.136.146 3.698.437l.758.137-.045 2.548zM65.955 21.131c-1.9-.245-3.232-.367-3.998-.367-.75 0-1.24.069-1.47.206-.215.138-.322.36-.322.666 0 .29.146.497.437.62.306.107 1.072.275 2.297.505 1.24.214 2.121.573 2.642 1.078.52.505.781 1.324.781 2.456 0 2.48-1.539 3.719-4.618 3.719-1.01 0-2.236-.138-3.675-.413l-.736-.138.092-2.57c1.9.244 3.217.366 3.952.366.75 0 1.256-.069 1.516-.206.276-.153.414-.375.414-.666 0-.29-.146-.505-.437-.643-.276-.137-1.01-.305-2.205-.505-1.18-.198-2.06-.535-2.642-1.01-.582-.474-.873-1.315-.873-2.524 0-1.224.413-2.142 1.24-2.754.827-.628 1.892-.942 3.194-.942.903 0 2.136.146 3.698.437l.759.137-.046 2.548zM66.892 18.262h3.216l1.838 8.86h.644l1.93-8.86h3.124l-2.757 11.476h-5.238l-2.757-11.476zM86.323 29.738H84.6V18.262h1.7v.803c1.241-.688 2.428-1.033 3.562-1.033 1.531 0 2.557.414 3.078 1.24.536.826.804 2.295.804 4.407v6.06h-1.7v-6.014c0-1.592-.16-2.678-.482-3.26-.307-.596-.973-.895-2-.895-.49 0-1.01.077-1.561.23-.537.137-.95.275-1.241.413l-.437.206v9.32zM104.292 28.315l.666-.069.046 1.355c-1.746.244-3.239.367-4.48.367-1.654 0-2.826-.475-3.515-1.423-.69-.964-1.034-2.456-1.034-4.476 0-4.024 1.6-6.037 4.802-6.037 1.547 0 2.703.436 3.469 1.309.766.857 1.149 2.21 1.149 4.062l-.092 1.309h-7.582c0 1.27.23 2.21.69 2.823.459.612 1.255.918 2.389.918 1.149 0 2.313-.046 3.492-.138zm-.62-4.98c0-1.408-.23-2.403-.69-2.984-.444-.582-1.179-.873-2.205-.873-1.011 0-1.777.306-2.298.918-.505.613-.765 1.592-.78 2.938h5.973zM113.504 19.754h-3.653v5.485c0 1.316.092 2.181.275 2.594.2.413.659.62 1.379.62l2.045-.138.114 1.423c-1.026.169-1.807.253-2.343.253-1.195 0-2.022-.291-2.481-.872-.46-.582-.689-1.691-.689-3.329v-6.036h-1.632v-1.492h1.632V14.75h1.7v3.512h3.653v1.492zM114.206 18.262h1.723l2.321 9.984h.367l2.734-9.755h1.792l2.734 9.755h.391l2.297-9.984h1.723l-2.734 11.476h-2.871l-2.436-8.974-2.435 8.974h-2.872l-2.734-11.476zM131.571 23.977c0-2.096.375-3.611 1.126-4.544.75-.934 2.014-1.4 3.791-1.4 1.792 0 3.055.466 3.791 1.4.75.933 1.125 2.448 1.125 4.544 0 2.096-.352 3.619-1.057 4.568-.704.948-1.991 1.423-3.859 1.423-1.869 0-3.155-.475-3.86-1.423-.705-.949-1.057-2.472-1.057-4.568zm1.769-.023c0 1.668.199 2.839.598 3.512.413.673 1.263 1.01 2.55 1.01 1.302 0 2.152-.33 2.55-.987.398-.673.597-1.852.597-3.535s-.222-2.838-.666-3.466c-.444-.642-1.271-.964-2.481-.964-1.195 0-2.022.322-2.481.964-.445.628-.667 1.783-.667 3.466zM143.755 29.738V18.262h1.7v1.56c1.333-.917 2.734-1.522 4.204-1.813v1.745c-.643.122-1.317.314-2.021.574-.69.26-1.218.49-1.586.688l-.574.299v8.423h-1.723zM152.961 29.738h-1.723v-16.48h1.723v9.732l1.792-.092 3.285-4.636h1.953l-3.745 5.279 3.906 6.197h-1.953l-3.423-5.325-1.815.07v5.255z" fill="#011627"/>
    <path d="M78.672 26.352c0-.208.169-.376.377-.376h2.636c.208 0 .376.168.376.376v3.01a.376.376 0 0 1-.376.376h-2.636a.376.376 0 0 1-.377-.376v-3.01z" fill="#1BA5F8"/>
</svg>
