<svg id="eq7vxbuDcgG1" xmlns="http://www.w3.org/2000/svg" xmlns:xlink="http://www.w3.org/1999/xlink" viewBox="0 0 155 260" shape-rendering="geometricPrecision" text-rendering="geometricPrecision" style="background-color:transparent">
<style><![CDATA[
#eq7vxbuDcgG4_ts {animation: eq7vxbuDcgG4_ts__ts 3000ms linear infinite normal forwards}@keyframes eq7vxbuDcgG4_ts__ts { 0% {transform: translate(78.337696px,230.625504px) scale(1,1)} 50% {transform: translate(78.337696px,230.625504px) scale(0.9,0.9)} 100% {transform: translate(78.337696px,230.625504px) scale(1,1)}} #eq7vxbuDcgG5_to {animation: eq7vxbuDcgG5_to__to 3000ms linear infinite normal forwards}@keyframes eq7vxbuDcgG5_to__to { 0% {transform: translate(77.058502px,104.052002px)} 50% {transform: translate(77.058502px,94.052002px)} 100% {transform: translate(77.058502px,104.052002px)}}
]]></style>
<g transform="translate(0 10)" clip-path="url(#eq7vxbuDcgG87)"><g><g id="eq7vxbuDcgG4_ts" transform="translate(78.337696,230.625504) scale(1,1)"><path d="M78.3379,240c25.3761,0,45.9461-4.197,45.9461-9.374c0-5.178-20.57-9.375-45.9461-9.375-25.3756,0-45.9465,4.197-45.9465,9.375c0,5.177,20.5709,9.374,45.9465,9.374Z" transform="translate(-78.337696,-230.625504)" opacity="0.5" fill="#97a5ba"/></g><g id="eq7vxbuDcgG5_to" transform="translate(77.058502,104.052002)"><g transform="translate(-77.058502,-104.052002)"><path d="M115.966,176.35c-2.363-3.223-3.903-6.957-5.172-10.725-.827-2.46-1.655-4.758-2.204-7.311-.605-2.798-1.1-5.618-1.498-8.454-.783-5.613-1.154-11.28-1.116-16.947.044-5.493.469-11.019-.321-16.452.169.077.332.158.501.235c8.308,3.974,15.412,10.392,20.29,18.199c5.079,8.122,8.454,17.551,10.354,26.941.86,4.247,1.513,8.662.566,12.886-.882,3.942-3.974,9.277-8.541,9.206-5.167-.082-9.908-3.566-12.859-7.584v.006Z" fill="#fff"/><path d="M128.917,185.294c-.038,0-.076,0-.12,0-5.046-.081-10.251-3.125-13.931-8.144-3.489-4.752-5.264-10.599-6.837-15.76l2.602-.795c1.579,5.194,3.212,10.561,6.424,14.944c2.455,3.348,6.837,6.952,11.78,7.028.022,0,.044,0,.066,0c3.658,0,6.364-4.747,7.126-8.144.838-3.746.375-7.633-.572-12.32-2.014-9.94-11.1-37.018-28.76-42.86l.855-2.586c18.885,6.25,28.471,34.531,30.573,44.902.882,4.349,1.557,8.993.56,13.457-.925,4.148-4.289,10.267-9.771,10.273l.005.005Z" fill="#040f58"/><path d="M116.788,175.555l-2.314-1.432c2.303-3.729,6.01-6.647,10.175-8.008s8.884-1.192,12.94.458l-1.023,2.52c-3.473-1.41-7.507-1.551-11.073-.386-3.56,1.165-6.734,3.658-8.705,6.848Z" fill="#040f58"/><path d="M39.0817,176.35c1.165-1.584,2.134-3.305,2.967-5.085c1.0996-2.357,1.9598-4.823,2.7491-7.3.7676-2.406,1.1541-4.916,1.7802-7.382c1.41-5.531,2.6566-11.138,3.0812-16.843.5444-7.333-.3266-14.933-3.7236-21.455-6.8375,4.099-12.7605,9.701-17.2681,16.277-2.9179,4.263-4.7362,8.939-6.5054,13.784-1.606,4.399-2.9833,8.907-3.9142,13.496-.8601,4.246-1.5134,8.661-.5662,12.886.882,3.941,3.9741,9.276,8.5415,9.205c5.1663-.081,9.9079-3.566,12.8585-7.583Z" fill="#fff"/><path d="M26.1307,185.294c-5.4874,0-8.8463-6.124-9.7718-10.272-.9962-4.464-.3212-9.103.5607-13.458c2.1014-10.37,11.6827-38.652,30.573-44.901l.8547,2.586c-17.6546,5.841-26.7459,32.919-28.7601,42.86-.9473,4.687-1.41,8.574-.5717,12.319.7567,3.397,3.4678,8.144,7.1261,8.144.0218,0,.0436,0,.0653,0c4.9431-.081,9.3255-3.685,11.7807-7.028c3.2119-4.382,4.845-9.75,6.4238-14.943l2.6022.794c-1.5679,5.161-3.348,11.003-6.8376,15.761-3.6801,5.019-8.8899,8.062-13.931,8.144-.0381,0-.0816,0-.1197,0l.0054-.006Z" fill="#040f58"/><path d="M38.2597,175.555c-1.9707-3.19-5.1445-5.683-8.7048-6.848-3.5658-1.165-7.5997-1.024-11.0729.386l-1.0235-2.52c4.0611-1.65,8.7756-1.813,12.9402-.458c4.1645,1.361,7.8718,4.279,10.1746,8.008l-2.3136,1.432Z" fill="#040f58"/><path d="M120.637,143.931c0,28.962-26.784,64.168-43.3444,62.769-16.5603-1.399-43.3444-33.807-43.3444-62.769c0-28.961,19.4076-29.484,43.3444-29.484c23.9364,0,43.3444.523,43.3444,29.484Z" fill="#fff"/><path d="M122.052,143.262h-2.324c-.153-5.362-.855-10.736-1.993-15.983.115,6.402-.544,12.798-1.905,19.048-5.961,2.689-19.5982,4.905-38.5157,4.905-25.8586,0-41.8691-4.138-41.8691-7.97h-2.8744c0,3.789,4.807,6.554,14.6985,8.465c7.9427,1.535,18.6128,2.379,30.045,2.379c5.4221,0,26.5177-.278,37.6937-4.366-3.119,11.911-8.808,23.158-16.6313,32.658-3.5276-8.149-11.6499-13.871-21.0788-13.871-9.9242,0-18.4004,6.331-21.5959,15.167-7.2785-7.175-13.441-15.483-18.1337-24.563c2.3137,12.243,8.2584,24.007,16.7945,33.208.0217.56.0544,1.121.1143,1.676l1.3337-.147c3.0486,3.076,6.3966,5.836,10.0114,8.177c3.4024,2.205,7.175,4.137,11.2253,4.257c4.9648.153,9.5976-2.428,13.6261-5.335c2.5641-1.851,4.9921-3.887,7.284-6.064l2.0033.326c.1361-.843.2121-1.698.2561-2.558c6.739-6.979,12.085-15.303,15.553-24.367c2.575-6.729,3.794-13.833,3.974-21.014c1.47-1.143,2.319-2.477,2.319-4.034l-.011.006Zm-30.3876,46.36c-2.907,2.771-6.1625,5.406-10.0549,6.402-3.7073.947-7.6977.294-11.209-1.225-3.5168-1.513-6.6143-3.843-9.5323-6.326-.9744-.827-1.9217-1.693-2.8635-2.558c2.4226-8.373,10.142-14.514,19.2823-14.514s16.212,5.651,18.9503,13.49c-1.459,1.639-2.9887,3.218-4.5784,4.731h.0055Z" opacity="0.3" fill="#040f58"/><path d="M77.309,152.114c-11.4267,0-22.0914-.844-30.0286-2.374-9.848-1.9-14.6332-4.644-14.6332-8.389h2.722c0,3.871,16.0377,8.046,41.9453,8.046s41.9455-4.175,41.9455-8.046h2.722c0,10.463-40.0947,10.768-44.6675,10.768l-.0055-.005Z" fill="#040f58"/><path d="M78.2779,208.099c-.3702,0-.7404-.017-1.0997-.044-8.5197-.718-19.5763-8.993-28.8636-21.596-9.995-13.566-15.7274-29.065-15.7274-42.528c0-30.845,21.7157-30.845,44.7053-30.845c22.9895,0,44.7055,0,44.7055,30.845c0,20.622-12.995,43.356-25.826,55.153-6.4402,5.923-12.6027,9.02-17.8941,9.02v-.005Zm-.9854-92.291c-26.0273,0-41.9834,1.361-41.9834,28.123c0,12.892,5.5365,27.808,15.1994,40.911c8.6994,11.808,19.2605,19.854,26.8983,20.497c4.6872.397,10.6919-2.543,16.9197-8.264c12.3955-11.394,24.9435-33.311,24.9435-53.144c0-26.762-15.95-28.123-41.9829-28.123h.0054Z" fill="#040f58"/><path d="M100.794,193.847l-2.6838-.441c.1851-1.133.2776-2.292.2776-3.446c0-11.634-9.4615-21.095-21.0951-21.095s-21.0952,9.461-21.0952,21.095c0,.773.0436,1.557.1252,2.324l-2.7056.294c-.0925-.865-.1415-1.747-.1415-2.624c0-13.131,10.6864-23.817,23.8171-23.817s23.8173,10.686,23.8173,23.817c0,1.301-.109,2.608-.316,3.887v.006Z" fill="#040f58"/><path d="M63.2854,31.6563c0-5.3405,4.3715-9.7119,9.7119-9.7119h8.1223c5.3405,0,9.712,4.3714,9.712,9.7119" fill="#fff"/><path d="M143.044,60.2096c5.34,0,9.712,4.3715,9.712,9.7119v8.1223c0,5.3405-4.372,9.712-9.712,9.712" fill="#2e73e9"/><path d="M11.073,60.2096c-5.34046,0-9.71192,4.3715-9.71192,9.7119v8.1223c0,5.3405,4.37146,9.712,9.71192,9.712" fill="#2e73e9"/><path d="M134.982,54.3628c6.451,1.0126,11.481,9.4126,11.481,19.6253s-5.019,18.5855-11.454,19.6198" fill="#1ba5f8"/><path d="M19.1352,54.3628c-6.451,1.0126-11.48115,9.4126-11.48115,19.6253c0,10.1965,5.01925,18.5855,11.45395,19.6198" fill="#1ba5f8"/><path d="M77.0584,12.6081c3.1058,0,5.6235-2.5178,5.6235-5.62357s-2.5177-5.62355-5.6235-5.62355-5.6236,2.51775-5.6236,5.62355s2.5178,5.62357,5.6236,5.62357Z" fill="#1ba5f8"/><path d="M101.964,30.9758h-49.8059c-19.4707,0-35.2548,15.7841-35.2548,35.2547v15.5097c0,19.4708,15.7841,35.2548,35.2548,35.2548h49.8059c19.471,0,35.255-15.784,35.255-35.2548v-15.5097c0-19.4706-15.784-35.2547-35.255-35.2547Z" fill="#fff"/><path d="M102.296,101.082c5.733,0,10.981-3.3367,13.278-8.59c3.321-7.5943,5.852-15.5315,7.638-23.7899c2.194-10.1747-5.651-19.7668-16.06-19.7668h-60.1819c-10.4088,0-18.2589,9.5921-16.0596,19.7668c1.7802,8.2584,4.317,16.1956,7.6378,23.7899c2.2974,5.2479,7.5453,8.59,13.2777,8.59h50.476-.006Z" fill="#070772"/><g mask="url(#eq7vxbuDcgG47)"><g><rect width="13.1429" height="38.4176" rx="0" ry="0" transform="translate(31 48)" fill="#bebebe"/><rect width="13.1429" height="5.05494" rx="0" ry="0" transform="translate(31 86.4176)" fill="#0000f8"/><rect width="16.1758" height="14.1538" rx="0" ry="0" transform="translate(31 91.4725)" fill="#0002c6"/><rect width="16.1758" height="14.1538" rx="0" ry="0" transform="translate(47.1758 91.4725)" fill="#fefefe"/><rect width="16.1758" height="14.1538" rx="0" ry="0" transform="translate(63.3516 91.4725)" fill="#0002c9"/><rect width="13.1429" height="38.4176" rx="0" ry="0" transform="translate(44.1428 48)" fill="#fdff01"/><rect width="13.1429" height="5.05494" rx="0" ry="0" transform="translate(44.1428 86.4176)" fill="#000100"/><rect width="13.1429" height="38.4176" rx="0" ry="0" transform="translate(57.2856 48)" fill="#00fefe"/><rect width="13.1429" height="5.05494" rx="0" ry="0" transform="translate(57.2856 86.4176)" fill="#ff00fd"/><rect width="13.1429" height="38.4176" rx="0" ry="0" transform="translate(70.4285 48)" fill="#01ff00"/><rect width="13.1429" height="5.05494" rx="0" ry="0" transform="translate(70.4285 86.4176)" fill="#000100"/><rect width="13.1429" height="38.4176" rx="0" ry="0" transform="translate(83.5715 48)" fill="#fd00fb"/><rect width="13.1429" height="5.05494" rx="0" ry="0" transform="translate(83.5715 86.4176)" fill="#01fafc"/><rect width="25.2747" height="14.1538" rx="0" ry="0" transform="translate(79.5276 91.4725)"/><rect width="13.1429" height="38.4176" rx="0" ry="0" transform="translate(96.7144 48)" fill="#fb0102"/><rect width="13.1429" height="5.05494" rx="0" ry="0" transform="translate(96.7144 86.4176)" fill="#000002"/><rect width="5.05494" height="14.1538" rx="0" ry="0" transform="translate(104.802 91.4725)" fill="#767676"/><rect width="13.1429" height="38.4176" rx="0" ry="0" transform="translate(109.857 48)" fill="#0100fa"/><rect width="13.1429" height="5.05494" rx="0" ry="0" transform="translate(109.857 86.4176)" fill="#b9bcc3"/><rect width="13.1429" height="14.1538" rx="0" ry="0" transform="translate(109.857 91.4725)"/></g><mask id="eq7vxbuDcgG47" mask-type="alpha" x="-150%" y="-150%" height="400%" width="400%"><path d="M102.243,100.775c5.733,0,10.981-3.3366,13.278-8.59c3.321-7.5942,5.852-15.5314,7.638-23.7899c2.194-10.1746-5.651-19.7668-16.06-19.7668h-60.1822c-10.4087,0-18.2588,9.5922-16.0595,19.7668c1.7802,8.2585,4.317,16.1957,7.6378,23.7899c2.2973,5.2479,7.5453,8.59,13.2777,8.59h50.4762-.006Z" transform="translate(.000001 0)" fill="#070772"/></mask></g><path d="M123.707,69.2029c-1.802,8.351-4.36,16.3753-7.725,24.0512-2.313,5.3078-7.627,8.6939-13.419,8.6939h-51.0311c-5.7923,0-11.1055-3.3807-13.4301-8.6939c2.2701-5.0084,7.1424-8.6068,12.374-10.436c5.6889-1.987,11.8242-2.1884,17.8506-2.2864c6.0264-.1089,12.1399-.1524,17.9268-1.8509c6.6197-1.949,12.51-6.0373,17.1048-11.1927c4.426-4.9921,7.676-10.9477,9.962-17.2082c7.404,2.7818,12.173,10.6592,10.387,18.923Z" opacity="0.1" fill="#040f58"/><path d="M101.964,118.356h-49.8061c-20.1914,0-36.6157-16.424-36.6157-36.6158v-15.5097c0-20.1914,16.4243-36.6157,36.6157-36.6157h49.8061c20.192,0,36.616,16.4243,36.616,36.6157v15.5097c0,20.1918-16.424,36.6158-36.616,36.6158ZM52.1579,32.3368c-18.6889,0-33.8937,15.2048-33.8937,33.8937v15.5097c0,18.6888,15.2048,33.8938,33.8937,33.8938h49.8061c18.689,0,33.894-15.205,33.894-33.8938v-15.5097c0-18.6889-15.205-33.8937-33.894-33.8937h-49.8061Z" fill="#040f58"/><path d="M135.227,94.9472l-.43-2.6893c5.781-.9255,10.31-8.9553,10.31-18.2752s-4.54-17.3715-10.332-18.2807l.419-2.6892c7.202,1.1268,12.635,10.142,12.635,20.9699s-5.416,19.8104-12.602,20.9645Z" fill="#040f58"/><path d="M143.044,89.1167v-2.7219c4.605,0,8.351-3.7454,8.351-8.351v-8.1223c0-4.6055-3.746-8.3509-8.351-8.3509v-2.722c6.108,0,11.073,4.9649,11.073,11.0729v8.1223c0,6.1081-4.965,11.0729-11.073,11.0729Z" fill="#040f58"/><path d="M61.9243,31.6563c0-6.1081,4.9649-11.0729,11.0729-11.0729h8.1223c6.1081,0,11.0729,4.9648,11.0729,11.0729h-2.7219c0-4.6055-3.7454-8.3509-8.351-8.3509h-8.1223c-4.6055,0-8.3509,3.7454-8.3509,8.3509h-2.722Z" fill="#040f58"/><path d="M103.097,50.0894c-15.7497.9962-32.408,1.6604-48.1953,2.085l-6.0264.1633c-1.9816.0218-3.7618.1198-5.5964.773-5.3187,1.7693-9.3036,6.8703-9.6956,12.472-.1959,1.9489.1688,3.789.5118,5.7434.577,3.4841,1.2085,8.4707,2.0578,11.8677l-.9364.3157c-1.3065-3.9142-2.0578-7.8991-2.8689-11.8242-3.3535-11.3451,4.6545-21.8845,16.5113-21.4489c2.5151-.0654,50.4705-1.0507,54.2271-1.1378l.021.9908h-.01Z" opacity="0.55" fill="#fff"/><path d="M18.8902,94.9472C11.7043,93.7985,6.2876,84.7834,6.2876,73.9827s5.433-19.8376,12.6353-20.9699l.4192,2.6892c-5.7923.9092-10.33255,8.9389-10.33255,18.2807s4.52935,17.3497,10.31075,18.2752l-.4301,2.6893Z" fill="#040f58"/><path d="M11.0729,89.1167C4.96484,89.1167,0,84.1519,0,78.0438v-8.1223c0-6.108,4.96484-11.0729,11.0729-11.0729v2.722c-4.60554,0-8.35095,3.7454-8.35095,8.3509v8.1223c0,4.6056,3.74541,8.351,8.35095,8.351v2.7219Z" fill="#040f58"/><path d="M102.296,102.443h-50.4755c-6.3258,0-12.0256-3.6906-14.5244-9.4012-3.3153-7.5779-5.912-15.6676-7.7194-24.0512-1.1269-5.2207.1579-10.6102,3.5276-14.7856c3.4025-4.2136,8.4544-6.6307,13.8602-6.6307h60.1825c5.411,0,10.463,2.4171,13.86,6.6307c3.37,4.1754,4.655,9.5649,3.528,14.7856-1.808,8.3782-4.404,16.4678-7.72,24.0512-2.498,5.7106-8.198,9.4012-14.524,9.4012h.005ZM46.97,50.2962c-4.5838,0-8.8627,2.0469-11.7426,5.6181-2.8526,3.5331-3.9413,8.0897-2.9887,12.4992c1.7693,8.204,4.3116,16.1194,7.5562,23.534c2.0632,4.7199,6.7885,7.7739,12.031,7.7739h50.4761c5.242,0,9.968-3.0485,12.031-7.7739c3.244-7.4146,5.781-15.3354,7.551-23.534.952-4.415-.137-8.9715-2.989-12.4992-2.88-3.5712-7.164-5.6181-11.743-5.6181h-60.182Z" fill="#040f58"/><path d="M78.4195,11.6881h-2.722v10.2563h2.722v-10.2563Z" fill="#040f58"/><path d="M77.0585,13.9691c-3.8488,0-6.9845-3.1303-6.9845-6.98457s3.1302-6.98453,6.9845-6.98453s6.9845,3.13025,6.9845,6.98453-3.1302,6.98457-6.9845,6.98457Zm0-11.24715c-2.3518,0-4.2626,1.91081-4.2626,4.26258s1.9108,4.26257,4.2626,4.26257s4.2626-1.9108,4.2626-4.26257-1.9108-4.26258-4.2626-4.26258Z" fill="#040f58"/><path d="M1.9924,76.1167c1.85093,1.1323,4.13737,1.5297,6.26049,1.0888-.09799,3.4024.8928,6.8375,2.64031,9.7609-2.12858.6805-4.67089.049-6.2224-1.557-1.08334-1.1214-1.69306-2.6239-1.98703-4.1537-.28852-1.5297-.70226-3.582-.69137-5.139Z" opacity="0.3" fill="#040f58"/><path d="M8.81377,74.2276c2.50963,1.4862,5.72703,1.7258,8.42713.6152-1.2357,5.7379-.6315,11.8623,1.6604,17.2626-1.9761.2994-4.072-.5661-5.5419-1.9217s-2.4388-3.1629-3.1955-5.0138c-1.39913-3.4406-1.37191-7.235-1.35558-10.9477l.00545.0054Z" opacity="0.3" fill="#040f58"/><path d="M152.13,76.1167c-1.851,1.1323-4.137,1.5297-6.26,1.0888.098,3.4024-.893,6.8375-2.641,9.7609c2.129.6805,4.671.049,6.223-1.557c1.083-1.1214,1.693-2.6239,1.987-4.1537.288-1.5297.702-3.582.691-5.139Z" opacity="0.3" fill="#040f58"/><path d="M145.303,74.2276c-2.509,1.4862-5.727,1.7258-8.427.6152c1.236,5.7379.632,11.8623-1.66,17.2626c1.976.2994,4.072-.5661,5.542-1.9217s2.439-3.1629,3.195-5.0138c1.399-3.4406,1.372-7.235,1.356-10.9477l-.006.0054Z" opacity="0.3" fill="#040f58"/><path d="M65.3433,27.2903c4.5511.4791,9.1457.5444,13.7077.1905c1.459-.1143,2.9397-.2722,4.3007-.822s2.6022-1.5352,3.1575-2.8907c2.2592,1.459,3.8162,3.8924,4.0176,6.5708-.0926,0-.1524.0925-.245.0925h-26.637c.2831-1.448.4083-2.4116,1.693-3.1411h.0055Z" opacity="0.3" fill="#040f58"/><path d="M72.8721,8.72659c1.8074.38107,3.7944-.21776,5.0901-1.52974s1.8672-3.3099,1.4589-5.11183c1.459,1.2031,2.6077,2.87438,2.8581,4.75253.2504,1.8727-.5009,3.92505-2.0905,4.95395-.9527.6206-2.1177.8384-3.2554.8384-1.165,0-2.3681-.2341-3.3099-.9201s-.9963-1.83999-.7567-2.97777l.0054-.00544Z" opacity="0.3" fill="#040f58"/><path d="M126.957,40.8402c5.433,12.4611,6.49,26.784,2.946,39.9093-2.015,7.4472-5.733,16.1738-12.81,20.0225-9.712,5.281-19.7613,4.883-30.4041,4.736-12.2488-.168-24.5738.692-36.7518-.054-5.6399-.349-10.7245-.267-16.1957-2.123-5.188-1.764-10.0385-4.5404-14.1269-8.1987c6.0482,12.3197,18.9883,20.7737,32.6961,21.4707h40.3557c11.4917,0,22.5157-.686,31.8467-8.443c5.88-4.889,10.115-11.7321,11.862-19.1794c1.443-6.1461,1.22-12.5482.92-18.8577-.245-5.2098-.549-10.4686-1.97-15.4879-1.421-5.0192-3.806-10.4305-7.97-13.5716l-.392-.2123-.006-.0109Z" opacity="0.3" fill="#040f58"/><path d="M42.3045,120.974c0,5.836,69.8835,5.836,69.8835,0l-7.877-4.001h-54.0094l-8.0025,4.001h.0054Z" opacity="0.3" fill="#040f58"/><path d="M95.9652,149.892c-.0108.496-.1469.872-.43,1.204-2.183,2.689-4.3497,5.395-6.5436,8.067-.7894.964-2.0197.953-2.8091-.01-.9254-1.138-1.8454-2.276-2.7709-3.414-1.2467-1.524-2.4879-3.048-3.7182-4.578-.1361-.158-.2395-.332-.3212-.506-.2831-.616-.1851-1.258.3103-1.873.5607-.708,1.1378-1.405,1.6985-2.112c1.312-1.606,2.6077-3.223,3.936-4.829.2939-.359.5879-.724.8819-1.083.6805-.844,1.6713-.926,2.477-.283.1469.092.283.228.4028.375c1.5134,1.862,3.0105,3.707,4.5239,5.569v.011c.1851.229.3756.468.5607.697.4573.561.9091,1.121,1.3664,1.688.2831.321.4301.707.441,1.083l-.0055-.006Z" fill="#1ca4f7"/><path d="M85.6489,169.91c.0382.506-.185.909-.479,1.284-2.085,2.57-4.1864,5.15-6.2768,7.72-.8003.991-1.8074,1.203-2.6349.577-.4682-.359-.7785-.855-1.1378-1.312-.6042-.735-1.2194-1.486-1.791-2.221-1.312-1.579-2.5968-3.174-3.8652-4.764-.147-.185-.2831-.375-.3593-.549-.3321-.654-.2123-1.247.3593-1.966c2.085-2.607,4.2027-5.22,6.3149-7.812.8166-1.001,1.7911-1.11,2.6621-.386.147.12.294.283.441.457c1.4698,1.835,2.956,3.664,4.4422,5.499.6152.751,1.2194,1.486,1.8183,2.232.3103.359.5498.751.5062,1.246v-.005Z" fill="#72c6fa"/><path d="M85.1807,138.428c-2.1286,2.624-4.268,5.258-6.3966,7.882-.8819,1.084-2.1013,1.073-2.9833-.01-.8165-1.002-1.6331-2.009-2.4334-3.011-.6151-.751-1.2303-1.513-1.8346-2.259-.7077-.871-1.4208-1.742-2.1286-2.624-.136-.174-.2395-.332-.3211-.506-.294-.616-.2015-1.247.2939-1.862c2.1558-2.679,4.3225-5.341,6.4892-8.003.3593-.457.8274-.751,1.3664-.724.4954,0,.8819.136,1.1922.403.1089.082.1851.158.2668.267c1.5515,1.9,3.103,3.816,4.6436,5.727.6152.751,1.2303,1.513,1.8455,2.275.6696.817.6696,1.633,0,2.45v-.005Z" fill="#1ca4f7"/><path d="M74.821,151.259c-2.085,2.597-4.1863,5.193-6.304,7.774-.9255,1.138-2.1014,1.138-3.0377-.011-.6696-.817-1.3392-1.644-2.0088-2.461-1.4426-1.78-2.8907-3.56-4.3334-5.34-.0653-.093-.136-.185-.2014-.283-.1851-.294-.3103-.615-.2831-1.002-.0272-.468.1851-.855.4791-1.219c2.1014-2.597,4.2027-5.178,6.304-7.774.7785-.953,1.6604-1.149,2.4879-.588.2123.147.4301.348.6424.604c1.4698,1.818,2.9451,3.626,4.415,5.444.6152.751,1.2303,1.513,1.8346,2.259.7512.926.7512,1.671,0,2.597h.0054Z" fill="#1ca4f7"/><path d="M74.821,151.259c-2.085,2.597-4.1864,5.193-6.304,7.774-.9255,1.138-2.1014,1.138-3.0377-.011-.6696-.817-1.3392-1.644-2.0088-2.461c2.5695-.294,5.0029-1.54,6.7558-3.451c1.6604-1.835,2.6512-4.241,2.7547-6.702.6151.752,1.2303,1.514,1.8346,2.26.7512.925.7512,1.671,0,2.596l.0054-.005Z" opacity="0.3" fill="#030073"/><path d="M85.1807,138.428c-2.1286,2.624-4.268,5.258-6.3966,7.882-.8819,1.084-2.1013,1.073-2.9832-.01-.8166-1.002-1.6332-2.009-2.4335-3.011c2.7438-.174,5.4058-1.443,7.2513-3.495c1.5134-1.66,2.477-3.838,2.7165-6.086.6152.751,1.2303,1.513,1.8455,2.275.6696.817.6696,1.633,0,2.45v-.005Z" opacity="0.3" fill="#030073"/><path d="M95.9653,149.892c-.0109.496-.147.872-.4301,1.204-2.183,2.689-4.3497,5.394-6.5436,8.067-.7893.964-2.0197.953-2.809-.01-.9255-1.138-1.8455-2.276-2.771-3.414c2.8254-.12,5.5909-1.421,7.4908-3.517c1.459-1.605,2.4062-3.652,2.6893-5.792.1851.229.3757.468.5607.697.4573.561.9092,1.121,1.3665,1.688.2831.321.43.707.4409,1.083l.0055-.006Z" opacity="0.3" fill="#030073"/><path d="M85.6489,169.91c.0381.506-.1851.909-.4791,1.284-2.085,2.57-4.1863,5.15-6.2768,7.72-.8002.991-1.8074,1.203-2.6348.577-.4682-.359-.7785-.855-1.1378-1.312-.6043-.735-1.2194-1.486-1.7911-2.221c2.7547-.158,5.4331-1.443,7.2949-3.495c1.4971-1.644,2.4497-3.8,2.7056-6.037.6152.751,1.2194,1.486,1.8183,2.232.3103.359.5498.751.5062,1.246l-.0054.006Z" opacity="0.3" fill="#030073"/><path d="M65.6698,147.377c-1.6604,2.02-4.1374,3.294-6.7287,3.561-.1851-.294-.3103-.615-.2831-1.002-.0272-.468.1851-.855.4791-1.219c2.1013-2.597,4.2027-5.178,6.304-7.774.7785-.953,1.6604-1.149,2.4879-.588.1579,2.515-.6424,5.084-2.2592,7.022Z" opacity="0.45" fill="#fff"/><path d="M78.4194,127.709c.0545,2.384-.7512,4.774-2.2755,6.608-1.7421,2.085-4.3606,3.387-7.0662,3.572-.294-.615-.2014-1.247.294-1.862c2.1557-2.679,4.3224-5.341,6.4891-8.003.3593-.457.8275-.751,1.3664-.724.4954,0,.8819.136,1.1922.403v.006Z" opacity="0.45" fill="#fff"/><path d="M88.6704,140.475c.0545,2.384-.7512,4.774-2.2755,6.608-1.7258,2.075-4.3225,3.37-7.0227,3.572-.2831-.616-.1851-1.258.3103-1.873.5607-.708,1.1378-1.405,1.6985-2.112c1.312-1.606,2.6077-3.223,3.936-4.829.2939-.359.5879-.724.8819-1.083.6805-.844,1.6713-.926,2.477-.283h-.0055Z" opacity="0.45" fill="#fff"/><path d="M78.4358,160.481c.0273,2.368-.7621,4.752-2.2864,6.582-1.742,2.101-4.3497,3.397-7.0499,3.587-.332-.653-.2123-1.247.3593-1.965c2.0851-2.608,4.2027-5.221,6.315-7.812.8166-1.002,1.791-1.111,2.662-.387v-.005Z" opacity="0.45" fill="#fff"/><path d="M87.6741,160.993c-.9363,0-1.84-.452-2.4824-1.242-2.1884-2.678-4.366-5.362-6.5381-8.051-1.0398-1.285-1.0453-2.82-.0164-4.099c2.526-3.136,4.6165-5.706,6.5654-8.09.6424-.784,1.508-1.219,2.4389-1.219.969,0,1.8781.468,2.564,1.312c1.1814,1.453,2.3627,2.907,3.5386,4.366l2.956,3.647c.4573.561.7132,1.214.7404,1.889v.071c-.0054.784-.2504,1.475-.724,2.063l-1.6713,2.063c-1.6386,2.025-3.2773,4.05-4.9268,6.065-.6423.784-1.5134,1.219-2.4552,1.219l.0109.006Zm-.0326-19.974c-.1361,0-.2777.158-.3321.223-1.9489,2.379-4.0285,4.949-6.5545,8.079-.2123.261-.2341.376.0109.675c2.1721,2.684,4.3497,5.368,6.5327,8.041.1252.152.2613.239.3756.239.147,0,.2831-.136.3484-.223c1.6495-2.009,3.2827-4.034,4.9159-6.054l1.6713-2.063c.0707-.087.1088-.169.1197-.332-.0054-.054-.0326-.147-.1306-.267l-2.9615-3.653c-1.1759-1.453-2.3572-2.907-3.5385-4.36-.1851-.229-.3593-.311-.4573-.311v.006Z" fill="#040f58"/><path d="M77.2491,181.102c-.6315,0-1.263-.212-1.8291-.642-.49-.37-.8166-.811-1.1106-1.198-.0871-.114-.1742-.228-.2613-.337-1.9108-2.341-3.8107-4.687-5.7052-7.045-1.1323-1.404-1.1323-2.83,0-4.235c2.2374-2.787,4.3225-5.362,6.3748-7.877.92-1.127,1.9054-1.367,2.575-1.367h.0054c.6805,0,1.6931.251,2.6458,1.432c1.6985,2.101,3.4024,4.203,5.1063,6.299l1.2032,1.48c.234.289.8546,1.051.822,2.118.0381,1.111-.588,1.884-.8003,2.145l-.1361.169c-2.0578,2.542-4.121,5.079-6.1843,7.616-.773.947-1.742,1.437-2.7056,1.437v.005Zm.0381-19.979c-.0598,0-.234.076-.4681.365-2.0469,2.504-4.1265,5.079-6.3585,7.861-.3267.408-.3267.414,0,.822c1.889,2.346,3.7889,4.693,5.6943,7.028.1143.136.2232.283.3266.425.2124.283.392.522.5825.664.0926.071.3049.229.7731-.349c2.0632-2.531,4.121-5.073,6.1788-7.61l.1361-.169c.1307-.163.196-.277.1905-.343v-.087-.087c0-.005-.0272-.087-.2123-.316l-1.2031-1.481c-1.7039-2.101-3.4133-4.202-5.1118-6.304-.2668-.332-.4682-.419-.539-.419h.0109Z" fill="#040f58"/><path d="M77.3034,148.134c-.9581,0-1.8673-.474-2.5641-1.328-.9744-1.192-1.9434-2.39-2.9125-3.588l-2.1503-2.651c-.4627-.566-.9255-1.138-1.3828-1.709-1.0397-1.296-1.0506-2.826-.0272-4.094c2.1721-2.695,4.3497-5.379,6.5327-8.063.675-.827,1.557-1.268,2.4661-1.23c1.0234,0,1.8618.398,2.4933,1.171l.1905.234c2.1177,2.607,4.23,5.209,6.3422,7.823c1.0724,1.328,1.0724,2.852,0,4.18-2.1449,2.652-4.2952,5.297-6.4456,7.943-.6914.844-1.5951,1.312-2.5423,1.312Zm-.1415-19.941c0,0-.1198.06-.2559.229-2.1776,2.684-4.3551,5.362-6.5272,8.057-.1906.239-.2341.348.0272.68.4573.566.9146,1.133,1.3773,1.699l2.1503,2.656c.969,1.198,1.9381,2.39,2.9071,3.582.1959.24.3593.322.4518.322.0871,0,.2504-.082.4355-.311c2.1504-2.64,4.3007-5.286,6.4402-7.937.2613-.321.2613-.43,0-.757-2.1068-2.607-4.2245-5.215-6.3367-7.817l-.1906-.234c-.0871-.104-.147-.169-.4028-.169h-.0381-.0381Z" fill="#040f58"/><path d="M66.9383,160.993c-.9527,0-1.8727-.485-2.5913-1.367-1.5134-1.856-3.0214-3.718-4.5294-5.574l-1.8563-2.287c-.2123-.261-.8384-1.034-.7948-2.156-.0164-.724.2395-1.404.7839-2.074l1.9435-2.4c1.4698-1.813,2.9342-3.621,4.4095-5.428.9527-1.165,1.9489-1.41,2.624-1.41.675,0,1.6767.245,2.6403,1.426c2.1013,2.581,4.1972,5.167,6.2931,7.758c1.165,1.442,1.165,2.896.0055,4.333-2.1123,2.613-4.2299,5.226-6.3531,7.829-.7131.876-1.6277,1.355-2.5749,1.355v-.005Zm-.0055-19.974c-.049,0-.2395.071-.5117.408-1.4698,1.808-2.9397,3.615-4.4041,5.422l-1.9489,2.401c-.1361.163-.1797.267-.1797.305v.082.081c0,.066.0599.174.1851.332l1.8564,2.287c1.5079,1.856,3.0159,3.718,4.5239,5.574.2341.289.4192.365.479.365.0599,0,.2396-.076.4682-.354c2.1231-2.602,4.2354-5.21,6.3476-7.823.3375-.419.3539-.462-.0054-.909-2.0905-2.586-4.1864-5.171-6.2877-7.746-.2831-.343-.4791-.42-.5281-.42l.0054-.005Z" fill="#040f58"/><path d="M75.7956,149.762c.1307.25.3049.484.5553.615.3647.196.8111.131,1.1976,0c.5662-.196,1.0943-.555,1.3882-1.072.294-.518.3103-1.22-.049-1.694-.2994-.391-.8111-.587-1.3065-.615-.4682-.027-1.4753-.043-1.8019.381-.4736.616-.3103,1.759.0163,2.39v-.005Z" fill="#040f58"/><path d="M40.971,172.245c-8.0625-13.898-9.0642-31.52-3.4352-46.567-.8057-.212-1.5188.201-2.1993.68-2.232,1.579-4.0176,3.985-4.6981,6.637-3.0431,11.856-2.0796,24.704,2.6948,35.967.0762.175.1306.349.1742.523-1.1269-.724-2.3355-1.312-3.6094-1.731-3.9958-1.323-8.4761-1.132-12.3467.528.1197.757.2831,1.715.4028,2.472c3.593-1.536,7.7576-1.683,11.454-.409c1.3174.458,2.5695,1.094,3.7236,1.878-1.0506,2.118-3.6311,3.947-5.9229,4.562-3.4351.915-7.382-.686-9.2057-3.734.294,3.811,1.6658,7.894,5.052,9.668c3.3915,1.775,7.7085.73,10.7734-1.573c1.5243-1.143,2.8037-2.548,3.9523-4.072.1361.218.2613.435.3865.664.3974-.713.8166-1.366,1.2086-2.079-.0926-.153-.1851-.305-.2777-.458.6479-.974,1.2685-1.965,1.8728-2.956Z" opacity="0.3" fill="#040f58"/><path d="M114.453,172.245c8.062-13.898,9.064-31.52,3.435-46.567.805-.212,1.519.201,2.199.68c2.232,1.579,4.018,3.985,4.698,6.637c3.043,11.856,2.08,24.704-2.695,35.967-.076.175-.13.349-.174.523c1.127-.724,2.336-1.312,3.61-1.731c3.995-1.323,8.476-1.132,12.346.528-.119.757-.283,1.715-.403,2.472-3.593-1.536-7.757-1.683-11.454-.409-1.317.458-2.569,1.094-3.723,1.878c1.051,2.118,3.631,3.947,5.923,4.562c3.435.915,7.382-.686,9.205-3.734-.294,3.811-1.665,7.894-5.051,9.668-3.392,1.775-7.709.73-10.774-1.573-1.524-1.143-2.804-2.548-3.952-4.072-.136.218-.262.435-.387.664-.397-.713-.816-1.366-1.208-2.079.092-.153.185-.305.277-.458-.647-.974-1.268-1.965-1.872-2.956Z" opacity="0.3" fill="#040f58"/></g></g></g><clipPath id="eq7vxbuDcgG87"><rect width="154.117" height="260" rx="0" ry="0" transform="translate(0-10)" fill="#fff"/></clipPath></g></svg>
