<svg width="40" height="40" viewBox="0 0 40 40" fill="none" xmlns="http://www.w3.org/2000/svg">
<rect width="40" height="40" rx="4" fill="#E6EAF7" fill-opacity="0.5"/>
<path d="M18.735 23.472C18.735 23.022 18.762 22.614 18.816 22.248C18.876 21.876 19.002 21.516 19.194 21.168C19.368 20.832 19.575 20.559 19.815 20.349C20.055 20.133 20.313 19.926 20.589 19.728C20.865 19.53 21.138 19.287 21.408 18.999C21.648 18.729 21.807 18.459 21.885 18.189C21.963 17.913 22.002 17.622 22.002 17.316C22.002 17.046 21.969 16.803 21.903 16.587C21.843 16.365 21.741 16.176 21.597 16.02C21.381 15.75 21.111 15.564 20.787 15.462C20.469 15.36 20.136 15.309 19.788 15.309C19.458 15.309 19.146 15.354 18.852 15.444C18.564 15.534 18.324 15.675 18.132 15.867C17.94 16.041 17.799 16.254 17.709 16.506C17.619 16.752 17.574 17.019 17.574 17.307H15.9C15.936 16.785 16.059 16.29 16.269 15.822C16.485 15.348 16.782 14.958 17.16 14.652C17.514 14.352 17.919 14.133 18.375 13.995C18.831 13.851 19.29 13.779 19.752 13.779C20.364 13.779 20.943 13.872 21.489 14.058C22.041 14.244 22.5 14.553 22.866 14.985C23.148 15.291 23.358 15.642 23.496 16.038C23.634 16.434 23.703 16.851 23.703 17.289C23.703 17.823 23.595 18.321 23.379 18.783C23.169 19.245 22.884 19.662 22.524 20.034C22.326 20.25 22.11 20.448 21.876 20.628C21.648 20.808 21.429 20.988 21.219 21.168C21.015 21.348 20.853 21.546 20.733 21.762C20.577 22.044 20.487 22.305 20.463 22.545C20.445 22.779 20.436 23.088 20.436 23.472H18.735ZM18.744 27V25.029H20.436V27H18.744Z" fill="#97A5BA"/>
</svg>
