<svg width="40" height="40" viewBox="0 0 40 40" fill="none" xmlns="http://www.w3.org/2000/svg">
<g clip-path="url(#clip0_2285_50083)">
<rect width="40" height="40" rx="4" fill="#EC1C26" fill-opacity="0.12"/>
<path opacity="0.62" d="M-5.20889 27.2321L9.77164 23.6577C11.3365 23.2844 12.811 24.4461 12.8142 26.0549L12.8446 41.4559C12.847 42.6534 12.0149 43.7096 10.85 43.9875L-4.13052 47.5618C-5.69534 47.9352 -7.16988 46.7734 -7.17306 45.1647L-7.20349 29.7637C-7.20586 28.5661 -6.37375 27.51 -5.20889 27.2321Z" fill="#EC1C26" fill-opacity="0.32"/>
<path d="M24.7989 13.2711L39.7794 9.6968C41.3443 9.32344 42.8188 10.4852 42.822 12.0939L42.8524 27.4949C42.8548 28.6925 42.0227 29.7486 40.8578 30.0266L25.8773 33.6009C24.3125 33.9742 22.8379 32.8125 22.8348 31.2038L22.8043 15.8028C22.802 14.6052 23.6341 13.549 24.7989 13.2711Z" fill="#EC1C26" fill-opacity="0.32"/>
<path d="M1.3458 -5.20545L16.3263 -8.77976C17.8911 -9.15312 19.3657 -7.99137 19.3689 -6.38263L19.3993 9.01838C19.4017 10.2159 18.5696 11.2721 17.4047 11.55L2.42417 15.1243C0.859349 15.4977 -0.615193 14.3359 -0.618372 12.7272L-0.648806 -2.67381C-0.651172 -3.87136 0.180937 -4.92751 1.3458 -5.20545Z" fill="#EC1C26" fill-opacity="0.32"/>
<path d="M24.752 -10.7992L39.7326 -14.3735C41.2974 -14.7469 42.7719 -13.5851 42.7751 -11.9764L42.8056 3.42463C42.8079 4.62219 41.9758 5.67834 40.811 5.95627L25.8304 9.53058C24.2656 9.90394 22.7911 8.74219 22.7879 7.13345L22.7574 -8.26755C22.7551 -9.46511 23.5872 -10.5213 24.752 -10.7992Z" fill="#EC1C26" fill-opacity="0.32"/>
</g>
<defs>
<clipPath id="clip0_2285_50083">
<rect width="40" height="40" rx="4" fill="white"/>
</clipPath>
</defs>
</svg>
