<svg width="178" height="239" viewBox="0 0 178 239" fill="none" xmlns="http://www.w3.org/2000/svg">
<g clip-path="url(#clip0_23618_43406)">
<path d="M131.682 172.941C129.148 169.485 127.495 165.479 126.135 161.439C125.248 158.799 124.36 156.335 123.77 153.597C123.122 150.596 122.591 147.571 122.165 144.529C121.324 138.509 120.927 132.431 120.968 126.352C121.014 120.461 121.47 114.534 120.623 108.707C120.804 108.789 120.979 108.876 121.16 108.958C130.071 113.221 137.69 120.105 142.922 128.478C148.37 137.189 151.99 147.303 154.028 157.375C154.95 161.929 155.651 166.664 154.635 171.196C153.689 175.423 150.373 181.145 145.474 181.069C139.932 180.982 134.847 177.245 131.682 172.936V172.941Z" fill="white"/>
<path d="M145.579 182.535C145.538 182.535 145.497 182.535 145.45 182.535C140.038 182.447 134.456 179.183 130.508 173.8C126.766 168.703 124.862 162.431 123.175 156.896L125.966 156.044C127.659 161.614 129.411 167.371 132.856 172.072C135.489 175.663 140.189 179.528 145.491 179.61C145.515 179.61 145.538 179.61 145.561 179.61C149.485 179.61 152.387 174.518 153.204 170.875C154.104 166.857 153.607 162.688 152.591 157.661C150.431 146.999 140.686 117.956 121.744 111.691L122.661 108.917C142.916 115.621 153.199 145.954 155.452 157.077C156.398 161.743 157.122 166.723 156.054 171.511C155.061 175.96 151.453 182.523 145.573 182.529L145.579 182.535Z" fill="#040F58"/>
<path d="M132.564 172.089L130.082 170.553C132.552 166.553 136.528 163.424 140.995 161.964C145.462 160.504 150.524 160.685 154.874 162.455L153.777 165.158C150.051 163.646 145.725 163.494 141.9 164.743C138.081 165.993 134.677 168.667 132.564 172.089Z" fill="#040F58"/>
<path d="M49.2186 172.941C50.4681 171.242 51.5074 169.397 52.4008 167.488C53.5803 164.96 54.5028 162.314 55.3495 159.658C56.1728 157.077 56.5873 154.385 57.2588 151.74C58.7711 145.808 60.1082 139.794 60.5636 133.674C61.1475 125.809 60.2133 117.658 56.5698 110.663C49.2361 115.06 42.8833 121.068 38.0486 128.122C34.919 132.693 32.9688 137.709 31.0711 142.906C29.3486 147.624 27.8713 152.458 26.8729 157.381C25.9503 161.935 25.2496 166.67 26.2656 171.201C27.2115 175.429 30.5281 181.151 35.4269 181.075C40.9681 180.987 46.0538 177.251 49.2186 172.941Z" fill="white"/>
<path d="M35.3279 182.535C29.4422 182.535 25.8396 175.966 24.8411 171.516C23.7726 166.728 24.4966 161.748 25.4425 157.083C27.6964 145.959 37.9729 115.626 58.2341 108.923L59.1508 111.696C40.2092 117.962 30.464 147.005 28.3036 157.666C27.4219 162.016 26.7388 166.629 27.6905 170.88C28.5021 174.524 31.4099 179.615 35.3337 179.615C35.3571 179.615 35.3804 179.615 35.4038 179.615C40.7055 179.528 45.4059 175.662 48.0393 172.077C51.4843 167.382 53.2359 161.619 54.9292 156.049L57.7203 156.902C56.0386 162.437 54.1293 168.708 50.3924 173.805C46.4452 179.189 40.8574 182.453 35.4505 182.54C35.4096 182.54 35.3629 182.54 35.322 182.54L35.3279 182.535Z" fill="#040F58"/>
<path d="M48.338 172.089C46.2243 168.667 42.8202 165.993 39.0015 164.743C35.177 163.494 30.8503 163.646 27.1251 165.158L26.0273 162.455C30.3832 160.685 35.4397 160.51 39.9065 161.964C44.3733 163.424 48.3497 166.554 50.8254 170.553L48.3438 172.089H48.338Z" fill="#040F58"/>
<path d="M136.69 138.171C136.69 169.234 107.963 206.994 90.2007 205.494C72.4386 203.993 43.7109 169.234 43.7109 138.171C43.7109 107.107 64.5268 106.547 90.2007 106.547C115.875 106.547 136.69 107.107 136.69 138.171Z" fill="white"/>
<path d="M90.2192 146.946C77.9632 146.946 66.5247 146.041 58.0115 144.401C47.4489 142.363 42.3164 139.42 42.3164 135.403H45.2359C45.2359 139.554 62.4375 144.033 90.225 144.033C118.013 144.033 135.214 139.554 135.214 135.403H138.134C138.134 146.625 95.1298 146.952 90.225 146.952L90.2192 146.946Z" fill="#040F58"/>
<path d="M91.2583 206.994C90.8612 206.994 90.4642 206.977 90.0788 206.947C80.9409 206.177 69.0819 197.302 59.1207 183.784C48.4004 169.234 42.252 152.61 42.252 138.17C42.252 105.087 65.5435 105.087 90.2014 105.087C114.859 105.087 138.151 105.087 138.151 138.17C138.151 160.288 124.213 184.672 110.451 197.325C103.543 203.678 96.9396 207 91.2641 207L91.2583 206.994ZM90.2014 108.006C62.2854 108.006 45.1714 109.466 45.1714 138.17C45.1714 151.997 51.1096 167.996 61.4738 182.05C70.8044 194.715 82.132 203.345 90.3241 204.034C95.3514 204.46 101.792 201.307 108.472 195.17C121.767 182.949 135.226 159.442 135.226 138.165C135.226 109.46 118.117 108.001 90.1956 108.001L90.2014 108.006Z" fill="#040F58"/>
<path d="M115.408 191.713L112.53 191.241C112.728 190.026 112.828 188.782 112.828 187.544C112.828 175.067 102.68 164.919 90.2017 164.919C77.7238 164.919 67.5757 175.067 67.5757 187.544C67.5757 188.379 67.6224 189.214 67.71 190.038L64.8081 190.359C64.7088 189.43 64.6562 188.485 64.6562 187.544C64.6562 173.461 76.1181 161.999 90.2017 161.999C104.285 161.999 115.747 173.461 115.747 187.544C115.747 188.94 115.63 190.341 115.408 191.713Z" fill="#040F58"/>
<path opacity="0.3" d="M135.716 137.458C135.64 134.836 136.609 132.804 136.3 130.194C137.287 128.303 135.547 125.348 134.25 123.701C134.046 122.569 134.992 122.02 134.747 120.899C134.764 121.816 134.764 122.732 134.747 123.649C118.684 127.17 101.523 125.5 86.4352 118.949C79.2241 115.819 72.3458 111.527 64.5216 110.056C63.4297 109.851 62.332 110.038 61.281 110.348C59.3542 110.914 56.0318 112.263 54.6188 113.729C54.4202 113.933 53.1181 113.542 53.0422 113.729C52.3357 115.387 57.0536 116.987 58.5134 117.629C70.238 122.785 82.2429 126.901 94.3645 131.024C100.455 133.096 106.591 135.181 112.962 136.063C119.332 136.944 126.035 136.553 131.868 133.844C132.656 133.476 133.439 133.05 134.151 132.536C133.807 135.49 132.154 137.843 131.524 140.751C125.13 143.636 110.503 146.012 90.213 146.012C62.478 146.012 45.3056 141.575 45.3056 137.464H42.2227C42.2227 141.528 47.3785 144.494 57.9878 146.544C66.5069 148.19 77.9512 149.095 90.213 149.095C96.0286 149.095 118.655 148.797 130.642 144.412C127.296 157.188 121.195 169.245 112.804 179.44C109.02 170.699 100.309 164.563 90.1955 164.563C79.5511 164.563 70.4599 171.353 67.0324 180.83C59.2257 173.134 52.616 164.224 47.5828 154.484C50.0644 167.616 56.4405 180.234 65.596 190.102C65.6194 190.704 65.6544 191.305 65.7186 191.901L67.1492 191.743C70.419 195.042 74.0099 198.002 77.887 200.513C81.5364 202.878 85.5827 204.951 89.9269 205.079C95.2521 205.243 100.221 202.475 104.542 199.357C107.292 197.372 109.896 195.188 112.354 192.852L114.503 193.203C114.649 192.298 114.731 191.381 114.778 190.458C122.006 182.973 127.74 174.045 131.459 164.323C134.221 157.106 135.529 149.486 135.722 141.785C137.298 140.559 138.209 139.128 138.209 137.458H135.716ZM105.622 187.183C102.504 190.155 99.0123 192.981 94.8375 194.049C90.8612 195.065 86.5812 194.365 82.8151 192.735C79.0431 191.112 75.7208 188.613 72.5911 185.951C71.5459 185.063 70.5299 184.135 69.5198 183.206C72.1181 174.226 80.3978 167.64 90.2014 167.64C100.005 167.64 107.59 173.7 110.527 182.109C108.962 183.866 107.321 185.559 105.616 187.183H105.622Z" fill="#040F58"/>
<path d="M110.229 144.57C110.217 145.101 110.071 145.504 109.768 145.86C107.426 148.745 105.102 151.647 102.749 154.514C101.903 155.547 100.583 155.536 99.7365 154.502C98.7439 153.282 97.7571 152.061 96.7644 150.841C95.4273 149.206 94.0961 147.571 92.7764 145.931C92.6305 145.761 92.5195 145.574 92.432 145.387C92.1283 144.728 92.2334 144.039 92.7648 143.379C93.3662 142.62 93.9851 141.872 94.5865 141.113C95.9937 139.391 97.3834 137.657 98.8081 135.934C99.1234 135.549 99.4387 135.158 99.754 134.772C100.484 133.867 101.547 133.78 102.411 134.469C102.568 134.568 102.714 134.714 102.843 134.872C104.466 136.868 106.072 138.848 107.695 140.845V140.856C107.894 141.102 108.098 141.359 108.296 141.604C108.787 142.205 109.271 142.807 109.762 143.414C110.066 143.758 110.223 144.173 110.235 144.576L110.229 144.57Z" fill="#1CA4F7"/>
<path d="M99.1636 166.04C99.2044 166.583 98.965 167.015 98.6497 167.418C96.4134 170.174 94.1596 172.942 91.9174 175.698C91.0591 176.76 89.9789 176.988 89.0914 176.317C88.5892 175.931 88.2564 175.4 87.871 174.909C87.2229 174.121 86.5631 173.315 85.95 172.527C84.5428 170.834 83.1648 169.123 81.8044 167.418C81.6467 167.219 81.5007 167.015 81.419 166.828C81.0628 166.128 81.1913 165.491 81.8044 164.72C84.0407 161.924 86.312 159.121 88.5775 156.341C89.4534 155.267 90.4986 155.15 91.4328 155.927C91.5904 156.055 91.7481 156.231 91.9057 156.417C93.4823 158.385 95.0763 160.347 96.6703 162.315C97.3301 163.121 97.9783 163.909 98.6205 164.709C98.9534 165.094 99.2103 165.514 99.1636 166.046V166.04Z" fill="#72C6FA"/>
<path d="M98.6615 132.267C96.3785 135.082 94.0838 137.908 91.8007 140.722C90.8548 141.884 89.5469 141.872 88.601 140.71C87.7251 139.636 86.8493 138.556 85.991 137.481C85.3312 136.676 84.6714 135.858 84.0232 135.058C83.2642 134.124 82.4993 133.19 81.7402 132.244C81.5942 132.057 81.4833 131.888 81.3957 131.701C81.0804 131.041 81.1797 130.364 81.711 129.704C84.0232 126.831 86.3471 123.976 88.6711 121.121C89.0564 120.63 89.5586 120.315 90.1366 120.344C90.668 120.344 91.0825 120.49 91.4153 120.776C91.5321 120.864 91.6139 120.946 91.7015 121.062C93.3656 123.1 95.0297 125.155 96.6821 127.205C97.3419 128.011 98.0017 128.828 98.6615 129.646C99.3797 130.521 99.3797 131.397 98.6615 132.273V132.267Z" fill="#1CA4F7"/>
<path d="M87.5507 146.03C85.3144 148.815 83.0606 151.6 80.7892 154.368C79.7966 155.588 78.5354 155.588 77.5311 154.356C76.8129 153.48 76.0947 152.593 75.3765 151.717C73.8292 149.807 72.276 147.898 70.7287 145.989C70.6587 145.89 70.5827 145.79 70.5127 145.685C70.3142 145.37 70.1799 145.025 70.2091 144.611C70.1799 144.109 70.4076 143.694 70.7229 143.303C72.9767 140.518 75.2306 137.75 77.4844 134.965C78.3194 133.943 79.2653 133.733 80.1528 134.334C80.3805 134.492 80.6141 134.708 80.8418 134.982C82.4183 136.933 84.0007 138.871 85.5772 140.821C86.237 141.627 86.8968 142.445 87.5449 143.244C88.3507 144.237 88.3507 145.037 87.5449 146.03H87.5507Z" fill="#1CA4F7"/>
<path opacity="0.3" d="M87.5512 146.03C85.3149 148.815 83.061 151.6 80.7897 154.368C79.7971 155.588 78.5358 155.588 77.5315 154.356C76.8133 153.48 76.0951 152.593 75.377 151.717C78.1329 151.402 80.743 150.064 82.6231 148.015C84.404 146.047 85.4667 143.466 85.5776 140.827C86.2374 141.633 86.8972 142.45 87.5454 143.25C88.3511 144.243 88.3511 145.043 87.5454 146.036L87.5512 146.03Z" fill="#030073"/>
<path opacity="0.3" d="M98.6627 132.267C96.3797 135.082 94.085 137.908 91.8019 140.722C90.856 141.884 89.5481 141.873 88.6022 140.711C87.7264 139.636 86.8505 138.556 85.9922 137.482C88.935 137.295 91.7903 135.934 93.7697 133.733C95.3929 131.952 96.4264 129.617 96.6833 127.205C97.3431 128.011 98.0029 128.828 98.6627 129.646C99.3809 130.522 99.3809 131.397 98.6627 132.273V132.267Z" fill="#030073"/>
<path opacity="0.3" d="M110.228 144.57C110.217 145.101 110.071 145.504 109.767 145.86C107.426 148.745 105.102 151.647 102.749 154.514C101.902 155.547 100.582 155.536 99.7357 154.502C98.7431 153.282 97.7563 152.061 96.7637 150.841C99.7941 150.713 102.76 149.317 104.798 147.069C106.363 145.347 107.379 143.151 107.683 140.856C107.881 141.102 108.085 141.359 108.284 141.604C108.774 142.205 109.259 142.807 109.75 143.414C110.053 143.758 110.211 144.173 110.222 144.576L110.228 144.57Z" fill="#030073"/>
<path opacity="0.3" d="M99.1647 166.04C99.2056 166.583 98.9662 167.015 98.6509 167.418C96.4146 170.174 94.1607 172.941 91.9186 175.697C91.0603 176.76 89.9801 176.988 89.0925 176.316C88.5904 175.931 88.2576 175.399 87.8722 174.909C87.2241 174.121 86.5643 173.315 85.9512 172.527C88.9057 172.357 91.7784 170.979 93.7754 168.778C95.3811 167.015 96.4029 164.703 96.6773 162.303C97.3371 163.109 97.9853 163.897 98.6275 164.697C98.9604 165.082 99.2173 165.502 99.1706 166.034L99.1647 166.04Z" fill="#030073"/>
<path opacity="0.45" d="M77.7355 141.867C75.9546 144.033 73.2979 145.399 70.5186 145.685C70.32 145.37 70.1857 145.025 70.2149 144.611C70.1857 144.109 70.4134 143.694 70.7288 143.303C72.9826 140.518 75.2364 137.75 77.4903 134.965C78.3252 133.943 79.2711 133.733 80.1587 134.334C80.328 137.032 79.4697 139.788 77.7355 141.867Z" fill="white"/>
<path opacity="0.45" d="M91.4153 120.77C91.4737 123.328 90.6096 125.891 88.9747 127.859C87.1062 130.095 84.2977 131.491 81.3957 131.689C81.0804 131.029 81.1797 130.352 81.711 129.692C84.0232 126.82 86.3471 123.964 88.6711 121.109C89.0564 120.619 89.5586 120.303 90.1366 120.332C90.668 120.332 91.0825 120.478 91.4153 120.765V120.77Z" fill="white"/>
<path opacity="0.45" d="M102.405 134.463C102.463 137.02 101.599 139.584 99.9642 141.551C98.1133 143.776 95.3281 145.166 92.432 145.382C92.1283 144.722 92.2334 144.033 92.7648 143.373C93.3662 142.614 93.9851 141.867 94.5865 141.108C95.9937 139.385 97.3834 137.651 98.8081 135.928C99.1234 135.543 99.4387 135.152 99.754 134.766C100.484 133.861 101.547 133.774 102.411 134.463H102.405Z" fill="white"/>
<path opacity="0.45" d="M91.4269 155.921C91.4561 158.461 90.6095 161.018 88.9746 162.98C87.1061 165.234 84.3092 166.624 81.4131 166.828C81.057 166.128 81.1854 165.491 81.7985 164.72C84.0348 161.924 86.3062 159.121 88.5717 156.341C89.4475 155.267 90.4927 155.15 91.4269 155.927V155.921Z" fill="white"/>
<path d="M101.336 156.475C100.332 156.475 99.3627 155.991 98.6737 155.144C96.3323 152.271 93.9909 149.393 91.6611 146.508C90.5459 145.13 90.5401 143.484 91.6436 142.112C94.3529 138.748 96.5951 135.992 98.6854 133.435C99.3744 132.594 100.303 132.127 101.301 132.127C102.341 132.127 103.316 132.629 104.051 133.534C105.318 135.093 106.585 136.652 107.847 138.217L111.017 142.129C111.508 142.73 111.782 143.431 111.811 144.161V144.237C111.806 145.078 111.543 145.819 111.035 146.45L109.341 148.54C107.549 150.753 105.762 152.966 103.958 155.167C103.269 156.008 102.335 156.475 101.325 156.475H101.336ZM101.301 135.046C101.155 135.046 101.003 135.216 100.945 135.286C98.8547 137.837 96.6242 140.593 93.915 143.951C93.6873 144.231 93.6639 144.354 93.9267 144.675C96.2564 147.553 98.592 150.432 100.933 153.299C101.068 153.463 101.214 153.556 101.336 153.556C101.494 153.556 101.64 153.41 101.71 153.317C103.508 151.121 105.295 148.914 107.082 146.707L108.775 144.616C108.851 144.523 108.898 144.435 108.904 144.26C108.898 144.202 108.869 144.103 108.763 143.974L105.587 140.056C104.326 138.497 103.059 136.938 101.792 135.379C101.593 135.134 101.406 135.046 101.301 135.046Z" fill="#040F58"/>
<path d="M90.1548 178.039C89.4775 178.039 88.8002 177.811 88.1929 177.35C87.6674 176.953 87.3171 176.48 87.0018 176.065C86.9084 175.943 86.8149 175.82 86.7215 175.703C84.672 173.193 82.6342 170.676 80.6023 168.148C79.3878 166.641 79.3878 165.111 80.6023 163.605C83.0021 160.615 85.2384 157.854 87.4397 155.156C88.4323 153.942 89.495 153.72 90.2132 153.69C90.9431 153.69 92.0291 153.959 93.0509 155.226C94.9603 157.591 96.8813 159.956 98.7965 162.315L99.8183 163.576C100.069 163.885 100.735 164.703 100.7 165.847C100.741 167.038 100.069 167.867 99.8417 168.148L99.684 168.34C97.4769 171.061 95.2697 173.782 93.0626 176.497C92.2335 177.513 91.1941 178.039 90.1607 178.039H90.1548ZM90.1957 156.61C90.1315 156.61 89.9446 156.692 89.6935 157.001C87.4981 159.687 85.2676 162.449 82.8736 165.433C82.5233 165.87 82.5233 165.876 82.8736 166.314C84.8998 168.831 86.9376 171.347 88.9812 173.852C89.1038 173.998 89.2206 174.156 89.3315 174.308C89.5592 174.611 89.7519 174.868 89.9563 175.02C90.0555 175.096 90.2833 175.265 90.7913 174.646C93.0042 171.931 95.2055 169.21 97.4126 166.495L97.5644 166.303C97.7046 166.127 97.7746 166.005 97.7688 165.935V165.841V165.748C97.7688 165.736 97.7396 165.654 97.5411 165.409L96.5193 164.148C94.5983 161.783 92.6772 159.424 90.7679 157.054C90.4818 156.697 90.2658 156.604 90.1899 156.604L90.1957 156.61Z" fill="#040F58"/>
<path d="M90.2131 142.678C89.1854 142.678 88.2103 142.17 87.4629 141.253C86.3827 139.928 85.3084 138.597 84.234 137.271L82.0911 134.626C81.5773 133.996 81.0635 133.365 80.5555 132.729C79.4402 131.339 79.4285 129.698 80.5263 128.338C82.856 125.447 85.1916 122.569 87.533 119.69C88.257 118.803 89.1913 118.33 90.1781 118.371C91.2758 118.371 92.175 118.797 92.8523 119.626C95.1879 122.505 97.5293 125.383 99.8591 128.268C101.009 129.692 101.015 131.327 99.8591 132.752C97.5585 135.596 95.2521 138.433 92.9457 141.271C92.21 142.176 91.2349 142.678 90.2189 142.678H90.2131ZM90.0671 121.29C90.0671 121.29 89.9387 121.354 89.7927 121.535C87.4571 124.414 85.1215 127.287 82.7918 130.177C82.5874 130.434 82.5407 130.551 82.821 130.907C83.329 131.537 83.837 132.162 84.3508 132.793L86.4995 135.444C87.5739 136.769 88.6483 138.095 89.7226 139.42C89.9328 139.677 90.108 139.765 90.2073 139.765C90.3007 139.765 90.4758 139.677 90.6744 139.432C92.9808 136.6 95.2871 133.762 97.5818 130.919C97.8621 130.574 97.8621 130.457 97.5818 130.107C95.2521 127.222 92.9165 124.344 90.5751 121.471C90.4817 121.36 90.435 121.29 90.143 121.29H90.1021H90.0613H90.0671Z" fill="#040F58"/>
<path d="M79.0965 156.47C78.0747 156.47 77.0879 155.95 76.3172 155.004C74.6414 152.949 72.9656 150.882 71.2957 148.82L69.4681 146.567C69.2462 146.292 68.5689 145.457 68.6156 144.254C68.5981 143.478 68.8725 142.748 69.4564 142.03L71.6635 139.309C73.1992 137.417 74.7348 135.525 76.2704 133.633C77.2923 132.384 78.3608 132.121 79.0848 132.121C79.8089 132.121 80.8832 132.384 81.9167 133.651C84.1706 136.419 86.4186 139.192 88.6666 141.971C89.9161 143.519 89.9161 145.078 88.6724 146.619C86.4069 149.422 84.1355 152.225 81.8525 155.016C81.0876 155.956 80.1066 156.47 79.0907 156.47H79.0965ZM79.0907 135.046C79.0381 135.046 78.8338 135.122 78.5418 135.484C77.0062 137.37 75.4705 139.262 73.9349 141.154L71.7277 143.875C71.5818 144.05 71.5351 144.161 71.5351 144.202V144.289V144.377C71.5351 144.447 71.5993 144.564 71.7336 144.733L73.5612 146.987C75.2311 149.048 76.9011 151.109 78.5768 153.165C78.8279 153.474 79.0264 153.556 79.0907 153.556C79.1549 153.556 79.3476 153.474 79.5928 153.176C81.87 150.385 84.1414 147.588 86.401 144.786C86.7631 144.336 86.7806 144.289 86.3952 143.811C84.1531 141.037 81.905 138.264 79.6512 135.502C79.3476 135.134 79.1374 135.052 79.0848 135.052L79.0907 135.046Z" fill="#040F58"/>
<path d="M88.6022 144.424C88.7423 144.692 88.9292 144.943 89.1977 145.084C89.589 145.294 90.0678 145.224 90.4823 145.084C91.0896 144.873 91.6559 144.488 91.9712 143.933C92.2866 143.379 92.3041 142.625 91.9187 142.117C91.5976 141.697 91.0487 141.487 90.5174 141.458C90.0152 141.428 88.935 141.411 88.5847 141.866C88.0767 142.526 88.2518 143.752 88.6022 144.43V144.424Z" fill="#040F58"/>
<path opacity="0.3" d="M51.2442 168.539C42.5967 153.632 41.5223 134.731 47.5598 118.592C46.6956 118.365 45.9307 118.809 45.2009 119.322C42.8069 121.016 40.8917 123.596 40.1618 126.44C36.8979 139.157 37.9314 152.937 43.0521 165.018C43.1339 165.205 43.1923 165.392 43.239 165.579C42.0303 164.802 40.7341 164.171 39.3677 163.722C35.082 162.303 30.2765 162.507 26.125 164.288C26.2535 165.1 26.4286 166.127 26.5571 166.939C30.4108 165.292 34.8776 165.135 38.8422 166.501C40.2553 166.992 41.5982 167.675 42.8361 168.516C41.7092 170.787 38.9415 172.749 36.4833 173.409C32.7989 174.39 28.5657 172.673 26.6096 169.403C26.9249 173.49 28.3963 177.87 32.0282 179.773C35.6658 181.677 40.2961 180.555 43.5835 178.086C45.2184 176.859 46.5905 175.353 47.8225 173.718C47.9685 173.952 48.1028 174.185 48.2371 174.43C48.6634 173.666 49.113 172.965 49.5334 172.2C49.4341 172.036 49.3348 171.873 49.2356 171.709C49.9304 170.664 50.5961 169.602 51.2442 168.539Z" fill="#040F58"/>
<path opacity="0.3" d="M130.059 168.539C138.706 153.632 139.78 134.731 133.743 118.592C134.607 118.365 135.372 118.809 136.102 119.322C138.496 121.016 140.411 123.596 141.141 126.44C144.405 139.157 143.371 152.937 138.251 165.018C138.169 165.205 138.11 165.392 138.064 165.579C139.272 164.802 140.569 164.171 141.935 163.722C146.221 162.303 151.026 162.507 155.178 164.288C155.049 165.1 154.874 166.127 154.746 166.939C150.892 165.292 146.425 165.135 142.461 166.501C141.048 166.992 139.705 167.675 138.467 168.516C139.594 170.787 142.361 172.749 144.819 173.409C148.504 174.39 152.737 172.673 154.693 169.403C154.378 173.49 152.906 177.87 149.275 179.773C145.637 181.677 141.007 180.555 137.719 178.086C136.084 176.859 134.712 175.353 133.48 173.718C133.334 173.952 133.2 174.185 133.066 174.43C132.639 173.666 132.19 172.965 131.769 172.2C131.869 172.036 131.968 171.873 132.067 171.709C131.372 170.664 130.707 169.602 130.059 168.539Z" fill="#040F58"/>
<path d="M132.721 26.7689C136.052 26.7689 138.753 24.0684 138.753 20.7372C138.753 17.406 136.052 14.7056 132.721 14.7056C129.39 14.7056 126.689 17.406 126.689 20.7372C126.689 24.0684 129.39 26.7689 132.721 26.7689Z" fill="#1BA5F8"/>
<path d="M119.098 22.0044L116.4 20.895C118.561 15.6341 121.13 12.6328 124.26 11.7103C126.671 11.0038 129.281 11.6052 132.014 13.5029L130.344 15.8968C128.347 14.5072 126.624 14.0517 125.083 14.5072C122.893 15.1494 120.879 17.6719 119.098 21.9985V22.0044Z" fill="#040F58"/>
<path d="M132.714 28.2228C131.809 28.2228 130.893 28.0593 129.999 27.709C126.151 26.2084 124.242 21.8584 125.743 18.0105C126.473 16.1479 127.88 14.6764 129.713 13.8765C131.547 13.0707 133.579 13.0299 135.447 13.7597C139.295 15.2603 141.204 19.6103 139.704 23.4582C138.547 26.4127 135.716 28.2228 132.714 28.2228ZM132.72 16.1654C132.095 16.1654 131.477 16.2938 130.887 16.5507C129.766 17.0412 128.907 17.9404 128.464 19.0732C127.547 21.4204 128.715 24.0772 131.062 24.9939C133.409 25.9106 136.066 24.7428 136.983 22.3955C137.426 21.2569 137.403 20.0132 136.913 18.898C136.422 17.7769 135.523 16.9186 134.39 16.4748C133.853 16.2646 133.287 16.1595 132.726 16.1595L132.72 16.1654Z" fill="#040F58"/>
<path opacity="0.3" d="M127.857 20.8485C129.515 21.9346 131.728 22.1097 133.538 21.304C135.348 20.4982 136.691 18.729 136.989 16.7671C137.975 18.5363 138.472 20.6558 137.993 22.6294C137.514 24.5971 135.961 26.3547 133.976 26.7634C132.785 27.0086 131.529 26.7751 130.397 26.3313C129.235 25.8759 128.119 25.1693 127.448 24.1183C126.776 23.0673 127.173 21.8937 127.857 20.8485Z" fill="#040F58"/>
<path d="M100.133 25.7588C102.217 20.422 108.284 17.7595 113.627 19.844L121.743 23.0087C127.08 25.0932 129.742 31.1599 127.658 36.5025" fill="white"/>
<path d="M168.689 85.3921C174.026 87.4766 176.688 93.5433 174.604 98.8859L171.439 107.002C169.355 112.339 163.288 115.001 157.945 112.917" fill="#2E73E9"/>
<path d="M36.8277 33.9275C31.4909 31.843 25.4184 34.5055 23.3339 39.8423L20.1692 47.9585C18.0847 53.2953 20.7472 59.3678 26.084 61.4523" fill="#2E73E9"/>
<path d="M162.919 76.3999C168.968 79.9266 170.726 90.2791 166.744 100.486C162.767 110.675 154.482 117.103 147.65 115.62" fill="#1BA5F8"/>
<path d="M47.1617 31.2299C40.3242 29.7235 32.0212 36.1522 28.0391 46.3586C24.0628 56.5476 25.8028 66.8884 31.8344 70.4268" fill="#1BA5F8"/>
<path d="M40.3078 42.2252L34.2597 57.722C26.6669 77.1764 36.2826 99.1024 55.737 106.695L105.502 126.118C124.956 133.71 146.882 124.095 154.475 104.64L160.523 89.1436C168.116 69.6892 158.5 47.7631 139.046 40.1703L89.2811 20.7478C69.8267 13.1551 47.9006 22.7708 40.3078 42.2252Z" fill="white"/>
<path d="M112.04 110.336C117.768 112.572 124.313 111.282 128.657 106.932C134.934 100.637 140.563 93.6949 145.567 86.1393C151.727 76.8262 147.628 64.1849 137.229 60.1268L77.0933 36.66C66.6942 32.602 55.1097 39.1241 53.3405 50.148C51.8983 59.0991 51.3377 68.0152 51.6939 76.8963C51.9391 83.0388 55.8863 88.4224 61.6143 90.6529L112.045 110.336H112.04Z" fill="#441013"/>
<path d="M145.858 86.8342C140.801 94.4774 135.114 101.496 128.761 107.854C124.376 112.257 117.749 113.565 111.962 111.305L60.9767 91.4061C55.1844 89.1465 51.2022 83.6987 50.9453 77.4861C55.1669 73.3638 61.4379 71.6705 67.382 71.8807C73.8399 72.1142 80.0467 74.3038 86.1075 76.5577C92.1742 78.7998 98.2993 81.1354 104.74 81.696C112.114 82.3324 119.594 80.5399 126.192 77.1825C132.562 73.9243 138.133 69.2356 142.856 63.8696C149.168 69.5334 150.862 79.267 145.858 86.8284V86.8342Z" fill="#EC1C26" fill-opacity="0.2"/>
<path d="M119.168 130.153C114.362 130.153 109.563 129.26 104.967 127.467L55.202 108.047C45.4684 104.246 37.7785 96.8479 33.557 87.2195C29.3296 77.5852 29.096 66.9175 32.8972 57.1839L38.9463 41.6873C42.7416 31.9538 50.1396 24.2639 59.7739 20.0423C69.4081 15.8149 80.0759 15.5814 89.8095 19.3825L139.575 38.8029C159.748 46.6738 169.756 69.4924 161.886 89.666L155.836 105.163C152.041 114.896 144.643 122.586 135.009 126.808C129.923 129.038 124.545 130.159 119.174 130.159L119.168 130.153ZM75.6091 19.6102C70.6343 19.6102 65.6595 20.6437 60.9475 22.7107C52.0256 26.6228 45.1823 33.7405 41.6673 42.7442L35.6181 58.2408C32.1031 67.2503 32.3191 77.1181 36.2312 86.04C40.1433 94.9619 47.2552 101.805 56.2647 105.32L106.03 124.741C115.034 128.256 124.907 128.04 133.829 124.128C142.751 120.215 149.595 113.098 153.11 104.094L159.159 88.5975C166.446 69.9245 157.185 48.805 138.506 41.5122L88.7409 22.0918C84.4902 20.4335 80.0467 19.6044 75.6033 19.6044L75.6091 19.6102Z" fill="#040F58"/>
<path d="M149.642 117.29C148.866 117.29 148.095 117.208 147.336 117.045L147.955 114.19C154.086 115.521 161.746 109.262 165.378 99.9484C169.022 90.6119 167.615 80.82 162.184 77.6552L163.656 75.1328C170.411 79.0683 172.327 90.1915 168.105 101.011C164.31 110.733 156.696 117.284 149.648 117.284L149.642 117.29Z" fill="#040F58"/>
<path d="M161.717 115.083C160.263 115.083 158.81 114.815 157.42 114.272L158.483 111.551C160.701 112.415 163.13 112.362 165.332 111.399C167.533 110.435 169.22 108.684 170.085 106.465L173.249 98.3488C174.113 96.13 174.061 93.701 173.098 91.4997C172.134 89.2984 170.382 87.6168 168.164 86.7468L169.226 84.0259C172.169 85.1762 174.499 87.4125 175.772 90.3261C177.05 93.2397 177.121 96.4629 175.97 99.4115L172.806 107.528C171.655 110.471 169.419 112.8 166.505 114.073C164.97 114.745 163.341 115.083 161.717 115.083Z" fill="#040F58"/>
<path d="M129.013 37.0278L126.292 35.9652C127.157 33.7464 127.104 31.3173 126.141 29.1161C125.177 26.9148 123.425 25.2273 121.207 24.3632L113.091 21.1984C110.872 20.3343 108.443 20.3868 106.241 21.3503C104.04 22.3137 102.353 24.0654 101.489 26.2842L98.7676 25.2215C99.9179 22.2786 102.154 19.9489 105.068 18.676C107.981 17.3973 111.205 17.3272 114.153 18.4775L122.269 21.6422C125.212 22.7925 127.536 25.0288 128.815 27.9424C130.094 30.8561 130.164 34.0792 129.013 37.0278Z" fill="#040F58"/>
<path opacity="0.55" d="M132.721 59.7009C116.6 54.5509 99.6902 48.7236 83.7498 42.9898L77.6656 40.806C75.6745 40.0528 73.8586 39.463 71.7741 39.393C65.7717 39.0835 59.7984 42.6277 57.2234 48.0697C56.2658 49.9381 55.9155 51.9234 55.4951 54.0079C54.7127 57.7098 53.3989 62.9473 52.926 66.6667L51.8633 66.62C52.0852 62.1999 52.8909 57.9258 53.6033 53.6867C53.9478 51.5438 54.2981 49.2024 55.2616 47.188C59.197 38.3536 69.7772 34.7276 78.4656 38.6981C81.0055 39.609 129.3 57.3302 133.089 58.7024L132.727 59.7009H132.721Z" fill="white"/>
<path d="M31.0939 71.6822C24.3675 67.7292 22.464 56.6177 26.6797 45.8215C30.9012 35.0077 39.8465 28.1177 47.478 29.7994L46.8533 32.6488C40.7049 31.2941 33.0441 37.5476 29.4006 46.8841C25.7688 56.1973 27.1585 65.9834 32.577 69.1656L31.0998 71.6822H31.0939Z" fill="#040F58"/>
<path d="M25.5584 62.8126C22.6156 61.6624 20.2917 59.426 19.0129 56.5124C17.7342 53.5988 17.6641 50.3757 18.8144 47.427L21.9791 39.3108C23.1294 36.368 25.3657 34.0383 28.2794 32.7654C31.193 31.4866 34.4161 31.4166 37.3648 32.5668L36.3021 35.2878C34.0833 34.4236 31.6543 34.4762 29.453 35.4396C27.2517 36.403 25.5642 38.1547 24.7001 40.3735L21.5354 48.4897C20.6712 50.7085 20.7237 53.1375 21.6872 55.3388C22.6506 57.5401 24.4023 59.2275 26.6211 60.0917L25.5584 62.8126Z" fill="#040F58"/>
<path d="M117.768 112.882C115.666 112.882 113.547 112.497 111.509 111.702L61.0718 92.0194C54.7541 89.5553 50.4975 83.6405 50.2289 76.9607C49.8727 68.0972 50.4333 59.0001 51.893 49.9205C52.8039 44.2625 56.1905 39.3812 61.1828 36.5259C66.2218 33.6415 72.2126 33.1977 77.6195 35.3056L137.755 58.7723C143.162 60.8802 147.266 65.2653 149.018 70.8006C150.758 76.2834 149.941 82.169 146.782 86.9511C141.708 94.6177 135.956 101.689 129.691 107.971C126.492 111.177 122.182 112.888 117.768 112.888V112.882ZM70.6711 36.9055C67.8917 36.9055 65.1299 37.6295 62.6367 39.0542C58.4093 41.4715 55.5482 45.5997 54.7775 50.3818C53.3469 59.2687 52.7981 68.1731 53.1484 76.8439C53.3703 82.3676 56.897 87.2548 62.1404 89.3042L112.577 108.987C117.821 111.031 123.724 109.822 127.63 105.91C133.761 99.7676 139.39 92.8426 144.353 85.3396C147.027 81.299 147.716 76.3242 146.245 71.6823C144.756 66.9936 141.282 63.2742 136.698 61.4875L76.5626 38.0207C74.6533 37.2733 72.6563 36.9055 70.6711 36.9055Z" fill="#040F58"/>
<path opacity="0.3" d="M21.5536 46.2769C22.9608 48.1278 25.092 49.4182 27.3867 49.8094C25.962 53.1727 25.6117 56.9913 26.2189 60.5881C23.8308 60.4421 21.5302 58.8131 20.6077 56.606C19.9596 55.0645 19.9362 53.3245 20.2457 51.6779C20.5551 50.0371 20.9405 47.8242 21.5594 46.2769H21.5536Z" fill="#040F58"/>
<path opacity="0.3" d="M29.1025 47.0478C31.0293 49.5119 34.1532 51.0008 37.2828 50.9483C33.8087 56.1975 32.0219 62.5561 32.2088 68.8446C30.1184 68.3775 28.3609 66.6901 27.4209 64.7632C26.4808 62.8364 26.2122 60.6526 26.183 58.5097C26.1304 54.5275 27.6369 50.7439 29.1025 47.042V47.0478Z" fill="#040F58"/>
<path opacity="0.3" d="M171.567 104.819C169.279 105.227 166.838 104.731 164.888 103.464C163.656 106.897 161.326 109.951 158.447 112.187C160.304 113.7 163.095 114.056 165.273 113.057C166.791 112.362 167.988 111.095 168.876 109.682C169.763 108.269 170.972 106.378 171.567 104.819Z" fill="#040F58"/>
<path opacity="0.3" d="M165.483 100.276C162.395 100.784 159.09 99.762 156.818 97.6016C155.814 103.814 152.824 109.7 148.428 114.208C150.285 115.282 152.719 115.229 154.71 114.453C156.707 113.67 158.383 112.246 159.855 110.687C162.593 107.796 164.047 103.989 165.477 100.276H165.483Z" fill="#040F58"/>
<path opacity="0.3" d="M103.894 22.1973C108.256 24.4511 112.822 26.3079 117.516 27.7326C119.023 28.188 120.564 28.6084 122.135 28.5909C123.706 28.5734 125.335 28.0713 126.415 26.9327C128.102 29.2741 128.71 32.3103 127.869 35.0663C127.775 35.0313 127.682 35.0955 127.589 35.0663L100.975 24.6788C101.821 23.3417 102.323 22.425 103.894 22.2031V22.1973Z" fill="#040F58"/>
<path opacity="0.3" d="M160.17 59.7651C160.736 74.3333 156.211 89.0533 147.552 100.79C142.636 107.446 135.518 114.715 126.946 115.802C115.187 117.29 105.301 112.975 94.7212 108.678C82.547 103.732 69.8998 99.7911 58.0233 94.2908C52.523 91.745 47.4081 89.8416 42.6669 85.8536C38.1709 82.0699 34.4048 77.3987 31.748 72.1495C32.9917 86.817 42.6202 100.305 56.0439 106.348C69.4852 111.592 82.9265 116.841 96.3678 122.084C107.847 126.563 119.134 130.177 131.483 126.061C139.267 123.468 146.162 118.283 150.81 111.522C154.646 105.94 156.924 99.4583 159.084 93.0355C160.871 87.7337 162.617 82.3618 163.154 76.7915C163.691 71.2211 163.416 64.8859 160.479 60.1213L160.17 59.7534V59.7651Z" fill="#040F58"/>
<g filter="url(#filter0_f_23618_43406)">
<path d="M101.049 92.1307L100.472 91.8478C99.6576 91.4508 99.399 90.7648 99.27 90.4306L99.2375 90.3383L98.4326 88.603C97.3739 86.3159 96.2717 83.9544 95.2285 81.6084C93.7642 82.3158 92.2697 82.9952 90.8271 83.6551C89.4132 84.3023 87.9994 84.9494 86.5922 85.6198C86.3165 85.7525 85.4781 86.1568 84.5956 85.8265L84.5722 85.8273C83.6891 85.4796 83.3308 84.622 83.1964 84.2996C82.7031 83.1022 82.1452 81.8954 81.5474 80.7135C81.3901 80.4037 80.9687 79.5776 81.2868 78.6838C81.6106 77.784 82.4732 77.4021 82.7608 77.2749C84.3653 76.5682 85.9513 75.833 87.5431 75.0975C88.8361 74.5015 90.1233 73.9056 91.4228 73.3268C90.6452 71.7015 89.8841 70.0463 89.1543 68.4485C88.5578 67.1438 87.9553 65.8335 87.3473 64.535C87.2082 64.2421 86.8412 63.4666 87.1671 62.6251C87.4932 61.7895 88.2817 61.4571 88.5465 61.3482C89.9164 60.7785 91.2268 60.176 92.4256 59.5599C92.6837 59.4279 93.4696 59.0255 94.3396 59.3328C94.3513 59.3324 94.3573 59.338 94.3692 59.3434C95.2161 59.6575 95.5721 60.4509 95.7056 60.7499C96.2522 61.9687 96.8164 63.187 97.3803 64.3994C98.1537 66.0716 98.9582 67.7953 99.7046 69.5269C101.204 68.8124 102.721 68.1147 104.227 67.4233C105.623 66.7825 107.014 66.142 108.404 65.484C108.749 65.3196 109.541 64.9403 110.406 65.2596C110.418 65.2591 110.43 65.2704 110.441 65.27C111.313 65.6123 111.652 66.4472 111.762 66.7237C112.243 67.9099 112.808 69.1456 113.494 70.4938C113.726 70.9528 114.003 71.6498 113.727 72.4194C113.451 73.1948 112.798 73.5631 112.327 73.7672C110.826 74.4351 109.337 75.12 107.849 75.8108C106.407 76.4765 104.964 77.1423 103.516 77.7908C104.237 79.3071 104.934 80.8302 105.638 82.353C106.279 83.7496 106.926 85.1518 107.584 86.5419C107.723 86.8407 108.102 87.6333 107.771 88.4925C107.44 89.3458 106.617 89.6853 106.352 89.8001C105.46 90.1654 104.552 90.5898 103.679 91.0012C103.253 91.1978 102.834 91.3999 102.409 91.5906C102.219 91.6735 102.029 91.7505 101.844 91.8214L101.067 92.1242L101.049 92.1307ZM96.356 78.541C97.2265 78.86 97.5893 79.6824 97.7615 80.0793C98.8431 82.5174 99.9841 84.9826 101.093 87.3672L101.701 88.6773C101.937 88.5695 102.172 88.4558 102.402 88.3481C103.138 88.0001 103.896 87.6454 104.667 87.3137C104.085 86.0786 103.514 84.8314 102.943 83.59C102.175 81.9234 101.408 80.251 100.617 78.5969C100.39 78.1319 100.131 77.4226 100.407 76.6589C100.721 75.812 101.492 75.4685 101.865 75.3031C103.452 74.597 105.027 73.8739 106.602 73.1449C107.929 72.5301 109.262 71.9209 110.596 71.3175C110.079 70.2728 109.629 69.29 109.226 68.3406C107.968 68.9354 106.704 69.5129 105.439 70.0962C103.865 70.8193 102.29 71.5425 100.728 72.2885C100.32 72.4844 99.47 72.8892 98.5699 72.5595L98.5641 72.5597C97.7466 72.2505 97.3519 71.5169 97.1226 70.9935C96.3506 69.1986 95.5079 67.3886 94.6967 65.6418C94.2025 64.5788 93.7141 63.5156 93.2257 62.4523C92.2785 62.919 91.2845 63.3816 90.2429 63.8225C90.7747 64.9542 91.295 66.0922 91.8152 67.2244C92.6084 68.9602 93.4329 70.7533 94.2731 72.4932C94.5007 72.9699 94.778 73.6902 94.4906 74.466C94.177 75.3246 93.3834 75.6747 93.004 75.8462C91.5895 76.4759 90.1816 77.1287 88.7736 77.7757C87.3083 78.454 85.8429 79.1322 84.3707 79.7815C84.8622 80.7687 85.3191 81.7688 85.7467 82.7641C87.0218 82.157 88.3092 81.5669 89.5966 80.9769C91.1542 80.2661 92.7691 79.524 94.3309 78.7662C94.8189 78.5265 95.5623 78.2425 96.3558 78.5351L96.356 78.541Z" fill="#EC1C26"/>
</g>
<path d="M101.049 92.1307L100.472 91.8478C99.6576 91.4508 99.399 90.7648 99.27 90.4306L99.2375 90.3383L98.4326 88.603C97.3739 86.3159 96.2717 83.9544 95.2285 81.6084C93.7642 82.3158 92.2697 82.9952 90.8271 83.6551C89.4132 84.3023 87.9994 84.9494 86.5922 85.6198C86.3165 85.7525 85.4781 86.1568 84.5956 85.8265L84.5722 85.8273C83.6891 85.4796 83.3308 84.622 83.1964 84.2996C82.7031 83.1022 82.1452 81.8954 81.5474 80.7135C81.3901 80.4037 80.9687 79.5776 81.2868 78.6838C81.6106 77.784 82.4732 77.4021 82.7608 77.2749C84.3653 76.5682 85.9513 75.833 87.5431 75.0975C88.8361 74.5015 90.1233 73.9056 91.4228 73.3268C90.6452 71.7015 89.8841 70.0463 89.1543 68.4485C88.5578 67.1438 87.9553 65.8335 87.3473 64.535C87.2082 64.2421 86.8412 63.4666 87.1671 62.6251C87.4932 61.7895 88.2817 61.4571 88.5465 61.3482C89.9164 60.7785 91.2268 60.176 92.4256 59.5599C92.6837 59.4279 93.4696 59.0255 94.3396 59.3328C94.3513 59.3324 94.3573 59.338 94.3692 59.3434C95.2161 59.6575 95.5721 60.4509 95.7056 60.7499C96.2522 61.9687 96.8164 63.187 97.3803 64.3994C98.1537 66.0716 98.9582 67.7953 99.7046 69.5269C101.204 68.8124 102.721 68.1147 104.227 67.4233C105.623 66.7825 107.014 66.142 108.404 65.484C108.749 65.3196 109.541 64.9403 110.406 65.2596C110.418 65.2591 110.43 65.2704 110.441 65.27C111.313 65.6123 111.652 66.4472 111.762 66.7237C112.243 67.9099 112.808 69.1456 113.494 70.4938C113.726 70.9528 114.003 71.6498 113.727 72.4194C113.451 73.1948 112.798 73.5631 112.327 73.7672C110.826 74.4351 109.337 75.12 107.849 75.8108C106.407 76.4765 104.964 77.1423 103.516 77.7908C104.237 79.3071 104.934 80.8302 105.638 82.353C106.279 83.7496 106.926 85.1518 107.584 86.5419C107.723 86.8407 108.102 87.6333 107.771 88.4925C107.44 89.3458 106.617 89.6853 106.352 89.8001C105.46 90.1654 104.552 90.5898 103.679 91.0012C103.253 91.1978 102.834 91.3999 102.409 91.5906C102.219 91.6735 102.029 91.7505 101.844 91.8214L101.067 92.1242L101.049 92.1307ZM96.356 78.541C97.2265 78.86 97.5893 79.6824 97.7615 80.0793C98.8431 82.5174 99.9841 84.9826 101.093 87.3672L101.701 88.6773C101.937 88.5695 102.172 88.4558 102.402 88.3481C103.138 88.0001 103.896 87.6454 104.667 87.3137C104.085 86.0786 103.514 84.8314 102.943 83.59C102.175 81.9234 101.408 80.251 100.617 78.5969C100.39 78.1319 100.131 77.4226 100.407 76.6589C100.721 75.812 101.492 75.4685 101.865 75.3031C103.452 74.597 105.027 73.8739 106.602 73.1449C107.929 72.5301 109.262 71.9209 110.596 71.3175C110.079 70.2728 109.629 69.29 109.226 68.3406C107.968 68.9354 106.704 69.5129 105.439 70.0962C103.865 70.8193 102.29 71.5425 100.728 72.2885C100.32 72.4844 99.47 72.8892 98.5699 72.5595L98.5641 72.5597C97.7466 72.2505 97.3519 71.5169 97.1226 70.9935C96.3506 69.1986 95.5079 67.3886 94.6967 65.6418C94.2025 64.5788 93.7141 63.5156 93.2257 62.4523C92.2785 62.919 91.2845 63.3816 90.2429 63.8225C90.7747 64.9542 91.295 66.0922 91.8152 67.2244C92.6084 68.9602 93.4329 70.7533 94.2731 72.4932C94.5007 72.9699 94.778 73.6902 94.4906 74.466C94.177 75.3246 93.3834 75.6747 93.004 75.8462C91.5895 76.4759 90.1816 77.1287 88.7736 77.7757C87.3083 78.454 85.8429 79.1322 84.3707 79.7815C84.8622 80.7687 85.3191 81.7688 85.7467 82.7641C87.0218 82.157 88.3092 81.5669 89.5966 80.9769C91.1542 80.2661 92.7691 79.524 94.3309 78.7662C94.8189 78.5265 95.5623 78.2425 96.3558 78.5351L96.356 78.541Z" fill="#EC1C26"/>
</g>
<path opacity="0.5" d="M90.3372 239C115.713 239 136.284 234.803 136.284 229.625C136.284 224.448 115.713 220.251 90.3372 220.251C64.9616 220.251 44.3906 224.448 44.3906 229.625C44.3906 234.803 64.9616 239 90.3372 239Z" fill="#97A5BA"/>
<defs>
<filter id="filter0_f_23618_43406" x="69.1719" y="47.2197" width="56.6699" height="56.9111" filterUnits="userSpaceOnUse" color-interpolation-filters="sRGB">
<feFlood flood-opacity="0" result="BackgroundImageFix"/>
<feBlend mode="normal" in="SourceGraphic" in2="BackgroundImageFix" result="shape"/>
<feGaussianBlur stdDeviation="6" result="effect1_foregroundBlur_23618_43406"/>
</filter>
<clipPath id="clip0_23618_43406">
<rect width="158.784" height="200" fill="white" transform="translate(18 7)"/>
</clipPath>
</defs>
</svg>
