<svg width="32" height="32" viewBox="0 0 32 32" fill="none" xmlns="http://www.w3.org/2000/svg">
    <path fill-rule="evenodd" clip-rule="evenodd" d="M13.5 12.0002C13.8388 12.0002 14.1546 12.1717 14.339 12.456L18.2272 18.4506C18.4418 18.7817 18.4418 19.208 18.2272 19.539L14.339 25.5336C14.1546 25.8179 13.8388 25.9894 13.5 25.9894C13.1612 25.9894 12.8454 25.8179 12.661 25.5336L8.77285 19.539C8.55815 19.208 8.55815 18.7817 8.77285 18.4506L12.661 12.456C12.8454 12.1717 13.1612 12.0002 13.5 12.0002ZM13.5 14.8378L10.8038 18.9948L13.5 23.1518L16.1962 18.9948L13.5 14.8378Z" fill="#323232"/>
    <path fill-rule="evenodd" clip-rule="evenodd" d="M24.0806 13.9867C24.2193 13.9955 24.3591 14 24.5 14C25.0717 14 25.6261 13.9262 26.1543 13.7876C27.9372 18.5842 26.9011 24.1908 23.0459 28.0459C17.7739 33.318 9.22612 33.318 3.95406 28.0459C-1.31802 22.7739 -1.31802 14.2261 3.95406 8.95406C7.80919 5.09893 13.4158 4.06281 18.2124 5.84569C18.0738 6.37389 18 6.92833 18 7.5C18 7.64087 18.0045 7.7807 18.0133 7.91935C13.8225 6.13331 8.78695 6.94961 5.36828 10.3683L4.66117 9.66117L5.36828 10.3683C0.877247 14.8593 0.877244 22.1407 5.36828 26.6317C9.85929 31.1228 17.1407 31.1228 21.6317 26.6317C25.0504 23.2131 25.8667 18.1775 24.0806 13.9867Z" fill="#323232"/>
    <path fill-rule="evenodd" clip-rule="evenodd" d="M24.5 2C21.4627 2 19 4.46266 19 7.5C19 10.5373 21.4627 13 24.5 13C27.5373 13 30 10.5373 30 7.5C30 4.46266 27.5373 2 24.5 2ZM17 7.5C17 3.35809 20.3581 0 24.5 0C28.6419 0 32 3.35809 32 7.5C32 11.6419 28.6419 15 24.5 15C20.3581 15 17 11.6419 17 7.5Z" fill="#323232"/>
    <path fill-rule="evenodd" clip-rule="evenodd" d="M22.0693 6.86957C22.3622 6.57668 22.837 6.57668 23.1299 6.86957L24.6299 8.36957C24.9228 8.66247 24.9228 9.13734 24.6299 9.43023C24.337 9.72313 23.8622 9.72313 23.5693 9.43023L22.0693 7.93023C21.7764 7.63734 21.7764 7.16247 22.0693 6.86957Z" fill="#323232"/>
    <path fill-rule="evenodd" clip-rule="evenodd" d="M27.1299 5.86957C27.4228 6.16247 27.4228 6.63734 27.1299 6.93023L24.6299 9.43023C24.337 9.72313 23.8622 9.72313 23.5693 9.43023C23.2764 9.13734 23.2764 8.66247 23.5693 8.36957L26.0693 5.86957C26.3622 5.57668 26.837 5.57668 27.1299 5.86957Z" fill="#323232"/>
</svg>
