<svg width="20" height="20" viewBox="0 0 20 20" xmlns="http://www.w3.org/2000/svg">
    <path d="M11.375.313c.9 0 1.664.662 1.791 1.553l.205 1.43.252.134.253.147.244.155 1.346-.54a1.81 1.81 0 0 1 2.144.625l.097.15 1.372 2.374a1.81 1.81 0 0 1-.451 2.332l-1.14.89.013.207.004.23c0 .076-.001.153-.004.23l-.012.206 1.138.89a1.81 1.81 0 0 1 .534 2.173l-.081.159-1.373 2.376a1.811 1.811 0 0 1-2.242.773l-1.345-.54-.244.156-.253.147-.252.133-.206 1.43a1.81 1.81 0 0 1-1.624 1.547l-.167.008H8.635a1.81 1.81 0 0 1-1.791-1.554l-.207-1.433-.253-.135-.252-.148-.24-.153-1.348.543a1.81 1.81 0 0 1-2.144-.625l-.097-.15L.931 13.66a1.81 1.81 0 0 1 .451-2.332l1.14-.892-.009-.134-.008-.327.01-.313.005-.098-1.137-.89a1.81 1.81 0 0 1-.534-2.172l.081-.159 1.373-2.374a1.81 1.81 0 0 1 2.243-.775l1.346.54.244-.153.252-.147.25-.134.207-1.433A1.81 1.81 0 0 1 8.469.32l.167-.008zm-.056 1.875H8.692L8.49 3.603c-.076.53-.384.982-.826 1.267l-.172.098c-.19.096-.38.208-.576.337a1.827 1.827 0 0 1-1.687.182l-1.33-.536-1.317 2.28 1.5 1.172a.938.938 0 0 1 .36.715l-.007.14a9.994 9.994 0 0 0-.02.179l-.026.3L4.38 10c0 .217.018.453.054.741a.938.938 0 0 1-.353.855l-1.499 1.171 1.316 2.278 1.33-.533c.5-.2 1.05-.16 1.52.084l.171.101c.188.125.378.236.571.334.535.271.913.77.999 1.366l.202 1.416h2.625l.204-1.415c.076-.532.387-.987.832-1.27l.173-.098c.19-.096.379-.206.566-.33a1.824 1.824 0 0 1 1.693-.187l1.326.532 1.317-2.277-1.498-1.172a.938.938 0 0 1-.36-.715l.007-.14c.036-.288.054-.524.054-.741 0-.217-.018-.453-.054-.741a.937.937 0 0 1 .353-.855l1.498-1.174-1.316-2.276-1.328.533c-.5.2-1.05.16-1.52-.086l-.172-.102a5.475 5.475 0 0 0-.565-.328c-.537-.27-.92-.771-1.006-1.37l-.201-1.413zM7.486 7.48a3.562 3.562 0 1 1 5.038 5.038 3.562 3.562 0 0 1-5.038-5.038zm3.575 1.203a1.688 1.688 0 1 0 .137.123z" fill="#5B6C84" fill-rule="evenodd"/>
</svg>
