<svg width="59" height="25" viewBox="0 0 59 25" fill="none" xmlns="http://www.w3.org/2000/svg">
    <rect width="59" height="25" rx="6" fill="#C9FEF4"/>
    <path d="M20.6092 18.133C20.1658 18.133 19.7132 18.0957 19.2512 18.021C18.7892 17.951 18.3552 17.846 17.9492 17.706V16.46C18.3832 16.6093 18.8335 16.7213 19.3002 16.796C19.7668 16.866 20.2055 16.901 20.6162 16.901C21.4235 16.901 22.0138 16.7563 22.3872 16.467C22.7605 16.1777 22.9472 15.76 22.9472 15.214C22.9472 14.7473 22.8048 14.3903 22.5202 14.143C22.2402 13.8957 21.7548 13.681 21.0642 13.499L20.4342 13.338C19.5428 13.1093 18.8732 12.764 18.4252 12.302C17.9818 11.84 17.7602 11.2263 17.7602 10.461C17.7602 9.54167 18.0845 8.82067 18.7332 8.298C19.3818 7.77067 20.3502 7.507 21.6382 7.507C22.5062 7.507 23.2808 7.60967 23.9622 7.815V9.061C23.2668 8.84633 22.5132 8.739 21.7012 8.739C20.8332 8.739 20.2078 8.886 19.8252 9.18C19.4425 9.46933 19.2512 9.87067 19.2512 10.384C19.2512 10.832 19.3772 11.1797 19.6292 11.427C19.8858 11.6743 20.3362 11.882 20.9802 12.05L21.6102 12.211C22.5808 12.4537 23.2948 12.8083 23.7522 13.275C24.2095 13.737 24.4382 14.3507 24.4382 15.116C24.4382 16.068 24.1022 16.81 23.4302 17.342C22.7628 17.8693 21.8225 18.133 20.6092 18.133ZM28.2381 18.133C27.7948 18.133 27.3421 18.0957 26.8801 18.021C26.4181 17.951 25.9841 17.846 25.5781 17.706V16.46C26.0121 16.6093 26.4624 16.7213 26.9291 16.796C27.3958 16.866 27.8344 16.901 28.2451 16.901C29.0524 16.901 29.6428 16.7563 30.0161 16.467C30.3894 16.1777 30.5761 15.76 30.5761 15.214C30.5761 14.7473 30.4338 14.3903 30.1491 14.143C29.8691 13.8957 29.3838 13.681 28.6931 13.499L28.0631 13.338C27.1718 13.1093 26.5021 12.764 26.0541 12.302C25.6108 11.84 25.3891 11.2263 25.3891 10.461C25.3891 9.54167 25.7134 8.82067 26.3621 8.298C27.0108 7.77067 27.9791 7.507 29.2671 7.507C30.1351 7.507 30.9098 7.60967 31.5911 7.815V9.061C30.8958 8.84633 30.1421 8.739 29.3301 8.739C28.4621 8.739 27.8368 8.886 27.4541 9.18C27.0714 9.46933 26.8801 9.87067 26.8801 10.384C26.8801 10.832 27.0061 11.1797 27.2581 11.427C27.5148 11.6743 27.9651 11.882 28.6091 12.05L29.2391 12.211C30.2098 12.4537 30.9238 12.8083 31.3811 13.275C31.8384 13.737 32.0671 14.3507 32.0671 15.116C32.0671 16.068 31.7311 16.81 31.0591 17.342C30.3918 17.8693 29.4514 18.133 28.2381 18.133ZM35.9086 18L32.3246 7.64H33.8856L37.0356 16.873L40.1996 7.64H41.6626L38.0786 18H35.9086Z" fill="#2A323E"/>
</svg>
