<svg id="evciXa0ASzu1" xmlns="http://www.w3.org/2000/svg" xmlns:xlink="http://www.w3.org/1999/xlink" viewBox="0 0 280 280" shape-rendering="geometricPrecision" text-rendering="geometricPrecision" style="background-color:transparent">
<style><![CDATA[
#evciXa0ASzu2_to {animation: evciXa0ASzu2_to__to 2000ms linear infinite normal forwards}@keyframes evciXa0ASzu2_to__to { 0% {transform: translate(139.534126px,219.458px)} 40% {transform: translate(139.534126px,235.458px)} 80% {transform: translate(139.534126px,219.458px)} 100% {transform: translate(139.534126px,219.458px)}} #evciXa0ASzu2_ts {animation: evciXa0ASzu2_ts__ts 2000ms linear infinite normal forwards}@keyframes evciXa0ASzu2_ts__ts { 0% {transform: scale(1,1)} 40% {transform: scale(0.817216,0.817216)} 80% {transform: scale(1,1)} 100% {transform: scale(1,1)}} #evciXa0ASzu2 {animation: evciXa0ASzu2_c_o 2000ms linear infinite normal forwards}@keyframes evciXa0ASzu2_c_o { 0% {opacity: 0.62} 40% {opacity: 0.54} 80% {opacity: 0.62} 100% {opacity: 0.62}} #evciXa0ASzu3_to {animation: evciXa0ASzu3_to__to 2000ms linear infinite normal forwards}@keyframes evciXa0ASzu3_to__to { 0% {transform: translate(139.534126px,61.041889px)} 40% {transform: translate(139.534126px,45.041889px)} 80% {transform: translate(139.534126px,61.041889px)} 100% {transform: translate(139.534126px,61.041889px)}} #evciXa0ASzu3_ts {animation: evciXa0ASzu3_ts__ts 2000ms linear infinite normal forwards}@keyframes evciXa0ASzu3_ts__ts { 0% {transform: scale(1,1)} 40% {transform: scale(0.812438,0.812438)} 80% {transform: scale(1,1)} 100% {transform: scale(1,1)}} #evciXa0ASzu3 {animation: evciXa0ASzu3_c_o 2000ms linear infinite normal forwards}@keyframes evciXa0ASzu3_c_o { 0% {opacity: 1} 40% {opacity: 0.88} 80% {opacity: 1} 100% {opacity: 1}} #evciXa0ASzu4_to {animation: evciXa0ASzu4_to__to 2000ms linear infinite normal forwards}@keyframes evciXa0ASzu4_to__to { 0% {transform: translate(89.561497px,123.042px)} 40% {transform: translate(139.534489px,123.042px)} 80% {transform: translate(189.561245px,123.042px)} 100% {transform: translate(189.561245px,123.042px)}} #evciXa0ASzu4_ts {animation: evciXa0ASzu4_ts__ts 2000ms linear infinite normal forwards}@keyframes evciXa0ASzu4_ts__ts { 0% {transform: scale(1,1)} 40% {transform: scale(0.501118,0.501118)} 80% {transform: scale(1,1)} 100% {transform: scale(1,1)}} #evciXa0ASzu4 {animation: evciXa0ASzu4_c_o 2000ms linear infinite normal forwards}@keyframes evciXa0ASzu4_c_o { 0% {opacity: 1} 40% {opacity: 0.62} 80% {opacity: 1} 100% {opacity: 1}} #evciXa0ASzu5_to {animation: evciXa0ASzu5_to__to 2000ms linear infinite normal forwards}@keyframes evciXa0ASzu5_to__to { 0% {offset-distance: 0%} 40% {offset-distance: 49.561493%} 80% {offset-distance: 100%} 100% {offset-distance: 100%}} #evciXa0ASzu5_ts {animation: evciXa0ASzu5_ts__ts 2000ms linear infinite normal forwards}@keyframes evciXa0ASzu5_ts__ts { 0% {transform: scale(1,1)} 40% {transform: scale(1.867352,1.867352)} 80% {transform: scale(1,1)} 100% {transform: scale(1,1)}} #evciXa0ASzu5 {animation: evciXa0ASzu5_c_o 2000ms linear infinite normal forwards}@keyframes evciXa0ASzu5_c_o { 0% {opacity: 1} 40% {opacity: 0.88} 80% {opacity: 1} 100% {opacity: 1}}
]]></style>
<g id="evciXa0ASzu2_to" transform="translate(139.534126,219.458)"><g id="evciXa0ASzu2_ts" transform="scale(1,1)"><path id="evciXa0ASzu2" d="M160.836681,273.884352l31.95484-39.382958c3.337942-4.113525,9.61546-4.113525,12.953402,0l31.954839,39.382958c2.484582,3.062546,2.484582,7.44726,0,10.508811l-31.954839,39.383952c-3.337942,4.113525-9.61546,4.113525-12.953402,0l-31.95484-39.383952c-2.485575-3.061551-2.485575-7.446265,0-10.508811Z" transform="translate(-199.534126,-279.458)" opacity="0.62" fill="#1ba5f8"/></g></g><g id="evciXa0ASzu3_to" transform="translate(139.534126,61.041889)"><g id="evciXa0ASzu3_ts" transform="scale(1,1)"><path id="evciXa0ASzu3" d="M160.849068,115.757345l32.167168-39.651029c3.360122-4.141721,9.679352-4.141721,13.039474,0l32.167168,39.651029c2.501091,3.082314,2.501091,7.496762,0,10.580076L206.05571,165.98745c-3.360122,4.141421-9.679352,4.141421-13.039474,0l-32.167168-39.650029c-2.502091-3.083314-2.502091-7.497762,0-10.580076Z" transform="translate(-199.534126,-121.041889)" fill="#1ba5f8"/></g></g><g id="evciXa0ASzu4_to" transform="translate(89.561497,123.042)"><g id="evciXa0ASzu4_ts" transform="scale(1,1)"><path id="evciXa0ASzu4" d="M110.876,177.753l32.166-39.647c3.36-4.141,9.679-4.141,13.039,0l32.166,39.647c2.501,3.082,2.501,7.496,0,10.579l-32.166,39.646c-3.36,4.141-9.679,4.141-13.039,0l-32.166-39.646c-2.501-3.083-2.501-7.497,0-10.579Z" transform="translate(-149.561497,-183.042)" fill="#1ba5f8"/></g></g><g id="evciXa0ASzu5_to" style="offset-path:path('M189.561493,123.042C189.561493,123.042,155,123.042,140,123.042C125,123.042,89.561493,123.042,89.561493,123.042');offset-rotate:0deg"><g id="evciXa0ASzu5_ts" transform="scale(1,1)"><path id="evciXa0ASzu5" d="M210.876,177.753l32.166-39.647c3.36-4.141,9.679-4.141,13.039,0l32.166,39.647c2.501,3.082,2.501,7.496,0,10.579l-32.166,39.646c-3.36,4.141-9.679,4.141-13.039,0l-32.166-39.646c-2.501-3.083-2.501-7.497,0-10.579Z" transform="translate(-249.561493,-183.042)" fill="#1ba5f8"/></g></g></svg>
