<svg width="520" height="284" viewBox="0 0 520 284" fill="none" xmlns="http://www.w3.org/2000/svg">
    <mask id="mask0" mask-type="alpha" maskUnits="userSpaceOnUse" x="0" y="0" width="520" height="284">
        <rect width="520" height="284" fill="#C4C4C4"/>
    </mask>
    <g mask="url(#mask0)">
        <path d="M520 234.5V284.074H470.477C470.477 256.676 492.631 234.5 520 234.5Z" fill="#5B6C84"/>
        <path d="M253.477 13.9999C251.646 13.9999 249.789 14.1273 247.906 14.3821C239.968 15.4522 231.901 18.8663 224.569 24.2167C224.009 24.6244 223.881 25.4397 224.288 26.0002C224.694 26.5607 225.508 26.6881 226.068 26.2805C233.043 21.1593 240.703 17.9236 248.234 16.9044C255.205 15.9617 261.869 16.9044 267.539 19.6306C271.302 21.4396 274.428 23.962 276.816 27.0194C273.509 27.1213 270.177 27.5289 266.843 28.2678C261.348 29.4908 257.044 33.6437 255.64 39.0961C254.261 44.523 256.01 50.2047 260.229 53.8736C264.753 57.8482 270.934 58.689 276.38 56.0902C281.801 53.4914 285.012 48.1664 284.763 42.1535C284.59 37.5929 283.475 33.3635 281.545 29.6436C292.763 30.408 303.34 35.096 311.803 43.2746C316.479 47.7843 320.162 53.0583 322.472 58.5361C324.73 63.9121 325.488 69.1097 324.695 73.5684C324.567 74.2563 325.025 74.9187 325.711 75.0461C326.398 75.1735 327.06 74.7149 327.188 74.027C329.004 63.963 323.675 51.1729 313.586 41.4401C304.208 32.3953 292.435 27.427 279.996 26.9939C277.253 22.9173 273.441 19.5797 268.661 17.2866C264.084 15.1464 258.921 13.9999 253.477 13.9999ZM269.92 55.0456C267.046 55.0456 264.198 54.001 261.91 51.9882C258.377 48.8798 256.957 44.3192 258.107 39.7586C259.281 35.1724 262.744 31.8093 267.375 30.7902C271.115 29.9749 274.855 29.5672 278.544 29.5927C280.753 33.287 282.021 37.5929 282.194 42.3064C282.393 47.2747 279.743 51.6824 275.263 53.8226C273.558 54.6379 271.726 55.0456 269.92 55.0456Z" fill="#2A323E"/>
        <path d="M489.299 54.6953C494.39 71.6715 492.785 89.1011 486.017 104.143C437.19 97.8074 414.465 57.0373 380.517 17.1373C386.572 12.8965 393.385 9.53579 400.862 7.28885C419.666 1.63746 438.977 4.12297 454.967 12.6945C470.957 21.2661 483.676 35.9499 489.299 54.6953Z" fill="#2A323E"/>
        <path d="M486.581 106.025C486.317 106.105 486.041 106.147 485.781 106.102C467.105 103.672 451.113 96.3318 435.384 83.0038C421.466 71.1835 409.396 56.0581 396.644 40.0299C391.018 32.9393 385.212 25.6569 379.043 18.4013C378.669 17.98 378.5 17.4154 378.591 16.8956C378.671 16.3382 378.973 15.8369 379.419 15.5389C385.769 11.0453 392.782 7.66558 400.297 5.40729C418.988 -0.210054 438.725 1.77781 455.893 10.9804C473.06 20.183 485.598 35.496 491.186 54.1284C496.21 70.8788 494.997 88.9292 487.824 104.954C487.571 105.482 487.11 105.867 486.581 106.025ZM383.434 17.533C389.12 24.2771 394.482 31.0367 399.7 37.5932C424.808 69.153 446.572 96.4245 484.799 102.006C491.099 87.1872 492.028 70.6585 487.41 55.2632C482.127 37.6471 470.275 23.1127 454.04 14.4097C437.804 5.70664 419.097 3.86047 401.426 9.17142C395.006 11.1006 388.971 13.8991 383.434 17.533Z" fill="#2A323E"/>
        <path d="M301.78 274.024C258.214 274.024 222.916 238.69 222.916 195.081C222.916 151.471 258.214 116.137 301.78 116.137C345.345 116.137 380.644 151.471 380.644 195.081C380.688 238.69 345.345 274.024 301.78 274.024Z" fill="#2A323E"/>
        <path d="M301.78 276.213C257.077 276.213 220.729 239.828 220.729 195.08C220.729 150.332 257.077 113.947 301.78 113.947C346.483 113.947 382.831 150.332 382.831 195.08C382.831 216.71 374.433 237.069 359.168 252.394C343.815 267.762 323.476 276.213 301.78 276.213ZM301.78 118.326C259.483 118.326 225.103 152.74 225.103 195.08C225.103 237.42 259.483 271.834 301.78 271.834C322.295 271.834 341.584 263.822 356.062 249.329C370.54 234.836 378.501 215.571 378.457 195.08C378.457 152.74 344.077 118.326 301.78 118.326Z" fill="#2A323E"/>
        <path d="M347.208 108.707C348.416 108.707 349.395 107.726 349.395 106.517C349.395 105.308 348.416 104.328 347.208 104.328C346 104.328 345.021 105.308 345.021 106.517C345.021 107.726 346 108.707 347.208 108.707Z" fill="#2A323E"/>
        <path d="M347.208 138.918C348.416 138.918 349.395 137.938 349.395 136.729C349.395 135.52 348.416 134.54 347.208 134.54C346 134.54 345.021 135.52 345.021 136.729C345.021 137.938 346 138.918 347.208 138.918Z" fill="#2A323E"/>
        <path d="M347.208 169.13C348.416 169.13 349.395 168.15 349.395 166.941C349.395 165.732 348.416 164.751 347.208 164.751C346 164.751 345.021 165.732 345.021 166.941C345.021 168.15 346 169.13 347.208 169.13Z" fill="#2A323E"/>
        <path d="M347.208 199.343C348.416 199.343 349.395 198.363 349.395 197.154C349.395 195.945 348.416 194.965 347.208 194.965C346 194.965 345.021 195.945 345.021 197.154C345.021 198.363 346 199.343 347.208 199.343Z" fill="#2A323E"/>
        <path d="M347.208 229.552C348.416 229.552 349.395 228.572 349.395 227.363C349.395 226.154 348.416 225.174 347.208 225.174C346 225.174 345.021 226.154 345.021 227.363C345.021 228.572 346 229.552 347.208 229.552Z" fill="#2A323E"/>
        <path d="M347.208 259.764C348.416 259.764 349.395 258.784 349.395 257.575C349.395 256.366 348.416 255.386 347.208 255.386C346 255.386 345.021 256.366 345.021 257.575C345.021 258.784 346 259.764 347.208 259.764Z" fill="#2A323E"/>
        <path d="M317.025 108.707C318.233 108.707 319.212 107.726 319.212 106.517C319.212 105.308 318.233 104.328 317.025 104.328C315.818 104.328 314.838 105.308 314.838 106.517C314.838 107.726 315.818 108.707 317.025 108.707Z" fill="#2A323E"/>
        <path d="M317.025 138.918C318.233 138.918 319.212 137.938 319.212 136.729C319.212 135.52 318.233 134.54 317.025 134.54C315.818 134.54 314.838 135.52 314.838 136.729C314.838 137.938 315.818 138.918 317.025 138.918Z" fill="#2A323E"/>
        <path d="M317.025 169.13C318.233 169.13 319.212 168.15 319.212 166.941C319.212 165.732 318.233 164.751 317.025 164.751C315.818 164.751 314.838 165.732 314.838 166.941C314.838 168.15 315.818 169.13 317.025 169.13Z" fill="#2A323E"/>
        <path d="M317.025 199.343C318.233 199.343 319.212 198.363 319.212 197.154C319.212 195.945 318.233 194.965 317.025 194.965C315.818 194.965 314.838 195.945 314.838 197.154C314.838 198.363 315.818 199.343 317.025 199.343Z" fill="#2A323E"/>
        <path d="M317.025 229.552C318.233 229.552 319.212 228.572 319.212 227.363C319.212 226.154 318.233 225.174 317.025 225.174C315.818 225.174 314.838 226.154 314.838 227.363C314.838 228.572 315.818 229.552 317.025 229.552Z" fill="#2A323E"/>
        <path d="M317.025 259.764C318.233 259.764 319.212 258.784 319.212 257.575C319.212 256.366 318.233 255.386 317.025 255.386C315.818 255.386 314.838 256.366 314.838 257.575C314.838 258.784 315.818 259.764 317.025 259.764Z" fill="#2A323E"/>
        <path d="M286.846 108.707C288.054 108.707 289.033 107.726 289.033 106.517C289.033 105.308 288.054 104.328 286.846 104.328C285.638 104.328 284.659 105.308 284.659 106.517C284.659 107.726 285.638 108.707 286.846 108.707Z" fill="#2A323E"/>
        <path d="M286.846 138.918C288.054 138.918 289.033 137.938 289.033 136.729C289.033 135.52 288.054 134.54 286.846 134.54C285.638 134.54 284.659 135.52 284.659 136.729C284.659 137.938 285.638 138.918 286.846 138.918Z" fill="#2A323E"/>
        <path d="M286.846 169.13C288.054 169.13 289.033 168.15 289.033 166.941C289.033 165.732 288.054 164.751 286.846 164.751C285.638 164.751 284.659 165.732 284.659 166.941C284.659 168.15 285.638 169.13 286.846 169.13Z" fill="#2A323E"/>
        <path d="M286.846 199.343C288.054 199.343 289.033 198.363 289.033 197.154C289.033 195.945 288.054 194.965 286.846 194.965C285.638 194.965 284.659 195.945 284.659 197.154C284.659 198.363 285.638 199.343 286.846 199.343Z" fill="#2A323E"/>
        <path d="M286.846 229.552C288.054 229.552 289.033 228.572 289.033 227.363C289.033 226.154 288.054 225.174 286.846 225.174C285.638 225.174 284.659 226.154 284.659 227.363C284.659 228.572 285.638 229.552 286.846 229.552Z" fill="#2A323E"/>
        <path d="M286.846 259.764C288.054 259.764 289.033 258.784 289.033 257.575C289.033 256.366 288.054 255.386 286.846 255.386C285.638 255.386 284.659 256.366 284.659 257.575C284.659 258.784 285.638 259.764 286.846 259.764Z" fill="#2A323E"/>
        <path d="M256.664 108.707C257.872 108.707 258.851 107.726 258.851 106.517C258.851 105.308 257.872 104.328 256.664 104.328C255.456 104.328 254.477 105.308 254.477 106.517C254.477 107.726 255.456 108.707 256.664 108.707Z" fill="#2A323E"/>
        <path d="M256.664 138.918C257.872 138.918 258.851 137.938 258.851 136.729C258.851 135.52 257.872 134.54 256.664 134.54C255.456 134.54 254.477 135.52 254.477 136.729C254.477 137.938 255.456 138.918 256.664 138.918Z" fill="#2A323E"/>
        <path d="M256.664 169.13C257.872 169.13 258.851 168.15 258.851 166.941C258.851 165.732 257.872 164.751 256.664 164.751C255.456 164.751 254.477 165.732 254.477 166.941C254.477 168.15 255.456 169.13 256.664 169.13Z" fill="#2A323E"/>
        <path d="M256.664 199.343C257.872 199.343 258.851 198.363 258.851 197.154C258.851 195.945 257.872 194.965 256.664 194.965C255.456 194.965 254.477 195.945 254.477 197.154C254.477 198.363 255.456 199.343 256.664 199.343Z" fill="#2A323E"/>
        <path d="M256.664 229.552C257.872 229.552 258.851 228.572 258.851 227.363C258.851 226.154 257.872 225.174 256.664 225.174C255.456 225.174 254.477 226.154 254.477 227.363C254.477 228.572 255.456 229.552 256.664 229.552Z" fill="#2A323E"/>
        <path d="M256.664 259.764C257.872 259.764 258.851 258.784 258.851 257.575C258.851 256.366 257.872 255.386 256.664 255.386C255.456 255.386 254.477 256.366 254.477 257.575C254.477 258.784 255.456 259.764 256.664 259.764Z" fill="#2A323E"/>
        <path d="M226.483 108.707C227.691 108.707 228.67 107.726 228.67 106.517C228.67 105.308 227.691 104.328 226.483 104.328C225.276 104.328 224.296 105.308 224.296 106.517C224.296 107.726 225.276 108.707 226.483 108.707Z" fill="#2A323E"/>
        <path d="M226.483 138.918C227.691 138.918 228.67 137.938 228.67 136.729C228.67 135.52 227.691 134.54 226.483 134.54C225.276 134.54 224.296 135.52 224.296 136.729C224.296 137.938 225.276 138.918 226.483 138.918Z" fill="#2A323E"/>
        <path d="M226.483 169.13C227.691 169.13 228.67 168.15 228.67 166.941C228.67 165.732 227.691 164.751 226.483 164.751C225.276 164.751 224.296 165.732 224.296 166.941C224.296 168.15 225.276 169.13 226.483 169.13Z" fill="#2A323E"/>
        <path d="M226.483 199.343C227.691 199.343 228.67 198.363 228.67 197.154C228.67 195.945 227.691 194.965 226.483 194.965C225.276 194.965 224.296 195.945 224.296 197.154C224.296 198.363 225.276 199.343 226.483 199.343Z" fill="#2A323E"/>
        <path d="M226.483 229.552C227.691 229.552 228.67 228.572 228.67 227.363C228.67 226.154 227.691 225.174 226.483 225.174C225.276 225.174 224.296 226.154 224.296 227.363C224.296 228.572 225.276 229.552 226.483 229.552Z" fill="#2A323E"/>
        <path d="M226.483 259.764C227.691 259.764 228.67 258.784 228.67 257.575C228.67 256.366 227.691 255.386 226.483 255.386C225.276 255.386 224.296 256.366 224.296 257.575C224.296 258.784 225.276 259.764 226.483 259.764Z" fill="#2A323E"/>
        <path d="M196.304 108.709C197.512 108.709 198.491 107.728 198.491 106.519C198.491 105.31 197.512 104.33 196.304 104.33C195.096 104.33 194.117 105.31 194.117 106.519C194.117 107.728 195.096 108.709 196.304 108.709Z" fill="#2A323E"/>
        <path d="M196.304 138.918C197.512 138.918 198.491 137.938 198.491 136.729C198.491 135.52 197.512 134.54 196.304 134.54C195.096 134.54 194.117 135.52 194.117 136.729C194.117 137.938 195.096 138.918 196.304 138.918Z" fill="#2A323E"/>
        <path d="M196.304 169.13C197.512 169.13 198.491 168.15 198.491 166.941C198.491 165.732 197.512 164.751 196.304 164.751C195.096 164.751 194.117 165.732 194.117 166.941C194.117 168.15 195.096 169.13 196.304 169.13Z" fill="#2A323E"/>
        <path d="M196.304 199.343C197.512 199.343 198.491 198.363 198.491 197.154C198.491 195.945 197.512 194.965 196.304 194.965C195.096 194.965 194.117 195.945 194.117 197.154C194.117 198.363 195.096 199.343 196.304 199.343Z" fill="#2A323E"/>
        <path d="M196.304 229.552C197.512 229.552 198.491 228.572 198.491 227.363C198.491 226.154 197.512 225.174 196.304 225.174C195.096 225.174 194.117 226.154 194.117 227.363C194.117 228.572 195.096 229.552 196.304 229.552Z" fill="#2A323E"/>
        <path d="M196.305 259.764C197.513 259.764 198.492 258.784 198.492 257.575C198.492 256.366 197.513 255.386 196.305 255.386C195.097 255.386 194.118 256.366 194.118 257.575C194.118 258.784 195.097 259.764 196.305 259.764Z" fill="#2A323E"/>
        <path d="M301.78 276.213C257.077 276.213 220.729 239.828 220.729 195.08C220.729 150.332 257.077 113.947 301.78 113.947C346.483 113.947 382.831 150.332 382.831 195.08C382.831 216.71 374.433 237.069 359.168 252.394C343.815 267.762 323.476 276.213 301.78 276.213ZM301.78 118.326C259.483 118.326 225.103 152.74 225.103 195.08C225.103 237.42 259.483 271.834 301.78 271.834C322.295 271.834 341.584 263.822 356.062 249.329C370.54 234.836 378.501 215.571 378.457 195.08C378.457 152.74 344.077 118.326 301.78 118.326Z" fill="#2A323E"/>
        <path d="M336.608 239.495C293.217 239.495 258.06 204.303 258.06 160.869C258.06 117.434 293.217 82.2422 336.608 82.2422C379.998 82.2422 415.155 117.434 415.155 160.869C415.155 204.259 379.998 239.495 336.608 239.495Z" fill="#DCE0E8"/>
        <path d="M336.609 241.675C292.085 241.675 255.883 205.436 255.883 160.868C255.883 116.3 292.085 80.061 336.609 80.061C381.132 80.061 417.334 116.3 417.334 160.868C417.334 205.436 381.132 241.675 336.609 241.675ZM336.609 84.4219C294.481 84.4219 260.239 118.698 260.239 160.868C260.239 203.038 294.481 237.314 336.609 237.314C378.736 237.314 412.978 203.038 412.978 160.868C412.978 118.698 378.736 84.4219 336.609 84.4219Z" fill="#2A323E"/>
        <path d="M372.09 203.659C328.874 203.659 293.859 168.609 293.859 125.35C293.859 82.0908 328.874 47.0405 372.09 47.0405C415.305 47.0405 450.32 82.0908 450.32 125.35C450.364 168.609 415.305 203.659 372.09 203.659Z" fill="#5B6C84"/>
        <path d="M372.089 205.831C327.745 205.831 291.688 169.739 291.688 125.35C291.688 80.9618 327.745 44.8691 372.089 44.8691C416.433 44.8691 452.489 80.9618 452.489 125.35C452.489 146.806 444.158 167.002 429.015 182.204C413.786 197.449 393.61 205.831 372.089 205.831ZM372.089 49.2124C330.131 49.2124 296.027 83.3506 296.027 125.35C296.027 167.35 330.131 201.488 372.089 201.488C392.438 201.488 411.573 193.54 425.935 179.163C440.297 164.787 448.193 145.677 448.15 125.35C448.15 83.3506 414.046 49.2124 372.089 49.2124Z" fill="#2A323E"/>
        <path d="M372.089 205.831C327.745 205.831 291.688 169.739 291.688 125.35C291.688 80.9618 327.745 44.8691 372.089 44.8691C416.433 44.8691 452.489 80.9618 452.489 125.35C452.489 146.806 444.158 167.002 429.015 182.204C413.786 197.449 393.61 205.831 372.089 205.831ZM372.089 49.2124C330.131 49.2124 296.027 83.3506 296.027 125.35C296.027 167.35 330.131 201.488 372.089 201.488C392.438 201.488 411.573 193.54 425.935 179.163C440.297 164.787 448.193 145.677 448.15 125.35C448.15 83.3506 414.046 49.2124 372.089 49.2124Z" fill="#5B6C84"/>
        <path d="M501.505 60.6612C502.704 60.6612 503.675 59.6889 503.675 58.4895C503.675 57.2902 502.704 56.3179 501.505 56.3179C500.307 56.3179 499.336 57.2902 499.336 58.4895C499.336 59.6889 500.307 60.6612 501.505 60.6612Z" fill="#2A323E"/>
        <path d="M501.505 71.3902C502.704 71.3902 503.675 70.4179 503.675 69.2185C503.675 68.0192 502.704 67.0469 501.505 67.0469C500.307 67.0469 499.336 68.0192 499.336 69.2185C499.336 70.4179 500.307 71.3902 501.505 71.3902Z" fill="#2A323E"/>
        <path d="M501.505 82.1158C502.704 82.1158 503.675 81.1435 503.675 79.9441C503.675 78.7447 502.704 77.7725 501.505 77.7725C500.307 77.7725 499.336 78.7447 499.336 79.9441C499.336 81.1435 500.307 82.1158 501.505 82.1158Z" fill="#2A323E"/>
        <path d="M501.505 92.8462C502.704 92.8462 503.675 91.8739 503.675 90.6746C503.675 89.4752 502.704 88.5029 501.505 88.5029C500.307 88.5029 499.336 89.4752 499.336 90.6746C499.336 91.8739 500.307 92.8462 501.505 92.8462Z" fill="#2A323E"/>
        <path d="M501.504 103.575C502.703 103.575 503.674 102.603 503.674 101.404C503.674 100.204 502.703 99.2319 501.504 99.2319C500.306 99.2319 499.335 100.204 499.335 101.404C499.335 102.603 500.306 103.575 501.504 103.575Z" fill="#2A323E"/>
        <path d="M501.505 114.303C502.704 114.303 503.675 113.331 503.675 112.132C503.675 110.932 502.704 109.96 501.505 109.96C500.307 109.96 499.336 110.932 499.336 112.132C499.336 113.331 500.307 114.303 501.505 114.303Z" fill="#2A323E"/>
        <path d="M501.505 125.027C502.704 125.027 503.675 124.055 503.675 122.856C503.675 121.656 502.704 120.684 501.505 120.684C500.307 120.684 499.336 121.656 499.336 122.856C499.336 124.055 500.307 125.027 501.505 125.027Z" fill="#2A323E"/>
        <path d="M501.505 135.759C502.704 135.759 503.675 134.787 503.675 133.587C503.675 132.388 502.704 131.416 501.505 131.416C500.307 131.416 499.336 132.388 499.336 133.587C499.336 134.787 500.307 135.759 501.505 135.759Z" fill="#2A323E"/>
        <path d="M501.505 146.484C502.704 146.484 503.675 145.512 503.675 144.312C503.675 143.113 502.704 142.141 501.505 142.141C500.307 142.141 499.336 143.113 499.336 144.312C499.336 145.512 500.307 146.484 501.505 146.484Z" fill="#2A323E"/>
        <path d="M501.505 157.214C502.704 157.214 503.675 156.242 503.675 155.042C503.675 153.843 502.704 152.871 501.505 152.871C500.307 152.871 499.336 153.843 499.336 155.042C499.336 156.242 500.307 157.214 501.505 157.214Z" fill="#2A323E"/>
        <path d="M501.505 167.939C502.704 167.939 503.675 166.967 503.675 165.767C503.675 164.568 502.704 163.596 501.505 163.596C500.307 163.596 499.336 164.568 499.336 165.767C499.336 166.967 500.307 167.939 501.505 167.939Z" fill="#2A323E"/>
        <path d="M501.505 178.668C502.704 178.668 503.675 177.696 503.675 176.497C503.675 175.297 502.704 174.325 501.505 174.325C500.307 174.325 499.336 175.297 499.336 176.497C499.336 177.696 500.307 178.668 501.505 178.668Z" fill="#2A323E"/>
        <path d="M501.505 189.398C502.704 189.398 503.675 188.425 503.675 187.226C503.675 186.026 502.704 185.054 501.505 185.054C500.307 185.054 499.336 186.026 499.336 187.226C499.336 188.425 500.307 189.398 501.505 189.398Z" fill="#2A323E"/>
        <path d="M501.505 200.128C502.704 200.128 503.675 199.156 503.675 197.956C503.675 196.757 502.704 195.785 501.505 195.785C500.307 195.785 499.336 196.757 499.336 197.956C499.336 199.156 500.307 200.128 501.505 200.128Z" fill="#2A323E"/>
        <path d="M501.504 210.853C502.703 210.853 503.674 209.881 503.674 208.681C503.674 207.482 502.703 206.51 501.504 206.51C500.306 206.51 499.335 207.482 499.335 208.681C499.335 209.881 500.306 210.853 501.504 210.853Z" fill="#2A323E"/>
        <path d="M490.789 60.6612C491.987 60.6612 492.959 59.6889 492.959 58.4895C492.959 57.2902 491.987 56.3179 490.789 56.3179C489.591 56.3179 488.62 57.2902 488.62 58.4895C488.62 59.6889 489.591 60.6612 490.789 60.6612Z" fill="#2A323E"/>
        <path d="M490.789 71.3902C491.987 71.3902 492.959 70.4179 492.959 69.2185C492.959 68.0192 491.987 67.0469 490.789 67.0469C489.591 67.0469 488.62 68.0192 488.62 69.2185C488.62 70.4179 489.591 71.3902 490.789 71.3902Z" fill="#2A323E"/>
        <path d="M490.789 82.1158C491.987 82.1158 492.959 81.1435 492.959 79.9441C492.959 78.7447 491.987 77.7725 490.789 77.7725C489.591 77.7725 488.62 78.7447 488.62 79.9441C488.62 81.1435 489.591 82.1158 490.789 82.1158Z" fill="#2A323E"/>
        <path d="M490.789 92.8462C491.987 92.8462 492.959 91.8739 492.959 90.6746C492.959 89.4752 491.987 88.5029 490.789 88.5029C489.591 88.5029 488.62 89.4752 488.62 90.6746C488.62 91.8739 489.591 92.8462 490.789 92.8462Z" fill="#2A323E"/>
        <path d="M490.788 103.575C491.986 103.575 492.958 102.603 492.958 101.404C492.958 100.204 491.986 99.2319 490.788 99.2319C489.59 99.2319 488.619 100.204 488.619 101.404C488.619 102.603 489.59 103.575 490.788 103.575Z" fill="#2A323E"/>
        <path d="M490.789 114.303C491.987 114.303 492.959 113.331 492.959 112.132C492.959 110.932 491.987 109.96 490.789 109.96C489.591 109.96 488.62 110.932 488.62 112.132C488.62 113.331 489.591 114.303 490.789 114.303Z" fill="#2A323E"/>
        <path d="M490.789 125.027C491.987 125.027 492.959 124.055 492.959 122.856C492.959 121.656 491.987 120.684 490.789 120.684C489.591 120.684 488.62 121.656 488.62 122.856C488.62 124.055 489.591 125.027 490.789 125.027Z" fill="#2A323E"/>
        <path d="M490.789 135.759C491.987 135.759 492.959 134.787 492.959 133.587C492.959 132.388 491.987 131.416 490.789 131.416C489.591 131.416 488.62 132.388 488.62 133.587C488.62 134.787 489.591 135.759 490.789 135.759Z" fill="#2A323E"/>
        <path d="M490.789 146.484C491.987 146.484 492.959 145.512 492.959 144.312C492.959 143.113 491.987 142.141 490.789 142.141C489.591 142.141 488.62 143.113 488.62 144.312C488.62 145.512 489.591 146.484 490.789 146.484Z" fill="#2A323E"/>
        <path d="M490.789 157.214C491.987 157.214 492.959 156.242 492.959 155.042C492.959 153.843 491.987 152.871 490.789 152.871C489.591 152.871 488.62 153.843 488.62 155.042C488.62 156.242 489.591 157.214 490.789 157.214Z" fill="#2A323E"/>
        <path d="M490.789 167.939C491.987 167.939 492.959 166.967 492.959 165.767C492.959 164.568 491.987 163.596 490.789 163.596C489.591 163.596 488.62 164.568 488.62 165.767C488.62 166.967 489.591 167.939 490.789 167.939Z" fill="#2A323E"/>
        <path d="M490.789 178.668C491.987 178.668 492.959 177.696 492.959 176.497C492.959 175.297 491.987 174.325 490.789 174.325C489.591 174.325 488.62 175.297 488.62 176.497C488.62 177.696 489.591 178.668 490.789 178.668Z" fill="#2A323E"/>
        <path d="M490.789 189.398C491.987 189.398 492.959 188.425 492.959 187.226C492.959 186.026 491.987 185.054 490.789 185.054C489.591 185.054 488.62 186.026 488.62 187.226C488.62 188.425 489.591 189.398 490.789 189.398Z" fill="#2A323E"/>
        <path d="M490.789 200.128C491.987 200.128 492.959 199.156 492.959 197.956C492.959 196.757 491.987 195.785 490.789 195.785C489.591 195.785 488.62 196.757 488.62 197.956C488.62 199.156 489.591 200.128 490.789 200.128Z" fill="#2A323E"/>
        <path d="M490.788 210.853C491.986 210.853 492.958 209.881 492.958 208.681C492.958 207.482 491.986 206.51 490.788 206.51C489.59 206.51 488.619 207.482 488.619 208.681C488.619 209.881 489.59 210.853 490.788 210.853Z" fill="#2A323E"/>
        <path d="M480.072 60.6612C481.27 60.6612 482.241 59.6889 482.241 58.4895C482.241 57.2902 481.27 56.3179 480.072 56.3179C478.874 56.3179 477.902 57.2902 477.902 58.4895C477.902 59.6889 478.874 60.6612 480.072 60.6612Z" fill="#2A323E"/>
        <path d="M480.072 71.3902C481.27 71.3902 482.241 70.4179 482.241 69.2185C482.241 68.0192 481.27 67.0469 480.072 67.0469C478.874 67.0469 477.902 68.0192 477.902 69.2185C477.902 70.4179 478.874 71.3902 480.072 71.3902Z" fill="#2A323E"/>
        <path d="M480.072 82.1158C481.27 82.1158 482.241 81.1435 482.241 79.9441C482.241 78.7447 481.27 77.7725 480.072 77.7725C478.874 77.7725 477.902 78.7447 477.902 79.9441C477.902 81.1435 478.874 82.1158 480.072 82.1158Z" fill="#2A323E"/>
        <path d="M480.072 92.8462C481.27 92.8462 482.241 91.8739 482.241 90.6746C482.241 89.4752 481.27 88.5029 480.072 88.5029C478.874 88.5029 477.902 89.4752 477.902 90.6746C477.902 91.8739 478.874 92.8462 480.072 92.8462Z" fill="#2A323E"/>
        <path d="M480.071 103.575C481.269 103.575 482.241 102.603 482.241 101.404C482.241 100.204 481.269 99.2319 480.071 99.2319C478.873 99.2319 477.902 100.204 477.902 101.404C477.902 102.603 478.873 103.575 480.071 103.575Z" fill="#2A323E"/>
        <path d="M480.072 114.303C481.27 114.303 482.241 113.331 482.241 112.132C482.241 110.932 481.27 109.96 480.072 109.96C478.874 109.96 477.902 110.932 477.902 112.132C477.902 113.331 478.874 114.303 480.072 114.303Z" fill="#2A323E"/>
        <path d="M480.072 125.027C481.27 125.027 482.241 124.055 482.241 122.856C482.241 121.656 481.27 120.684 480.072 120.684C478.874 120.684 477.902 121.656 477.902 122.856C477.902 124.055 478.874 125.027 480.072 125.027Z" fill="#2A323E"/>
        <path d="M480.072 135.759C481.27 135.759 482.241 134.787 482.241 133.587C482.241 132.388 481.27 131.416 480.072 131.416C478.874 131.416 477.902 132.388 477.902 133.587C477.902 134.787 478.874 135.759 480.072 135.759Z" fill="#2A323E"/>
        <path d="M480.072 146.484C481.27 146.484 482.241 145.512 482.241 144.312C482.241 143.113 481.27 142.141 480.072 142.141C478.874 142.141 477.902 143.113 477.902 144.312C477.902 145.512 478.874 146.484 480.072 146.484Z" fill="#2A323E"/>
        <path d="M480.072 157.214C481.27 157.214 482.241 156.242 482.241 155.042C482.241 153.843 481.27 152.871 480.072 152.871C478.874 152.871 477.902 153.843 477.902 155.042C477.902 156.242 478.874 157.214 480.072 157.214Z" fill="#2A323E"/>
        <path d="M480.072 167.939C481.27 167.939 482.241 166.967 482.241 165.767C482.241 164.568 481.27 163.596 480.072 163.596C478.874 163.596 477.902 164.568 477.902 165.767C477.902 166.967 478.874 167.939 480.072 167.939Z" fill="#2A323E"/>
        <path d="M480.072 178.668C481.27 178.668 482.241 177.696 482.241 176.497C482.241 175.297 481.27 174.325 480.072 174.325C478.874 174.325 477.902 175.297 477.902 176.497C477.902 177.696 478.874 178.668 480.072 178.668Z" fill="#2A323E"/>
        <path d="M480.072 189.398C481.27 189.398 482.241 188.425 482.241 187.226C482.241 186.026 481.27 185.054 480.072 185.054C478.874 185.054 477.902 186.026 477.902 187.226C477.902 188.425 478.874 189.398 480.072 189.398Z" fill="#2A323E"/>
        <path d="M480.072 200.128C481.27 200.128 482.241 199.156 482.241 197.956C482.241 196.757 481.27 195.785 480.072 195.785C478.874 195.785 477.902 196.757 477.902 197.956C477.902 199.156 478.874 200.128 480.072 200.128Z" fill="#2A323E"/>
        <path d="M480.071 210.853C481.27 210.853 482.241 209.881 482.241 208.681C482.241 207.482 481.27 206.51 480.071 206.51C478.873 206.51 477.902 207.482 477.902 208.681C477.902 209.881 478.873 210.853 480.071 210.853Z" fill="#2A323E"/>
        <path d="M469.356 60.6612C470.554 60.6612 471.525 59.6889 471.525 58.4895C471.525 57.2902 470.554 56.3179 469.356 56.3179C468.157 56.3179 467.186 57.2902 467.186 58.4895C467.186 59.6889 468.157 60.6612 469.356 60.6612Z" fill="#2A323E"/>
        <path d="M469.356 71.3902C470.554 71.3902 471.525 70.4179 471.525 69.2185C471.525 68.0192 470.554 67.0469 469.356 67.0469C468.157 67.0469 467.186 68.0192 467.186 69.2185C467.186 70.4179 468.157 71.3902 469.356 71.3902Z" fill="#2A323E"/>
        <path d="M469.356 82.1158C470.554 82.1158 471.525 81.1435 471.525 79.9441C471.525 78.7447 470.554 77.7725 469.356 77.7725C468.157 77.7725 467.186 78.7447 467.186 79.9441C467.186 81.1435 468.157 82.1158 469.356 82.1158Z" fill="#2A323E"/>
        <path d="M469.356 92.8462C470.554 92.8462 471.525 91.8739 471.525 90.6746C471.525 89.4752 470.554 88.5029 469.356 88.5029C468.157 88.5029 467.186 89.4752 467.186 90.6746C467.186 91.8739 468.157 92.8462 469.356 92.8462Z" fill="#2A323E"/>
        <path d="M469.355 103.575C470.553 103.575 471.524 102.603 471.524 101.404C471.524 100.204 470.553 99.2319 469.355 99.2319C468.156 99.2319 467.185 100.204 467.185 101.404C467.185 102.603 468.156 103.575 469.355 103.575Z" fill="#2A323E"/>
        <path d="M469.356 114.303C470.554 114.303 471.525 113.331 471.525 112.132C471.525 110.932 470.554 109.96 469.356 109.96C468.157 109.96 467.186 110.932 467.186 112.132C467.186 113.331 468.157 114.303 469.356 114.303Z" fill="#2A323E"/>
        <path d="M469.356 125.027C470.554 125.027 471.525 124.055 471.525 122.856C471.525 121.656 470.554 120.684 469.356 120.684C468.157 120.684 467.186 121.656 467.186 122.856C467.186 124.055 468.157 125.027 469.356 125.027Z" fill="#2A323E"/>
        <path d="M469.356 135.759C470.554 135.759 471.525 134.787 471.525 133.587C471.525 132.388 470.554 131.416 469.356 131.416C468.157 131.416 467.186 132.388 467.186 133.587C467.186 134.787 468.157 135.759 469.356 135.759Z" fill="#2A323E"/>
        <path d="M469.356 146.484C470.554 146.484 471.525 145.512 471.525 144.312C471.525 143.113 470.554 142.141 469.356 142.141C468.157 142.141 467.186 143.113 467.186 144.312C467.186 145.512 468.157 146.484 469.356 146.484Z" fill="#2A323E"/>
        <path d="M469.356 157.214C470.554 157.214 471.525 156.242 471.525 155.042C471.525 153.843 470.554 152.871 469.356 152.871C468.157 152.871 467.186 153.843 467.186 155.042C467.186 156.242 468.157 157.214 469.356 157.214Z" fill="#2A323E"/>
        <path d="M469.356 167.939C470.554 167.939 471.525 166.967 471.525 165.767C471.525 164.568 470.554 163.596 469.356 163.596C468.157 163.596 467.186 164.568 467.186 165.767C467.186 166.967 468.157 167.939 469.356 167.939Z" fill="#2A323E"/>
        <path d="M469.356 178.668C470.554 178.668 471.525 177.696 471.525 176.497C471.525 175.297 470.554 174.325 469.356 174.325C468.157 174.325 467.186 175.297 467.186 176.497C467.186 177.696 468.157 178.668 469.356 178.668Z" fill="#2A323E"/>
        <path d="M469.356 189.398C470.554 189.398 471.525 188.425 471.525 187.226C471.525 186.026 470.554 185.054 469.356 185.054C468.157 185.054 467.186 186.026 467.186 187.226C467.186 188.425 468.157 189.398 469.356 189.398Z" fill="#2A323E"/>
        <path d="M469.356 200.128C470.554 200.128 471.525 199.156 471.525 197.956C471.525 196.757 470.554 195.785 469.356 195.785C468.157 195.785 467.186 196.757 467.186 197.956C467.186 199.156 468.157 200.128 469.356 200.128Z" fill="#2A323E"/>
        <path d="M469.355 210.853C470.553 210.853 471.524 209.881 471.524 208.681C471.524 207.482 470.553 206.51 469.355 206.51C468.156 206.51 467.185 207.482 467.185 208.681C467.185 209.881 468.156 210.853 469.355 210.853Z" fill="#2A323E"/>
        <path d="M458.638 60.6612C459.836 60.6612 460.807 59.6889 460.807 58.4895C460.807 57.2902 459.836 56.3179 458.638 56.3179C457.44 56.3179 456.468 57.2902 456.468 58.4895C456.468 59.6889 457.44 60.6612 458.638 60.6612Z" fill="#2A323E"/>
        <path d="M458.636 71.3902C459.834 71.3902 460.806 70.4179 460.806 69.2185C460.806 68.0192 459.834 67.0469 458.636 67.0469C457.438 67.0469 456.467 68.0192 456.467 69.2185C456.467 70.4179 457.438 71.3902 458.636 71.3902Z" fill="#2A323E"/>
        <path d="M458.638 82.1158C459.836 82.1158 460.807 81.1435 460.807 79.9441C460.807 78.7447 459.836 77.7725 458.638 77.7725C457.44 77.7725 456.468 78.7447 456.468 79.9441C456.468 81.1435 457.44 82.1158 458.638 82.1158Z" fill="#2A323E"/>
        <path d="M458.638 92.8462C459.836 92.8462 460.807 91.8739 460.807 90.6746C460.807 89.4752 459.836 88.5029 458.638 88.5029C457.44 88.5029 456.468 89.4752 456.468 90.6746C456.468 91.8739 457.44 92.8462 458.638 92.8462Z" fill="#2A323E"/>
        <path d="M458.636 103.575C459.834 103.575 460.806 102.603 460.806 101.404C460.806 100.204 459.834 99.2319 458.636 99.2319C457.438 99.2319 456.467 100.204 456.467 101.404C456.467 102.603 457.438 103.575 458.636 103.575Z" fill="#2A323E"/>
        <path d="M458.638 114.303C459.836 114.303 460.807 113.331 460.807 112.132C460.807 110.932 459.836 109.96 458.638 109.96C457.44 109.96 456.468 110.932 456.468 112.132C456.468 113.331 457.44 114.303 458.638 114.303Z" fill="#2A323E"/>
        <path d="M458.638 125.027C459.836 125.027 460.807 124.055 460.807 122.856C460.807 121.656 459.836 120.684 458.638 120.684C457.44 120.684 456.468 121.656 456.468 122.856C456.468 124.055 457.44 125.027 458.638 125.027Z" fill="#2A323E"/>
        <path d="M458.638 135.759C459.836 135.759 460.807 134.787 460.807 133.587C460.807 132.388 459.836 131.416 458.638 131.416C457.44 131.416 456.468 132.388 456.468 133.587C456.468 134.787 457.44 135.759 458.638 135.759Z" fill="#2A323E"/>
        <path d="M458.638 146.484C459.836 146.484 460.807 145.512 460.807 144.312C460.807 143.113 459.836 142.141 458.638 142.141C457.44 142.141 456.468 143.113 456.468 144.312C456.468 145.512 457.44 146.484 458.638 146.484Z" fill="#2A323E"/>
        <path d="M458.638 157.214C459.836 157.214 460.807 156.242 460.807 155.042C460.807 153.843 459.836 152.871 458.638 152.871C457.44 152.871 456.468 153.843 456.468 155.042C456.468 156.242 457.44 157.214 458.638 157.214Z" fill="#2A323E"/>
        <path d="M458.638 167.939C459.836 167.939 460.807 166.967 460.807 165.767C460.807 164.568 459.836 163.596 458.638 163.596C457.44 163.596 456.468 164.568 456.468 165.767C456.468 166.967 457.44 167.939 458.638 167.939Z" fill="#2A323E"/>
        <path d="M458.638 178.668C459.836 178.668 460.807 177.696 460.807 176.497C460.807 175.297 459.836 174.325 458.638 174.325C457.44 174.325 456.468 175.297 456.468 176.497C456.468 177.696 457.44 178.668 458.638 178.668Z" fill="#2A323E"/>
        <path d="M458.638 189.398C459.836 189.398 460.807 188.425 460.807 187.226C460.807 186.026 459.836 185.054 458.638 185.054C457.44 185.054 456.468 186.026 456.468 187.226C456.468 188.425 457.44 189.398 458.638 189.398Z" fill="#2A323E"/>
        <path d="M458.638 200.128C459.836 200.128 460.807 199.156 460.807 197.956C460.807 196.757 459.836 195.785 458.638 195.785C457.44 195.785 456.468 196.757 456.468 197.956C456.468 199.156 457.44 200.128 458.638 200.128Z" fill="#2A323E"/>
        <path d="M458.636 210.853C459.834 210.853 460.806 209.881 460.806 208.681C460.806 207.482 459.834 206.51 458.636 206.51C457.438 206.51 456.467 207.482 456.467 208.681C456.467 209.881 457.438 210.853 458.636 210.853Z" fill="#2A323E"/>
        <path d="M447.92 60.6612C449.118 60.6612 450.089 59.6889 450.089 58.4895C450.089 57.2902 449.118 56.3179 447.92 56.3179C446.722 56.3179 445.75 57.2902 445.75 58.4895C445.75 59.6889 446.722 60.6612 447.92 60.6612Z" fill="#2A323E"/>
        <path d="M447.92 71.3902C449.118 71.3902 450.089 70.4179 450.089 69.2185C450.089 68.0192 449.118 67.0469 447.92 67.0469C446.722 67.0469 445.75 68.0192 445.75 69.2185C445.75 70.4179 446.722 71.3902 447.92 71.3902Z" fill="#2A323E"/>
        <path d="M447.92 82.1158C449.118 82.1158 450.089 81.1435 450.089 79.9441C450.089 78.7447 449.118 77.7725 447.92 77.7725C446.722 77.7725 445.75 78.7447 445.75 79.9441C445.75 81.1435 446.722 82.1158 447.92 82.1158Z" fill="#2A323E"/>
        <path d="M447.92 92.8462C449.118 92.8462 450.089 91.8739 450.089 90.6746C450.089 89.4752 449.118 88.5029 447.92 88.5029C446.722 88.5029 445.75 89.4752 445.75 90.6746C445.75 91.8739 446.722 92.8462 447.92 92.8462Z" fill="#2A323E"/>
        <path d="M447.918 103.575C449.117 103.575 450.088 102.603 450.088 101.404C450.088 100.204 449.117 99.2319 447.918 99.2319C446.72 99.2319 445.749 100.204 445.749 101.404C445.749 102.603 446.72 103.575 447.918 103.575Z" fill="#2A323E"/>
        <path d="M447.92 114.303C449.118 114.303 450.089 113.331 450.089 112.132C450.089 110.932 449.118 109.96 447.92 109.96C446.722 109.96 445.75 110.932 445.75 112.132C445.75 113.331 446.722 114.303 447.92 114.303Z" fill="#2A323E"/>
        <path d="M447.92 125.027C449.118 125.027 450.089 124.055 450.089 122.856C450.089 121.656 449.118 120.684 447.92 120.684C446.722 120.684 445.75 121.656 445.75 122.856C445.75 124.055 446.722 125.027 447.92 125.027Z" fill="#2A323E"/>
        <path d="M447.92 135.759C449.118 135.759 450.089 134.787 450.089 133.587C450.089 132.388 449.118 131.416 447.92 131.416C446.722 131.416 445.75 132.388 445.75 133.587C445.75 134.787 446.722 135.759 447.92 135.759Z" fill="#2A323E"/>
        <path d="M447.92 146.484C449.118 146.484 450.089 145.512 450.089 144.312C450.089 143.113 449.118 142.141 447.92 142.141C446.722 142.141 445.75 143.113 445.75 144.312C445.75 145.512 446.722 146.484 447.92 146.484Z" fill="#2A323E"/>
        <path d="M447.92 157.214C449.118 157.214 450.089 156.242 450.089 155.042C450.089 153.843 449.118 152.871 447.92 152.871C446.722 152.871 445.75 153.843 445.75 155.042C445.75 156.242 446.722 157.214 447.92 157.214Z" fill="#2A323E"/>
        <path d="M447.92 167.939C449.118 167.939 450.089 166.967 450.089 165.767C450.089 164.568 449.118 163.596 447.92 163.596C446.722 163.596 445.75 164.568 445.75 165.767C445.75 166.967 446.722 167.939 447.92 167.939Z" fill="#2A323E"/>
        <path d="M447.92 178.668C449.118 178.668 450.089 177.696 450.089 176.497C450.089 175.297 449.118 174.325 447.92 174.325C446.722 174.325 445.75 175.297 445.75 176.497C445.75 177.696 446.722 178.668 447.92 178.668Z" fill="#2A323E"/>
        <path d="M447.92 189.398C449.118 189.398 450.089 188.425 450.089 187.226C450.089 186.026 449.118 185.054 447.92 185.054C446.722 185.054 445.75 186.026 445.75 187.226C445.75 188.425 446.722 189.398 447.92 189.398Z" fill="#2A323E"/>
        <path d="M447.92 200.128C449.118 200.128 450.089 199.156 450.089 197.956C450.089 196.757 449.118 195.785 447.92 195.785C446.722 195.785 445.75 196.757 445.75 197.956C445.75 199.156 446.722 200.128 447.92 200.128Z" fill="#2A323E"/>
        <path d="M447.918 210.853C449.117 210.853 450.088 209.881 450.088 208.681C450.088 207.482 449.117 206.51 447.918 206.51C446.72 206.51 445.749 207.482 445.749 208.681C445.749 209.881 446.72 210.853 447.918 210.853Z" fill="#2A323E"/>
        <path d="M437.204 60.6612C438.402 60.6612 439.374 59.6889 439.374 58.4895C439.374 57.2902 438.402 56.3179 437.204 56.3179C436.006 56.3179 435.035 57.2902 435.035 58.4895C435.035 59.6889 436.006 60.6612 437.204 60.6612Z" fill="#2A323E"/>
        <path d="M437.204 71.3902C438.402 71.3902 439.374 70.4179 439.374 69.2185C439.374 68.0192 438.402 67.0469 437.204 67.0469C436.006 67.0469 435.035 68.0192 435.035 69.2185C435.035 70.4179 436.006 71.3902 437.204 71.3902Z" fill="#2A323E"/>
        <path d="M437.204 82.1158C438.402 82.1158 439.374 81.1435 439.374 79.9441C439.374 78.7447 438.402 77.7725 437.204 77.7725C436.006 77.7725 435.035 78.7447 435.035 79.9441C435.035 81.1435 436.006 82.1158 437.204 82.1158Z" fill="#2A323E"/>
        <path d="M437.204 92.8462C438.402 92.8462 439.374 91.8739 439.374 90.6746C439.374 89.4752 438.402 88.5029 437.204 88.5029C436.006 88.5029 435.035 89.4752 435.035 90.6746C435.035 91.8739 436.006 92.8462 437.204 92.8462Z" fill="#2A323E"/>
        <path d="M437.204 103.575C438.402 103.575 439.373 102.603 439.373 101.404C439.373 100.204 438.402 99.2319 437.204 99.2319C436.005 99.2319 435.034 100.204 435.034 101.404C435.034 102.603 436.005 103.575 437.204 103.575Z" fill="#2A323E"/>
        <path d="M437.204 114.303C438.402 114.303 439.374 113.331 439.374 112.132C439.374 110.932 438.402 109.96 437.204 109.96C436.006 109.96 435.035 110.932 435.035 112.132C435.035 113.331 436.006 114.303 437.204 114.303Z" fill="#2A323E"/>
        <path d="M437.204 125.027C438.402 125.027 439.374 124.055 439.374 122.856C439.374 121.656 438.402 120.684 437.204 120.684C436.006 120.684 435.035 121.656 435.035 122.856C435.035 124.055 436.006 125.027 437.204 125.027Z" fill="#2A323E"/>
        <path d="M437.204 135.759C438.402 135.759 439.374 134.787 439.374 133.587C439.374 132.388 438.402 131.416 437.204 131.416C436.006 131.416 435.035 132.388 435.035 133.587C435.035 134.787 436.006 135.759 437.204 135.759Z" fill="#2A323E"/>
        <path d="M437.204 146.484C438.402 146.484 439.374 145.512 439.374 144.312C439.374 143.113 438.402 142.141 437.204 142.141C436.006 142.141 435.035 143.113 435.035 144.312C435.035 145.512 436.006 146.484 437.204 146.484Z" fill="#2A323E"/>
        <path d="M437.204 157.214C438.402 157.214 439.374 156.242 439.374 155.042C439.374 153.843 438.402 152.871 437.204 152.871C436.006 152.871 435.035 153.843 435.035 155.042C435.035 156.242 436.006 157.214 437.204 157.214Z" fill="#2A323E"/>
        <path d="M437.204 167.939C438.402 167.939 439.374 166.967 439.374 165.767C439.374 164.568 438.402 163.596 437.204 163.596C436.006 163.596 435.035 164.568 435.035 165.767C435.035 166.967 436.006 167.939 437.204 167.939Z" fill="#2A323E"/>
        <path d="M437.204 178.668C438.402 178.668 439.374 177.696 439.374 176.497C439.374 175.297 438.402 174.325 437.204 174.325C436.006 174.325 435.035 175.297 435.035 176.497C435.035 177.696 436.006 178.668 437.204 178.668Z" fill="#2A323E"/>
        <path d="M437.204 189.398C438.402 189.398 439.374 188.425 439.374 187.226C439.374 186.026 438.402 185.054 437.204 185.054C436.006 185.054 435.035 186.026 435.035 187.226C435.035 188.425 436.006 189.398 437.204 189.398Z" fill="#2A323E"/>
        <path d="M437.204 200.128C438.402 200.128 439.374 199.156 439.374 197.956C439.374 196.757 438.402 195.785 437.204 195.785C436.006 195.785 435.035 196.757 435.035 197.956C435.035 199.156 436.006 200.128 437.204 200.128Z" fill="#2A323E"/>
        <path d="M437.203 210.853C438.401 210.853 439.373 209.881 439.373 208.681C439.373 207.482 438.401 206.51 437.203 206.51C436.005 206.51 435.034 207.482 435.034 208.681C435.034 209.881 436.005 210.853 437.203 210.853Z" fill="#2A323E"/>
        <path d="M426.486 60.6612C427.685 60.6612 428.656 59.6889 428.656 58.4895C428.656 57.2902 427.685 56.3179 426.486 56.3179C425.288 56.3179 424.317 57.2902 424.317 58.4895C424.317 59.6889 425.288 60.6612 426.486 60.6612Z" fill="#2A323E"/>
        <path d="M426.486 71.3902C427.684 71.3902 428.656 70.4179 428.656 69.2185C428.656 68.0192 427.684 67.0469 426.486 67.0469C425.288 67.0469 424.317 68.0192 424.317 69.2185C424.317 70.4179 425.288 71.3902 426.486 71.3902Z" fill="#2A323E"/>
        <path d="M426.486 82.1158C427.684 82.1158 428.656 81.1435 428.656 79.9441C428.656 78.7447 427.684 77.7725 426.486 77.7725C425.288 77.7725 424.317 78.7447 424.317 79.9441C424.317 81.1435 425.288 82.1158 426.486 82.1158Z" fill="#2A323E"/>
        <path d="M426.486 92.8462C427.685 92.8462 428.656 91.8739 428.656 90.6746C428.656 89.4752 427.685 88.5029 426.486 88.5029C425.288 88.5029 424.317 89.4752 424.317 90.6746C424.317 91.8739 425.288 92.8462 426.486 92.8462Z" fill="#2A323E"/>
        <path d="M426.485 103.575C427.684 103.575 428.655 102.603 428.655 101.404C428.655 100.204 427.684 99.2319 426.485 99.2319C425.287 99.2319 424.316 100.204 424.316 101.404C424.316 102.603 425.287 103.575 426.485 103.575Z" fill="#2A323E"/>
        <path d="M426.486 114.303C427.684 114.303 428.656 113.331 428.656 112.132C428.656 110.932 427.684 109.96 426.486 109.96C425.288 109.96 424.317 110.932 424.317 112.132C424.317 113.331 425.288 114.303 426.486 114.303Z" fill="#2A323E"/>
        <path d="M426.486 125.027C427.685 125.027 428.656 124.055 428.656 122.856C428.656 121.656 427.685 120.684 426.486 120.684C425.288 120.684 424.317 121.656 424.317 122.856C424.317 124.055 425.288 125.027 426.486 125.027Z" fill="#2A323E"/>
        <path d="M426.486 135.759C427.685 135.759 428.656 134.787 428.656 133.587C428.656 132.388 427.685 131.416 426.486 131.416C425.288 131.416 424.317 132.388 424.317 133.587C424.317 134.787 425.288 135.759 426.486 135.759Z" fill="#2A323E"/>
        <path d="M426.486 146.484C427.684 146.484 428.656 145.512 428.656 144.312C428.656 143.113 427.684 142.141 426.486 142.141C425.288 142.141 424.317 143.113 424.317 144.312C424.317 145.512 425.288 146.484 426.486 146.484Z" fill="#2A323E"/>
        <path d="M426.486 157.214C427.685 157.214 428.656 156.242 428.656 155.042C428.656 153.843 427.685 152.871 426.486 152.871C425.288 152.871 424.317 153.843 424.317 155.042C424.317 156.242 425.288 157.214 426.486 157.214Z" fill="#2A323E"/>
        <path d="M426.486 167.939C427.685 167.939 428.656 166.967 428.656 165.767C428.656 164.568 427.685 163.596 426.486 163.596C425.288 163.596 424.317 164.568 424.317 165.767C424.317 166.967 425.288 167.939 426.486 167.939Z" fill="#2A323E"/>
        <path d="M426.486 178.668C427.684 178.668 428.656 177.696 428.656 176.497C428.656 175.297 427.684 174.325 426.486 174.325C425.288 174.325 424.317 175.297 424.317 176.497C424.317 177.696 425.288 178.668 426.486 178.668Z" fill="#2A323E"/>
        <path d="M426.486 189.398C427.685 189.398 428.656 188.425 428.656 187.226C428.656 186.026 427.685 185.054 426.486 185.054C425.288 185.054 424.317 186.026 424.317 187.226C424.317 188.425 425.288 189.398 426.486 189.398Z" fill="#2A323E"/>
        <path d="M426.486 200.128C427.685 200.128 428.656 199.156 428.656 197.956C428.656 196.757 427.685 195.785 426.486 195.785C425.288 195.785 424.317 196.757 424.317 197.956C424.317 199.156 425.288 200.128 426.486 200.128Z" fill="#2A323E"/>
        <path d="M426.485 210.853C427.683 210.853 428.655 209.881 428.655 208.681C428.655 207.482 427.683 206.51 426.485 206.51C425.287 206.51 424.316 207.482 424.316 208.681C424.316 209.881 425.287 210.853 426.485 210.853Z" fill="#2A323E"/>
        <path d="M415.769 60.6612C416.967 60.6612 417.938 59.6889 417.938 58.4895C417.938 57.2902 416.967 56.3179 415.769 56.3179C414.57 56.3179 413.599 57.2902 413.599 58.4895C413.599 59.6889 414.57 60.6612 415.769 60.6612Z" fill="#2A323E"/>
        <path d="M415.768 71.3902C416.966 71.3902 417.938 70.4179 417.938 69.2185C417.938 68.0192 416.966 67.0469 415.768 67.0469C414.57 67.0469 413.599 68.0192 413.599 69.2185C413.599 70.4179 414.57 71.3902 415.768 71.3902Z" fill="#2A323E"/>
        <path d="M415.769 82.1158C416.967 82.1158 417.938 81.1435 417.938 79.9441C417.938 78.7447 416.967 77.7725 415.769 77.7725C414.57 77.7725 413.599 78.7447 413.599 79.9441C413.599 81.1435 414.57 82.1158 415.769 82.1158Z" fill="#2A323E"/>
        <path d="M415.769 92.8462C416.967 92.8462 417.938 91.8739 417.938 90.6746C417.938 89.4752 416.967 88.5029 415.769 88.5029C414.57 88.5029 413.599 89.4752 413.599 90.6746C413.599 91.8739 414.57 92.8462 415.769 92.8462Z" fill="#2A323E"/>
        <path d="M415.768 103.575C416.966 103.575 417.938 102.603 417.938 101.404C417.938 100.204 416.966 99.2319 415.768 99.2319C414.57 99.2319 413.599 100.204 413.599 101.404C413.599 102.603 414.57 103.575 415.768 103.575Z" fill="#2A323E"/>
        <path d="M415.769 114.303C416.967 114.303 417.938 113.331 417.938 112.132C417.938 110.932 416.967 109.96 415.769 109.96C414.57 109.96 413.599 110.932 413.599 112.132C413.599 113.331 414.57 114.303 415.769 114.303Z" fill="#2A323E"/>
        <path d="M415.769 125.027C416.967 125.027 417.938 124.055 417.938 122.856C417.938 121.656 416.967 120.684 415.769 120.684C414.57 120.684 413.599 121.656 413.599 122.856C413.599 124.055 414.57 125.027 415.769 125.027Z" fill="#2A323E"/>
        <path d="M415.769 135.759C416.967 135.759 417.938 134.787 417.938 133.587C417.938 132.388 416.967 131.416 415.769 131.416C414.57 131.416 413.599 132.388 413.599 133.587C413.599 134.787 414.57 135.759 415.769 135.759Z" fill="#2A323E"/>
        <path d="M415.769 146.484C416.967 146.484 417.938 145.512 417.938 144.312C417.938 143.113 416.967 142.141 415.769 142.141C414.57 142.141 413.599 143.113 413.599 144.312C413.599 145.512 414.57 146.484 415.769 146.484Z" fill="#2A323E"/>
        <path d="M415.769 157.214C416.967 157.214 417.938 156.242 417.938 155.042C417.938 153.843 416.967 152.871 415.769 152.871C414.57 152.871 413.599 153.843 413.599 155.042C413.599 156.242 414.57 157.214 415.769 157.214Z" fill="#2A323E"/>
        <path d="M415.769 167.939C416.967 167.939 417.938 166.967 417.938 165.767C417.938 164.568 416.967 163.596 415.769 163.596C414.57 163.596 413.599 164.568 413.599 165.767C413.599 166.967 414.57 167.939 415.769 167.939Z" fill="#2A323E"/>
        <path d="M415.769 178.668C416.967 178.668 417.938 177.696 417.938 176.497C417.938 175.297 416.967 174.325 415.769 174.325C414.57 174.325 413.599 175.297 413.599 176.497C413.599 177.696 414.57 178.668 415.769 178.668Z" fill="#2A323E"/>
        <path d="M415.769 189.398C416.967 189.398 417.938 188.425 417.938 187.226C417.938 186.026 416.967 185.054 415.769 185.054C414.57 185.054 413.599 186.026 413.599 187.226C413.599 188.425 414.57 189.398 415.769 189.398Z" fill="#2A323E"/>
        <path d="M415.769 200.128C416.967 200.128 417.938 199.156 417.938 197.956C417.938 196.757 416.967 195.785 415.769 195.785C414.57 195.785 413.599 196.757 413.599 197.956C413.599 199.156 414.57 200.128 415.769 200.128Z" fill="#2A323E"/>
        <path d="M415.768 210.853C416.966 210.853 417.938 209.881 417.938 208.681C417.938 207.482 416.966 206.51 415.768 206.51C414.57 206.51 413.599 207.482 413.599 208.681C413.599 209.881 414.57 210.853 415.768 210.853Z" fill="#2A323E"/>
        <path d="M405.051 60.6612C406.249 60.6612 407.22 59.6889 407.22 58.4895C407.22 57.2902 406.249 56.3179 405.051 56.3179C403.853 56.3179 402.881 57.2902 402.881 58.4895C402.881 59.6889 403.853 60.6612 405.051 60.6612Z" fill="#2A323E"/>
        <path d="M405.05 71.3902C406.248 71.3902 407.219 70.4179 407.219 69.2185C407.219 68.0192 406.248 67.0469 405.05 67.0469C403.852 67.0469 402.88 68.0192 402.88 69.2185C402.88 70.4179 403.852 71.3902 405.05 71.3902Z" fill="#2A323E"/>
        <path d="M405.05 82.1158C406.248 82.1158 407.22 81.1435 407.22 79.9441C407.22 78.7447 406.248 77.7725 405.05 77.7725C403.852 77.7725 402.881 78.7447 402.881 79.9441C402.881 81.1435 403.852 82.1158 405.05 82.1158Z" fill="#2A323E"/>
        <path d="M405.051 92.8462C406.249 92.8462 407.22 91.8739 407.22 90.6746C407.22 89.4752 406.249 88.5029 405.051 88.5029C403.853 88.5029 402.881 89.4752 402.881 90.6746C402.881 91.8739 403.853 92.8462 405.051 92.8462Z" fill="#2A323E"/>
        <path d="M405.05 103.575C406.248 103.575 407.22 102.603 407.22 101.404C407.22 100.204 406.248 99.2319 405.05 99.2319C403.852 99.2319 402.881 100.204 402.881 101.404C402.881 102.603 403.852 103.575 405.05 103.575Z" fill="#2A323E"/>
        <path d="M405.05 114.303C406.248 114.303 407.22 113.331 407.22 112.132C407.22 110.932 406.248 109.96 405.05 109.96C403.852 109.96 402.881 110.932 402.881 112.132C402.881 113.331 403.852 114.303 405.05 114.303Z" fill="#2A323E"/>
        <path d="M405.051 125.027C406.249 125.027 407.22 124.055 407.22 122.856C407.22 121.656 406.249 120.684 405.051 120.684C403.853 120.684 402.881 121.656 402.881 122.856C402.881 124.055 403.853 125.027 405.051 125.027Z" fill="#2A323E"/>
        <path d="M405.051 135.759C406.249 135.759 407.22 134.787 407.22 133.587C407.22 132.388 406.249 131.416 405.051 131.416C403.853 131.416 402.881 132.388 402.881 133.587C402.881 134.787 403.853 135.759 405.051 135.759Z" fill="#2A323E"/>
        <path d="M405.05 146.484C406.248 146.484 407.22 145.512 407.22 144.312C407.22 143.113 406.248 142.141 405.05 142.141C403.852 142.141 402.881 143.113 402.881 144.312C402.881 145.512 403.852 146.484 405.05 146.484Z" fill="#2A323E"/>
        <path d="M405.051 157.214C406.249 157.214 407.22 156.242 407.22 155.042C407.22 153.843 406.249 152.871 405.051 152.871C403.853 152.871 402.881 153.843 402.881 155.042C402.881 156.242 403.853 157.214 405.051 157.214Z" fill="#2A323E"/>
        <path d="M405.051 167.939C406.249 167.939 407.22 166.967 407.22 165.767C407.22 164.568 406.249 163.596 405.051 163.596C403.853 163.596 402.881 164.568 402.881 165.767C402.881 166.967 403.853 167.939 405.051 167.939Z" fill="#2A323E"/>
        <path d="M405.05 178.668C406.248 178.668 407.22 177.696 407.22 176.497C407.22 175.297 406.248 174.325 405.05 174.325C403.852 174.325 402.881 175.297 402.881 176.497C402.881 177.696 403.852 178.668 405.05 178.668Z" fill="#2A323E"/>
        <path d="M405.051 189.398C406.249 189.398 407.22 188.425 407.22 187.226C407.22 186.026 406.249 185.054 405.051 185.054C403.853 185.054 402.881 186.026 402.881 187.226C402.881 188.425 403.853 189.398 405.051 189.398Z" fill="#2A323E"/>
        <path d="M405.051 200.128C406.249 200.128 407.22 199.156 407.22 197.956C407.22 196.757 406.249 195.785 405.051 195.785C403.853 195.785 402.881 196.757 402.881 197.956C402.881 199.156 403.853 200.128 405.051 200.128Z" fill="#2A323E"/>
        <path d="M405.05 210.853C406.248 210.853 407.219 209.881 407.219 208.681C407.219 207.482 406.248 206.51 405.05 206.51C403.852 206.51 402.88 207.482 402.88 208.681C402.88 209.881 403.852 210.853 405.05 210.853Z" fill="#2A323E"/>
        <path d="M394.332 60.6612C395.53 60.6612 396.502 59.6889 396.502 58.4895C396.502 57.2902 395.53 56.3179 394.332 56.3179C393.134 56.3179 392.163 57.2902 392.163 58.4895C392.163 59.6889 393.134 60.6612 394.332 60.6612Z" fill="#2A323E"/>
        <path d="M394.332 71.3902C395.53 71.3902 396.502 70.4179 396.502 69.2185C396.502 68.0192 395.53 67.0469 394.332 67.0469C393.134 67.0469 392.163 68.0192 392.163 69.2185C392.163 70.4179 393.134 71.3902 394.332 71.3902Z" fill="#2A323E"/>
        <path d="M394.332 82.1158C395.53 82.1158 396.502 81.1435 396.502 79.9441C396.502 78.7447 395.53 77.7725 394.332 77.7725C393.134 77.7725 392.163 78.7447 392.163 79.9441C392.163 81.1435 393.134 82.1158 394.332 82.1158Z" fill="#2A323E"/>
        <path d="M394.332 92.8462C395.53 92.8462 396.502 91.8739 396.502 90.6746C396.502 89.4752 395.53 88.5029 394.332 88.5029C393.134 88.5029 392.163 89.4752 392.163 90.6746C392.163 91.8739 393.134 92.8462 394.332 92.8462Z" fill="#2A323E"/>
        <path d="M394.332 103.575C395.53 103.575 396.501 102.603 396.501 101.404C396.501 100.204 395.53 99.2319 394.332 99.2319C393.133 99.2319 392.162 100.204 392.162 101.404C392.162 102.603 393.133 103.575 394.332 103.575Z" fill="#2A323E"/>
        <path d="M394.332 114.303C395.53 114.303 396.502 113.331 396.502 112.132C396.502 110.932 395.53 109.96 394.332 109.96C393.134 109.96 392.163 110.932 392.163 112.132C392.163 113.331 393.134 114.303 394.332 114.303Z" fill="#2A323E"/>
        <path d="M394.332 125.027C395.53 125.027 396.502 124.055 396.502 122.856C396.502 121.656 395.53 120.684 394.332 120.684C393.134 120.684 392.163 121.656 392.163 122.856C392.163 124.055 393.134 125.027 394.332 125.027Z" fill="#2A323E"/>
        <path d="M394.332 135.759C395.53 135.759 396.502 134.787 396.502 133.587C396.502 132.388 395.53 131.416 394.332 131.416C393.134 131.416 392.163 132.388 392.163 133.587C392.163 134.787 393.134 135.759 394.332 135.759Z" fill="#2A323E"/>
        <path d="M394.332 146.484C395.53 146.484 396.502 145.512 396.502 144.312C396.502 143.113 395.53 142.141 394.332 142.141C393.134 142.141 392.163 143.113 392.163 144.312C392.163 145.512 393.134 146.484 394.332 146.484Z" fill="#2A323E"/>
        <path d="M394.332 157.214C395.53 157.214 396.502 156.242 396.502 155.042C396.502 153.843 395.53 152.871 394.332 152.871C393.134 152.871 392.163 153.843 392.163 155.042C392.163 156.242 393.134 157.214 394.332 157.214Z" fill="#2A323E"/>
        <path d="M394.332 167.939C395.53 167.939 396.502 166.967 396.502 165.767C396.502 164.568 395.53 163.596 394.332 163.596C393.134 163.596 392.163 164.568 392.163 165.767C392.163 166.967 393.134 167.939 394.332 167.939Z" fill="#2A323E"/>
        <path d="M394.332 178.668C395.53 178.668 396.502 177.696 396.502 176.497C396.502 175.297 395.53 174.325 394.332 174.325C393.134 174.325 392.163 175.297 392.163 176.497C392.163 177.696 393.134 178.668 394.332 178.668Z" fill="#2A323E"/>
        <path d="M394.332 189.398C395.53 189.398 396.502 188.425 396.502 187.226C396.502 186.026 395.53 185.054 394.332 185.054C393.134 185.054 392.163 186.026 392.163 187.226C392.163 188.425 393.134 189.398 394.332 189.398Z" fill="#2A323E"/>
        <path d="M394.332 200.128C395.53 200.128 396.502 199.156 396.502 197.956C396.502 196.757 395.53 195.785 394.332 195.785C393.134 195.785 392.163 196.757 392.163 197.956C392.163 199.156 393.134 200.128 394.332 200.128Z" fill="#2A323E"/>
        <path d="M394.332 210.853C395.53 210.853 396.501 209.881 396.501 208.681C396.501 207.482 395.53 206.51 394.332 206.51C393.133 206.51 392.162 207.482 392.162 208.681C392.162 209.881 393.133 210.853 394.332 210.853Z" fill="#2A323E"/>
        <path d="M383.616 60.6612C384.814 60.6612 385.785 59.6889 385.785 58.4895C385.785 57.2902 384.814 56.3179 383.616 56.3179C382.418 56.3179 381.446 57.2902 381.446 58.4895C381.446 59.6889 382.418 60.6612 383.616 60.6612Z" fill="#2A323E"/>
        <path d="M383.616 71.3902C384.814 71.3902 385.785 70.4179 385.785 69.2185C385.785 68.0192 384.814 67.0469 383.616 67.0469C382.418 67.0469 381.446 68.0192 381.446 69.2185C381.446 70.4179 382.418 71.3902 383.616 71.3902Z" fill="#2A323E"/>
        <path d="M383.616 82.1158C384.814 82.1158 385.785 81.1435 385.785 79.9441C385.785 78.7447 384.814 77.7725 383.616 77.7725C382.418 77.7725 381.446 78.7447 381.446 79.9441C381.446 81.1435 382.418 82.1158 383.616 82.1158Z" fill="#2A323E"/>
        <path d="M383.616 92.8462C384.814 92.8462 385.785 91.8739 385.785 90.6746C385.785 89.4752 384.814 88.5029 383.616 88.5029C382.418 88.5029 381.446 89.4752 381.446 90.6746C381.446 91.8739 382.418 92.8462 383.616 92.8462Z" fill="#2A323E"/>
        <path d="M383.616 103.575C384.814 103.575 385.785 102.603 385.785 101.404C385.785 100.204 384.814 99.2319 383.616 99.2319C382.418 99.2319 381.446 100.204 381.446 101.404C381.446 102.603 382.418 103.575 383.616 103.575Z" fill="#2A323E"/>
        <path d="M383.616 114.303C384.814 114.303 385.785 113.331 385.785 112.132C385.785 110.932 384.814 109.96 383.616 109.96C382.418 109.96 381.446 110.932 381.446 112.132C381.446 113.331 382.418 114.303 383.616 114.303Z" fill="#2A323E"/>
        <path d="M383.616 125.027C384.814 125.027 385.785 124.055 385.785 122.856C385.785 121.656 384.814 120.684 383.616 120.684C382.418 120.684 381.446 121.656 381.446 122.856C381.446 124.055 382.418 125.027 383.616 125.027Z" fill="#2A323E"/>
        <path d="M383.616 135.759C384.814 135.759 385.785 134.787 385.785 133.587C385.785 132.388 384.814 131.416 383.616 131.416C382.418 131.416 381.446 132.388 381.446 133.587C381.446 134.787 382.418 135.759 383.616 135.759Z" fill="#2A323E"/>
        <path d="M383.616 146.484C384.814 146.484 385.785 145.512 385.785 144.312C385.785 143.113 384.814 142.141 383.616 142.141C382.418 142.141 381.446 143.113 381.446 144.312C381.446 145.512 382.418 146.484 383.616 146.484Z" fill="#2A323E"/>
        <path d="M383.616 157.214C384.814 157.214 385.785 156.242 385.785 155.042C385.785 153.843 384.814 152.871 383.616 152.871C382.418 152.871 381.446 153.843 381.446 155.042C381.446 156.242 382.418 157.214 383.616 157.214Z" fill="#2A323E"/>
        <path d="M383.616 167.939C384.814 167.939 385.785 166.967 385.785 165.767C385.785 164.568 384.814 163.596 383.616 163.596C382.418 163.596 381.446 164.568 381.446 165.767C381.446 166.967 382.418 167.939 383.616 167.939Z" fill="#2A323E"/>
        <path d="M383.616 178.668C384.814 178.668 385.785 177.696 385.785 176.497C385.785 175.297 384.814 174.325 383.616 174.325C382.418 174.325 381.446 175.297 381.446 176.497C381.446 177.696 382.418 178.668 383.616 178.668Z" fill="#2A323E"/>
        <path d="M383.616 189.398C384.814 189.398 385.785 188.425 385.785 187.226C385.785 186.026 384.814 185.054 383.616 185.054C382.418 185.054 381.446 186.026 381.446 187.226C381.446 188.425 382.418 189.398 383.616 189.398Z" fill="#2A323E"/>
        <path d="M383.616 200.128C384.814 200.128 385.785 199.156 385.785 197.956C385.785 196.757 384.814 195.785 383.616 195.785C382.418 195.785 381.446 196.757 381.446 197.956C381.446 199.156 382.418 200.128 383.616 200.128Z" fill="#2A323E"/>
        <path d="M383.616 210.853C384.814 210.853 385.785 209.881 385.785 208.681C385.785 207.482 384.814 206.51 383.616 206.51C382.418 206.51 381.446 207.482 381.446 208.681C381.446 209.881 382.418 210.853 383.616 210.853Z" fill="#2A323E"/>
        <path d="M372.901 60.6612C374.099 60.6612 375.07 59.6889 375.07 58.4895C375.07 57.2902 374.099 56.3179 372.901 56.3179C371.703 56.3179 370.731 57.2902 370.731 58.4895C370.731 59.6889 371.703 60.6612 372.901 60.6612Z" fill="#2A323E"/>
        <path d="M372.901 71.3902C374.099 71.3902 375.07 70.4179 375.07 69.2185C375.07 68.0192 374.099 67.0469 372.901 67.0469C371.703 67.0469 370.731 68.0192 370.731 69.2185C370.731 70.4179 371.703 71.3902 372.901 71.3902Z" fill="#2A323E"/>
        <path d="M372.901 82.1158C374.099 82.1158 375.07 81.1435 375.07 79.9441C375.07 78.7447 374.099 77.7725 372.901 77.7725C371.703 77.7725 370.731 78.7447 370.731 79.9441C370.731 81.1435 371.703 82.1158 372.901 82.1158Z" fill="#2A323E"/>
        <path d="M372.901 92.8462C374.099 92.8462 375.07 91.8739 375.07 90.6746C375.07 89.4752 374.099 88.5029 372.901 88.5029C371.703 88.5029 370.731 89.4752 370.731 90.6746C370.731 91.8739 371.703 92.8462 372.901 92.8462Z" fill="#2A323E"/>
        <path d="M372.9 103.575C374.099 103.575 375.07 102.603 375.07 101.404C375.07 100.204 374.099 99.2319 372.9 99.2319C371.702 99.2319 370.731 100.204 370.731 101.404C370.731 102.603 371.702 103.575 372.9 103.575Z" fill="#2A323E"/>
        <path d="M372.901 114.303C374.099 114.303 375.07 113.331 375.07 112.132C375.07 110.932 374.099 109.96 372.901 109.96C371.703 109.96 370.731 110.932 370.731 112.132C370.731 113.331 371.703 114.303 372.901 114.303Z" fill="#2A323E"/>
        <path d="M372.901 125.027C374.099 125.027 375.07 124.055 375.07 122.856C375.07 121.656 374.099 120.684 372.901 120.684C371.703 120.684 370.731 121.656 370.731 122.856C370.731 124.055 371.703 125.027 372.901 125.027Z" fill="#2A323E"/>
        <path d="M372.901 135.759C374.099 135.759 375.07 134.787 375.07 133.587C375.07 132.388 374.099 131.416 372.901 131.416C371.703 131.416 370.731 132.388 370.731 133.587C370.731 134.787 371.703 135.759 372.901 135.759Z" fill="#2A323E"/>
        <path d="M372.901 146.484C374.099 146.484 375.07 145.512 375.07 144.312C375.07 143.113 374.099 142.141 372.901 142.141C371.703 142.141 370.731 143.113 370.731 144.312C370.731 145.512 371.703 146.484 372.901 146.484Z" fill="#2A323E"/>
        <path d="M372.901 157.214C374.099 157.214 375.07 156.242 375.07 155.042C375.07 153.843 374.099 152.871 372.901 152.871C371.703 152.871 370.731 153.843 370.731 155.042C370.731 156.242 371.703 157.214 372.901 157.214Z" fill="#2A323E"/>
        <path d="M372.901 167.939C374.099 167.939 375.07 166.967 375.07 165.767C375.07 164.568 374.099 163.596 372.901 163.596C371.703 163.596 370.731 164.568 370.731 165.767C370.731 166.967 371.703 167.939 372.901 167.939Z" fill="#2A323E"/>
        <path d="M372.901 178.668C374.099 178.668 375.07 177.696 375.07 176.497C375.07 175.297 374.099 174.325 372.901 174.325C371.703 174.325 370.731 175.297 370.731 176.497C370.731 177.696 371.703 178.668 372.901 178.668Z" fill="#2A323E"/>
        <path d="M372.901 189.398C374.099 189.398 375.07 188.425 375.07 187.226C375.07 186.026 374.099 185.054 372.901 185.054C371.703 185.054 370.731 186.026 370.731 187.226C370.731 188.425 371.703 189.398 372.901 189.398Z" fill="#2A323E"/>
        <path d="M372.901 200.128C374.099 200.128 375.07 199.156 375.07 197.956C375.07 196.757 374.099 195.785 372.901 195.785C371.703 195.785 370.731 196.757 370.731 197.956C370.731 199.156 371.703 200.128 372.901 200.128Z" fill="#2A323E"/>
        <path d="M372.9 210.853C374.099 210.853 375.07 209.881 375.07 208.681C375.07 207.482 374.099 206.51 372.9 206.51C371.702 206.51 370.731 207.482 370.731 208.681C370.731 209.881 371.702 210.853 372.9 210.853Z" fill="#2A323E"/>
        <path d="M362.183 60.6612C363.381 60.6612 364.352 59.6889 364.352 58.4895C364.352 57.2902 363.381 56.3179 362.183 56.3179C360.984 56.3179 360.013 57.2902 360.013 58.4895C360.013 59.6889 360.984 60.6612 362.183 60.6612Z" fill="#2A323E"/>
        <path d="M362.183 71.3902C363.381 71.3902 364.352 70.4179 364.352 69.2185C364.352 68.0192 363.381 67.0469 362.183 67.0469C360.984 67.0469 360.013 68.0192 360.013 69.2185C360.013 70.4179 360.984 71.3902 362.183 71.3902Z" fill="#2A323E"/>
        <path d="M362.183 82.1158C363.381 82.1158 364.352 81.1435 364.352 79.9441C364.352 78.7447 363.381 77.7725 362.183 77.7725C360.984 77.7725 360.013 78.7447 360.013 79.9441C360.013 81.1435 360.984 82.1158 362.183 82.1158Z" fill="#2A323E"/>
        <path d="M362.183 92.8462C363.381 92.8462 364.352 91.8739 364.352 90.6746C364.352 89.4752 363.381 88.5029 362.183 88.5029C360.984 88.5029 360.013 89.4752 360.013 90.6746C360.013 91.8739 360.984 92.8462 362.183 92.8462Z" fill="#2A323E"/>
        <path d="M362.181 103.575C363.379 103.575 364.351 102.603 364.351 101.404C364.351 100.204 363.379 99.2319 362.181 99.2319C360.983 99.2319 360.012 100.204 360.012 101.404C360.012 102.603 360.983 103.575 362.181 103.575Z" fill="#2A323E"/>
        <path d="M362.183 114.303C363.381 114.303 364.352 113.331 364.352 112.132C364.352 110.932 363.381 109.96 362.183 109.96C360.984 109.96 360.013 110.932 360.013 112.132C360.013 113.331 360.984 114.303 362.183 114.303Z" fill="#2A323E"/>
        <path d="M362.183 125.027C363.381 125.027 364.352 124.055 364.352 122.856C364.352 121.656 363.381 120.684 362.183 120.684C360.984 120.684 360.013 121.656 360.013 122.856C360.013 124.055 360.984 125.027 362.183 125.027Z" fill="#2A323E"/>
        <path d="M362.183 135.759C363.381 135.759 364.352 134.787 364.352 133.587C364.352 132.388 363.381 131.416 362.183 131.416C360.984 131.416 360.013 132.388 360.013 133.587C360.013 134.787 360.984 135.759 362.183 135.759Z" fill="#2A323E"/>
        <path d="M362.183 146.484C363.381 146.484 364.352 145.512 364.352 144.312C364.352 143.113 363.381 142.141 362.183 142.141C360.984 142.141 360.013 143.113 360.013 144.312C360.013 145.512 360.984 146.484 362.183 146.484Z" fill="#2A323E"/>
        <path d="M362.183 157.214C363.381 157.214 364.352 156.242 364.352 155.042C364.352 153.843 363.381 152.871 362.183 152.871C360.984 152.871 360.013 153.843 360.013 155.042C360.013 156.242 360.984 157.214 362.183 157.214Z" fill="#2A323E"/>
        <path d="M362.183 167.939C363.381 167.939 364.352 166.967 364.352 165.767C364.352 164.568 363.381 163.596 362.183 163.596C360.984 163.596 360.013 164.568 360.013 165.767C360.013 166.967 360.984 167.939 362.183 167.939Z" fill="#2A323E"/>
        <path d="M362.183 178.668C363.381 178.668 364.352 177.696 364.352 176.497C364.352 175.297 363.381 174.325 362.183 174.325C360.984 174.325 360.013 175.297 360.013 176.497C360.013 177.696 360.984 178.668 362.183 178.668Z" fill="#2A323E"/>
        <path d="M362.183 189.398C363.381 189.398 364.352 188.425 364.352 187.226C364.352 186.026 363.381 185.054 362.183 185.054C360.984 185.054 360.013 186.026 360.013 187.226C360.013 188.425 360.984 189.398 362.183 189.398Z" fill="#2A323E"/>
        <path d="M362.183 200.128C363.381 200.128 364.352 199.156 364.352 197.956C364.352 196.757 363.381 195.785 362.183 195.785C360.984 195.785 360.013 196.757 360.013 197.956C360.013 199.156 360.984 200.128 362.183 200.128Z" fill="#2A323E"/>
        <path d="M362.181 210.853C363.379 210.853 364.351 209.881 364.351 208.681C364.351 207.482 363.379 206.51 362.181 206.51C360.983 206.51 360.012 207.482 360.012 208.681C360.012 209.881 360.983 210.853 362.181 210.853Z" fill="#2A323E"/>
        <path d="M351.465 60.6612C352.663 60.6612 353.634 59.6889 353.634 58.4895C353.634 57.2902 352.663 56.3179 351.465 56.3179C350.267 56.3179 349.295 57.2902 349.295 58.4895C349.295 59.6889 350.267 60.6612 351.465 60.6612Z" fill="#2A323E"/>
        <path d="M351.465 71.3902C352.663 71.3902 353.634 70.4179 353.634 69.2185C353.634 68.0192 352.663 67.0469 351.465 67.0469C350.267 67.0469 349.295 68.0192 349.295 69.2185C349.295 70.4179 350.267 71.3902 351.465 71.3902Z" fill="#2A323E"/>
        <path d="M351.465 82.1158C352.663 82.1158 353.634 81.1435 353.634 79.9441C353.634 78.7447 352.663 77.7725 351.465 77.7725C350.267 77.7725 349.295 78.7447 349.295 79.9441C349.295 81.1435 350.267 82.1158 351.465 82.1158Z" fill="#2A323E"/>
        <path d="M351.465 92.8462C352.663 92.8462 353.634 91.8739 353.634 90.6746C353.634 89.4752 352.663 88.5029 351.465 88.5029C350.267 88.5029 349.295 89.4752 349.295 90.6746C349.295 91.8739 350.267 92.8462 351.465 92.8462Z" fill="#2A323E"/>
        <path d="M351.463 103.575C352.662 103.575 353.633 102.603 353.633 101.404C353.633 100.204 352.662 99.2319 351.463 99.2319C350.265 99.2319 349.294 100.204 349.294 101.404C349.294 102.603 350.265 103.575 351.463 103.575Z" fill="#2A323E"/>
        <path d="M351.465 114.303C352.663 114.303 353.634 113.331 353.634 112.132C353.634 110.932 352.663 109.96 351.465 109.96C350.267 109.96 349.295 110.932 349.295 112.132C349.295 113.331 350.267 114.303 351.465 114.303Z" fill="#2A323E"/>
        <path d="M351.465 125.027C352.663 125.027 353.634 124.055 353.634 122.856C353.634 121.656 352.663 120.684 351.465 120.684C350.267 120.684 349.295 121.656 349.295 122.856C349.295 124.055 350.267 125.027 351.465 125.027Z" fill="#2A323E"/>
        <path d="M351.465 135.759C352.663 135.759 353.634 134.787 353.634 133.587C353.634 132.388 352.663 131.416 351.465 131.416C350.267 131.416 349.295 132.388 349.295 133.587C349.295 134.787 350.267 135.759 351.465 135.759Z" fill="#2A323E"/>
        <path d="M351.465 146.484C352.663 146.484 353.634 145.512 353.634 144.312C353.634 143.113 352.663 142.141 351.465 142.141C350.267 142.141 349.295 143.113 349.295 144.312C349.295 145.512 350.267 146.484 351.465 146.484Z" fill="#2A323E"/>
        <path d="M351.465 157.214C352.663 157.214 353.634 156.242 353.634 155.042C353.634 153.843 352.663 152.871 351.465 152.871C350.267 152.871 349.295 153.843 349.295 155.042C349.295 156.242 350.267 157.214 351.465 157.214Z" fill="#2A323E"/>
        <path d="M351.465 167.939C352.663 167.939 353.634 166.967 353.634 165.767C353.634 164.568 352.663 163.596 351.465 163.596C350.267 163.596 349.295 164.568 349.295 165.767C349.295 166.967 350.267 167.939 351.465 167.939Z" fill="#2A323E"/>
        <path d="M351.465 178.668C352.663 178.668 353.634 177.696 353.634 176.497C353.634 175.297 352.663 174.325 351.465 174.325C350.267 174.325 349.295 175.297 349.295 176.497C349.295 177.696 350.267 178.668 351.465 178.668Z" fill="#2A323E"/>
        <path d="M351.465 189.398C352.663 189.398 353.634 188.425 353.634 187.226C353.634 186.026 352.663 185.054 351.465 185.054C350.267 185.054 349.295 186.026 349.295 187.226C349.295 188.425 350.267 189.398 351.465 189.398Z" fill="#2A323E"/>
        <path d="M351.465 200.128C352.663 200.128 353.634 199.156 353.634 197.956C353.634 196.757 352.663 195.785 351.465 195.785C350.267 195.785 349.295 196.757 349.295 197.956C349.295 199.156 350.267 200.128 351.465 200.128Z" fill="#2A323E"/>
        <path d="M351.463 210.853C352.662 210.853 353.633 209.881 353.633 208.681C353.633 207.482 352.662 206.51 351.463 206.51C350.265 206.51 349.294 207.482 349.294 208.681C349.294 209.881 350.265 210.853 351.463 210.853Z" fill="#2A323E"/>
        <path d="M340.75 60.6616C341.948 60.6616 342.919 59.6894 342.919 58.49C342.919 57.2906 341.948 56.3184 340.75 56.3184C339.551 56.3184 338.58 57.2906 338.58 58.49C338.58 59.6894 339.551 60.6616 340.75 60.6616Z" fill="#2A323E"/>
        <path d="M340.749 71.3902C341.947 71.3902 342.918 70.4179 342.918 69.2185C342.918 68.0192 341.947 67.0469 340.749 67.0469C339.55 67.0469 338.579 68.0192 338.579 69.2185C338.579 70.4179 339.55 71.3902 340.749 71.3902Z" fill="#2A323E"/>
        <path d="M340.749 82.1158C341.947 82.1158 342.918 81.1435 342.918 79.9441C342.918 78.7447 341.947 77.7725 340.749 77.7725C339.55 77.7725 338.579 78.7447 338.579 79.9441C338.579 81.1435 339.55 82.1158 340.749 82.1158Z" fill="#2A323E"/>
        <path d="M340.749 92.8462C341.947 92.8462 342.918 91.8739 342.918 90.6746C342.918 89.4752 341.947 88.5029 340.749 88.5029C339.55 88.5029 338.579 89.4752 338.579 90.6746C338.579 91.8739 339.55 92.8462 340.749 92.8462Z" fill="#2A323E"/>
        <path d="M340.748 103.575C341.946 103.575 342.917 102.603 342.917 101.404C342.917 100.204 341.946 99.2319 340.748 99.2319C339.549 99.2319 338.578 100.204 338.578 101.404C338.578 102.603 339.549 103.575 340.748 103.575Z" fill="#2A323E"/>
        <path d="M340.749 114.303C341.947 114.303 342.918 113.331 342.918 112.132C342.918 110.932 341.947 109.96 340.749 109.96C339.55 109.96 338.579 110.932 338.579 112.132C338.579 113.331 339.55 114.303 340.749 114.303Z" fill="#2A323E"/>
        <path d="M340.749 125.027C341.947 125.027 342.918 124.055 342.918 122.856C342.918 121.656 341.947 120.684 340.749 120.684C339.55 120.684 338.579 121.656 338.579 122.856C338.579 124.055 339.55 125.027 340.749 125.027Z" fill="#2A323E"/>
        <path d="M340.749 135.759C341.947 135.759 342.918 134.787 342.918 133.587C342.918 132.388 341.947 131.416 340.749 131.416C339.55 131.416 338.579 132.388 338.579 133.587C338.579 134.787 339.55 135.759 340.749 135.759Z" fill="#2A323E"/>
        <path d="M340.749 146.484C341.947 146.484 342.918 145.512 342.918 144.312C342.918 143.113 341.947 142.141 340.749 142.141C339.55 142.141 338.579 143.113 338.579 144.312C338.579 145.512 339.55 146.484 340.749 146.484Z" fill="#2A323E"/>
        <path d="M340.749 157.214C341.947 157.214 342.918 156.242 342.918 155.042C342.918 153.843 341.947 152.871 340.749 152.871C339.55 152.871 338.579 153.843 338.579 155.042C338.579 156.242 339.55 157.214 340.749 157.214Z" fill="#2A323E"/>
        <path d="M340.749 167.939C341.947 167.939 342.918 166.967 342.918 165.767C342.918 164.568 341.947 163.596 340.749 163.596C339.55 163.596 338.579 164.568 338.579 165.767C338.579 166.967 339.55 167.939 340.749 167.939Z" fill="#2A323E"/>
        <path d="M340.749 178.668C341.947 178.668 342.918 177.696 342.918 176.497C342.918 175.297 341.947 174.325 340.749 174.325C339.55 174.325 338.579 175.297 338.579 176.497C338.579 177.696 339.55 178.668 340.749 178.668Z" fill="#2A323E"/>
        <path d="M340.749 189.398C341.947 189.398 342.918 188.425 342.918 187.226C342.918 186.026 341.947 185.054 340.749 185.054C339.55 185.054 338.579 186.026 338.579 187.226C338.579 188.425 339.55 189.398 340.749 189.398Z" fill="#2A323E"/>
        <path d="M340.749 200.128C341.947 200.128 342.918 199.156 342.918 197.956C342.918 196.757 341.947 195.785 340.749 195.785C339.55 195.785 338.579 196.757 338.579 197.956C338.579 199.156 339.55 200.128 340.749 200.128Z" fill="#2A323E"/>
        <path d="M340.748 210.853C341.946 210.853 342.917 209.881 342.917 208.681C342.917 207.482 341.946 206.51 340.748 206.51C339.549 206.51 338.578 207.482 338.578 208.681C338.578 209.881 339.549 210.853 340.748 210.853Z" fill="#2A323E"/>
        <path d="M408.871 167.814C365.48 167.814 330.323 132.689 330.323 89.3369C330.323 45.9852 365.48 10.8599 408.871 10.8599C452.261 10.8599 487.418 45.9852 487.418 89.3369C487.418 132.689 452.261 167.814 408.871 167.814Z" fill="#82FDE6"/>
        <path d="M408.871 169.991C364.347 169.991 328.145 133.821 328.145 89.3374C328.145 44.854 364.347 8.68408 408.871 8.68408C453.394 8.68408 489.596 44.854 489.596 89.3374C489.596 133.821 453.394 169.991 408.871 169.991ZM408.871 13.0367C366.744 13.0367 332.502 47.248 332.502 89.3374C332.502 131.427 366.744 165.638 408.871 165.638C450.998 165.638 485.24 131.427 485.24 89.3374C485.24 47.248 450.998 13.0367 408.871 13.0367Z" fill="#2A323E"/>
        <path d="M408.871 166.204C365.48 166.204 330.323 131.079 330.323 87.7271C330.323 44.3753 365.48 9.25 408.871 9.25C452.261 9.25 487.418 44.3753 487.418 87.7271C487.418 131.079 452.261 166.204 408.871 166.204Z" fill="#82FDE6"/>
        <path d="M408.872 168.38C364.349 168.38 328.146 132.21 328.146 87.7266C328.146 43.2432 364.349 7.07324 408.872 7.07324C453.396 7.07324 489.598 43.2432 489.598 87.7266C489.598 132.21 453.396 168.38 408.872 168.38ZM408.872 11.4258C366.745 11.4258 332.503 45.6371 332.503 87.7266C332.503 129.816 366.745 164.027 408.872 164.027C450.999 164.027 485.241 129.816 485.241 87.7266C485.241 45.6371 450.999 11.4258 408.872 11.4258Z" fill="#2A323E"/>
        <path d="M382.122 76.2805L407.738 112.015L442.546 69.0552" fill="#82FDE6"/>
        <path d="M407.738 116.369C407.694 116.369 407.651 116.369 407.607 116.369C406.257 116.325 404.993 115.672 404.209 114.54L378.593 78.8057C377.199 76.8471 377.635 74.1485 379.595 72.7121C381.556 71.3193 384.257 71.7546 385.694 73.7132L407.999 104.791L439.192 66.2703C440.717 64.3987 443.461 64.094 445.335 65.6174C447.208 67.1408 447.513 69.883 445.988 71.7546L411.18 114.715C410.308 115.759 409.045 116.369 407.738 116.369Z" fill="#2A323E"/>
        <path d="M122.683 169.309H192.466V165.436H124.617V124.508H120.749V167.411C120.749 168.457 121.6 169.309 122.683 169.309Z" fill="#2A323E"/>
        <path d="M350.064 282.732H62.3643C62.3643 282.732 141.289 256.119 156.774 214.326C159.648 206.576 161.627 199.242 163 192.196C170.631 153.03 223.248 147.457 238.286 184.254C249.077 210.739 260.731 232.932 288.859 243.373C320.946 255.35 339.496 270.466 350.064 282.732Z" fill="#5B6C84"/>
        <path d="M350.064 284.334H62.3645C61.5982 284.334 60.9277 283.757 60.8 282.989C60.6723 282.22 61.1193 281.452 61.8536 281.227C62.0452 281.163 81.7445 274.47 103.04 262.781C122.548 252.084 147.452 234.887 155.274 213.782C157.956 206.545 159.967 199.403 161.436 191.909C165.076 173.174 179.411 159.948 197.993 158.09C206.55 157.258 214.915 158.987 222.162 163.118C230.016 167.602 236.115 174.679 239.754 183.614C244.703 195.752 250.386 208.434 258.336 218.81C266.606 229.603 276.759 237.129 289.402 241.836C304.184 247.345 317.307 254.006 328.417 261.596C337.389 267.713 345.052 274.47 351.246 281.676C351.661 282.156 351.757 282.829 351.501 283.373C351.246 283.917 350.703 284.334 350.064 284.334ZM71.2404 281.131H346.488C329.471 262.813 305.653 251.348 288.316 244.879C258.879 233.958 247.162 210.259 236.817 184.863C233.433 176.601 227.813 170.036 220.598 165.937C213.925 162.126 206.198 160.524 198.312 161.325C190.426 162.094 182.891 165.328 177.017 170.388C170.599 175.96 166.289 183.614 164.565 192.517C163.064 200.172 161.021 207.505 158.275 214.903C154.635 224.703 147.324 234.438 136.532 243.886C127.976 251.38 117.216 258.682 104.509 265.631C91.5144 272.741 79.0626 278.025 71.2404 281.131Z" fill="#5B6C84"/>
        <path d="M482.59 247.93H476.487V268.029H482.59V247.93Z" fill="#2A323E"/>
        <path d="M489.608 254.956H469.529V261.065H489.608V254.956Z" fill="#2A323E"/>
        <path d="M122.683 124.471C93.8851 124.471 70.5393 101.102 70.5393 72.2742C70.5393 43.4468 93.8851 20.0776 122.683 20.0776C151.482 20.0776 174.828 43.4468 174.828 72.2742C174.828 101.102 151.482 124.471 122.683 124.471Z" fill="#DCE0E8"/>
        <path d="M122.684 126.444C152.509 126.444 176.763 102.166 176.763 72.3113C176.763 42.4571 152.509 18.1787 122.684 18.1787C92.8601 18.1787 68.6061 42.4571 68.6061 72.3113C68.5675 102.127 92.8601 126.444 122.684 126.444ZM122.684 22.0121C150.381 22.0121 172.894 44.548 172.894 72.2726C172.894 99.9972 150.381 122.533 122.684 122.533C94.9877 122.533 72.4744 99.9972 72.4744 72.2726C72.4744 44.548 94.9877 22.0121 122.684 22.0121Z" fill="#2A323E"/>
        <path d="M122.682 71.4592C115.162 71.4592 109.066 65.3568 109.066 57.8292C109.066 50.3016 115.162 44.1992 122.682 44.1992C130.202 44.1992 136.298 50.3016 136.298 57.8292C136.298 65.3568 130.202 71.4592 122.682 71.4592Z" fill="white"/>
        <path d="M122.683 73.3958C131.231 73.3958 138.233 66.4259 138.233 57.8297C138.233 49.2723 131.27 42.2637 122.683 42.2637C114.134 42.2637 107.132 49.2335 107.132 57.8297C107.132 66.4259 114.095 73.3958 122.683 73.3958ZM122.683 46.1745C129.104 46.1745 134.365 51.4019 134.365 57.8684C134.365 64.3349 129.143 69.5623 122.683 69.5623C116.261 69.5623 111 64.3349 111 57.8684C111 51.4019 116.223 46.1745 122.683 46.1745Z" fill="#2A323E"/>
        <path d="M101.253 98.0227H144.074V92.9115C144.074 81.0627 134.481 71.4985 122.683 71.4985C110.846 71.4985 101.291 81.1015 101.291 92.9115L101.253 98.0227Z" fill="white"/>
        <path d="M101.253 99.9589H144.074C145.157 99.9589 146.008 99.107 146.008 98.0228V92.9116C146.008 80.0173 135.525 69.5625 122.683 69.5625C109.84 69.5625 99.3571 80.056 99.3571 92.9116V98.0228C99.3184 99.0683 100.208 99.9589 101.253 99.9589ZM142.14 96.0867H103.187V92.9116C103.187 82.147 111.929 73.4346 122.644 73.4346C133.398 73.4346 142.101 82.1857 142.101 92.9116L142.14 96.0867Z" fill="#2A323E"/>
        <path d="M88.2944 279.161C69.8147 279.161 54.834 264.165 54.834 245.667C54.834 227.169 69.8147 212.173 88.2944 212.173C106.774 212.173 121.755 227.169 121.755 245.667C121.755 264.165 106.774 279.161 88.2944 279.161Z" fill="#82FDE6"/>
        <path d="M88.2949 281.099C107.83 281.099 123.689 265.184 123.689 245.668C123.689 226.153 107.791 210.238 88.2949 210.238C68.7989 210.238 52.9003 226.153 52.9003 245.668C52.9003 265.184 68.7602 281.099 88.2949 281.099ZM88.2949 214.072C105.702 214.072 119.821 228.244 119.821 245.63C119.821 263.016 105.663 277.188 88.2949 277.188C70.8877 277.188 56.7686 263.016 56.7686 245.63C56.7686 228.244 70.8877 214.072 88.2949 214.072Z" fill="#2A323E"/>
        <path d="M88.2958 245.127C83.4676 245.127 79.5536 241.209 79.5536 236.376C79.5536 231.542 83.4676 227.625 88.2958 227.625C93.1241 227.625 97.0381 231.542 97.0381 236.376C97.0381 241.209 93.1241 245.127 88.2958 245.127Z" fill="white"/>
        <path d="M88.2958 247.063C94.1755 247.063 98.9722 242.261 98.9722 236.376C98.9722 230.49 94.1755 225.688 88.2958 225.688C82.416 225.688 77.6194 230.49 77.6194 236.376C77.6194 242.261 82.416 247.063 88.2958 247.063ZM88.2958 229.599C92.048 229.599 95.1039 232.658 95.1039 236.414C95.1039 240.17 92.048 243.229 88.2958 243.229C84.5436 243.229 81.4877 240.17 81.4877 236.414C81.4877 232.62 84.5436 229.599 88.2958 229.599Z" fill="#2A323E"/>
        <path d="M74.5251 262.164H101.99V258.873C101.99 251.284 95.8392 245.127 88.2574 245.127C80.6756 245.127 74.5251 251.284 74.5251 258.873V262.164Z" fill="white"/>
        <path d="M74.5241 264.1H101.989C103.072 264.1 103.923 263.248 103.923 262.163V258.872C103.923 250.237 96.8826 243.19 88.2564 243.19C79.6302 243.19 72.59 250.237 72.59 258.872V262.163C72.59 263.248 73.4797 264.1 74.5241 264.1ZM100.093 260.227H76.4969V258.872C76.4969 252.367 81.7964 247.062 88.2951 247.062C94.7938 247.062 100.093 252.367 100.093 258.872V260.227Z" fill="#2A323E"/>
        <path d="M86.3611 212.135H90.2294V169.309H122.684V165.437H88.2952C87.2121 165.437 86.3611 166.289 86.3611 167.373V212.135Z" fill="#2A323E"/>
        <path d="M122.685 171.748C120.27 171.748 118.313 169.789 118.313 167.373C118.313 164.956 120.27 162.997 122.685 162.997C125.099 162.997 127.056 164.956 127.056 167.373C127.056 169.789 125.099 171.748 122.685 171.748Z" fill="#2A323E"/>
        <path d="M122.684 173.685C126.165 173.685 128.989 170.858 128.989 167.373C128.989 163.888 126.165 161.062 122.684 161.062C119.203 161.062 116.379 163.888 116.379 167.373C116.379 170.858 119.203 173.685 122.684 173.685ZM122.684 164.934C124.038 164.934 125.121 166.018 125.121 167.373C125.121 168.728 124.038 169.813 122.684 169.813C121.33 169.813 120.247 168.728 120.247 167.373C120.247 166.018 121.33 164.934 122.684 164.934Z" fill="#2A323E"/>
        <path d="M88.2954 171.748C85.8812 171.748 83.9242 169.789 83.9242 167.373C83.9242 164.956 85.8812 162.997 88.2954 162.997C90.7095 162.997 92.6665 164.956 92.6665 167.373C92.6665 169.789 90.7095 171.748 88.2954 171.748Z" fill="#2A323E"/>
        <path d="M88.2943 173.685C91.7758 173.685 94.5996 170.858 94.5996 167.373C94.5996 163.888 91.7758 161.062 88.2943 161.062C84.8129 161.062 81.9891 163.888 81.9891 167.373C81.9891 170.858 84.8129 173.685 88.2943 173.685ZM88.2943 164.934C89.6482 164.934 90.7314 166.018 90.7314 167.373C90.7314 168.728 89.6482 169.813 88.2943 169.813C86.9404 169.813 85.8574 168.728 85.8574 167.373C85.8574 166.018 86.9404 164.934 88.2943 164.934Z" fill="#2A323E"/>
        <path d="M153.107 0.688375C152.95 -0.261623 152.122 -0.974121 151.175 -0.974121H1.97151C0.867464 -0.974121 0 -0.10329 0 1.00504V117.063C0 117.617 0.236581 118.171 0.670313 118.567C1.02519 118.884 1.49835 119.042 1.97151 119.042C2.05037 119.042 2.12923 119.042 2.20809 119.042C48.4597 113.184 62.418 90.1069 77.2043 65.6841C84.2623 54.007 91.5964 41.9341 102.795 30.9696C115.452 18.58 131.5 9.39669 151.767 2.94462C152.713 2.58837 153.265 1.67796 153.107 0.688375Z" fill="#2A323E"/>
        <path d="M173.764 31.6982H165.673V58.3418H173.764V31.6982Z" fill="#2A323E"/>
        <path d="M183.066 41.0103H156.45V49.1086H183.066V41.0103Z" fill="#2A323E"/>
    </g>
</svg>
