<svg width="460" height="250" viewBox="0 0 460 250" fill="none" xmlns="http://www.w3.org/2000/svg">
    <mask id="mask0" mask-type="alpha" maskUnits="userSpaceOnUse" x="0" y="0" width="460" height="250">
        <path d="M460 0H0V250H460V0Z" fill="#5B6C84"/>
    </mask>
    <g mask="url(#mask0)">
        <path d="M462 206.522V250H418C418 225.971 437.683 206.522 462 206.522Z" fill="#5B6C84"/>
        <path d="M203.869 31.6281C202.756 32.8004 201.711 34.0654 200.732 35.4231C196.604 41.1453 193.918 48.3559 192.933 56.2567C192.857 56.8596 193.308 57.4304 193.919 57.5063C194.529 57.5823 195.106 57.1378 195.182 56.5349C196.098 48.9997 198.653 42.1566 202.567 36.7256C206.19 31.6986 210.849 27.9987 216.061 26.0044C219.52 24.6807 223.054 24.1922 226.487 24.497C224.545 26.6747 222.784 29.0523 221.239 31.6287C218.693 35.8796 218.772 41.1241 221.454 45.2925C224.135 49.4293 228.882 51.7164 233.823 51.216C239.148 50.7038 243.448 47.2521 245.071 42.2079C246.679 37.18 245.177 31.9321 241.127 28.4855C238.065 25.8619 234.645 24.0394 231.061 23.0439C238.371 16.3226 247.836 12.3636 258.279 11.8513C264.043 11.5626 269.7 12.3676 274.655 14.1742C279.512 15.9522 283.342 18.5837 285.752 21.7649C286.12 22.2592 286.827 22.3638 287.327 22.0007C287.827 21.6375 287.931 20.9389 287.563 20.4446C282.141 13.2475 270.611 8.98901 258.172 9.61043C246.611 10.1889 236.239 14.7449 228.402 22.4465C224.093 21.7579 219.613 22.1966 215.223 23.881C211.055 25.527 207.176 28.1439 203.869 31.6281ZM240.47 45.7163C238.723 47.5561 236.316 48.7526 233.622 49.0097C229.46 49.4069 225.641 47.5811 223.382 44.1108C221.122 40.6089 221.045 36.3759 223.197 32.8009C224.94 29.9181 226.948 27.28 229.205 24.9345C232.942 25.7357 236.504 27.5063 239.665 30.2217C243.007 33.0738 244.256 37.4129 242.922 41.5631C242.415 43.1434 241.567 44.5603 240.47 45.7163Z" fill="#2A323E"/>
        <path d="M434.723 48.8248C439.247 63.7137 437.821 79.0003 431.808 92.1925C388.427 86.6361 368.237 50.8789 338.075 15.8847C343.455 12.1654 349.508 9.2179 356.151 7.24724C372.858 2.29072 390.014 4.47062 404.221 11.9883C418.428 19.5059 429.728 32.3843 434.723 48.8248Z" fill="#2A323E"/>
        <path d="M432.31 93.8435C432.075 93.9131 431.83 93.9498 431.599 93.9105C415.005 91.7793 400.798 85.3417 386.823 73.6525C374.457 63.2855 363.734 50.0199 352.404 35.9625C347.406 29.7437 342.247 23.3566 336.766 16.9932C336.434 16.6237 336.284 16.1285 336.365 15.6726C336.436 15.1837 336.704 14.7441 337.1 14.4827C342.742 10.5417 348.973 7.57748 355.649 5.59686C372.256 0.670198 389.792 2.41365 405.044 10.4847C420.297 18.5558 431.436 31.986 436.401 48.3275C440.865 63.0183 439.786 78.8493 433.414 92.904C433.189 93.3667 432.779 93.7041 432.31 93.8435ZM340.667 16.2316C345.719 22.1465 350.483 28.075 355.119 33.8253C377.427 61.5047 396.763 85.423 430.727 90.3183C436.323 77.3215 437.149 62.8251 433.046 49.3227C428.352 33.8726 417.823 21.1253 403.398 13.4923C388.973 5.85941 372.353 4.24023 356.652 8.89817C350.949 10.5902 345.587 13.0446 340.667 16.2316Z" fill="#2A323E"/>
        <path d="M268.121 241.185C229.414 241.185 198.053 210.195 198.053 171.948C198.053 133.7 229.414 102.711 268.121 102.711C306.827 102.711 338.188 133.7 338.188 171.948C338.227 210.195 306.827 241.185 268.121 241.185Z" fill="#2A323E"/>
        <path d="M268.12 243.105C228.404 243.105 196.109 211.194 196.109 171.948C196.109 132.702 228.404 100.791 268.12 100.791C307.837 100.791 340.131 132.702 340.131 171.948C340.131 190.918 332.67 208.774 319.107 222.215C305.466 235.694 287.396 243.105 268.12 243.105ZM268.12 104.631C230.541 104.631 199.996 134.814 199.996 171.948C199.996 209.082 230.541 239.265 268.12 239.265C286.346 239.265 303.485 232.237 316.348 219.527C329.211 206.816 336.284 189.92 336.245 171.948C336.245 134.814 305.7 104.631 268.12 104.631Z" fill="#2A323E"/>
        <path d="M308.48 96.1953C309.553 96.1953 310.423 95.3356 310.423 94.2752C310.423 93.2148 309.553 92.3552 308.48 92.3552C307.407 92.3552 306.537 93.2148 306.537 94.2752C306.537 95.3356 307.407 96.1953 308.48 96.1953Z" fill="#2A323E"/>
        <path d="M308.48 122.692C309.553 122.692 310.423 121.832 310.423 120.772C310.423 119.712 309.553 118.852 308.48 118.852C307.407 118.852 306.537 119.712 306.537 120.772C306.537 121.832 307.407 122.692 308.48 122.692Z" fill="#2A323E"/>
        <path d="M308.48 149.19C309.553 149.19 310.423 148.331 310.423 147.27C310.423 146.21 309.553 145.35 308.48 145.35C307.407 145.35 306.537 146.21 306.537 147.27C306.537 148.331 307.407 149.19 308.48 149.19Z" fill="#2A323E"/>
        <path d="M308.48 175.686C309.553 175.686 310.423 174.826 310.423 173.766C310.423 172.706 309.553 171.846 308.48 171.846C307.407 171.846 306.537 172.706 306.537 173.766C306.537 174.826 307.407 175.686 308.48 175.686Z" fill="#2A323E"/>
        <path d="M308.48 202.183C309.553 202.183 310.423 201.323 310.423 200.263C310.423 199.202 309.553 198.342 308.48 198.342C307.407 198.342 306.537 199.202 306.537 200.263C306.537 201.323 307.407 202.183 308.48 202.183Z" fill="#2A323E"/>
        <path d="M308.48 228.679C309.553 228.679 310.423 227.82 310.423 226.759C310.423 225.699 309.553 224.839 308.48 224.839C307.407 224.839 306.537 225.699 306.537 226.759C306.537 227.82 307.407 228.679 308.48 228.679Z" fill="#2A323E"/>
        <path d="M281.666 96.1953C282.739 96.1953 283.609 95.3356 283.609 94.2752C283.609 93.2148 282.739 92.3552 281.666 92.3552C280.593 92.3552 279.723 93.2148 279.723 94.2752C279.723 95.3356 280.593 96.1953 281.666 96.1953Z" fill="#2A323E"/>
        <path d="M281.666 122.692C282.739 122.692 283.609 121.832 283.609 120.772C283.609 119.712 282.739 118.852 281.666 118.852C280.593 118.852 279.723 119.712 279.723 120.772C279.723 121.832 280.593 122.692 281.666 122.692Z" fill="#2A323E"/>
        <path d="M281.666 149.19C282.739 149.19 283.609 148.331 283.609 147.27C283.609 146.21 282.739 145.35 281.666 145.35C280.593 145.35 279.723 146.21 279.723 147.27C279.723 148.331 280.593 149.19 281.666 149.19Z" fill="#2A323E"/>
        <path d="M281.666 175.686C282.739 175.686 283.609 174.826 283.609 173.766C283.609 172.706 282.739 171.846 281.666 171.846C280.593 171.846 279.723 172.706 279.723 173.766C279.723 174.826 280.593 175.686 281.666 175.686Z" fill="#2A323E"/>
        <path d="M281.666 202.183C282.739 202.183 283.609 201.323 283.609 200.263C283.609 199.202 282.739 198.342 281.666 198.342C280.593 198.342 279.723 199.202 279.723 200.263C279.723 201.323 280.593 202.183 281.666 202.183Z" fill="#2A323E"/>
        <path d="M281.666 228.679C282.739 228.679 283.609 227.82 283.609 226.759C283.609 225.699 282.739 224.839 281.666 224.839C280.593 224.839 279.723 225.699 279.723 226.759C279.723 227.82 280.593 228.679 281.666 228.679Z" fill="#2A323E"/>
        <path d="M254.851 96.1953C255.924 96.1953 256.794 95.3356 256.794 94.2752C256.794 93.2148 255.924 92.3552 254.851 92.3552C253.778 92.3552 252.908 93.2148 252.908 94.2752C252.908 95.3356 253.778 96.1953 254.851 96.1953Z" fill="#2A323E"/>
        <path d="M254.851 122.692C255.924 122.692 256.794 121.832 256.794 120.772C256.794 119.712 255.924 118.852 254.851 118.852C253.778 118.852 252.908 119.712 252.908 120.772C252.908 121.832 253.778 122.692 254.851 122.692Z" fill="#2A323E"/>
        <path d="M254.851 149.19C255.924 149.19 256.794 148.331 256.794 147.27C256.794 146.21 255.924 145.35 254.851 145.35C253.778 145.35 252.908 146.21 252.908 147.27C252.908 148.331 253.778 149.19 254.851 149.19Z" fill="#2A323E"/>
        <path d="M254.851 175.686C255.924 175.686 256.794 174.826 256.794 173.766C256.794 172.706 255.924 171.846 254.851 171.846C253.778 171.846 252.908 172.706 252.908 173.766C252.908 174.826 253.778 175.686 254.851 175.686Z" fill="#2A323E"/>
        <path d="M254.851 202.183C255.924 202.183 256.794 201.323 256.794 200.263C256.794 199.202 255.924 198.342 254.851 198.342C253.778 198.342 252.908 199.202 252.908 200.263C252.908 201.323 253.778 202.183 254.851 202.183Z" fill="#2A323E"/>
        <path d="M254.851 228.679C255.924 228.679 256.794 227.82 256.794 226.759C256.794 225.699 255.924 224.839 254.851 224.839C253.778 224.839 252.908 225.699 252.908 226.759C252.908 227.82 253.778 228.679 254.851 228.679Z" fill="#2A323E"/>
        <path d="M228.036 96.1953C229.109 96.1953 229.979 95.3356 229.979 94.2752C229.979 93.2148 229.109 92.3552 228.036 92.3552C226.963 92.3552 226.093 93.2148 226.093 94.2752C226.093 95.3356 226.963 96.1953 228.036 96.1953Z" fill="#2A323E"/>
        <path d="M228.036 122.692C229.109 122.692 229.979 121.832 229.979 120.772C229.979 119.712 229.109 118.852 228.036 118.852C226.963 118.852 226.093 119.712 226.093 120.772C226.093 121.832 226.963 122.692 228.036 122.692Z" fill="#2A323E"/>
        <path d="M228.036 149.19C229.109 149.19 229.979 148.331 229.979 147.27C229.979 146.21 229.109 145.35 228.036 145.35C226.963 145.35 226.093 146.21 226.093 147.27C226.093 148.331 226.963 149.19 228.036 149.19Z" fill="#2A323E"/>
        <path d="M228.036 175.686C229.109 175.686 229.979 174.826 229.979 173.766C229.979 172.706 229.109 171.846 228.036 171.846C226.963 171.846 226.093 172.706 226.093 173.766C226.093 174.826 226.963 175.686 228.036 175.686Z" fill="#2A323E"/>
        <path d="M228.036 202.183C229.109 202.183 229.979 201.323 229.979 200.263C229.979 199.202 229.109 198.342 228.036 198.342C226.963 198.342 226.093 199.202 226.093 200.263C226.093 201.323 226.963 202.183 228.036 202.183Z" fill="#2A323E"/>
        <path d="M228.036 228.679C229.109 228.679 229.979 227.82 229.979 226.759C229.979 225.699 229.109 224.839 228.036 224.839C226.963 224.839 226.093 225.699 226.093 226.759C226.093 227.82 226.963 228.679 228.036 228.679Z" fill="#2A323E"/>
        <path d="M201.222 96.1953C202.296 96.1953 203.165 95.3356 203.165 94.2752C203.165 93.2148 202.296 92.3552 201.222 92.3552C200.149 92.3552 199.279 93.2148 199.279 94.2752C199.279 95.3356 200.149 96.1953 201.222 96.1953Z" fill="#2A323E"/>
        <path d="M201.222 122.692C202.296 122.692 203.165 121.832 203.165 120.772C203.165 119.712 202.296 118.852 201.222 118.852C200.149 118.852 199.279 119.712 199.279 120.772C199.279 121.832 200.149 122.692 201.222 122.692Z" fill="#2A323E"/>
        <path d="M201.222 149.19C202.296 149.19 203.165 148.331 203.165 147.27C203.165 146.21 202.296 145.35 201.222 145.35C200.149 145.35 199.279 146.21 199.279 147.27C199.279 148.331 200.149 149.19 201.222 149.19Z" fill="#2A323E"/>
        <path d="M201.222 175.686C202.296 175.686 203.165 174.826 203.165 173.766C203.165 172.706 202.296 171.846 201.222 171.846C200.149 171.846 199.279 172.706 199.279 173.766C199.279 174.826 200.149 175.686 201.222 175.686Z" fill="#2A323E"/>
        <path d="M201.222 202.183C202.296 202.183 203.165 201.323 203.165 200.263C203.165 199.202 202.296 198.342 201.222 198.342C200.149 198.342 199.279 199.202 199.279 200.263C199.279 201.323 200.149 202.183 201.222 202.183Z" fill="#2A323E"/>
        <path d="M201.222 228.679C202.296 228.679 203.165 227.82 203.165 226.759C203.165 225.699 202.296 224.839 201.222 224.839C200.149 224.839 199.279 225.699 199.279 226.759C199.279 227.82 200.149 228.679 201.222 228.679Z" fill="#2A323E"/>
        <path d="M174.408 96.1955C175.481 96.1955 176.351 95.3359 176.351 94.2754C176.351 93.215 175.481 92.3554 174.408 92.3554C173.335 92.3554 172.465 93.215 172.465 94.2754C172.465 95.3359 173.335 96.1955 174.408 96.1955Z" fill="#2A323E"/>
        <path d="M174.407 122.692C175.48 122.692 176.35 121.832 176.35 120.772C176.35 119.712 175.48 118.852 174.407 118.852C173.334 118.852 172.464 119.712 172.464 120.772C172.464 121.832 173.334 122.692 174.407 122.692Z" fill="#2A323E"/>
        <path d="M174.407 149.19C175.48 149.19 176.35 148.331 176.35 147.27C176.35 146.21 175.48 145.35 174.407 145.35C173.334 145.35 172.464 146.21 172.464 147.27C172.464 148.331 173.334 149.19 174.407 149.19Z" fill="#2A323E"/>
        <path d="M174.407 175.686C175.48 175.686 176.35 174.826 176.35 173.766C176.35 172.706 175.48 171.846 174.407 171.846C173.334 171.846 172.464 172.706 172.464 173.766C172.464 174.826 173.334 175.686 174.407 175.686Z" fill="#2A323E"/>
        <path d="M174.407 202.183C175.48 202.183 176.35 201.323 176.35 200.263C176.35 199.202 175.48 198.342 174.407 198.342C173.334 198.342 172.464 199.202 172.464 200.263C172.464 201.323 173.334 202.183 174.407 202.183Z" fill="#2A323E"/>
        <path d="M174.408 228.679C175.481 228.679 176.351 227.82 176.351 226.759C176.351 225.699 175.481 224.839 174.408 224.839C173.335 224.839 172.465 225.699 172.465 226.759C172.465 227.82 173.335 228.679 174.408 228.679Z" fill="#2A323E"/>
        <path d="M268.12 243.105C228.404 243.105 196.109 211.194 196.109 171.948C196.109 132.702 228.404 100.791 268.12 100.791C307.837 100.791 340.131 132.702 340.131 171.948C340.131 190.918 332.67 208.774 319.107 222.215C305.466 235.694 287.396 243.105 268.12 243.105ZM268.12 104.631C230.541 104.631 199.996 134.814 199.996 171.948C199.996 209.082 230.541 239.265 268.12 239.265C286.346 239.265 303.485 232.237 316.348 219.527C329.211 206.816 336.284 189.92 336.245 171.948C336.245 134.814 305.7 104.631 268.12 104.631Z" fill="#2A323E"/>
        <path d="M299.064 210.901C260.513 210.901 229.277 180.036 229.277 141.942C229.277 103.849 260.513 72.9834 299.064 72.9834C337.615 72.9834 368.85 103.849 368.85 141.942C368.85 179.998 337.615 210.901 299.064 210.901Z" fill="#DCE0E8"/>
        <path d="M299.063 212.814C259.506 212.814 227.342 181.031 227.342 141.943C227.342 102.854 259.506 71.0713 299.063 71.0713C338.621 71.0713 370.785 102.854 370.785 141.943C370.785 181.031 338.621 212.814 299.063 212.814ZM299.063 74.896C261.635 74.896 231.212 104.958 231.212 141.943C231.212 178.927 261.635 208.989 299.063 208.989C336.492 208.989 366.915 178.927 366.915 141.943C366.915 104.958 336.492 74.896 299.063 74.896Z" fill="#2A323E"/>
        <path d="M330.587 179.474C292.192 179.474 261.082 148.733 261.082 110.793C261.082 72.8529 292.192 42.1122 330.587 42.1122C368.983 42.1122 400.092 72.8529 400.092 110.793C400.131 148.733 368.983 179.474 330.587 179.474Z" fill="#C9FEF4"/>
        <path d="M330.587 181.378C291.189 181.378 259.154 149.723 259.154 110.793C259.154 71.862 291.189 40.2071 330.587 40.2071C369.985 40.2071 402.019 71.862 402.019 110.793C402.019 129.61 394.618 147.323 381.164 160.656C367.633 174.026 349.707 181.378 330.587 181.378ZM330.587 44.0163C293.309 44.0163 263.009 73.9571 263.009 110.793C263.009 147.628 293.309 177.569 330.587 177.569C348.667 177.569 365.667 170.598 378.427 157.989C391.187 145.381 398.203 128.62 398.164 110.793C398.164 73.9571 367.864 44.0163 330.587 44.0163Z" fill="#2A323E"/>
        <path d="M330.587 181.378C291.189 181.378 259.154 149.723 259.154 110.793C259.154 71.862 291.189 40.2071 330.587 40.2071C369.985 40.2071 402.019 71.862 402.019 110.793C402.019 129.61 394.618 147.323 381.164 160.656C367.633 174.026 349.707 181.378 330.587 181.378ZM330.587 44.0163C293.309 44.0163 263.009 73.9571 263.009 110.793C263.009 147.628 293.309 177.569 330.587 177.569C348.667 177.569 365.667 170.598 378.427 157.989C391.187 145.381 398.203 128.62 398.164 110.793C398.164 73.9571 367.864 44.0163 330.587 44.0163Z" fill="#C9FEF4"/>
        <path d="M445.567 54.0588C446.632 54.0588 447.495 53.2061 447.495 52.1542C447.495 51.1023 446.632 50.2496 445.567 50.2496C444.503 50.2496 443.64 51.1023 443.64 52.1542C443.64 53.2061 444.503 54.0588 445.567 54.0588Z" fill="#2A323E"/>
        <path d="M445.567 63.4675C446.632 63.4675 447.495 62.6148 447.495 61.5629C447.495 60.511 446.632 59.6583 445.567 59.6583C444.503 59.6583 443.64 60.511 443.64 61.5629C443.64 62.6148 444.503 63.4675 445.567 63.4675Z" fill="#2A323E"/>
        <path d="M445.567 72.8758C446.632 72.8758 447.495 72.0231 447.495 70.9712C447.495 69.9193 446.632 69.0665 445.567 69.0665C444.503 69.0665 443.64 69.9193 443.64 70.9712C443.64 72.0231 444.503 72.8758 445.567 72.8758Z" fill="#2A323E"/>
        <path d="M445.567 82.2868C446.632 82.2868 447.495 81.4341 447.495 80.3822C447.495 79.3303 446.632 78.4775 445.567 78.4775C444.503 78.4775 443.64 79.3303 443.64 80.3822C443.64 81.4341 444.503 82.2868 445.567 82.2868Z" fill="#2A323E"/>
        <path d="M445.567 91.694C446.632 91.694 447.495 90.8413 447.495 89.7894C447.495 88.7375 446.632 87.8848 445.567 87.8848C444.503 87.8848 443.64 88.7375 443.64 89.7894C443.64 90.8413 444.503 91.694 445.567 91.694Z" fill="#2A323E"/>
        <path d="M445.567 101.104C446.632 101.104 447.495 100.251 447.495 99.1991C447.495 98.1472 446.632 97.2944 445.567 97.2944C444.503 97.2944 443.64 98.1472 443.64 99.1991C443.64 100.251 444.503 101.104 445.567 101.104Z" fill="#2A323E"/>
        <path d="M445.567 110.512C446.632 110.512 447.495 109.659 447.495 108.607C447.495 107.555 446.632 106.702 445.567 106.702C444.503 106.702 443.64 107.555 443.64 108.607C443.64 109.659 444.503 110.512 445.567 110.512Z" fill="#2A323E"/>
        <path d="M445.567 119.923C446.632 119.923 447.495 119.07 447.495 118.018C447.495 116.966 446.632 116.114 445.567 116.114C444.503 116.114 443.64 116.966 443.64 118.018C443.64 119.07 444.503 119.923 445.567 119.923Z" fill="#2A323E"/>
        <path d="M445.567 129.329C446.632 129.329 447.495 128.477 447.495 127.425C447.495 126.373 446.632 125.52 445.567 125.52C444.503 125.52 443.64 126.373 443.64 127.425C443.64 128.477 444.503 129.329 445.567 129.329Z" fill="#2A323E"/>
        <path d="M445.567 138.74C446.632 138.74 447.495 137.887 447.495 136.835C447.495 135.783 446.632 134.93 445.567 134.93C444.503 134.93 443.64 135.783 443.64 136.835C443.64 137.887 444.503 138.74 445.567 138.74Z" fill="#2A323E"/>
        <path d="M445.567 148.148C446.632 148.148 447.495 147.295 447.495 146.243C447.495 145.191 446.632 144.339 445.567 144.339C444.503 144.339 443.64 145.191 443.64 146.243C443.64 147.295 444.503 148.148 445.567 148.148Z" fill="#2A323E"/>
        <path d="M445.567 157.557C446.632 157.557 447.495 156.705 447.495 155.653C447.495 154.601 446.632 153.748 445.567 153.748C444.503 153.748 443.64 154.601 443.64 155.653C443.64 156.705 444.503 157.557 445.567 157.557Z" fill="#2A323E"/>
        <path d="M445.567 166.965C446.632 166.965 447.495 166.112 447.495 165.061C447.495 164.009 446.632 163.156 445.567 163.156C444.503 163.156 443.64 164.009 443.64 165.061C443.64 166.112 444.503 166.965 445.567 166.965Z" fill="#2A323E"/>
        <path d="M445.567 176.376C446.632 176.376 447.495 175.523 447.495 174.471C447.495 173.419 446.632 172.567 445.567 172.567C444.503 172.567 443.64 173.419 443.64 174.471C443.64 175.523 444.503 176.376 445.567 176.376Z" fill="#2A323E"/>
        <path d="M445.567 185.782C446.632 185.782 447.495 184.929 447.495 183.878C447.495 182.826 446.632 181.973 445.567 181.973C444.503 181.973 443.64 182.826 443.64 183.878C443.64 184.929 444.503 185.782 445.567 185.782Z" fill="#2A323E"/>
        <path d="M436.046 54.0588C437.11 54.0588 437.973 53.2061 437.973 52.1542C437.973 51.1023 437.11 50.2496 436.046 50.2496C434.981 50.2496 434.118 51.1023 434.118 52.1542C434.118 53.2061 434.981 54.0588 436.046 54.0588Z" fill="#2A323E"/>
        <path d="M436.046 63.4675C437.11 63.4675 437.973 62.6148 437.973 61.5629C437.973 60.511 437.11 59.6583 436.046 59.6583C434.981 59.6583 434.118 60.511 434.118 61.5629C434.118 62.6148 434.981 63.4675 436.046 63.4675Z" fill="#2A323E"/>
        <path d="M436.046 72.8758C437.11 72.8758 437.973 72.0231 437.973 70.9712C437.973 69.9193 437.11 69.0665 436.046 69.0665C434.981 69.0665 434.118 69.9193 434.118 70.9712C434.118 72.0231 434.981 72.8758 436.046 72.8758Z" fill="#2A323E"/>
        <path d="M436.046 82.2868C437.11 82.2868 437.973 81.4341 437.973 80.3822C437.973 79.3303 437.11 78.4775 436.046 78.4775C434.981 78.4775 434.118 79.3303 434.118 80.3822C434.118 81.4341 434.981 82.2868 436.046 82.2868Z" fill="#2A323E"/>
        <path d="M436.046 91.694C437.11 91.694 437.973 90.8413 437.973 89.7894C437.973 88.7375 437.11 87.8848 436.046 87.8848C434.981 87.8848 434.118 88.7375 434.118 89.7894C434.118 90.8413 434.981 91.694 436.046 91.694Z" fill="#2A323E"/>
        <path d="M436.046 101.104C437.11 101.104 437.973 100.251 437.973 99.1991C437.973 98.1472 437.11 97.2944 436.046 97.2944C434.981 97.2944 434.118 98.1472 434.118 99.1991C434.118 100.251 434.981 101.104 436.046 101.104Z" fill="#2A323E"/>
        <path d="M436.046 110.512C437.11 110.512 437.973 109.659 437.973 108.607C437.973 107.555 437.11 106.702 436.046 106.702C434.981 106.702 434.118 107.555 434.118 108.607C434.118 109.659 434.981 110.512 436.046 110.512Z" fill="#2A323E"/>
        <path d="M436.046 119.923C437.11 119.923 437.973 119.07 437.973 118.018C437.973 116.966 437.11 116.114 436.046 116.114C434.981 116.114 434.118 116.966 434.118 118.018C434.118 119.07 434.981 119.923 436.046 119.923Z" fill="#2A323E"/>
        <path d="M436.046 129.329C437.11 129.329 437.973 128.477 437.973 127.425C437.973 126.373 437.11 125.52 436.046 125.52C434.981 125.52 434.118 126.373 434.118 127.425C434.118 128.477 434.981 129.329 436.046 129.329Z" fill="#2A323E"/>
        <path d="M436.046 138.74C437.11 138.74 437.973 137.887 437.973 136.835C437.973 135.783 437.11 134.93 436.046 134.93C434.981 134.93 434.118 135.783 434.118 136.835C434.118 137.887 434.981 138.74 436.046 138.74Z" fill="#2A323E"/>
        <path d="M436.046 148.148C437.11 148.148 437.973 147.295 437.973 146.243C437.973 145.191 437.11 144.339 436.046 144.339C434.981 144.339 434.118 145.191 434.118 146.243C434.118 147.295 434.981 148.148 436.046 148.148Z" fill="#2A323E"/>
        <path d="M436.046 157.557C437.11 157.557 437.973 156.705 437.973 155.653C437.973 154.601 437.11 153.748 436.046 153.748C434.981 153.748 434.118 154.601 434.118 155.653C434.118 156.705 434.981 157.557 436.046 157.557Z" fill="#2A323E"/>
        <path d="M436.046 166.965C437.11 166.965 437.973 166.112 437.973 165.061C437.973 164.009 437.11 163.156 436.046 163.156C434.981 163.156 434.118 164.009 434.118 165.061C434.118 166.112 434.981 166.965 436.046 166.965Z" fill="#2A323E"/>
        <path d="M436.046 176.376C437.11 176.376 437.973 175.523 437.973 174.471C437.973 173.419 437.11 172.567 436.046 172.567C434.981 172.567 434.118 173.419 434.118 174.471C434.118 175.523 434.981 176.376 436.046 176.376Z" fill="#2A323E"/>
        <path d="M436.046 185.782C437.11 185.782 437.973 184.929 437.973 183.878C437.973 182.826 437.11 181.973 436.046 181.973C434.981 181.973 434.118 182.826 434.118 183.878C434.118 184.929 434.981 185.782 436.046 185.782Z" fill="#2A323E"/>
        <path d="M426.525 54.0588C427.59 54.0588 428.453 53.2061 428.453 52.1542C428.453 51.1023 427.59 50.2496 426.525 50.2496C425.461 50.2496 424.598 51.1023 424.598 52.1542C424.598 53.2061 425.461 54.0588 426.525 54.0588Z" fill="#2A323E"/>
        <path d="M426.525 63.4675C427.59 63.4675 428.453 62.6148 428.453 61.5629C428.453 60.511 427.59 59.6583 426.525 59.6583C425.461 59.6583 424.598 60.511 424.598 61.5629C424.598 62.6148 425.461 63.4675 426.525 63.4675Z" fill="#2A323E"/>
        <path d="M426.525 72.8758C427.59 72.8758 428.453 72.0231 428.453 70.9712C428.453 69.9193 427.59 69.0665 426.525 69.0665C425.461 69.0665 424.598 69.9193 424.598 70.9712C424.598 72.0231 425.461 72.8758 426.525 72.8758Z" fill="#2A323E"/>
        <path d="M426.525 82.2868C427.59 82.2868 428.453 81.4341 428.453 80.3822C428.453 79.3303 427.59 78.4775 426.525 78.4775C425.461 78.4775 424.598 79.3303 424.598 80.3822C424.598 81.4341 425.461 82.2868 426.525 82.2868Z" fill="#2A323E"/>
        <path d="M426.525 91.694C427.59 91.694 428.453 90.8413 428.453 89.7894C428.453 88.7375 427.59 87.8848 426.525 87.8848C425.461 87.8848 424.598 88.7375 424.598 89.7894C424.598 90.8413 425.461 91.694 426.525 91.694Z" fill="#2A323E"/>
        <path d="M426.525 101.104C427.59 101.104 428.453 100.251 428.453 99.1991C428.453 98.1472 427.59 97.2944 426.525 97.2944C425.461 97.2944 424.598 98.1472 424.598 99.1991C424.598 100.251 425.461 101.104 426.525 101.104Z" fill="#2A323E"/>
        <path d="M426.525 110.512C427.59 110.512 428.453 109.659 428.453 108.607C428.453 107.555 427.59 106.702 426.525 106.702C425.461 106.702 424.598 107.555 424.598 108.607C424.598 109.659 425.461 110.512 426.525 110.512Z" fill="#2A323E"/>
        <path d="M426.525 119.923C427.59 119.923 428.453 119.07 428.453 118.018C428.453 116.966 427.59 116.114 426.525 116.114C425.461 116.114 424.598 116.966 424.598 118.018C424.598 119.07 425.461 119.923 426.525 119.923Z" fill="#2A323E"/>
        <path d="M426.525 129.329C427.59 129.329 428.453 128.477 428.453 127.425C428.453 126.373 427.59 125.52 426.525 125.52C425.461 125.52 424.598 126.373 424.598 127.425C424.598 128.477 425.461 129.329 426.525 129.329Z" fill="#2A323E"/>
        <path d="M426.525 138.74C427.59 138.74 428.453 137.887 428.453 136.835C428.453 135.783 427.59 134.93 426.525 134.93C425.461 134.93 424.598 135.783 424.598 136.835C424.598 137.887 425.461 138.74 426.525 138.74Z" fill="#2A323E"/>
        <path d="M426.525 148.148C427.59 148.148 428.453 147.295 428.453 146.243C428.453 145.191 427.59 144.339 426.525 144.339C425.461 144.339 424.598 145.191 424.598 146.243C424.598 147.295 425.461 148.148 426.525 148.148Z" fill="#2A323E"/>
        <path d="M426.525 157.557C427.59 157.557 428.453 156.705 428.453 155.653C428.453 154.601 427.59 153.748 426.525 153.748C425.461 153.748 424.598 154.601 424.598 155.653C424.598 156.705 425.461 157.557 426.525 157.557Z" fill="#2A323E"/>
        <path d="M426.525 166.965C427.59 166.965 428.453 166.112 428.453 165.061C428.453 164.009 427.59 163.156 426.525 163.156C425.461 163.156 424.598 164.009 424.598 165.061C424.598 166.112 425.461 166.965 426.525 166.965Z" fill="#2A323E"/>
        <path d="M426.525 176.376C427.59 176.376 428.453 175.523 428.453 174.471C428.453 173.419 427.59 172.567 426.525 172.567C425.461 172.567 424.598 173.419 424.598 174.471C424.598 175.523 425.461 176.376 426.525 176.376Z" fill="#2A323E"/>
        <path d="M426.525 185.782C427.59 185.782 428.453 184.929 428.453 183.878C428.453 182.826 427.59 181.973 426.525 181.973C425.461 181.973 424.598 182.826 424.598 183.878C424.598 184.929 425.461 185.782 426.525 185.782Z" fill="#2A323E"/>
        <path d="M417.003 54.0588C418.067 54.0588 418.93 53.2061 418.93 52.1542C418.93 51.1023 418.067 50.2496 417.003 50.2496C415.938 50.2496 415.075 51.1023 415.075 52.1542C415.075 53.2061 415.938 54.0588 417.003 54.0588Z" fill="#2A323E"/>
        <path d="M417.003 63.4675C418.067 63.4675 418.93 62.6148 418.93 61.5629C418.93 60.511 418.067 59.6583 417.003 59.6583C415.938 59.6583 415.075 60.511 415.075 61.5629C415.075 62.6148 415.938 63.4675 417.003 63.4675Z" fill="#2A323E"/>
        <path d="M417.003 72.8758C418.067 72.8758 418.93 72.0231 418.93 70.9712C418.93 69.9193 418.067 69.0665 417.003 69.0665C415.938 69.0665 415.075 69.9193 415.075 70.9712C415.075 72.0231 415.938 72.8758 417.003 72.8758Z" fill="#2A323E"/>
        <path d="M417.003 82.2868C418.067 82.2868 418.93 81.4341 418.93 80.3822C418.93 79.3303 418.067 78.4775 417.003 78.4775C415.938 78.4775 415.075 79.3303 415.075 80.3822C415.075 81.4341 415.938 82.2868 417.003 82.2868Z" fill="#2A323E"/>
        <path d="M417.003 91.694C418.067 91.694 418.93 90.8413 418.93 89.7894C418.93 88.7375 418.067 87.8848 417.003 87.8848C415.938 87.8848 415.075 88.7375 415.075 89.7894C415.075 90.8413 415.938 91.694 417.003 91.694Z" fill="#2A323E"/>
        <path d="M417.003 101.104C418.067 101.104 418.93 100.251 418.93 99.1991C418.93 98.1472 418.067 97.2944 417.003 97.2944C415.938 97.2944 415.075 98.1472 415.075 99.1991C415.075 100.251 415.938 101.104 417.003 101.104Z" fill="#2A323E"/>
        <path d="M417.003 110.512C418.067 110.512 418.93 109.659 418.93 108.607C418.93 107.555 418.067 106.702 417.003 106.702C415.938 106.702 415.075 107.555 415.075 108.607C415.075 109.659 415.938 110.512 417.003 110.512Z" fill="#2A323E"/>
        <path d="M417.003 119.923C418.067 119.923 418.93 119.07 418.93 118.018C418.93 116.966 418.067 116.114 417.003 116.114C415.938 116.114 415.075 116.966 415.075 118.018C415.075 119.07 415.938 119.923 417.003 119.923Z" fill="#2A323E"/>
        <path d="M417.003 129.329C418.067 129.329 418.93 128.477 418.93 127.425C418.93 126.373 418.067 125.52 417.003 125.52C415.938 125.52 415.075 126.373 415.075 127.425C415.075 128.477 415.938 129.329 417.003 129.329Z" fill="#2A323E"/>
        <path d="M417.003 138.74C418.067 138.74 418.93 137.887 418.93 136.835C418.93 135.783 418.067 134.93 417.003 134.93C415.938 134.93 415.075 135.783 415.075 136.835C415.075 137.887 415.938 138.74 417.003 138.74Z" fill="#2A323E"/>
        <path d="M417.003 148.148C418.067 148.148 418.93 147.295 418.93 146.243C418.93 145.191 418.067 144.339 417.003 144.339C415.938 144.339 415.075 145.191 415.075 146.243C415.075 147.295 415.938 148.148 417.003 148.148Z" fill="#2A323E"/>
        <path d="M417.003 157.557C418.067 157.557 418.93 156.705 418.93 155.653C418.93 154.601 418.067 153.748 417.003 153.748C415.938 153.748 415.075 154.601 415.075 155.653C415.075 156.705 415.938 157.557 417.003 157.557Z" fill="#2A323E"/>
        <path d="M417.003 166.965C418.067 166.965 418.93 166.112 418.93 165.061C418.93 164.009 418.067 163.156 417.003 163.156C415.938 163.156 415.075 164.009 415.075 165.061C415.075 166.112 415.938 166.965 417.003 166.965Z" fill="#2A323E"/>
        <path d="M417.003 176.376C418.067 176.376 418.93 175.523 418.93 174.471C418.93 173.419 418.067 172.567 417.003 172.567C415.938 172.567 415.075 173.419 415.075 174.471C415.075 175.523 415.938 176.376 417.003 176.376Z" fill="#2A323E"/>
        <path d="M417.003 185.782C418.067 185.782 418.93 184.929 418.93 183.878C418.93 182.826 418.067 181.973 417.003 181.973C415.938 181.973 415.075 182.826 415.075 183.878C415.075 184.929 415.938 185.782 417.003 185.782Z" fill="#2A323E"/>
        <path d="M407.481 54.0588C408.546 54.0588 409.409 53.2061 409.409 52.1542C409.409 51.1023 408.546 50.2496 407.481 50.2496C406.417 50.2496 405.554 51.1023 405.554 52.1542C405.554 53.2061 406.417 54.0588 407.481 54.0588Z" fill="#2A323E"/>
        <path d="M407.48 63.4675C408.545 63.4675 409.408 62.6148 409.408 61.5629C409.408 60.511 408.545 59.6583 407.48 59.6583C406.416 59.6583 405.553 60.511 405.553 61.5629C405.553 62.6148 406.416 63.4675 407.48 63.4675Z" fill="#2A323E"/>
        <path d="M407.481 72.8758C408.546 72.8758 409.409 72.0231 409.409 70.9712C409.409 69.9193 408.546 69.0665 407.481 69.0665C406.417 69.0665 405.554 69.9193 405.554 70.9712C405.554 72.0231 406.417 72.8758 407.481 72.8758Z" fill="#2A323E"/>
        <path d="M407.481 82.2868C408.546 82.2868 409.409 81.4341 409.409 80.3822C409.409 79.3303 408.546 78.4775 407.481 78.4775C406.417 78.4775 405.554 79.3303 405.554 80.3822C405.554 81.4341 406.417 82.2868 407.481 82.2868Z" fill="#2A323E"/>
        <path d="M407.481 91.694C408.546 91.694 409.409 90.8413 409.409 89.7894C409.409 88.7375 408.546 87.8848 407.481 87.8848C406.417 87.8848 405.554 88.7375 405.554 89.7894C405.554 90.8413 406.417 91.694 407.481 91.694Z" fill="#2A323E"/>
        <path d="M407.481 101.104C408.546 101.104 409.409 100.251 409.409 99.1991C409.409 98.1472 408.546 97.2944 407.481 97.2944C406.417 97.2944 405.554 98.1472 405.554 99.1991C405.554 100.251 406.417 101.104 407.481 101.104Z" fill="#2A323E"/>
        <path d="M407.481 110.512C408.546 110.512 409.409 109.659 409.409 108.607C409.409 107.555 408.546 106.702 407.481 106.702C406.417 106.702 405.554 107.555 405.554 108.607C405.554 109.659 406.417 110.512 407.481 110.512Z" fill="#2A323E"/>
        <path d="M407.481 119.923C408.546 119.923 409.409 119.07 409.409 118.018C409.409 116.966 408.546 116.114 407.481 116.114C406.417 116.114 405.554 116.966 405.554 118.018C405.554 119.07 406.417 119.923 407.481 119.923Z" fill="#2A323E"/>
        <path d="M407.481 129.329C408.546 129.329 409.409 128.477 409.409 127.425C409.409 126.373 408.546 125.52 407.481 125.52C406.417 125.52 405.554 126.373 405.554 127.425C405.554 128.477 406.417 129.329 407.481 129.329Z" fill="#2A323E"/>
        <path d="M407.481 138.74C408.546 138.74 409.409 137.887 409.409 136.835C409.409 135.783 408.546 134.93 407.481 134.93C406.417 134.93 405.554 135.783 405.554 136.835C405.554 137.887 406.417 138.74 407.481 138.74Z" fill="#2A323E"/>
        <path d="M407.481 148.148C408.546 148.148 409.409 147.295 409.409 146.243C409.409 145.191 408.546 144.339 407.481 144.339C406.417 144.339 405.554 145.191 405.554 146.243C405.554 147.295 406.417 148.148 407.481 148.148Z" fill="#2A323E"/>
        <path d="M407.481 157.557C408.546 157.557 409.409 156.705 409.409 155.653C409.409 154.601 408.546 153.748 407.481 153.748C406.417 153.748 405.554 154.601 405.554 155.653C405.554 156.705 406.417 157.557 407.481 157.557Z" fill="#2A323E"/>
        <path d="M407.481 166.965C408.546 166.965 409.409 166.112 409.409 165.061C409.409 164.009 408.546 163.156 407.481 163.156C406.417 163.156 405.554 164.009 405.554 165.061C405.554 166.112 406.417 166.965 407.481 166.965Z" fill="#2A323E"/>
        <path d="M407.481 176.376C408.546 176.376 409.409 175.523 409.409 174.471C409.409 173.419 408.546 172.567 407.481 172.567C406.417 172.567 405.554 173.419 405.554 174.471C405.554 175.523 406.417 176.376 407.481 176.376Z" fill="#2A323E"/>
        <path d="M407.481 185.782C408.546 185.782 409.409 184.929 409.409 183.878C409.409 182.826 408.546 181.973 407.481 181.973C406.417 181.973 405.554 182.826 405.554 183.878C405.554 184.929 406.417 185.782 407.481 185.782Z" fill="#2A323E"/>
        <path d="M397.959 54.0588C399.023 54.0588 399.886 53.2061 399.886 52.1542C399.886 51.1023 399.023 50.2496 397.959 50.2496C396.894 50.2496 396.031 51.1023 396.031 52.1542C396.031 53.2061 396.894 54.0588 397.959 54.0588Z" fill="#2A323E"/>
        <path d="M397.959 63.4675C399.023 63.4675 399.886 62.6148 399.886 61.5629C399.886 60.511 399.023 59.6583 397.959 59.6583C396.894 59.6583 396.031 60.511 396.031 61.5629C396.031 62.6148 396.894 63.4675 397.959 63.4675Z" fill="#2A323E"/>
        <path d="M397.959 72.8758C399.023 72.8758 399.886 72.0231 399.886 70.9712C399.886 69.9193 399.023 69.0665 397.959 69.0665C396.894 69.0665 396.031 69.9193 396.031 70.9712C396.031 72.0231 396.894 72.8758 397.959 72.8758Z" fill="#2A323E"/>
        <path d="M397.959 82.2868C399.023 82.2868 399.886 81.4341 399.886 80.3822C399.886 79.3303 399.023 78.4775 397.959 78.4775C396.894 78.4775 396.031 79.3303 396.031 80.3822C396.031 81.4341 396.894 82.2868 397.959 82.2868Z" fill="#2A323E"/>
        <path d="M397.959 91.694C399.023 91.694 399.886 90.8413 399.886 89.7894C399.886 88.7375 399.023 87.8848 397.959 87.8848C396.894 87.8848 396.031 88.7375 396.031 89.7894C396.031 90.8413 396.894 91.694 397.959 91.694Z" fill="#2A323E"/>
        <path d="M397.959 101.104C399.023 101.104 399.886 100.251 399.886 99.1991C399.886 98.1472 399.023 97.2944 397.959 97.2944C396.894 97.2944 396.031 98.1472 396.031 99.1991C396.031 100.251 396.894 101.104 397.959 101.104Z" fill="#2A323E"/>
        <path d="M397.959 110.512C399.023 110.512 399.886 109.659 399.886 108.607C399.886 107.555 399.023 106.702 397.959 106.702C396.894 106.702 396.031 107.555 396.031 108.607C396.031 109.659 396.894 110.512 397.959 110.512Z" fill="#2A323E"/>
        <path d="M397.959 119.923C399.023 119.923 399.886 119.07 399.886 118.018C399.886 116.966 399.023 116.114 397.959 116.114C396.894 116.114 396.031 116.966 396.031 118.018C396.031 119.07 396.894 119.923 397.959 119.923Z" fill="#2A323E"/>
        <path d="M397.959 129.329C399.023 129.329 399.886 128.477 399.886 127.425C399.886 126.373 399.023 125.52 397.959 125.52C396.894 125.52 396.031 126.373 396.031 127.425C396.031 128.477 396.894 129.329 397.959 129.329Z" fill="#2A323E"/>
        <path d="M397.959 138.74C399.023 138.74 399.886 137.887 399.886 136.835C399.886 135.783 399.023 134.93 397.959 134.93C396.894 134.93 396.031 135.783 396.031 136.835C396.031 137.887 396.894 138.74 397.959 138.74Z" fill="#2A323E"/>
        <path d="M397.959 148.148C399.023 148.148 399.886 147.295 399.886 146.243C399.886 145.191 399.023 144.339 397.959 144.339C396.894 144.339 396.031 145.191 396.031 146.243C396.031 147.295 396.894 148.148 397.959 148.148Z" fill="#2A323E"/>
        <path d="M397.959 157.557C399.023 157.557 399.886 156.705 399.886 155.653C399.886 154.601 399.023 153.748 397.959 153.748C396.894 153.748 396.031 154.601 396.031 155.653C396.031 156.705 396.894 157.557 397.959 157.557Z" fill="#2A323E"/>
        <path d="M397.959 166.965C399.023 166.965 399.886 166.112 399.886 165.061C399.886 164.009 399.023 163.156 397.959 163.156C396.894 163.156 396.031 164.009 396.031 165.061C396.031 166.112 396.894 166.965 397.959 166.965Z" fill="#2A323E"/>
        <path d="M397.959 176.376C399.023 176.376 399.886 175.523 399.886 174.471C399.886 173.419 399.023 172.567 397.959 172.567C396.894 172.567 396.031 173.419 396.031 174.471C396.031 175.523 396.894 176.376 397.959 176.376Z" fill="#2A323E"/>
        <path d="M397.959 185.782C399.023 185.782 399.886 184.929 399.886 183.878C399.886 182.826 399.023 181.973 397.959 181.973C396.894 181.973 396.031 182.826 396.031 183.878C396.031 184.929 396.894 185.782 397.959 185.782Z" fill="#2A323E"/>
        <path d="M388.438 54.0588C389.503 54.0588 390.366 53.2061 390.366 52.1542C390.366 51.1023 389.503 50.2496 388.438 50.2496C387.374 50.2496 386.511 51.1023 386.511 52.1542C386.511 53.2061 387.374 54.0588 388.438 54.0588Z" fill="#2A323E"/>
        <path d="M388.438 63.4675C389.503 63.4675 390.366 62.6148 390.366 61.5629C390.366 60.511 389.503 59.6583 388.438 59.6583C387.374 59.6583 386.511 60.511 386.511 61.5629C386.511 62.6148 387.374 63.4675 388.438 63.4675Z" fill="#2A323E"/>
        <path d="M388.438 72.8758C389.503 72.8758 390.366 72.0231 390.366 70.9712C390.366 69.9193 389.503 69.0665 388.438 69.0665C387.374 69.0665 386.511 69.9193 386.511 70.9712C386.511 72.0231 387.374 72.8758 388.438 72.8758Z" fill="#2A323E"/>
        <path d="M388.438 82.2868C389.503 82.2868 390.366 81.4341 390.366 80.3822C390.366 79.3303 389.503 78.4775 388.438 78.4775C387.374 78.4775 386.511 79.3303 386.511 80.3822C386.511 81.4341 387.374 82.2868 388.438 82.2868Z" fill="#2A323E"/>
        <path d="M388.438 91.694C389.503 91.694 390.366 90.8413 390.366 89.7894C390.366 88.7375 389.503 87.8848 388.438 87.8848C387.374 87.8848 386.511 88.7375 386.511 89.7894C386.511 90.8413 387.374 91.694 388.438 91.694Z" fill="#2A323E"/>
        <path d="M388.438 101.104C389.503 101.104 390.366 100.251 390.366 99.1991C390.366 98.1472 389.503 97.2944 388.438 97.2944C387.374 97.2944 386.511 98.1472 386.511 99.1991C386.511 100.251 387.374 101.104 388.438 101.104Z" fill="#2A323E"/>
        <path d="M388.438 110.512C389.503 110.512 390.366 109.659 390.366 108.607C390.366 107.555 389.503 106.702 388.438 106.702C387.374 106.702 386.511 107.555 386.511 108.607C386.511 109.659 387.374 110.512 388.438 110.512Z" fill="#2A323E"/>
        <path d="M388.438 119.923C389.503 119.923 390.366 119.07 390.366 118.018C390.366 116.966 389.503 116.114 388.438 116.114C387.374 116.114 386.511 116.966 386.511 118.018C386.511 119.07 387.374 119.923 388.438 119.923Z" fill="#2A323E"/>
        <path d="M388.438 129.329C389.503 129.329 390.366 128.477 390.366 127.425C390.366 126.373 389.503 125.52 388.438 125.52C387.374 125.52 386.511 126.373 386.511 127.425C386.511 128.477 387.374 129.329 388.438 129.329Z" fill="#2A323E"/>
        <path d="M388.438 138.74C389.503 138.74 390.366 137.887 390.366 136.835C390.366 135.783 389.503 134.93 388.438 134.93C387.374 134.93 386.511 135.783 386.511 136.835C386.511 137.887 387.374 138.74 388.438 138.74Z" fill="#2A323E"/>
        <path d="M388.438 148.148C389.503 148.148 390.366 147.295 390.366 146.243C390.366 145.191 389.503 144.339 388.438 144.339C387.374 144.339 386.511 145.191 386.511 146.243C386.511 147.295 387.374 148.148 388.438 148.148Z" fill="#2A323E"/>
        <path d="M388.438 157.557C389.503 157.557 390.366 156.705 390.366 155.653C390.366 154.601 389.503 153.748 388.438 153.748C387.374 153.748 386.511 154.601 386.511 155.653C386.511 156.705 387.374 157.557 388.438 157.557Z" fill="#2A323E"/>
        <path d="M388.438 166.965C389.503 166.965 390.366 166.112 390.366 165.061C390.366 164.009 389.503 163.156 388.438 163.156C387.374 163.156 386.511 164.009 386.511 165.061C386.511 166.112 387.374 166.965 388.438 166.965Z" fill="#2A323E"/>
        <path d="M388.438 176.376C389.503 176.376 390.366 175.523 390.366 174.471C390.366 173.419 389.503 172.567 388.438 172.567C387.374 172.567 386.511 173.419 386.511 174.471C386.511 175.523 387.374 176.376 388.438 176.376Z" fill="#2A323E"/>
        <path d="M388.438 185.782C389.503 185.782 390.366 184.929 390.366 183.878C390.366 182.826 389.503 181.973 388.438 181.973C387.374 181.973 386.511 182.826 386.511 183.878C386.511 184.929 387.374 185.782 388.438 185.782Z" fill="#2A323E"/>
        <path d="M378.916 54.0588C379.98 54.0588 380.843 53.2061 380.843 52.1542C380.843 51.1023 379.98 50.2496 378.916 50.2496C377.851 50.2496 376.988 51.1023 376.988 52.1542C376.988 53.2061 377.851 54.0588 378.916 54.0588Z" fill="#2A323E"/>
        <path d="M378.916 63.4675C379.98 63.4675 380.843 62.6148 380.843 61.5629C380.843 60.511 379.98 59.6583 378.916 59.6583C377.851 59.6583 376.988 60.511 376.988 61.5629C376.988 62.6148 377.851 63.4675 378.916 63.4675Z" fill="#2A323E"/>
        <path d="M378.916 72.8758C379.98 72.8758 380.843 72.0231 380.843 70.9712C380.843 69.9193 379.98 69.0665 378.916 69.0665C377.851 69.0665 376.988 69.9193 376.988 70.9712C376.988 72.0231 377.851 72.8758 378.916 72.8758Z" fill="#2A323E"/>
        <path d="M378.916 82.2868C379.98 82.2868 380.843 81.4341 380.843 80.3822C380.843 79.3303 379.98 78.4775 378.916 78.4775C377.851 78.4775 376.988 79.3303 376.988 80.3822C376.988 81.4341 377.851 82.2868 378.916 82.2868Z" fill="#2A323E"/>
        <path d="M378.916 91.694C379.98 91.694 380.843 90.8413 380.843 89.7894C380.843 88.7375 379.98 87.8848 378.916 87.8848C377.851 87.8848 376.988 88.7375 376.988 89.7894C376.988 90.8413 377.851 91.694 378.916 91.694Z" fill="#2A323E"/>
        <path d="M378.916 101.104C379.98 101.104 380.843 100.251 380.843 99.1991C380.843 98.1472 379.98 97.2944 378.916 97.2944C377.851 97.2944 376.988 98.1472 376.988 99.1991C376.988 100.251 377.851 101.104 378.916 101.104Z" fill="#2A323E"/>
        <path d="M378.916 110.512C379.98 110.512 380.843 109.659 380.843 108.607C380.843 107.555 379.98 106.702 378.916 106.702C377.851 106.702 376.988 107.555 376.988 108.607C376.988 109.659 377.851 110.512 378.916 110.512Z" fill="#2A323E"/>
        <path d="M378.916 119.923C379.98 119.923 380.843 119.07 380.843 118.018C380.843 116.966 379.98 116.114 378.916 116.114C377.851 116.114 376.988 116.966 376.988 118.018C376.988 119.07 377.851 119.923 378.916 119.923Z" fill="#2A323E"/>
        <path d="M378.916 129.329C379.98 129.329 380.843 128.477 380.843 127.425C380.843 126.373 379.98 125.52 378.916 125.52C377.851 125.52 376.988 126.373 376.988 127.425C376.988 128.477 377.851 129.329 378.916 129.329Z" fill="#2A323E"/>
        <path d="M378.916 138.74C379.98 138.74 380.843 137.887 380.843 136.835C380.843 135.783 379.98 134.93 378.916 134.93C377.851 134.93 376.988 135.783 376.988 136.835C376.988 137.887 377.851 138.74 378.916 138.74Z" fill="#2A323E"/>
        <path d="M378.916 148.148C379.98 148.148 380.843 147.295 380.843 146.243C380.843 145.191 379.98 144.339 378.916 144.339C377.851 144.339 376.988 145.191 376.988 146.243C376.988 147.295 377.851 148.148 378.916 148.148Z" fill="#2A323E"/>
        <path d="M378.916 157.557C379.98 157.557 380.843 156.705 380.843 155.653C380.843 154.601 379.98 153.748 378.916 153.748C377.851 153.748 376.988 154.601 376.988 155.653C376.988 156.705 377.851 157.557 378.916 157.557Z" fill="#2A323E"/>
        <path d="M378.916 166.965C379.98 166.965 380.843 166.112 380.843 165.061C380.843 164.009 379.98 163.156 378.916 163.156C377.851 163.156 376.988 164.009 376.988 165.061C376.988 166.112 377.851 166.965 378.916 166.965Z" fill="#2A323E"/>
        <path d="M378.916 176.376C379.98 176.376 380.843 175.523 380.843 174.471C380.843 173.419 379.98 172.567 378.916 172.567C377.851 172.567 376.988 173.419 376.988 174.471C376.988 175.523 377.851 176.376 378.916 176.376Z" fill="#2A323E"/>
        <path d="M378.916 185.782C379.98 185.782 380.843 184.929 380.843 183.878C380.843 182.826 379.98 181.973 378.916 181.973C377.851 181.973 376.988 182.826 376.988 183.878C376.988 184.929 377.851 185.782 378.916 185.782Z" fill="#2A323E"/>
        <path d="M369.393 54.0588C370.458 54.0588 371.321 53.2061 371.321 52.1542C371.321 51.1023 370.458 50.2496 369.393 50.2496C368.329 50.2496 367.466 51.1023 367.466 52.1542C367.466 53.2061 368.329 54.0588 369.393 54.0588Z" fill="#2A323E"/>
        <path d="M369.393 63.4675C370.458 63.4675 371.321 62.6148 371.321 61.5629C371.321 60.511 370.458 59.6583 369.393 59.6583C368.329 59.6583 367.466 60.511 367.466 61.5629C367.466 62.6148 368.329 63.4675 369.393 63.4675Z" fill="#2A323E"/>
        <path d="M369.393 72.8758C370.458 72.8758 371.321 72.0231 371.321 70.9712C371.321 69.9193 370.458 69.0665 369.393 69.0665C368.329 69.0665 367.466 69.9193 367.466 70.9712C367.466 72.0231 368.329 72.8758 369.393 72.8758Z" fill="#2A323E"/>
        <path d="M369.393 82.2868C370.458 82.2868 371.321 81.4341 371.321 80.3822C371.321 79.3303 370.458 78.4775 369.393 78.4775C368.329 78.4775 367.466 79.3303 367.466 80.3822C367.466 81.4341 368.329 82.2868 369.393 82.2868Z" fill="#2A323E"/>
        <path d="M369.393 91.694C370.458 91.694 371.321 90.8413 371.321 89.7894C371.321 88.7375 370.458 87.8848 369.393 87.8848C368.329 87.8848 367.466 88.7375 367.466 89.7894C367.466 90.8413 368.329 91.694 369.393 91.694Z" fill="#2A323E"/>
        <path d="M369.393 101.104C370.458 101.104 371.321 100.251 371.321 99.1991C371.321 98.1472 370.458 97.2944 369.393 97.2944C368.329 97.2944 367.466 98.1472 367.466 99.1991C367.466 100.251 368.329 101.104 369.393 101.104Z" fill="#2A323E"/>
        <path d="M369.393 110.512C370.458 110.512 371.321 109.659 371.321 108.607C371.321 107.555 370.458 106.702 369.393 106.702C368.329 106.702 367.466 107.555 367.466 108.607C367.466 109.659 368.329 110.512 369.393 110.512Z" fill="#2A323E"/>
        <path d="M369.393 119.923C370.458 119.923 371.321 119.07 371.321 118.018C371.321 116.966 370.458 116.114 369.393 116.114C368.329 116.114 367.466 116.966 367.466 118.018C367.466 119.07 368.329 119.923 369.393 119.923Z" fill="#2A323E"/>
        <path d="M369.393 129.329C370.458 129.329 371.321 128.477 371.321 127.425C371.321 126.373 370.458 125.52 369.393 125.52C368.329 125.52 367.466 126.373 367.466 127.425C367.466 128.477 368.329 129.329 369.393 129.329Z" fill="#2A323E"/>
        <path d="M369.393 138.74C370.458 138.74 371.321 137.887 371.321 136.835C371.321 135.783 370.458 134.93 369.393 134.93C368.329 134.93 367.466 135.783 367.466 136.835C367.466 137.887 368.329 138.74 369.393 138.74Z" fill="#2A323E"/>
        <path d="M369.393 148.148C370.458 148.148 371.321 147.295 371.321 146.243C371.321 145.191 370.458 144.339 369.393 144.339C368.329 144.339 367.466 145.191 367.466 146.243C367.466 147.295 368.329 148.148 369.393 148.148Z" fill="#2A323E"/>
        <path d="M369.393 157.557C370.458 157.557 371.321 156.705 371.321 155.653C371.321 154.601 370.458 153.748 369.393 153.748C368.329 153.748 367.466 154.601 367.466 155.653C367.466 156.705 368.329 157.557 369.393 157.557Z" fill="#2A323E"/>
        <path d="M369.393 166.965C370.458 166.965 371.321 166.112 371.321 165.061C371.321 164.009 370.458 163.156 369.393 163.156C368.329 163.156 367.466 164.009 367.466 165.061C367.466 166.112 368.329 166.965 369.393 166.965Z" fill="#2A323E"/>
        <path d="M369.393 176.376C370.458 176.376 371.321 175.523 371.321 174.471C371.321 173.419 370.458 172.567 369.393 172.567C368.329 172.567 367.466 173.419 367.466 174.471C367.466 175.523 368.329 176.376 369.393 176.376Z" fill="#2A323E"/>
        <path d="M369.393 185.782C370.458 185.782 371.321 184.929 371.321 183.878C371.321 182.826 370.458 181.973 369.393 181.973C368.329 181.973 367.466 182.826 367.466 183.878C367.466 184.929 368.329 185.782 369.393 185.782Z" fill="#2A323E"/>
        <path d="M359.873 54.0588C360.937 54.0588 361.8 53.2061 361.8 52.1542C361.8 51.1023 360.937 50.2496 359.873 50.2496C358.808 50.2496 357.945 51.1023 357.945 52.1542C357.945 53.2061 358.808 54.0588 359.873 54.0588Z" fill="#2A323E"/>
        <path d="M359.872 63.4675C360.936 63.4675 361.799 62.6148 361.799 61.5629C361.799 60.511 360.936 59.6583 359.872 59.6583C358.807 59.6583 357.944 60.511 357.944 61.5629C357.944 62.6148 358.807 63.4675 359.872 63.4675Z" fill="#2A323E"/>
        <path d="M359.873 72.8758C360.937 72.8758 361.8 72.0231 361.8 70.9712C361.8 69.9193 360.937 69.0665 359.873 69.0665C358.808 69.0665 357.945 69.9193 357.945 70.9712C357.945 72.0231 358.808 72.8758 359.873 72.8758Z" fill="#2A323E"/>
        <path d="M359.873 82.2868C360.937 82.2868 361.8 81.4341 361.8 80.3822C361.8 79.3303 360.937 78.4775 359.873 78.4775C358.808 78.4775 357.945 79.3303 357.945 80.3822C357.945 81.4341 358.808 82.2868 359.873 82.2868Z" fill="#2A323E"/>
        <path d="M359.873 91.694C360.937 91.694 361.8 90.8413 361.8 89.7894C361.8 88.7375 360.937 87.8848 359.873 87.8848C358.808 87.8848 357.945 88.7375 357.945 89.7894C357.945 90.8413 358.808 91.694 359.873 91.694Z" fill="#2A323E"/>
        <path d="M359.873 101.104C360.937 101.104 361.8 100.251 361.8 99.1991C361.8 98.1472 360.937 97.2944 359.873 97.2944C358.808 97.2944 357.945 98.1472 357.945 99.1991C357.945 100.251 358.808 101.104 359.873 101.104Z" fill="#2A323E"/>
        <path d="M359.873 110.512C360.937 110.512 361.8 109.659 361.8 108.607C361.8 107.555 360.937 106.702 359.873 106.702C358.808 106.702 357.945 107.555 357.945 108.607C357.945 109.659 358.808 110.512 359.873 110.512Z" fill="#2A323E"/>
        <path d="M359.873 119.923C360.937 119.923 361.8 119.07 361.8 118.018C361.8 116.966 360.937 116.114 359.873 116.114C358.808 116.114 357.945 116.966 357.945 118.018C357.945 119.07 358.808 119.923 359.873 119.923Z" fill="#2A323E"/>
        <path d="M359.873 129.329C360.937 129.329 361.8 128.477 361.8 127.425C361.8 126.373 360.937 125.52 359.873 125.52C358.808 125.52 357.945 126.373 357.945 127.425C357.945 128.477 358.808 129.329 359.873 129.329Z" fill="#2A323E"/>
        <path d="M359.873 138.74C360.937 138.74 361.8 137.887 361.8 136.835C361.8 135.783 360.937 134.93 359.873 134.93C358.808 134.93 357.945 135.783 357.945 136.835C357.945 137.887 358.808 138.74 359.873 138.74Z" fill="#2A323E"/>
        <path d="M359.873 148.148C360.937 148.148 361.8 147.295 361.8 146.243C361.8 145.191 360.937 144.339 359.873 144.339C358.808 144.339 357.945 145.191 357.945 146.243C357.945 147.295 358.808 148.148 359.873 148.148Z" fill="#2A323E"/>
        <path d="M359.873 157.557C360.937 157.557 361.8 156.705 361.8 155.653C361.8 154.601 360.937 153.748 359.873 153.748C358.808 153.748 357.945 154.601 357.945 155.653C357.945 156.705 358.808 157.557 359.873 157.557Z" fill="#2A323E"/>
        <path d="M359.873 166.965C360.937 166.965 361.8 166.112 361.8 165.061C361.8 164.009 360.937 163.156 359.873 163.156C358.808 163.156 357.945 164.009 357.945 165.061C357.945 166.112 358.808 166.965 359.873 166.965Z" fill="#2A323E"/>
        <path d="M359.873 176.376C360.937 176.376 361.8 175.523 361.8 174.471C361.8 173.419 360.937 172.567 359.873 172.567C358.808 172.567 357.945 173.419 357.945 174.471C357.945 175.523 358.808 176.376 359.873 176.376Z" fill="#2A323E"/>
        <path d="M359.873 185.782C360.937 185.782 361.8 184.929 361.8 183.878C361.8 182.826 360.937 181.973 359.873 181.973C358.808 181.973 357.945 182.826 357.945 183.878C357.945 184.929 358.808 185.782 359.873 185.782Z" fill="#2A323E"/>
        <path d="M350.35 54.0588C351.415 54.0588 352.278 53.2061 352.278 52.1542C352.278 51.1023 351.415 50.2496 350.35 50.2496C349.286 50.2496 348.423 51.1023 348.423 52.1542C348.423 53.2061 349.286 54.0588 350.35 54.0588Z" fill="#2A323E"/>
        <path d="M350.35 63.4675C351.415 63.4675 352.278 62.6148 352.278 61.5629C352.278 60.511 351.415 59.6583 350.35 59.6583C349.286 59.6583 348.423 60.511 348.423 61.5629C348.423 62.6148 349.286 63.4675 350.35 63.4675Z" fill="#2A323E"/>
        <path d="M350.35 72.8758C351.415 72.8758 352.278 72.0231 352.278 70.9712C352.278 69.9193 351.415 69.0665 350.35 69.0665C349.286 69.0665 348.423 69.9193 348.423 70.9712C348.423 72.0231 349.286 72.8758 350.35 72.8758Z" fill="#2A323E"/>
        <path d="M350.35 82.2868C351.415 82.2868 352.278 81.4341 352.278 80.3822C352.278 79.3303 351.415 78.4775 350.35 78.4775C349.286 78.4775 348.423 79.3303 348.423 80.3822C348.423 81.4341 349.286 82.2868 350.35 82.2868Z" fill="#2A323E"/>
        <path d="M350.35 91.694C351.415 91.694 352.278 90.8413 352.278 89.7894C352.278 88.7375 351.415 87.8848 350.35 87.8848C349.286 87.8848 348.423 88.7375 348.423 89.7894C348.423 90.8413 349.286 91.694 350.35 91.694Z" fill="#2A323E"/>
        <path d="M350.35 101.104C351.415 101.104 352.278 100.251 352.278 99.1991C352.278 98.1472 351.415 97.2944 350.35 97.2944C349.286 97.2944 348.423 98.1472 348.423 99.1991C348.423 100.251 349.286 101.104 350.35 101.104Z" fill="#2A323E"/>
        <path d="M350.35 110.512C351.415 110.512 352.278 109.659 352.278 108.607C352.278 107.555 351.415 106.702 350.35 106.702C349.286 106.702 348.423 107.555 348.423 108.607C348.423 109.659 349.286 110.512 350.35 110.512Z" fill="#2A323E"/>
        <path d="M350.35 119.923C351.415 119.923 352.278 119.07 352.278 118.018C352.278 116.966 351.415 116.114 350.35 116.114C349.286 116.114 348.423 116.966 348.423 118.018C348.423 119.07 349.286 119.923 350.35 119.923Z" fill="#2A323E"/>
        <path d="M350.35 129.329C351.415 129.329 352.278 128.477 352.278 127.425C352.278 126.373 351.415 125.52 350.35 125.52C349.286 125.52 348.423 126.373 348.423 127.425C348.423 128.477 349.286 129.329 350.35 129.329Z" fill="#2A323E"/>
        <path d="M350.35 138.74C351.415 138.74 352.278 137.887 352.278 136.835C352.278 135.783 351.415 134.93 350.35 134.93C349.286 134.93 348.423 135.783 348.423 136.835C348.423 137.887 349.286 138.74 350.35 138.74Z" fill="#2A323E"/>
        <path d="M350.35 148.148C351.415 148.148 352.278 147.295 352.278 146.243C352.278 145.191 351.415 144.339 350.35 144.339C349.286 144.339 348.423 145.191 348.423 146.243C348.423 147.295 349.286 148.148 350.35 148.148Z" fill="#2A323E"/>
        <path d="M350.35 157.557C351.415 157.557 352.278 156.705 352.278 155.653C352.278 154.601 351.415 153.748 350.35 153.748C349.286 153.748 348.423 154.601 348.423 155.653C348.423 156.705 349.286 157.557 350.35 157.557Z" fill="#2A323E"/>
        <path d="M350.35 166.965C351.415 166.965 352.278 166.112 352.278 165.061C352.278 164.009 351.415 163.156 350.35 163.156C349.286 163.156 348.423 164.009 348.423 165.061C348.423 166.112 349.286 166.965 350.35 166.965Z" fill="#2A323E"/>
        <path d="M350.35 176.376C351.415 176.376 352.278 175.523 352.278 174.471C352.278 173.419 351.415 172.567 350.35 172.567C349.286 172.567 348.423 173.419 348.423 174.471C348.423 175.523 349.286 176.376 350.35 176.376Z" fill="#2A323E"/>
        <path d="M350.35 185.782C351.415 185.782 352.278 184.929 352.278 183.878C352.278 182.826 351.415 181.973 350.35 181.973C349.286 181.973 348.423 182.826 348.423 183.878C348.423 184.929 349.286 185.782 350.35 185.782Z" fill="#2A323E"/>
        <path d="M340.829 54.0588C341.893 54.0588 342.756 53.2061 342.756 52.1542C342.756 51.1023 341.893 50.2496 340.829 50.2496C339.764 50.2496 338.901 51.1023 338.901 52.1542C338.901 53.2061 339.764 54.0588 340.829 54.0588Z" fill="#2A323E"/>
        <path d="M340.829 63.4675C341.893 63.4675 342.756 62.6148 342.756 61.5629C342.756 60.511 341.893 59.6583 340.829 59.6583C339.764 59.6583 338.901 60.511 338.901 61.5629C338.901 62.6148 339.764 63.4675 340.829 63.4675Z" fill="#2A323E"/>
        <path d="M340.829 72.8758C341.893 72.8758 342.756 72.0231 342.756 70.9712C342.756 69.9193 341.893 69.0665 340.829 69.0665C339.764 69.0665 338.901 69.9193 338.901 70.9712C338.901 72.0231 339.764 72.8758 340.829 72.8758Z" fill="#2A323E"/>
        <path d="M340.829 82.2868C341.893 82.2868 342.756 81.4341 342.756 80.3822C342.756 79.3303 341.893 78.4775 340.829 78.4775C339.764 78.4775 338.901 79.3303 338.901 80.3822C338.901 81.4341 339.764 82.2868 340.829 82.2868Z" fill="#2A323E"/>
        <path d="M340.829 91.694C341.893 91.694 342.756 90.8413 342.756 89.7894C342.756 88.7375 341.893 87.8848 340.829 87.8848C339.764 87.8848 338.901 88.7375 338.901 89.7894C338.901 90.8413 339.764 91.694 340.829 91.694Z" fill="#2A323E"/>
        <path d="M340.829 101.104C341.893 101.104 342.756 100.251 342.756 99.1991C342.756 98.1472 341.893 97.2944 340.829 97.2944C339.764 97.2944 338.901 98.1472 338.901 99.1991C338.901 100.251 339.764 101.104 340.829 101.104Z" fill="#2A323E"/>
        <path d="M340.829 110.512C341.893 110.512 342.756 109.659 342.756 108.607C342.756 107.555 341.893 106.702 340.829 106.702C339.764 106.702 338.901 107.555 338.901 108.607C338.901 109.659 339.764 110.512 340.829 110.512Z" fill="#2A323E"/>
        <path d="M340.829 119.923C341.893 119.923 342.756 119.07 342.756 118.018C342.756 116.966 341.893 116.114 340.829 116.114C339.764 116.114 338.901 116.966 338.901 118.018C338.901 119.07 339.764 119.923 340.829 119.923Z" fill="#2A323E"/>
        <path d="M340.829 129.329C341.893 129.329 342.756 128.477 342.756 127.425C342.756 126.373 341.893 125.52 340.829 125.52C339.764 125.52 338.901 126.373 338.901 127.425C338.901 128.477 339.764 129.329 340.829 129.329Z" fill="#2A323E"/>
        <path d="M340.829 138.74C341.893 138.74 342.756 137.887 342.756 136.835C342.756 135.783 341.893 134.93 340.829 134.93C339.764 134.93 338.901 135.783 338.901 136.835C338.901 137.887 339.764 138.74 340.829 138.74Z" fill="#2A323E"/>
        <path d="M340.829 148.148C341.893 148.148 342.756 147.295 342.756 146.243C342.756 145.191 341.893 144.339 340.829 144.339C339.764 144.339 338.901 145.191 338.901 146.243C338.901 147.295 339.764 148.148 340.829 148.148Z" fill="#2A323E"/>
        <path d="M340.829 157.557C341.893 157.557 342.756 156.705 342.756 155.653C342.756 154.601 341.893 153.748 340.829 153.748C339.764 153.748 338.901 154.601 338.901 155.653C338.901 156.705 339.764 157.557 340.829 157.557Z" fill="#2A323E"/>
        <path d="M340.829 166.965C341.893 166.965 342.756 166.112 342.756 165.061C342.756 164.009 341.893 163.156 340.829 163.156C339.764 163.156 338.901 164.009 338.901 165.061C338.901 166.112 339.764 166.965 340.829 166.965Z" fill="#2A323E"/>
        <path d="M340.829 176.376C341.893 176.376 342.756 175.523 342.756 174.471C342.756 173.419 341.893 172.567 340.829 172.567C339.764 172.567 338.901 173.419 338.901 174.471C338.901 175.523 339.764 176.376 340.829 176.376Z" fill="#2A323E"/>
        <path d="M340.829 185.782C341.893 185.782 342.756 184.929 342.756 183.878C342.756 182.826 341.893 181.973 340.829 181.973C339.764 181.973 338.901 182.826 338.901 183.878C338.901 184.929 339.764 185.782 340.829 185.782Z" fill="#2A323E"/>
        <path d="M331.307 54.0588C332.372 54.0588 333.235 53.2061 333.235 52.1542C333.235 51.1023 332.372 50.2496 331.307 50.2496C330.243 50.2496 329.38 51.1023 329.38 52.1542C329.38 53.2061 330.243 54.0588 331.307 54.0588Z" fill="#2A323E"/>
        <path d="M331.307 63.4675C332.372 63.4675 333.235 62.6148 333.235 61.5629C333.235 60.511 332.372 59.6583 331.307 59.6583C330.243 59.6583 329.38 60.511 329.38 61.5629C329.38 62.6148 330.243 63.4675 331.307 63.4675Z" fill="#2A323E"/>
        <path d="M331.307 72.8758C332.372 72.8758 333.235 72.0231 333.235 70.9712C333.235 69.9193 332.372 69.0665 331.307 69.0665C330.243 69.0665 329.38 69.9193 329.38 70.9712C329.38 72.0231 330.243 72.8758 331.307 72.8758Z" fill="#2A323E"/>
        <path d="M331.307 82.2868C332.372 82.2868 333.235 81.4341 333.235 80.3822C333.235 79.3303 332.372 78.4775 331.307 78.4775C330.243 78.4775 329.38 79.3303 329.38 80.3822C329.38 81.4341 330.243 82.2868 331.307 82.2868Z" fill="#2A323E"/>
        <path d="M331.307 91.694C332.372 91.694 333.235 90.8413 333.235 89.7894C333.235 88.7375 332.372 87.8848 331.307 87.8848C330.243 87.8848 329.38 88.7375 329.38 89.7894C329.38 90.8413 330.243 91.694 331.307 91.694Z" fill="#2A323E"/>
        <path d="M331.307 101.104C332.372 101.104 333.235 100.251 333.235 99.1991C333.235 98.1472 332.372 97.2944 331.307 97.2944C330.243 97.2944 329.38 98.1472 329.38 99.1991C329.38 100.251 330.243 101.104 331.307 101.104Z" fill="#2A323E"/>
        <path d="M331.307 110.512C332.372 110.512 333.235 109.659 333.235 108.607C333.235 107.555 332.372 106.702 331.307 106.702C330.243 106.702 329.38 107.555 329.38 108.607C329.38 109.659 330.243 110.512 331.307 110.512Z" fill="#2A323E"/>
        <path d="M331.307 119.923C332.372 119.923 333.235 119.07 333.235 118.018C333.235 116.966 332.372 116.114 331.307 116.114C330.243 116.114 329.38 116.966 329.38 118.018C329.38 119.07 330.243 119.923 331.307 119.923Z" fill="#2A323E"/>
        <path d="M331.307 129.329C332.372 129.329 333.235 128.477 333.235 127.425C333.235 126.373 332.372 125.52 331.307 125.52C330.243 125.52 329.38 126.373 329.38 127.425C329.38 128.477 330.243 129.329 331.307 129.329Z" fill="#2A323E"/>
        <path d="M331.307 138.74C332.372 138.74 333.235 137.887 333.235 136.835C333.235 135.783 332.372 134.93 331.307 134.93C330.243 134.93 329.38 135.783 329.38 136.835C329.38 137.887 330.243 138.74 331.307 138.74Z" fill="#2A323E"/>
        <path d="M331.307 148.148C332.372 148.148 333.235 147.295 333.235 146.243C333.235 145.191 332.372 144.339 331.307 144.339C330.243 144.339 329.38 145.191 329.38 146.243C329.38 147.295 330.243 148.148 331.307 148.148Z" fill="#2A323E"/>
        <path d="M331.307 157.557C332.372 157.557 333.235 156.705 333.235 155.653C333.235 154.601 332.372 153.748 331.307 153.748C330.243 153.748 329.38 154.601 329.38 155.653C329.38 156.705 330.243 157.557 331.307 157.557Z" fill="#2A323E"/>
        <path d="M331.307 166.965C332.372 166.965 333.235 166.112 333.235 165.061C333.235 164.009 332.372 163.156 331.307 163.156C330.243 163.156 329.38 164.009 329.38 165.061C329.38 166.112 330.243 166.965 331.307 166.965Z" fill="#2A323E"/>
        <path d="M331.307 176.376C332.372 176.376 333.235 175.523 333.235 174.471C333.235 173.419 332.372 172.567 331.307 172.567C330.243 172.567 329.38 173.419 329.38 174.471C329.38 175.523 330.243 176.376 331.307 176.376Z" fill="#2A323E"/>
        <path d="M331.307 185.782C332.372 185.782 333.235 184.929 333.235 183.878C333.235 182.826 332.372 181.973 331.307 181.973C330.243 181.973 329.38 182.826 329.38 183.878C329.38 184.929 330.243 185.782 331.307 185.782Z" fill="#2A323E"/>
        <path d="M321.785 54.0588C322.849 54.0588 323.712 53.2061 323.712 52.1542C323.712 51.1023 322.849 50.2496 321.785 50.2496C320.72 50.2496 319.857 51.1023 319.857 52.1542C319.857 53.2061 320.72 54.0588 321.785 54.0588Z" fill="#2A323E"/>
        <path d="M321.785 63.4675C322.849 63.4675 323.712 62.6148 323.712 61.5629C323.712 60.511 322.849 59.6583 321.785 59.6583C320.72 59.6583 319.857 60.511 319.857 61.5629C319.857 62.6148 320.72 63.4675 321.785 63.4675Z" fill="#2A323E"/>
        <path d="M321.785 72.8758C322.849 72.8758 323.712 72.0231 323.712 70.9712C323.712 69.9193 322.849 69.0665 321.785 69.0665C320.72 69.0665 319.857 69.9193 319.857 70.9712C319.857 72.0231 320.72 72.8758 321.785 72.8758Z" fill="#2A323E"/>
        <path d="M321.785 82.2868C322.849 82.2868 323.712 81.4341 323.712 80.3822C323.712 79.3303 322.849 78.4775 321.785 78.4775C320.72 78.4775 319.857 79.3303 319.857 80.3822C319.857 81.4341 320.72 82.2868 321.785 82.2868Z" fill="#2A323E"/>
        <path d="M321.785 91.694C322.849 91.694 323.712 90.8413 323.712 89.7894C323.712 88.7375 322.849 87.8848 321.785 87.8848C320.72 87.8848 319.857 88.7375 319.857 89.7894C319.857 90.8413 320.72 91.694 321.785 91.694Z" fill="#2A323E"/>
        <path d="M321.785 101.104C322.849 101.104 323.712 100.251 323.712 99.1991C323.712 98.1472 322.849 97.2944 321.785 97.2944C320.72 97.2944 319.857 98.1472 319.857 99.1991C319.857 100.251 320.72 101.104 321.785 101.104Z" fill="#2A323E"/>
        <path d="M321.785 110.512C322.849 110.512 323.712 109.659 323.712 108.607C323.712 107.555 322.849 106.702 321.785 106.702C320.72 106.702 319.857 107.555 319.857 108.607C319.857 109.659 320.72 110.512 321.785 110.512Z" fill="#2A323E"/>
        <path d="M321.785 119.923C322.849 119.923 323.712 119.07 323.712 118.018C323.712 116.966 322.849 116.114 321.785 116.114C320.72 116.114 319.857 116.966 319.857 118.018C319.857 119.07 320.72 119.923 321.785 119.923Z" fill="#2A323E"/>
        <path d="M321.785 129.329C322.849 129.329 323.712 128.477 323.712 127.425C323.712 126.373 322.849 125.52 321.785 125.52C320.72 125.52 319.857 126.373 319.857 127.425C319.857 128.477 320.72 129.329 321.785 129.329Z" fill="#2A323E"/>
        <path d="M321.785 138.74C322.849 138.74 323.712 137.887 323.712 136.835C323.712 135.783 322.849 134.93 321.785 134.93C320.72 134.93 319.857 135.783 319.857 136.835C319.857 137.887 320.72 138.74 321.785 138.74Z" fill="#2A323E"/>
        <path d="M321.785 148.148C322.849 148.148 323.712 147.295 323.712 146.243C323.712 145.191 322.849 144.339 321.785 144.339C320.72 144.339 319.857 145.191 319.857 146.243C319.857 147.295 320.72 148.148 321.785 148.148Z" fill="#2A323E"/>
        <path d="M321.785 157.557C322.849 157.557 323.712 156.705 323.712 155.653C323.712 154.601 322.849 153.748 321.785 153.748C320.72 153.748 319.857 154.601 319.857 155.653C319.857 156.705 320.72 157.557 321.785 157.557Z" fill="#2A323E"/>
        <path d="M321.785 166.965C322.849 166.965 323.712 166.112 323.712 165.061C323.712 164.009 322.849 163.156 321.785 163.156C320.72 163.156 319.857 164.009 319.857 165.061C319.857 166.112 320.72 166.965 321.785 166.965Z" fill="#2A323E"/>
        <path d="M321.785 176.376C322.849 176.376 323.712 175.523 323.712 174.471C323.712 173.419 322.849 172.567 321.785 172.567C320.72 172.567 319.857 173.419 319.857 174.471C319.857 175.523 320.72 176.376 321.785 176.376Z" fill="#2A323E"/>
        <path d="M321.785 185.782C322.849 185.782 323.712 184.929 323.712 183.878C323.712 182.826 322.849 181.973 321.785 181.973C320.72 181.973 319.857 182.826 319.857 183.878C319.857 184.929 320.72 185.782 321.785 185.782Z" fill="#2A323E"/>
        <path d="M312.263 54.0588C313.328 54.0588 314.191 53.2061 314.191 52.1542C314.191 51.1023 313.328 50.2496 312.263 50.2496C311.199 50.2496 310.336 51.1023 310.336 52.1542C310.336 53.2061 311.199 54.0588 312.263 54.0588Z" fill="#2A323E"/>
        <path d="M312.263 63.4675C313.328 63.4675 314.191 62.6148 314.191 61.5629C314.191 60.511 313.328 59.6583 312.263 59.6583C311.199 59.6583 310.336 60.511 310.336 61.5629C310.336 62.6148 311.199 63.4675 312.263 63.4675Z" fill="#2A323E"/>
        <path d="M312.263 72.8758C313.328 72.8758 314.191 72.0231 314.191 70.9712C314.191 69.9193 313.328 69.0665 312.263 69.0665C311.199 69.0665 310.336 69.9193 310.336 70.9712C310.336 72.0231 311.199 72.8758 312.263 72.8758Z" fill="#2A323E"/>
        <path d="M312.263 82.2868C313.328 82.2868 314.191 81.4341 314.191 80.3822C314.191 79.3303 313.328 78.4775 312.263 78.4775C311.199 78.4775 310.336 79.3303 310.336 80.3822C310.336 81.4341 311.199 82.2868 312.263 82.2868Z" fill="#2A323E"/>
        <path d="M312.263 91.694C313.328 91.694 314.191 90.8413 314.191 89.7894C314.191 88.7375 313.328 87.8848 312.263 87.8848C311.199 87.8848 310.336 88.7375 310.336 89.7894C310.336 90.8413 311.199 91.694 312.263 91.694Z" fill="#2A323E"/>
        <path d="M312.263 101.104C313.328 101.104 314.191 100.251 314.191 99.1991C314.191 98.1472 313.328 97.2944 312.263 97.2944C311.199 97.2944 310.336 98.1472 310.336 99.1991C310.336 100.251 311.199 101.104 312.263 101.104Z" fill="#2A323E"/>
        <path d="M312.263 110.512C313.328 110.512 314.191 109.659 314.191 108.607C314.191 107.555 313.328 106.702 312.263 106.702C311.199 106.702 310.336 107.555 310.336 108.607C310.336 109.659 311.199 110.512 312.263 110.512Z" fill="#2A323E"/>
        <path d="M312.263 119.923C313.328 119.923 314.191 119.07 314.191 118.018C314.191 116.966 313.328 116.114 312.263 116.114C311.199 116.114 310.336 116.966 310.336 118.018C310.336 119.07 311.199 119.923 312.263 119.923Z" fill="#2A323E"/>
        <path d="M312.263 129.329C313.328 129.329 314.191 128.477 314.191 127.425C314.191 126.373 313.328 125.52 312.263 125.52C311.199 125.52 310.336 126.373 310.336 127.425C310.336 128.477 311.199 129.329 312.263 129.329Z" fill="#2A323E"/>
        <path d="M312.263 138.74C313.328 138.74 314.191 137.887 314.191 136.835C314.191 135.783 313.328 134.93 312.263 134.93C311.199 134.93 310.336 135.783 310.336 136.835C310.336 137.887 311.199 138.74 312.263 138.74Z" fill="#2A323E"/>
        <path d="M312.263 148.148C313.328 148.148 314.191 147.295 314.191 146.243C314.191 145.191 313.328 144.339 312.263 144.339C311.199 144.339 310.336 145.191 310.336 146.243C310.336 147.295 311.199 148.148 312.263 148.148Z" fill="#2A323E"/>
        <path d="M312.263 157.557C313.328 157.557 314.191 156.705 314.191 155.653C314.191 154.601 313.328 153.748 312.263 153.748C311.199 153.748 310.336 154.601 310.336 155.653C310.336 156.705 311.199 157.557 312.263 157.557Z" fill="#2A323E"/>
        <path d="M312.263 166.965C313.328 166.965 314.191 166.112 314.191 165.061C314.191 164.009 313.328 163.156 312.263 163.156C311.199 163.156 310.336 164.009 310.336 165.061C310.336 166.112 311.199 166.965 312.263 166.965Z" fill="#2A323E"/>
        <path d="M312.263 176.376C313.328 176.376 314.191 175.523 314.191 174.471C314.191 173.419 313.328 172.567 312.263 172.567C311.199 172.567 310.336 173.419 310.336 174.471C310.336 175.523 311.199 176.376 312.263 176.376Z" fill="#2A323E"/>
        <path d="M312.263 185.782C313.328 185.782 314.191 184.929 314.191 183.878C314.191 182.826 313.328 181.973 312.263 181.973C311.199 181.973 310.336 182.826 310.336 183.878C310.336 184.929 311.199 185.782 312.263 185.782Z" fill="#2A323E"/>
        <path d="M302.742 54.0588C303.806 54.0588 304.669 53.206 304.669 52.1541C304.669 51.1022 303.806 50.2495 302.742 50.2495C301.677 50.2495 300.814 51.1022 300.814 52.1541C300.814 53.206 301.677 54.0588 302.742 54.0588Z" fill="#2A323E"/>
        <path d="M302.742 63.4675C303.806 63.4675 304.669 62.6148 304.669 61.5629C304.669 60.511 303.806 59.6583 302.742 59.6583C301.677 59.6583 300.814 60.511 300.814 61.5629C300.814 62.6148 301.677 63.4675 302.742 63.4675Z" fill="#2A323E"/>
        <path d="M302.742 72.8758C303.806 72.8758 304.669 72.0231 304.669 70.9712C304.669 69.9193 303.806 69.0665 302.742 69.0665C301.677 69.0665 300.814 69.9193 300.814 70.9712C300.814 72.0231 301.677 72.8758 302.742 72.8758Z" fill="#2A323E"/>
        <path d="M302.742 82.2868C303.806 82.2868 304.669 81.4341 304.669 80.3822C304.669 79.3303 303.806 78.4775 302.742 78.4775C301.677 78.4775 300.814 79.3303 300.814 80.3822C300.814 81.4341 301.677 82.2868 302.742 82.2868Z" fill="#2A323E"/>
        <path d="M302.742 91.694C303.806 91.694 304.669 90.8413 304.669 89.7894C304.669 88.7375 303.806 87.8848 302.742 87.8848C301.677 87.8848 300.814 88.7375 300.814 89.7894C300.814 90.8413 301.677 91.694 302.742 91.694Z" fill="#2A323E"/>
        <path d="M302.742 101.104C303.806 101.104 304.669 100.251 304.669 99.1991C304.669 98.1472 303.806 97.2944 302.742 97.2944C301.677 97.2944 300.814 98.1472 300.814 99.1991C300.814 100.251 301.677 101.104 302.742 101.104Z" fill="#2A323E"/>
        <path d="M302.742 110.512C303.806 110.512 304.669 109.659 304.669 108.607C304.669 107.555 303.806 106.702 302.742 106.702C301.677 106.702 300.814 107.555 300.814 108.607C300.814 109.659 301.677 110.512 302.742 110.512Z" fill="#2A323E"/>
        <path d="M302.742 119.923C303.806 119.923 304.669 119.07 304.669 118.018C304.669 116.966 303.806 116.114 302.742 116.114C301.677 116.114 300.814 116.966 300.814 118.018C300.814 119.07 301.677 119.923 302.742 119.923Z" fill="#2A323E"/>
        <path d="M302.742 129.329C303.806 129.329 304.669 128.477 304.669 127.425C304.669 126.373 303.806 125.52 302.742 125.52C301.677 125.52 300.814 126.373 300.814 127.425C300.814 128.477 301.677 129.329 302.742 129.329Z" fill="#2A323E"/>
        <path d="M302.742 138.74C303.806 138.74 304.669 137.887 304.669 136.835C304.669 135.783 303.806 134.93 302.742 134.93C301.677 134.93 300.814 135.783 300.814 136.835C300.814 137.887 301.677 138.74 302.742 138.74Z" fill="#2A323E"/>
        <path d="M302.742 148.148C303.806 148.148 304.669 147.295 304.669 146.243C304.669 145.191 303.806 144.339 302.742 144.339C301.677 144.339 300.814 145.191 300.814 146.243C300.814 147.295 301.677 148.148 302.742 148.148Z" fill="#2A323E"/>
        <path d="M302.742 157.557C303.806 157.557 304.669 156.705 304.669 155.653C304.669 154.601 303.806 153.748 302.742 153.748C301.677 153.748 300.814 154.601 300.814 155.653C300.814 156.705 301.677 157.557 302.742 157.557Z" fill="#2A323E"/>
        <path d="M302.742 166.965C303.806 166.965 304.669 166.112 304.669 165.061C304.669 164.009 303.806 163.156 302.742 163.156C301.677 163.156 300.814 164.009 300.814 165.061C300.814 166.112 301.677 166.965 302.742 166.965Z" fill="#2A323E"/>
        <path d="M302.742 176.376C303.806 176.376 304.669 175.523 304.669 174.471C304.669 173.419 303.806 172.567 302.742 172.567C301.677 172.567 300.814 173.419 300.814 174.471C300.814 175.523 301.677 176.376 302.742 176.376Z" fill="#2A323E"/>
        <path d="M302.742 185.782C303.806 185.782 304.669 184.929 304.669 183.878C304.669 182.826 303.806 181.973 302.742 181.973C301.677 181.973 300.814 182.826 300.814 183.878C300.814 184.929 301.677 185.782 302.742 185.782Z" fill="#2A323E"/>
        <path d="M363.267 148.034C324.716 148.034 293.48 117.228 293.48 79.2063C293.48 41.185 324.716 10.3785 363.267 10.3785C401.818 10.3785 433.053 41.185 433.053 79.2063C433.053 117.228 401.818 148.034 363.267 148.034Z" fill="#23FBD3"/>
        <path d="M363.267 149.944C323.709 149.944 291.545 118.221 291.545 79.2072C291.545 40.1932 323.709 8.47058 363.267 8.47058C402.824 8.47058 434.988 40.1932 434.988 79.2072C434.988 118.221 402.824 149.944 363.267 149.944ZM363.267 12.288C325.838 12.288 295.415 42.2928 295.415 79.2072C295.415 116.122 325.838 146.126 363.267 146.126C400.695 146.126 431.118 116.122 431.118 79.2072C431.118 42.2928 400.695 12.288 363.267 12.288Z" fill="#2A323E"/>
        <path d="M363.267 146.622C324.716 146.622 293.48 115.816 293.48 77.7941C293.48 39.7727 324.716 8.96625 363.267 8.96625C401.818 8.96625 433.053 39.7727 433.053 77.7941C433.053 115.816 401.818 146.622 363.267 146.622Z" fill="#23FBD3"/>
        <path d="M363.267 148.531C323.709 148.531 291.545 116.809 291.545 77.7948C291.545 38.7808 323.709 7.05817 363.267 7.05817C402.824 7.05817 434.988 38.7808 434.988 77.7948C434.988 116.809 402.824 148.531 363.267 148.531ZM363.267 10.8756C325.838 10.8756 295.415 40.8804 295.415 77.7948C295.415 114.709 325.838 144.714 363.267 144.714C400.695 144.714 431.118 114.709 431.118 77.7948C431.118 40.8804 400.695 10.8756 363.267 10.8756Z" fill="#2A323E"/>
        <path d="M339.501 67.756L362.26 99.0969L393.186 61.4191" fill="#23FBD3"/>
        <path d="M362.26 102.914C362.221 102.914 362.183 102.914 362.144 102.914C360.944 102.876 359.822 102.303 359.125 101.311L336.366 69.9698C335.127 68.252 335.515 65.8852 337.256 64.6254C338.998 63.4039 341.398 63.7856 342.675 65.5035L362.492 92.7598L390.206 58.9757C391.56 57.3342 393.999 57.067 395.663 58.4031C397.328 59.7392 397.599 62.1441 396.244 63.7856L365.318 101.463C364.544 102.38 363.421 102.914 362.26 102.914Z" fill="#2A323E"/>
        <path d="M109 149.346H171V145.95H110.719V110.054H107.282V147.682C107.282 148.599 108.038 149.346 109 149.346Z" fill="#2A323E"/>
        <path d="M311.019 248.824H55.4082C55.4082 248.824 125.53 225.483 139.288 188.829C141.841 182.031 143.6 175.599 144.819 169.42C151.599 135.069 198.347 130.182 211.707 162.454C221.295 185.683 231.649 205.148 256.64 214.304C285.148 224.809 301.629 238.066 311.019 248.824Z" fill="#5B6C84"/>
        <path d="M311.02 250.228H55.4092C54.7284 250.228 54.1327 249.722 54.0193 249.048C53.9058 248.374 54.3029 247.7 54.9554 247.503C55.1256 247.447 72.6277 241.577 91.5481 231.325C108.88 221.944 131.006 206.861 137.956 188.351C140.338 182.003 142.126 175.74 143.43 169.167C146.664 152.736 159.401 141.136 175.91 139.507C183.512 138.776 190.944 140.293 197.383 143.916C204.362 147.849 209.78 154.056 213.013 161.892C217.41 172.538 222.459 183.66 229.523 192.761C236.87 202.226 245.89 208.827 257.123 212.956C270.257 217.787 281.916 223.629 291.787 230.286C299.758 235.65 306.566 241.577 312.069 247.897C312.438 248.318 312.523 248.908 312.296 249.385C312.069 249.863 311.587 250.228 311.02 250.228ZM63.2951 247.419H307.843C292.723 231.353 271.562 221.298 256.159 215.624C230.005 206.046 219.594 185.261 210.404 162.988C207.397 155.741 202.404 149.983 195.994 146.388C190.065 143.046 183.2 141.641 176.194 142.344C169.187 143.018 162.493 145.854 157.273 150.292C151.572 155.18 147.742 161.892 146.21 169.701C144.877 176.414 143.062 182.846 140.622 189.334C137.388 197.929 130.892 206.467 121.305 214.753C113.702 221.326 104.143 227.73 92.853 233.825C81.3078 240.06 70.2449 244.695 63.2951 247.419Z" fill="#5B6C84"/>
        <path d="M428.764 218.299H423.342V235.927H428.764V218.299Z" fill="#2A323E"/>
        <path d="M434.999 224.461H417.16V229.819H434.999V224.461Z" fill="#2A323E"/>
        <path d="M109 110.02C83.4138 110.02 62.672 89.5241 62.672 64.2412C62.672 38.9583 83.4138 18.4625 109 18.4625C134.586 18.4625 155.328 38.9583 155.328 64.2412C155.328 89.5241 134.586 110.02 109 110.02Z" fill="#23FBD3"/>
        <path d="M109 111.752C135.498 111.752 157.047 90.4587 157.047 64.2751C157.047 38.0916 135.498 16.7984 109 16.7984C82.5027 16.7984 60.9539 38.0916 60.9539 64.2751C60.9196 90.4247 82.5027 111.752 109 111.752ZM109 20.1605C133.608 20.1605 153.61 39.9255 153.61 64.2412C153.61 88.5569 133.608 108.322 109 108.322C84.3929 108.322 64.3907 88.5569 64.3907 64.2412C64.3907 39.9255 84.3929 20.1605 109 20.1605Z" fill="#2A323E"/>
        <path d="M109 63.528C102.319 63.528 96.9026 58.176 96.9026 51.5739C96.9026 44.9718 102.319 39.6198 109 39.6198C115.681 39.6198 121.098 44.9718 121.098 51.5739C121.098 58.176 115.681 63.528 109 63.528Z" fill="white"/>
        <path d="M109 65.2261C116.595 65.2261 122.815 59.1132 122.815 51.574C122.815 44.0687 116.629 37.9219 109 37.9219C101.404 37.9219 95.1836 44.0348 95.1836 51.574C95.1836 59.1132 101.37 65.2261 109 65.2261ZM109 41.3519C114.705 41.3519 119.379 45.9366 119.379 51.608C119.379 57.2794 114.739 61.864 109 61.864C103.294 61.864 98.6204 57.2794 98.6204 51.608C98.6204 45.9366 103.26 41.3519 109 41.3519Z" fill="#2A323E"/>
        <path d="M89.9605 86.8249H128.006V82.3421C128.006 71.9502 119.483 63.562 109 63.562C98.4837 63.562 89.9948 71.9842 89.9948 82.3421L89.9605 86.8249Z" fill="white"/>
        <path d="M89.9598 88.523H128.005C128.968 88.523 129.724 87.7759 129.724 86.825V82.3422C129.724 71.0333 120.41 61.864 109 61.864C97.5895 61.864 88.2758 71.0673 88.2758 82.3422V86.825C88.2414 87.7419 89.0319 88.523 89.9598 88.523ZM126.287 85.1269H91.6782V82.3422C91.6782 72.9012 99.4454 65.2601 108.965 65.2601C118.52 65.2601 126.252 72.9351 126.252 82.3422L126.287 85.1269Z" fill="#2A323E"/>
        <path d="M78.4465 245.692C62.028 245.692 48.7182 232.54 48.7182 216.316C48.7182 200.092 62.028 186.94 78.4465 186.94C94.865 186.94 108.175 200.092 108.175 216.316C108.175 232.54 94.865 245.692 78.4465 245.692Z" fill="#DCE0E8"/>
        <path d="M78.4468 247.39C95.8027 247.39 109.894 233.432 109.894 216.316C109.894 199.2 95.7683 185.242 78.4468 185.242C61.1254 185.242 47.0001 199.2 47.0001 216.316C47.0001 233.432 61.091 247.39 78.4468 247.39ZM78.4468 188.604C93.9124 188.604 106.457 201.034 106.457 216.282C106.457 231.53 93.8781 243.96 78.4468 243.96C62.9812 243.96 50.4369 231.53 50.4369 216.282C50.4369 201.034 62.9812 188.604 78.4468 188.604Z" fill="#2A323E"/>
        <path d="M78.4467 215.841C74.157 215.841 70.6795 212.405 70.6795 208.166C70.6795 203.927 74.157 200.491 78.4467 200.491C82.7364 200.491 86.2139 203.927 86.2139 208.166C86.2139 212.405 82.7364 215.841 78.4467 215.841Z" fill="white"/>
        <path d="M78.4471 217.539C83.671 217.539 87.9326 213.328 87.9326 208.166C87.9326 203.004 83.671 198.793 78.4471 198.793C73.2231 198.793 68.9615 203.004 68.9615 208.166C68.9615 213.328 73.2231 217.539 78.4471 217.539ZM78.4471 202.223C81.7808 202.223 84.4958 204.905 84.4958 208.2C84.4958 211.494 81.7808 214.177 78.4471 214.177C75.1134 214.177 72.3983 211.494 72.3983 208.2C72.3983 204.872 75.1134 202.223 78.4471 202.223Z" fill="#2A323E"/>
        <path d="M66.213 230.783H90.6143V227.897C90.6143 221.241 85.1497 215.841 78.4136 215.841C71.6775 215.841 66.213 221.241 66.213 227.897V230.783Z" fill="white"/>
        <path d="M66.2124 232.481H90.6136C91.5759 232.481 92.332 231.734 92.332 230.783V227.897C92.332 220.324 86.0771 214.143 78.413 214.143C70.7489 214.143 64.494 220.324 64.494 227.897V230.783C64.494 231.734 65.2844 232.481 66.2124 232.481ZM88.9296 229.085H67.9651V227.897C67.9651 222.191 72.6735 217.539 78.4474 217.539C84.2212 217.539 88.9296 222.191 88.9296 227.897V229.085Z" fill="#2A323E"/>
        <path d="M76.7284 186.906H80.1652V149.346H109V145.95H78.4468C77.4845 145.95 76.7284 146.697 76.7284 147.648V186.906Z" fill="#2A323E"/>
        <path d="M109.001 151.486C106.856 151.486 105.118 149.768 105.118 147.648C105.118 145.529 106.856 143.811 109.001 143.811C111.146 143.811 112.885 145.529 112.885 147.648C112.885 149.768 111.146 151.486 109.001 151.486Z" fill="#2A323E"/>
        <path d="M109.001 153.184C112.094 153.184 114.603 150.705 114.603 147.648C114.603 144.592 112.094 142.113 109.001 142.113C105.907 142.113 103.399 144.592 103.399 147.648C103.399 150.705 105.907 153.184 109.001 153.184ZM109.001 145.509C110.203 145.509 111.166 146.46 111.166 147.648C111.166 148.837 110.203 149.788 109.001 149.788C107.798 149.788 106.835 148.837 106.835 147.648C106.835 146.46 107.798 145.509 109.001 145.509Z" fill="#2A323E"/>
        <path d="M78.4484 151.486C76.3036 151.486 74.5649 149.768 74.5649 147.648C74.5649 145.529 76.3036 143.811 78.4484 143.811C80.5933 143.811 82.332 145.529 82.332 147.648C82.332 149.768 80.5933 151.486 78.4484 151.486Z" fill="#2A323E"/>
        <path d="M78.4478 153.184C81.5409 153.184 84.0498 150.705 84.0498 147.648C84.0498 144.592 81.5409 142.113 78.4478 142.113C75.3547 142.113 72.8458 144.592 72.8458 147.648C72.8458 150.705 75.3547 153.184 78.4478 153.184ZM78.4478 145.509C79.6507 145.509 80.613 146.46 80.613 147.648C80.613 148.837 79.6507 149.788 78.4478 149.788C77.2449 149.788 76.2826 148.837 76.2826 147.648C76.2826 146.46 77.2449 145.509 78.4478 145.509Z" fill="#2A323E"/>
        <path d="M136.03 1.45808C135.89 0.624893 135.154 0 134.314 0H1.75161C0.770709 0 0 0.763758 0 1.73581V103.524C0 104.01 0.210193 104.496 0.595548 104.843C0.910838 105.121 1.33122 105.26 1.75161 105.26C1.82168 105.26 1.89174 105.26 1.9618 105.26C43.0546 100.122 55.456 79.8822 68.5931 58.4622C74.8639 48.2209 81.3799 37.6324 91.329 28.016C102.574 17.1498 116.832 9.09567 134.839 3.43691C135.68 3.12447 136.17 2.32599 136.03 1.45808Z" fill="#2A323E"/>
        <path d="M154.382 28.6561H147.194V52.0237H154.382V28.6561Z" fill="#2A323E"/>
        <path d="M162.648 36.8234H139V43.926H162.648V36.8234Z" fill="#2A323E"/>
    </g>
</svg>
