<svg width="105" height="40" viewBox="0 0 105 40" fill="none" xmlns="http://www.w3.org/2000/svg">
    <path d="M57.3536 20.3536C57.5488 20.1583 57.5488 19.8417 57.3536 19.6464L54.1716 16.4645C53.9763 16.2692 53.6597 16.2692 53.4645 16.4645C53.2692 16.6597 53.2692 16.9763 53.4645 17.1716L56.2929 20L53.4645 22.8284C53.2692 23.0237 53.2692 23.3403 53.4645 23.5355C53.6597 23.7308 53.9763 23.7308 54.1716 23.5355L57.3536 20.3536ZM48 20.5H57V19.5H48V20.5Z" fill="#5B6C84"/>
    <circle cx="85" cy="20" r="20" fill="#2A323E"/>
    <mask id="mask0" mask-type="alpha" maskUnits="userSpaceOnUse" x="65" y="0" width="40" height="40">
        <circle cx="85" cy="20" r="20" fill="#2A323E"/>
    </mask>
    <g mask="url(#mask0)">
        <path d="M74.4735 26C73.9005 26 73.3417 25.9566 72.7972 25.8697C72.2526 25.7877 71.7577 25.6719 71.3125 25.5224V23.0112C71.7577 23.1607 72.2691 23.2814 72.8469 23.373C73.4246 23.4599 73.9597 23.5033 74.4522 23.5033C75.0442 23.5033 75.4443 23.4333 75.6527 23.2934C75.8658 23.1487 75.9724 22.9629 75.9724 22.7362C75.9724 22.5432 75.899 22.3864 75.7522 22.2658C75.6053 22.1452 75.2928 22.0221 74.8145 21.8967L73.8769 21.6507C72.9345 21.4143 72.2194 21.0379 71.7316 20.5217C71.2439 20.0007 71 19.3132 71 18.4592C71 17.3689 71.3954 16.5197 72.1863 15.9118C72.9818 15.3039 74.1847 15 75.7948 15C76.3157 15 76.8011 15.0289 77.251 15.0868C77.7008 15.1447 78.0939 15.2195 78.4301 15.3112V17.8224C78.1128 17.7259 77.7364 17.6487 77.3007 17.5908C76.865 17.5281 76.4293 17.4967 75.9937 17.4967C75.4775 17.4967 75.0797 17.5329 74.8003 17.6053C74.5209 17.6776 74.3267 17.7741 74.2178 17.8947C74.1089 18.0154 74.0544 18.148 74.0544 18.2928C74.0544 18.4664 74.116 18.6064 74.2391 18.7125C74.3623 18.8186 74.6203 18.9272 75.0134 19.0382L75.951 19.2842C77.0023 19.5447 77.7766 19.9355 78.2738 20.4566C78.7758 20.9776 79.0268 21.6651 79.0268 22.5191C79.0268 23.2283 78.8445 23.8434 78.4798 24.3645C78.1199 24.8855 77.599 25.2884 76.9171 25.573C76.2399 25.8577 75.4254 26 74.4735 26Z" fill="#23FBD3"/>
        <path d="M83.4534 26C82.8804 26 82.3216 25.9566 81.777 25.8697C81.2324 25.7877 80.7376 25.6719 80.2924 25.5224V23.0112C80.7376 23.1607 81.249 23.2814 81.8267 23.373C82.4045 23.4599 82.9396 23.5033 83.4321 23.5033C84.024 23.5033 84.4242 23.4333 84.6326 23.2934C84.8457 23.1487 84.9522 22.9629 84.9522 22.7362C84.9522 22.5432 84.8788 22.3864 84.732 22.2658C84.5852 22.1452 84.2727 22.0221 83.7944 21.8967L82.8567 21.6507C81.9143 21.4143 81.1993 21.0379 80.7115 20.5217C80.2237 20.0007 79.9799 19.3132 79.9799 18.4592C79.9799 17.3689 80.3753 16.5197 81.1661 15.9118C81.9617 15.3039 83.1645 15 84.7746 15C85.2955 15 85.7809 15.0289 86.2308 15.0868C86.6807 15.1447 87.0738 15.2195 87.41 15.3112V17.8224C87.0927 17.7259 86.7162 17.6487 86.2805 17.5908C85.8449 17.5281 85.4092 17.4967 84.9735 17.4967C84.4573 17.4967 84.0596 17.5329 83.7802 17.6053C83.5008 17.6776 83.3066 17.7741 83.1977 17.8947C83.0888 18.0154 83.0343 18.148 83.0343 18.2928C83.0343 18.4664 83.0959 18.6064 83.219 18.7125C83.3421 18.8186 83.6002 18.9272 83.9933 19.0382L84.9309 19.2842C85.9822 19.5447 86.7565 19.9355 87.2537 20.4566C87.7557 20.9776 88.0067 21.6651 88.0067 22.5191C88.0067 23.2283 87.8243 23.8434 87.4597 24.3645C87.0998 24.8855 86.5789 25.2884 85.897 25.573C85.2198 25.8577 84.4053 26 83.4534 26Z" fill="#23FBD3"/>
        <path d="M91.3071 25.8553L88.1887 15.1447H91.3994L93.6796 23.4092L96.0095 15.1447H99L95.8816 25.8553H91.3071Z" fill="#23FBD3"/>
    </g>
    <circle cx="20" cy="20" r="20" fill="#2A323E"/>
    <path d="M21.0024 7.25136C20.6918 7.0683 20.346 6.97681 20.0002 6.97681C19.6753 6.97681 19.3504 7.05758 19.0546 7.21917L19.0003 7.25019L9.84137 12.7258C9.5324 12.9131 9.28253 13.1779 9.10934 13.4885L18.9856 19.3932L20.0002 19.9999L20.0002 33.0233C20.3495 33.0233 20.6989 32.9297 21.0119 32.7426L30.1537 27.277C30.7785 26.9008 31.163 26.2089 31.163 25.4603V21.82L29.1334 23.0334V24.8536C29.1334 25.2289 28.94 25.5759 28.626 25.7636L28.1185 26.067L23.0446 29.1005L22.5373 29.4038C22.3117 29.5387 22.0298 29.37 22.0298 29.1004V18.7864L21.0119 18.1778L13.9114 13.9327L13.4041 13.6294C13.1785 13.4946 13.1785 13.1574 13.4041 13.0225L13.9114 12.7193L18.9869 9.68477L19.4936 9.38184C19.8071 9.19443 20.1933 9.19443 20.5067 9.38184L21.015 9.68574L22.0298 10.2925L24.0594 9.07903L21.0024 7.25136Z" fill="#32E0C4"/>
    <path d="M10.867 15.7529L8.8374 14.5394V25.469C8.83913 26.2156 9.2245 26.9051 9.84906 27.2785L9.85217 27.2803L18.9854 32.7408V30.314L11.8818 26.067L11.3744 25.7636L11.3341 25.7382C11.044 25.5456 10.867 25.2126 10.867 24.8536V15.7529Z" fill="#32E0C4"/>
    <path d="M30.1531 12.7224L25.0742 9.68574L23.0446 10.8992L28.1185 13.9327L28.1733 13.9666C28.7689 14.349 29.1334 15.0241 29.1334 15.7529V21.82L31.163 20.6066V14.5343C31.1612 13.8075 30.7972 13.1347 30.2029 12.7533L30.1531 12.7224Z" fill="#32E0C4"/>
</svg>
