<svg width="14" height="14" viewBox="0 0 14 14" fill="none" xmlns="http://www.w3.org/2000/svg">
    <path fill-rule="evenodd" clip-rule="evenodd" d="M7 14A7 7 0 1 0 7 0a7 7 0 0 0 0 14zM5.04 6.116V4.953h3.02V9.34h1.502V10.5H5.04V9.341h1.579V6.116h-1.58zM6.573 3.84a.834.834 0 0 1-.057-.308.736.736 0 0 1 .226-.549.8.8 0 0 1 .256-.153.976.976 0 0 1 .339-.056c.253 0 .453.071.6.215a.71.71 0 0 1 .225.543.725.725 0 0 1-.225.55c-.147.14-.347.21-.6.21a.976.976 0 0 1-.339-.057.755.755 0 0 1-.425-.395z" fill="#97A5BA"/>
</svg>
