<svg width="184" height="286" viewBox="0 0 184 286" fill="none" xmlns="http://www.w3.org/2000/svg">
<mask id="mask0_6832_99815" style="mask-type:alpha" maskUnits="userSpaceOnUse" x="0" y="-79" width="260" height="363">
<g opacity="0.08">
<path opacity="0.62" d="M74.6528 208.08L120.442 151.642C125.225 145.747 134.221 145.747 139.004 151.642L184.793 208.08C188.354 212.469 188.354 218.751 184.793 223.14L139.004 279.578C134.221 285.473 125.225 285.473 120.442 279.578L74.6528 223.14C71.0923 218.751 71.0923 212.469 74.6528 208.08Z" fill="#1BA5F8"/>
<path d="M146.217 70.0685L192.007 13.6305C196.79 7.73515 205.785 7.73515 210.568 13.6305L256.358 70.0685C259.918 74.457 259.918 80.7396 256.358 85.1281L210.568 141.566C205.785 147.461 196.79 147.461 192.007 141.566L146.217 85.1281C142.657 80.7396 142.657 74.457 146.217 70.0685Z" fill="#1BA5F8"/>
<path d="M3.13522 70.0685L48.9245 13.6305C53.7075 7.73515 62.7034 7.73515 67.4864 13.6305L113.276 70.0685C116.836 74.457 116.836 80.7396 113.276 85.1281L67.4864 141.566C62.7034 147.461 53.7075 147.461 48.9245 141.566L3.13522 85.1281C-0.425282 80.7396 -0.425282 74.457 3.13522 70.0685Z" fill="#1BA5F8"/>
<path d="M74.6528 -18.1405L120.442 -74.5785C125.225 -80.4738 134.221 -80.4738 139.004 -74.5785L184.793 -18.1405C188.354 -13.752 188.354 -7.46939 184.793 -3.08086L139.004 53.3571C134.221 59.2525 125.225 59.2525 120.442 53.3571L74.6528 -3.08086C71.0923 -7.46939 71.0923 -13.752 74.6528 -18.1405Z" fill="#1BA5F8"/>
</g>
</mask>
<g mask="url(#mask0_6832_99815)">
<path d="M0 16C0 7.16345 7.16344 0 16 0H168C176.837 0 184 7.16344 184 16V270C184 278.837 176.837 286 168 286H16C7.16344 286 0 278.837 0 270V16Z" fill="#1BA5F8"/>
</g>
</svg>
