<svg width="280" height="124" viewBox="0 0 280 124" fill="none" xmlns="http://www.w3.org/2000/svg">
<rect y="32" width="60" height="60" rx="12" fill="#F4F7FA"/>
<path fill-rule="evenodd" clip-rule="evenodd" d="M29.9884 44C30.4836 44 30.9789 44.1265 31.4238 44.3795L35.802 46.9056L32.8952 48.5827L31.4418 47.7441L30.7138 47.3241C30.265 47.0651 29.7119 47.0651 29.263 47.3241L28.5372 47.7428L21.268 51.937L20.5415 52.3561C20.2185 52.5425 20.2185 53.0085 20.5415 53.1949L21.268 53.614L31.4373 59.4814L32.8952 60.3226V74.5779C32.8952 74.9506 33.299 75.1837 33.622 74.9973L34.3486 74.5782L41.6155 70.3853L42.3422 69.966C42.7919 69.7065 43.0689 69.227 43.0689 68.7082V66.1925L45.9757 64.5154V69.5467C45.9757 70.5815 45.425 71.5378 44.5302 72.0578L31.4374 79.612C30.9891 79.8707 30.4887 80 29.9884 80L29.9884 61.9997L28.5353 61.1613L14.3906 53.0001C14.6387 52.5708 14.9965 52.2049 15.439 51.946L28.5564 44.3779L28.6342 44.335C29.0578 44.1116 29.5231 44 29.9884 44ZM14 54.453L16.9068 56.1301V68.7086C16.9068 69.2048 17.1602 69.6651 17.5758 69.9312L17.6334 69.9663L18.3602 70.3856L28.5339 76.2556V79.6099L15.4533 72.0627L15.4489 72.0602C14.5544 71.544 14.0025 70.5911 14 69.5592V54.453ZM44.5245 51.9413L37.2505 47.7441L34.3438 49.4213L41.6106 53.614L41.6891 53.6609C42.5421 54.1895 43.064 55.1225 43.064 56.1298V64.5154L45.9708 62.8383V54.4455C45.9684 53.4409 45.4469 52.511 44.5959 51.9839L44.5245 51.9413Z" fill="#CBD3E5"/>
<path d="M64.5788 66.058L63.9068 65.392L66.1148 63.22L63.9068 61.048L64.5788 60.382L67.4168 63.22L64.5788 66.058ZM68.0437 66.058L67.3717 65.392L69.5797 63.22L67.3717 61.048L68.0437 60.382L70.8817 63.22L68.0437 66.058ZM71.5085 66.058L70.8365 65.392L73.0445 63.22L70.8365 61.048L71.5085 60.382L74.3465 63.22L71.5085 66.058ZM74.9733 66.058L74.3013 65.392L76.5093 63.22L74.3013 61.048L74.9733 60.382L77.8113 63.22L74.9733 66.058ZM78.4382 66.058L77.7662 65.392L79.9742 63.22L77.7662 61.048L78.4382 60.382L81.2762 63.22L78.4382 66.058ZM81.903 66.058L81.231 65.392L83.439 63.22L81.231 61.048L81.903 60.382L84.741 63.22L81.903 66.058ZM85.3679 66.058L84.6959 65.392L86.9039 63.22L84.6959 61.048L85.3679 60.382L88.2059 63.22L85.3679 66.058ZM88.8327 66.058L88.1607 65.392L90.3687 63.22L88.1607 61.048L88.8327 60.382L91.6707 63.22L88.8327 66.058ZM92.2976 66.058L91.6256 65.392L93.8336 63.22L91.6256 61.048L92.2976 60.382L95.1356 63.22L92.2976 66.058ZM95.7624 66.058L95.0904 65.392L97.2984 63.22L95.0904 61.048L95.7624 60.382L98.6004 63.22L95.7624 66.058ZM99.2273 66.058L98.5553 65.392L100.763 63.22L98.5553 61.048L99.2273 60.382L102.065 63.22L99.2273 66.058ZM102.692 66.058L102.02 65.392L104.228 63.22L102.02 61.048L102.692 60.382L105.53 63.22L102.692 66.058ZM106.157 66.058L105.485 65.392L107.693 63.22L105.485 61.048L106.157 60.382L108.995 63.22L106.157 66.058ZM109.622 66.058L108.95 65.392L111.158 63.22L108.95 61.048L109.622 60.382L112.46 63.22L109.622 66.058ZM113.087 66.058L112.415 65.392L114.623 63.22L112.415 61.048L113.087 60.382L115.925 63.22L113.087 66.058ZM116.551 66.058L115.879 65.392L118.087 63.22L115.879 61.048L116.551 60.382L119.389 63.22L116.551 66.058ZM120.016 66.058L119.344 65.392L121.552 63.22L119.344 61.048L120.016 60.382L122.854 63.22L120.016 66.058ZM123.481 66.058L122.809 65.392L125.017 63.22L122.809 61.048L123.481 60.382L126.319 63.22L123.481 66.058ZM126.946 66.058L126.274 65.392L128.482 63.22L126.274 61.048L126.946 60.382L129.784 63.22L126.946 66.058ZM130.411 66.058L129.739 65.392L131.947 63.22L129.739 61.048L130.411 60.382L133.249 63.22L130.411 66.058ZM133.876 66.058L133.204 65.392L135.412 63.22L133.204 61.048L133.876 60.382L136.714 63.22L133.876 66.058ZM137.341 66.058L136.669 65.392L138.877 63.22L136.669 61.048L137.341 60.382L140.179 63.22L137.341 66.058ZM140.805 66.058L140.133 65.392L142.341 63.22L140.133 61.048L140.805 60.382L143.643 63.22L140.805 66.058ZM144.27 66.058L143.598 65.392L145.806 63.22L143.598 61.048L144.27 60.382L147.108 63.22L144.27 66.058ZM147.735 66.058L147.063 65.392L149.271 63.22L147.063 61.048L147.735 60.382L150.573 63.22L147.735 66.058ZM151.2 66.058L150.528 65.392L152.736 63.22L150.528 61.048L151.2 60.382L154.038 63.22L151.2 66.058ZM154.665 66.058L153.993 65.392L156.201 63.22L153.993 61.048L154.665 60.382L157.503 63.22L154.665 66.058ZM158.13 66.058L157.458 65.392L159.666 63.22L157.458 61.048L158.13 60.382L160.968 63.22L158.13 66.058ZM161.594 66.058L160.922 65.392L163.13 63.22L160.922 61.048L161.594 60.382L164.432 63.22L161.594 66.058ZM165.059 66.058L164.387 65.392L166.595 63.22L164.387 61.048L165.059 60.382L167.897 63.22L165.059 66.058ZM168.524 66.058L167.852 65.392L170.06 63.22L167.852 61.048L168.524 60.382L171.362 63.22L168.524 66.058ZM171.989 66.058L171.317 65.392L173.525 63.22L171.317 61.048L171.989 60.382L174.827 63.22L171.989 66.058ZM175.454 66.058L174.782 65.392L176.99 63.22L174.782 61.048L175.454 60.382L178.292 63.22L175.454 66.058ZM178.919 66.058L178.247 65.392L180.455 63.22L178.247 61.048L178.919 60.382L181.757 63.22L178.919 66.058ZM182.384 66.058L181.712 65.392L183.92 63.22L181.712 61.048L182.384 60.382L185.222 63.22L182.384 66.058ZM185.848 66.058L185.176 65.392L187.384 63.22L185.176 61.048L185.848 60.382L188.686 63.22L185.848 66.058Z" fill="url(#paint0_linear_14009_185110)"/>
<path d="M237.434 123.857C235.885 124.055 234.236 124.045 232.712 123.848C230.448 123.547 212.537 116.665 206.323 114.259C205.004 113.749 204.068 112.582 203.839 111.187L192 38.8818H279.22L267.387 111.2C267.155 112.615 266.197 113.793 264.853 114.292C258.436 116.677 239.777 123.561 237.434 123.857Z" fill="url(#paint1_linear_14009_185110)"/>
<path d="M231.851 109.152C233.95 109.786 237.381 109.786 239.505 109.152L245.829 107.225C247.928 106.591 247.928 105.526 245.829 104.892L239.505 102.966C237.406 102.332 233.976 102.332 231.851 102.966L225.528 104.892C223.428 105.526 223.428 106.591 225.528 107.225L231.851 109.152Z" fill="#FDFEFE"/>
<path d="M230.024 109.99L223.701 108.063C221.601 107.429 218.171 107.429 216.046 108.063L209.723 109.99C207.624 110.624 207.624 111.689 209.723 112.323L216.046 114.249C218.145 114.883 221.576 114.883 223.701 114.249L230.024 112.323C232.123 111.689 232.123 110.624 230.024 109.99Z" fill="#FDFEFE"/>
<path d="M261.629 109.99L255.306 108.063C253.207 107.429 249.776 107.429 247.652 108.063L241.328 109.99C239.229 110.624 239.229 111.689 241.328 112.323L247.652 114.249C249.751 114.883 253.181 114.883 255.306 114.249L261.629 112.323C263.729 111.689 263.729 110.649 261.629 109.99Z" fill="#FDFEFE"/>
<path d="M239.505 113.161C237.406 112.527 233.976 112.527 231.851 113.161L225.528 115.088C223.428 115.722 223.428 116.786 225.528 117.42L231.851 119.347C233.95 119.981 237.381 119.981 239.505 119.347L245.829 117.42C247.928 116.786 247.928 115.722 245.829 115.088L239.505 113.161Z" fill="#FDFEFE"/>
<path d="M265.243 90.7656H237.715L239.754 111.157H263.204L265.243 90.7656Z" fill="url(#paint2_linear_14009_185110)"/>
<path d="M233.634 90.7656H206.105L208.145 111.157H231.595L233.634 90.7656Z" fill="url(#paint3_linear_14009_185110)"/>
<path d="M249.438 95.8633H221.91L223.949 116.255H247.399L249.438 95.8633Z" fill="url(#paint4_linear_14009_185110)"/>
<path opacity="0.62" d="M222.669 70.156L233.869 56.3637C235.039 54.923 237.24 54.923 238.41 56.3637L249.61 70.156C250.481 71.2284 250.481 72.7638 249.61 73.8362L238.41 87.6285C237.24 89.0692 235.039 89.0692 233.869 87.6285L222.669 73.8362C221.798 72.7638 221.798 71.2284 222.669 70.156Z" fill="#1BA5F8"/>
<path d="M240.065 36.4299L251.266 22.6377C252.436 21.197 254.636 21.197 255.806 22.6377L267.007 36.4299C267.878 37.5024 267.878 39.0377 267.007 40.1102L255.806 53.9024C254.636 55.3431 252.436 55.3431 251.266 53.9024L240.065 40.1102C239.194 39.0377 239.194 37.5024 240.065 36.4299Z" fill="#1BA5F8"/>
<path d="M205.263 36.4299L216.463 22.6377C217.633 21.197 219.834 21.197 221.004 22.6377L232.204 36.4299C233.075 37.5024 233.075 39.0377 232.204 40.1102L221.004 53.9024C219.834 55.3431 217.633 55.3431 216.463 53.9024L205.263 40.1102C204.392 39.0377 204.392 37.5024 205.263 36.4299Z" fill="#1BA5F8"/>
<path d="M222.664 14.8728L233.865 1.08052C235.035 -0.360174 237.235 -0.360173 238.405 1.08052L249.606 14.8728C250.477 15.9452 250.477 17.4806 249.606 18.553L238.405 32.3453C237.235 33.786 235.035 33.786 233.865 32.3453L222.664 18.553C221.793 17.4806 221.793 15.9452 222.664 14.8728Z" fill="#1BA5F8"/>
<defs>
<linearGradient id="paint0_linear_14009_185110" x1="60" y1="63" x2="192" y2="63" gradientUnits="userSpaceOnUse">
<stop stop-color="#CBD3E5"/>
<stop offset="1" stop-color="#1BA5F8"/>
</linearGradient>
<linearGradient id="paint1_linear_14009_185110" x1="235.61" y1="124" x2="235.61" y2="38.8353" gradientUnits="userSpaceOnUse">
<stop stop-color="#1BA5F8" stop-opacity="0.4"/>
<stop offset="1" stop-color="#1BA5F8" stop-opacity="0"/>
</linearGradient>
<linearGradient id="paint2_linear_14009_185110" x1="251.479" y1="111.157" x2="251.479" y2="90.7656" gradientUnits="userSpaceOnUse">
<stop stop-color="#FDFEFE" stop-opacity="0.32"/>
<stop offset="1" stop-color="#FDFEFE" stop-opacity="0"/>
</linearGradient>
<linearGradient id="paint3_linear_14009_185110" x1="219.87" y1="111.157" x2="219.87" y2="90.7656" gradientUnits="userSpaceOnUse">
<stop stop-color="#FDFEFE" stop-opacity="0.32"/>
<stop offset="1" stop-color="#FDFEFE" stop-opacity="0"/>
</linearGradient>
<linearGradient id="paint4_linear_14009_185110" x1="235.674" y1="116.255" x2="235.674" y2="95.8633" gradientUnits="userSpaceOnUse">
<stop stop-color="#FDFEFE" stop-opacity="0.32"/>
<stop offset="1" stop-color="#FDFEFE" stop-opacity="0"/>
</linearGradient>
</defs>
</svg>
