<svg width="24" height="24" viewBox="0 0 24 24" fill="none" xmlns="http://www.w3.org/2000/svg">
    <path d="M10.605 13.429a1.305 1.305 0 1 1-1.845 1.845 1.305 1.305 0 0 1 1.845-1.845" stroke="#0B2A3C" stroke-width="1.5" stroke-linecap="round" stroke-linejoin="round"/>
    <path clip-rule="evenodd" d="m11.38 8.966.88.294a.494.494 0 0 1 .338.469v.844c0 .479.383.87.862.88l.799.018a.493.493 0 0 1 .431.273l.415.83c.095.19.057.419-.092.57l-.598.596a.881.881 0 0 0-.013 1.232l.552.577c.127.133.17.324.111.498l-.293.88a.495.495 0 0 1-.469.338h-.844a.882.882 0 0 0-.88.862l-.018.799a.493.493 0 0 1-.273.43l-.83.415a.495.495 0 0 1-.57-.092l-.596-.597a.882.882 0 0 0-1.232-.014l-.577.552a.491.491 0 0 1-.498.112l-.88-.294a.494.494 0 0 1-.338-.468v-.844a.882.882 0 0 0-.862-.882l-.798-.017a.493.493 0 0 1-.43-.272l-.415-.83a.495.495 0 0 1 .092-.57l.597-.596a.882.882 0 0 0 .013-1.233l-.552-.577a.492.492 0 0 1-.111-.497l.294-.88a.494.494 0 0 1 .468-.338h.844c.48 0 .87-.383.881-.862l.018-.8a.493.493 0 0 1 .272-.43l.83-.415a.495.495 0 0 1 .57.092l.596.597a.882.882 0 0 0 1.233.014l.577-.552a.493.493 0 0 1 .496-.112zM18.34 9.999l.765-.206a.408.408 0 0 0 .297-.328l.145-.892a.61.61 0 0 1 .503-.503l.89-.145a.408.408 0 0 0 .329-.297l.205-.764a.407.407 0 0 0-.136-.421l-.7-.572a.61.61 0 0 1-.184-.688l.321-.846a.407.407 0 0 0-.093-.433l-.56-.56a.409.409 0 0 0-.432-.092l-1.256.476-.849-1.039a.408.408 0 0 0-.421-.136l-.764.205a.408.408 0 0 0-.297.329l-.145.891a.61.61 0 0 1-.503.504l-.89.144a.408.408 0 0 0-.33.297l-.205.764a.41.41 0 0 0 .136.422l.699.57a.609.609 0 0 1 .183.688l-.322.847a.407.407 0 0 0 .094.433l.56.56c.112.113.282.15.432.093l.848-.322a.607.607 0 0 1 .686.184l.572.7a.41.41 0 0 0 .423.137v0z" stroke="#0B2A3C" stroke-width="1.5" stroke-linecap="round" stroke-linejoin="round"/>
</svg>
