<svg width="24" height="24" viewBox="0 0 24 24" fill="none" xmlns="http://www.w3.org/2000/svg">
<path d="M10.6051 13.429C11.1146 13.9385 11.1146 14.7645 10.6051 15.274C10.0956 15.7835 9.26955 15.7835 8.76005 15.274C8.25056 14.7645 8.25056 13.9385 8.76005 13.429C9.26954 12.9195 10.0956 12.9195 10.6051 13.429" stroke="#FDFEFE" stroke-width="1.5" stroke-linecap="round" stroke-linejoin="round"/>
<path fill-rule="evenodd" clip-rule="evenodd" d="M11.38 8.96647L12.2603 9.26023C12.4619 9.32743 12.5982 9.51655 12.5982 9.72871V10.5725C12.5982 11.0516 12.9813 11.4433 13.4603 11.4538L14.259 11.4711C14.4424 11.4749 14.6075 11.5796 14.6901 11.7437L15.1048 12.5732C15.1998 12.7633 15.1624 12.9927 15.0126 13.1434L14.4155 13.7396C14.0766 14.0785 14.0709 14.6266 14.4021 14.9722L14.9541 15.5492C15.0808 15.6817 15.124 15.8727 15.0654 16.0465L14.7717 16.9268C14.7045 17.1284 14.5153 17.2647 14.3032 17.2647H13.4593C12.9803 17.2647 12.5886 17.6477 12.5781 18.1268L12.5608 18.9255C12.5569 19.1089 12.4523 19.274 12.2881 19.3565L11.4587 19.7713C11.2686 19.8663 11.0392 19.8289 10.8885 19.6791L10.2923 19.082C9.95342 18.7431 9.40526 18.7373 9.05966 19.0685L8.4827 19.6205C8.35022 19.7473 8.15918 19.7905 7.98542 19.7319L7.1051 19.4381C6.9035 19.3709 6.76718 19.1818 6.76718 18.9697V18.1258C6.76718 17.6468 6.38414 17.2551 5.9051 17.2445L5.10734 17.2273C4.92398 17.2234 4.75886 17.1188 4.6763 16.9546L4.26158 16.1252C4.16654 15.9351 4.20398 15.7057 4.35374 15.5549L4.95086 14.9588C5.28974 14.6199 5.2955 14.0717 4.9643 13.7261L4.4123 13.1492C4.28558 13.0167 4.24238 12.8257 4.30094 12.6519L4.5947 11.7716C4.6619 11.57 4.85102 11.4337 5.06318 11.4337H5.90702C6.38606 11.4337 6.77774 11.0506 6.7883 10.5716L6.80558 9.77287C6.80942 9.58951 6.91406 9.42439 7.07822 9.34183L7.90766 8.92711C8.09774 8.83207 8.32718 8.86951 8.4779 9.01927L9.07406 9.61639C9.41294 9.95527 9.9611 9.96103 10.3067 9.62983L10.8837 9.07783C11.0142 8.95207 11.2062 8.90887 11.38 8.96647Z" stroke="#FDFEFE" stroke-width="1.5" stroke-linecap="round" stroke-linejoin="round"/>
<path fill-rule="evenodd" clip-rule="evenodd" d="M18.3408 9.99865L19.105 9.79321C19.2596 9.75193 19.3757 9.62329 19.4016 9.46489L19.5466 8.57305C19.5888 8.31481 19.7914 8.11225 20.0496 8.07001L20.9405 7.92505C21.0989 7.89913 21.2276 7.78297 21.2688 7.62841L21.4743 6.86425C21.5156 6.70873 21.4628 6.54457 21.338 6.44281L20.6381 5.87065C20.4356 5.70457 20.3616 5.42809 20.4538 5.18329L20.7754 4.33657C20.832 4.18681 20.7965 4.01689 20.6823 3.90361L20.1226 3.34489C20.0093 3.23161 19.8394 3.19513 19.6896 3.25177L18.434 3.72793L17.5853 2.68921C17.4836 2.56441 17.3184 2.51161 17.1639 2.55289L16.3997 2.75833C16.2452 2.79961 16.129 2.92825 16.1031 3.08665L15.9581 3.97849C15.9159 4.23673 15.7133 4.43929 15.4551 4.48153L14.5642 4.62649C14.4058 4.65241 14.2772 4.76857 14.2359 4.92313L14.0304 5.68729C13.9892 5.84185 14.042 6.00697 14.1658 6.10873L14.8647 6.67993C15.0672 6.84601 15.1412 7.12249 15.048 7.36729L14.7264 8.21401C14.6698 8.36377 14.7053 8.53369 14.8196 8.64697L15.3792 9.20665C15.4925 9.31993 15.6624 9.35641 15.8122 9.29977L16.6599 8.97817C16.9047 8.88505 17.1812 8.95993 17.3463 9.16249L17.9184 9.86233C18.0212 9.98713 18.1863 10.0399 18.3408 9.99865V9.99865Z" stroke="#FDFEFE" stroke-width="1.5" stroke-linecap="round" stroke-linejoin="round"/>
</svg>
