<svg width="50" height="36" viewBox="0 0 50 36" fill="none" xmlns="http://www.w3.org/2000/svg">
<g clip-path="url(#clip0_14813_168911)">
<path d="M46.9118 36H3.08815C1.38508 36 0 34.6382 0 32.9638V3.03623C0 1.36179 1.38508 0 3.08815 0H46.9118C48.6149 0 50 1.36179 50 3.03623V32.9638C50 34.6382 48.6149 36 46.9118 36ZM3.08815 1.48883C2.21996 1.48883 1.51429 2.18263 1.51429 3.03623V32.9638C1.51429 33.8174 2.21996 34.5112 3.08815 34.5112H46.9118C47.78 34.5112 48.4857 33.8174 48.4857 32.9638V3.03623C48.4857 2.18263 47.78 1.48883 46.9118 1.48883H3.08815Z" fill="#1BA5F8"/>
<path d="M45.8745 8.29743H4.06379C3.64584 8.29743 3.30664 7.96393 3.30664 7.55301C3.30664 7.14209 3.64584 6.80859 4.06379 6.80859H45.8735C46.2914 6.80859 46.6306 7.14209 46.6306 7.55301C46.6306 7.96393 46.2914 8.29743 45.8735 8.29743H45.8745Z" fill="#1BA5F8"/>
<path d="M5.35492 5.15769C5.89073 5.15769 6.32508 4.73064 6.32508 4.20385C6.32508 3.67705 5.89073 3.25 5.35492 3.25C4.81912 3.25 4.38477 3.67705 4.38477 4.20385C4.38477 4.73064 4.81912 5.15769 5.35492 5.15769Z" fill="#1BA5F8"/>
<path d="M8.94867 5.15769C9.48448 5.15769 9.91883 4.73064 9.91883 4.20385C9.91883 3.67705 9.48448 3.25 8.94867 3.25C8.41287 3.25 7.97852 3.67705 7.97852 4.20385C7.97852 4.73064 8.41287 5.15769 8.94867 5.15769Z" fill="#1BA5F8"/>
<path d="M12.5405 5.15769C13.0763 5.15769 13.5106 4.73064 13.5106 4.20385C13.5106 3.67705 13.0763 3.25 12.5405 3.25C12.0047 3.25 11.5703 3.67705 11.5703 4.20385C11.5703 4.73064 12.0047 5.15769 12.5405 5.15769Z" fill="#1BA5F8"/>
<path d="M25 25.15C22.7946 25.15 21 23.3555 21 21.15C21 18.9446 22.7946 17.15 25 17.15C27.2054 17.15 29 18.9446 29 21.15C29 23.3555 27.2054 25.15 25 25.15ZM25 18.4521C23.5129 18.4521 22.3029 19.6621 22.3029 21.1492C22.3029 22.6362 23.5129 23.8462 25 23.8462C26.4871 23.8462 27.6971 22.6362 27.6971 21.1492C27.6971 19.6621 26.4871 18.4521 25 18.4521Z" fill="#1BA5F8"/>
<path d="M18.4155 14.7271C20.1008 13.0419 22.4294 12 25.0019 12C30.1457 12 34.3164 16.1685 34.3164 21.3102C34.3164 22.0277 34.2272 22.7237 34.0736 23.395" stroke="#1BA5F8" stroke-width="1.5" stroke-linecap="round" stroke-linejoin="round"/>
<path d="M32.6338 21.9557L34.3169 23.6388L36 21.9557" stroke="#1BA5F8" stroke-width="1.5" stroke-linecap="round"/>
<path d="M31.5849 27.8916C29.8997 29.5769 27.571 30.6187 24.9986 30.6187C19.8548 30.6187 15.6841 26.4502 15.6841 21.3085C15.6841 20.591 15.7732 19.895 15.9268 19.2237" stroke="#1BA5F8" stroke-width="1.5" stroke-linecap="round" stroke-linejoin="round"/>
<path d="M17.3662 20.6626L15.6831 18.9795L14 20.6626" stroke="#1BA5F8" stroke-width="1.5" stroke-linecap="round"/>
</g>
<defs>
<clipPath id="clip0_14813_168911">
<rect width="50" height="36" fill="white"/>
</clipPath>
</defs>
</svg>
