<svg width="50" height="37" viewBox="0 0 50 37" fill="none" xmlns="http://www.w3.org/2000/svg">
<g clip-path="url(#clip0_14647_106084)">
<path d="M46.9118 36.5H3.08815C1.38508 36.5 0 35.1382 0 33.4638V3.53623C0 1.86179 1.38508 0.5 3.08815 0.5H46.9118C48.6149 0.5 50 1.86179 50 3.53623V33.4638C50 35.1382 48.6149 36.5 46.9118 36.5ZM3.08815 1.98883C2.21996 1.98883 1.51429 2.68263 1.51429 3.53623V33.4638C1.51429 34.3174 2.21996 35.0112 3.08815 35.0112H46.9118C47.78 35.0112 48.4857 34.3174 48.4857 33.4638V3.53623C48.4857 2.68263 47.78 1.98883 46.9118 1.98883H3.08815Z" fill="#F9FBFC"/>
<path d="M45.8745 8.79743H4.06379C3.64584 8.79743 3.30664 8.46393 3.30664 8.05301C3.30664 7.64209 3.64584 7.30859 4.06379 7.30859H45.8735C46.2914 7.30859 46.6306 7.64209 46.6306 8.05301C46.6306 8.46393 46.2914 8.79743 45.8735 8.79743H45.8745Z" fill="#F9FBFC"/>
<path d="M5.35492 5.65769C5.89073 5.65769 6.32508 5.23064 6.32508 4.70385C6.32508 4.17705 5.89073 3.75 5.35492 3.75C4.81912 3.75 4.38477 4.17705 4.38477 4.70385C4.38477 5.23064 4.81912 5.65769 5.35492 5.65769Z" fill="#F9FBFC"/>
<path d="M8.94867 5.65769C9.48448 5.65769 9.91883 5.23064 9.91883 4.70385C9.91883 4.17705 9.48448 3.75 8.94867 3.75C8.41287 3.75 7.97852 4.17705 7.97852 4.70385C7.97852 5.23064 8.41287 5.65769 8.94867 5.65769Z" fill="#F9FBFC"/>
<path d="M12.5405 5.65769C13.0763 5.65769 13.5106 5.23064 13.5106 4.70385C13.5106 4.17705 13.0763 3.75 12.5405 3.75C12.0047 3.75 11.5703 4.17705 11.5703 4.70385C11.5703 5.23064 12.0047 5.65769 12.5405 5.65769Z" fill="#F9FBFC"/>
<path d="M25 25.65C22.7946 25.65 21 23.8555 21 21.65C21 19.4446 22.7946 17.65 25 17.65C27.2054 17.65 29 19.4446 29 21.65C29 23.8555 27.2054 25.65 25 25.65ZM25 18.9521C23.5129 18.9521 22.3029 20.1621 22.3029 21.6492C22.3029 23.1362 23.5129 24.3462 25 24.3462C26.4871 24.3462 27.6971 23.1362 27.6971 21.6492C27.6971 20.1621 26.4871 18.9521 25 18.9521Z" fill="#F9FBFC"/>
<path d="M18.4155 15.2271C20.1008 13.5419 22.4294 12.5 25.0019 12.5C30.1457 12.5 34.3164 16.6685 34.3164 21.8102C34.3164 22.5277 34.2272 23.2237 34.0736 23.895" stroke="#F9FBFC" stroke-width="1.5" stroke-linecap="round" stroke-linejoin="round"/>
<path d="M32.6338 22.4557L34.3169 24.1388L36 22.4557" stroke="#F9FBFC" stroke-width="1.5" stroke-linecap="round"/>
<path d="M31.5849 28.3916C29.8997 30.0769 27.571 31.1187 24.9986 31.1187C19.8548 31.1187 15.6841 26.9502 15.6841 21.8085C15.6841 21.091 15.7732 20.395 15.9268 19.7237" stroke="#F9FBFC" stroke-width="1.5" stroke-linecap="round" stroke-linejoin="round"/>
<path d="M17.3662 21.1626L15.6831 19.4795L14 21.1626" stroke="#F9FBFC" stroke-width="1.5" stroke-linecap="round"/>
</g>
<defs>
<clipPath id="clip0_14647_106084">
<rect width="50" height="36" fill="white" transform="translate(0 0.5)"/>
</clipPath>
</defs>
</svg>
