<svg width="584" height="320" viewBox="0 0 584 320" fill="none" xmlns="http://www.w3.org/2000/svg">
    <mask id="a" style="mask-type:alpha" maskUnits="userSpaceOnUse" x="0" y="0" width="584" height="320">
        <rect width="584" height="320" rx="8" fill="#fff"/>
    </mask>
    <g mask="url(#a)">
        <path fill="#CBD3E5" d="M0 0h584v321.05H0z"/>
        <path d="M584 312.083a8 8 0 0 1-8 8h-47.619c0-30.87 24.881-55.858 55.619-55.858v47.858z" fill="#63768B"/>
        <path fill-rule="evenodd" clip-rule="evenodd" d="M278.382 16.205c-8.913 1.206-17.969 5.053-26.197 11.081a1.46 1.46 0 0 0-.315 2.01 1.445 1.445 0 0 0 2 .316c7.828-5.77 16.427-9.416 24.884-10.565 7.828-1.062 15.313 0 21.684 3.072 4.228 2.038 7.742 4.88 10.427 8.325a60.076 60.076 0 0 0-11.199 1.407 16.685 16.685 0 0 0-12.57 12.2c-1.543 6.116.429 12.518 5.171 16.651 5.085 4.479 12.028 5.426 18.141 2.498 6.085-2.928 9.685-8.928 9.399-15.703-.2-5.139-1.457-9.904-3.628-14.096 12.599.861 24.484 6.144 33.997 15.359 5.257 5.081 9.4 11.024 11.999 17.196 2.543 6.057 3.4 11.914 2.514 16.938a1.433 1.433 0 0 0 1.143 1.665 1.426 1.426 0 0 0 1.657-1.148c2.029-11.34-3.971-25.752-15.313-36.718-10.542-10.191-23.769-15.79-37.739-16.277-3.086-4.594-7.371-8.355-12.742-10.938-5.143-2.412-10.942-3.704-17.056-3.704-2.057 0-4.142.144-6.257.431zm15.771 42.373c-3.972-3.502-5.571-8.641-4.286-13.78 1.314-5.167 5.2-8.957 10.399-10.105 4.2-.919 8.4-1.378 12.542-1.35 2.486 4.163 3.914 9.015 4.114 14.326.229 5.598-2.743 10.565-7.771 12.976a13.885 13.885 0 0 1-5.999 1.378c-3.229 0-6.428-1.177-8.999-3.445z" fill="#2A323E"/>
        <path d="M545.87 117.333c-54.848-7.135-80.397-53.064-118.553-98.014a79.593 79.593 0 0 1 22.847-11.096c21.119-6.368 42.811-3.568 60.777 6.087 17.966 9.656 32.261 26.198 38.587 47.316 5.728 19.125 3.935 38.761-3.658 55.707z" fill="#2A323E"/>
        <path fill-rule="evenodd" clip-rule="evenodd" d="M545.606 119.541c-20.98-2.737-38.946-11.005-56.622-26.02-15.641-13.315-29.206-30.355-43.539-48.411-6.323-7.988-12.849-16.192-19.783-24.366-.419-.475-.61-1.11-.508-1.696.089-.628.429-1.193.929-1.529 7.13-5.062 15.006-8.87 23.445-11.415 20.992-6.33 43.163-4.09 62.452 6.276 19.288 10.366 33.38 27.617 39.667 48.608 5.653 18.87 4.3 39.206-3.747 57.26a2.294 2.294 0 0 1-1.396 1.207c-.296.089-.606.136-.898.086zm-96.729-77.177c28.22 35.554 52.682 66.277 95.624 72.563a77.812 77.812 0 0 0 2.906-52.66c-5.945-19.846-19.265-36.22-37.507-46.024-18.241-9.804-39.255-11.883-59.102-5.898-7.209 2.173-13.986 5.326-20.204 9.42 6.391 7.598 12.417 15.213 18.283 22.6z" fill="#2A323E"/>
        <path d="M250.351 219.809c0-49.138 39.643-88.951 88.57-88.951 48.928 0 88.571 39.813 88.571 88.951.049 49.137-39.643 88.95-88.571 88.95-48.927 0-88.57-39.813-88.57-88.95z" fill="#0B2A3C"/>
        <path fill-rule="evenodd" clip-rule="evenodd" d="M247.896 219.808c0-50.42 40.822-91.417 91.026-91.417 50.205 0 91.027 40.997 91.027 91.417 0 24.372-9.432 47.312-26.576 64.579-17.243 17.317-40.085 26.838-64.451 26.838-50.204 0-91.026-40.997-91.026-91.417zm4.912 0c0 47.707 38.611 86.484 86.114 86.484 23.039 0 44.703-9.028 60.963-25.358 16.26-16.33 25.201-38.037 25.152-61.126 0-47.706-38.612-86.483-86.115-86.483-47.503 0-86.114 38.777-86.114 86.483zM389.943 122.486a2.462 2.462 0 0 1-2.457-2.467c0-1.362 1.1-2.467 2.457-2.467a2.462 2.462 0 0 1 2.456 2.467c0 1.362-1.1 2.467-2.456 2.467z" fill="#0B2A3C"/>
        <path fill-rule="evenodd" clip-rule="evenodd" d="M389.943 156.527a2.462 2.462 0 0 1-2.457-2.467c0-1.362 1.1-2.466 2.457-2.466a2.461 2.461 0 0 1 2.456 2.466c0 1.363-1.1 2.467-2.456 2.467zM389.943 190.569a2.462 2.462 0 0 1-2.457-2.467c0-1.362 1.1-2.466 2.457-2.466a2.461 2.461 0 0 1 2.456 2.466c0 1.363-1.1 2.467-2.456 2.467zM389.943 224.612a2.462 2.462 0 0 1-2.457-2.467c0-1.362 1.1-2.467 2.457-2.467a2.462 2.462 0 0 1 2.456 2.467c0 1.362-1.1 2.467-2.456 2.467zM389.943 258.65a2.461 2.461 0 0 1-2.457-2.466c0-1.363 1.1-2.467 2.457-2.467a2.461 2.461 0 0 1 2.456 2.467c0 1.362-1.1 2.466-2.456 2.466zM389.943 292.692a2.462 2.462 0 0 1-2.457-2.467c0-1.362 1.1-2.467 2.457-2.467a2.462 2.462 0 0 1 2.456 2.467c0 1.362-1.1 2.467-2.456 2.467zM356.044 122.486a2.462 2.462 0 0 1-2.456-2.467c0-1.362 1.1-2.467 2.456-2.467a2.461 2.461 0 0 1 2.456 2.467 2.461 2.461 0 0 1-2.456 2.467zM356.044 156.527a2.461 2.461 0 0 1-2.456-2.467c0-1.362 1.1-2.466 2.456-2.466a2.46 2.46 0 0 1 2.456 2.466 2.46 2.46 0 0 1-2.456 2.467zM356.044 190.569a2.461 2.461 0 0 1-2.456-2.467c0-1.362 1.1-2.466 2.456-2.466a2.46 2.46 0 0 1 2.456 2.466 2.46 2.46 0 0 1-2.456 2.467zM356.044 224.612a2.462 2.462 0 0 1-2.456-2.467c0-1.362 1.1-2.467 2.456-2.467a2.461 2.461 0 0 1 2.456 2.467 2.461 2.461 0 0 1-2.456 2.467zM356.044 258.65a2.461 2.461 0 0 1-2.456-2.466c0-1.363 1.1-2.467 2.456-2.467a2.46 2.46 0 0 1 2.456 2.467 2.46 2.46 0 0 1-2.456 2.466zM356.044 292.692a2.462 2.462 0 0 1-2.456-2.467c0-1.362 1.1-2.467 2.456-2.467a2.461 2.461 0 0 1 2.456 2.467 2.461 2.461 0 0 1-2.456 2.467zM322.152 122.486a2.462 2.462 0 0 1-2.457-2.467c0-1.362 1.1-2.467 2.457-2.467a2.462 2.462 0 0 1 2.456 2.467c0 1.362-1.1 2.467-2.456 2.467zM322.152 156.527a2.462 2.462 0 0 1-2.457-2.467c0-1.362 1.1-2.466 2.457-2.466a2.461 2.461 0 0 1 2.456 2.466c0 1.363-1.1 2.467-2.456 2.467zM322.152 190.569a2.462 2.462 0 0 1-2.457-2.467c0-1.362 1.1-2.466 2.457-2.466a2.461 2.461 0 0 1 2.456 2.466c0 1.363-1.1 2.467-2.456 2.467zM322.152 224.612a2.462 2.462 0 0 1-2.457-2.467c0-1.362 1.1-2.467 2.457-2.467a2.462 2.462 0 0 1 2.456 2.467c0 1.362-1.1 2.467-2.456 2.467zM322.152 258.65a2.461 2.461 0 0 1-2.457-2.466c0-1.363 1.1-2.467 2.457-2.467a2.461 2.461 0 0 1 2.456 2.467c0 1.362-1.1 2.466-2.456 2.466zM322.152 292.692a2.462 2.462 0 0 1-2.457-2.467c0-1.362 1.1-2.467 2.457-2.467a2.462 2.462 0 0 1 2.456 2.467c0 1.362-1.1 2.467-2.456 2.467zM288.253 122.486a2.462 2.462 0 0 1-2.456-2.467c0-1.362 1.1-2.467 2.456-2.467a2.461 2.461 0 0 1 2.456 2.467 2.461 2.461 0 0 1-2.456 2.467zM288.253 156.527a2.461 2.461 0 0 1-2.456-2.467c0-1.362 1.1-2.466 2.456-2.466a2.46 2.46 0 0 1 2.456 2.466 2.46 2.46 0 0 1-2.456 2.467zM288.253 190.569a2.461 2.461 0 0 1-2.456-2.467c0-1.362 1.1-2.466 2.456-2.466a2.46 2.46 0 0 1 2.456 2.466 2.46 2.46 0 0 1-2.456 2.467zM288.253 224.612a2.462 2.462 0 0 1-2.456-2.467c0-1.362 1.1-2.467 2.456-2.467a2.461 2.461 0 0 1 2.456 2.467 2.461 2.461 0 0 1-2.456 2.467zM288.253 258.65a2.461 2.461 0 0 1-2.456-2.466c0-1.363 1.1-2.467 2.456-2.467a2.46 2.46 0 0 1 2.456 2.467 2.46 2.46 0 0 1-2.456 2.466zM288.253 292.692a2.462 2.462 0 0 1-2.456-2.467c0-1.362 1.1-2.467 2.456-2.467a2.461 2.461 0 0 1 2.456 2.467 2.461 2.461 0 0 1-2.456 2.467zM254.359 122.486a2.462 2.462 0 0 1-2.457-2.467c0-1.362 1.1-2.467 2.457-2.467a2.462 2.462 0 0 1 2.456 2.467c0 1.362-1.1 2.467-2.456 2.467zM254.359 156.527a2.462 2.462 0 0 1-2.457-2.467c0-1.362 1.1-2.466 2.457-2.466a2.461 2.461 0 0 1 2.456 2.466c0 1.363-1.1 2.467-2.456 2.467zM254.359 190.569a2.462 2.462 0 0 1-2.457-2.467c0-1.362 1.1-2.466 2.457-2.466a2.461 2.461 0 0 1 2.456 2.466c0 1.363-1.1 2.467-2.456 2.467zM254.359 224.612a2.462 2.462 0 0 1-2.457-2.467c0-1.362 1.1-2.467 2.457-2.467a2.462 2.462 0 0 1 2.456 2.467c0 1.362-1.1 2.467-2.456 2.467zM254.359 258.65a2.461 2.461 0 0 1-2.457-2.466c0-1.363 1.1-2.467 2.457-2.467a2.461 2.461 0 0 1 2.456 2.467c0 1.362-1.1 2.466-2.456 2.466zM254.359 292.692a2.462 2.462 0 0 1-2.457-2.467c0-1.362 1.1-2.467 2.457-2.467a2.462 2.462 0 0 1 2.456 2.467c0 1.362-1.1 2.467-2.456 2.467zM220.465 122.488a2.46 2.46 0 0 1-2.456-2.467 2.46 2.46 0 0 1 2.456-2.466 2.46 2.46 0 0 1 2.456 2.466 2.46 2.46 0 0 1-2.456 2.467zM220.465 156.527a2.46 2.46 0 0 1-2.456-2.467 2.46 2.46 0 0 1 2.456-2.466 2.46 2.46 0 0 1 2.456 2.466 2.46 2.46 0 0 1-2.456 2.467zM220.465 190.569a2.46 2.46 0 0 1-2.456-2.467 2.46 2.46 0 0 1 2.456-2.466 2.46 2.46 0 0 1 2.456 2.466 2.46 2.46 0 0 1-2.456 2.467zM220.465 224.612a2.461 2.461 0 0 1-2.456-2.467 2.461 2.461 0 0 1 2.456-2.467 2.461 2.461 0 0 1 2.456 2.467 2.461 2.461 0 0 1-2.456 2.467zM220.465 258.65a2.46 2.46 0 0 1-2.456-2.466 2.46 2.46 0 0 1 2.456-2.467 2.46 2.46 0 0 1 2.456 2.467 2.46 2.46 0 0 1-2.456 2.466zM220.467 292.692a2.461 2.461 0 0 1-2.456-2.467 2.461 2.461 0 0 1 2.456-2.467 2.462 2.462 0 0 1 2.456 2.467c0 1.362-1.1 2.467-2.456 2.467z" fill="#0B2A3C"/>
        <path fill-rule="evenodd" clip-rule="evenodd" d="M247.896 219.808c0-50.42 40.822-91.417 91.026-91.417 50.205 0 91.027 40.997 91.027 91.417 0 24.372-9.432 47.312-26.576 64.579-17.243 17.317-40.085 26.838-64.451 26.838-50.204 0-91.026-40.997-91.026-91.417zm4.912 0c0 47.707 38.611 86.484 86.114 86.484 23.039 0 44.703-9.028 60.963-25.358 16.26-16.33 25.201-38.037 25.152-61.126 0-47.706-38.612-86.483-86.115-86.483-47.503 0-86.114 38.777-86.114 86.483z" fill="#0B2A3C"/>
        <path d="M289.822 181.26c0-48.94 39.484-88.593 88.215-88.593s88.215 39.653 88.215 88.593c0 48.891-39.484 88.593-88.215 88.593s-88.215-39.653-88.215-88.593z" fill="#DCE0E8"/>
        <path fill-rule="evenodd" clip-rule="evenodd" d="M287.376 181.259c0-50.217 40.658-91.05 90.661-91.05s90.661 40.833 90.661 91.05c0 50.218-40.658 91.051-90.661 91.051s-90.661-40.833-90.661-91.051zm4.893 0c0 47.516 38.456 86.137 85.768 86.137s85.769-38.621 85.769-86.137c0-47.515-38.457-86.136-85.769-86.136-47.312 0-85.768 38.621-85.768 86.136z" fill="#2A323E"/>
        <path d="M330.026 141.239c0-48.742 39.325-88.236 87.86-88.236 48.534 0 87.859 39.494 87.859 88.236.048 48.743-39.325 88.236-87.859 88.236-48.535 0-87.86-39.493-87.86-88.236z" fill="#5B6C84"/>
        <path fill-rule="evenodd" clip-rule="evenodd" d="M327.589 141.239c0-50.014 40.494-90.682 90.296-90.682 49.801 0 90.295 40.668 90.295 90.682 0 24.176-9.356 46.932-26.362 64.061-17.104 17.177-39.764 26.622-63.933 26.622-49.802 0-90.296-40.667-90.296-90.683zm4.873 0c0 47.324 38.301 85.79 85.423 85.79 22.854 0 44.343-8.956 60.473-25.155 16.129-16.198 24.998-37.731 24.949-60.635 0-47.323-38.301-85.788-85.422-85.788-47.122 0-85.423 38.465-85.423 85.788z" fill="#2A323E"/>
        <path fill-rule="evenodd" clip-rule="evenodd" d="M327.589 141.239c0-50.014 40.494-90.682 90.296-90.682 49.801 0 90.295 40.668 90.295 90.682 0 24.176-9.356 46.932-26.362 64.061-17.104 17.177-39.764 26.622-63.933 26.622-49.802 0-90.296-40.667-90.296-90.683zm4.873 0c0 47.324 38.301 85.79 85.423 85.79 22.854 0 44.343-8.956 60.473-25.155 16.129-16.198 24.998-37.731 24.949-60.635 0-47.323-38.301-85.788-85.422-85.788-47.122 0-85.423 38.465-85.423 85.788z" fill="#63768B"/>
        <path fill-rule="evenodd" clip-rule="evenodd" d="M563.229 68.35a2.442 2.442 0 0 1-2.436-2.447 2.442 2.442 0 0 1 2.436-2.447 2.442 2.442 0 0 1 2.437 2.447 2.442 2.442 0 0 1-2.437 2.447zM563.229 80.44a2.442 2.442 0 0 1-2.436-2.448 2.442 2.442 0 0 1 2.436-2.447 2.442 2.442 0 0 1 2.437 2.447 2.442 2.442 0 0 1-2.437 2.447zM563.229 92.525a2.442 2.442 0 0 1-2.436-2.447 2.442 2.442 0 0 1 2.436-2.447 2.442 2.442 0 0 1 2.437 2.447 2.442 2.442 0 0 1-2.437 2.447zM563.229 104.615a2.442 2.442 0 0 1-2.436-2.447 2.442 2.442 0 0 1 2.436-2.447 2.442 2.442 0 0 1 2.437 2.447 2.442 2.442 0 0 1-2.437 2.447zM563.227 116.704a2.442 2.442 0 0 1-2.437-2.447 2.441 2.441 0 0 1 2.437-2.446 2.441 2.441 0 0 1 2.436 2.446 2.441 2.441 0 0 1-2.436 2.447zM563.229 128.792a2.441 2.441 0 0 1-2.436-2.447 2.442 2.442 0 0 1 2.436-2.447 2.442 2.442 0 0 1 2.437 2.447 2.442 2.442 0 0 1-2.437 2.447zM563.229 140.875a2.441 2.441 0 0 1-2.436-2.447 2.442 2.442 0 0 1 2.436-2.447 2.442 2.442 0 0 1 2.437 2.447 2.442 2.442 0 0 1-2.437 2.447zM563.229 152.967a2.441 2.441 0 0 1-2.436-2.447 2.442 2.442 0 0 1 2.436-2.447 2.442 2.442 0 0 1 2.437 2.447 2.442 2.442 0 0 1-2.437 2.447zM563.229 165.052a2.442 2.442 0 0 1-2.436-2.447 2.441 2.441 0 0 1 2.436-2.447 2.442 2.442 0 0 1 2.437 2.447 2.442 2.442 0 0 1-2.437 2.447zM563.229 177.142a2.442 2.442 0 0 1-2.436-2.447 2.442 2.442 0 0 1 2.436-2.447 2.442 2.442 0 0 1 2.437 2.447 2.442 2.442 0 0 1-2.437 2.447zM563.229 189.226a2.441 2.441 0 0 1-2.436-2.447 2.441 2.441 0 0 1 2.436-2.446 2.441 2.441 0 0 1 2.437 2.446 2.442 2.442 0 0 1-2.437 2.447zM563.229 201.316a2.441 2.441 0 0 1-2.436-2.447 2.442 2.442 0 0 1 2.436-2.447 2.442 2.442 0 0 1 2.437 2.447 2.442 2.442 0 0 1-2.437 2.447zM563.229 213.405a2.441 2.441 0 0 1-2.436-2.447 2.442 2.442 0 0 1 2.436-2.447 2.442 2.442 0 0 1 2.437 2.447 2.442 2.442 0 0 1-2.437 2.447zM563.229 225.496a2.441 2.441 0 0 1-2.436-2.447 2.441 2.441 0 0 1 2.436-2.446 2.441 2.441 0 0 1 2.437 2.446 2.442 2.442 0 0 1-2.437 2.447zM563.227 237.58a2.442 2.442 0 0 1-2.437-2.447 2.441 2.441 0 0 1 2.437-2.446 2.441 2.441 0 0 1 2.436 2.446 2.441 2.441 0 0 1-2.436 2.447zM551.193 68.35a2.442 2.442 0 0 1-2.436-2.447 2.442 2.442 0 0 1 2.436-2.447 2.442 2.442 0 0 1 2.437 2.447 2.442 2.442 0 0 1-2.437 2.447zM551.193 80.44a2.442 2.442 0 0 1-2.436-2.448 2.442 2.442 0 0 1 2.436-2.447 2.442 2.442 0 0 1 2.437 2.447 2.442 2.442 0 0 1-2.437 2.447zM551.193 92.525a2.442 2.442 0 0 1-2.436-2.447 2.442 2.442 0 0 1 2.436-2.447 2.442 2.442 0 0 1 2.437 2.447 2.442 2.442 0 0 1-2.437 2.447zM551.193 104.615a2.442 2.442 0 0 1-2.436-2.447 2.442 2.442 0 0 1 2.436-2.447 2.442 2.442 0 0 1 2.437 2.447 2.442 2.442 0 0 1-2.437 2.447zM551.193 116.704a2.441 2.441 0 0 1-2.436-2.447 2.441 2.441 0 0 1 2.436-2.446 2.441 2.441 0 0 1 2.437 2.446 2.442 2.442 0 0 1-2.437 2.447zM551.193 128.792a2.441 2.441 0 0 1-2.436-2.447 2.442 2.442 0 0 1 2.436-2.447 2.442 2.442 0 0 1 2.437 2.447 2.442 2.442 0 0 1-2.437 2.447zM551.193 140.875a2.441 2.441 0 0 1-2.436-2.447 2.442 2.442 0 0 1 2.436-2.447 2.442 2.442 0 0 1 2.437 2.447 2.442 2.442 0 0 1-2.437 2.447zM551.193 152.967a2.441 2.441 0 0 1-2.436-2.447 2.442 2.442 0 0 1 2.436-2.447 2.442 2.442 0 0 1 2.437 2.447 2.442 2.442 0 0 1-2.437 2.447zM551.193 165.052a2.442 2.442 0 0 1-2.436-2.447 2.441 2.441 0 0 1 2.436-2.447 2.442 2.442 0 0 1 2.437 2.447 2.442 2.442 0 0 1-2.437 2.447zM551.193 177.142a2.442 2.442 0 0 1-2.436-2.447 2.442 2.442 0 0 1 2.436-2.447 2.442 2.442 0 0 1 2.437 2.447 2.442 2.442 0 0 1-2.437 2.447zM551.193 189.226a2.441 2.441 0 0 1-2.436-2.447 2.441 2.441 0 0 1 2.436-2.446 2.441 2.441 0 0 1 2.437 2.446 2.442 2.442 0 0 1-2.437 2.447zM551.193 201.316a2.441 2.441 0 0 1-2.436-2.447 2.442 2.442 0 0 1 2.436-2.447 2.442 2.442 0 0 1 2.437 2.447 2.442 2.442 0 0 1-2.437 2.447zM551.193 213.405a2.441 2.441 0 0 1-2.436-2.447 2.442 2.442 0 0 1 2.436-2.447 2.442 2.442 0 0 1 2.437 2.447 2.442 2.442 0 0 1-2.437 2.447zM551.193 225.496a2.441 2.441 0 0 1-2.436-2.447 2.441 2.441 0 0 1 2.436-2.446 2.441 2.441 0 0 1 2.437 2.446 2.442 2.442 0 0 1-2.437 2.447zM551.193 237.58a2.441 2.441 0 0 1-2.436-2.447 2.441 2.441 0 0 1 2.436-2.446 2.441 2.441 0 0 1 2.437 2.446 2.442 2.442 0 0 1-2.437 2.447zM539.156 68.35a2.442 2.442 0 0 1-2.436-2.447 2.442 2.442 0 0 1 2.436-2.447 2.442 2.442 0 0 1 2.437 2.447 2.442 2.442 0 0 1-2.437 2.447zM539.156 80.44a2.442 2.442 0 0 1-2.436-2.448 2.442 2.442 0 0 1 2.436-2.447 2.442 2.442 0 0 1 2.437 2.447 2.442 2.442 0 0 1-2.437 2.447zM539.156 92.525a2.442 2.442 0 0 1-2.436-2.447 2.442 2.442 0 0 1 2.436-2.447 2.442 2.442 0 0 1 2.437 2.447 2.442 2.442 0 0 1-2.437 2.447zM539.156 104.615a2.442 2.442 0 0 1-2.436-2.447 2.442 2.442 0 0 1 2.436-2.447 2.442 2.442 0 0 1 2.437 2.447 2.442 2.442 0 0 1-2.437 2.447zM539.156 116.704a2.441 2.441 0 0 1-2.436-2.447 2.441 2.441 0 0 1 2.436-2.446 2.441 2.441 0 0 1 2.437 2.446 2.442 2.442 0 0 1-2.437 2.447zM539.156 128.792a2.441 2.441 0 0 1-2.436-2.447 2.442 2.442 0 0 1 2.436-2.447 2.442 2.442 0 0 1 2.437 2.447 2.442 2.442 0 0 1-2.437 2.447zM539.156 140.875a2.441 2.441 0 0 1-2.436-2.447 2.442 2.442 0 0 1 2.436-2.447 2.442 2.442 0 0 1 2.437 2.447 2.442 2.442 0 0 1-2.437 2.447zM539.156 152.967a2.441 2.441 0 0 1-2.436-2.447 2.442 2.442 0 0 1 2.436-2.447 2.442 2.442 0 0 1 2.437 2.447 2.442 2.442 0 0 1-2.437 2.447zM539.156 165.052a2.442 2.442 0 0 1-2.436-2.447 2.441 2.441 0 0 1 2.436-2.447 2.442 2.442 0 0 1 2.437 2.447 2.442 2.442 0 0 1-2.437 2.447zM539.156 177.142a2.442 2.442 0 0 1-2.436-2.447 2.442 2.442 0 0 1 2.436-2.447 2.442 2.442 0 0 1 2.437 2.447 2.442 2.442 0 0 1-2.437 2.447zM539.156 189.226a2.441 2.441 0 0 1-2.436-2.447 2.441 2.441 0 0 1 2.436-2.446 2.441 2.441 0 0 1 2.437 2.446 2.442 2.442 0 0 1-2.437 2.447zM539.156 201.316a2.441 2.441 0 0 1-2.436-2.447 2.442 2.442 0 0 1 2.436-2.447 2.442 2.442 0 0 1 2.437 2.447 2.442 2.442 0 0 1-2.437 2.447zM539.156 213.405a2.441 2.441 0 0 1-2.436-2.447 2.442 2.442 0 0 1 2.436-2.447 2.442 2.442 0 0 1 2.437 2.447 2.442 2.442 0 0 1-2.437 2.447zM539.156 225.496a2.441 2.441 0 0 1-2.436-2.447 2.441 2.441 0 0 1 2.436-2.446 2.441 2.441 0 0 1 2.437 2.446 2.442 2.442 0 0 1-2.437 2.447zM539.156 237.58a2.441 2.441 0 0 1-2.436-2.447 2.441 2.441 0 0 1 2.436-2.446 2.441 2.441 0 0 1 2.437 2.446 2.442 2.442 0 0 1-2.437 2.447zM527.122 68.35a2.441 2.441 0 0 1-2.436-2.447 2.441 2.441 0 0 1 2.436-2.447 2.442 2.442 0 0 1 2.437 2.447 2.442 2.442 0 0 1-2.437 2.447zM527.122 80.44a2.441 2.441 0 0 1-2.436-2.448 2.441 2.441 0 0 1 2.436-2.447 2.442 2.442 0 0 1 2.437 2.447 2.442 2.442 0 0 1-2.437 2.447zM527.122 92.525a2.441 2.441 0 0 1-2.436-2.447 2.441 2.441 0 0 1 2.436-2.447 2.442 2.442 0 0 1 2.437 2.447 2.442 2.442 0 0 1-2.437 2.447zM527.122 104.615a2.441 2.441 0 0 1-2.436-2.447 2.441 2.441 0 0 1 2.436-2.447 2.442 2.442 0 0 1 2.437 2.447 2.442 2.442 0 0 1-2.437 2.447zM527.121 116.704a2.44 2.44 0 0 1-2.436-2.447 2.44 2.44 0 0 1 2.436-2.446 2.441 2.441 0 0 1 2.437 2.446 2.442 2.442 0 0 1-2.437 2.447zM527.122 128.792a2.44 2.44 0 0 1-2.436-2.447 2.441 2.441 0 0 1 2.436-2.447 2.442 2.442 0 0 1 2.437 2.447 2.442 2.442 0 0 1-2.437 2.447zM527.122 140.875a2.44 2.44 0 0 1-2.436-2.447 2.441 2.441 0 0 1 2.436-2.447 2.442 2.442 0 0 1 2.437 2.447 2.442 2.442 0 0 1-2.437 2.447zM527.122 152.967a2.44 2.44 0 0 1-2.436-2.447 2.441 2.441 0 0 1 2.436-2.447 2.442 2.442 0 0 1 2.437 2.447 2.442 2.442 0 0 1-2.437 2.447zM527.122 165.052a2.441 2.441 0 0 1-2.436-2.447 2.44 2.44 0 0 1 2.436-2.447 2.442 2.442 0 0 1 2.437 2.447 2.442 2.442 0 0 1-2.437 2.447zM527.122 177.142a2.441 2.441 0 0 1-2.436-2.447 2.441 2.441 0 0 1 2.436-2.447 2.442 2.442 0 0 1 2.437 2.447 2.442 2.442 0 0 1-2.437 2.447zM527.122 189.226a2.44 2.44 0 0 1-2.436-2.447 2.44 2.44 0 0 1 2.436-2.446 2.441 2.441 0 0 1 2.437 2.446 2.442 2.442 0 0 1-2.437 2.447zM527.122 201.316a2.44 2.44 0 0 1-2.436-2.447 2.441 2.441 0 0 1 2.436-2.447 2.442 2.442 0 0 1 2.437 2.447 2.442 2.442 0 0 1-2.437 2.447zM527.122 213.405a2.44 2.44 0 0 1-2.436-2.447 2.441 2.441 0 0 1 2.436-2.447 2.442 2.442 0 0 1 2.437 2.447 2.442 2.442 0 0 1-2.437 2.447zM527.122 225.496a2.44 2.44 0 0 1-2.436-2.447 2.44 2.44 0 0 1 2.436-2.446 2.441 2.441 0 0 1 2.437 2.446 2.442 2.442 0 0 1-2.437 2.447zM527.121 237.58a2.44 2.44 0 0 1-2.436-2.447 2.44 2.44 0 0 1 2.436-2.446 2.441 2.441 0 0 1 2.437 2.446 2.442 2.442 0 0 1-2.437 2.447zM515.086 68.35a2.442 2.442 0 0 1-2.437-2.447 2.442 2.442 0 0 1 2.437-2.447 2.441 2.441 0 0 1 2.436 2.447 2.441 2.441 0 0 1-2.436 2.447zM515.083 80.44a2.442 2.442 0 0 1-2.437-2.448 2.442 2.442 0 0 1 2.437-2.447 2.441 2.441 0 0 1 2.436 2.447 2.441 2.441 0 0 1-2.436 2.447zM515.086 92.525a2.442 2.442 0 0 1-2.437-2.447 2.442 2.442 0 0 1 2.437-2.447 2.441 2.441 0 0 1 2.436 2.447 2.441 2.441 0 0 1-2.436 2.447zM515.086 104.615a2.442 2.442 0 0 1-2.437-2.447 2.442 2.442 0 0 1 2.437-2.447 2.441 2.441 0 0 1 2.436 2.447 2.441 2.441 0 0 1-2.436 2.447zM515.083 116.704a2.442 2.442 0 0 1-2.437-2.447 2.441 2.441 0 0 1 2.437-2.446 2.44 2.44 0 0 1 2.436 2.446 2.44 2.44 0 0 1-2.436 2.447zM515.086 128.792a2.442 2.442 0 0 1-2.437-2.447 2.442 2.442 0 0 1 2.437-2.447 2.441 2.441 0 0 1 2.436 2.447 2.44 2.44 0 0 1-2.436 2.447zM515.086 140.875a2.442 2.442 0 0 1-2.437-2.447 2.442 2.442 0 0 1 2.437-2.447 2.441 2.441 0 0 1 2.436 2.447 2.44 2.44 0 0 1-2.436 2.447zM515.086 152.967a2.442 2.442 0 0 1-2.437-2.447 2.442 2.442 0 0 1 2.437-2.447 2.441 2.441 0 0 1 2.436 2.447 2.44 2.44 0 0 1-2.436 2.447zM515.086 165.052a2.442 2.442 0 0 1-2.437-2.447 2.442 2.442 0 0 1 2.437-2.447 2.44 2.44 0 0 1 2.436 2.447 2.441 2.441 0 0 1-2.436 2.447zM515.086 177.142a2.442 2.442 0 0 1-2.437-2.447 2.442 2.442 0 0 1 2.437-2.447 2.441 2.441 0 0 1 2.436 2.447 2.441 2.441 0 0 1-2.436 2.447zM515.086 189.226a2.442 2.442 0 0 1-2.437-2.447 2.441 2.441 0 0 1 2.437-2.446 2.44 2.44 0 0 1 2.436 2.446 2.44 2.44 0 0 1-2.436 2.447zM515.086 201.316a2.442 2.442 0 0 1-2.437-2.447 2.442 2.442 0 0 1 2.437-2.447 2.441 2.441 0 0 1 2.436 2.447 2.44 2.44 0 0 1-2.436 2.447zM515.086 213.405a2.442 2.442 0 0 1-2.437-2.447 2.442 2.442 0 0 1 2.437-2.447 2.441 2.441 0 0 1 2.436 2.447 2.44 2.44 0 0 1-2.436 2.447zM515.086 225.496a2.442 2.442 0 0 1-2.437-2.447 2.441 2.441 0 0 1 2.437-2.446 2.44 2.44 0 0 1 2.436 2.446 2.44 2.44 0 0 1-2.436 2.447zM515.083 237.58a2.442 2.442 0 0 1-2.437-2.447 2.441 2.441 0 0 1 2.437-2.446 2.44 2.44 0 0 1 2.436 2.446 2.44 2.44 0 0 1-2.436 2.447zM503.048 68.35a2.442 2.442 0 0 1-2.437-2.447 2.442 2.442 0 0 1 2.437-2.447 2.442 2.442 0 0 1 2.436 2.447 2.442 2.442 0 0 1-2.436 2.447zM503.048 80.44a2.442 2.442 0 0 1-2.437-2.448 2.442 2.442 0 0 1 2.437-2.447 2.442 2.442 0 0 1 2.436 2.447 2.442 2.442 0 0 1-2.436 2.447zM503.048 92.525a2.442 2.442 0 0 1-2.437-2.447 2.442 2.442 0 0 1 2.437-2.447 2.442 2.442 0 0 1 2.436 2.447 2.442 2.442 0 0 1-2.436 2.447zM503.048 104.615a2.442 2.442 0 0 1-2.437-2.447 2.442 2.442 0 0 1 2.437-2.447 2.442 2.442 0 0 1 2.436 2.447 2.442 2.442 0 0 1-2.436 2.447zM503.046 116.704a2.442 2.442 0 0 1-2.437-2.447 2.441 2.441 0 0 1 2.437-2.446 2.441 2.441 0 0 1 2.436 2.446 2.441 2.441 0 0 1-2.436 2.447zM503.048 128.792a2.442 2.442 0 0 1-2.437-2.447 2.442 2.442 0 0 1 2.437-2.447 2.442 2.442 0 0 1 2.436 2.447 2.441 2.441 0 0 1-2.436 2.447zM503.048 140.875a2.442 2.442 0 0 1-2.437-2.447 2.442 2.442 0 0 1 2.437-2.447 2.442 2.442 0 0 1 2.436 2.447 2.441 2.441 0 0 1-2.436 2.447zM503.048 152.967a2.442 2.442 0 0 1-2.437-2.447 2.442 2.442 0 0 1 2.437-2.447 2.442 2.442 0 0 1 2.436 2.447 2.441 2.441 0 0 1-2.436 2.447zM503.048 165.052a2.442 2.442 0 0 1-2.437-2.447 2.442 2.442 0 0 1 2.437-2.447 2.441 2.441 0 0 1 2.436 2.447 2.442 2.442 0 0 1-2.436 2.447zM503.048 177.142a2.442 2.442 0 0 1-2.437-2.447 2.442 2.442 0 0 1 2.437-2.447 2.442 2.442 0 0 1 2.436 2.447 2.442 2.442 0 0 1-2.436 2.447zM503.048 189.226a2.442 2.442 0 0 1-2.437-2.447 2.441 2.441 0 0 1 2.437-2.446 2.441 2.441 0 0 1 2.436 2.446 2.441 2.441 0 0 1-2.436 2.447zM503.048 201.316a2.442 2.442 0 0 1-2.437-2.447 2.442 2.442 0 0 1 2.437-2.447 2.442 2.442 0 0 1 2.436 2.447 2.441 2.441 0 0 1-2.436 2.447zM503.048 213.405a2.442 2.442 0 0 1-2.437-2.447 2.442 2.442 0 0 1 2.437-2.447 2.442 2.442 0 0 1 2.436 2.447 2.441 2.441 0 0 1-2.436 2.447zM503.048 225.496a2.442 2.442 0 0 1-2.437-2.447 2.441 2.441 0 0 1 2.437-2.446 2.441 2.441 0 0 1 2.436 2.446 2.441 2.441 0 0 1-2.436 2.447zM503.046 237.58a2.442 2.442 0 0 1-2.437-2.447 2.441 2.441 0 0 1 2.437-2.446 2.441 2.441 0 0 1 2.436 2.446 2.441 2.441 0 0 1-2.436 2.447zM491.013 68.35a2.442 2.442 0 0 1-2.437-2.447 2.442 2.442 0 0 1 2.437-2.447 2.442 2.442 0 0 1 2.436 2.447 2.442 2.442 0 0 1-2.436 2.447zM491.014 80.44a2.442 2.442 0 0 1-2.437-2.448 2.442 2.442 0 0 1 2.437-2.447 2.442 2.442 0 0 1 2.436 2.447 2.442 2.442 0 0 1-2.436 2.447zM491.014 92.525a2.442 2.442 0 0 1-2.437-2.447 2.442 2.442 0 0 1 2.437-2.447 2.442 2.442 0 0 1 2.436 2.447 2.442 2.442 0 0 1-2.436 2.447zM491.013 104.615a2.442 2.442 0 0 1-2.437-2.447 2.442 2.442 0 0 1 2.437-2.447 2.442 2.442 0 0 1 2.436 2.447 2.442 2.442 0 0 1-2.436 2.447zM491.013 116.704a2.442 2.442 0 0 1-2.437-2.447 2.441 2.441 0 0 1 2.437-2.446 2.441 2.441 0 0 1 2.436 2.446 2.441 2.441 0 0 1-2.436 2.447zM491.014 128.792a2.442 2.442 0 0 1-2.437-2.447 2.442 2.442 0 0 1 2.437-2.447 2.442 2.442 0 0 1 2.436 2.447 2.441 2.441 0 0 1-2.436 2.447zM491.013 140.875a2.442 2.442 0 0 1-2.437-2.447 2.442 2.442 0 0 1 2.437-2.447 2.442 2.442 0 0 1 2.436 2.447 2.441 2.441 0 0 1-2.436 2.447zM491.013 152.967a2.442 2.442 0 0 1-2.437-2.447 2.442 2.442 0 0 1 2.437-2.447 2.442 2.442 0 0 1 2.436 2.447 2.441 2.441 0 0 1-2.436 2.447zM491.014 165.052a2.442 2.442 0 0 1-2.437-2.447 2.442 2.442 0 0 1 2.437-2.447 2.441 2.441 0 0 1 2.436 2.447 2.442 2.442 0 0 1-2.436 2.447zM491.013 177.142a2.442 2.442 0 0 1-2.437-2.447 2.442 2.442 0 0 1 2.437-2.447 2.442 2.442 0 0 1 2.436 2.447 2.442 2.442 0 0 1-2.436 2.447zM491.013 189.226a2.442 2.442 0 0 1-2.437-2.447 2.441 2.441 0 0 1 2.437-2.446 2.441 2.441 0 0 1 2.436 2.446 2.441 2.441 0 0 1-2.436 2.447zM491.014 201.316a2.442 2.442 0 0 1-2.437-2.447 2.442 2.442 0 0 1 2.437-2.447 2.442 2.442 0 0 1 2.436 2.447 2.441 2.441 0 0 1-2.436 2.447zM491.013 213.405a2.442 2.442 0 0 1-2.437-2.447 2.442 2.442 0 0 1 2.437-2.447 2.442 2.442 0 0 1 2.436 2.447 2.441 2.441 0 0 1-2.436 2.447zM491.013 225.496a2.442 2.442 0 0 1-2.437-2.447 2.441 2.441 0 0 1 2.437-2.446 2.441 2.441 0 0 1 2.436 2.446 2.441 2.441 0 0 1-2.436 2.447zM491.013 237.58a2.442 2.442 0 0 1-2.437-2.447 2.441 2.441 0 0 1 2.437-2.446 2.441 2.441 0 0 1 2.436 2.446 2.441 2.441 0 0 1-2.436 2.447zM478.977 68.35a2.442 2.442 0 0 1-2.436-2.447 2.442 2.442 0 0 1 2.436-2.447 2.442 2.442 0 0 1 2.437 2.447 2.442 2.442 0 0 1-2.437 2.447zM478.977 80.44a2.442 2.442 0 0 1-2.436-2.448 2.442 2.442 0 0 1 2.436-2.447 2.442 2.442 0 0 1 2.437 2.447 2.442 2.442 0 0 1-2.437 2.447zM478.977 92.525a2.442 2.442 0 0 1-2.436-2.447 2.442 2.442 0 0 1 2.436-2.447 2.442 2.442 0 0 1 2.437 2.447 2.442 2.442 0 0 1-2.437 2.447zM478.977 104.615a2.442 2.442 0 0 1-2.436-2.447 2.442 2.442 0 0 1 2.436-2.447 2.442 2.442 0 0 1 2.437 2.447 2.442 2.442 0 0 1-2.437 2.447zM478.976 116.704a2.442 2.442 0 0 1-2.437-2.447 2.441 2.441 0 0 1 2.437-2.446 2.441 2.441 0 0 1 2.436 2.446 2.441 2.441 0 0 1-2.436 2.447zM478.977 128.792a2.441 2.441 0 0 1-2.436-2.447 2.442 2.442 0 0 1 2.436-2.447 2.442 2.442 0 0 1 2.437 2.447 2.442 2.442 0 0 1-2.437 2.447zM478.977 140.875a2.441 2.441 0 0 1-2.436-2.447 2.442 2.442 0 0 1 2.436-2.447 2.442 2.442 0 0 1 2.437 2.447 2.442 2.442 0 0 1-2.437 2.447zM478.977 152.967a2.441 2.441 0 0 1-2.436-2.447 2.442 2.442 0 0 1 2.436-2.447 2.442 2.442 0 0 1 2.437 2.447 2.442 2.442 0 0 1-2.437 2.447zM478.977 165.052a2.442 2.442 0 0 1-2.436-2.447 2.441 2.441 0 0 1 2.436-2.447 2.442 2.442 0 0 1 2.437 2.447 2.442 2.442 0 0 1-2.437 2.447zM478.977 177.142a2.442 2.442 0 0 1-2.436-2.447 2.442 2.442 0 0 1 2.436-2.447 2.442 2.442 0 0 1 2.437 2.447 2.442 2.442 0 0 1-2.437 2.447zM478.977 189.226a2.441 2.441 0 0 1-2.436-2.447 2.441 2.441 0 0 1 2.436-2.446 2.441 2.441 0 0 1 2.437 2.446 2.442 2.442 0 0 1-2.437 2.447zM478.977 201.316a2.441 2.441 0 0 1-2.436-2.447 2.442 2.442 0 0 1 2.436-2.447 2.442 2.442 0 0 1 2.437 2.447 2.442 2.442 0 0 1-2.437 2.447zM478.977 213.405a2.441 2.441 0 0 1-2.436-2.447 2.442 2.442 0 0 1 2.436-2.447 2.442 2.442 0 0 1 2.437 2.447 2.442 2.442 0 0 1-2.437 2.447zM478.977 225.496a2.441 2.441 0 0 1-2.436-2.447 2.441 2.441 0 0 1 2.436-2.446 2.441 2.441 0 0 1 2.437 2.446 2.442 2.442 0 0 1-2.437 2.447zM478.976 237.58a2.442 2.442 0 0 1-2.437-2.447 2.441 2.441 0 0 1 2.437-2.446 2.441 2.441 0 0 1 2.436 2.446 2.441 2.441 0 0 1-2.436 2.447zM466.94 68.35a2.442 2.442 0 0 1-2.436-2.447 2.442 2.442 0 0 1 2.436-2.447 2.442 2.442 0 0 1 2.437 2.447 2.442 2.442 0 0 1-2.437 2.447zM466.938 80.44a2.442 2.442 0 0 1-2.436-2.448 2.442 2.442 0 0 1 2.436-2.447 2.442 2.442 0 0 1 2.437 2.447 2.442 2.442 0 0 1-2.437 2.447zM466.94 92.525a2.442 2.442 0 0 1-2.436-2.447 2.442 2.442 0 0 1 2.436-2.447 2.442 2.442 0 0 1 2.437 2.447 2.442 2.442 0 0 1-2.437 2.447zM466.94 104.615a2.442 2.442 0 0 1-2.436-2.447 2.442 2.442 0 0 1 2.436-2.447 2.442 2.442 0 0 1 2.437 2.447 2.442 2.442 0 0 1-2.437 2.447zM466.939 116.704a2.441 2.441 0 0 1-2.436-2.447 2.441 2.441 0 0 1 2.436-2.446 2.441 2.441 0 0 1 2.437 2.446 2.442 2.442 0 0 1-2.437 2.447zM466.94 128.792a2.441 2.441 0 0 1-2.436-2.447 2.442 2.442 0 0 1 2.436-2.447 2.442 2.442 0 0 1 2.437 2.447 2.442 2.442 0 0 1-2.437 2.447zM466.94 140.875a2.441 2.441 0 0 1-2.436-2.447 2.442 2.442 0 0 1 2.436-2.447 2.442 2.442 0 0 1 2.437 2.447 2.442 2.442 0 0 1-2.437 2.447zM466.94 152.967a2.441 2.441 0 0 1-2.436-2.447 2.442 2.442 0 0 1 2.436-2.447 2.442 2.442 0 0 1 2.437 2.447 2.442 2.442 0 0 1-2.437 2.447zM466.94 165.052a2.442 2.442 0 0 1-2.436-2.447 2.441 2.441 0 0 1 2.436-2.447 2.442 2.442 0 0 1 2.437 2.447 2.442 2.442 0 0 1-2.437 2.447zM466.94 177.142a2.442 2.442 0 0 1-2.436-2.447 2.442 2.442 0 0 1 2.436-2.447 2.442 2.442 0 0 1 2.437 2.447 2.442 2.442 0 0 1-2.437 2.447zM466.94 189.226a2.441 2.441 0 0 1-2.436-2.447 2.441 2.441 0 0 1 2.436-2.446 2.441 2.441 0 0 1 2.437 2.446 2.442 2.442 0 0 1-2.437 2.447zM466.94 201.316a2.441 2.441 0 0 1-2.436-2.447 2.442 2.442 0 0 1 2.436-2.447 2.442 2.442 0 0 1 2.437 2.447 2.442 2.442 0 0 1-2.437 2.447zM466.94 213.405a2.441 2.441 0 0 1-2.436-2.447 2.442 2.442 0 0 1 2.436-2.447 2.442 2.442 0 0 1 2.437 2.447 2.442 2.442 0 0 1-2.437 2.447zM466.94 225.496a2.441 2.441 0 0 1-2.436-2.447 2.441 2.441 0 0 1 2.436-2.446 2.441 2.441 0 0 1 2.437 2.446 2.442 2.442 0 0 1-2.437 2.447zM466.939 237.58a2.441 2.441 0 0 1-2.436-2.447 2.441 2.441 0 0 1 2.436-2.446 2.441 2.441 0 0 1 2.437 2.446 2.442 2.442 0 0 1-2.437 2.447zM454.902 68.35a2.442 2.442 0 0 1-2.436-2.447 2.442 2.442 0 0 1 2.436-2.447 2.442 2.442 0 0 1 2.437 2.447 2.442 2.442 0 0 1-2.437 2.447zM454.901 80.44a2.442 2.442 0 0 1-2.436-2.448 2.442 2.442 0 0 1 2.436-2.447 2.442 2.442 0 0 1 2.437 2.447 2.442 2.442 0 0 1-2.437 2.447zM454.901 92.525a2.442 2.442 0 0 1-2.436-2.447 2.442 2.442 0 0 1 2.436-2.447 2.442 2.442 0 0 1 2.437 2.447 2.442 2.442 0 0 1-2.437 2.447zM454.902 104.615a2.442 2.442 0 0 1-2.436-2.447 2.442 2.442 0 0 1 2.436-2.447 2.442 2.442 0 0 1 2.437 2.447 2.442 2.442 0 0 1-2.437 2.447zM454.902 116.704a2.441 2.441 0 0 1-2.436-2.447 2.441 2.441 0 0 1 2.436-2.446 2.441 2.441 0 0 1 2.437 2.446 2.442 2.442 0 0 1-2.437 2.447zM454.901 128.792a2.441 2.441 0 0 1-2.436-2.447 2.442 2.442 0 0 1 2.436-2.447 2.442 2.442 0 0 1 2.437 2.447 2.442 2.442 0 0 1-2.437 2.447zM454.902 140.875a2.441 2.441 0 0 1-2.436-2.447 2.442 2.442 0 0 1 2.436-2.447 2.442 2.442 0 0 1 2.437 2.447 2.442 2.442 0 0 1-2.437 2.447zM454.902 152.967a2.441 2.441 0 0 1-2.436-2.447 2.442 2.442 0 0 1 2.436-2.447 2.442 2.442 0 0 1 2.437 2.447 2.442 2.442 0 0 1-2.437 2.447zM454.901 165.052a2.442 2.442 0 0 1-2.436-2.447 2.441 2.441 0 0 1 2.436-2.447 2.442 2.442 0 0 1 2.437 2.447 2.442 2.442 0 0 1-2.437 2.447zM454.902 177.142a2.442 2.442 0 0 1-2.436-2.447 2.442 2.442 0 0 1 2.436-2.447 2.442 2.442 0 0 1 2.437 2.447 2.442 2.442 0 0 1-2.437 2.447zM454.902 189.226a2.441 2.441 0 0 1-2.436-2.447 2.441 2.441 0 0 1 2.436-2.446 2.441 2.441 0 0 1 2.437 2.446 2.442 2.442 0 0 1-2.437 2.447zM454.901 201.316a2.441 2.441 0 0 1-2.436-2.447 2.442 2.442 0 0 1 2.436-2.447 2.442 2.442 0 0 1 2.437 2.447 2.442 2.442 0 0 1-2.437 2.447zM454.902 213.405a2.441 2.441 0 0 1-2.436-2.447 2.442 2.442 0 0 1 2.436-2.447 2.442 2.442 0 0 1 2.437 2.447 2.442 2.442 0 0 1-2.437 2.447zM454.902 225.496a2.441 2.441 0 0 1-2.436-2.447 2.441 2.441 0 0 1 2.436-2.446 2.441 2.441 0 0 1 2.437 2.446 2.442 2.442 0 0 1-2.437 2.447zM454.901 237.58a2.441 2.441 0 0 1-2.436-2.447 2.441 2.441 0 0 1 2.436-2.446 2.441 2.441 0 0 1 2.437 2.446 2.442 2.442 0 0 1-2.437 2.447zM442.864 68.35a2.442 2.442 0 0 1-2.436-2.447 2.442 2.442 0 0 1 2.436-2.447 2.442 2.442 0 0 1 2.437 2.447 2.442 2.442 0 0 1-2.437 2.447zM442.864 80.44a2.442 2.442 0 0 1-2.436-2.448 2.442 2.442 0 0 1 2.436-2.447 2.442 2.442 0 0 1 2.437 2.447 2.442 2.442 0 0 1-2.437 2.447zM442.864 92.525a2.442 2.442 0 0 1-2.436-2.447 2.442 2.442 0 0 1 2.436-2.447 2.442 2.442 0 0 1 2.437 2.447 2.442 2.442 0 0 1-2.437 2.447zM442.864 104.615a2.442 2.442 0 0 1-2.436-2.447 2.442 2.442 0 0 1 2.436-2.447 2.442 2.442 0 0 1 2.437 2.447 2.442 2.442 0 0 1-2.437 2.447zM442.863 116.704a2.441 2.441 0 0 1-2.436-2.447 2.441 2.441 0 0 1 2.436-2.446 2.441 2.441 0 0 1 2.437 2.446 2.442 2.442 0 0 1-2.437 2.447zM442.864 128.792a2.441 2.441 0 0 1-2.436-2.447 2.442 2.442 0 0 1 2.436-2.447 2.442 2.442 0 0 1 2.437 2.447 2.442 2.442 0 0 1-2.437 2.447zM442.864 140.875a2.441 2.441 0 0 1-2.436-2.447 2.442 2.442 0 0 1 2.436-2.447 2.442 2.442 0 0 1 2.437 2.447 2.442 2.442 0 0 1-2.437 2.447zM442.864 152.967a2.441 2.441 0 0 1-2.436-2.447 2.442 2.442 0 0 1 2.436-2.447 2.442 2.442 0 0 1 2.437 2.447 2.442 2.442 0 0 1-2.437 2.447zM442.864 165.052a2.442 2.442 0 0 1-2.436-2.447 2.441 2.441 0 0 1 2.436-2.447 2.442 2.442 0 0 1 2.437 2.447 2.442 2.442 0 0 1-2.437 2.447zM442.864 177.142a2.442 2.442 0 0 1-2.436-2.447 2.442 2.442 0 0 1 2.436-2.447 2.442 2.442 0 0 1 2.437 2.447 2.442 2.442 0 0 1-2.437 2.447zM442.864 189.226a2.441 2.441 0 0 1-2.436-2.447 2.441 2.441 0 0 1 2.436-2.446 2.441 2.441 0 0 1 2.437 2.446 2.442 2.442 0 0 1-2.437 2.447zM442.864 201.316a2.441 2.441 0 0 1-2.436-2.447 2.442 2.442 0 0 1 2.436-2.447 2.442 2.442 0 0 1 2.437 2.447 2.442 2.442 0 0 1-2.437 2.447zM442.864 213.405a2.441 2.441 0 0 1-2.436-2.447 2.442 2.442 0 0 1 2.436-2.447 2.442 2.442 0 0 1 2.437 2.447 2.442 2.442 0 0 1-2.437 2.447zM442.864 225.496a2.441 2.441 0 0 1-2.436-2.447 2.441 2.441 0 0 1 2.436-2.446 2.441 2.441 0 0 1 2.437 2.446 2.442 2.442 0 0 1-2.437 2.447zM442.863 237.58a2.441 2.441 0 0 1-2.436-2.447 2.441 2.441 0 0 1 2.436-2.446 2.441 2.441 0 0 1 2.437 2.446 2.442 2.442 0 0 1-2.437 2.447zM430.829 68.35a2.441 2.441 0 0 1-2.436-2.447 2.441 2.441 0 0 1 2.436-2.447 2.442 2.442 0 0 1 2.437 2.447 2.442 2.442 0 0 1-2.437 2.447zM430.829 80.44a2.441 2.441 0 0 1-2.436-2.448 2.441 2.441 0 0 1 2.436-2.447 2.442 2.442 0 0 1 2.437 2.447 2.442 2.442 0 0 1-2.437 2.447zM430.829 92.525a2.441 2.441 0 0 1-2.436-2.447 2.441 2.441 0 0 1 2.436-2.447 2.442 2.442 0 0 1 2.437 2.447 2.442 2.442 0 0 1-2.437 2.447zM430.829 104.615a2.441 2.441 0 0 1-2.436-2.447 2.441 2.441 0 0 1 2.436-2.447 2.442 2.442 0 0 1 2.437 2.447 2.442 2.442 0 0 1-2.437 2.447zM430.829 116.704a2.44 2.44 0 0 1-2.436-2.447 2.44 2.44 0 0 1 2.436-2.446 2.441 2.441 0 0 1 2.437 2.446 2.442 2.442 0 0 1-2.437 2.447zM430.829 128.792a2.44 2.44 0 0 1-2.436-2.447 2.441 2.441 0 0 1 2.436-2.447 2.442 2.442 0 0 1 2.437 2.447 2.442 2.442 0 0 1-2.437 2.447zM430.829 140.875a2.44 2.44 0 0 1-2.436-2.447 2.441 2.441 0 0 1 2.436-2.447 2.442 2.442 0 0 1 2.437 2.447 2.442 2.442 0 0 1-2.437 2.447zM430.829 152.967a2.44 2.44 0 0 1-2.436-2.447 2.441 2.441 0 0 1 2.436-2.447 2.442 2.442 0 0 1 2.437 2.447 2.442 2.442 0 0 1-2.437 2.447zM430.829 165.052a2.441 2.441 0 0 1-2.436-2.447 2.44 2.44 0 0 1 2.436-2.447 2.442 2.442 0 0 1 2.437 2.447 2.442 2.442 0 0 1-2.437 2.447zM430.829 177.142a2.441 2.441 0 0 1-2.436-2.447 2.441 2.441 0 0 1 2.436-2.447 2.442 2.442 0 0 1 2.437 2.447 2.442 2.442 0 0 1-2.437 2.447zM430.829 189.226a2.44 2.44 0 0 1-2.436-2.447 2.44 2.44 0 0 1 2.436-2.446 2.441 2.441 0 0 1 2.437 2.446 2.442 2.442 0 0 1-2.437 2.447zM430.829 201.316a2.44 2.44 0 0 1-2.436-2.447 2.441 2.441 0 0 1 2.436-2.447 2.442 2.442 0 0 1 2.437 2.447 2.442 2.442 0 0 1-2.437 2.447zM430.829 213.405a2.44 2.44 0 0 1-2.436-2.447 2.441 2.441 0 0 1 2.436-2.447 2.442 2.442 0 0 1 2.437 2.447 2.442 2.442 0 0 1-2.437 2.447zM430.829 225.496a2.44 2.44 0 0 1-2.436-2.447 2.44 2.44 0 0 1 2.436-2.446 2.441 2.441 0 0 1 2.437 2.446 2.442 2.442 0 0 1-2.437 2.447zM430.829 237.58a2.44 2.44 0 0 1-2.436-2.447 2.44 2.44 0 0 1 2.436-2.446 2.441 2.441 0 0 1 2.437 2.446 2.442 2.442 0 0 1-2.437 2.447zM418.795 68.35a2.442 2.442 0 0 1-2.437-2.447 2.442 2.442 0 0 1 2.437-2.447 2.442 2.442 0 0 1 2.436 2.447 2.442 2.442 0 0 1-2.436 2.447zM418.795 80.44a2.442 2.442 0 0 1-2.437-2.448 2.442 2.442 0 0 1 2.437-2.447 2.442 2.442 0 0 1 2.436 2.447 2.442 2.442 0 0 1-2.436 2.447zM418.795 92.525a2.442 2.442 0 0 1-2.437-2.447 2.442 2.442 0 0 1 2.437-2.447 2.442 2.442 0 0 1 2.436 2.447 2.442 2.442 0 0 1-2.436 2.447zM418.795 104.615a2.442 2.442 0 0 1-2.437-2.447 2.442 2.442 0 0 1 2.437-2.447 2.442 2.442 0 0 1 2.436 2.447 2.442 2.442 0 0 1-2.436 2.447zM418.795 116.704a2.442 2.442 0 0 1-2.437-2.447 2.441 2.441 0 0 1 2.437-2.446 2.441 2.441 0 0 1 2.436 2.446 2.441 2.441 0 0 1-2.436 2.447zM418.795 128.792a2.442 2.442 0 0 1-2.437-2.447 2.442 2.442 0 0 1 2.437-2.447 2.442 2.442 0 0 1 2.436 2.447 2.441 2.441 0 0 1-2.436 2.447zM418.795 140.875a2.442 2.442 0 0 1-2.437-2.447 2.442 2.442 0 0 1 2.437-2.447 2.442 2.442 0 0 1 2.436 2.447 2.441 2.441 0 0 1-2.436 2.447zM418.795 152.967a2.442 2.442 0 0 1-2.437-2.447 2.442 2.442 0 0 1 2.437-2.447 2.442 2.442 0 0 1 2.436 2.447 2.441 2.441 0 0 1-2.436 2.447zM418.795 165.052a2.442 2.442 0 0 1-2.437-2.447 2.442 2.442 0 0 1 2.437-2.447 2.441 2.441 0 0 1 2.436 2.447 2.442 2.442 0 0 1-2.436 2.447zM418.795 177.142a2.442 2.442 0 0 1-2.437-2.447 2.442 2.442 0 0 1 2.437-2.447 2.442 2.442 0 0 1 2.436 2.447 2.442 2.442 0 0 1-2.436 2.447zM418.795 189.226a2.442 2.442 0 0 1-2.437-2.447 2.441 2.441 0 0 1 2.437-2.446 2.441 2.441 0 0 1 2.436 2.446 2.441 2.441 0 0 1-2.436 2.447zM418.795 201.316a2.442 2.442 0 0 1-2.437-2.447 2.442 2.442 0 0 1 2.437-2.447 2.442 2.442 0 0 1 2.436 2.447 2.441 2.441 0 0 1-2.436 2.447zM418.795 213.405a2.442 2.442 0 0 1-2.437-2.447 2.442 2.442 0 0 1 2.437-2.447 2.442 2.442 0 0 1 2.436 2.447 2.441 2.441 0 0 1-2.436 2.447zM418.795 225.496a2.442 2.442 0 0 1-2.437-2.447 2.441 2.441 0 0 1 2.437-2.446 2.441 2.441 0 0 1 2.436 2.446 2.441 2.441 0 0 1-2.436 2.447zM418.795 237.58a2.442 2.442 0 0 1-2.437-2.447 2.441 2.441 0 0 1 2.437-2.446 2.441 2.441 0 0 1 2.436 2.446 2.441 2.441 0 0 1-2.436 2.447zM406.759 68.35a2.442 2.442 0 0 1-2.437-2.447 2.442 2.442 0 0 1 2.437-2.447 2.442 2.442 0 0 1 2.436 2.447 2.442 2.442 0 0 1-2.436 2.447zM406.759 80.44a2.442 2.442 0 0 1-2.437-2.448 2.442 2.442 0 0 1 2.437-2.447 2.442 2.442 0 0 1 2.436 2.447 2.442 2.442 0 0 1-2.436 2.447zM406.759 92.525a2.442 2.442 0 0 1-2.437-2.447 2.442 2.442 0 0 1 2.437-2.447 2.442 2.442 0 0 1 2.436 2.447 2.442 2.442 0 0 1-2.436 2.447zM406.759 104.615a2.442 2.442 0 0 1-2.437-2.447 2.442 2.442 0 0 1 2.437-2.447 2.442 2.442 0 0 1 2.436 2.447 2.442 2.442 0 0 1-2.436 2.447zM406.758 116.704a2.442 2.442 0 0 1-2.437-2.447 2.441 2.441 0 0 1 2.437-2.446 2.441 2.441 0 0 1 2.436 2.446 2.441 2.441 0 0 1-2.436 2.447zM406.759 128.792a2.442 2.442 0 0 1-2.437-2.447 2.442 2.442 0 0 1 2.437-2.447 2.442 2.442 0 0 1 2.436 2.447 2.441 2.441 0 0 1-2.436 2.447zM406.759 140.875a2.442 2.442 0 0 1-2.437-2.447 2.442 2.442 0 0 1 2.437-2.447 2.442 2.442 0 0 1 2.436 2.447 2.441 2.441 0 0 1-2.436 2.447zM406.759 152.967a2.442 2.442 0 0 1-2.437-2.447 2.442 2.442 0 0 1 2.437-2.447 2.442 2.442 0 0 1 2.436 2.447 2.441 2.441 0 0 1-2.436 2.447zM406.759 165.052a2.442 2.442 0 0 1-2.437-2.447 2.442 2.442 0 0 1 2.437-2.447 2.441 2.441 0 0 1 2.436 2.447 2.442 2.442 0 0 1-2.436 2.447zM406.759 177.142a2.442 2.442 0 0 1-2.437-2.447 2.442 2.442 0 0 1 2.437-2.447 2.442 2.442 0 0 1 2.436 2.447 2.442 2.442 0 0 1-2.436 2.447zM406.759 189.226a2.442 2.442 0 0 1-2.437-2.447 2.441 2.441 0 0 1 2.437-2.446 2.441 2.441 0 0 1 2.436 2.446 2.441 2.441 0 0 1-2.436 2.447zM406.759 201.316a2.442 2.442 0 0 1-2.437-2.447 2.442 2.442 0 0 1 2.437-2.447 2.442 2.442 0 0 1 2.436 2.447 2.441 2.441 0 0 1-2.436 2.447zM406.759 213.405a2.442 2.442 0 0 1-2.437-2.447 2.442 2.442 0 0 1 2.437-2.447 2.442 2.442 0 0 1 2.436 2.447 2.441 2.441 0 0 1-2.436 2.447zM406.759 225.496a2.442 2.442 0 0 1-2.437-2.447 2.441 2.441 0 0 1 2.437-2.446 2.441 2.441 0 0 1 2.436 2.446 2.441 2.441 0 0 1-2.436 2.447zM406.758 237.58a2.442 2.442 0 0 1-2.437-2.447 2.441 2.441 0 0 1 2.437-2.446 2.441 2.441 0 0 1 2.436 2.446 2.441 2.441 0 0 1-2.436 2.447zM394.722 68.35a2.442 2.442 0 0 1-2.437-2.447 2.442 2.442 0 0 1 2.437-2.447 2.442 2.442 0 0 1 2.436 2.447 2.442 2.442 0 0 1-2.436 2.447zM394.722 80.44a2.442 2.442 0 0 1-2.437-2.448 2.442 2.442 0 0 1 2.437-2.447 2.442 2.442 0 0 1 2.436 2.447 2.442 2.442 0 0 1-2.436 2.447zM394.722 92.525a2.442 2.442 0 0 1-2.437-2.447 2.442 2.442 0 0 1 2.437-2.447 2.442 2.442 0 0 1 2.436 2.447 2.442 2.442 0 0 1-2.436 2.447zM394.722 104.615a2.442 2.442 0 0 1-2.437-2.447 2.442 2.442 0 0 1 2.437-2.447 2.442 2.442 0 0 1 2.436 2.447 2.442 2.442 0 0 1-2.436 2.447zM394.72 116.704a2.442 2.442 0 0 1-2.437-2.447 2.441 2.441 0 0 1 2.437-2.446 2.441 2.441 0 0 1 2.436 2.446 2.441 2.441 0 0 1-2.436 2.447zM394.722 128.792a2.442 2.442 0 0 1-2.437-2.447 2.442 2.442 0 0 1 2.437-2.447 2.442 2.442 0 0 1 2.436 2.447 2.441 2.441 0 0 1-2.436 2.447zM394.722 140.875a2.442 2.442 0 0 1-2.437-2.447 2.442 2.442 0 0 1 2.437-2.447 2.442 2.442 0 0 1 2.436 2.447 2.441 2.441 0 0 1-2.436 2.447zM394.722 152.967a2.442 2.442 0 0 1-2.437-2.447 2.442 2.442 0 0 1 2.437-2.447 2.442 2.442 0 0 1 2.436 2.447 2.441 2.441 0 0 1-2.436 2.447zM394.722 165.052a2.442 2.442 0 0 1-2.437-2.447 2.442 2.442 0 0 1 2.437-2.447 2.441 2.441 0 0 1 2.436 2.447 2.442 2.442 0 0 1-2.436 2.447zM394.722 177.142a2.442 2.442 0 0 1-2.437-2.447 2.442 2.442 0 0 1 2.437-2.447 2.442 2.442 0 0 1 2.436 2.447 2.442 2.442 0 0 1-2.436 2.447zM394.722 189.226a2.442 2.442 0 0 1-2.437-2.447 2.441 2.441 0 0 1 2.437-2.446 2.441 2.441 0 0 1 2.436 2.446 2.441 2.441 0 0 1-2.436 2.447zM394.722 201.316a2.442 2.442 0 0 1-2.437-2.447 2.442 2.442 0 0 1 2.437-2.447 2.442 2.442 0 0 1 2.436 2.447 2.441 2.441 0 0 1-2.436 2.447zM394.722 213.405a2.442 2.442 0 0 1-2.437-2.447 2.442 2.442 0 0 1 2.437-2.447 2.442 2.442 0 0 1 2.436 2.447 2.441 2.441 0 0 1-2.436 2.447zM394.722 225.496a2.442 2.442 0 0 1-2.437-2.447 2.441 2.441 0 0 1 2.437-2.446 2.441 2.441 0 0 1 2.436 2.446 2.441 2.441 0 0 1-2.436 2.447zM394.72 237.58a2.442 2.442 0 0 1-2.437-2.447 2.441 2.441 0 0 1 2.437-2.446 2.441 2.441 0 0 1 2.436 2.446 2.441 2.441 0 0 1-2.436 2.447zM382.688 68.35a2.442 2.442 0 0 1-2.436-2.446 2.442 2.442 0 0 1 2.436-2.447 2.442 2.442 0 0 1 2.437 2.447 2.442 2.442 0 0 1-2.437 2.447zM382.686 80.44a2.442 2.442 0 0 1-2.436-2.448 2.442 2.442 0 0 1 2.436-2.447 2.442 2.442 0 0 1 2.437 2.447 2.442 2.442 0 0 1-2.437 2.447zM382.686 92.525a2.442 2.442 0 0 1-2.436-2.447 2.442 2.442 0 0 1 2.436-2.447 2.442 2.442 0 0 1 2.437 2.447 2.442 2.442 0 0 1-2.437 2.447zM382.686 104.615a2.442 2.442 0 0 1-2.436-2.447 2.442 2.442 0 0 1 2.436-2.447 2.442 2.442 0 0 1 2.437 2.447 2.442 2.442 0 0 1-2.437 2.447zM382.686 116.704a2.442 2.442 0 0 1-2.437-2.447 2.441 2.441 0 0 1 2.437-2.446 2.441 2.441 0 0 1 2.436 2.446 2.441 2.441 0 0 1-2.436 2.447zM382.686 128.792a2.441 2.441 0 0 1-2.436-2.447 2.442 2.442 0 0 1 2.436-2.447 2.442 2.442 0 0 1 2.437 2.447 2.442 2.442 0 0 1-2.437 2.447zM382.686 140.875a2.441 2.441 0 0 1-2.436-2.447 2.442 2.442 0 0 1 2.436-2.447 2.442 2.442 0 0 1 2.437 2.447 2.442 2.442 0 0 1-2.437 2.447zM382.686 152.967a2.441 2.441 0 0 1-2.436-2.447 2.442 2.442 0 0 1 2.436-2.447 2.442 2.442 0 0 1 2.437 2.447 2.442 2.442 0 0 1-2.437 2.447zM382.686 165.052a2.442 2.442 0 0 1-2.436-2.447 2.441 2.441 0 0 1 2.436-2.447 2.442 2.442 0 0 1 2.437 2.447 2.442 2.442 0 0 1-2.437 2.447zM382.686 177.142a2.442 2.442 0 0 1-2.436-2.447 2.442 2.442 0 0 1 2.436-2.447 2.442 2.442 0 0 1 2.437 2.447 2.442 2.442 0 0 1-2.437 2.447zM382.686 189.226a2.441 2.441 0 0 1-2.436-2.447 2.441 2.441 0 0 1 2.436-2.446 2.441 2.441 0 0 1 2.437 2.446 2.442 2.442 0 0 1-2.437 2.447zM382.686 201.316a2.441 2.441 0 0 1-2.436-2.447 2.442 2.442 0 0 1 2.436-2.447 2.442 2.442 0 0 1 2.437 2.447 2.442 2.442 0 0 1-2.437 2.447zM382.686 213.405a2.441 2.441 0 0 1-2.436-2.447 2.442 2.442 0 0 1 2.436-2.447 2.442 2.442 0 0 1 2.437 2.447 2.442 2.442 0 0 1-2.437 2.447zM382.686 225.496a2.441 2.441 0 0 1-2.436-2.447 2.441 2.441 0 0 1 2.436-2.446 2.441 2.441 0 0 1 2.437 2.446 2.442 2.442 0 0 1-2.437 2.447zM382.686 237.58a2.442 2.442 0 0 1-2.437-2.447 2.441 2.441 0 0 1 2.437-2.446 2.441 2.441 0 0 1 2.436 2.446 2.441 2.441 0 0 1-2.436 2.447z" fill="#2A323E"/>
        <path d="M370.979 100.662c0-48.847 39.483-88.425 88.214-88.425s88.215 39.578 88.215 88.425c0 48.847-39.484 88.424-88.215 88.424s-88.214-39.577-88.214-88.424z" fill="#1BA5F8"/>
        <path fill-rule="evenodd" clip-rule="evenodd" d="M368.532 100.662c0-50.122 40.658-90.877 90.661-90.877 50.004 0 90.662 40.755 90.662 90.877 0 50.122-40.658 90.877-90.662 90.877-50.003 0-90.661-40.755-90.661-90.877zm4.893 0c0 47.425 38.456 85.973 85.768 85.973 47.313 0 85.769-38.548 85.769-85.973s-38.456-85.973-85.769-85.973c-47.312 0-85.768 38.548-85.768 85.973z" fill="#011627"/>
        <path d="M370.979 98.848c0-48.847 39.483-88.425 88.214-88.425S547.408 50 547.408 98.848c0 48.847-39.484 88.425-88.215 88.425s-88.214-39.578-88.214-88.425z" fill="#1BA5F8"/>
        <path fill-rule="evenodd" clip-rule="evenodd" d="M368.534 98.847c0-50.122 40.658-90.877 90.661-90.877s90.662 40.755 90.662 90.877c0 50.122-40.659 90.877-90.662 90.877-50.003 0-90.661-40.755-90.661-90.877zm4.893 0c0 47.424 38.456 85.972 85.768 85.972 47.313 0 85.769-38.548 85.769-85.972 0-47.425-38.456-85.973-85.769-85.973-47.312 0-85.768 38.548-85.768 85.973z" fill="#011627"/>
        <path d="m429.151 85.95 28.769 40.264 39.093-48.405" fill="#1BA5F8"/>
        <path d="M457.774 131.12a4.798 4.798 0 0 1-3.816-2.06l-28.769-40.264a4.947 4.947 0 0 1 1.125-6.867c2.202-1.569 5.235-1.079 6.85 1.129l25.05 35.016 35.032-43.403c1.712-2.109 4.795-2.452 6.899-.736 2.104 1.717 2.446 4.807.734 6.915l-39.093 48.406c-.978 1.177-2.397 1.864-3.865 1.864h-.147z" fill="#011627"/>
        <path d="M216.154 190.77v-4.363h-76.2v-46.116h-4.344v48.341c0 1.178.956 2.138 2.172 2.138h78.372z" fill="#2A323E"/>
        <path d="M70.04 318.571s88.639-29.986 106.03-77.077a158.831 158.831 0 0 0 6.992-24.935c8.57-44.131 67.662-50.41 84.551-8.949 12.12 29.843 25.208 54.849 56.798 66.613 36.036 13.496 56.869 30.528 68.738 44.348H70.04z" fill="#63768B"/>
        <path fill-rule="evenodd" clip-rule="evenodd" d="M70.04 320.376c-.86 0-1.613-.65-1.757-1.516-.143-.866.359-1.732 1.183-1.984.216-.072 22.34-7.614 46.256-20.785 21.909-12.052 49.878-31.43 58.663-55.21a157.366 157.366 0 0 0 6.92-24.646c4.088-21.109 20.188-36.012 41.056-38.105 9.61-.938 19.005 1.01 27.144 5.665 8.821 5.052 15.67 13.027 19.758 23.094 5.558 13.677 11.94 27.966 20.869 39.658 9.287 12.16 20.689 20.64 34.889 25.944 16.601 6.207 31.339 13.713 43.817 22.265 10.076 6.892 18.682 14.506 25.638 22.625.466.541.574 1.299.287 1.912-.287.614-.897 1.083-1.614 1.083H70.04zm319.093-3.609c-19.112-20.64-45.861-33.558-65.332-40.847-33.06-12.305-46.219-39.008-57.837-67.623-3.801-9.31-10.112-16.708-18.216-21.326-7.494-4.294-16.171-6.099-25.028-5.197-8.857.866-17.319 4.511-23.917 10.212-7.207 6.279-12.048 14.903-13.984 24.935-1.685 8.624-3.98 16.888-7.064 25.223-4.088 11.042-12.299 22.012-24.419 32.657-9.609 8.444-21.693 16.671-35.964 24.501-14.594 8.011-28.579 13.965-37.364 17.465h309.125z" fill="#63768B"/>
        <path fill-rule="evenodd" clip-rule="evenodd" d="M541.986 279.358v22.647h-6.854v-22.647h6.854z" fill="#2A323E"/>
        <path fill-rule="evenodd" clip-rule="evenodd" d="M549.868 287.274v6.884h-22.551v-6.884h22.551z" fill="#2A323E"/>
        <path fill-rule="evenodd" clip-rule="evenodd" d="M137.782 140.249c32.343 0 58.562-26.331 58.562-58.813s-26.219-58.813-58.562-58.813c-32.343 0-58.562 26.332-58.562 58.813 0 32.482 26.219 58.813 58.562 58.813z" fill="#E6EAF7"/>
        <path fill-rule="evenodd" clip-rule="evenodd" d="M198.517 81.478c0-33.639-27.239-60.995-60.734-60.995-33.495 0-60.734 27.356-60.734 60.995-.044 33.595 27.239 60.994 60.734 60.994 33.495 0 60.734-27.355 60.734-60.994zm-4.344-.044c0 31.239-25.285 56.632-56.39 56.632-31.106 0-56.39-25.393-56.39-56.632 0-31.239 25.284-56.631 56.39-56.631 31.105 0 56.39 25.392 56.39 56.631z" fill="#011627"/>
        <path fill-rule="evenodd" clip-rule="evenodd" d="M137.78 80.518c8.446 0 15.292-6.876 15.292-15.358 0-8.481-6.846-15.357-15.292-15.357-8.445 0-15.292 6.876-15.292 15.357 0 8.482 6.847 15.358 15.292 15.358z" fill="#FDFEFE"/>
        <path fill-rule="evenodd" clip-rule="evenodd" d="M155.245 65.161c0-9.642-7.82-17.539-17.464-17.539-9.601 0-17.465 7.853-17.465 17.54 0 9.685 7.82 17.538 17.465 17.538 9.601 0 17.464-7.853 17.464-17.539zm-4.344.044c0 7.286-5.865 13.176-13.12 13.176-7.212 0-13.12-5.89-13.12-13.176 0-7.286 5.865-13.176 13.12-13.176 7.211 0 13.12 5.89 13.12 13.176z" fill="#011627"/>
        <path d="M161.806 110.449v-5.759c0-13.35-10.774-24.127-24.025-24.127-13.293 0-24.024 10.82-24.024 24.127l-.043 5.759h48.092z" fill="#FDFEFE"/>
        <path fill-rule="evenodd" clip-rule="evenodd" d="M161.805 112.631c1.217 0 2.172-.96 2.172-2.182v-5.759c0-14.529-11.773-26.309-26.196-26.309-14.423 0-26.197 11.824-26.197 26.309v5.759c-.043 1.178.956 2.182 2.129 2.182h48.092zm-45.92-4.363v-3.578c0-12.129 9.819-21.946 21.852-21.946 12.078 0 21.852 9.86 21.852 21.946l.044 3.578h-43.748z" fill="#011627"/>
        <path fill-rule="evenodd" clip-rule="evenodd" d="M99.162 314.548c20.754 0 37.578-16.896 37.578-37.739 0-20.843-16.824-37.74-37.578-37.74-20.755 0-37.58 16.897-37.58 37.74 0 20.843 16.825 37.739 37.58 37.739z" fill="#1BA5F8"/>
        <path fill-rule="evenodd" clip-rule="evenodd" d="M138.913 276.81c0-21.989-17.856-39.921-39.751-39.921-21.896 0-39.75 17.932-39.75 39.921s17.811 39.921 39.75 39.921 39.751-17.932 39.751-39.921zm-4.345-.044c0 19.59-15.9 35.559-35.406 35.559-19.55 0-35.407-15.969-35.407-35.559 0-19.589 15.857-35.558 35.407-35.558 19.55 0 35.406 15.969 35.406 35.558z" fill="#011627"/>
        <path fill-rule="evenodd" clip-rule="evenodd" d="M99.162 276.199c5.423 0 9.818-4.414 9.818-9.86s-4.395-9.86-9.818-9.86c-5.422 0-9.818 4.414-9.818 9.86s4.396 9.86 9.818 9.86z" fill="#FDFEFE"/>
        <path fill-rule="evenodd" clip-rule="evenodd" d="M111.153 266.339c0-6.632-5.387-12.042-11.99-12.042-6.604 0-11.991 5.41-11.991 12.042s5.387 12.042 11.99 12.042c6.604 0 11.991-5.41 11.991-12.042zm-4.345.044c0 4.232-3.432 7.679-7.646 7.679s-7.646-3.447-7.646-7.679c0-4.276 3.432-7.679 7.646-7.679s7.646 3.447 7.646 7.679z" fill="#011627"/>
        <path d="M114.541 295.397v-3.709c0-8.551-6.908-15.488-15.422-15.488-8.515 0-15.423 6.937-15.423 15.488v3.709h30.845z" fill="#FDFEFE"/>
        <path fill-rule="evenodd" clip-rule="evenodd" d="M114.541 297.578c1.216 0 2.172-.96 2.172-2.182v-3.708c0-9.73-7.907-17.67-17.595-17.67-9.688 0-17.595 7.94-17.595 17.67v3.708c0 1.222 1 2.182 2.173 2.182h30.845zm-28.63-4.363v-1.527c0-7.33 5.952-13.307 13.25-13.307 7.299 0 13.251 5.977 13.251 13.307v1.527h-26.5z" fill="#011627"/>
        <path d="M101.334 239.025v-48.254h36.449v-4.363H99.162c-1.217 0-2.172.96-2.172 2.181v50.436h4.344z" fill="#011627"/>
        <path fill-rule="evenodd" clip-rule="evenodd" d="M137.784 193.52c2.711 0 4.909-2.208 4.909-4.931 0-2.722-2.198-4.93-4.909-4.93s-4.909 2.208-4.909 4.93c0 2.723 2.198 4.931 4.909 4.931z" fill="#011627"/>
        <path fill-rule="evenodd" clip-rule="evenodd" d="M144.865 188.59c0-3.927-3.172-7.112-7.082-7.112-3.909 0-7.081 3.185-7.081 7.112 0 3.926 3.172 7.111 7.081 7.111 3.91 0 7.082-3.185 7.082-7.111zm-4.345 0a2.73 2.73 0 0 1-2.737 2.748 2.73 2.73 0 0 1-2.736-2.748 2.731 2.731 0 0 1 2.736-2.749 2.731 2.731 0 0 1 2.737 2.749zM99.162 193.52c2.711 0 4.909-2.208 4.909-4.931 0-2.722-2.198-4.93-4.909-4.93s-4.909 2.208-4.909 4.93c0 2.723 2.198 4.931 4.91 4.931z" fill="#011627"/>
        <path fill-rule="evenodd" clip-rule="evenodd" d="M106.242 188.59c0-3.927-3.172-7.112-7.082-7.112-3.91 0-7.08 3.185-7.08 7.112 0 3.926 3.17 7.111 7.08 7.111s7.082-3.185 7.082-7.111zm-4.345 0a2.73 2.73 0 0 1-2.737 2.748 2.73 2.73 0 0 1-2.736-2.748 2.732 2.732 0 0 1 2.736-2.749 2.731 2.731 0 0 1 2.737 2.749z" fill="#011627"/>
        <path d="M169.782-1.098H2.214C.974-1.098 0-.116 0 1.132v130.77c0 .624.266 1.249.753 1.695.398.357.93.535 1.461.535h.266c51.944-6.601 67.62-32.603 84.226-60.122 7.927-13.157 16.164-26.76 28.74-39.115 14.215-13.96 32.238-24.307 55-31.577 1.063-.402 1.683-1.427 1.505-2.542-.177-1.07-1.107-1.874-2.169-1.874z" fill="#0B2A3C"/>
        <path fill-rule="evenodd" clip-rule="evenodd" d="M195.149 35.716v30.021h-9.086v-30.02h9.086z" fill="#2A323E"/>
        <path fill-rule="evenodd" clip-rule="evenodd" d="M205.598 46.209v9.124h-29.893V46.21h29.893z" fill="#2A323E"/>
    </g>
</svg>
