<svg width="1584" height="318" viewBox="0 0 1584 318" fill="none" xmlns="http://www.w3.org/2000/svg">
<path opacity="0.62" d="M64.7821 251.363L104.971 201.95C109.168 196.79 117.067 196.79 121.263 201.95L161.453 251.363C164.579 255.209 164.579 260.704 161.453 264.549L121.263 313.963C117.067 319.122 109.168 319.122 104.971 313.963L64.7821 264.549C61.656 260.704 61.656 255.209 64.7821 251.363Z" fill="#2DB1FF"/>
<path d="M127.224 130.526L167.413 81.112C171.609 75.9529 179.509 75.9529 183.705 81.112L223.894 130.526C227.021 134.371 227.021 139.866 223.894 143.712L183.705 193.126C179.509 198.285 171.609 198.285 167.413 193.126L127.224 143.712C124.098 139.866 124.098 134.371 127.224 130.526Z" fill="#2DB1FF"/>
<path d="M2.34462 130.526L42.5339 81.112C46.7301 75.9529 54.6297 75.9529 58.826 81.112L99.0152 130.526C102.141 134.371 102.141 139.866 99.0152 143.712L58.826 193.126C54.6297 198.285 46.7301 198.285 42.5339 193.126L2.34462 143.712C-0.781541 139.866 -0.781541 134.371 2.34462 130.526Z" fill="#2DB1FF"/>
<path d="M64.7821 53.2892L104.971 3.86936C109.168 -1.28979 117.067 -1.28979 121.263 3.86936L161.453 53.2832C164.579 57.1286 164.579 62.6237 161.453 66.469L121.263 115.883C117.067 121.042 109.168 121.042 104.971 115.883L64.7821 66.475C61.656 62.6297 61.656 57.1286 64.7821 53.2892Z" fill="#2DB1FF"/>
<path d="M1525.45 160.575L1583.1 223H1548.15L1501.84 169.201V223H1475.96V55.02H1501.84V152.63L1547.24 97.923H1583.1L1525.45 160.575Z" fill="#0E0E52"/>
<path d="M1416.72 116.083C1420.5 109.727 1425.5 104.809 1431.7 101.328C1438.06 97.696 1445.55 95.88 1454.17 95.88V122.666H1447.59C1437.45 122.666 1429.73 125.239 1424.44 130.384C1419.29 135.529 1416.72 144.458 1416.72 157.17V223H1390.84V97.923H1416.72V116.083Z" fill="#0E0E52"/>
<path d="M1302.34 225.043C1290.53 225.043 1279.86 222.395 1270.33 217.098C1260.79 211.65 1253.3 204.083 1247.86 194.398C1242.41 184.561 1239.68 173.211 1239.68 160.348C1239.68 147.636 1242.48 136.362 1248.08 126.525C1253.68 116.688 1261.32 109.122 1271.01 103.825C1280.7 98.5283 1291.52 95.88 1303.47 95.88C1315.43 95.88 1326.25 98.5283 1335.93 103.825C1345.62 109.122 1353.26 116.688 1358.86 126.525C1364.46 136.362 1367.26 147.636 1367.26 160.348C1367.26 173.06 1364.38 184.334 1358.63 194.171C1352.88 204.008 1345.01 211.65 1335.02 217.098C1325.19 222.395 1314.29 225.043 1302.34 225.043ZM1302.34 202.57C1308.99 202.57 1315.2 200.981 1320.95 197.803C1326.85 194.625 1331.62 189.858 1335.25 183.502C1338.88 177.146 1340.7 169.428 1340.7 160.348C1340.7 151.268 1338.96 143.626 1335.48 137.421C1332 131.065 1327.38 126.298 1321.63 123.12C1315.88 119.942 1309.68 118.353 1303.02 118.353C1296.36 118.353 1290.15 119.942 1284.4 123.12C1278.8 126.298 1274.34 131.065 1271.01 137.421C1267.68 143.626 1266.02 151.268 1266.02 160.348C1266.02 173.817 1269.42 184.259 1276.23 191.674C1283.19 198.938 1291.89 202.57 1302.34 202.57Z" fill="#0E0E52"/>
<path d="M1230.74 97.923L1191.93 223H1164.69L1139.49 130.611L1114.29 223H1087.05L1048.01 97.923H1074.34L1100.45 198.484L1127 97.923H1154.02L1179.44 198.03L1205.32 97.923H1230.74Z" fill="#0E0E52"/>
<path d="M1010.49 119.034V188.269C1010.49 192.96 1011.55 196.365 1013.67 198.484C1015.94 200.451 1019.73 201.435 1025.02 201.435H1040.91V223H1020.48C1008.83 223 999.901 220.276 993.697 214.828C987.492 209.38 984.39 200.527 984.39 188.269V119.034H969.635V97.923H984.39V66.824H1010.49V97.923H1040.91V119.034H1010.49Z" fill="#0E0E52"/>
<path d="M956.837 157.397C956.837 162.088 956.534 166.326 955.929 170.109H860.362C861.119 180.097 864.826 188.118 871.485 194.171C878.144 200.224 886.316 203.251 896.001 203.251C909.924 203.251 919.76 197.425 925.511 185.772H953.432C949.649 197.273 942.763 206.732 932.775 214.147C922.938 221.411 910.68 225.043 896.001 225.043C884.046 225.043 873.301 222.395 863.767 217.098C854.384 211.65 846.969 204.083 841.521 194.398C836.224 184.561 833.576 173.211 833.576 160.348C833.576 147.485 836.149 136.21 841.294 126.525C846.591 116.688 853.93 109.122 863.313 103.825C872.847 98.5283 883.743 95.88 896.001 95.88C907.805 95.88 918.323 98.4527 927.554 103.598C936.785 108.743 943.974 116.007 949.119 125.39C954.264 134.621 956.837 145.29 956.837 157.397ZM929.824 149.225C929.673 139.691 926.268 132.049 919.609 126.298C912.95 120.547 904.703 117.672 894.866 117.672C885.937 117.672 878.295 120.547 871.939 126.298C865.583 131.897 861.8 139.54 860.589 149.225H929.824Z" fill="#0E0E52"/>
<path d="M759.891 95.88C769.728 95.88 778.505 97.923 786.223 102.009C794.092 106.095 800.221 112.148 804.61 120.169C808.999 128.19 811.193 137.875 811.193 149.225V223H785.542V153.084C785.542 141.885 782.742 133.335 777.143 127.433C771.544 121.38 763.901 118.353 754.216 118.353C744.531 118.353 736.813 121.38 731.062 127.433C725.463 133.335 722.663 141.885 722.663 153.084V223H696.785V97.923H722.663V112.224C726.9 107.079 732.273 103.068 738.78 100.193C745.439 97.3177 752.476 95.88 759.891 95.88Z" fill="#0E0E52"/>
<path d="M658.356 224.589C653.665 224.589 649.73 223 646.552 219.822C643.374 216.644 641.785 212.709 641.785 208.018C641.785 203.327 643.374 199.392 646.552 196.214C649.73 193.036 653.665 191.447 658.356 191.447C662.896 191.447 666.755 193.036 669.933 196.214C673.111 199.392 674.7 203.327 674.7 208.018C674.7 212.709 673.111 216.644 669.933 219.822C666.755 223 662.896 224.589 658.356 224.589Z" fill="#2DB1FF"/>
<path d="M592.679 199.846L628.09 97.923H655.558L607.887 223H577.016L529.573 97.923H557.266L592.679 199.846Z" fill="#0E0E52"/>
<path d="M470.469 225.043C460.632 225.043 451.779 223.303 443.91 219.822C436.192 216.19 430.063 211.347 425.523 205.294C420.983 199.089 418.561 192.204 418.259 184.637H445.045C445.499 189.934 447.996 194.398 452.536 198.03C457.227 201.511 463.053 203.251 470.015 203.251C477.279 203.251 482.878 201.889 486.813 199.165C490.899 196.29 492.942 192.658 492.942 188.269C492.942 183.578 490.672 180.097 486.132 177.827C481.743 175.557 474.706 173.06 465.021 170.336C455.638 167.763 447.996 165.266 442.094 162.845C436.192 160.424 431.046 156.716 426.658 151.722C422.42 146.728 420.302 140.145 420.302 131.973C420.302 125.314 422.269 119.261 426.204 113.813C430.138 108.214 435.738 103.825 443.002 100.647C450.417 97.469 458.892 95.88 468.426 95.88C482.651 95.88 494.077 99.512 502.703 106.776C511.48 113.889 516.171 123.65 516.777 136.059H490.899C490.445 130.46 488.175 125.995 484.089 122.666C480.003 119.337 474.479 117.672 467.518 117.672C460.708 117.672 455.487 118.958 451.855 121.531C448.223 124.104 446.407 127.509 446.407 131.746C446.407 135.075 447.617 137.875 450.039 140.145C452.46 142.415 455.411 144.231 458.892 145.593C462.372 146.804 467.518 148.393 474.328 150.36C483.408 152.781 490.823 155.278 496.574 157.851C502.476 160.272 507.545 163.904 511.783 168.747C516.02 173.59 518.214 180.021 518.366 188.042C518.366 195.155 516.398 201.511 512.464 207.11C508.529 212.709 502.93 217.098 495.666 220.276C488.553 223.454 480.154 225.043 470.469 225.043Z" fill="#0E0E52"/>
<path d="M351.21 225.043C341.373 225.043 332.52 223.303 324.651 219.822C316.933 216.19 310.804 211.347 306.264 205.294C301.724 199.089 299.303 192.204 299 184.637H325.786C326.24 189.934 328.737 194.398 333.277 198.03C337.968 201.511 343.795 203.251 350.756 203.251C358.02 203.251 363.619 201.889 367.554 199.165C371.64 196.29 373.683 192.658 373.683 188.269C373.683 183.578 371.413 180.097 366.873 177.827C362.484 175.557 355.447 173.06 345.762 170.336C336.379 167.763 328.737 165.266 322.835 162.845C316.933 160.424 311.788 156.716 307.399 151.722C303.162 146.728 301.043 140.145 301.043 131.973C301.043 125.314 303.01 119.261 306.945 113.813C310.88 108.214 316.479 103.825 323.743 100.647C331.158 97.469 339.633 95.88 349.167 95.88C363.392 95.88 374.818 99.512 383.444 106.776C392.221 113.889 396.913 123.65 397.518 136.059H371.64C371.186 130.46 368.916 125.995 364.83 122.666C360.744 119.337 355.22 117.672 348.259 117.672C341.449 117.672 336.228 118.958 332.596 121.531C328.964 124.104 327.148 127.509 327.148 131.746C327.148 135.075 328.359 137.875 330.78 140.145C333.201 142.415 336.152 144.231 339.633 145.593C343.114 146.804 348.259 148.393 355.069 150.36C364.149 152.781 371.564 155.278 377.315 157.851C383.217 160.272 388.287 163.904 392.524 168.747C396.761 173.59 398.956 180.021 399.107 188.042C399.107 195.155 397.14 201.511 393.205 207.11C389.27 212.709 383.671 217.098 376.407 220.276C369.294 223.454 360.895 225.043 351.21 225.043Z" fill="#0E0E52"/>
</svg>
