<svg width="404" height="404" viewBox="0 0 404 404" fill="none" xmlns="http://www.w3.org/2000/svg">
<circle cx="202" cy="202" r="200" fill="#1A1A1A"/>
<path d="M202.37 234.205C206.571 234.207 210.728 233.344 214.582 231.67C216.433 230.845 218.201 229.846 219.863 228.686C221.533 227.519 223.085 226.193 224.497 224.726C228.869 220.224 231.84 214.551 233.053 208.394C233.911 204.097 233.911 199.673 233.053 195.376C231.85 189.216 228.877 183.541 224.497 179.045C223.085 177.577 221.533 176.251 219.863 175.084C218.201 173.924 216.433 172.925 214.582 172.1C210.728 170.426 206.571 169.563 202.37 169.565V81.2397C210.511 81.2401 218.632 82.0584 226.61 83.6822C242.004 86.8473 256.621 93.021 269.624 101.849C291.102 116.249 307.382 137.174 316.059 161.534C324.736 185.894 325.352 212.398 317.814 237.134C310.276 261.871 294.985 283.528 274.198 298.91C253.411 314.291 228.229 322.581 202.37 322.557V234.205ZM109.37 322.557V80.9492H186.368V135.133V268.308V322.517L109.37 322.557Z" fill="white"/>
</svg>
