<svg width="1070" height="308" viewBox="0 0 1070 308" fill="none" xmlns="http://www.w3.org/2000/svg">
<path d="M1027.68 272.92H1027.39C1024.72 272.745 1022.23 271.518 1020.47 269.508C1018.7 267.498 1017.81 264.869 1017.98 262.2C1017.98 262.12 1017.98 262.04 1017.98 261.96C1017.94 260.644 1018.15 259.332 1018.62 258.1C1019.08 256.868 1019.78 255.74 1020.68 254.78C1021.59 253.821 1022.67 253.048 1023.87 252.508C1025.07 251.967 1026.36 251.669 1027.68 251.63C1029.6 251.664 1031.47 252.285 1033.03 253.412C1034.59 254.538 1035.77 256.114 1036.41 257.93H1046.07C1045.3 253.977 1043.14 250.43 1039.98 247.93C1036.49 244.923 1031.99 243.339 1027.39 243.49C1022.54 243.504 1017.88 245.412 1014.41 248.807C1010.94 252.202 1008.93 256.817 1008.81 261.67C1008.71 264.24 1009.16 266.802 1010.11 269.19C1011.07 271.578 1012.52 273.738 1014.36 275.53C1017.87 279.009 1022.62 280.961 1027.56 280.96H1027.98C1032.15 280.961 1036.2 279.563 1039.48 276.99C1042.76 274.418 1045.08 270.819 1046.07 266.77H1036.41C1035.75 268.557 1034.56 270.1 1033 271.198C1031.44 272.296 1029.59 272.896 1027.68 272.92Z" fill="white"/>
<path d="M1061.88 247.71C1060.01 243.262 1057.29 239.218 1053.88 235.8C1050.47 232.386 1046.42 229.669 1041.97 227.8C1037.36 225.839 1032.41 224.839 1027.4 224.86C1022.39 224.846 1017.43 225.846 1012.82 227.8C1008.37 229.674 1004.33 232.39 1000.91 235.8C997.5 239.217 994.784 243.261 992.91 247.71C990.944 252.324 989.924 257.285 989.91 262.3C989.925 267.309 990.945 272.263 992.91 276.87C994.784 281.319 997.5 285.363 1000.91 288.78C1004.33 292.186 1008.37 294.902 1012.82 296.78C1017.43 298.75 1022.39 299.77 1027.4 299.78H1027.47C1032.46 299.761 1037.39 298.741 1041.97 296.78C1046.42 294.911 1050.47 292.194 1053.88 288.78C1057.29 285.362 1060.01 281.318 1061.88 276.87C1063.83 272.26 1064.83 267.305 1064.82 262.3C1064.83 257.289 1063.83 252.326 1061.88 247.71ZM1054.39 273.71C1052.91 277.187 1050.78 280.348 1048.11 283.02C1045.44 285.701 1042.27 287.837 1038.78 289.31C1035.17 290.84 1031.29 291.622 1027.37 291.61C1023.45 291.626 1019.56 290.844 1015.95 289.31C1012.47 287.836 1009.3 285.7 1006.63 283.02C1003.95 280.351 1001.82 277.19 1000.34 273.71C998.821 270.098 998.039 266.219 998.04 262.3C998.04 258.375 998.822 254.489 1000.34 250.87C1001.81 247.385 1003.95 244.22 1006.63 241.55C1009.3 238.876 1012.47 236.743 1015.95 235.27C1019.55 233.751 1023.41 232.969 1027.32 232.97H1027.38C1031.3 232.964 1035.18 233.746 1038.79 235.27C1042.28 236.741 1045.44 238.873 1048.12 241.55C1050.79 244.228 1052.92 247.391 1054.4 250.87C1055.92 254.488 1056.71 258.374 1056.7 262.3C1056.7 266.216 1055.92 270.093 1054.39 273.7V273.71Z" fill="white"/>
<path d="M192.2 27.55C171.89 16.22 143.37 9.96997 107.43 9.96997H91.29V74.81H116.42C159 74.81 185.17 103.33 185.17 154.89C185.17 207.62 158.61 234.19 116.03 234.19H91.29V299.03H112.51C202.75 299.03 259 249.81 259 154.5C259 95.51 233.22 50.98 192.2 27.55Z" fill="white"/>
<path d="M9 299.03H82.88V234.19H82.83V74.81H82.88V9.96997H9V299.03Z" fill="white"/>
<path d="M411.73 127.55L408.56 126.17L391.51 184.63C406.41 192.05 417.98 201.24 417.98 215.09C417.999 218.737 417.294 222.351 415.907 225.724C414.52 229.096 412.478 232.161 409.9 234.739C407.321 237.318 404.257 239.36 400.884 240.747C397.511 242.134 393.897 242.839 390.25 242.82C371.89 242.82 360.17 227.2 359.78 203.37H286.34V209.63C286.34 271.74 327.75 304.55 390.64 304.55C453.14 304.55 491.42 271.74 491.42 215.88C491.42 177.94 475.4 154.89 411.73 127.55Z" fill="white"/>
<path d="M359.78 171.3C367.6 174.45 375.93 177.56 383.78 181L400.78 122.74C376.48 111.81 364.46 103.95 364.46 88.8699C364.46 75.9799 376.17 66.22 389.85 66.22C404.3 66.22 412.85 73.64 416.02 94.34H489.07C488.68 55.67 473.83 32.6199 442.97 16.6099C427.144 8.49322 409.585 4.33769 391.8 4.49994C338.68 4.49994 291.02 40.44 291.02 89.66C291.03 127.16 312.51 152.16 359.78 171.3Z" fill="white"/>
<path d="M671.89 113.87C671.89 134.97 661.49 147.87 643.61 152.87L679.87 198.44C718.96 187.39 742.6 152.01 742.6 109.53C742.6 68.5299 720.72 34.5298 689.47 20.4598C674.24 13.8198 651.19 9.91992 621.11 9.91992H604.28V74.7599H625.41C653.14 74.8099 671.89 88.8699 671.89 113.87Z" fill="white"/>
<path d="M710.36 250.34L695.42 231.56L670.72 200.56H670.78L634.29 154.71C631.083 155.082 627.858 155.265 624.63 155.26H597.28V155.06H595.86V9.94995H521.98V299.03H595.86V205.63H598.06L664.86 298.99H749.24L710.38 250.28L710.36 250.34Z" fill="white"/>
<path d="M951.72 9.96997L899.07 190.34L892.61 212.7H892.54L867.34 299.03H930.5L1027.37 9.96997H951.72Z" fill="white"/>
<path d="M833.62 9.96997H757.84L854.33 299.03H858.57L887.83 198.79L833.62 9.96997Z" fill="white"/>
</svg>
