<svg width="100" height="100" viewBox="0 0 100 100" fill="none" xmlns="http://www.w3.org/2000/svg">
    <path opacity=".62" d="m34.89 79.085 12.615-15.548a3.292 3.292 0 0 1 5.113 0l12.615 15.548c.98 1.209.98 2.94 0 4.149L52.618 98.78a3.293 3.293 0 0 1-5.113 0L34.891 83.234a3.293 3.293 0 0 1 0-4.15z" fill="#E6EAF7"/>
    <path d="M54.606 41.066 67.22 25.518a3.292 3.292 0 0 1 5.113 0l12.615 15.548c.98 1.209.98 2.94 0 4.148L72.333 60.762a3.292 3.292 0 0 1-5.113 0L54.606 45.214a3.292 3.292 0 0 1 0-4.148zM15.189 41.066l12.614-15.548a3.292 3.292 0 0 1 5.113 0l12.615 15.548c.98 1.209.98 2.94 0 4.148L32.916 60.762a3.292 3.292 0 0 1-5.113 0L15.189 45.214a3.292 3.292 0 0 1 0-4.148zM34.89 16.766 47.506 1.218a3.292 3.292 0 0 1 5.113 0l12.615 15.548c.98 1.209.98 2.94 0 4.148L52.618 36.462a3.292 3.292 0 0 1-5.113 0L34.891 20.914a3.293 3.293 0 0 1 0-4.148z" fill="#E6EAF7"/>
</svg>
