<svg width="134" height="40" viewBox="0 0 134 40" fill="none" xmlns="http://www.w3.org/2000/svg">
    <path opacity=".62" d="m8.141 31.634 5.05-6.219c.528-.65 1.52-.65 2.048 0l5.05 6.219a1.316 1.316 0 0 1 0 1.66l-5.05 6.219c-.528.65-1.52.65-2.048 0l-5.05-6.22a1.316 1.316 0 0 1 0-1.659z" fill="#1BA5F8"/>
    <path d="m15.987 16.427 5.05-6.22c.529-.65 1.52-.65 2.048 0l5.05 6.22a1.316 1.316 0 0 1 0 1.66l-5.05 6.218c-.527.65-1.52.65-2.047 0l-5.05-6.219a1.316 1.316 0 0 1 0-1.66zM.295 16.427l5.05-6.22c.528-.65 1.52-.65 2.047 0l5.05 6.22a1.316 1.316 0 0 1 0 1.66l-5.05 6.218c-.527.65-1.52.65-2.047 0l-5.05-6.219a1.316 1.316 0 0 1 0-1.66zM8.141 6.706l5.05-6.219c.528-.65 1.52-.65 2.048 0l5.05 6.22a1.316 1.316 0 0 1 0 1.659l-5.05 6.219c-.528.65-1.52.65-2.048 0l-5.05-6.22a1.316 1.316 0 0 1 0-1.659z" fill="#1BA5F8"/>
    <path d="M46.315 17.609c-1.583-.204-2.694-.306-3.332-.306-.625 0-1.034.057-1.225.172-.179.115-.268.3-.268.555 0 .242.121.414.364.516.255.09.893.23 1.914.421 1.034.178 1.768.478 2.202.899.434.42.65 1.103.65 2.047 0 2.065-1.282 3.098-3.847 3.098-.843 0-1.864-.115-3.064-.344l-.612-.115.076-2.142c1.583.204 2.68.306 3.293.306.626 0 1.047-.058 1.264-.172.23-.128.345-.313.345-.555 0-.242-.122-.42-.364-.536-.23-.114-.843-.255-1.838-.42-.983-.166-1.717-.447-2.202-.842-.485-.395-.727-1.096-.727-2.104 0-1.02.344-1.785 1.033-2.295.69-.523 1.577-.784 2.662-.784.753 0 1.78.12 3.082.363l.632.115-.038 2.123zM54.962 17.609c-1.583-.204-2.693-.306-3.331-.306-.626 0-1.034.057-1.225.172-.18.115-.268.3-.268.555 0 .242.12.414.363.516.256.09.894.23 1.915.421 1.034.178 1.768.478 2.202.899.433.42.65 1.103.65 2.047 0 2.065-1.282 3.098-3.848 3.098-.842 0-1.863-.115-3.063-.344l-.613-.115.077-2.142c1.583.204 2.68.306 3.293.306.625 0 1.047-.058 1.264-.172.23-.128.344-.313.344-.555 0-.242-.121-.42-.364-.536-.23-.114-.842-.255-1.838-.42-.982-.166-1.716-.447-2.201-.842-.485-.395-.728-1.096-.728-2.104 0-1.02.345-1.785 1.034-2.295.69-.523 1.576-.784 2.661-.784.753 0 1.78.12 3.083.363l.631.115-.038 2.123zM55.743 15.218h2.68l1.532 7.383h.536l1.608-7.383h2.604l-2.297 9.564H58.04l-2.298-9.564zM71.936 24.782H70.5v-9.564h1.417v.67c1.034-.574 2.023-.861 2.968-.861 1.276 0 2.131.344 2.565 1.033.447.688.67 1.912.67 3.672v5.05h-1.417V19.77c0-1.326-.134-2.231-.402-2.716-.255-.497-.81-.746-1.665-.746-.409 0-.843.064-1.302.192-.447.114-.792.23-1.034.344l-.364.172v7.766zM86.91 23.596l.555-.058.038 1.129c-1.455.204-2.7.306-3.733.306-1.378 0-2.355-.395-2.93-1.186-.574-.803-.86-2.047-.86-3.73 0-3.353 1.333-5.03 4-5.03 1.29 0 2.253.363 2.892 1.09.638.714.957 1.843.957 3.386l-.077 1.09h-6.318c0 1.058.192 1.842.575 2.352.383.51 1.046.765 1.99.765.958 0 1.928-.038 2.91-.114zm-.517-4.15c0-1.174-.192-2.003-.574-2.487-.37-.485-.983-.727-1.838-.727-.843 0-1.48.255-1.915.765-.421.51-.638 1.326-.65 2.448h4.977zM94.586 16.461h-3.044v4.572c0 1.096.077 1.817.23 2.161.166.344.549.517 1.149.517l1.704-.115.095 1.186c-.855.14-1.506.21-1.953.21-.995 0-1.684-.242-2.067-.727-.383-.484-.575-1.409-.575-2.773v-5.03h-1.359v-1.244h1.36v-2.926h1.416v2.926h3.044v1.243zM95.172 15.218h1.436l1.933 8.32h.307l2.278-8.129h1.493l2.279 8.13h.325l1.915-8.32h1.436l-2.279 9.563h-2.393l-2.029-7.48-2.03 7.48H97.45l-2.278-9.564zM109.643 19.98c0-1.746.312-3.009.938-3.787.625-.777 1.678-1.166 3.159-1.166 1.493 0 2.546.389 3.159 1.167.625.777.938 2.04.938 3.787 0 1.747-.294 3.015-.881 3.806-.587.79-1.659 1.186-3.216 1.186-1.557 0-2.63-.395-3.217-1.186-.587-.79-.88-2.06-.88-3.806zm1.474-.018c0 1.39.166 2.365.498 2.926.344.561 1.053.842 2.125.842 1.085 0 1.793-.274 2.125-.823.332-.56.498-1.543.498-2.945 0-1.403-.185-2.366-.556-2.889-.37-.535-1.059-.803-2.067-.803-.996 0-1.685.268-2.068.803-.37.523-.555 1.486-.555 2.889zM119.796 24.782v-9.564h1.417v1.3c1.11-.764 2.278-1.268 3.503-1.51v1.453c-.536.102-1.098.262-1.685.479-.574.216-1.014.407-1.321.573l-.478.249v7.02h-1.436zM127.467 24.782h-1.436V11.048h1.436v8.11l1.494-.076 2.737-3.864h1.628l-3.121 4.4 3.255 5.164h-1.627l-2.853-4.438-1.513.057v4.38z" fill="#FDFEFE"/>
    <path d="M65.56 21.96c0-.174.14-.314.313-.314h2.197c.174 0 .314.14.314.314v2.508c0 .173-.14.314-.314.314h-2.197a.314.314 0 0 1-.313-.314V21.96z" fill="#1BA5F8"/>
</svg>
