<svg width="120" height="120" viewBox="0 0 120 120" fill="none" xmlns="http://www.w3.org/2000/svg">
    <path opacity=".62" d="m41.725 94.9 15.137-18.657a3.95 3.95 0 0 1 6.136 0L78.135 94.9a3.95 3.95 0 0 1 0 4.978l-15.137 18.658a3.95 3.95 0 0 1-6.136 0L41.725 99.879a3.95 3.95 0 0 1 0-4.979z" fill="#CBD3E5"/>
    <path d="M65.382 49.275 80.52 30.618a3.95 3.95 0 0 1 6.137 0l15.137 18.657a3.95 3.95 0 0 1 0 4.979L86.656 72.91a3.95 3.95 0 0 1-6.137 0L65.382 54.254a3.95 3.95 0 0 1 0-4.979zM18.083 49.275 33.22 30.618a3.95 3.95 0 0 1 6.136 0l15.137 18.657a3.95 3.95 0 0 1 0 4.979L39.356 72.91a3.95 3.95 0 0 1-6.136 0L18.083 54.254a3.95 3.95 0 0 1 0-4.979zM41.725 20.119 56.862 1.462a3.95 3.95 0 0 1 6.136 0l15.137 18.657a3.95 3.95 0 0 1 0 4.978L62.998 43.754a3.95 3.95 0 0 1-6.136 0L41.725 25.097a3.95 3.95 0 0 1 0-4.978z" fill="#CBD3E5"/>
</svg>
