<svg width="29" height="40" viewBox="0 0 29 40" fill="none" xmlns="http://www.w3.org/2000/svg">
    <path opacity=".62" d="m8.177 31.634 5.048-6.219a1.318 1.318 0 0 1 2.046 0l5.047 6.22a1.317 1.317 0 0 1 0 1.659l-5.048 6.219c-.527.65-1.518.65-2.045 0l-5.048-6.22a1.317 1.317 0 0 1 0-1.659z" fill="#1BA5F8"/>
    <path d="m16.066 16.426 5.047-6.219a1.318 1.318 0 0 1 2.046 0l5.047 6.22a1.316 1.316 0 0 1 0 1.659l-5.047 6.219c-.528.65-1.52.65-2.046 0l-5.047-6.22a1.316 1.316 0 0 1 0-1.659zM.294 16.426l5.047-6.219a1.318 1.318 0 0 1 2.046 0l5.048 6.22a1.316 1.316 0 0 1 0 1.659l-5.048 6.219c-.527.65-1.518.65-2.046 0l-5.047-6.22a1.317 1.317 0 0 1 0-1.659zM8.177 6.706 13.225.487a1.318 1.318 0 0 1 2.046 0l5.047 6.22a1.317 1.317 0 0 1 0 1.659l-5.048 6.219c-.527.65-1.518.65-2.045 0l-5.048-6.22a1.317 1.317 0 0 1 0-1.659z" fill="#1BA5F8"/>
</svg>
