<svg width="261" height="220" viewBox="0 0 261 220" fill="none" xmlns="http://www.w3.org/2000/svg">
<path d="M155.234 211.484L130.004 219.673C128.623 220.124 127.154 220.101 125.795 219.65L101.523 211.371C100.855 211.145 100.388 210.491 100.388 209.792L75.2656 55.2983H180.491L156.369 209.905C156.369 210.627 155.902 211.258 155.234 211.484Z" fill="url(#paint0_linear_14975_230117)"/>
<rect x="78" width="100" height="100" rx="50" fill="url(#paint1_radial_14975_230117)"/>
<path opacity="0.62" d="M118.898 67.7513L126.467 58.4227C127.257 57.4483 128.744 57.4483 129.535 58.4227L137.103 67.7513C137.692 68.4767 137.692 69.5151 137.103 70.2405L129.535 79.5691C128.744 80.5435 127.257 80.5435 126.467 79.5691L118.898 70.2405C118.31 69.5151 118.31 68.4767 118.898 67.7513Z" fill="#FDFEFE"/>
<path d="M130.658 44.9397L138.226 35.6111C139.017 34.6367 140.504 34.6367 141.294 35.6111L148.863 44.9397C149.451 45.6651 149.451 46.7035 148.863 47.4289L141.294 56.7575C140.504 57.7319 139.017 57.7319 138.226 56.7575L130.658 47.4289C130.069 46.7035 130.069 45.6651 130.658 44.9397Z" fill="#FDFEFE"/>
<path d="M107.141 44.9397L114.709 35.6111C115.5 34.6367 116.987 34.6367 117.777 35.6111L125.346 44.9397C125.934 45.6651 125.934 46.7035 125.346 47.4289L117.777 56.7575C116.987 57.7319 115.5 57.7319 114.709 56.7575L107.141 47.4289C106.552 46.7035 106.552 45.6651 107.141 44.9397Z" fill="#FDFEFE"/>
<path d="M118.899 30.3592L126.468 21.0306C127.258 20.0562 128.745 20.0562 129.536 21.0306L137.104 30.3592C137.693 31.0846 137.693 32.123 137.104 32.8484L129.536 42.177C128.745 43.1514 127.258 43.1514 126.468 42.177L118.899 32.8484C118.311 32.123 118.311 31.0846 118.899 30.3592Z" fill="#FDFEFE"/>
<path d="M124.99 206.938C126.849 207.499 129.888 207.499 131.769 206.938L137.369 205.232C139.228 204.67 139.228 203.727 137.369 203.166L131.769 201.46C129.91 200.898 126.872 200.898 124.99 201.46L119.39 203.166C117.531 203.727 117.531 204.67 119.39 205.232L124.99 206.938Z" fill="#FDFEFE"/>
<path d="M123.373 207.681L117.773 205.974C115.914 205.413 112.876 205.413 110.994 205.974L105.394 207.681C103.535 208.242 103.535 209.185 105.394 209.746L110.994 211.453C112.853 212.014 115.891 212.014 117.773 211.453L123.373 209.746C125.232 209.185 125.232 208.242 123.373 207.681Z" fill="#FDFEFE"/>
<path d="M151.363 207.681L145.763 205.974C143.904 205.413 140.866 205.413 138.985 205.974L133.385 207.681C131.525 208.242 131.525 209.185 133.385 209.746L138.985 211.453C140.844 212.014 143.882 212.014 145.763 211.453L151.363 209.746C153.222 209.185 153.222 208.264 151.363 207.681Z" fill="#FDFEFE"/>
<path d="M131.769 210.489C129.91 209.928 126.872 209.928 124.99 210.489L119.39 212.195C117.531 212.757 117.531 213.7 119.39 214.261L124.99 215.967C126.849 216.529 129.888 216.529 131.769 215.967L137.369 214.261C139.228 213.7 139.228 212.757 137.369 212.195L131.769 210.489Z" fill="#FDFEFE"/>
<path d="M154.563 190.655H130.184L131.989 208.713H152.757L154.563 190.655Z" fill="url(#paint2_linear_14975_230117)"/>
<path d="M126.573 190.655H102.193L103.999 208.713H124.767L126.573 190.655Z" fill="url(#paint3_linear_14975_230117)"/>
<path d="M140.569 195.169H116.189L117.995 213.228H138.763L140.569 195.169Z" fill="url(#paint4_linear_14975_230117)"/>
<g opacity="0.8">
<path d="M243.598 205.262L229.36 209.883C228.581 210.138 227.751 210.125 226.985 209.87L213.287 205.198C212.91 205.071 212.646 204.702 212.646 204.307L196.162 100.191H260.723L244.239 204.371C244.239 204.778 243.975 205.134 243.598 205.262Z" fill="url(#paint5_linear_14975_230117)"/>
<rect x="199" y="70" width="60" height="60" rx="30" fill="url(#paint6_radial_14975_230117)"/>
<path opacity="0.62" d="M223.54 110.651L228.081 105.054C228.556 104.469 229.448 104.469 229.922 105.054L234.463 110.651C234.816 111.086 234.816 111.709 234.463 112.144L229.922 117.742C229.448 118.326 228.556 118.326 228.081 117.742L223.54 112.144C223.187 111.709 223.187 111.086 223.54 110.651Z" fill="#FDFEFE"/>
<path d="M230.596 96.9641L235.137 91.367C235.611 90.7823 236.503 90.7823 236.978 91.367L241.519 96.9641C241.872 97.3994 241.872 98.0224 241.519 98.4576L236.978 104.055C236.503 104.639 235.611 104.639 235.137 104.055L230.596 98.4576C230.243 98.0224 230.243 97.3994 230.596 96.9641Z" fill="#FDFEFE"/>
<path d="M216.486 96.9641L221.027 91.367C221.501 90.7823 222.393 90.7823 222.867 91.367L227.409 96.9641C227.762 97.3994 227.762 98.0224 227.409 98.4576L222.867 104.055C222.393 104.639 221.501 104.639 221.027 104.055L216.486 98.4576C216.132 98.0224 216.132 97.3994 216.486 96.9641Z" fill="#FDFEFE"/>
<path d="M223.541 88.2158L228.082 82.6187C228.556 82.034 229.448 82.034 229.923 82.6187L234.464 88.2158C234.817 88.651 234.817 89.2741 234.464 89.7093L229.923 95.3065C229.448 95.8912 228.556 95.8912 228.082 95.3065L223.541 89.7093C223.188 89.2741 223.188 88.651 223.541 88.2158Z" fill="#FDFEFE"/>
<path d="M226.529 202.697C227.578 203.013 229.293 203.013 230.355 202.697L233.515 201.733C234.564 201.417 234.564 200.885 233.515 200.568L230.355 199.605C229.306 199.288 227.591 199.288 226.529 199.605L223.369 200.568C222.32 200.885 222.32 201.417 223.369 201.733L226.529 202.697Z" fill="#FDFEFE"/>
<path d="M225.617 203.116L222.456 202.153C221.407 201.836 219.693 201.836 218.631 202.153L215.47 203.116C214.421 203.432 214.421 203.965 215.47 204.281L218.631 205.244C219.68 205.561 221.394 205.561 222.456 205.244L225.617 204.281C226.666 203.965 226.666 203.432 225.617 203.116Z" fill="#FDFEFE"/>
<path d="M241.413 203.116L238.253 202.153C237.204 201.836 235.49 201.836 234.428 202.153L231.267 203.116C230.218 203.432 230.218 203.965 231.267 204.281L234.428 205.244C235.477 205.561 237.191 205.561 238.253 205.244L241.413 204.281C242.463 203.965 242.463 203.445 241.413 203.116Z" fill="#FDFEFE"/>
<path d="M230.355 204.7C229.306 204.384 227.591 204.384 226.529 204.7L223.369 205.663C222.32 205.98 222.32 206.512 223.369 206.829L226.529 207.792C227.578 208.109 229.293 208.109 230.355 207.792L233.515 206.829C234.564 206.512 234.564 205.98 233.515 205.663L230.355 204.7Z" fill="#FDFEFE"/>
<path d="M243.219 193.507H229.461L230.48 203.698H242.2L243.219 193.507Z" fill="url(#paint7_linear_14975_230117)"/>
<path d="M227.424 193.507H213.666L214.685 203.698H226.405L227.424 193.507Z" fill="url(#paint8_linear_14975_230117)"/>
<path d="M235.322 196.055H221.564L222.584 206.246H234.303L235.322 196.055Z" fill="url(#paint9_linear_14975_230117)"/>
</g>
<g opacity="0.8">
<path d="M40.8812 197.948L28.6763 201.909C28.0084 202.127 27.2974 202.117 26.6403 201.898L14.8985 197.893C14.5754 197.784 14.3491 197.468 14.3491 197.129L0.21875 107.88H55.561L41.4306 197.184C41.4306 197.533 41.2044 197.839 40.8812 197.948Z" fill="url(#paint10_linear_14975_230117)"/>
<rect x="2.65039" y="82" width="51.4327" height="51.4327" rx="25.7164" fill="url(#paint11_radial_14975_230117)"/>
<path opacity="0.62" d="M23.686 116.846L27.5787 112.048C27.9853 111.547 28.7501 111.547 29.1567 112.048L33.0493 116.846C33.352 117.219 33.352 117.753 33.0493 118.126L29.1567 122.924C28.7501 123.426 27.9853 123.426 27.5787 122.924L23.686 118.126C23.3833 117.753 23.3833 117.219 23.686 116.846Z" fill="#FDFEFE"/>
<path d="M29.7345 105.114L33.6272 100.316C34.0338 99.8148 34.7986 99.8148 35.2052 100.316L39.0979 105.114C39.4006 105.487 39.4006 106.021 39.0979 106.394L35.2052 111.192C34.7986 111.693 34.0338 111.693 33.6272 111.192L29.7345 106.394C29.4318 106.021 29.4318 105.487 29.7345 105.114Z" fill="#FDFEFE"/>
<path d="M17.6391 105.114L21.5318 100.316C21.9384 99.8148 22.7032 99.8148 23.1098 100.316L27.0025 105.114C27.3052 105.487 27.3052 106.021 27.0025 106.394L23.1098 111.192C22.7032 111.693 21.9384 111.693 21.5318 111.192L17.6391 106.394C17.3364 106.021 17.3364 105.487 17.6391 105.114Z" fill="#FDFEFE"/>
<path d="M23.6868 97.6147L27.5795 92.8168C27.9861 92.3156 28.7509 92.3156 29.1575 92.8168L33.0502 97.6147C33.3529 97.9878 33.3529 98.5219 33.0502 98.895L29.1575 103.693C28.7509 104.194 27.9861 104.194 27.5795 103.693L23.6868 98.895C23.3841 98.5219 23.3841 97.9878 23.6868 97.6147Z" fill="#FDFEFE"/>
<path d="M26.2507 195.749C27.15 196.02 28.6197 196.02 29.53 195.749L32.239 194.923C33.1384 194.652 33.1384 194.196 32.239 193.924L29.53 193.099C28.6307 192.827 27.161 192.827 26.2507 193.099L23.5417 193.924C22.6424 194.196 22.6424 194.652 23.5417 194.923L26.2507 195.749Z" fill="#FDFEFE"/>
<path d="M25.4675 196.108L22.7585 195.283C21.8592 195.011 20.3895 195.011 19.4792 195.283L16.7702 196.108C15.8709 196.38 15.8709 196.836 16.7702 197.108L19.4792 197.933C20.3786 198.205 21.8482 198.205 22.7585 197.933L25.4675 197.108C26.3669 196.836 26.3669 196.38 25.4675 196.108Z" fill="#FDFEFE"/>
<path d="M39.0086 196.108L36.2996 195.283C35.4002 195.011 33.9305 195.011 33.0202 195.283L30.3112 196.108C29.4119 196.38 29.4119 196.836 30.3112 197.108L33.0202 197.933C33.9196 198.205 35.3892 198.205 36.2996 197.933L39.0086 197.108C39.9079 196.836 39.9079 196.391 39.0086 196.108Z" fill="#FDFEFE"/>
<path d="M29.53 197.467C28.6307 197.195 27.161 197.195 26.2507 197.467L23.5417 198.292C22.6424 198.564 22.6424 199.02 23.5417 199.292L26.2507 200.117C27.1501 200.389 28.6197 200.389 29.53 200.117L32.239 199.292C33.1384 199.02 33.1384 198.564 32.239 198.292L29.53 197.467Z" fill="#FDFEFE"/>
<path d="M40.5572 187.872H28.7637L29.6373 196.608H39.6836L40.5572 187.872Z" fill="url(#paint12_linear_14975_230117)"/>
<path d="M27.0162 187.872H15.2227L16.0963 196.608H26.1426L27.0162 187.872Z" fill="url(#paint13_linear_14975_230117)"/>
<path d="M33.7857 190.056H21.9922L22.8658 198.792H32.9121L33.7857 190.056Z" fill="url(#paint14_linear_14975_230117)"/>
</g>
<defs>
<linearGradient id="paint0_linear_14975_230117" x1="128.378" y1="220" x2="128.378" y2="25.1918" gradientUnits="userSpaceOnUse">
<stop stop-color="#1BA5F8" stop-opacity="0.4"/>
<stop offset="1" stop-color="#1BA5F8" stop-opacity="0"/>
</linearGradient>
<radialGradient id="paint1_radial_14975_230117" cx="0" cy="0" r="1" gradientUnits="userSpaceOnUse" gradientTransform="translate(128 50) rotate(90) scale(50)">
<stop stop-color="#76C8FB"/>
<stop offset="1" stop-color="#1BA5F8"/>
</radialGradient>
<linearGradient id="paint2_linear_14975_230117" x1="142.373" y1="208.713" x2="142.373" y2="190.655" gradientUnits="userSpaceOnUse">
<stop stop-color="#FDFEFE" stop-opacity="0.32"/>
<stop offset="1" stop-color="#FDFEFE" stop-opacity="0"/>
</linearGradient>
<linearGradient id="paint3_linear_14975_230117" x1="114.383" y1="208.713" x2="114.383" y2="190.655" gradientUnits="userSpaceOnUse">
<stop stop-color="#FDFEFE" stop-opacity="0.32"/>
<stop offset="1" stop-color="#FDFEFE" stop-opacity="0"/>
</linearGradient>
<linearGradient id="paint4_linear_14975_230117" x1="128.379" y1="213.228" x2="128.379" y2="195.169" gradientUnits="userSpaceOnUse">
<stop stop-color="#FDFEFE" stop-opacity="0.32"/>
<stop offset="1" stop-color="#FDFEFE" stop-opacity="0"/>
</linearGradient>
<linearGradient id="paint5_linear_14975_230117" x1="228.443" y1="210.068" x2="228.443" y2="100.131" gradientUnits="userSpaceOnUse">
<stop stop-color="#1BA5F8" stop-opacity="0.4"/>
<stop offset="1" stop-color="#1BA5F8" stop-opacity="0"/>
</linearGradient>
<radialGradient id="paint6_radial_14975_230117" cx="0" cy="0" r="1" gradientUnits="userSpaceOnUse" gradientTransform="translate(229 100) rotate(90) scale(30)">
<stop stop-color="#49B6F9"/>
<stop offset="1" stop-color="#1BA5F8"/>
</radialGradient>
<linearGradient id="paint7_linear_14975_230117" x1="236.34" y1="203.698" x2="236.34" y2="193.507" gradientUnits="userSpaceOnUse">
<stop stop-color="#FDFEFE" stop-opacity="0.32"/>
<stop offset="1" stop-color="#FDFEFE" stop-opacity="0"/>
</linearGradient>
<linearGradient id="paint8_linear_14975_230117" x1="220.545" y1="203.698" x2="220.545" y2="193.507" gradientUnits="userSpaceOnUse">
<stop stop-color="#FDFEFE" stop-opacity="0.32"/>
<stop offset="1" stop-color="#FDFEFE" stop-opacity="0"/>
</linearGradient>
<linearGradient id="paint9_linear_14975_230117" x1="228.443" y1="206.246" x2="228.443" y2="196.055" gradientUnits="userSpaceOnUse">
<stop stop-color="#FDFEFE" stop-opacity="0.32"/>
<stop offset="1" stop-color="#FDFEFE" stop-opacity="0"/>
</linearGradient>
<linearGradient id="paint10_linear_14975_230117" x1="27.8899" y1="202.068" x2="27.8899" y2="107.828" gradientUnits="userSpaceOnUse">
<stop stop-color="#1BA5F8" stop-opacity="0.4"/>
<stop offset="1" stop-color="#1BA5F8" stop-opacity="0"/>
</linearGradient>
<radialGradient id="paint11_radial_14975_230117" cx="0" cy="0" r="1" gradientUnits="userSpaceOnUse" gradientTransform="translate(28.3667 107.716) rotate(90) scale(25.7164)">
<stop stop-color="#49B6F9"/>
<stop offset="1" stop-color="#1BA5F8"/>
</radialGradient>
<linearGradient id="paint12_linear_14975_230117" x1="34.6604" y1="196.608" x2="34.6604" y2="187.872" gradientUnits="userSpaceOnUse">
<stop stop-color="#FDFEFE" stop-opacity="0.32"/>
<stop offset="1" stop-color="#FDFEFE" stop-opacity="0"/>
</linearGradient>
<linearGradient id="paint13_linear_14975_230117" x1="21.1194" y1="196.608" x2="21.1194" y2="187.872" gradientUnits="userSpaceOnUse">
<stop stop-color="#FDFEFE" stop-opacity="0.32"/>
<stop offset="1" stop-color="#FDFEFE" stop-opacity="0"/>
</linearGradient>
<linearGradient id="paint14_linear_14975_230117" x1="27.889" y1="198.792" x2="27.889" y2="190.056" gradientUnits="userSpaceOnUse">
<stop stop-color="#FDFEFE" stop-opacity="0.32"/>
<stop offset="1" stop-color="#FDFEFE" stop-opacity="0"/>
</linearGradient>
</defs>
</svg>
