<svg width="256" height="220" viewBox="0 0 256 220" fill="none" xmlns="http://www.w3.org/2000/svg">
<path d="M152.235 211.484L127.005 219.673C125.624 220.124 124.154 220.101 122.796 219.65L98.5239 211.371C97.8559 211.145 97.3883 210.491 97.3883 209.792L75.2664 25.2983H175.492L153.37 209.905C153.37 210.627 152.903 211.258 152.235 211.484Z" fill="url(#paint0_linear_5387_137320)"/>
<path opacity="0.62" d="M110.542 78.2948L123.03 62.9026C124.334 61.2948 126.788 61.2948 128.092 62.9026L140.58 78.2948C141.551 79.4917 141.551 81.2051 140.58 82.402L128.092 97.7942C126.788 99.402 124.334 99.402 123.03 97.7942L110.542 82.402C109.571 81.2051 109.571 79.4917 110.542 78.2948Z" fill="#1BA5F8"/>
<path d="M130.059 40.6552L142.547 25.263C143.852 23.6552 146.305 23.6552 147.61 25.263L160.098 40.6552C161.069 41.852 161.069 43.5655 160.098 44.7623L147.61 60.1545C146.305 61.7623 143.852 61.7623 142.547 60.1545L130.059 44.7623C129.088 43.5655 129.088 41.852 130.059 40.6552Z" fill="#1BA5F8"/>
<path d="M91.0369 40.6552L103.525 25.263C104.829 23.6552 107.283 23.6552 108.587 25.263L121.075 40.6552C122.046 41.852 122.046 43.5655 121.075 44.7623L108.587 60.1545C107.283 61.7623 104.829 61.7623 103.525 60.1545L91.0369 44.7623C90.0658 43.5655 90.0658 41.852 91.0369 40.6552Z" fill="#1BA5F8"/>
<path d="M110.542 16.598L123.03 1.20586C124.334 -0.401955 126.788 -0.401954 128.092 1.20586L140.58 16.598C141.551 17.7949 141.551 19.5083 140.58 20.7052L128.092 36.0974C126.788 37.7052 124.334 37.7052 123.03 36.0974L110.542 20.7052C109.571 19.5083 109.571 17.7949 110.542 16.598Z" fill="#1BA5F8"/>
<path d="M121.99 206.938C123.849 207.499 126.887 207.499 128.769 206.938L134.369 205.231C136.228 204.67 136.228 203.727 134.369 203.166L128.769 201.459C126.91 200.898 123.872 200.898 121.99 201.459L116.39 203.166C114.531 203.727 114.531 204.67 116.39 205.231L121.99 206.938Z" fill="#FDFEFE"/>
<path d="M120.373 207.68L114.773 205.974C112.914 205.413 109.876 205.413 107.994 205.974L102.394 207.68C100.535 208.242 100.535 209.185 102.394 209.746L107.994 211.453C109.853 212.014 112.891 212.014 114.773 211.453L120.373 209.746C122.232 209.185 122.232 208.242 120.373 207.68Z" fill="#FDFEFE"/>
<path d="M148.364 207.68L142.764 205.974C140.905 205.413 137.867 205.413 135.985 205.974L130.385 207.68C128.526 208.242 128.526 209.185 130.385 209.746L135.985 211.453C137.844 212.014 140.882 212.014 142.764 211.453L148.364 209.746C150.223 209.185 150.223 208.264 148.364 207.68Z" fill="#FDFEFE"/>
<path d="M128.769 210.489C126.91 209.927 123.872 209.927 121.99 210.489L116.39 212.195C114.531 212.756 114.531 213.699 116.39 214.261L121.99 215.967C123.849 216.529 126.887 216.529 128.769 215.967L134.369 214.261C136.228 213.699 136.228 212.756 134.369 212.195L128.769 210.489Z" fill="#FDFEFE"/>
<path d="M151.564 190.655H127.185L128.991 208.713H149.758L151.564 190.655Z" fill="url(#paint1_linear_5387_137320)"/>
<path d="M123.573 190.655H99.1941L101 208.713H121.767L123.573 190.655Z" fill="url(#paint2_linear_5387_137320)"/>
<path d="M137.569 195.169H113.19L114.995 213.228H135.763L137.569 195.169Z" fill="url(#paint3_linear_5387_137320)"/>
<g opacity="0.8">
<path d="M240.598 205.262L226.36 209.883C225.581 210.138 224.752 210.125 223.985 209.87L210.288 205.198C209.911 205.071 209.647 204.702 209.647 204.307L197.162 100.191H253.723L241.239 204.371C241.239 204.778 240.975 205.134 240.598 205.262Z" fill="url(#paint4_linear_5387_137320)"/>
<path opacity="0.62" d="M216.934 137.451L224.503 128.123C225.293 127.148 226.78 127.148 227.571 128.123L235.139 137.451C235.728 138.177 235.728 139.215 235.139 139.94L227.571 149.269C226.78 150.243 225.293 150.243 224.503 149.269L216.934 139.94C216.346 139.215 216.346 138.177 216.934 137.451Z" fill="#1BA5F8"/>
<path d="M228.763 114.64L236.332 105.311C237.122 104.336 238.609 104.336 239.4 105.311L246.968 114.64C247.557 115.365 247.557 116.403 246.968 117.129L239.4 126.457C238.609 127.432 237.122 127.432 236.332 126.457L228.763 117.129C228.175 116.403 228.175 115.365 228.763 114.64Z" fill="#1BA5F8"/>
<path d="M205.113 114.64L212.682 105.311C213.472 104.336 214.959 104.336 215.75 105.311L223.318 114.64C223.907 115.365 223.907 116.403 223.318 117.129L215.75 126.457C214.959 127.432 213.472 127.432 212.682 126.457L205.113 117.129C204.525 116.403 204.525 115.365 205.113 114.64Z" fill="#1BA5F8"/>
<path d="M216.934 100.059L224.503 90.7308C225.293 89.7564 226.78 89.7564 227.571 90.7308L235.139 100.059C235.728 100.785 235.728 101.823 235.139 102.549L227.571 111.877C226.78 112.852 225.293 112.852 224.503 111.877L216.934 102.549C216.346 101.823 216.346 100.785 216.934 100.059Z" fill="#1BA5F8"/>
<path d="M223.53 202.696C224.579 203.013 226.294 203.013 227.356 202.696L230.516 201.733C231.565 201.416 231.565 200.884 230.516 200.568L227.356 199.605C226.306 199.288 224.592 199.288 223.53 199.605L220.37 200.568C219.321 200.884 219.321 201.416 220.37 201.733L223.53 202.696Z" fill="#FDFEFE"/>
<path d="M222.618 203.115L219.457 202.152C218.408 201.836 216.694 201.836 215.632 202.152L212.472 203.115C211.422 203.432 211.422 203.964 212.472 204.281L215.632 205.244C216.681 205.561 218.395 205.561 219.457 205.244L222.618 204.281C223.667 203.964 223.667 203.432 222.618 203.115Z" fill="#FDFEFE"/>
<path d="M238.414 203.115L235.254 202.152C234.204 201.836 232.49 201.836 231.428 202.152L228.268 203.115C227.219 203.432 227.219 203.964 228.268 204.281L231.428 205.244C232.477 205.561 234.192 205.561 235.254 205.244L238.414 204.281C239.463 203.964 239.463 203.445 238.414 203.115Z" fill="#FDFEFE"/>
<path d="M227.356 204.7C226.306 204.383 224.592 204.383 223.53 204.7L220.37 205.663C219.321 205.98 219.321 206.512 220.37 206.829L223.53 207.792C224.579 208.108 226.294 208.108 227.356 207.792L230.516 206.829C231.565 206.512 231.565 205.98 230.516 205.663L227.356 204.7Z" fill="#FDFEFE"/>
<path d="M240.22 193.507H226.462L227.481 203.698H239.201L240.22 193.507Z" fill="url(#paint5_linear_5387_137320)"/>
<path d="M224.424 193.507H210.666L211.685 203.698H223.405L224.424 193.507Z" fill="url(#paint6_linear_5387_137320)"/>
<path d="M232.322 196.055H218.564L219.583 206.246H231.303L232.322 196.055Z" fill="url(#paint7_linear_5387_137320)"/>
</g>
<g opacity="0.6">
<path d="M37.486 198.13L25.5261 202.012C24.8716 202.226 24.175 202.215 23.531 202.001L12.025 198.077C11.7084 197.97 11.4867 197.66 11.4867 197.328L1 109.871H48.5111L38.0244 197.382C38.0244 197.724 37.8027 198.023 37.486 198.13Z" fill="url(#paint8_linear_5387_137320)"/>
<path opacity="0.62" d="M17.4453 138.543L23.7524 130.769C24.4112 129.957 25.6503 129.957 26.3091 130.769L32.6162 138.543C33.1066 139.147 33.1066 140.013 32.6162 140.617L26.3091 148.391C25.6503 149.203 24.4112 149.203 23.7524 148.391L17.4453 140.617C16.9549 140.013 16.9549 139.147 17.4453 138.543Z" fill="#1BA5F8"/>
<path d="M27.3028 119.533L33.6098 111.759C34.2686 110.947 35.5077 110.947 36.1666 111.759L42.4736 119.533C42.9641 120.137 42.9641 121.003 42.4736 121.607L36.1666 129.381C35.5077 130.193 34.2686 130.193 33.6098 129.381L27.3028 121.607C26.8123 121.003 26.8123 120.137 27.3028 119.533Z" fill="#1BA5F8"/>
<path d="M7.59438 119.533L13.9015 111.759C14.5603 110.947 15.7994 110.947 16.4582 111.759L22.7653 119.533C23.2557 120.137 23.2557 121.003 22.7653 121.607L16.4582 129.381C15.7994 130.193 14.5603 130.193 13.9015 129.381L7.59438 121.607C7.10396 121.003 7.10396 120.137 7.59438 119.533Z" fill="#1BA5F8"/>
<path d="M17.4453 107.383L23.7524 99.609C24.4112 98.797 25.6503 98.797 26.3091 99.609L32.6162 107.383C33.1066 107.987 33.1066 108.853 32.6162 109.457L26.3091 117.231C25.6503 118.043 24.4112 118.043 23.7524 117.231L17.4453 109.457C16.9549 108.853 16.9549 107.987 17.4453 107.383Z" fill="#1BA5F8"/>
<path d="M23.1487 195.975C24.03 196.241 25.4701 196.241 26.3622 195.975L29.0168 195.166C29.8981 194.9 29.8981 194.453 29.0168 194.187L26.3622 193.378C25.4809 193.112 24.0407 193.112 23.1487 193.378L20.4941 194.187C19.6128 194.453 19.6128 194.9 20.4941 195.166L23.1487 195.975Z" fill="#FDFEFE"/>
<path d="M22.3824 196.327L19.7278 195.518C18.8465 195.252 17.4063 195.252 16.5143 195.518L13.8597 196.327C12.9784 196.593 12.9784 197.04 13.8597 197.306L16.5143 198.115C17.3956 198.381 18.8358 198.381 19.7278 198.115L22.3824 197.306C23.2637 197.04 23.2637 196.593 22.3824 196.327Z" fill="#FDFEFE"/>
<path d="M35.6512 196.327L32.9966 195.518C32.1153 195.252 30.6751 195.252 29.7831 195.518L27.1285 196.327C26.2472 196.593 26.2472 197.04 27.1285 197.306L29.7831 198.115C30.6644 198.381 32.1045 198.381 32.9966 198.115L35.6512 197.306C36.5325 197.04 36.5325 196.604 35.6512 196.327Z" fill="#FDFEFE"/>
<path d="M26.3622 197.658C25.4809 197.392 24.0407 197.392 23.1487 197.658L20.4941 198.467C19.6128 198.733 19.6128 199.18 20.4941 199.446L23.1487 200.255C24.03 200.521 25.4701 200.521 26.3622 200.255L29.0168 199.446C29.8981 199.18 29.8981 198.733 29.0168 198.467L26.3622 197.658Z" fill="#FDFEFE"/>
<path d="M37.1683 188.256H25.6116L26.4676 196.817H36.3123L37.1683 188.256Z" fill="url(#paint9_linear_5387_137320)"/>
<path d="M23.8995 188.256H12.3428L13.1988 196.817H23.0435L23.8995 188.256Z" fill="url(#paint10_linear_5387_137320)"/>
<path d="M30.5339 190.396H18.9772L19.8332 198.957H29.6779L30.5339 190.396Z" fill="url(#paint11_linear_5387_137320)"/>
</g>
<defs>
<linearGradient id="paint0_linear_5387_137320" x1="125.379" y1="220" x2="125.379" y2="25.1919" gradientUnits="userSpaceOnUse">
<stop stop-color="#1BA5F8" stop-opacity="0.4"/>
<stop offset="1" stop-color="#1BA5F8" stop-opacity="0"/>
</linearGradient>
<linearGradient id="paint1_linear_5387_137320" x1="139.375" y1="208.713" x2="139.375" y2="190.655" gradientUnits="userSpaceOnUse">
<stop stop-color="#FDFEFE" stop-opacity="0.32"/>
<stop offset="1" stop-color="#FDFEFE" stop-opacity="0"/>
</linearGradient>
<linearGradient id="paint2_linear_5387_137320" x1="111.384" y1="208.713" x2="111.384" y2="190.655" gradientUnits="userSpaceOnUse">
<stop stop-color="#FDFEFE" stop-opacity="0.32"/>
<stop offset="1" stop-color="#FDFEFE" stop-opacity="0"/>
</linearGradient>
<linearGradient id="paint3_linear_5387_137320" x1="125.379" y1="213.228" x2="125.379" y2="195.169" gradientUnits="userSpaceOnUse">
<stop stop-color="#FDFEFE" stop-opacity="0.32"/>
<stop offset="1" stop-color="#FDFEFE" stop-opacity="0"/>
</linearGradient>
<linearGradient id="paint4_linear_5387_137320" x1="225.443" y1="210.068" x2="225.443" y2="100.131" gradientUnits="userSpaceOnUse">
<stop stop-color="#1BA5F8" stop-opacity="0.4"/>
<stop offset="1" stop-color="#1BA5F8" stop-opacity="0"/>
</linearGradient>
<linearGradient id="paint5_linear_5387_137320" x1="233.341" y1="203.698" x2="233.341" y2="193.507" gradientUnits="userSpaceOnUse">
<stop stop-color="#FDFEFE" stop-opacity="0.32"/>
<stop offset="1" stop-color="#FDFEFE" stop-opacity="0"/>
</linearGradient>
<linearGradient id="paint6_linear_5387_137320" x1="217.545" y1="203.698" x2="217.545" y2="193.507" gradientUnits="userSpaceOnUse">
<stop stop-color="#FDFEFE" stop-opacity="0.32"/>
<stop offset="1" stop-color="#FDFEFE" stop-opacity="0"/>
</linearGradient>
<linearGradient id="paint7_linear_5387_137320" x1="225.443" y1="206.246" x2="225.443" y2="196.055" gradientUnits="userSpaceOnUse">
<stop stop-color="#FDFEFE" stop-opacity="0.32"/>
<stop offset="1" stop-color="#FDFEFE" stop-opacity="0"/>
</linearGradient>
<linearGradient id="paint8_linear_5387_137320" x1="24.7555" y1="202.167" x2="24.7555" y2="109.82" gradientUnits="userSpaceOnUse">
<stop stop-color="#1BA5F8" stop-opacity="0.4"/>
<stop offset="1" stop-color="#1BA5F8" stop-opacity="0"/>
</linearGradient>
<linearGradient id="paint9_linear_5387_137320" x1="31.3899" y1="196.817" x2="31.3899" y2="188.256" gradientUnits="userSpaceOnUse">
<stop stop-color="#FDFEFE" stop-opacity="0.32"/>
<stop offset="1" stop-color="#FDFEFE" stop-opacity="0"/>
</linearGradient>
<linearGradient id="paint10_linear_5387_137320" x1="18.1211" y1="196.817" x2="18.1211" y2="188.256" gradientUnits="userSpaceOnUse">
<stop stop-color="#FDFEFE" stop-opacity="0.32"/>
<stop offset="1" stop-color="#FDFEFE" stop-opacity="0"/>
</linearGradient>
<linearGradient id="paint11_linear_5387_137320" x1="24.7555" y1="198.957" x2="24.7555" y2="190.396" gradientUnits="userSpaceOnUse">
<stop stop-color="#FDFEFE" stop-opacity="0.32"/>
<stop offset="1" stop-color="#FDFEFE" stop-opacity="0"/>
</linearGradient>
</defs>
</svg>
