<svg width="57" height="81" viewBox="0 0 57 81" fill="none" xmlns="http://www.w3.org/2000/svg">
    <path opacity="0.62" d="M16.2665 63.2815L26.3578 50.8433C27.4119 49.5441 29.3945 49.5441 30.4486 50.8433L40.5399 63.2815C41.3246 64.2486 41.3246 65.6332 40.5399 66.6004L30.4486 79.0385C29.3945 80.3377 27.4119 80.3377 26.3578 79.0385L16.2665 66.6004C15.4818 65.6332 15.4818 64.2486 16.2665 63.2815Z" fill="#1BA5F8"/>
    <path d="M31.9444 32.8662L42.0357 20.4281C43.0899 19.1288 45.0724 19.1288 46.1265 20.4281L56.2178 32.8662C57.0025 33.8333 57.0025 35.2179 56.2178 36.1851L46.1265 48.6232C45.0724 49.9225 43.0899 49.9225 42.0357 48.6232L31.9444 36.1851C31.1598 35.2179 31.1598 33.8333 31.9444 32.8662Z" fill="#1BA5F8"/>
    <path d="M0.588513 32.8662L10.6798 20.4281C11.7339 19.1288 13.7165 19.1288 14.7706 20.4281L24.8619 32.8662C25.6466 33.8333 25.6466 35.2179 24.8619 36.1851L14.7706 48.6232C13.7165 49.9225 11.7339 49.9225 10.6798 48.6232L0.588513 36.1851C-0.196171 35.2179 -0.196171 33.8333 0.588513 32.8662Z" fill="#1BA5F8"/>
    <path d="M16.2665 13.4255L26.3578 0.987374C27.4119 -0.311872 29.3945 -0.311872 30.4486 0.987374L40.5399 13.4255C41.3245 14.3927 41.3245 15.7773 40.5399 16.7444L30.4486 29.1825C29.3945 30.4818 27.4119 30.4818 26.3578 29.1825L16.2665 16.7444C15.4818 15.7773 15.4818 14.3927 16.2665 13.4255Z" fill="#1BA5F8"/>
</svg>