<svg width="25" height="24" viewBox="0 0 25 24" fill="none" xmlns="http://www.w3.org/2000/svg">
<path opacity="0.8" fill-rule="evenodd" clip-rule="evenodd" d="M4.84076 21.0406H12.4998L12.5 2.9613L12.5002 21.0406H20.1592C21.9542 21.0406 23.0792 19.1016 22.1882 17.5436L14.5292 4.13955C14.0807 3.35398 13.2903 2.96123 12.5 2.9613C11.7097 2.96123 10.9193 3.35398 10.4708 4.13955L2.81176 17.5436C1.92076 19.1016 3.04576 21.0406 4.84076 21.0406Z" fill="#FDFEFE"/>
<path d="M12.5 13.1199V9.37988" stroke="#EC1C26" stroke-width="2" stroke-linecap="round" stroke-linejoin="round"/>
<path d="M12.499 16.4499C12.361 16.4499 12.249 16.5619 12.25 16.6999C12.25 16.8379 12.362 16.9499 12.5 16.9499C12.638 16.9499 12.75 16.8379 12.75 16.6999C12.75 16.5619 12.638 16.4499 12.499 16.4499" stroke="#EC1C26" stroke-width="2" stroke-linecap="round" stroke-linejoin="round"/>
</svg>
