<svg width="280" height="183" viewBox="0 0 280 183" fill="none" xmlns="http://www.w3.org/2000/svg">
    <rect x="3" y="3" width="274" height="154" rx="9" fill="#97A5BA" fill-opacity=".12" stroke="#97A5BA" stroke-width="6"/>
    <path fill="#97A5BA" fill-opacity=".5" stroke="#97A5BA" stroke-width="6" d="M110 157h60v23h-60z"/>
    <path d="M90 180h100" stroke="#97A5BA" stroke-width="6" stroke-linecap="round"/>
    <path opacity=".62" d="m128.266 105.269 10.092-12.438a2.634 2.634 0 0 1 4.091 0l10.091 12.438a2.633 2.633 0 0 1 0 3.319l-10.091 12.438a2.634 2.634 0 0 1-4.091 0l-10.092-12.438a2.636 2.636 0 0 1 0-3.319z" fill="#1BA5F8"/>
    <path d="m128.266 55.413 10.092-12.439a2.634 2.634 0 0 1 4.091 0l10.091 12.439a2.633 2.633 0 0 1 0 3.319L142.449 71.17a2.634 2.634 0 0 1-4.091 0L128.266 58.73a2.636 2.636 0 0 1 0-3.318zM143.938 74.863l10.092-12.438a2.634 2.634 0 0 1 4.091 0l10.091 12.438a2.633 2.633 0 0 1 0 3.319L158.121 90.62a2.634 2.634 0 0 1-4.091 0l-10.092-12.438a2.636 2.636 0 0 1 0-3.32zM112.589 74.863l10.091-12.438a2.634 2.634 0 0 1 4.091 0l10.091 12.438a2.633 2.633 0 0 1 0 3.319L126.771 90.62a2.634 2.634 0 0 1-4.091 0l-10.091-12.438a2.633 2.633 0 0 1 0-3.32z" fill="#1BA5F8"/>
</svg>
