<svg width="208" height="326" viewBox="0 0 208 326" fill="none" xmlns="http://www.w3.org/2000/svg">
    <path d="m133.421 205.755-27.111 8.799a7.208 7.208 0 0 1-4.522-.024l-26.081-8.896a1.819 1.819 0 0 1-1.22-1.697L50.716 5.693h107.696l-23.771 198.365c0 .776-.503 1.455-1.22 1.697z" fill="url(#dnnb23c8ha)"/>
    <path d="M100.922 200.87c1.997.604 5.262.604 7.284 0l6.017-1.833c1.998-.603 1.998-1.617 0-2.22l-6.017-1.833c-1.998-.604-5.262-.604-7.284 0l-6.017 1.833c-1.998.603-1.998 1.617 0 2.22l6.017 1.833zM99.184 201.668l-6.017-1.833c-1.998-.603-5.262-.603-7.284 0l-6.018 1.833c-1.997.603-1.997 1.617 0 2.22l6.018 1.834c1.997.603 5.262.603 7.284 0l6.017-1.834c1.998-.603 1.998-1.617 0-2.22zM129.262 201.668l-6.017-1.833c-1.998-.603-5.262-.603-7.284 0l-6.017 1.833c-1.998.603-1.998 1.617 0 2.22l6.017 1.834c1.998.603 5.262.603 7.284 0l6.017-1.834c1.998-.603 1.998-1.592 0-2.22zM108.206 204.686c-1.998-.603-5.262-.603-7.284 0l-6.017 1.834c-1.998.603-1.998 1.616 0 2.219l6.017 1.834c1.997.603 5.262.603 7.284 0l6.017-1.834c1.998-.603 1.998-1.616 0-2.219l-6.017-1.834z" fill="#FDFEFE"/>
    <path d="M132.7 183.374h-26.196l1.94 19.404h22.316l1.94-19.404z" fill="url(#ok665hpq6b)"/>
    <path d="M102.623 183.374H76.427l1.94 19.404h22.316l1.94-19.404z" fill="url(#7rqjal9u2c)"/>
    <path d="M117.661 188.225H91.465l1.94 19.405h22.316l1.94-19.405z" fill="url(#k6oaf2gvwd)"/>
    <path d="m68.988 50.623 31.477-48.415c1.915-2.944 6.284-2.944 8.199 0l31.477 48.415a9.456 9.456 0 0 1 0 10.33l-31.477 48.415c-1.915 2.945-6.284 2.945-8.199 0L68.988 60.953a9.456 9.456 0 0 1 0-10.33z" fill="#1BA5F8"/>
    <path d="M102.185 76.532 72.055 60.27c-3.549-1.916-3.549-7.048 0-8.963l30.13-16.262a5.006 5.006 0 0 1 4.759 0l30.129 16.262c3.55 1.915 3.55 7.047 0 8.963l-30.129 16.262a5.006 5.006 0 0 1-4.759 0z" fill="#0792E8"/>
    <g opacity=".8">
        <path d="m196.904 192.723-11.41 3.704a3.038 3.038 0 0 1-1.904-.01l-10.978-3.745a.766.766 0 0 1-.513-.714l-10.005-83.441h45.329l-10.005 83.492a.756.756 0 0 1-.514.714z" fill="url(#4k774uxpre)"/>
        <path d="M183.224 190.667c.841.254 2.215.254 3.066 0l2.532-.771c.841-.254.841-.681 0-.935l-2.532-.771c-.841-.254-2.215-.254-3.066 0l-2.533.771c-.841.254-.841.681 0 .935l2.533.771zM182.493 191.003l-2.532-.772c-.841-.253-2.215-.253-3.066 0l-2.533.772c-.841.254-.841.681 0 .934l2.533.772c.841.254 2.215.254 3.066 0l2.532-.772c.841-.253.841-.68 0-.934zM195.154 191.003l-2.533-.772c-.841-.253-2.215-.253-3.066 0l-2.533.772c-.841.254-.841.681 0 .934l2.533.772c.841.254 2.215.254 3.066 0l2.533-.772c.84-.253.84-.67 0-.934zM186.29 192.273c-.841-.253-2.215-.253-3.066 0l-2.533.772c-.841.254-.841.681 0 .934l2.533.772c.841.254 2.215.254 3.066 0l2.532-.772c.841-.253.841-.68 0-.934l-2.532-.772z" fill="#FDFEFE"/>
        <path d="M196.6 183.303h-11.026l.817 8.167h9.392l.817-8.167z" fill="url(#mp8ke33xcf)"/>
        <path d="M183.942 183.303h-11.026l.817 8.167h9.392l.817-8.167z" fill="url(#v7dz5sqthg)"/>
        <path d="M190.271 185.345h-11.026l.817 8.167h9.392l.817-8.167z" fill="url(#8eicmsxikh)"/>
        <path d="m169.785 127.428 13.249-20.378c.805-1.239 2.644-1.239 3.45 0l13.249 20.378a3.982 3.982 0 0 1 0 4.348l-13.249 20.378c-.806 1.239-2.645 1.239-3.45 0l-13.249-20.378a3.979 3.979 0 0 1 0-4.348z" fill="#1BA5F8"/>
        <path d="m183.758 138.333-12.681-6.844c-1.494-.807-1.494-2.967 0-3.773l12.681-6.845a2.11 2.11 0 0 1 2.003 0l12.681 6.845c1.494.806 1.494 2.966 0 3.773l-12.681 6.844a2.105 2.105 0 0 1-2.003 0z" fill="#0792E8"/>
    </g>
    <g opacity=".6">
        <path d="m34.126 187.008-9.585 3.111a2.549 2.549 0 0 1-1.6-.009l-9.22-3.145a.643.643 0 0 1-.432-.6l-8.404-70.09H42.96l-8.404 70.133a.636.636 0 0 1-.431.6z" fill="url(#jttutyw5vi)"/>
        <path d="M22.634 185.281c.706.213 1.86.213 2.575 0l2.128-.648c.706-.214.706-.572 0-.785l-2.128-.649c-.706-.213-1.86-.213-2.575 0l-2.128.649c-.706.213-.706.571 0 .785l2.128.648zM22.02 185.563l-2.127-.648c-.707-.214-1.86-.214-2.576 0l-2.127.648c-.706.213-.706.571 0 .785l2.127.648c.707.213 1.86.213 2.576 0l2.127-.648c.707-.214.707-.572 0-.785zM32.655 185.563l-2.128-.648c-.706-.214-1.86-.214-2.575 0l-2.127.648c-.707.213-.707.571 0 .785l2.127.648c.706.213 1.86.213 2.575 0l2.128-.648c.706-.214.706-.563 0-.785zM25.21 186.63c-.707-.214-1.861-.214-2.576 0l-2.128.648c-.706.213-.706.571 0 .785l2.128.648c.706.213 1.86.213 2.575 0l2.128-.648c.706-.214.706-.572 0-.785l-2.128-.648z" fill="#FDFEFE"/>
        <path d="M33.87 179.095h-9.262l.686 6.86h7.89l.686-6.86z" fill="url(#ov2nk50p3j)"/>
        <path d="M23.237 179.095h-9.261l.686 6.86h7.89l.685-6.86z" fill="url(#h951ldtwyk)"/>
        <path d="M28.554 180.81h-9.262l.686 6.86h7.89l.686-6.86z" fill="url(#ui8nqs2vil)"/>
        <path d="m11.345 132.16 11.13-17.118c.676-1.041 2.221-1.041 2.898 0l11.129 17.118a3.343 3.343 0 0 1 0 3.652L25.373 152.93c-.677 1.041-2.222 1.041-2.899 0l-11.129-17.118a3.343 3.343 0 0 1 0-3.652z" fill="#1BA5F8"/>
        <path d="m23.082 141.32-10.652-5.749c-1.255-.678-1.255-2.492 0-3.169l10.652-5.75a1.768 1.768 0 0 1 1.682 0l10.653 5.75c1.255.677 1.255 2.491 0 3.169l-10.653 5.749a1.768 1.768 0 0 1-1.682 0z" fill="#0792E8"/>
    </g>
    <path d="m170.707 241.671-4.304 5.416a1.109 1.109 0 0 1-1.745 0l-4.304-5.416a1.167 1.167 0 0 1 0-1.445l4.304-5.417a1.11 1.11 0 0 1 1.745 0l4.304 5.417a1.164 1.164 0 0 1 0 1.445zM181.562 286.174l-4.304 5.416a1.109 1.109 0 0 1-1.745 0l-4.304-5.416a1.164 1.164 0 0 1 0-1.445l4.304-5.416a1.109 1.109 0 0 1 1.745 0l4.304 5.416a1.167 1.167 0 0 1 0 1.445zM205.804 228.465l-4.304 5.416a1.109 1.109 0 0 1-1.745 0l-4.304-5.416a1.166 1.166 0 0 1 0-1.446l4.304-5.416a1.109 1.109 0 0 1 1.745 0l4.304 5.416a1.169 1.169 0 0 1 0 1.446zM111.913 248.184l-4.304 5.416a1.109 1.109 0 0 1-1.745 0l-4.303-5.416a1.166 1.166 0 0 1 0-1.446l4.303-5.416a1.109 1.109 0 0 1 1.745 0l4.304 5.416a1.166 1.166 0 0 1 0 1.446z" fill="#1BA5F8"/>
    <path fill-rule="evenodd" clip-rule="evenodd" d="M21.334 190.129 6.499 227.397l-.336-.134 14.835-37.267.336.133z" fill="url(#aj0uesnr8m)"/>
    <path fill-rule="evenodd" clip-rule="evenodd" d="m104.745 204.616 2.171 40.704-.361.02-2.171-40.705.361-.019z" fill="url(#ew08aj33pn)"/>
    <path fill-rule="evenodd" clip-rule="evenodd" d="m185.145 191.075 15.105 34.282-.331.146-15.106-34.282.332-.146z" fill="url(#b4gin9wmmo)"/>
    <path fill-rule="evenodd" clip-rule="evenodd" d="m184.72 191.083-18.995 49.388.337.13 18.996-49.388-.338-.13z" fill="url(#ui4hyisgtp)"/>
    <path fill-rule="evenodd" clip-rule="evenodd" d="M26.424 190.125 43.52 237.07l.34-.124-17.095-46.945-.34.124z" fill="url(#1757sgr6jq)"/>
    <path d="m82.243 295.039-4.304 5.416a1.109 1.109 0 0 1-1.744 0l-4.304-5.416a1.166 1.166 0 0 1 0-1.445l4.303-5.417a1.11 1.11 0 0 1 1.745 0l4.304 5.417a1.165 1.165 0 0 1 0 1.445zM27.79 279.661l-4.304 5.417a1.11 1.11 0 0 1-1.745 0l-4.303-5.417a1.166 1.166 0 0 1 0-1.445l4.303-5.416a1.109 1.109 0 0 1 1.745 0l4.304 5.416a1.165 1.165 0 0 1 0 1.445z" fill="#1BA5F8"/>
    <path fill-rule="evenodd" clip-rule="evenodd" d="m201.138 227.464-24.428 58.153-56.727 33.71-63.35-6.707-33.724-33.089-17.953-52.035 40.935 13.523 31.54 53.258 29.017-47.49 58.951-5.796 35.739-13.527zm-195.602.604 17.687 51.264 33.573 32.942 63.105 6.68 56.522-33.587 24.055-57.267-34.996 13.247-58.82 5.782-29.236 47.85L45.65 241.32 5.536 228.068z" fill="#1BA5F8"/>
    <path d="m62.886 312.044-4.304 5.416a1.109 1.109 0 0 1-1.745 0l-4.304-5.416a1.165 1.165 0 0 1 0-1.445l4.304-5.416a1.109 1.109 0 0 1 1.745 0l4.304 5.416a1.165 1.165 0 0 1 0 1.445zM139.771 288.345l-4.303 5.417a1.11 1.11 0 0 1-1.745 0l-4.304-5.417a1.164 1.164 0 0 1 0-1.445l4.304-5.416a1.109 1.109 0 0 1 1.745 0l4.303 5.416a1.164 1.164 0 0 1 0 1.445zM125.118 320.004l-4.304 5.416a1.108 1.108 0 0 1-1.744 0l-4.304-5.416a1.164 1.164 0 0 1 0-1.445l4.304-5.416a1.108 1.108 0 0 1 1.744 0l4.304 5.416a1.164 1.164 0 0 1 0 1.445zM50.945 241.671l-4.304 5.416a1.109 1.109 0 0 1-1.744 0l-4.304-5.416a1.165 1.165 0 0 1 0-1.445l4.304-5.417a1.11 1.11 0 0 1 1.744 0l4.304 5.417a1.165 1.165 0 0 1 0 1.445zM10.604 228.465 6.3 233.881a1.109 1.109 0 0 1-1.745 0L.25 228.465a1.167 1.167 0 0 1 0-1.446l4.304-5.416a1.109 1.109 0 0 1 1.745 0l4.304 5.416a1.167 1.167 0 0 1 0 1.446z" fill="#1BA5F8"/>
    <path fill-rule="evenodd" clip-rule="evenodd" d="m165.428 240.269 11.004 45.482-42.274 2.201 31.27-47.683zm-30.576 47.285 41.125-2.141-10.705-44.248-30.42 46.389z" fill="#1BA5F8"/>
    <path fill-rule="evenodd" clip-rule="evenodd" d="m134.188 287.608-27.51-40.276.298-.205 27.737 40.609-14.508 31.298-43.07-24.794 57.053-6.632zm.018.362-55.94 6.503 41.777 24.05 14.163-30.553z" fill="#1BA5F8"/>
    <path fill-rule="evenodd" clip-rule="evenodd" d="m45.797 240.895.31.187-22.943 37.877 54.224 15.133-.098.348-54.683-15.26 23.19-38.285z" fill="#1BA5F8"/>
    <g opacity=".5">
        <path d="m25.564 249.606-2.152 2.708a.554.554 0 0 1-.872 0l-2.152-2.708a.583.583 0 0 1 0-.723l2.152-2.708a.554.554 0 0 1 .872 0l2.152 2.708a.583.583 0 0 1 0 .723zM71.514 249.606l-2.152 2.708a.554.554 0 0 1-.872 0l-2.152-2.708a.583.583 0 0 1 0-.723l2.152-2.708a.554.554 0 0 1 .872 0l2.152 2.708a.583.583 0 0 1 0 .723zM56.498 295.738l-2.151 2.708a.554.554 0 0 1-.873 0l-2.152-2.708a.583.583 0 0 1 0-.723l2.152-2.708a.554.554 0 0 1 .873 0l2.151 2.708a.583.583 0 0 1 0 .723zM112.038 283.436l-2.152 2.708a.555.555 0 0 1-.873 0l-2.152-2.708a.583.583 0 0 1 0-.722l2.152-2.709a.556.556 0 0 1 .873 0l2.152 2.709a.583.583 0 0 1 0 .722zM97.022 320.703l-2.152 2.708a.554.554 0 0 1-.872 0l-2.152-2.708a.582.582 0 0 1 0-.722l2.152-2.708a.554.554 0 0 1 .872 0l2.152 2.708a.582.582 0 0 1 0 .722z" fill="#1BA5F8"/>
        <path fill-rule="evenodd" clip-rule="evenodd" d="m160.466 268.899 40.096-41.361.13.126-40.227 41.496-29.791-31.24-61.468 11.39H22.933L5.086 227.659l.14-.115 17.792 21.585h46.171l61.549-11.404 29.728 31.174z" fill="#1BA5F8"/>
        <path fill-rule="evenodd" clip-rule="evenodd" d="m23.343 248.93 31.014 46.749-31.746-16.193.732-30.556zm.167.579-.715 29.868 31.03 15.828-30.315-45.696z" fill="#1BA5F8"/>
        <path fill-rule="evenodd" clip-rule="evenodd" d="m68.972 249.064 40.949 34.307-55.964 11.92 15.015-46.227zm.089.311-14.835 45.674 55.294-11.778-40.459-33.896z" fill="#1BA5F8"/>
        <path fill-rule="evenodd" clip-rule="evenodd" d="m130.896 237.604.164.076-21.084 45.502 50.148-13.825-5.285 35.082-45.148-21.074 21.205-45.761zm-20.824 45.739 44.624 20.83 5.207-34.567-49.831 13.737zM192.682 263.974l7.585-36.12.177.037-7.602 36.201-16.631 22.539-15.742-17.939 32.213-4.718zm-.126.201-31.732 4.648 15.374 17.52 16.358-22.168z" fill="#1BA5F8"/>
        <path fill-rule="evenodd" clip-rule="evenodd" d="m94.48 319.593 15.325-36.418-.167-.07-15.43 36.669h25.644v-.181H94.48zM154.628 304.229l21.519-17.812.115.139-21.537 17.827-34.383 15.654-.075-.165 34.361-15.643z" fill="#1BA5F8"/>
        <path fill-rule="evenodd" clip-rule="evenodd" d="m56.884 312.37-2.703-17.214-.179.028 2.723 17.34 37.711 7.252 60.534-15.111-.044-.175-60.495 15.101-37.547-7.221z" fill="#1BA5F8"/>
        <path d="m133.384 238.028-2.152 2.708a.554.554 0 0 1-.872 0l-2.152-2.708a.583.583 0 0 1 0-.722l2.152-2.709a.555.555 0 0 1 .872 0l2.152 2.709a.58.58 0 0 1 0 .722z" fill="#1BA5F8"/>
        <path fill-rule="evenodd" clip-rule="evenodd" d="m23.608 190.244-.362 55.72-.18-.001.361-55.72.181.001z" fill="url(#owibj15dcr)"/>
        <path fill-rule="evenodd" clip-rule="evenodd" d="m104.278 195.721-34.01 51.468-.152-.1 34.011-51.468.151.1z" fill="url(#u0li0w1xms)"/>
        <path fill-rule="evenodd" clip-rule="evenodd" d="m184.586 190.945-52.283 44.866-.117-.138 52.282-44.865.118.137z" fill="url(#iapo8mqmbt)"/>
        <path fill-rule="evenodd" clip-rule="evenodd" d="m104.669 195.718 24.785 39.981.153-.095-24.784-39.981-.154.095z" fill="url(#l37jws3bru)"/>
        <path d="m162.693 269.506-2.152 2.708a.554.554 0 0 1-.872 0l-2.152-2.708a.582.582 0 0 1 0-.723l2.152-2.708a.554.554 0 0 1 .872 0l2.152 2.708a.584.584 0 0 1 0 .723zM157.265 304.602l-2.152 2.708a.554.554 0 0 1-.872 0l-2.152-2.708a.583.583 0 0 1 0-.722l2.152-2.709a.555.555 0 0 1 .872 0l2.152 2.709a.583.583 0 0 1 0 .722zM194.894 264.803l-2.152 2.708a.554.554 0 0 1-.872 0l-2.152-2.708a.582.582 0 0 1 0-.723l2.152-2.708a.554.554 0 0 1 .872 0l2.152 2.708a.584.584 0 0 1 0 .723z" fill="#1BA5F8"/>
    </g>
    <defs>
        <linearGradient id="dnnb23c8ha" x1="104.564" y1="214.906" x2="104.564" y2="5.579" gradientUnits="userSpaceOnUse">
            <stop stop-color="#1BA5F8" stop-opacity=".4"/>
            <stop offset="1" stop-color="#1BA5F8" stop-opacity="0"/>
        </linearGradient>
        <linearGradient id="ok665hpq6b" x1="119.602" y1="202.778" x2="119.602" y2="183.374" gradientUnits="userSpaceOnUse">
            <stop stop-color="#FDFEFE" stop-opacity=".32"/>
            <stop offset="1" stop-color="#FDFEFE" stop-opacity="0"/>
        </linearGradient>
        <linearGradient id="7rqjal9u2c" x1="89.525" y1="202.778" x2="89.525" y2="183.374" gradientUnits="userSpaceOnUse">
            <stop stop-color="#FDFEFE" stop-opacity=".32"/>
            <stop offset="1" stop-color="#FDFEFE" stop-opacity="0"/>
        </linearGradient>
        <linearGradient id="k6oaf2gvwd" x1="104.563" y1="207.63" x2="104.563" y2="188.225" gradientUnits="userSpaceOnUse">
            <stop stop-color="#FDFEFE" stop-opacity=".32"/>
            <stop offset="1" stop-color="#FDFEFE" stop-opacity="0"/>
        </linearGradient>
        <linearGradient id="4k774uxpre" x1="184.758" y1="196.575" x2="184.758" y2="108.469" gradientUnits="userSpaceOnUse">
            <stop stop-color="#1BA5F8" stop-opacity=".4"/>
            <stop offset="1" stop-color="#1BA5F8" stop-opacity="0"/>
        </linearGradient>
        <linearGradient id="mp8ke33xcf" x1="191.087" y1="191.47" x2="191.087" y2="183.303" gradientUnits="userSpaceOnUse">
            <stop stop-color="#FDFEFE" stop-opacity=".32"/>
            <stop offset="1" stop-color="#FDFEFE" stop-opacity="0"/>
        </linearGradient>
        <linearGradient id="v7dz5sqthg" x1="178.429" y1="191.47" x2="178.429" y2="183.303" gradientUnits="userSpaceOnUse">
            <stop stop-color="#FDFEFE" stop-opacity=".32"/>
            <stop offset="1" stop-color="#FDFEFE" stop-opacity="0"/>
        </linearGradient>
        <linearGradient id="8eicmsxikh" x1="184.758" y1="193.512" x2="184.758" y2="185.345" gradientUnits="userSpaceOnUse">
            <stop stop-color="#FDFEFE" stop-opacity=".32"/>
            <stop offset="1" stop-color="#FDFEFE" stop-opacity="0"/>
        </linearGradient>
        <linearGradient id="jttutyw5vi" x1="23.923" y1="190.243" x2="23.923" y2="116.234" gradientUnits="userSpaceOnUse">
            <stop stop-color="#1BA5F8" stop-opacity=".4"/>
            <stop offset="1" stop-color="#1BA5F8" stop-opacity="0"/>
        </linearGradient>
        <linearGradient id="ov2nk50p3j" x1="29.239" y1="185.955" x2="29.239" y2="179.095" gradientUnits="userSpaceOnUse">
            <stop stop-color="#FDFEFE" stop-opacity=".32"/>
            <stop offset="1" stop-color="#FDFEFE" stop-opacity="0"/>
        </linearGradient>
        <linearGradient id="h951ldtwyk" x1="18.607" y1="185.955" x2="18.607" y2="179.095" gradientUnits="userSpaceOnUse">
            <stop stop-color="#FDFEFE" stop-opacity=".32"/>
            <stop offset="1" stop-color="#FDFEFE" stop-opacity="0"/>
        </linearGradient>
        <linearGradient id="ui8nqs2vil" x1="23.923" y1="187.67" x2="23.923" y2="180.81" gradientUnits="userSpaceOnUse">
            <stop stop-color="#FDFEFE" stop-opacity=".32"/>
            <stop offset="1" stop-color="#FDFEFE" stop-opacity="0"/>
        </linearGradient>
        <linearGradient id="aj0uesnr8m" x1="21.166" y1="190.153" x2="7.05" y2="224.705" gradientUnits="userSpaceOnUse">
            <stop stop-color="#1BA5F8" stop-opacity="0"/>
            <stop offset="1" stop-color="#1BA5F8"/>
        </linearGradient>
        <linearGradient id="ew08aj33pn" x1="105.094" y1="215.374" x2="106.735" y2="241.802" gradientUnits="userSpaceOnUse">
            <stop stop-color="#1BA5F8" stop-opacity="0"/>
            <stop offset="1" stop-color="#1BA5F8"/>
        </linearGradient>
        <linearGradient id="b4gin9wmmo" x1="187.783" y1="196.213" x2="200.085" y2="221.902" gradientUnits="userSpaceOnUse">
            <stop stop-color="#1BA5F8" stop-opacity="0"/>
            <stop offset="1" stop-color="#1BA5F8"/>
        </linearGradient>
        <linearGradient id="ui4hyisgtp" x1="182.085" y1="196.213" x2="167.431" y2="236.194" gradientUnits="userSpaceOnUse">
            <stop stop-color="#1BA5F8" stop-opacity="0"/>
            <stop offset="1" stop-color="#1BA5F8"/>
        </linearGradient>
        <linearGradient id="1757sgr6jq" x1="26.595" y1="190.153" x2="40.71" y2="224.705" gradientUnits="userSpaceOnUse">
            <stop stop-color="#1BA5F8" stop-opacity="0"/>
            <stop offset="1" stop-color="#1BA5F8"/>
        </linearGradient>
        <linearGradient id="owibj15dcr" x1="23.608" y1="190.244" x2="23.608" y2="245.963" gradientUnits="userSpaceOnUse">
            <stop stop-color="#1BA5F8" stop-opacity="0"/>
            <stop offset="1" stop-color="#1BA5F8"/>
        </linearGradient>
        <linearGradient id="u0li0w1xms" x1="93.859" y1="211.917" x2="70.463" y2="245.963" gradientUnits="userSpaceOnUse">
            <stop stop-color="#1BA5F8" stop-opacity="0"/>
            <stop offset="0" stop-color="#49B6F9" stop-opacity="0"/>
            <stop offset="1" stop-color="#1BA5F8"/>
        </linearGradient>
        <linearGradient id="iapo8mqmbt" x1="178.286" y1="195.128" x2="132.516" y2="234.566" gradientUnits="userSpaceOnUse">
            <stop stop-color="#1BA5F8" stop-opacity="0"/>
            <stop offset="1" stop-color="#1BA5F8"/>
        </linearGradient>
        <linearGradient id="l37jws3bru" x1="114.602" y1="212.09" x2="129.531" y2="235.651" gradientUnits="userSpaceOnUse">
            <stop stop-color="#1BA5F8" stop-opacity="0"/>
            <stop offset="1" stop-color="#1BA5F8"/>
        </linearGradient>
    </defs>
</svg>
