<svg width="584" height="320" viewBox="0 0 584 320" fill="none" xmlns="http://www.w3.org/2000/svg">
    <path d="M12 0C5.373 0 0 5.373 0 12v296c0 6.627 5.373 12 12 12h560c6.627 0 12-5.373 12-12V12c0-6.627-5.373-12-12-12H12z" fill="#CBD3E5"/>
    <path d="M18.201 222.461a1.464 1.464 0 0 0-2.26.224 1.484 1.484 0 0 0-.249.821v66.921c0 .392.155.768.43 1.045.276.277.65.433 1.04.433H83.72a1.467 1.467 0 0 0 1.358-.912 1.485 1.485 0 0 0-.32-1.611l-66.557-66.921z" fill="#0565A0"/>
    <path d="M235.394 159.367a2.034 2.034 0 1 0-2.033 2.035 2.034 2.034 0 0 0 2.033-2.035zM235.394 169.42a2.034 2.034 0 1 0-2.033 2.035 2.034 2.034 0 0 0 2.033-2.035zM235.394 179.473a2.034 2.034 0 1 0-2.033 2.035 2.034 2.034 0 0 0 2.033-2.035zM235.394 189.524a2.034 2.034 0 1 0-2.033 2.035 2.034 2.034 0 0 0 2.033-2.035zM235.394 199.577c0-1.123-.91-2.035-2.033-2.035a2.034 2.034 0 0 0 0 4.07 2.034 2.034 0 0 0 2.033-2.035zM235.394 209.63a2.034 2.034 0 1 0-2.033 2.035 2.034 2.034 0 0 0 2.033-2.035zM235.394 219.682a2.034 2.034 0 1 0-2.033 2.035 2.034 2.034 0 0 0 2.033-2.035zM235.394 229.736a2.034 2.034 0 1 0-2.033 2.035 2.034 2.034 0 0 0 2.033-2.035zM235.394 239.787c0-1.123-.91-2.035-2.033-2.035a2.034 2.034 0 0 0 0 4.07 2.034 2.034 0 0 0 2.033-2.035zM235.394 249.841a2.034 2.034 0 1 0-2.033 2.035 2.034 2.034 0 0 0 2.033-2.035zM235.394 259.893a2.034 2.034 0 1 0-2.033 2.035 2.034 2.034 0 0 0 2.033-2.035zM235.394 269.945a2.034 2.034 0 1 0-2.033 2.035 2.034 2.034 0 0 0 2.033-2.035zM235.394 279.999a2.034 2.034 0 1 0-2.033 2.035 2.034 2.034 0 0 0 2.033-2.035zM235.394 290.051a2.034 2.034 0 1 0-2.033 2.035 2.034 2.034 0 0 0 2.033-2.035zM235.394 300.104a2.034 2.034 0 1 0-2.033 2.035 2.034 2.034 0 0 0 2.033-2.035zM235.394 310.156a2.034 2.034 0 1 0-2.033 2.035 2.034 2.034 0 0 0 2.033-2.035zM225.348 149.315a2.035 2.035 0 1 0-4.07 0 2.035 2.035 0 0 0 4.07 0zM225.348 159.367a2.035 2.035 0 1 0-4.07 0 2.035 2.035 0 0 0 4.07 0zM225.348 169.42a2.035 2.035 0 1 0-4.07 0 2.035 2.035 0 0 0 4.07 0zM225.348 179.473a2.035 2.035 0 1 0-4.07 0 2.035 2.035 0 0 0 4.07 0zM225.348 189.524a2.035 2.035 0 1 0-4.07 0 2.035 2.035 0 0 0 4.07 0zM225.348 199.577a2.035 2.035 0 0 0-2.034-2.035 2.035 2.035 0 0 0 0 4.07 2.035 2.035 0 0 0 2.034-2.035zM225.348 209.63a2.035 2.035 0 1 0-4.07 0 2.035 2.035 0 0 0 4.07 0zM225.348 219.682a2.035 2.035 0 1 0-4.07 0 2.035 2.035 0 0 0 4.07 0zM225.348 229.736a2.035 2.035 0 1 0-4.07 0 2.035 2.035 0 0 0 4.07 0zM225.348 239.787a2.035 2.035 0 0 0-2.034-2.035 2.035 2.035 0 0 0 0 4.07 2.035 2.035 0 0 0 2.034-2.035zM225.348 249.841a2.035 2.035 0 1 0-4.07 0 2.035 2.035 0 0 0 4.07 0zM225.348 259.893a2.035 2.035 0 1 0-4.07 0 2.035 2.035 0 0 0 4.07 0zM225.348 269.945a2.035 2.035 0 1 0-4.07 0 2.035 2.035 0 0 0 4.07 0zM225.348 279.999a2.035 2.035 0 1 0-4.07 0 2.035 2.035 0 0 0 4.07 0zM225.348 290.051a2.035 2.035 0 1 0-4.07 0 2.035 2.035 0 0 0 4.07 0zM225.348 300.104a2.035 2.035 0 1 0-4.07 0 2.035 2.035 0 0 0 4.07 0zM225.348 310.156a2.035 2.035 0 1 0-4.07 0 2.035 2.035 0 0 0 4.07 0zM215.304 139.262a2.035 2.035 0 1 0-4.07 0 2.035 2.035 0 0 0 4.07 0zM215.304 149.315a2.035 2.035 0 1 0-4.07 0 2.035 2.035 0 0 0 4.07 0zM215.304 159.367a2.035 2.035 0 1 0-4.07 0 2.035 2.035 0 0 0 4.07 0zM215.304 169.42a2.035 2.035 0 1 0-4.07 0 2.035 2.035 0 0 0 4.07 0zM215.304 179.473a2.035 2.035 0 1 0-4.07 0 2.035 2.035 0 0 0 4.07 0zM215.304 189.524a2.035 2.035 0 1 0-4.07 0 2.035 2.035 0 0 0 4.07 0zM215.304 199.577a2.034 2.034 0 1 0-4.065-.001 2.034 2.034 0 0 0 4.065.001zM215.304 209.63a2.035 2.035 0 1 0-4.07 0 2.035 2.035 0 0 0 4.07 0zM215.304 219.682a2.035 2.035 0 1 0-4.07 0 2.035 2.035 0 0 0 4.07 0zM215.304 229.736a2.035 2.035 0 1 0-4.07 0 2.035 2.035 0 0 0 4.07 0zM215.304 239.787a2.034 2.034 0 1 0-4.065-.001 2.034 2.034 0 0 0 4.065.001zM215.304 249.841a2.035 2.035 0 1 0-4.07 0 2.035 2.035 0 0 0 4.07 0zM215.304 259.893a2.035 2.035 0 1 0-4.07 0 2.035 2.035 0 0 0 4.07 0zM215.304 269.945a2.035 2.035 0 1 0-4.07 0 2.035 2.035 0 0 0 4.07 0zM215.304 279.999a2.035 2.035 0 1 0-4.07 0 2.035 2.035 0 0 0 4.07 0zM215.304 290.051a2.035 2.035 0 1 0-4.07 0 2.035 2.035 0 0 0 4.07 0zM215.304 300.104a2.035 2.035 0 1 0-4.07 0 2.035 2.035 0 0 0 4.07 0zM215.304 310.156a2.035 2.035 0 1 0-4.07 0 2.035 2.035 0 0 0 4.07 0zM205.26 129.21a2.035 2.035 0 1 0-4.07 0 2.035 2.035 0 0 0 4.07 0zM205.26 139.262a2.035 2.035 0 1 0-4.07 0 2.035 2.035 0 0 0 4.07 0zM205.26 149.315a2.035 2.035 0 1 0-4.07 0 2.035 2.035 0 0 0 4.07 0zM205.26 159.367a2.035 2.035 0 1 0-4.07 0 2.035 2.035 0 0 0 4.07 0zM205.26 169.42a2.035 2.035 0 1 0-4.07 0 2.035 2.035 0 0 0 4.07 0zM205.26 179.473a2.035 2.035 0 1 0-4.07 0 2.035 2.035 0 0 0 4.07 0zM205.26 189.524a2.035 2.035 0 1 0-4.07 0 2.035 2.035 0 0 0 4.07 0zM205.26 199.577a2.034 2.034 0 1 0-4.065-.001 2.034 2.034 0 0 0 4.065.001zM205.26 209.63a2.035 2.035 0 1 0-4.07 0 2.035 2.035 0 0 0 4.07 0zM205.26 219.682a2.035 2.035 0 1 0-4.07 0 2.035 2.035 0 0 0 4.07 0zM205.26 229.736a2.035 2.035 0 1 0-4.07 0 2.035 2.035 0 0 0 4.07 0zM205.26 239.787a2.034 2.034 0 1 0-4.065-.001 2.034 2.034 0 0 0 4.065.001zM205.26 249.841a2.035 2.035 0 1 0-4.07 0 2.035 2.035 0 0 0 4.07 0zM205.26 259.893a2.035 2.035 0 1 0-4.07 0 2.035 2.035 0 0 0 4.07 0zM205.26 269.945a2.035 2.035 0 1 0-4.07 0 2.035 2.035 0 0 0 4.07 0zM205.26 279.999a2.035 2.035 0 1 0-4.07 0 2.035 2.035 0 0 0 4.07 0zM205.26 290.051a2.035 2.035 0 1 0-4.07 0 2.035 2.035 0 0 0 4.07 0zM205.26 300.104a2.035 2.035 0 1 0-4.07 0 2.035 2.035 0 0 0 4.07 0zM205.26 310.156a2.035 2.035 0 1 0-4.07 0 2.035 2.035 0 0 0 4.07 0zM195.216 119.156a2.035 2.035 0 1 0-4.07 0 2.035 2.035 0 0 0 4.07 0zM195.216 129.21a2.035 2.035 0 1 0-4.07 0 2.035 2.035 0 0 0 4.07 0zM195.216 139.262a2.035 2.035 0 1 0-4.07 0 2.035 2.035 0 0 0 4.07 0zM195.216 149.315a2.035 2.035 0 1 0-4.07 0 2.035 2.035 0 0 0 4.07 0zM195.216 159.367a2.035 2.035 0 1 0-4.07 0 2.035 2.035 0 0 0 4.07 0zM195.216 169.42a2.035 2.035 0 1 0-4.07 0 2.035 2.035 0 0 0 4.07 0zM195.216 179.473a2.035 2.035 0 1 0-4.07 0 2.035 2.035 0 0 0 4.07 0zM195.216 189.524a2.035 2.035 0 1 0-4.07 0 2.035 2.035 0 0 0 4.07 0zM195.216 199.577a2.034 2.034 0 1 0-4.065-.001 2.034 2.034 0 0 0 4.065.001zM195.216 209.63a2.035 2.035 0 1 0-4.07 0 2.035 2.035 0 0 0 4.07 0zM195.216 219.682a2.035 2.035 0 1 0-4.07 0 2.035 2.035 0 0 0 4.07 0zM195.216 229.736a2.035 2.035 0 1 0-4.07 0 2.035 2.035 0 0 0 4.07 0zM195.216 239.787a2.034 2.034 0 1 0-4.065-.001 2.034 2.034 0 0 0 4.065.001zM195.216 249.841a2.035 2.035 0 1 0-4.07 0 2.035 2.035 0 0 0 4.07 0zM195.216 259.893a2.035 2.035 0 1 0-4.07 0 2.035 2.035 0 0 0 4.07 0zM195.216 269.945a2.035 2.035 0 1 0-4.07 0 2.035 2.035 0 0 0 4.07 0zM195.216 279.999a2.035 2.035 0 1 0-4.07 0 2.035 2.035 0 0 0 4.07 0zM195.216 290.051a2.035 2.035 0 1 0-4.07 0 2.035 2.035 0 0 0 4.07 0zM195.216 300.104a2.035 2.035 0 1 0-4.07 0 2.035 2.035 0 0 0 4.07 0zM195.216 310.156a2.035 2.035 0 1 0-4.07 0 2.035 2.035 0 0 0 4.07 0zM185.171 109.104a2.034 2.034 0 1 0-2.033 2.035 2.034 2.034 0 0 0 2.033-2.035zM185.171 119.156a2.034 2.034 0 1 0-2.033 2.035 2.034 2.034 0 0 0 2.033-2.035zM185.171 129.21a2.034 2.034 0 1 0-2.033 2.035 2.034 2.034 0 0 0 2.033-2.035zM185.171 139.262a2.034 2.034 0 1 0-2.033 2.035 2.034 2.034 0 0 0 2.033-2.035zM185.171 149.315a2.034 2.034 0 1 0-2.033 2.035 2.034 2.034 0 0 0 2.033-2.035zM185.171 159.367a2.034 2.034 0 1 0-2.033 2.035 2.034 2.034 0 0 0 2.033-2.035zM185.171 169.42a2.034 2.034 0 1 0-2.033 2.035 2.034 2.034 0 0 0 2.033-2.035zM185.171 179.473a2.034 2.034 0 1 0-2.033 2.035 2.034 2.034 0 0 0 2.033-2.035zM185.171 189.524a2.034 2.034 0 1 0-2.033 2.035 2.034 2.034 0 0 0 2.033-2.035zM185.171 199.577c0-1.123-.91-2.035-2.033-2.035a2.034 2.034 0 0 0 0 4.07 2.034 2.034 0 0 0 2.033-2.035zM185.171 209.63a2.034 2.034 0 1 0-2.033 2.035 2.034 2.034 0 0 0 2.033-2.035zM185.171 219.682a2.034 2.034 0 1 0-2.033 2.035 2.034 2.034 0 0 0 2.033-2.035zM185.171 229.736a2.034 2.034 0 1 0-2.033 2.035 2.034 2.034 0 0 0 2.033-2.035zM185.171 239.787c0-1.123-.91-2.035-2.033-2.035a2.034 2.034 0 0 0 0 4.07 2.034 2.034 0 0 0 2.033-2.035zM185.171 249.841a2.034 2.034 0 1 0-2.033 2.035 2.034 2.034 0 0 0 2.033-2.035zM185.171 259.893a2.034 2.034 0 1 0-2.033 2.035 2.034 2.034 0 0 0 2.033-2.035zM185.171 269.945a2.034 2.034 0 1 0-2.033 2.035 2.034 2.034 0 0 0 2.033-2.035zM185.171 279.999a2.034 2.034 0 1 0-2.033 2.035 2.034 2.034 0 0 0 2.033-2.035zM185.171 290.051a2.034 2.034 0 1 0-2.033 2.035 2.034 2.034 0 0 0 2.033-2.035zM185.171 300.104a2.034 2.034 0 1 0-2.033 2.035 2.034 2.034 0 0 0 2.033-2.035zM185.171 310.156a2.034 2.034 0 1 0-2.033 2.035 2.034 2.034 0 0 0 2.033-2.035zM175.126 109.104a2.034 2.034 0 1 0-2.033 2.035 2.034 2.034 0 0 0 2.033-2.035zM175.126 119.156a2.034 2.034 0 1 0-2.033 2.035 2.034 2.034 0 0 0 2.033-2.035zM175.126 129.21a2.034 2.034 0 1 0-2.033 2.035 2.034 2.034 0 0 0 2.033-2.035zM175.126 139.262a2.034 2.034 0 1 0-2.033 2.035 2.034 2.034 0 0 0 2.033-2.035zM175.126 149.315a2.034 2.034 0 1 0-2.033 2.035 2.034 2.034 0 0 0 2.033-2.035zM175.126 159.367a2.034 2.034 0 1 0-2.033 2.035 2.034 2.034 0 0 0 2.033-2.035zM175.126 169.42a2.034 2.034 0 1 0-2.033 2.035 2.034 2.034 0 0 0 2.033-2.035zM175.126 179.473a2.034 2.034 0 1 0-2.033 2.035 2.034 2.034 0 0 0 2.033-2.035zM175.126 189.524a2.034 2.034 0 1 0-2.033 2.035 2.034 2.034 0 0 0 2.033-2.035zM175.126 199.577c0-1.123-.91-2.035-2.033-2.035a2.034 2.034 0 0 0 0 4.07 2.034 2.034 0 0 0 2.033-2.035zM175.126 209.63a2.034 2.034 0 1 0-2.033 2.035 2.034 2.034 0 0 0 2.033-2.035zM175.126 219.682a2.034 2.034 0 1 0-2.033 2.035 2.034 2.034 0 0 0 2.033-2.035zM175.126 229.736a2.034 2.034 0 1 0-2.033 2.035 2.034 2.034 0 0 0 2.033-2.035zM175.126 239.787c0-1.123-.91-2.035-2.033-2.035a2.034 2.034 0 0 0 0 4.07 2.034 2.034 0 0 0 2.033-2.035zM175.126 249.841a2.034 2.034 0 1 0-2.033 2.035 2.034 2.034 0 0 0 2.033-2.035zM175.126 259.893a2.034 2.034 0 1 0-2.033 2.035 2.034 2.034 0 0 0 2.033-2.035zM175.126 269.945a2.034 2.034 0 1 0-2.033 2.035 2.034 2.034 0 0 0 2.033-2.035zM175.126 279.999a2.034 2.034 0 1 0-2.033 2.035 2.034 2.034 0 0 0 2.033-2.035zM175.126 290.051a2.034 2.034 0 1 0-2.033 2.035 2.034 2.034 0 0 0 2.033-2.035zM175.126 300.104a2.034 2.034 0 1 0-2.033 2.035 2.034 2.034 0 0 0 2.033-2.035zM175.126 310.156a2.034 2.034 0 1 0-2.033 2.035 2.034 2.034 0 0 0 2.033-2.035zM165.081 109.104a2.034 2.034 0 1 0-2.033 2.035 2.034 2.034 0 0 0 2.033-2.035zM165.081 119.156a2.034 2.034 0 1 0-2.033 2.035 2.034 2.034 0 0 0 2.033-2.035zM165.081 129.21a2.034 2.034 0 1 0-2.033 2.035 2.034 2.034 0 0 0 2.033-2.035zM165.081 139.262a2.034 2.034 0 1 0-2.033 2.035 2.034 2.034 0 0 0 2.033-2.035zM165.081 149.315a2.034 2.034 0 1 0-2.033 2.035 2.034 2.034 0 0 0 2.033-2.035zM165.081 159.367a2.034 2.034 0 1 0-2.033 2.035 2.034 2.034 0 0 0 2.033-2.035zM165.081 169.42a2.034 2.034 0 1 0-2.033 2.035 2.034 2.034 0 0 0 2.033-2.035zM165.081 179.473a2.034 2.034 0 1 0-2.033 2.035 2.034 2.034 0 0 0 2.033-2.035zM165.081 189.524a2.034 2.034 0 1 0-2.033 2.035 2.034 2.034 0 0 0 2.033-2.035zM165.081 199.577c0-1.123-.91-2.035-2.033-2.035a2.034 2.034 0 0 0 0 4.07 2.034 2.034 0 0 0 2.033-2.035zM165.081 209.63a2.034 2.034 0 1 0-2.033 2.035 2.034 2.034 0 0 0 2.033-2.035zM165.081 219.682a2.034 2.034 0 1 0-2.033 2.035 2.034 2.034 0 0 0 2.033-2.035zM165.081 229.736a2.034 2.034 0 1 0-2.033 2.035 2.034 2.034 0 0 0 2.033-2.035zM165.081 239.787c0-1.123-.91-2.035-2.033-2.035a2.034 2.034 0 0 0 0 4.07 2.034 2.034 0 0 0 2.033-2.035zM165.081 249.841a2.034 2.034 0 1 0-2.033 2.035 2.034 2.034 0 0 0 2.033-2.035zM165.081 259.893a2.034 2.034 0 1 0-2.033 2.035 2.034 2.034 0 0 0 2.033-2.035zM165.081 269.945a2.034 2.034 0 1 0-2.033 2.035 2.034 2.034 0 0 0 2.033-2.035zM165.081 279.999a2.034 2.034 0 1 0-2.033 2.035 2.034 2.034 0 0 0 2.033-2.035zM165.081 290.051a2.034 2.034 0 1 0-2.033 2.035 2.034 2.034 0 0 0 2.033-2.035zM165.081 300.104a2.034 2.034 0 1 0-2.033 2.035 2.034 2.034 0 0 0 2.033-2.035zM165.081 310.156a2.034 2.034 0 1 0-2.033 2.035 2.034 2.034 0 0 0 2.033-2.035zM155.039 109.104a2.034 2.034 0 1 0-2.033 2.035 2.034 2.034 0 0 0 2.033-2.035zM155.039 119.156a2.034 2.034 0 1 0-2.033 2.035 2.034 2.034 0 0 0 2.033-2.035zM155.039 129.21a2.034 2.034 0 1 0-2.033 2.035 2.034 2.034 0 0 0 2.033-2.035zM155.039 139.262a2.034 2.034 0 1 0-2.033 2.035 2.034 2.034 0 0 0 2.033-2.035zM155.039 149.315a2.034 2.034 0 1 0-2.033 2.035 2.034 2.034 0 0 0 2.033-2.035zM155.039 159.367a2.034 2.034 0 1 0-2.033 2.035 2.034 2.034 0 0 0 2.033-2.035zM155.039 169.42a2.034 2.034 0 1 0-2.033 2.035 2.034 2.034 0 0 0 2.033-2.035zM155.039 179.473a2.034 2.034 0 1 0-2.033 2.035 2.034 2.034 0 0 0 2.033-2.035zM155.039 189.524a2.034 2.034 0 1 0-2.033 2.035 2.034 2.034 0 0 0 2.033-2.035zM155.039 199.577c0-1.123-.91-2.035-2.033-2.035a2.034 2.034 0 0 0 0 4.07 2.034 2.034 0 0 0 2.033-2.035zM155.039 209.63a2.034 2.034 0 1 0-2.033 2.035 2.034 2.034 0 0 0 2.033-2.035zM155.039 219.682a2.034 2.034 0 1 0-2.033 2.035 2.034 2.034 0 0 0 2.033-2.035zM155.039 229.736a2.034 2.034 0 1 0-2.033 2.035 2.034 2.034 0 0 0 2.033-2.035zM155.039 239.787c0-1.123-.91-2.035-2.033-2.035a2.034 2.034 0 0 0 0 4.07 2.034 2.034 0 0 0 2.033-2.035zM155.039 249.841a2.034 2.034 0 1 0-2.033 2.035 2.034 2.034 0 0 0 2.033-2.035zM155.039 259.893a2.034 2.034 0 1 0-2.033 2.035 2.034 2.034 0 0 0 2.033-2.035zM155.039 269.945a2.034 2.034 0 1 0-2.033 2.035 2.034 2.034 0 0 0 2.033-2.035zM155.039 279.999a2.034 2.034 0 1 0-2.033 2.035 2.034 2.034 0 0 0 2.033-2.035zM155.039 290.051a2.034 2.034 0 1 0-2.033 2.035 2.034 2.034 0 0 0 2.033-2.035zM155.039 300.104a2.034 2.034 0 1 0-2.033 2.035 2.034 2.034 0 0 0 2.033-2.035zM155.039 310.156a2.034 2.034 0 1 0-2.033 2.035 2.034 2.034 0 0 0 2.033-2.035zM144.995 109.104a2.034 2.034 0 1 0-2.033 2.035 2.034 2.034 0 0 0 2.033-2.035zM144.995 119.156a2.034 2.034 0 1 0-2.033 2.035 2.034 2.034 0 0 0 2.033-2.035zM144.995 129.21a2.034 2.034 0 1 0-2.033 2.035 2.034 2.034 0 0 0 2.033-2.035zM144.995 139.262a2.034 2.034 0 1 0-2.033 2.035 2.034 2.034 0 0 0 2.033-2.035zM144.995 149.315a2.034 2.034 0 1 0-2.033 2.035 2.034 2.034 0 0 0 2.033-2.035zM144.995 159.367a2.034 2.034 0 1 0-2.033 2.035 2.034 2.034 0 0 0 2.033-2.035zM144.995 169.42a2.034 2.034 0 1 0-2.033 2.035 2.034 2.034 0 0 0 2.033-2.035zM144.995 179.473a2.034 2.034 0 1 0-2.033 2.035 2.034 2.034 0 0 0 2.033-2.035zM144.995 189.524a2.034 2.034 0 1 0-2.033 2.035 2.034 2.034 0 0 0 2.033-2.035zM144.995 199.577c0-1.123-.91-2.035-2.033-2.035a2.034 2.034 0 0 0 0 4.07 2.034 2.034 0 0 0 2.033-2.035zM144.995 209.63a2.034 2.034 0 1 0-2.033 2.035 2.034 2.034 0 0 0 2.033-2.035zM144.995 219.682a2.034 2.034 0 1 0-2.033 2.035 2.034 2.034 0 0 0 2.033-2.035zM144.995 229.736a2.034 2.034 0 1 0-2.033 2.035 2.034 2.034 0 0 0 2.033-2.035zM144.995 239.787c0-1.123-.91-2.035-2.033-2.035a2.034 2.034 0 0 0 0 4.07 2.034 2.034 0 0 0 2.033-2.035zM144.995 249.841a2.034 2.034 0 1 0-2.033 2.035 2.034 2.034 0 0 0 2.033-2.035zM144.995 259.893a2.034 2.034 0 1 0-2.033 2.035 2.034 2.034 0 0 0 2.033-2.035zM144.995 269.945a2.034 2.034 0 1 0-2.033 2.035 2.034 2.034 0 0 0 2.033-2.035zM144.995 279.999a2.034 2.034 0 1 0-2.033 2.035 2.034 2.034 0 0 0 2.033-2.035zM144.995 290.051a2.034 2.034 0 1 0-2.033 2.035 2.034 2.034 0 0 0 2.033-2.035zM144.995 300.104a2.034 2.034 0 1 0-2.033 2.035 2.034 2.034 0 0 0 2.033-2.035zM144.995 310.156a2.034 2.034 0 1 0-2.033 2.035 2.034 2.034 0 0 0 2.033-2.035zM134.949 109.104a2.034 2.034 0 1 0-2.033 2.035 2.034 2.034 0 0 0 2.033-2.035zM134.949 119.156a2.034 2.034 0 1 0-2.033 2.035 2.034 2.034 0 0 0 2.033-2.035zM134.949 129.21a2.034 2.034 0 1 0-2.033 2.035 2.034 2.034 0 0 0 2.033-2.035zM134.949 139.262a2.034 2.034 0 1 0-2.033 2.035 2.034 2.034 0 0 0 2.033-2.035zM134.949 149.315a2.034 2.034 0 1 0-2.033 2.035 2.034 2.034 0 0 0 2.033-2.035zM134.949 159.367a2.034 2.034 0 1 0-2.033 2.035 2.034 2.034 0 0 0 2.033-2.035zM134.949 169.42a2.034 2.034 0 1 0-2.033 2.035 2.034 2.034 0 0 0 2.033-2.035zM134.949 179.473a2.034 2.034 0 1 0-2.033 2.035 2.034 2.034 0 0 0 2.033-2.035zM134.949 189.524a2.034 2.034 0 1 0-2.033 2.035 2.034 2.034 0 0 0 2.033-2.035zM134.949 199.577a2.034 2.034 0 1 0-4.069-.001 2.034 2.034 0 0 0 4.069.001zM134.949 209.63a2.034 2.034 0 1 0-2.033 2.035 2.034 2.034 0 0 0 2.033-2.035zM134.949 219.682a2.034 2.034 0 1 0-2.033 2.035 2.034 2.034 0 0 0 2.033-2.035zM134.949 229.736a2.034 2.034 0 1 0-2.033 2.035 2.034 2.034 0 0 0 2.033-2.035zM134.949 239.787a2.034 2.034 0 1 0-4.069-.001 2.034 2.034 0 0 0 4.069.001zM134.949 249.841a2.034 2.034 0 1 0-2.033 2.035 2.034 2.034 0 0 0 2.033-2.035zM134.949 259.893a2.034 2.034 0 1 0-2.033 2.035 2.034 2.034 0 0 0 2.033-2.035zM134.949 269.945a2.034 2.034 0 1 0-2.033 2.035 2.034 2.034 0 0 0 2.033-2.035zM134.949 279.999a2.034 2.034 0 1 0-2.033 2.035 2.034 2.034 0 0 0 2.033-2.035zM134.949 290.051a2.034 2.034 0 1 0-2.033 2.035 2.034 2.034 0 0 0 2.033-2.035zM134.949 300.104a2.034 2.034 0 1 0-2.033 2.035 2.034 2.034 0 0 0 2.033-2.035zM134.949 310.156a2.034 2.034 0 1 0-2.033 2.035 2.034 2.034 0 0 0 2.033-2.035zM124.906 109.104a2.034 2.034 0 1 0-2.033 2.035 2.034 2.034 0 0 0 2.033-2.035zM124.906 119.156a2.034 2.034 0 1 0-2.033 2.035 2.034 2.034 0 0 0 2.033-2.035zM124.906 129.21a2.034 2.034 0 1 0-2.033 2.035 2.034 2.034 0 0 0 2.033-2.035zM124.906 139.262a2.034 2.034 0 1 0-2.033 2.035 2.034 2.034 0 0 0 2.033-2.035zM124.906 149.315a2.034 2.034 0 1 0-2.033 2.035 2.034 2.034 0 0 0 2.033-2.035zM124.906 159.367a2.034 2.034 0 1 0-2.033 2.035 2.034 2.034 0 0 0 2.033-2.035zM124.906 169.42a2.034 2.034 0 1 0-2.033 2.035 2.034 2.034 0 0 0 2.033-2.035zM124.906 179.473a2.034 2.034 0 1 0-2.033 2.035 2.034 2.034 0 0 0 2.033-2.035zM124.906 189.524a2.034 2.034 0 1 0-2.033 2.035 2.034 2.034 0 0 0 2.033-2.035zM124.906 199.577a2.034 2.034 0 1 0-4.069-.001 2.034 2.034 0 0 0 4.069.001zM124.906 209.63a2.034 2.034 0 1 0-2.033 2.035 2.034 2.034 0 0 0 2.033-2.035zM124.906 219.682a2.034 2.034 0 1 0-2.033 2.035 2.034 2.034 0 0 0 2.033-2.035zM124.906 229.736a2.034 2.034 0 1 0-2.033 2.035 2.034 2.034 0 0 0 2.033-2.035zM124.906 239.787a2.034 2.034 0 1 0-4.069-.001 2.034 2.034 0 0 0 4.069.001zM124.906 249.841a2.034 2.034 0 1 0-2.033 2.035 2.034 2.034 0 0 0 2.033-2.035zM124.906 259.893a2.034 2.034 0 1 0-2.033 2.035 2.034 2.034 0 0 0 2.033-2.035zM124.906 269.945a2.034 2.034 0 1 0-2.033 2.035 2.034 2.034 0 0 0 2.033-2.035zM124.906 279.999a2.034 2.034 0 1 0-2.033 2.035 2.034 2.034 0 0 0 2.033-2.035zM124.906 290.051a2.034 2.034 0 1 0-2.033 2.035 2.034 2.034 0 0 0 2.033-2.035zM124.906 300.104a2.034 2.034 0 1 0-2.033 2.035 2.034 2.034 0 0 0 2.033-2.035zM124.906 310.156a2.034 2.034 0 1 0-2.033 2.035 2.034 2.034 0 0 0 2.033-2.035zM114.862 109.104a2.034 2.034 0 1 0-4.069-.001 2.034 2.034 0 0 0 4.069.001zM114.862 119.156a2.034 2.034 0 1 0-4.069-.001 2.034 2.034 0 0 0 4.069.001zM114.862 129.21a2.034 2.034 0 1 0-4.069-.001 2.034 2.034 0 0 0 4.069.001zM114.862 139.262a2.034 2.034 0 1 0-4.069-.001 2.034 2.034 0 0 0 4.069.001zM114.862 149.315a2.034 2.034 0 1 0-4.069-.001 2.034 2.034 0 0 0 4.069.001zM114.862 159.367a2.034 2.034 0 1 0-4.069-.001 2.034 2.034 0 0 0 4.069.001zM114.862 169.42a2.034 2.034 0 1 0-4.069-.001 2.034 2.034 0 0 0 4.069.001zM114.862 179.473a2.034 2.034 0 1 0-4.069-.001 2.034 2.034 0 0 0 4.069.001zM114.862 189.524a2.034 2.034 0 1 0-4.069-.001 2.034 2.034 0 0 0 4.069.001zM114.862 199.577a2.035 2.035 0 0 0-2.033-2.035 2.035 2.035 0 0 0 0 4.07 2.034 2.034 0 0 0 2.033-2.035zM114.862 209.63a2.034 2.034 0 1 0-4.069-.001 2.034 2.034 0 0 0 4.069.001zM114.862 219.682a2.034 2.034 0 1 0-4.069-.001 2.034 2.034 0 0 0 4.069.001zM114.862 229.736a2.034 2.034 0 1 0-4.069-.001 2.034 2.034 0 0 0 4.069.001zM114.862 239.787a2.035 2.035 0 0 0-2.033-2.035 2.035 2.035 0 0 0 0 4.07 2.034 2.034 0 0 0 2.033-2.035zM114.862 249.841a2.034 2.034 0 1 0-4.069-.001 2.034 2.034 0 0 0 4.069.001zM114.862 259.893a2.034 2.034 0 1 0-4.069-.001 2.034 2.034 0 0 0 4.069.001zM114.862 269.945a2.034 2.034 0 1 0-4.069-.001 2.034 2.034 0 0 0 4.069.001zM114.862 279.999a2.034 2.034 0 1 0-4.069-.001 2.034 2.034 0 0 0 4.069.001zM114.862 290.051a2.034 2.034 0 1 0-4.069-.001 2.034 2.034 0 0 0 4.069.001zM114.862 300.104a2.034 2.034 0 1 0-4.069-.001 2.034 2.034 0 0 0 4.069.001zM114.862 310.156a2.034 2.034 0 1 0-4.069-.001 2.034 2.034 0 0 0 4.069.001zM104.819 109.104a2.034 2.034 0 1 0-4.069-.001 2.034 2.034 0 0 0 4.069.001zM104.819 119.156a2.034 2.034 0 1 0-4.069-.001 2.034 2.034 0 0 0 4.069.001zM104.819 129.21a2.034 2.034 0 1 0-4.069-.001 2.034 2.034 0 0 0 4.069.001zM104.819 139.262a2.034 2.034 0 1 0-4.069-.001 2.034 2.034 0 0 0 4.069.001zM104.819 149.315a2.034 2.034 0 1 0-4.069-.001 2.034 2.034 0 0 0 4.069.001zM104.819 159.367a2.034 2.034 0 1 0-4.069-.001 2.034 2.034 0 0 0 4.069.001zM104.819 169.42a2.034 2.034 0 1 0-4.069-.001 2.034 2.034 0 0 0 4.069.001zM104.819 179.473a2.034 2.034 0 1 0-4.069-.001 2.034 2.034 0 0 0 4.069.001zM104.819 189.524a2.034 2.034 0 1 0-4.069-.001 2.034 2.034 0 0 0 4.069.001zM104.819 199.577a2.035 2.035 0 0 0-2.033-2.035 2.035 2.035 0 0 0 0 4.07 2.034 2.034 0 0 0 2.033-2.035zM104.819 209.63a2.034 2.034 0 1 0-4.069-.001 2.034 2.034 0 0 0 4.069.001zM104.819 219.682a2.034 2.034 0 1 0-4.069-.001 2.034 2.034 0 0 0 4.069.001zM104.819 229.736a2.034 2.034 0 1 0-4.069-.001 2.034 2.034 0 0 0 4.069.001zM104.819 239.787a2.035 2.035 0 0 0-2.033-2.035 2.035 2.035 0 0 0 0 4.07 2.034 2.034 0 0 0 2.033-2.035zM104.819 249.841a2.034 2.034 0 1 0-4.069-.001 2.034 2.034 0 0 0 4.069.001zM104.819 259.893a2.034 2.034 0 1 0-4.069-.001 2.034 2.034 0 0 0 4.069.001zM104.819 269.945a2.034 2.034 0 1 0-4.069-.001 2.034 2.034 0 0 0 4.069.001zM104.819 279.999a2.034 2.034 0 1 0-4.069-.001 2.034 2.034 0 0 0 4.069.001zM104.819 290.051a2.034 2.034 0 1 0-4.069-.001 2.034 2.034 0 0 0 4.069.001zM104.819 300.104a2.034 2.034 0 1 0-4.069-.001 2.034 2.034 0 0 0 4.069.001zM104.819 310.156a2.034 2.034 0 1 0-4.069-.001 2.034 2.034 0 0 0 4.069.001zM94.772 109.104a2.034 2.034 0 1 0-4.068-.002 2.034 2.034 0 0 0 4.069.002zM94.772 119.156a2.034 2.034 0 1 0-4.068-.002 2.034 2.034 0 0 0 4.069.002zM94.772 129.21a2.034 2.034 0 1 0-4.068-.002 2.034 2.034 0 0 0 4.069.002zM94.772 139.262a2.034 2.034 0 1 0-4.068-.002 2.034 2.034 0 0 0 4.069.002zM94.772 149.315a2.034 2.034 0 1 0-4.068-.002 2.034 2.034 0 0 0 4.069.002zM94.772 159.367a2.034 2.034 0 1 0-4.068-.002 2.034 2.034 0 0 0 4.069.002zM94.772 169.42a2.034 2.034 0 1 0-4.068-.002 2.034 2.034 0 0 0 4.069.002zM94.772 179.473a2.034 2.034 0 1 0-4.068-.002 2.034 2.034 0 0 0 4.069.002zM94.772 189.524a2.034 2.034 0 1 0-4.068-.002 2.034 2.034 0 0 0 4.069.002zM94.772 199.577c0-1.123-.91-2.035-2.033-2.035a2.035 2.035 0 0 0 0 4.07 2.034 2.034 0 0 0 2.033-2.035zM94.772 209.63a2.034 2.034 0 1 0-4.068-.002 2.034 2.034 0 0 0 4.069.002zM94.772 219.682a2.034 2.034 0 1 0-4.068-.002 2.034 2.034 0 0 0 4.069.002zM94.772 229.736a2.034 2.034 0 1 0-4.068-.002 2.034 2.034 0 0 0 4.069.002zM94.772 239.787c0-1.123-.91-2.035-2.033-2.035a2.035 2.035 0 0 0 0 4.07 2.034 2.034 0 0 0 2.033-2.035zM94.772 249.841a2.034 2.034 0 1 0-4.068-.002 2.034 2.034 0 0 0 4.069.002zM94.772 259.893a2.034 2.034 0 1 0-4.068-.002 2.034 2.034 0 0 0 4.069.002zM94.772 269.945a2.034 2.034 0 1 0-4.068-.002 2.034 2.034 0 0 0 4.069.002zM94.772 279.999a2.034 2.034 0 1 0-4.068-.002 2.034 2.034 0 0 0 4.069.002zM94.772 290.051a2.034 2.034 0 1 0-4.068-.002 2.034 2.034 0 0 0 4.069.002zM94.772 300.104a2.034 2.034 0 1 0-4.068-.002 2.034 2.034 0 0 0 4.069.002zM94.772 310.156a2.034 2.034 0 1 0-4.068-.002 2.034 2.034 0 0 0 4.069.002zM84.73 109.104a2.034 2.034 0 1 0-4.069-.002 2.034 2.034 0 0 0 4.069.002zM84.73 119.156a2.034 2.034 0 1 0-4.069-.002 2.034 2.034 0 0 0 4.069.002zM84.73 129.21a2.034 2.034 0 1 0-4.069-.002 2.034 2.034 0 0 0 4.069.002zM84.73 139.262a2.034 2.034 0 1 0-4.069-.002 2.034 2.034 0 0 0 4.069.002zM84.73 149.315a2.034 2.034 0 1 0-4.069-.002 2.034 2.034 0 0 0 4.069.002zM84.73 159.367a2.034 2.034 0 1 0-4.069-.002 2.034 2.034 0 0 0 4.069.002zM84.73 169.42a2.034 2.034 0 1 0-4.069-.002 2.034 2.034 0 0 0 4.069.002zM84.73 179.473a2.034 2.034 0 1 0-4.069-.002 2.034 2.034 0 0 0 4.069.002zM84.73 189.524a2.034 2.034 0 1 0-4.069-.002 2.034 2.034 0 0 0 4.069.002zM84.73 199.577a2.035 2.035 0 1 0-2.033 2.035 2.034 2.034 0 0 0 2.032-2.035zM84.73 209.63a2.034 2.034 0 1 0-4.069-.002 2.034 2.034 0 0 0 4.069.002zM84.73 219.682a2.034 2.034 0 1 0-4.069-.002 2.034 2.034 0 0 0 4.069.002zM84.73 229.736a2.034 2.034 0 1 0-4.069-.002 2.034 2.034 0 0 0 4.069.002zM84.73 239.787a2.035 2.035 0 1 0-2.033 2.035 2.034 2.034 0 0 0 2.032-2.035zM84.73 249.841a2.034 2.034 0 1 0-4.069-.002 2.034 2.034 0 0 0 4.069.002zM84.73 259.893a2.034 2.034 0 1 0-4.069-.002 2.034 2.034 0 0 0 4.069.002zM84.73 269.945a2.034 2.034 0 1 0-4.069-.002 2.034 2.034 0 0 0 4.069.002zM84.73 279.999a2.034 2.034 0 1 0-4.069-.002 2.034 2.034 0 0 0 4.069.002zM84.73 290.051a2.034 2.034 0 1 0-4.069-.002 2.034 2.034 0 0 0 4.069.002zM84.73 300.104a2.034 2.034 0 1 0-4.069-.002 2.034 2.034 0 0 0 4.069.002zM84.73 310.156a2.034 2.034 0 1 0-4.069-.002 2.034 2.034 0 0 0 4.069.002zM74.685 109.104a2.034 2.034 0 1 0-4.069-.002 2.034 2.034 0 0 0 4.069.002zM74.684 119.156a2.034 2.034 0 1 0-4.068-.002 2.034 2.034 0 0 0 4.068.002zM74.684 129.21a2.034 2.034 0 1 0-4.068-.002 2.034 2.034 0 0 0 4.068.002zM74.684 139.262a2.034 2.034 0 1 0-4.068-.002 2.034 2.034 0 0 0 4.068.002zM74.684 149.315a2.034 2.034 0 1 0-4.068-.002 2.034 2.034 0 0 0 4.068.002zM74.684 159.367a2.034 2.034 0 1 0-4.068-.002 2.034 2.034 0 0 0 4.068.002zM74.684 169.42a2.034 2.034 0 1 0-4.068-.002 2.034 2.034 0 0 0 4.068.002zM74.684 179.473a2.034 2.034 0 1 0-4.068-.002 2.034 2.034 0 0 0 4.068.002zM74.684 189.524a2.034 2.034 0 1 0-4.068-.002 2.034 2.034 0 0 0 4.068.002zM74.684 199.577c0-1.123-.91-2.035-2.033-2.035a2.035 2.035 0 0 0 0 4.07 2.034 2.034 0 0 0 2.033-2.035zM74.684 209.63a2.034 2.034 0 1 0-4.068-.002 2.034 2.034 0 0 0 4.068.002zM74.684 219.682a2.034 2.034 0 1 0-4.068-.002 2.034 2.034 0 0 0 4.068.002zM74.684 229.736a2.034 2.034 0 1 0-4.068-.002 2.034 2.034 0 0 0 4.068.002zM74.684 239.787c0-1.123-.91-2.035-2.033-2.035a2.035 2.035 0 0 0 0 4.07 2.034 2.034 0 0 0 2.033-2.035zM74.684 249.841a2.034 2.034 0 1 0-4.068-.002 2.034 2.034 0 0 0 4.068.002zM74.684 259.893a2.034 2.034 0 1 0-4.068-.002 2.034 2.034 0 0 0 4.068.002zM74.684 269.945a2.034 2.034 0 1 0-4.068-.002 2.034 2.034 0 0 0 4.068.002zM74.684 279.999a2.034 2.034 0 1 0-4.068-.002 2.034 2.034 0 0 0 4.068.002zM74.684 290.051a2.034 2.034 0 1 0-4.068-.002 2.034 2.034 0 0 0 4.068.002zM74.684 300.104a2.034 2.034 0 1 0-4.068-.002 2.034 2.034 0 0 0 4.068.002zM74.684 310.156a2.034 2.034 0 1 0-4.068-.002 2.034 2.034 0 0 0 4.068.002z" fill="#011627"/>
    <path d="M56.953 281.983V82.052H161.26l51.85 51.974.081 147.957H56.953z" fill="#76C8FB"/>
    <path fill-rule="evenodd" clip-rule="evenodd" d="M56.952 284.015a2.01 2.01 0 0 1-2.026-2.031V82.052a2.01 2.01 0 0 1 2.026-2.032H161.26a1.9 1.9 0 0 1 1.419.61l51.849 51.974c.365.366.608.894.608 1.422l.081 147.958c0 .528-.202 1.056-.608 1.422a1.9 1.9 0 0 1-1.419.609H56.952zm154.211-4.063-.081-145.072-50.674-50.796H58.979v195.868h152.184z" fill="#011627"/>
    <path d="M213.191 134.026H161.26V82.052l51.931 51.974z" fill="#76C8FB"/>
    <path fill-rule="evenodd" clip-rule="evenodd" d="M161.26 136.058a2.01 2.01 0 0 1-2.027-2.032V82.052c0-.813.487-1.544 1.257-1.869.77-.325 1.621-.122 2.189.447l51.931 51.974c.567.569.77 1.463.446 2.194-.325.732-1.054 1.26-1.865 1.26H161.26zm47.026-4.063-44.999-45.026v45.026h44.999z" fill="#011627"/>
    <path d="M31.17 256.061V56.13h104.308l51.849 51.974.081 147.957H31.17z" fill="#1BA5F8"/>
    <path fill-rule="evenodd" clip-rule="evenodd" d="M31.171 258.093a2.01 2.01 0 0 1-2.027-2.032V56.13a2.01 2.01 0 0 1 2.027-2.032h104.307a1.9 1.9 0 0 1 1.419.61l51.85 51.974c.364.365.608.894.608 1.422l.081 147.957a1.91 1.91 0 0 1-.608 1.423 1.9 1.9 0 0 1-1.419.609H31.171zm154.211-4.064-.081-145.072-50.674-50.795H33.198v195.867h152.184z" fill="#011627"/>
    <path d="M187.406 108.103h-51.93V56.129l51.93 51.974z" fill="#1BA5F8"/>
    <path fill-rule="evenodd" clip-rule="evenodd" d="M135.476 110.135a2.01 2.01 0 0 1-2.027-2.032V56.129c0-.812.487-1.544 1.257-1.869.77-.325 1.622-.122 2.189.447l51.931 51.974c.567.569.77 1.463.446 2.195-.325.731-1.054 1.259-1.865 1.259h-51.931zm47.026-4.063-44.999-45.026v45.026h44.999z" fill="#011627"/>
    <path d="M567.398 277.465V97.845s-10.155 62.622-81.605 81.605c-86.52 22.983-9.424 77.482-179.986 98.015h261.591z" fill="#0B2A3C"/>
    <path fill-rule="evenodd" clip-rule="evenodd" d="M305.807 279.507c-1.056 0-1.95-.857-2.031-1.918-.081-1.062.731-2.001 1.787-2.164 45.129-5.429 76.69-13.716 96.553-25.351 17.264-10.124 23.722-21.554 30.018-32.576 8.896-15.676 17.304-30.495 53.171-40.007 16.005-4.245 30.14-11.104 42.082-20.329a103.932 103.932 0 0 0 24.21-26.576c11.17-17.472 13.77-32.903 13.81-33.066a2.013 2.013 0 0 1 2.153-1.715c1.056.082 1.869.98 1.869 2.041v179.62a2.016 2.016 0 0 1-2.031 2.041H305.807zm259.56-4.082V112.134a112.04 112.04 0 0 1-10.277 20.493 109.588 109.588 0 0 1-25.184 27.678c-12.389 9.593-27.053 16.737-43.626 21.105-34.161 9.104-42.163 23.188-50.653 38.088-6.539 11.512-13.282 23.391-31.48 34.087-15.841 9.307-38.873 16.492-69.906 21.84h231.126z" fill="#0B2A3C"/>
    <path d="M6.496 230.151V31.324h103.578l51.487 51.687.081 147.14H6.496z" fill="#F4F7FA"/>
    <path fill-rule="evenodd" clip-rule="evenodd" d="M6.496 232.171a1.997 1.997 0 0 1-2.012-2.02V31.324c0-1.132.885-2.021 2.012-2.021h103.578c.523 0 1.047.202 1.409.606l51.487 51.687c.362.364.604.89.604 1.414l.08 147.141a1.9 1.9 0 0 1-.603 1.414 1.887 1.887 0 0 1-1.409.606H6.496zm153.133-4.041-.081-144.27-50.319-50.516H8.509V228.13h151.12z" fill="#011627"/>
    <path d="M161.642 83.01h-51.568V31.325l51.568 51.687z" fill="#E6EAF7"/>
    <path fill-rule="evenodd" clip-rule="evenodd" d="M110.075 85.032a1.997 1.997 0 0 1-2.013-2.02V31.323c0-.808.483-1.535 1.248-1.858.765-.324 1.61-.122 2.174.444l51.567 51.687c.564.566.765 1.455.443 2.182-.322.728-1.046 1.253-1.851 1.253h-51.568zm46.697-4.041-44.684-44.777v44.777h44.684z" fill="#011627"/>
    <path d="M567.089 297.479c-13.812 13.894-36.222 13.894-50.034 0-4.319-4.344-7.252-9.508-8.882-15 12.06 3.607 25.628.615 35.121-8.934 9.494-9.549 12.468-23.238 8.883-35.328a35.362 35.362 0 0 1 14.912 8.934c13.812 13.894 13.812 36.435 0 50.328z" fill="#63768B"/>
    <path fill-rule="evenodd" clip-rule="evenodd" d="M515.63 298.913c-4.441-4.467-7.578-9.795-9.412-15.861-.203-.737 0-1.516.53-2.049.53-.533 1.304-.738 2.037-.533a33.167 33.167 0 0 0 33.085-8.401c8.678-8.73 11.856-21.476 8.352-33.279-.203-.738 0-1.516.53-2.049.53-.533 1.304-.738 2.037-.533 5.949 1.803 11.409 5.041 15.768 9.467 7.049 7.09 10.96 16.558 10.96 26.599s-3.87 19.508-10.96 26.598c-7.089 7.172-16.46 11.066-26.484 11.066-9.982 0-19.394-3.894-26.443-11.025zm2.853-2.869c6.315 6.353 14.667 9.836 23.59 9.836s17.276-3.483 23.591-9.836c6.316-6.352 9.779-14.754 9.779-23.729 0-8.976-3.463-17.377-9.779-23.73a33.456 33.456 0 0 0-10.593-7.172 37.73 37.73 0 0 1-10.308 33.566c-8.801 8.893-21.31 12.664-33.411 10.409a33.468 33.468 0 0 0 7.131 10.656z" fill="#011627"/>
    <path d="M552.195 238.242c-7.24-7.282-22.963-3.273-35.12 8.955-12.156 12.228-16.142 28.044-8.902 35.326 7.239 7.282 22.963 3.273 35.12-8.955 12.156-12.228 16.142-28.044 8.902-35.326z" fill="#1BA5F8"/>
    <path fill-rule="evenodd" clip-rule="evenodd" d="M506.704 283.995c-4.033-4.057-5.215-10.368-3.341-17.746 1.752-7.008 6.112-14.303 12.264-20.45 6.153-6.189 13.364-10.533 20.332-12.336 7.374-1.886 13.608-.697 17.642 3.36 4.034 4.058 5.215 10.369 3.341 17.746-1.752 7.008-6.112 14.303-12.264 20.451-6.152 6.189-13.364 10.533-20.331 12.336-2.241.574-4.401.861-6.438.861-4.563 0-8.393-1.435-11.205-4.222zm30.233-46.598c-6.275 1.598-12.835 5.615-18.458 11.271-5.622 5.655-9.615 12.254-11.204 18.565-1.508 5.943-.693 10.861 2.281 13.853 2.975 2.991 7.864 3.811 13.772 2.295 6.275-1.599 12.834-5.615 18.457-11.271 5.623-5.656 9.616-12.254 11.205-18.565 1.507-5.943.692-10.861-2.282-13.853-1.956-2.008-4.848-3.033-8.312-3.033-1.67 0-3.504.246-5.459.738z" fill="#011627"/>
    <path d="M552.178 238.216c-12.06-3.606-25.628-.614-35.121 8.935-9.494 9.549-12.468 23.238-8.883 35.328a35.195 35.195 0 0 1-14.912-8.935c-13.812-13.893-13.812-36.434 0-50.328 13.812-13.893 36.222-13.893 50.034 0 4.319 4.345 7.252 9.509 8.882 15z" fill="#63768B"/>
    <path fill-rule="evenodd" clip-rule="evenodd" d="M507.604 284.446c-6.03-1.803-11.327-5-15.768-9.467-7.09-7.09-10.961-16.517-10.961-26.599 0-10.041 3.871-19.508 10.961-26.598 7.048-7.131 16.46-11.025 26.443-11.025 9.982 0 19.394 3.894 26.443 11.025 4.441 4.467 7.578 9.795 9.412 15.861.203.737 0 1.516-.53 2.049-.53.533-1.304.737-2.037.533a33.167 33.167 0 0 0-33.085 8.401c-8.678 8.73-11.856 21.476-8.352 33.279.204.738 0 1.516-.53 2.049a2.027 2.027 0 0 1-1.426.574c-.204 0-.407-.041-.57-.082zm-12.875-59.754c-6.275 6.352-9.779 14.754-9.779 23.688 0 8.935 3.463 17.377 9.779 23.73a33.012 33.012 0 0 0 10.593 7.172 37.73 37.73 0 0 1 10.308-33.566c8.801-8.852 21.31-12.664 33.37-10.368a33.465 33.465 0 0 0-7.13-10.656c-6.316-6.353-14.668-9.836-23.591-9.836-8.882 0-17.276 3.483-23.55 9.836zM435.417 70.278v13.148H251.984v61.424c0 4.437 3.551 8.06 7.989 8.06 4.398 0 7.989-3.582 7.989-8.06v-20.434h14.971v12.049c0 4.437 3.55 8.059 7.989 8.059 4.398 0 7.989-3.582 7.989-8.059v-20.434h136.506v13.148c0 29.877 23.726 54.545 53.343 54.748 29.739.163 53.989-24.179 53.989-54.138V69.667c0-29.96-24.25-54.3-53.989-54.138-29.617.163-53.343 24.87-53.343 54.749zm53.666 85.115c-14.002 0-25.421-11.52-25.421-25.645v-60.08c0-14.126 11.419-25.645 25.421-25.645 14.002 0 25.421 11.52 25.421 25.644v60.081c0 14.125-11.419 25.645-25.421 25.645z" fill="#011627"/>
    <path fill-rule="evenodd" clip-rule="evenodd" d="M488.719 185.963c-30.505-.204-55.36-25.686-55.36-56.785v-11.112H300.928v18.399c0 5.576-4.479 10.095-10.007 10.095s-10.006-4.519-10.006-10.095v-10.014H269.98v18.399c0 5.577-4.479 10.095-10.007 10.095s-10.007-4.518-10.007-10.095V83.426c0-1.14.887-2.036 2.017-2.036h181.416V70.278c0-31.14 24.815-56.622 55.361-56.785 14.929-.08 28.971 5.74 39.584 16.364 10.612 10.624 16.422 24.749 16.422 39.81v60.122c0 15.02-5.851 29.186-16.422 39.81-10.532 10.543-24.493 16.364-39.302 16.364h-.323zm-53.303-71.968c1.13 0 2.018.896 2.018 2.036v13.147c0 28.861 23.04 52.51 51.326 52.714 13.84.081 26.873-5.332 36.719-15.183 9.845-9.851 15.252-22.958 15.252-36.92V69.667c0-13.962-5.407-27.07-15.252-36.92-9.765-9.81-22.677-15.183-36.437-15.183h-.282c-28.326.163-51.326 23.813-51.326 52.714v13.147c0 1.14-.888 2.036-2.018 2.036H254.001v59.389c0 3.338 2.663 6.024 5.972 6.024 3.308 0 5.971-2.686 5.971-6.024v-20.434c0-1.14.888-2.035 2.018-2.035h14.97c1.13 0 2.018.895 2.018 2.035v12.049c0 3.338 2.663 6.024 5.971 6.024 3.309 0 5.972-2.686 5.972-6.024v-20.434c0-1.14.888-2.036 2.018-2.036h136.505zm26.228 15.753V69.667c0-15.264 12.307-27.68 27.439-27.68 15.131 0 27.438 12.416 27.438 27.68v60.081c0 15.265-12.307 27.68-27.438 27.68-15.132 0-27.439-12.415-27.439-27.68zm4.035-60.081v60.081c0 13.026 10.491 23.609 23.404 23.609 12.912 0 23.403-10.583 23.403-23.609V69.667c0-13.026-10.491-23.61-23.403-23.61-12.913 0-23.404 10.584-23.404 23.61z" fill="#011627"/>
    <path fill-rule="evenodd" clip-rule="evenodd" d="M435.417 62.42V75.57H251.984v61.424c0 4.437 3.551 8.06 7.989 8.06 4.398 0 7.99-3.582 7.99-8.06v-20.434h14.97v12.049c0 4.437 3.551 8.06 7.989 8.06 4.398 0 7.989-3.583 7.989-8.06v-20.434h136.506v13.148c0 29.877 23.726 54.545 53.343 54.748 29.739.163 53.989-24.179 53.989-54.138V61.81c0-29.959-24.25-54.3-53.989-54.138-29.617.163-53.343 24.871-53.343 54.749zm53.666 85.116c-14.001 0-25.421-11.52-25.421-25.645v-60.08c0-14.126 11.42-25.645 25.421-25.645 14.002 0 25.421 11.52 25.421 25.644v60.081c0 14.125-11.419 25.645-25.421 25.645z" fill="#F4F7FA"/>
    <path fill-rule="evenodd" clip-rule="evenodd" d="M488.721 178.105c-30.505-.204-55.361-25.685-55.361-56.784v-11.113H300.929v18.399c0 5.577-4.478 10.095-10.006 10.095-5.528 0-10.007-4.518-10.007-10.095v-10.014h-10.935v18.399c0 5.577-4.479 10.095-10.007 10.095s-10.007-4.518-10.007-10.095V75.568c0-1.14.888-2.035 2.017-2.035H433.4V62.42c0-31.14 24.816-56.621 55.361-56.784 14.93-.082 28.972 5.74 39.584 16.363 10.612 10.625 16.422 24.75 16.422 39.81v60.122c0 15.021-5.85 29.186-16.422 39.81-10.532 10.543-24.493 16.364-39.302 16.364h-.322zm-53.303-71.967c1.129 0 2.017.895 2.017 2.035v13.148c0 28.86 23.04 52.51 51.326 52.713 13.84.082 26.873-5.332 36.719-15.183 9.845-9.851 15.252-22.958 15.252-36.92V61.809c0-13.962-5.407-27.069-15.252-36.92-9.765-9.81-22.677-15.183-36.437-15.183h-.282c-28.326.163-51.326 23.813-51.326 52.714v13.148c0 1.14-.888 2.035-2.017 2.035H254.002v59.389c0 3.338 2.663 6.025 5.972 6.025 3.309 0 5.972-2.687 5.972-6.025v-20.434c0-1.14.887-2.035 2.017-2.035h14.97c1.13 0 2.018.895 2.018 2.035v12.049c0 3.338 2.663 6.024 5.972 6.024 3.308 0 5.971-2.686 5.971-6.024v-20.434c0-1.14.888-2.035 2.018-2.035h136.506zm26.227 15.753V61.809c0-15.264 12.307-27.68 27.439-27.68 15.131 0 27.438 12.416 27.438 27.68v60.082c0 15.264-12.307 27.679-27.438 27.679-15.132 0-27.439-12.415-27.439-27.679zm4.035-60.082v60.082c0 13.025 10.492 23.609 23.404 23.609 12.912 0 23.403-10.584 23.403-23.609V61.809c0-13.025-10.491-23.609-23.403-23.609-12.912 0-23.404 10.584-23.404 23.61z" fill="#011627"/>
    <path d="M84.07 98.053c-14.229 0-25.782 11.636-25.782 25.967 0 10.084 5.756 18.862 14.147 23.149v40.134c0 1.143.892 2.041 2.027 2.041h19.174a2.014 2.014 0 0 0 2.027-2.041V147.21c8.391-4.287 14.188-13.065 14.188-23.19 0-14.331-11.553-25.967-25.782-25.967z" fill="#011627"/>
    <path d="M400.91 31.183v-7.717c0-1.149.898-2.052 2.041-2.052 1.143 0 2.041.903 2.041 2.052v7.717c0 1.15-.898 2.053-2.041 2.053a2.027 2.027 0 0 1-2.041-2.053zM400.91 58.808v-7.675c0-1.15.898-2.053 2.041-2.053 1.143 0 2.041.903 2.041 2.053v7.675c0 1.15-.898 2.053-2.041 2.053a2.027 2.027 0 0 1-2.041-2.053zM385.396 43.21a2.027 2.027 0 0 1-2.041-2.052c0-1.15.898-2.053 2.041-2.053h7.635c1.143 0 2.041.903 2.041 2.053 0 1.149-.898 2.052-2.041 2.052h-7.635zM412.87 43.21a2.027 2.027 0 0 1-2.041-2.052c0-1.15.898-2.053 2.041-2.053h7.675c1.143 0 2.042.903 2.042 2.053 0 1.149-.899 2.052-2.042 2.052h-7.675zM394.499 35.534l-5.389-5.459a2.117 2.117 0 0 1 0-2.914 2.089 2.089 0 0 1 2.899 0l5.389 5.46c.776.82.776 2.093 0 2.913-.449.41-.939.616-1.47.616a1.91 1.91 0 0 1-1.429-.616zM413.974 55.072l-5.429-5.418c-.817-.78-.817-2.093 0-2.914.775-.821 2.082-.821 2.898 0l5.389 5.459c.817.78.817 2.093 0 2.914-.367.37-.898.575-1.429.575-.53 0-1.02-.205-1.429-.616zM389.111 55.072a2.04 2.04 0 0 1 0-2.914l5.389-5.418a2.014 2.014 0 0 1 2.899 0 2.04 2.04 0 0 1 0 2.914l-5.43 5.418a1.91 1.91 0 0 1-1.429.616c-.53 0-1.061-.205-1.429-.616zM408.545 35.534a2.039 2.039 0 0 1 0-2.914l5.429-5.419a2.014 2.014 0 0 1 2.899 0c.817.821.817 2.094 0 2.915l-5.47 5.418c-.368.41-.899.616-1.429.616a1.91 1.91 0 0 1-1.429-.616z" fill="#0B2A3C"/>
    <path fill-rule="evenodd" clip-rule="evenodd" d="M277.828 245.089c-12.632-1.698-25.466-7.117-37.125-15.609-.891-.647-1.093-1.941-.446-2.831.648-.89 1.944-1.092 2.834-.445 11.093 8.129 23.279 13.264 35.263 14.882 11.093 1.496 21.7 0 30.728-4.327 5.992-2.871 10.972-6.875 14.777-11.727a85.604 85.604 0 0 1-15.87-1.982c-8.745-1.941-15.587-8.533-17.813-17.187-2.187-8.613.607-17.631 7.327-23.454 7.207-6.309 17.045-7.643 25.708-3.519 8.624 4.125 13.725 12.577 13.32 22.121-.283 7.238-2.065 13.951-5.142 19.855 17.854-1.213 34.696-8.654 48.178-21.635 7.449-7.157 13.319-15.528 17.003-24.223 3.604-8.532 4.818-16.782 3.563-23.859a2.017 2.017 0 0 1 3.968-.728c2.874 15.974-5.628 36.274-21.7 51.722-14.939 14.356-33.684 22.241-53.481 22.929-4.373 6.47-10.445 11.768-18.057 15.407-7.287 3.397-15.505 5.217-24.169 5.217-2.915 0-5.871-.202-8.866-.607zm22.347-59.688c-5.627 4.934-7.894 12.172-6.072 19.411 1.862 7.279 7.368 12.617 14.736 14.235 5.951 1.294 11.903 1.941 17.773 1.9 3.522-5.864 5.547-12.698 5.83-20.179.324-7.886-3.887-14.882-11.012-18.278a19.76 19.76 0 0 0-8.502-1.942c-4.575 0-9.109 1.658-12.753 4.853z" fill="#0B2A3C"/>
    <path d="M258.403 29.047c4.36-4.369 11.466-4.369 15.826 0l5.854 5.825c4.361 4.368 11.466 4.368 15.827 0l5.813-5.866c4.361-4.368 11.466-4.368 15.826 0l5.855 5.825c4.36 4.369 11.465 4.369 15.826 0l5.813-5.865c4.361-4.369 11.466-4.369 15.827 0l5.894 5.865v16.18l-5.894-5.865c-4.361-4.368-11.466-4.368-15.827 0l-5.813 5.866c-4.361 4.368-11.466 4.368-15.826 0l-5.855-5.825c-4.36-4.369-11.465-4.369-15.826 0l-5.813 5.865c-4.361 4.369-11.466 4.369-15.827 0l-5.854-5.825c-4.36-4.368-11.466-4.368-15.826 0l-6.419 6.432v-16.18l6.419-6.432z" fill="#0B2A3C"/>
    <path fill-rule="evenodd" clip-rule="evenodd" d="m278.671 52.469-5.854-5.825c-3.593-3.6-9.407-3.6-12.96 0l-6.46 6.432c-.565.566-1.453.768-2.18.445a2.017 2.017 0 0 1-1.251-1.861V35.48c0-.526.202-1.052.605-1.416l6.42-6.432c5.127-5.178 13.525-5.178 18.652 0l5.854 5.825c3.593 3.6 9.407 3.6 12.96 0l5.813-5.865c2.504-2.508 5.814-3.884 9.327-3.884 3.552 0 6.863 1.376 9.326 3.884l5.854 5.825c3.593 3.6 9.407 3.6 12.96 0l5.894-5.866c2.503-2.508 5.814-3.883 9.326-3.883 3.553 0 6.864 1.375 9.326 3.883l5.895 5.866c.363.364.605.89.605 1.415v16.18c0 .81-.484 1.538-1.251 1.861-.767.324-1.615.162-2.18-.444l-5.895-5.866c-1.736-1.74-4.037-2.67-6.5-2.67s-4.764.971-6.5 2.67l-5.814 5.865c-2.503 2.509-5.813 3.884-9.326 3.884-3.512 0-6.863-1.375-9.326-3.883l-5.854-5.825c-3.593-3.6-9.407-3.6-12.96 0l-5.813 5.865a13.194 13.194 0 0 1-9.367 3.883c-3.391 0-6.783-1.294-9.326-3.883zm-3.028-8.657 5.854 5.825c3.593 3.6 9.407 3.6 12.96 0l5.813-5.865a13.19 13.19 0 0 1 18.693 0l5.854 5.825c1.736 1.74 4.038 2.67 6.5 2.67 2.463 0 4.764-.971 6.5-2.67l5.814-5.865a13.19 13.19 0 0 1 18.693 0l2.462 2.427V35.682l-5.288-5.259c-1.736-1.74-4.038-2.67-6.5-2.67-2.463 0-4.764.971-6.5 2.67l-5.814 5.866a13.19 13.19 0 0 1-18.693 0l-5.854-5.825c-1.736-1.74-4.037-2.67-6.5-2.67s-4.764.97-6.5 2.67l-5.814 5.865c-5.127 5.137-13.525 5.137-18.652-.04l-5.854-5.825c-3.593-3.56-9.407-3.56-13 0l-5.814 5.865v10.477l2.988-2.993c2.543-2.59 5.934-3.884 9.326-3.884 3.391 0 6.782 1.295 9.326 3.883z" fill="#0B2A3C"/>
    <path d="M190.527 72.154a.83.83 0 0 0 1.195 0 .85.85 0 0 0 .236-.592V33.25a.836.836 0 0 0-.842-.846h-38.108a.835.835 0 0 0-.841.846c0 .22.084.44.235.592l38.125 38.312z" fill="#0565A0"/>
    <path fill-rule="evenodd" clip-rule="evenodd" d="M191.115 31.557c.925 0 1.683.762 1.683 1.693v38.312c0 .457-.169.88-.488 1.201-.657.66-1.734.66-2.391 0l-38.107-38.312a1.679 1.679 0 0 1-.488-1.201c0-.931.757-1.693 1.683-1.693h38.108zm0 1.693h-38.108l-.589.592.589-.592 38.108 38.312V33.25z" fill="#0565A0"/>
</svg>
