<svg width="28" height="28" viewBox="0 0 28 28" fill="none" xmlns="http://www.w3.org/2000/svg">
<g id="socialNetwork">
<path id="discord" fill-rule="evenodd" clip-rule="evenodd" d="M17.1764 19.2471C17.6259 19.8165 18.1652 20.4607 18.1652 20.4607C21.4765 20.3559 22.75 18.1833 22.75 18.1833C22.75 13.3589 20.5925 9.44833 20.5925 9.44833C18.4349 7.83018 16.3823 7.87512 16.3823 7.87512L16.1725 8.11485C18.7196 8.89396 19.9033 10.0177 19.9033 10.0177C18.345 9.16365 16.8168 8.74413 15.3934 8.57932C14.3146 8.45946 13.2808 8.48942 12.3669 8.60929C12.2884 8.60929 12.2213 8.6207 12.1457 8.63358L12.1122 8.63925C11.5878 8.6842 10.3142 8.87898 8.71105 9.58317C8.15668 9.83788 7.82706 10.0177 7.82706 10.0177C7.82706 10.0177 9.07063 8.83403 11.7676 8.05492L11.6177 7.87512C11.6177 7.87512 9.56507 7.83018 7.40754 9.44833C7.40754 9.44833 5.25 13.3589 5.25 18.1833C5.25 18.1833 6.50856 20.3559 9.81978 20.4607C9.81978 20.4607 10.3741 19.7865 10.8236 19.2172C8.92081 18.6478 8.20163 17.4492 8.20163 17.4492C8.20163 17.4492 8.35146 17.5541 8.62115 17.7039C8.63613 17.7189 8.65111 17.7339 8.68108 17.7488C8.70356 17.7638 8.72603 17.7751 8.74851 17.7863C8.77098 17.7975 8.79345 17.8088 8.81593 17.8238C9.1905 18.0335 9.56507 18.1983 9.90968 18.3332C10.524 18.5729 11.2581 18.8126 12.1122 18.9774C13.2359 19.1872 14.5544 19.2621 15.9927 18.9924C16.6969 18.8726 17.4161 18.6628 18.1652 18.3482C18.6896 18.1534 19.274 17.8687 19.8883 17.4642C19.8883 17.4642 19.1391 18.6928 17.1764 19.2471ZM9.66995 15.1268C9.66995 14.2129 10.3442 13.4637 11.1982 13.4637C12.0522 13.4637 12.7414 14.2129 12.7265 15.1268C12.7265 16.0408 12.0522 16.7899 11.1982 16.7899C10.3592 16.7899 9.66995 16.0408 9.66995 15.1268ZM15.1387 15.1268C15.1387 14.2129 15.8129 13.4637 16.667 13.4637C17.521 13.4637 18.1952 14.2129 18.1952 15.1268C18.1952 16.0408 17.521 16.7899 16.667 16.7899C15.8279 16.7899 15.1387 16.0408 15.1387 15.1268Z" fill="#34455A"/>
</g>
</svg>
