<svg width="28" height="28" viewBox="0 0 28 28" fill="none" xmlns="http://www.w3.org/2000/svg">
<g id="socialNetwork">
<path id="Union" fill-rule="evenodd" clip-rule="evenodd" d="M14.0059 20.125L14 20.125L13.9933 20.125C13.6513 20.1211 13.0486 19.8025 12.4685 18.6132C12.2304 18.1251 12.0261 17.5424 11.871 16.8876H16.1283C15.9732 17.5424 15.7689 18.1251 15.5308 18.6132C14.9506 19.8026 14.3479 20.1212 14.0059 20.125ZM16.3244 15.8376H11.6749C11.594 15.2601 11.5496 14.6437 11.5496 14C11.5496 13.3563 11.594 12.74 11.6749 12.1624H16.3244C16.4053 12.74 16.4496 13.3563 16.4496 14C16.4496 14.6437 16.4053 15.2601 16.3244 15.8376ZM17.2046 16.8876C16.9587 18.0333 16.5708 19.022 16.0867 19.7604C17.514 19.2432 18.6944 18.2107 19.403 16.8876H17.2046ZM19.8446 15.8376H17.3838C17.4594 15.2511 17.4996 14.6352 17.4996 14C17.4996 13.3648 17.4594 12.7489 17.3838 12.1624H19.8446C20.0268 12.7425 20.125 13.3598 20.125 14C20.125 14.6402 20.0268 15.2575 19.8446 15.8376ZM10.6155 15.8376C10.5399 15.2511 10.4996 14.6352 10.4996 14C10.4996 13.3648 10.5399 12.7489 10.6155 12.1624H8.15542C7.97322 12.7425 7.875 13.3598 7.875 14C7.875 14.6402 7.97323 15.2575 8.15544 15.8376H10.6155ZM8.59703 16.8876C9.30547 18.2104 10.4855 19.2427 11.9123 19.76C11.4283 19.0217 11.0406 18.0331 10.7946 16.8876H8.59703ZM12.4685 9.38689C12.2304 9.87501 12.0261 10.4577 11.871 11.1124H16.1283C15.9732 10.4577 15.7689 9.87501 15.5308 9.38689C14.947 8.19017 14.3405 7.87503 13.9996 7.87503C13.6588 7.87503 13.0522 8.19017 12.4685 9.38689ZM17.2046 11.1124H19.403C18.6944 9.78934 17.514 8.75678 16.0867 8.23963C16.5708 8.97798 16.9587 9.96676 17.2046 11.1124ZM8.597 11.1124H10.7946C11.0406 9.96694 11.4284 8.97828 11.9124 8.23997C10.4855 8.75724 9.30544 9.78963 8.597 11.1124ZM21.875 14C21.875 18.3492 18.3492 21.875 14 21.875C9.65076 21.875 6.125 18.3492 6.125 14C6.125 9.65076 9.65076 6.125 14 6.125C18.3492 6.125 21.875 9.65076 21.875 14Z" fill="#34455A"/>
</g>
</svg>
