<svg width="28" height="28" viewBox="0 0 28 28" fill="none" xmlns="http://www.w3.org/2000/svg">
<g id="socialNetwork">
<path id="twitter" fill-rule="evenodd" clip-rule="evenodd" d="M20.0047 9.84375C20.6938 9.74531 21.2844 9.64688 21.875 9.35156C21.4813 10.0406 20.8906 10.6313 20.2016 11.025C20.3984 15.6516 17.0516 20.6719 11.0469 20.6719C9.275 20.6719 7.60156 20.0812 6.125 19.1953C7.79844 19.3922 9.57031 18.9 10.7516 18.0141C9.275 18.0141 8.09375 17.0297 7.7 15.75C8.19219 15.8484 8.68438 15.75 9.17656 15.6516C7.7 15.2578 6.61719 13.8797 6.61719 12.4031C7.10938 12.6 7.60156 12.7969 8.09375 12.7969C6.71563 11.8125 6.22344 9.94219 7.10938 8.46563C8.78281 10.4344 11.1453 11.7141 13.8031 11.8125C13.3109 9.84375 14.8859 7.875 16.9531 7.875C17.8391 7.875 18.725 8.26875 19.3156 8.85938C20.1031 8.6625 20.7922 8.46562 21.3828 8.07187C21.1859 8.85938 20.6938 9.45 20.0047 9.84375Z" fill="#E6EAF7"/>
</g>
</svg>
