<svg width="50" height="36" viewBox="0 0 50 36" fill="none" xmlns="http://www.w3.org/2000/svg">
    <g clip-path="url(#tedjpwwvda)" fill="#1BA5F8">
        <path d="M46.912 36H3.088C1.385 36 0 34.638 0 32.964V3.036C0 1.362 1.385 0 3.088 0h43.824C48.615 0 50 1.362 50 3.036v29.928C50 34.638 48.615 36 46.912 36zM3.088 1.489c-.868 0-1.574.694-1.574 1.547v29.928c0 .853.706 1.547 1.574 1.547h43.824c.868 0 1.574-.694 1.574-1.547V3.036c0-.853-.706-1.547-1.574-1.547H3.088z"/>
        <path d="M45.874 8.301H4.064a.751.751 0 0 1-.757-.744c0-.411.339-.745.757-.745h41.81c.417 0 .757.334.757.745 0 .41-.34.744-.758.744h.002zM5.355 5.158c.536 0 .97-.427.97-.954a.962.962 0 0 0-.97-.954.962.962 0 0 0-.97.954c0 .527.434.954.97.954zM8.948 5.158c.535 0 .97-.427.97-.954a.962.962 0 0 0-.97-.954.962.962 0 0 0-.97.954c0 .527.434.954.97.954zM12.54 5.158c.535 0 .97-.427.97-.954a.962.962 0 0 0-.97-.954.962.962 0 0 0-.97.954c0 .527.434.954.97.954zM18.806 27.381a.758.758 0 0 1-.535-.218l-5.455-5.364a.737.737 0 0 1 0-1.052l5.592-5.498a.766.766 0 0 1 1.07 0 .736.736 0 0 1 0 1.053l-5.056 4.972 4.92 4.837a.736.736 0 0 1 0 1.053.762.762 0 0 1-.536.218zM31.193 27.382a.758.758 0 0 1-.535-.218.736.736 0 0 1 0-1.053l4.92-4.837-5.057-4.972a.736.736 0 0 1 0-1.053.766.766 0 0 1 1.07 0l5.593 5.498a.736.736 0 0 1 0 1.053l-5.456 5.364a.762.762 0 0 1-.535.218zM21.726 27.382a.765.765 0 0 1-.386-.104.738.738 0 0 1-.265-1.02l6.546-10.862a.765.765 0 0 1 1.038-.26c.36.209.479.665.266 1.02l-6.547 10.861a.761.761 0 0 1-.652.365z"/>
    </g>
    <defs>
        <clipPath id="tedjpwwvda">
            <path fill="#fff" d="M0 0h50v36H0z"/>
        </clipPath>
    </defs>
</svg>
