<svg width="50" height="36" viewBox="0 0 50 36" fill="none" xmlns="http://www.w3.org/2000/svg">
    <g clip-path="url(#ico4cllxqa)" fill="#F9FBFC">
        <path d="M46.912 36H3.088C1.385 36 0 34.638 0 32.964V3.036C0 1.362 1.385 0 3.088 0h43.824C48.615 0 50 1.362 50 3.036v29.928C50 34.638 48.615 36 46.912 36zM3.088 1.489c-.868 0-1.574.694-1.574 1.547v29.928c0 .853.706 1.547 1.574 1.547h43.824c.868 0 1.574-.694 1.574-1.547V3.036c0-.853-.706-1.547-1.574-1.547H3.088z"/>
        <path d="M45.874 8.301H4.064a.751.751 0 0 1-.757-.744c0-.411.339-.745.757-.745h41.81c.417 0 .757.334.757.745 0 .41-.34.744-.758.744h.002zM5.355 5.158c.536 0 .97-.427.97-.954a.962.962 0 0 0-.97-.954.962.962 0 0 0-.97.954c0 .527.434.954.97.954zM8.948 5.158c.535 0 .97-.427.97-.954a.962.962 0 0 0-.97-.954.962.962 0 0 0-.97.954c0 .527.434.954.97.954zM12.54 5.158c.535 0 .97-.427.97-.954a.962.962 0 0 0-.97-.954.962.962 0 0 0-.97.954c0 .527.434.954.97.954zM25.062 33.887a.758.758 0 0 1-.535-.218.736.736 0 0 1 0-1.053 1.3 1.3 0 0 0 .298-1.475 1.339 1.339 0 0 0-1.272-.836c-1.594 0-2.89-1.276-2.89-2.843v-2.14c0-1.567 1.296-2.842 2.89-2.842.577 0 1.052-.313 1.272-.836a1.3 1.3 0 0 0-.298-1.475 2.811 2.811 0 0 1 0-4.02l1.54-1.514a2.897 2.897 0 0 1 2.043-.832c.773 0 1.499.295 2.045.832.407.401.968.51 1.5.294.532-.216.85-.684.85-1.25 0-1.568 1.297-2.843 2.891-2.843h2.177c1.594 0 2.891 1.275 2.891 2.843 0 .566.318 1.034.85 1.25a1.355 1.355 0 0 0 1.5-.294 2.897 2.897 0 0 1 2.044-.832c.773 0 1.499.295 2.045.832a.736.736 0 0 1 0 1.053.766.766 0 0 1-1.071 0 1.378 1.378 0 0 0-.974-.396c-.367 0-.713.142-.973.398a2.88 2.88 0 0 1-3.15.616c-1.102-.449-1.785-1.455-1.785-2.626 0-.747-.618-1.354-1.377-1.354h-2.177c-.759 0-1.377.607-1.377 1.354 0 1.17-.683 2.177-1.785 2.626a2.883 2.883 0 0 1-3.15-.617 1.38 1.38 0 0 0-.974-.396c-.367 0-.713.14-.973.396l-1.54 1.513a1.339 1.339 0 0 0 0 1.915c.844.829 1.084 2.016.628 3.098-.457 1.082-1.48 1.754-2.672 1.754-.759 0-1.377.608-1.377 1.354v2.14c0 .747.618 1.354 1.377 1.354 1.192 0 2.215.672 2.672 1.755.456 1.083.216 2.27-.627 3.098a.762.762 0 0 1-.535.218h-.001zm11.422-2.923c-2.563 0-4.648-2.05-4.648-4.57 0-2.52 2.085-4.571 4.648-4.571 2.564 0 4.65 2.05 4.65 4.57 0 2.52-2.086 4.571-4.65 4.571zm0-7.654c-1.728 0-3.134 1.383-3.134 3.082 0 1.7 1.406 3.082 3.134 3.082 1.729 0 3.135-1.383 3.135-3.082 0-1.699-1.406-3.082-3.135-3.082z"/>
    </g>
    <defs>
        <clipPath id="ico4cllxqa">
            <path fill="#fff" d="M0 0h50v36H0z"/>
        </clipPath>
    </defs>
</svg>
